<svg xmlns="http://www.w3.org/2000/svg" viewBox="0 0 832.5 832.5"><defs><style>.cls-1{fill:#e55747;}.cls-2{fill:#ffffc5;}.cls-3{fill:#76b099;}.cls-4{fill:#5e4440;}.cls-5{fill:#deaa7c;}</style></defs><g id="Layer_2" data-name="Layer 2"><g id="Layer_1-2" data-name="Layer 1"><rect class="cls-1" width="832.5" height="832.5"/><path class="cls-2" d="M642.33,683.54c-9.12-8-30.08-8.08-41.15-11-12.28-3.2-29.63-6-38.14-14.82,0-1.29-.06-2.57,0-3.84l-144.47-7.11c0,.57-.07,1.15-.12,1.73l-.17-.25c-15,2.17-30,18.59-44.42,24.86-10.95,4.74-27.56,6.07-36.52,13.12,17.65,17.25,53.52-1.35,77.75-14.59-4,23.39-7.68,49,9.41,62.38.06,17.22,1.86,48,9.76,52.88,7.13-10.13,9-29.78,9.49-44.71,21.3,5.38,46.95,8,68.37,6.2,16.81-1.4,29.59-1.92,38.84-4.28,2.36,14.56,3.22,36.94,13.86,39.54,5.42-13.25,3.8-34,2.52-51.62a37.44,37.44,0,0,0,2.81-13.27c.72-12.67-2-25.63-4.28-38.5C582.67,691.9,625.57,684.59,642.33,683.54Z"/><path class="cls-3" d="M343.86,425.72c10.67-2.92,30.48-18.35,41.79-22.57C356.85,352.32,287.93,346,255.22,300c14.08-2.64,28.82-15.18,46-14.94-14.6-28.9-170.18-175.18-199.8-208.76C112.26,121.14,67.38,192,65.54,241.4c9-15.7,23.17-30.33,33.5-45.37-8.12,78.76-40.46,163.71-67.88,237.9,19.72-6.54,39.17-19.06,55.85-30.61-4.61,86-62.61,164.43-57.33,256,77.43,11.22,174.08-36.58,250.59-53.58C344.37,591.5,400,568.58,461.41,548.8,436.32,511.31,382.33,449.31,343.86,425.72Z"/><path class="cls-4" d="M325.32,708.62l1.18-.25a162.19,162.19,0,0,0,15.87-4.69c1.24-.41,2.47-.84,3.7-1.28-7.58-25-31.48-82.56-45.72-105.34-3.28,1-6.53,2.07-9.78,3.16C285,602.1,279.35,604,273.7,605.8,285.06,637,295.65,695.81,325.32,708.62Z"/><path class="cls-5" d="M315.7,129c-53.24-24.2-143.06-27.14-181.82,34.9-17.31,27.72-42.35,70.23-30.22,138.22,11.67,65.41,64.83,88.46,128.09,92.51C400.8,405.39,464.18,196.46,315.7,129Z"/><path class="cls-2" d="M305.85,161.26a141.46,141.46,0,0,0-48.09,25.18q-20.59,16.73-36.51,42.07,15.54-8.44,30.37-8.45,29.64,0,47.72,23.89Q316,266,316,297.23q0,37.13-21.33,61.92T237.16,384q-37.24,0-58.57-27.93-19.51-25.72-19.52-64.68,0-55.13,38-102.16,34.33-42.62,88.21-65.41ZM204.26,295.39q0,19.13,7.59,32.71Q221.26,345,239,345q16.64,0,25.31-14.69,7.23-12.13,7.23-30.14,0-17.64-7.23-28.66-8.67-13.23-24.94-13.23a39.31,39.31,0,0,0-15.91,3.31,90.6,90.6,0,0,0-15.91,9.18A94.64,94.64,0,0,0,204.26,295.39Z"/><path class="cls-4" d="M409.08,662.78c1.64-6.22,3.34-12.64,4.91-19.51l2.6.59c-1.59,6.92-3.29,13.36-4.94,19.6C402.53,698,396.51,720.77,433.13,741c39,21.57,99.62,8.11,140.19-1.06-.12-30.47-3.85-58.77-10-91.5.87-.2,1.73-.41,2.59-.63C572.18,681.16,576,709.91,576,741v1.07l-1,.23c-41,9.27-102.87,23.27-143.11,1C393.4,722.1,400,697.22,409.08,662.78Z"/><path class="cls-4" d="M564.93,795.94l.94-2.28c5.75-13.92,8.48-34.8,7-53.2l-2.65.21c1.39,17-.9,36.12-5.86,49.61a86.47,86.47,0,0,1-13.94-45.8l-2.66,0a89.3,89.3,0,0,0,15.81,49.4Z"/><path class="cls-4" d="M429.57,796.3l1.61-1.11c13.58-9.35,18.79-27.34,14.29-49.35l-2.61.53c4.09,20-.13,36.43-11.6,45.45-3.12-13.67-5.65-27.93-8.1-41.74-1-5.63-2-11.45-3.09-17.14l-2.61.48c1.05,5.69,2.08,11.5,3.08,17.12,2.57,14.51,5.23,29.51,8.58,43.86Z"/><path class="cls-4" d="M641.54,691.33a9.46,9.46,0,0,0-1-17.94c-6.32-1.68-13.58-2.49-20.6-3.26-16.29-1.81-33.13-3.67-41.09-16.36l-2.25,1.41c8.64,13.79,26.13,15.72,43,17.59,7.25.81,14.09,1.56,20.22,3.2a6.79,6.79,0,0,1-.16,13.14c-23.05,5.62-49.09,9.35-67.45-5.61l-1.68,2.07c19.27,15.69,46.08,11.9,69.76,6.13A9.15,9.15,0,0,0,641.54,691.33Z"/><path class="cls-4" d="M374.2,692.55C389.86,686.65,404.6,677,413,667l-2-1.71c-15,17.87-50.83,34.66-74.54,29.52a6.39,6.39,0,0,1-5.17-6.43,6.47,6.47,0,0,1,5.19-6.5c28.07-6.17,52.76-16.78,73.37-31.51l-1.55-2.17c-20.32,14.53-44.67,25-72.39,31.08a9.29,9.29,0,0,0,0,18.13C347.11,699.83,361,697.53,374.2,692.55Z"/><path class="cls-2" d="M317.58,518.59c3-35.26,26.72-64.1,50.2-87.18,49-48.15,78.79-120,212.09-67.48,60.37,23.76,92.47,86.65,84,161.2-2.58,22.61-11.3,37.08-22.49,55.53-20.67,34.05-63.65,52.39-104,55.23-63.82,4.49-106,.36-165.29-30.69C342.51,589.72,314.49,555.16,317.58,518.59Z"/><path class="cls-4" d="M617.8,349.06c2.25-6.08,4.38-11.94,6.46-17.65,10.21-28,19-52.23,33-80.85,5-10.36,16.25-24,28.12-38.43C706.3,186.65,728,160.29,726,141.29l-.17-1.69-1.69-.2c-21.11-2.56-41.24,2-59.82,13.63-16.36,10.22-30.61,25.49-41.21,44.17-6.89,12.14-21.79,42.69-32.43,73-13.19,37.55-15.14,60.9-5.8,69.39l2.86-3.15C570,320.32,609,230.67,626.8,199.31c22.08-38.9,57.51-59.68,95.07-55.88.27,17.26-21,43.11-39.8,66-12,14.64-23.4,28.46-28.66,39.26-14,28.82-22.89,53.13-33.14,81.27-2.08,5.69-4.21,11.55-6.46,17.63Z"/><path class="cls-2" d="M592.9,337.62c3.28-24.89,3.08-49.06,12-73.58,7.07-19.33,24.57-68.34,50.63-66.74-.43,21.53-23.78,46.43-31,67.95-4,12.06-17.54,53.38-19,76.73C601.37,340.41,597.15,339,592.9,337.62Z"/><path class="cls-4" d="M553.5,326.48c1.51.33,3,.69,4.54,1.06l1.43.36c1.16.3,2.31.61,3.47.94.53.13,1,.29,1.57.44,4.84,1.39,9.66,3,14.42,4.79l1.41.54c.43.15.85.32,1.27.49,1.14.45,2.28.9,3.41,1.38l1.53.63.38.17q5.21,2.22,10.28,4.75c-.18-.94-.34-1.87-.5-2.79,0-.14-.05-.28-.07-.4-.11-.67-.23-1.31-.35-2-1-.51-2.07-1-3.12-1.47q-3.79-1.73-7.64-3.3l-.77-.32-.79-.32c-1.3-.51-2.59-1-3.89-1.49a.53.53,0,0,0-.2-.07c-.4-.17-.81-.32-1.22-.46-1.29-.49-2.59-.94-3.89-1.38h-.2c-.88,0-1.75,0-2.63-.08l-1.51-.06c-1.25-.05-2.51-.13-3.77-.22-.68,0-1.35-.08-2-.14l-.61,0h0l-1.47-.12-3.15-.3L558,327l-3.69-.39C554,326.53,553.77,326.5,553.5,326.48Zm0,0c1.51.33,3,.69,4.54,1.06l1.43.36c1.16.3,2.31.61,3.47.94.53.13,1,.29,1.57.44,4.84,1.39,9.66,3,14.42,4.79l1.41.54c.43.15.85.32,1.27.49,1.14.45,2.28.9,3.41,1.38l1.53.63.38.17q5.21,2.22,10.28,4.75c-.18-.94-.34-1.87-.5-2.79,0-.14-.05-.28-.07-.4-.11-.67-.23-1.31-.35-2-1-.51-2.07-1-3.12-1.47q-3.79-1.73-7.64-3.3l-.77-.32-.79-.32c-1.3-.51-2.59-1-3.89-1.49a.53.53,0,0,0-.2-.07c-.4-.17-.81-.32-1.22-.46-1.29-.49-2.59-.94-3.89-1.38h-.2c-.88,0-1.75,0-2.63-.08l-1.51-.06c-1.25-.05-2.51-.13-3.77-.22-.68,0-1.36-.08-2-.14l-.61,0h0l-1.47-.12-3.15-.3L558,327l-3.69-.39C554,326.53,553.77,326.5,553.5,326.48ZM338.39,608c17.23,15.17,41.53,26,77.44,34.44h0q8.88,2.09,18.74,4c39.47,7.56,74.9,10.28,105.5,8.13,3.08-.22,6.1-.48,9.08-.79q7.57-.79,14.71-2c.89-.14,1.76-.29,2.63-.46q7-1.29,13.53-3c30.43-7.92,53.86-22.53,69.89-43.63,19.18-25.25,33.26-66.25,34.24-99.7.29-9.7-.36-23.44-1.35-37.53-1.13-16.16-2.73-32.8-3.91-44.36a56.81,56.81,0,0,0-10.31-27.33c-13-18.16-30.68-34.2-50.74-46.91-1.21-.78-2.44-1.54-3.67-2.29h0c-.94-.56-1.85-1.11-2.79-1.63h0c-1-.6-2-1.17-3-1.74s-1.87-1-2.81-1.54-1.67-.91-2.51-1.34l-1.57-.82c-1.22-.62-2.43-1.23-3.67-1.83-.5-.25-1-.49-1.53-.73-1-.51-2.07-1-3.12-1.47q-3.79-1.73-7.64-3.3l-.77-.32-.79-.32c-1.3-.51-2.59-1-3.89-1.49a.53.53,0,0,0-.2-.07c-.4-.17-.81-.32-1.22-.46-1.29-.49-2.59-.94-3.89-1.38h0a176.89,176.89,0,0,0-45.28-9.36c-.66-.05-1.32-.09-2-.12q-5.46-.3-10.76-.2h0q-6,.11-11.67.69-4.28.44-8.41,1.14c-.78.12-1.56.26-2.33.42h-.06l-1.37.27c-.93.18-1.86.38-2.78.59a116.91,116.91,0,0,0-13,3.73,106.33,106.33,0,0,0-11.82,5c-1.9.91-3.75,1.9-5.58,2.93-1.25.7-2.47,1.42-3.68,2.18a107.67,107.67,0,0,0-21.81,17.85c-12.94,13.73-27.77,26.35-42.11,38.54-37.49,31.89-76.25,64.85-83.08,120.11C303.74,554.5,313.35,586,338.39,608Zm-25.16-95.7c6.61-53.62,43-84.6,81.6-117.39,14.43-12.27,29.35-25,42.45-38.88a104,104,0,0,1,54.93-30.64l.79-.17,1.36-.27c.65-.13,1.31-.26,1.95-.36q4.2-.75,8.3-1.19l1.37-.15c1.07-.1,2.14-.2,3.2-.27l.5,0,.88,0c2.08-.14,4.11-.23,6.11-.26l1.37,0c2.05,0,4.05,0,6,.07h0c1.77.06,3.48.14,5.16.26a162.41,162.41,0,0,1,21.48,2.93l1.37.29,1.42.3h0c1.51.33,3,.69,4.54,1.06l1.43.36c1.16.3,2.31.61,3.47.94.53.13,1,.29,1.57.44,4.84,1.39,9.66,3,14.42,4.79l1.41.54c.43.15.85.32,1.27.49,1.14.45,2.28.9,3.41,1.38l1.53.63.38.17q5.21,2.22,10.28,4.75l1.53.75c1.24.63,2.47,1.27,3.68,1.92l1.5.81c.88.48,1.77,1,2.65,1.47,1.23.69,2.45,1.39,3.67,2.11h0c21.8,12.88,41.06,29.77,54.92,49.11a52.65,52.65,0,0,1,9.52,25.29c2.22,21.54,5.85,60.74,5.25,81.32-1,32.13-15,73-33.37,97.26-24.34,32-64.11,45.15-107,48.17-34.93,2.46-71.9-1.8-104.22-8-45.68-8.75-74.73-20.3-94.2-37.44C317.29,583.79,308.14,553.52,313.23,512.32ZM553.5,326.48c1.51.33,3,.69,4.54,1.06l1.43.36c1.16.3,2.31.61,3.47.94.53.13,1,.29,1.57.44,4.84,1.39,9.66,3,14.42,4.79l1.41.54c.43.15.85.32,1.27.49,1.14.45,2.28.9,3.41,1.38l1.53.63.38.17q5.21,2.22,10.28,4.75c-.18-.94-.34-1.87-.5-2.79,0-.14-.05-.28-.07-.4-.11-.67-.23-1.31-.35-2-1-.51-2.07-1-3.12-1.47q-3.79-1.73-7.64-3.3l-.77-.32-.79-.32c-1.3-.51-2.59-1-3.89-1.49a.53.53,0,0,0-.2-.07c-.4-.17-.81-.32-1.22-.46-1.29-.49-2.59-.94-3.89-1.38h-.2c-.88,0-1.75,0-2.63-.08l-1.51-.06c-1.25-.05-2.51-.13-3.77-.22-.68,0-1.35-.08-2-.14l-.61,0h0l-1.47-.12-3.15-.3L558,327l-3.69-.39C554,326.53,553.77,326.5,553.5,326.48Zm0,0c1.51.33,3,.69,4.54,1.06l1.43.36c1.16.3,2.31.61,3.47.94.53.13,1,.29,1.57.44,4.84,1.39,9.66,3,14.42,4.79l1.41.54c.43.15.85.32,1.27.49,1.14.45,2.28.9,3.41,1.38l1.53.63.38.17q5.21,2.22,10.28,4.75c-.18-.94-.34-1.87-.5-2.79,0-.14-.05-.28-.07-.4-.11-.67-.23-1.31-.35-2-1-.51-2.07-1-3.12-1.47q-3.79-1.73-7.64-3.3l-.77-.32-.79-.32c-1.3-.51-2.59-1-3.89-1.49a.53.53,0,0,0-.2-.07c-.4-.17-.81-.32-1.22-.46-1.29-.49-2.59-.94-3.89-1.38h-.2c-.88,0-1.75,0-2.63-.08l-1.51-.06c-1.25-.05-2.51-.13-3.77-.22-.68,0-1.35-.08-2-.14l-.61,0h0l-1.47-.12-3.15-.3L558,327l-3.69-.39C554,326.53,553.77,326.5,553.5,326.48Z"/><path class="cls-4" d="M590.06,525.91c-5.23.69-10.9,2.27-16.24,1.14.31-2.35-.42-10.36-.9-12.77,13.5-4,11.45,2.72,14.23,12.36Z"/><path class="cls-4" d="M357.51,468.91c0,.24,0,.49,0,.73h0l-3.33-1.39c0,.59-.33,5.8.25,8.33C331.59,487.54,338.56,456.29,357.51,468.91Z"/><path class="cls-1" d="M598.41,548.74c-1.95-5.35-10-6.39-15.8-8-13.09-3.73-26.14,6.86-24.73,20.41C560.83,589.38,608.52,576.56,598.41,548.74Z"/><path class="cls-1" d="M362.8,499.22c-13.41-31.93-52.85-.74-36,18.07C343,535.33,369.1,514.25,362.8,499.22Z"/><path class="cls-4" d="M445.19,554.64c2.34-.17,5-2.22,7.81-6.15l-3.44-2.5c-3,4.16-4.56,4.48-4.78,4.34-1.32-.85-2.9-6.76-1.89-19.55.81-10.13,3-20.2,5.12-23.95l-3.69-2.13c-5.05,8.78-9.65,44.14-1.86,49.2A4.36,4.36,0,0,0,445.19,554.64Z"/><path class="cls-4" d="M430.12,550.72c3.93-.27,8.23-2.87,11.93-7.38l-3.29-2.7c-3.72,4.54-8.06,6.72-11,5.54-2.64-1-4-4.75-3.7-9.95l-4.25-.26c-.45,7.23,1.88,12.4,6.39,14.17A9,9,0,0,0,430.12,550.72Z"/><path class="cls-4" d="M456,335.29c.28.6.57,1.2.87,1.78l3.79-1.94c-.33-.66-.66-1.33-1-2-7.79-16.7-9.91-40.25-6-66.69a230.31,230.31,0,0,1,27.55-78.76c14.21-24.79,31.44-43.38,49.79-54.31l.42-.26,1.26-.71,1.14-.65.58-.32c.86-.46,1.72-.91,2.58-1.33a79.26,79.26,0,0,1,11.53-4.69,68.36,68.36,0,0,1,14.79-3c.81,8.2-1.84,17.08-6.4,26.2-4.41,8.78-10.62,17.79-17.26,26.6l-1,1.38-.68.89L536,180c-.09.12-.19.23-.28.36L534.46,182c-.3.38-.59.76-.89,1.13l-.83,1.05c-.53.68-1.06,1.35-1.57,2-.29.35-.56.7-.84,1.05l-1.82,2.3a1,1,0,0,1-.09.13l-.87,1.1-2.08,2.63-.88,1.12c-7,8.93-13.34,17.33-17.26,24.66-2.12,4-4,7.78-5.7,11.45-14.5,31.43-14.12,53.38-11.53,90.85l.18,2.53,4.24-.3-.15-2.16c0-.3-.05-.62-.06-.93s-.06-.71-.07-1.07v-.07a2.73,2.73,0,0,1,0-.41c-2-30.14-2.41-50,6-73.74v0c0-.09.06-.19.1-.29.22-.61.44-1.23.67-1.85.12-.3.23-.6.34-.91l.24-.58c.28-.75.58-1.49.89-2.25.15-.38.3-.78.48-1.16s.3-.74.46-1.11.21-.52.33-.78.3-.72.47-1.08a.91.91,0,0,1,.07-.14c.15-.38.32-.75.49-1.13l.21-.47c.31-.68.62-1.37.94-2.05,1.55-3.32,3.27-6.74,5.17-10.31,4.32-8.09,11.87-17.75,20-28,.28-.33.54-.68.81-1a.34.34,0,0,1,.08-.09c.53-.68,1.06-1.35,1.6-2,.36-.48.73-.94,1.09-1.41.59-.73,1.16-1.46,1.72-2.19.28-.34.54-.68.8-1,.58-.73,1.16-1.47,1.73-2.21.27-.35.54-.71.82-1.06s.46-.61.7-.9l1.24-1.63c.13-.19.28-.38.43-.57l1-1.3.18-.22,1-1.42.5-.67c.27-.35.53-.71.79-1.07a186.59,186.59,0,0,0,13.3-20.4c6-11,9.74-21.94,8.67-32.18-.06-.69-.15-1.37-.27-2.06L567,117.9l-1.9.1a71.16,71.16,0,0,0-13.27,2c-1.56.39-3.12.84-4.67,1.34-1.19.38-2.36.79-3.55,1.22-2,.77-4.08,1.61-6.12,2.56-1.6.75-3.21,1.54-4.8,2.4-20.42,11-39.55,30.89-55.09,58C448,237.09,439.1,299.57,456,335.29Z"/><path class="cls-2" d="M465.26,330.18c.08.55.16,1.09.25,1.6,4.22-1.36,8.48-2.65,12.8-3.62a30.14,30.14,0,0,1-1.23-2.94c-6.24-17.21-1.9-46.39,3.67-62.34,3.63-10.36,20.4-48.25,4-54C461,200.62,460,294.82,465.26,330.18Z"/><path class="cls-4" d="M465.51,509.26c-11.51,7-25.93,2.77-33.44-8.41,7.91-11.63,29.16-6.23,38.46,2.63Z"/><path class="cls-2" d="M663.69,321.11c0-17.8-4-53.41,14.3-64.72,21.13-13,20.82,10.27,21.66,28.53,8.06-14.84,17.26-33.54,34.44-37a48.47,48.47,0,0,1-4.82,31.92A220.11,220.11,0,0,1,756,277.92c5.13,20.78-11.75,27.34-23.26,40,20-5.67,40.82,7,28.77,31.65-9.5,19.45-42.84,17.31-57,23.34Z"/><path class="cls-5" d="M500.3,329.29c31.5-56.67,102.58-76.16,157.35-37.47,41.43,29.26,66.93,83.15,71.4,131.49,3.28,35.6-1.55,61.32-43.16,55.46,5.23-38.9-42.86-68.71-68.81-89.83-35.37-28.81-76.37-44.44-119.5-54.2Z"/><path class="cls-4" d="M629.32,307.32c-.23-1.13-.47-2.24-.79-3.34-.13-.46-.63-1.65-.65-1.78l-.82-1.46-.37-.42c0-.71-2.93-1.64-.09-.17a7.66,7.66,0,0,1-1.55-.9c-.67-.18-1.33-.42-2-.6s-1.54-.35-2.32-.49c-.52-.1-3.26-.38-.37-.09l-2.82-.3a6.54,6.54,0,0,0-1,.83c-4.19,4.35-8.66,14.65-4.66,19.59,2.69,3.34,10.48,4.84,12.81,1.39l5.23-10.45A9.18,9.18,0,0,1,629.32,307.32Z"/><path class="cls-4" d="M679.79,365.67c-10-6.5-22.48,2.73-19,15.92,2,7.73,13.81,11.12,18,2.51l2.14-12.83Q680.39,368.45,679.79,365.67Z"/><path class="cls-4" d="M676.33,334.76a20.21,20.21,0,0,0-.25-2.2c-.11-.17-.31-.64-.5-1.07-.09-.12-.2-.25-.32-.38s-.5-.33-.76-.48-.54-.26-.81-.4c.31.19-1.53-.6-2.07-.75-.75-.21-1.5-.38-2.26-.54l-.84-.15c-.85,0-1.72-.16-2.57-.2-1,0-2.08,0-3.13,0-2.83,5-5.22,11.67-.89,15.1,3.8,3,12.38.32,15.58-4A10,10,0,0,1,676.33,334.76Z"/><path class="cls-4" d="M551.71,311.05l.95,20.87c3.39,4.6,11,3.42,15-.2,5.76-5.22,5.07-16.56,4.22-23.82C566.14,303.46,556.85,307.4,551.71,311.05Z"/><path class="cls-4" d="M609.9,351c.16,1.43.31,2.85.44,4.27l12.47,5.14C628.27,348.33,617.68,345.85,609.9,351Z"/><path class="cls-4" d="M703.86,438.63c-5.11,11.32,7.32,17.94,12.8,6.19V441C718,433.4,707.35,430.89,703.86,438.63Z"/><path class="cls-4" d="M718.66,389.16c-5.39.18-10.18,4.35-8.94,11.52.92,5.32,7.14,8.16,12.66,7.61C720.85,402,719.88,395.55,718.66,389.16Z"/><path class="cls-4" d="M648.4,412.56,657.88,424c6.86.06,5.37-7.88,4.14-12.76C657.29,410.17,653,411.34,648.4,412.56Z"/><path class="cls-2" d="M407.16,23.92v1.16a2.29,2.29,0,0,0,4.57,0V24a2.29,2.29,0,1,0-4.57,0Z"/><path class="cls-2" d="M582.26,23.31h1.15a2.29,2.29,0,0,0,0-4.58h-1.15a2.29,2.29,0,0,0,0,4.58Z"/><path class="cls-2" d="M199.21,30.11v1.16a2.29,2.29,0,0,0,4.58,0V30.14a2.29,2.29,0,0,0-4.58,0Z"/><path class="cls-2" d="M311,48.52V49a2.29,2.29,0,1,0,4.58,0v-.51a2.29,2.29,0,0,0-4.58,0V49a2.29,2.29,0,1,0,4.58,0v-.51a2.29,2.29,0,0,0-4.58,0Z"/><path class="cls-2" d="M165.91,85.6a2.29,2.29,0,1,0-2.27-2.3,2.31,2.31,0,0,0,2.27,2.3Z"/><path class="cls-2" d="M115,82.55a2.29,2.29,0,1,0-2.27-2.31A2.31,2.31,0,0,0,115,82.55Z"/><path class="cls-2" d="M112.88,112.21v1.15a2.29,2.29,0,1,0,4.57,0v-1.16a2.29,2.29,0,1,0-4.57,0Z"/><path class="cls-2" d="M90.15,41.7v1.16a4.23,4.23,0,0,0,8.46.06V41.77a4.23,4.23,0,1,0-8.46-.07Z"/><path class="cls-2" d="M79.39,276.69a4.23,4.23,0,1,0-4.19-4.26,4.28,4.28,0,0,0,4.19,4.26Z"/><path class="cls-2" d="M156.7,134.94a4.23,4.23,0,1,0-4.2-4.26,4.28,4.28,0,0,0,4.2,4.26Z"/><path class="cls-2" d="M80.27,116.83V118a2.57,2.57,0,1,0,5.13,0v-1.15a2.57,2.57,0,1,0-5.13,0Z"/><path class="cls-2" d="M85.9,153.2a1.18,1.18,0,0,0,0-2.36,1.18,1.18,0,0,0,0,2.36Z"/><path class="cls-2" d="M75.9,144.4h1.15a1,1,0,0,0,0-2H75.91a1,1,0,0,0,0,2Z"/><path class="cls-2" d="M115.35,47.51a5.28,5.28,0,0,0,.23,2,2,2,0,0,0,1.89,1.3c1.25.05,1.26-1.89,0-1.94h-.09c.12,0-.11-.11,0,0s.06.07,0,0c.09.15,0-.11,0-.14a4.9,4.9,0,0,1-.07-1.18,1,1,0,0,0-1.94,0Z"/><path class="cls-2" d="M135.94,112a1,1,0,0,0,0-1.94,1,1,0,0,0,0,1.94Z"/><path class="cls-2" d="M188.68,56.55a1,1,0,0,0,0-1.94,1,1,0,0,0,0,1.94Z"/><path class="cls-2" d="M488,126.88l-.21.05-1.76.37a1,1,0,0,0,.28.64l1.16,1.15a1,1,0,0,0,1.37,0,1,1,0,0,0,0-1.38C488.52,127.44,488.25,127.16,488,126.88Z"/><path class="cls-2" d="M219.05,65.81c.12-.62.25-1.25.38-1.87a.9.9,0,0,0-.34-.06A1,1,0,0,0,219.05,65.81Z"/><path class="cls-2" d="M314.34,74.48a1,1,0,0,0,0-1.94,1,1,0,0,0,0,1.94Z"/><path class="cls-2" d="M123.67,161.41a1,1,0,0,0,0-1.95,1,1,0,0,0,0,1.95Z"/><path class="cls-2" d="M199.63,101.91l-1.15,1.16a1,1,0,0,0,1.38,1.37l1.15-1.16a1,1,0,0,0,0-1.37,1,1,0,0,0-1.38,0Z"/><path class="cls-2" d="M603.56,198h-1.15a2.29,2.29,0,0,1,0-4.58h1.15a2.29,2.29,0,0,1,0,4.58Z"/><path class="cls-2" d="M362.79,212.46a2.29,2.29,0,1,1,2.27-2.3,2.32,2.32,0,0,1-2.27,2.3Z"/><path class="cls-2" d="M292.29,198.84a2.29,2.29,0,1,1,2.27-2.3,2.31,2.31,0,0,1-2.27,2.3Z"/><path class="cls-2" d="M140.65,213.66H139.5a2.29,2.29,0,0,1,0-4.57h1.15a2.29,2.29,0,1,1,0,4.57Z"/><path class="cls-2" d="M99,194v1.15a2.29,2.29,0,1,1-4.57,0V194A2.29,2.29,0,0,1,99,194Z"/><path class="cls-2" d="M74,244.85V246a2.29,2.29,0,1,1-4.58,0v-1.16a2.29,2.29,0,0,1,4.58,0Z"/><path class="cls-2" d="M98.33,225.2a2.29,2.29,0,1,1,2.27-2.31,2.32,2.32,0,0,1-2.27,2.31Z"/><path class="cls-2" d="M191.33,177.67a2.29,2.29,0,1,1,2.27-2.3,2.3,2.3,0,0,1-2.27,2.3Z"/><path class="cls-2" d="M527.68,351.65a4.23,4.23,0,1,1,4.2-4.26,4.28,4.28,0,0,1-4.2,4.26Z"/><path class="cls-2" d="M411.61,173.78a.94.94,0,0,0-.2.6,5.47,5.47,0,0,1-.07,1.18l-.06.13s0,0,0,0h-.07a1,1,0,0,0,0,1.95,2,2,0,0,0,1.88-1.31,2.83,2.83,0,0,0,.19-.76C412.72,175,412.15,174.41,411.61,173.78Zm-.32,1.93Zm0,0Z"/><path class="cls-2" d="M340,183.41a1,1,0,0,1,0-1.94,1,1,0,0,1,0,1.94Z"/><path class="cls-2" d="M191.84,248.72a1,1,0,0,1,0-1.94,1,1,0,0,1,0,1.94Z"/><path class="cls-2" d="M218.39,207.13V206a1,1,0,0,1,1.94,0v1.16a1,1,0,0,1-1.94,0Z"/><path class="cls-2" d="M160.67,227.35a1,1,0,0,1,0-1.95,1,1,0,0,1,0,1.95Z"/><path class="cls-2" d="M117.94,218.1a1,1,0,0,1,0-1.94,1,1,0,0,1,0,1.94Z"/><path class="cls-2" d="M143.16,247.17a2.31,2.31,0,0,1-.44,1.71,2.21,2.21,0,0,1-1.68.42,1,1,0,1,1,0-1.94h.62c.22,0-.26.06,0,0s-.26.12-.14.06-.22.18-.12.1-.17.23-.1.12-.11.28-.06.14,0,0,0-.08,0,.28,0,.11,0-.4,0-.61a1,1,0,1,1,1.94,0Z"/><path class="cls-2" d="M101.85,278.88a1,1,0,0,1,0-1.94,1,1,0,0,1,0,1.94Z"/><path class="cls-2" d="M372.07,333.08l1.16,1.16a1,1,0,0,1-1.38,1.36l-1.15-1.15a1,1,0,0,1,1.37-1.37Z"/><path class="cls-2" d="M178.51,330.24a2.38,2.38,0,0,0-.38,1.23,2.29,2.29,0,0,0,4.54.4C181.26,331.39,179.87,330.85,178.51,330.24Z"/><path class="cls-2" d="M129.51,330.72a2.29,2.29,0,1,0-2.27-2.3,2.32,2.32,0,0,0,2.27,2.3Z"/><path class="cls-2" d="M127.37,360.38v1.15a2.29,2.29,0,0,0,4.58,0v-1.16a2.29,2.29,0,0,0-4.58,0Z"/><path class="cls-2" d="M469.15,366.16v1.15a2.29,2.29,0,1,0,4.58,0v-1.16a2.29,2.29,0,0,0-4.58,0Z"/><path class="cls-2" d="M444.87,346.51a2.29,2.29,0,1,0-2.27-2.31,2.32,2.32,0,0,0,2.27,2.31Z"/><path class="cls-2" d="M291.05,354.52a2.29,2.29,0,1,0-2.27-2.3,2.3,2.3,0,0,0,2.27,2.3Z"/><path class="cls-2" d="M202.05,395.82V397a4.23,4.23,0,1,0,8.46.06v-1.15a4.23,4.23,0,0,0-8.46-.07Z"/><path class="cls-2" d="M426.38,380.8a4.23,4.23,0,1,0-4.2-4.26,4.28,4.28,0,0,0,4.2,4.26Z"/><path class="cls-2" d="M126.12,409.78a4.23,4.23,0,1,0-4.19-4.26,4.26,4.26,0,0,0,4.19,4.26Z"/><path class="cls-2" d="M171.2,383.12a4.24,4.24,0,1,0-4.2-4.27,4.28,4.28,0,0,0,4.2,4.27Z"/><path class="cls-2" d="M77.36,375.68v1.16a2.57,2.57,0,0,0,5.13,0v-1.16a2.57,2.57,0,0,0-5.13,0Z"/><path class="cls-2" d="M100.4,401.37a1.18,1.18,0,0,0,0-2.36,1.18,1.18,0,0,0,0,2.36Z"/><path class="cls-2" d="M90.4,392.57h1.15a1,1,0,0,0,1-1,1,1,0,0,0-1-1H90.41a1,1,0,1,0,0,1.94Z"/><path class="cls-2" d="M129.85,295.68a5.28,5.28,0,0,0,.23,2A2,2,0,0,0,132,299a1,1,0,0,0,0-2h-.1c.13,0-.11-.11,0,0s.06.08,0,0c.1.15,0-.11,0-.14a5.51,5.51,0,0,1-.06-1.18,1,1,0,0,0-1.94,0Z"/><path class="cls-2" d="M150.44,360.21a1,1,0,0,0,0-1.94,1,1,0,0,0,0,1.94Z"/><path class="cls-2" d="M224.05,355.47l1.15,1.16a1,1,0,0,0,1.37-1.38l-1.16-1.16a1,1,0,1,0-1.36,1.38Z"/><path class="cls-2" d="M351.35,370a1,1,0,0,0,0-1.94,1,1,0,0,0,0,1.94Z"/><path class="cls-2" d="M324.8,328.44v-1.16a1,1,0,0,0-1.94,0v1.16a1,1,0,0,0,1.94,0Z"/><path class="cls-2" d="M382.52,348.66a1,1,0,0,0,0-2,1,1,0,0,0,0,2Z"/><path class="cls-2" d="M400,368.48a2.35,2.35,0,0,0,.43,1.71,2.21,2.21,0,0,0,1.68.42,1,1,0,1,0,0-1.94h-.61c-.23,0,.26.06,0,0s.25.12.13.06.22.18.12.1.17.23.1.12.11.28.06.14,0-.05,0-.08,0,.28,0,.11,0-.4,0-.61a1,1,0,1,0-1.94,0Z"/><path class="cls-2" d="M500.78,376.11l1.15,1.15a1,1,0,1,0,1.37-1.38l-1.16-1.15a1,1,0,0,0-1.37,0,1,1,0,0,0,0,1.37Z"/><path class="cls-2" d="M494.43,333.32a1,1,0,0,0,0-1.94,1,1,0,0,0,0,1.94Z"/><path class="cls-2" d="M441.34,400.19a1,1,0,0,0,0-1.94,1,1,0,0,0,0,1.94Z"/><path class="cls-2" d="M238,407.49a1,1,0,0,0,0-1.94,1,1,0,0,0,0,1.94Z"/><path class="cls-2" d="M256.87,374.29a1,1,0,0,0,0-2,1,1,0,0,0,0,2Z"/><path class="cls-2" d="M151.59,433a1,1,0,0,0,0-1.94,1,1,0,0,0,0,1.94Z"/><path class="cls-2" d="M103.1,443.41a1,1,0,0,0,0-1.94,1,1,0,0,0,0,1.94Z"/><path class="cls-2" d="M171.12,454.39,170,455.55a1,1,0,1,0,1.38,1.36l1.16-1.15a1,1,0,0,0-1.38-1.37Z"/><path class="cls-2" d="M519.59,423.36v1.16a2.29,2.29,0,0,1-4.57,0v-1.16a2.29,2.29,0,1,1,4.57,0Z"/><path class="cls-2" d="M344.32,510.87h-1.16a2.29,2.29,0,1,1,0-4.57h1.15a2.29,2.29,0,1,1,0,4.57Z"/><path class="cls-2" d="M310.67,387.21v1.15a2.29,2.29,0,1,1-4.58,0v-1.16a2.29,2.29,0,1,1,4.58,0Z"/><path class="cls-2" d="M276.08,384.9v.51a2.29,2.29,0,1,1-4.57,0v-.52a2.29,2.29,0,1,1,4.57,0v.51a2.29,2.29,0,1,1-4.57,0v-.52a2.29,2.29,0,1,1,4.57,0Z"/><path class="cls-2" d="M394.69,460.58a2.29,2.29,0,1,1,2.27-2.31,2.32,2.32,0,0,1-2.27,2.31Z"/><path class="cls-2" d="M428.18,457.58a2.29,2.29,0,1,1,2.27-2.3,2.32,2.32,0,0,1-2.27,2.3Z"/><path class="cls-2" d="M430.31,487.24v1.16a2.29,2.29,0,0,1-4.57,0v-1.16a2.29,2.29,0,1,1,4.57,0Z"/><path class="cls-2" d="M291.89,457v1.15a2.29,2.29,0,1,1-4.57,0V457a2.29,2.29,0,1,1,4.57,0Z"/><path class="cls-2" d="M155.15,461.83H154a2.29,2.29,0,1,1,0-4.57h1.15a2.29,2.29,0,0,1,0,4.57Z"/><path class="cls-2" d="M113.48,442.12v1.15a2.29,2.29,0,1,1-4.57,0v-1.16a2.29,2.29,0,1,1,4.57,0Z"/><path class="cls-2" d="M88.54,493v1.15a2.29,2.29,0,1,1-4.58,0v-1.16a2.29,2.29,0,0,1,4.58,0Z"/><path class="cls-2" d="M112.82,473.37a2.29,2.29,0,1,1,2.27-2.31,2.31,2.31,0,0,1-2.27,2.31Z"/><path class="cls-2" d="M453,416.74v1.15a4.23,4.23,0,0,1-8.46.06V416.8a4.23,4.23,0,1,1,8.46-.06Z"/><path class="cls-2" d="M351.49,417.05a4.23,4.23,0,1,1,4.2-4.26,4.28,4.28,0,0,1-4.2,4.26Z"/><path class="cls-2" d="M131.31,507.67a4.24,4.24,0,1,1,4.2-4.27,4.28,4.28,0,0,1-4.2,4.27Z"/><path class="cls-2" d="M308.66,479.15a4.23,4.23,0,1,1,4.2-4.26,4.28,4.28,0,0,1-4.2,4.26Z"/><path class="cls-2" d="M373.49,391.61a5.34,5.34,0,0,1-.23,2,2,2,0,0,1-1.88,1.3c-1.26.05-1.26-1.89,0-1.94.14,0,.17,0,.1,0s.11-.1,0,0-.05.08,0,0c-.1.16,0-.1,0-.13a5.55,5.55,0,0,0,.06-1.18,1,1,0,0,1,1.94,0Z"/><path class="cls-2" d="M477.21,446.35l-1.16,1.15a1,1,0,0,1-1.37,0,1,1,0,0,1,0-1.38l1.15-1.15a1,1,0,0,1,1.37,0,1,1,0,0,1,0,1.38Z"/><path class="cls-2" d="M354.51,431.58a1,1,0,0,1,0-1.94,1,1,0,0,1,0,1.94Z"/><path class="cls-2" d="M232.89,455.3v-1.16a1,1,0,0,1,1.94,0v1.16a1,1,0,0,1-1.94,0Z"/><path class="cls-2" d="M195.72,478.55a1,1,0,0,1,0-1.94,1,1,0,0,1,0,1.94Z"/><path class="cls-2" d="M132.44,466.27a1,1,0,0,1,0-1.94,1,1,0,0,1,0,1.94Z"/><path class="cls-2" d="M157.65,495.34a2.35,2.35,0,0,1-.43,1.71,2.21,2.21,0,0,1-1.68.42,1,1,0,0,1,0-1.94h.61c.23,0-.26.06,0,0s-.25.11-.13.05-.22.18-.12.1-.17.24-.1.12-.11.28-.06.15,0-.06,0-.09,0,.28,0,.12,0-.41,0-.62a1,1,0,0,1,1.94,0Z"/><path class="cls-2" d="M72.41,467.24a1,1,0,0,1,0-1.94,1,1,0,0,1,0,1.94Z"/><path class="cls-2" d="M116.35,527.05a1,1,0,0,1,0-1.94,1,1,0,0,1,0,1.94Z"/><path class="cls-2" d="M319.71,534.35a1,1,0,0,1,0-1.94,1,1,0,0,1,0,1.94Z"/><path class="cls-2" d="M300.82,501.15a1,1,0,0,1,0-1.95,1,1,0,0,1,0,1.95Z"/><path class="cls-2" d="M324.12,440.85a1,1,0,0,1,0-1.94,1,1,0,0,1,0,1.94Z"/><path class="cls-2" d="M313,591.93l-1.15.07a2.29,2.29,0,0,0,.25,4.58l1.15-.08a2.29,2.29,0,0,0-.25-4.57Z"/><path class="cls-2" d="M402.31,412.23a4.23,4.23,0,1,0,4-4.46,4.27,4.27,0,0,0-4,4.46Z"/><path class="cls-2" d="M194.44,797.89a4.23,4.23,0,1,0,4-4.46,4.28,4.28,0,0,0-4,4.46Z"/><path class="cls-2" d="M306.33,559.65l-1.15.07a2.56,2.56,0,0,0,.28,5.12l1.15-.07a2.56,2.56,0,0,0-.28-5.12Z"/><path class="cls-2" d="M278.57,557c0,.38.05.77.07,1.15a1,1,0,1,0,1.94-.11l-.07-1.15a1,1,0,0,0-1.94.11Z"/><path class="cls-2" d="M316.47,651.35a1,1,0,0,0,1.94-.11,1,1,0,0,0-1.94.11Z"/><path class="cls-2" d="M350.84,542.56l-1.08,1.23a1,1,0,0,0,1.46,1.28l1.08-1.23a1,1,0,1,0-1.46-1.28Z"/><path class="cls-2" d="M158.91,587.81a1,1,0,0,1,1.93-.13,1,1,0,0,1-1.93.13Z"/><path class="cls-2" d="M130.14,544.13l-1.15.07a4.23,4.23,0,0,0,.46,8.45l1.15-.07a4.23,4.23,0,0,0-.46-8.45Z"/><path class="cls-2" d="M74.22,612a5.26,5.26,0,0,0-2,.36,2,2,0,0,0-1.18,2c0,1.26,2,1.14,1.93-.1v-.1c0,.13.1-.12,0,0s-.07.06,0,0c-.16.1.1,0,.13,0a5.07,5.07,0,0,1,1.17-.14,1,1,0,0,0-.1-1.94Z"/><path class="cls-2" d="M104.24,572.4l-1.08,1.23a1,1,0,1,0,1.46,1.27l1.08-1.22a1,1,0,0,0-1.46-1.28Z"/><path class="cls-2" d="M515.43,11.2v1.16a2.29,2.29,0,0,0,4.57,0V11.24a2.29,2.29,0,1,0-4.57,0Z"/><path class="cls-2" d="M523,175.8a1,1,0,0,0,0-2,1,1,0,0,0,0,2Z"/><path class="cls-2" d="M574.3,212.24v1.16a2.29,2.29,0,0,1-4.57,0v-1.16a2.29,2.29,0,0,1,4.57,0Z"/><path class="cls-2" d="M590.82,331.2a2.28,2.28,0,0,0,3.88-1.61v-.52a1.94,1.94,0,0,0,0-.24C593.37,329.57,592.08,330.37,590.82,331.2Z"/><path class="cls-2" d="M479.93,350.25a2.29,2.29,0,1,0-2.27-2.31,2.31,2.31,0,0,0,2.27,2.31Z"/><path class="cls-2" d="M565.32,346.6v1.16a2.29,2.29,0,0,0,4.58,0v-1.16a2.29,2.29,0,0,0-4.58,0Z"/><path class="cls-2" d="M470.72,399.59a4.23,4.23,0,1,0-4.19-4.26,4.27,4.27,0,0,0,4.19,4.26Z"/><path class="cls-2" d="M537.5,424a1,1,0,0,0,0-1.94,1,1,0,0,0,0,1.94Z"/><path class="cls-2" d="M556.39,390.76a1,1,0,0,0,0-1.94,1,1,0,0,0,0,1.94Z"/><path class="cls-2" d="M533.1,330.46a1,1,0,0,0,0-1.94,1,1,0,0,0,0,1.94Z"/><path class="cls-2" d="M640.12,455.71v1.16a2.29,2.29,0,0,1-4.58,0v-1.16a2.29,2.29,0,0,1,4.58,0Z"/><path class="cls-2" d="M505.87,489.84a2.29,2.29,0,1,1,2.27-2.3,2.31,2.31,0,0,1-2.27,2.3Z"/><path class="cls-2" d="M505.86,513.37a1,1,0,0,1,0-1.94,1,1,0,0,1,0,1.94Z"/><path class="cls-2" d="M532.41,471.77v-1.15a1,1,0,1,1,1.94,0v1.15a1,1,0,0,1-1,1,1,1,0,0,1-1-1Z"/><path class="cls-2" d="M746.45,549.88a2.29,2.29,0,1,0-2.27-2.3,2.3,2.3,0,0,0,2.27,2.3Z"/><path class="cls-2" d="M670.26,756.2v1.16a2.29,2.29,0,0,0,4.58,0v-1.16a2.29,2.29,0,0,0-4.58,0Z"/><path class="cls-2" d="M713.08,556.06a4.24,4.24,0,1,0-4.19-4.27,4.27,4.27,0,0,0,4.19,4.27Z"/><path class="cls-2" d="M400.15,807.18a4.23,4.23,0,1,0-4.19-4.26,4.26,4.26,0,0,0,4.19,4.26Z"/><path class="cls-2" d="M711.71,584.16v1.16a2.56,2.56,0,1,0,5.12,0V584.2a2.56,2.56,0,1,0-5.12,0Z"/><path class="cls-2" d="M717.33,620.53a1.18,1.18,0,0,0,0-2.35,1.18,1.18,0,0,0,0,2.35Z"/><path class="cls-2" d="M707.33,611.73h1.16a1,1,0,1,0,0-1.94h-1.15a1,1,0,0,0,0,1.94Z"/><path class="cls-2" d="M767.38,579.37a1,1,0,0,0,0-1.94,1,1,0,0,0,0,1.94Z"/><path class="cls-2" d="M768.53,652.17a1,1,0,0,0,0-1.94,1,1,0,0,0,0,1.94Z"/><path class="cls-2" d="M720,662.57a1,1,0,0,0,0-1.94,1,1,0,0,0,0,1.94Z"/><path class="cls-2" d="M788.05,673.56l-1.15,1.15a1,1,0,0,0,1.38,1.37l1.15-1.16a1,1,0,0,0,0-1.37,1,1,0,0,0-1.38,0Z"/><path class="cls-2" d="M772.09,681h-1.15a2.29,2.29,0,1,1,0-4.58h1.16a2.29,2.29,0,0,1,0,4.58Z"/><path class="cls-2" d="M730.42,661.28v1.16a2.29,2.29,0,0,1-4.57,0v-1.16a2.29,2.29,0,1,1,4.57,0Z"/><path class="cls-2" d="M705.47,712.18v1.16a2.29,2.29,0,0,1-4.57,0v-1.16a2.29,2.29,0,1,1,4.57,0Z"/><path class="cls-2" d="M729.76,692.53a2.29,2.29,0,1,1,2.27-2.3,2.31,2.31,0,0,1-2.27,2.3Z"/><path class="cls-2" d="M765.62,804a4.23,4.23,0,1,1,4.2-4.26,4.28,4.28,0,0,1-4.2,4.26Z"/><path class="cls-2" d="M749.38,685.44a1,1,0,0,1,0-2,1,1,0,0,1,0,2Z"/><path class="cls-2" d="M774.59,714.5a2.35,2.35,0,0,1-.43,1.71,2.23,2.23,0,0,1-1.69.43,1,1,0,0,1,0-1.95c.2,0,.41,0,.61,0s-.26.06,0,0-.25.11-.13.05-.22.19-.13.1-.16.24-.09.12-.11.28-.07.15a.29.29,0,0,0,0-.09c0-.15,0,.28,0,.12s0-.41,0-.61a1,1,0,0,1,1.94,0Z"/><path class="cls-2" d="M673.85,722.13l-1.16,1.16a1,1,0,1,1-1.36-1.38l1.15-1.16a1,1,0,1,1,1.37,1.38Z"/><path class="cls-2" d="M689.35,686.41a1,1,0,0,1,0-1.95,1,1,0,0,1,0,1.95Z"/><path class="cls-2" d="M733.29,746.22a1,1,0,0,1,0-2,1,1,0,0,1,0,2Z"/><path class="cls-2" d="M766,49.81v-.05l.06,0Z"/><path class="cls-2" d="M679.58,61.71h1.16a2.29,2.29,0,0,0,0-4.58h-1.15a2.29,2.29,0,1,0,0,4.58Z"/><path class="cls-2" d="M721.25,42v1.16a2.29,2.29,0,0,0,4.58,0V42a2.29,2.29,0,1,0-4.58,0Z"/><path class="cls-2" d="M746.2,92.89v1.16a2.29,2.29,0,0,0,4.57,0V92.93a2.29,2.29,0,1,0-4.57,0Z"/><path class="cls-2" d="M721.91,73.24a2.29,2.29,0,1,0-2.27-2.3,2.32,2.32,0,0,0,2.27,2.3Z"/><path class="cls-2" d="M703.42,107.54a4.23,4.23,0,1,0-4.19-4.26,4.27,4.27,0,0,0,4.19,4.26Z"/><path class="cls-2" d="M659.57,75.39a1,1,0,0,0,0-1.94,1,1,0,0,0,0,1.94Z"/><path class="cls-2" d="M676.61,17.23a1,1,0,0,0,0-1.94,1,1,0,0,0,0,1.94Z"/><path class="cls-2" d="M677.08,95.21a2.35,2.35,0,0,0,.43,1.71,2.2,2.2,0,0,0,1.69.43,1,1,0,1,0,0-1.95c-.2,0-.4,0-.61,0s.26.06,0,0,.25.12.14.06.21.18.12.09.17.24.1.12.1.29.06.15,0-.06,0-.09,0,.28,0,.12,0-.41,0-.61a1,1,0,0,0-1.94,0Z"/><path class="cls-2" d="M331.21,26.86,332.36,28a1,1,0,0,0,1.37,0,1,1,0,0,0,0-1.38l-1.16-1.15a1,1,0,0,0-1.37,0,1,1,0,0,0,0,1.38Z"/><path class="cls-2" d="M762.33,67.12a1,1,0,0,0,0-2,1,1,0,0,0,0,2Z"/><path class="cls-2" d="M718.39,126.93a1,1,0,0,0,0-1.94,1,1,0,0,0,0,1.94Z"/><path class="cls-2" d="M619.42,35.43v1.16a2.29,2.29,0,1,1-4.57,0V35.47a2.29,2.29,0,1,1,4.57,0Z"/><path class="cls-2" d="M654.58,146.58h-1.15a2.29,2.29,0,1,1,0-4.57h1.16a2.29,2.29,0,0,1,0,4.57Z"/><path class="cls-2" d="M651.72,174.32A2.29,2.29,0,1,1,654,172a2.32,2.32,0,0,1-2.27,2.31Z"/><path class="cls-2" d="M702.61,171.27a2.29,2.29,0,1,1,2.27-2.31,2.3,2.3,0,0,1-2.27,2.31Z"/><path class="cls-2" d="M704.75,200.92v1.16a2.29,2.29,0,1,1-4.58,0V201a2.29,2.29,0,0,1,4.58,0Z"/><path class="cls-2" d="M727.47,130.42v1.16a4.23,4.23,0,1,1-8.45.06v-1.16a4.23,4.23,0,1,1,8.45-.06Z"/><path class="cls-2" d="M736,177.44a4.23,4.23,0,1,1,4.19-4.26,4.27,4.27,0,0,1-4.19,4.26Z"/><path class="cls-2" d="M660.92,223.66a3.9,3.9,0,0,0,1.28-.21c.67-.53,1.36-1,2.06-1.5a4.17,4.17,0,0,0,.86-2.55,4.23,4.23,0,1,0-4.2,4.26Z"/><path class="cls-2" d="M737.36,205.55v1.15a2.57,2.57,0,1,1-5.13,0v-1.16a2.57,2.57,0,1,1,5.13,0Z"/><path class="cls-2" d="M731.73,241.92a1.18,1.18,0,0,1,0-2.36,1.18,1.18,0,0,1,0,2.36Z"/><path class="cls-2" d="M741.73,233.11h-1.16a1,1,0,1,1,0-1.94h1.15a1,1,0,0,1,0,1.94Z"/><path class="cls-2" d="M616.06,15.28a5.28,5.28,0,0,1-.23,2A2,2,0,0,1,614,18.57c-1.26.05-1.26-1.9,0-1.94.14,0,.17,0,.1,0s.11-.11,0,0,0,.08,0,0c-.1.16,0-.11,0-.14a5.51,5.51,0,0,0,.06-1.18,1,1,0,0,1,1.94,0Z"/><path class="cls-2" d="M681.68,200.76a1,1,0,0,1,0-1.95,1,1,0,0,1,0,1.95Z"/><path class="cls-2" d="M751.64,160l-1.16,1.16a1,1,0,1,1-1.36-1.38l1.15-1.16a1,1,0,1,1,1.37,1.38Z"/><path class="cls-2" d="M729,284a1,1,0,0,1,0-1.94,1,1,0,0,1,0,1.94Z"/><path class="cls-2" d="M735.75,290.16v1.16a2.29,2.29,0,0,0,4.58,0V290.2a2.29,2.29,0,0,0-4.58,0Z"/><path class="cls-2" d="M760.7,341.06v1.16a2.29,2.29,0,1,0,4.57,0V341.1a2.29,2.29,0,1,0-4.57,0Z"/><path class="cls-2" d="M736.41,321.41a2.29,2.29,0,1,0-2.27-2.3,2.3,2.3,0,0,0,2.27,2.3Z"/><path class="cls-2" d="M717.92,355.71a4.23,4.23,0,1,0-4.19-4.26,4.28,4.28,0,0,0,4.19,4.26Z"/><path class="cls-2" d="M642.89,344.94a1,1,0,0,0,0-1.94,1,1,0,0,0,0,1.94Z"/><path class="cls-2" d="M716.79,314.32a1,1,0,0,0,0-1.94,1,1,0,0,0,0,1.94Z"/><path class="cls-2" d="M691.58,343.38a2.33,2.33,0,0,0,.43,1.71,2.19,2.19,0,0,0,1.69.43,1,1,0,1,0,0-1.94c-.2,0-.41,0-.61,0s.26.06,0,0,.25.12.13.06.22.18.13.09.16.24.1.13.1.28.06.14a.29.29,0,0,1,0-.09c0-.15,0,.29,0,.12s0-.41,0-.61a1,1,0,1,0-1.94,0Z"/><path class="cls-2" d="M776.82,315.29a1,1,0,0,0,0-1.94,1,1,0,0,0,0,1.94Z"/><path class="cls-2" d="M732.89,375.1a1,1,0,0,0,0-1.94,1,1,0,0,0,0,1.94Z"/><path class="cls-2" d="M675.67,377.79V379a2.29,2.29,0,0,1-4.57,0v-1.16a2.29,2.29,0,1,1,4.57,0Z"/><path class="cls-2" d="M659.8,396.2h-1.15a2.29,2.29,0,1,1,0-4.57h1.16a2.29,2.29,0,1,1,0,4.57Z"/><path class="cls-2" d="M616.58,351.31v1.15a2.29,2.29,0,1,1-4.57,0v-1.16a2.29,2.29,0,1,1,4.57,0Z"/><path class="cls-2" d="M597.51,375.18v.51a2.29,2.29,0,1,1-4.57,0v-.51a2.29,2.29,0,1,1,4.57,0v.51a2.29,2.29,0,1,1-4.57,0v-.51a2.29,2.29,0,1,1,4.57,0Z"/><path class="cls-2" d="M668.83,435.54a2.29,2.29,0,1,1,2.27-2.31,2.3,2.3,0,0,1-2.27,2.31Z"/><path class="cls-2" d="M719.72,432.49a2.29,2.29,0,1,1,2.27-2.31,2.31,2.31,0,0,1-2.27,2.31Z"/><path class="cls-2" d="M721.86,462.15v1.15a2.29,2.29,0,1,1-4.57,0v-1.16a2.29,2.29,0,1,1,4.57,0Z"/><path class="cls-2" d="M744.58,391.64v1.16a4.23,4.23,0,1,1-8.45.06V391.7a4.23,4.23,0,1,1,8.45-.06Z"/><path class="cls-2" d="M753.09,438.66a4.23,4.23,0,1,1,4.19-4.26,4.28,4.28,0,0,1-4.19,4.26Z"/><path class="cls-2" d="M723.11,511.55a4.23,4.23,0,1,1,4.2-4.26,4.28,4.28,0,0,1-4.2,4.26Z"/><path class="cls-2" d="M754.47,466.77v1.15a2.57,2.57,0,1,1-5.13,0V466.8a2.57,2.57,0,1,1,5.13,0Z"/><path class="cls-2" d="M748.84,503.14a1.18,1.18,0,0,1,0-2.36,1.18,1.18,0,0,1,0,2.36Z"/><path class="cls-2" d="M758.84,494.33h-1.16a1,1,0,0,1,0-1.94h1.15a1,1,0,0,1,1,1,1,1,0,0,1-1,1Z"/><path class="cls-2" d="M719.39,397.44a5.34,5.34,0,0,1-.23,2,2,2,0,0,1-1.89,1.3c-1.25,0-1.26-1.89,0-1.94.13,0,.16,0,.09,0s.11-.1,0,0-.05.07,0,0c-.09.16,0-.1,0-.13a4.9,4.9,0,0,0,.07-1.18,1,1,0,0,1,1.94,0Z"/><path class="cls-2" d="M768.75,421.25l-1.15,1.16a1,1,0,1,1-1.37-1.38l1.16-1.16a1,1,0,0,1,1.36,1.38Z"/><path class="cls-2" d="M646.05,406.49a1,1,0,0,1,0-1.94,1,1,0,0,1,0,1.94Z"/><path class="cls-2" d="M592.36,476.05a1,1,0,0,1,0-1.94,1,1,0,0,1,0,1.94Z"/><path class="cls-2" d="M615.66,415.76a1,1,0,0,1,0-1.95,1,1,0,0,1,0,1.95Z"/><path class="cls-2" d="M540.25,510.12a1,1,0,0,0,0-1.95,1,1,0,0,0,0,1.95Z"/><path class="cls-2" d="M530.11,643.71a1.06,1.06,0,0,0-.37.07l-.56.73a.93.93,0,0,0,.92,1.14A1,1,0,0,0,530.11,643.71Z"/><path class="cls-2" d="M481.6,656.05a1,1,0,0,0,0-1.94,1,1,0,0,0,0,1.94Z"/><path class="cls-2" d="M559,623.79l-1.15,1.15a1,1,0,0,0,1.38,1.37l1.15-1.16a1,1,0,0,0-1.38-1.36Z"/><path class="cls-2" d="M533.66,674.48H532.5a2.29,2.29,0,0,1,0-4.58h1.15a2.29,2.29,0,0,1,0,4.58Z"/><path class="cls-2" d="M492,654.76v1.16a2.29,2.29,0,0,1-4.58,0v-1.16a2.29,2.29,0,0,1,4.58,0Z"/><path class="cls-2" d="M467,705.66v1.15a2.29,2.29,0,1,1-4.57,0v-1.16a2.29,2.29,0,1,1,4.57,0Z"/><path class="cls-2" d="M491.33,686a2.29,2.29,0,1,1,2.27-2.31,2.32,2.32,0,0,1-2.27,2.31Z"/><path class="cls-2" d="M536.43,399.93a4.23,4.23,0,1,1,4.2-4.26,4.27,4.27,0,0,1-4.2,4.26Z"/><path class="cls-2" d="M511,678.91a1,1,0,0,1,0-1.94,1,1,0,0,1,0,1.94Z"/><path class="cls-2" d="M556.75,585.61a2.31,2.31,0,0,1-.44,1.71,2.21,2.21,0,0,1-1.68.42,1,1,0,0,1,0-1.94h.62c.22,0-.26.06,0,0s-.26.12-.14.06-.21.18-.12.1-.17.23-.1.12-.1.28-.06.14,0-.05,0-.08,0,.28,0,.11,0-.4,0-.61a1,1,0,1,1,1.94,0Z"/><path class="cls-2" d="M435.41,715.61l-1.15,1.16a1,1,0,0,1-1.36-1.38l1.15-1.16a1,1,0,1,1,1.36,1.38Z"/><path class="cls-2" d="M450.91,679.88a1,1,0,0,1,0-1.94,1,1,0,0,1,0,1.94Z"/><path class="cls-2" d="M494.85,739.69a1,1,0,0,1,0-1.94,1,1,0,0,1,0,1.94Z"/><path class="cls-2" d="M145.71,611.28a2.29,2.29,0,1,0-2.27-2.3,2.31,2.31,0,0,0,2.27,2.3Z"/><path class="cls-2" d="M67.86,534.73v1.16a2.29,2.29,0,0,0,4.58,0v-1.15a2.29,2.29,0,0,0-4.58,0Z"/><path class="cls-2" d="M112.35,617.46a4.23,4.23,0,1,0-4.2-4.26,4.27,4.27,0,0,0,4.2,4.26Z"/><path class="cls-2" d="M142.32,690.35a4.24,4.24,0,1,0-4.19-4.27,4.27,4.27,0,0,0,4.19,4.27Z"/><path class="cls-2" d="M111,645.56v1.16a2.57,2.57,0,0,0,5.13,0V645.6a2.57,2.57,0,0,0-5.13,0Z"/><path class="cls-2" d="M116.6,681.94a1.18,1.18,0,0,0,0-2.36,1.18,1.18,0,0,0,0,2.36Z"/><path class="cls-2" d="M106.6,673.13h1.15a1,1,0,1,0,0-1.94h-1.16a1,1,0,1,0,0,1.94Z"/><path class="cls-2" d="M166.64,640.78a1,1,0,0,0,0-1.95,1,1,0,0,0,0,1.95Z"/><path class="cls-2" d="M167.79,713.58a1,1,0,0,0,0-2,1,1,0,0,0,0,2Z"/><path class="cls-2" d="M119.3,724a1,1,0,0,0,0-2,1,1,0,0,0,0,2Z"/><path class="cls-2" d="M187.32,735l-1.16,1.15a1,1,0,0,0,0,1.38,1,1,0,0,0,1.37,0l1.16-1.16a1,1,0,0,0-1.38-1.36Z"/><path class="cls-2" d="M171.35,742.4H170.2a2.29,2.29,0,1,1,0-4.58h1.15a2.29,2.29,0,0,1,0,4.58Z"/><path class="cls-2" d="M444.64,761.6v1.15a2.29,2.29,0,1,1-4.57,0v-1.16a2.29,2.29,0,1,1,4.57,0Z"/><path class="cls-2" d="M104.74,773.58v1.16a2.29,2.29,0,0,1-4.58,0v-1.15a2.29,2.29,0,0,1,4.58,0Z"/><path class="cls-2" d="M117.33,799.76a2.29,2.29,0,1,1,2.27-2.3,2.31,2.31,0,0,1-2.27,2.3Z"/><path class="cls-2" d="M147.51,788.23a4.23,4.23,0,1,1,4.2-4.26,4.28,4.28,0,0,1-4.2,4.26Z"/><path class="cls-2" d="M148.64,746.84a1,1,0,0,1,0-2,1,1,0,0,1,0,2Z"/><path class="cls-2" d="M169.15,805a2.35,2.35,0,0,1-.43,1.71,2.26,2.26,0,0,1-1.68.43,1,1,0,0,1-1-1,1,1,0,0,1,1-1c.21,0,.41,0,.61,0s-.26.06,0,0-.25.11-.13,0-.22.19-.12.1-.17.24-.1.12-.11.28-.06.15,0-.06,0-.09,0,.28,0,.12,0-.41,0-.61a1,1,0,0,1,1-1,1,1,0,0,1,1,1Z"/><path class="cls-2" d="M73.11,783.53,72,784.69a1,1,0,1,1-1.37-1.38l1.16-1.16a1,1,0,1,1,1.36,1.38Z"/><path class="cls-2" d="M88.61,747.81a1,1,0,0,1,0-1.94,1,1,0,0,1,0,1.94Z"/><path class="cls-2" d="M132.55,807.62a1,1,0,0,1,0-1.94,1,1,0,0,1,0,1.94Z"/><path class="cls-2" d="M412.85,702.39a2.28,2.28,0,1,0,1.8-2.69,2.31,2.31,0,0,0-1.8,2.69Z"/><path class="cls-2" d="M383.39,706.29l-1.13.24a2.29,2.29,0,0,0,.89,4.49l1.14-.24a2.29,2.29,0,0,0-.9-4.49Z"/><path class="cls-2" d="M359.76,759.15a4.23,4.23,0,1,0,3.32-5,4.26,4.26,0,0,0-3.32,5Z"/><path class="cls-2" d="M334.8,715.06a4.23,4.23,0,1,0,3.32-5,4.27,4.27,0,0,0-3.32,5Z"/><path class="cls-2" d="M372.28,675.27l-1.13.23a2.57,2.57,0,0,0,1,5l1.13-.24a2.56,2.56,0,0,0-1-5Z"/><path class="cls-2" d="M337.82,688.14a1.18,1.18,0,0,0,2.31-.46,1.18,1.18,0,0,0-2.31.46Z"/><path class="cls-2" d="M344.42,676.56l.23,1.13a1,1,0,1,0,1.9-.38c-.07-.37-.15-.75-.23-1.13a1,1,0,0,0-1.9.38Z"/><path class="cls-2" d="M388.22,728.87a1,1,0,0,0,1.9-.38,1,1,0,0,0-1.9.38Z"/><path class="cls-2" d="M317.21,744.72a1,1,0,0,0,1.91-.38,1,1,0,0,0-1.91.38Z"/><path class="cls-2" d="M297.23,699.29a1,1,0,0,0,1.9-.38,1,1,0,0,0-1.9.38Z"/><path class="cls-2" d="M300.24,768.18l-1.37-.9a1,1,0,1,0-1.05,1.63l1.36.89a1,1,0,0,0,1.06-1.62Z"/><path class="cls-2" d="M289.73,754l-.24-1.13A2.29,2.29,0,0,1,294,752c.07.37.15.75.23,1.13a2.28,2.28,0,1,1-4.47.95Z"/><path class="cls-2" d="M300.59,709.21l-1.13.23a2.29,2.29,0,0,1-.95-4.48l1.13-.23a2.29,2.29,0,0,1,.95,4.48Z"/><path class="cls-2" d="M88.38,686.05l-1.13.24a2.29,2.29,0,0,1-1-4.48l1.13-.23a2.29,2.29,0,0,1,1,4.47Z"/><path class="cls-2" d="M269.88,714.88a2.29,2.29,0,1,1,2.72,1.76,2.32,2.32,0,0,1-2.72-1.76Z"/><path class="cls-2" d="M240.06,739.93a4.23,4.23,0,1,1,5,3.26,4.27,4.27,0,0,1-5-3.26Z"/><path class="cls-2" d="M280.79,732.67a1,1,0,0,1,1.9-.4,1,1,0,0,1-1.9.4Z"/><path class="cls-2" d="M257.45,763.26a2.33,2.33,0,0,1-1.76-.08c-.53-.32-.64-1-.76-1.56a1,1,0,1,1,1.9-.41c0,.2.08.4.13.6s-.11-.25,0,0-.16-.23-.08-.12-.22-.18-.12-.1-.26-.12-.14-.08-.3,0-.15,0h.09c.15,0-.29,0-.12,0s.4-.07.6-.11a1,1,0,0,1,.41,1.9Z"/><path class="cls-2" d="M267.7,674a1,1,0,0,1,1.9-.41,1,1,0,0,1-1.9.41Z"/><path class="cls-2" d="M218.06,729.19a1,1,0,0,1,1.9-.41,1,1,0,0,1-1.9.41Z"/><path class="cls-2" d="M604.41,664.4a1,1,0,0,0,0-1.94,1,1,0,0,0,0,1.94Z"/><path class="cls-2" d="M672.43,675.38l-1.16,1.15a1,1,0,1,0,1.38,1.37l1.15-1.16a1,1,0,1,0-1.37-1.36Z"/><path class="cls-2" d="M656.46,682.82h-1.15a2.29,2.29,0,0,1,0-4.58h1.16a2.29,2.29,0,0,1,0,4.58Z"/><path class="cls-2" d="M614.79,663.1v1.16a2.29,2.29,0,1,1-4.57,0v-1.15a2.29,2.29,0,1,1,4.57,0Z"/><path class="cls-2" d="M702,773.16v1.16a2.29,2.29,0,0,1-4.57,0V773.2a2.29,2.29,0,1,1,4.57,0Z"/><path class="cls-2" d="M614.13,694.35a2.29,2.29,0,1,1,2.27-2.3,2.31,2.31,0,0,1-2.27,2.3Z"/><path class="cls-2" d="M632.62,728.65a4.23,4.23,0,1,1,4.2-4.26,4.28,4.28,0,0,1-4.2,4.26Z"/><path class="cls-2" d="M633.75,687.26a1,1,0,0,1,0-1.94,1,1,0,0,1,0,1.94Z"/><path class="cls-2" d="M659,716.32a2.33,2.33,0,0,1-.43,1.71,2.19,2.19,0,0,1-1.69.43,1,1,0,0,1,0-1.94c.2,0,.41,0,.61,0s-.26.07,0,0-.25.12-.13.06-.22.18-.12.09-.17.24-.1.13-.11.28-.07.14a.29.29,0,0,0,0-.09c0-.15,0,.29,0,.12s0-.41,0-.61a1,1,0,0,1,1.94,0Z"/><path class="cls-2" d="M558.22,724l-1.16,1.15a1,1,0,0,1-1.36-1.38l1.15-1.16a1,1,0,0,1,1.37,1.39Z"/><path class="cls-2" d="M573.72,688.23a1,1,0,0,1,0-1.94,1,1,0,0,1,0,1.94Z"/><path class="cls-2" d="M617.66,748a1,1,0,0,1,0-1.94,1,1,0,0,1,0,1.94Z"/><path class="cls-2" d="M359,35.62a2.29,2.29,0,1,0-2.27-2.31A2.32,2.32,0,0,0,359,35.62Z"/><path class="cls-2" d="M246.31,22.22a4.22,4.22,0,1,0-6-4.6C242.4,19,244.38,20.63,246.31,22.22Z"/><path class="cls-2" d="M372.5,157.92c-.94.38-1.9.72-2.86,1a.91.91,0,0,0,.27.52,1,1,0,0,0,1.37,0l1.15-1.16a.94.94,0,0,0,.25-.43Z"/><path class="cls-2" d="M178.92,169.64a2.28,2.28,0,0,0,1.87,3.61H182a2.32,2.32,0,0,0,2.27-2.31,2.28,2.28,0,0,0-.39-1.24A42.39,42.39,0,0,1,178.92,169.64Z"/><path class="cls-2" d="M234.93,805a4.23,4.23,0,1,1,4.2-4.26,4.28,4.28,0,0,1-4.2,4.26Z"/><path class="cls-2" d="M357.59,197.87a2.31,2.31,0,0,1-.43,1.7,2.19,2.19,0,0,1-1.69.43,1,1,0,0,1,0-1.94c.2,0,.41,0,.61,0s-.26.07,0,0-.25.12-.13.06-.22.18-.13.09-.16.24-.09.13-.11.28-.07.14a.29.29,0,0,0,0-.09c0-.15,0,.29,0,.12s0-.41,0-.61a1,1,0,1,1,1.94,0Z"/><path class="cls-2" d="M538.92,753.12a2.29,2.29,0,1,0-2.27-2.31,2.32,2.32,0,0,0,2.27,2.31Z"/><path class="cls-2" d="M694.79,494.65v1.15a2.29,2.29,0,1,0,4.57,0v-1.16a2.29,2.29,0,0,0-4.57,0Z"/><path class="cls-2" d="M472.2,695.53a4.23,4.23,0,1,0-4.2-4.26,4.28,4.28,0,0,0,4.2,4.26Z"/><path class="cls-2" d="M502.18,768.42a4.24,4.24,0,1,0-4.2-4.27,4.27,4.27,0,0,0,4.2,4.27Z"/><path class="cls-2" d="M400.32,751.92v1.16a2.57,2.57,0,0,0,5.13,0V752a2.57,2.57,0,0,0-5.13,0Z"/><path class="cls-2" d="M476.45,760a1.18,1.18,0,0,0,0-2.36,1.18,1.18,0,0,0,0,2.36Z"/><path class="cls-2" d="M466.45,751.2h1.15a1,1,0,0,0,0-1.94h-1.16a1,1,0,0,0,0,1.94Z"/><path class="cls-2" d="M526.49,718.85a1,1,0,0,0,0-2,1,1,0,0,0,0,2Z"/><path class="cls-2" d="M527.65,791.65a1,1,0,0,0,0-1.95,1,1,0,0,0,0,1.95Z"/><path class="cls-2" d="M479.15,802.05a1,1,0,0,0,0-1.95,1,1,0,0,0,0,1.95Z"/><path class="cls-2" d="M547.17,813,546,814.18a1,1,0,1,0,1.38,1.37l1.15-1.16a1,1,0,0,0-1.38-1.36Z"/><path class="cls-2" d="M533.46,818.35c0-.07,0-.12,0-.19a2.32,2.32,0,0,0-2.31-2.27H530a2.31,2.31,0,0,0-2.25,2.06C529.67,818,531.56,818.17,533.46,818.35Z"/><path class="cls-2" d="M489.54,800.75v1.16a2.29,2.29,0,0,1-4.58,0v-1.15a2.29,2.29,0,1,1,4.58,0Z"/></g></g></svg>