<svg xmlns="http://www.w3.org/2000/svg" viewBox="0 0 832.5 832.5"><defs><style>.cls-1{fill:#e55747;}.cls-2{fill:#deaa7c;}.cls-3{fill:#5e4440;}.cls-4{fill:#76b099;}.cls-5{fill:#ffffc5;}</style></defs><g id="Layer_2" data-name="Layer 2"><g id="Layer_1-2" data-name="Layer 1"><rect class="cls-1" width="832.5" height="832.5"/><path class="cls-2" d="M259.91,681.45c15.69-1.12,16.06-42.72,28.95-55,15.45-14.67,60.76-26.25,81.91-35.5,73.5-32.17,148.7-64.19,224.78-90.19,37.9-12.95,63.31-16.42,98.8,2.73-67.75,23.66-136.11,53.2-202.77,80.91-71.9,29.9-140.47,75.73-214.16,99.2,3.56,3.09,4.93.85,9,1.64Z"/><path class="cls-3" d="M700.73,615.71q1.62,3.19,3.29,6.4l5.42-2.83c-1.11-2.13-2.2-4.26-3.29-6.4-15.93-31-30.32-61-42.91-89.63l-5.59,2.47C670.29,554.42,684.74,584.59,700.73,615.71Z"/><path class="cls-3" d="M240.25,783.92c26.44,10.63,75.47,4.05,146.36-19.56,1.94-.64,3.89-1.29,5.86-2Q448,743.52,520.59,711.22C586.92,681.73,653,648.64,704,622.11l5.42-2.83c18.54-9.67,34.94-18.38,48.45-25.63,11.51-6.17,20.92-11.27,27.75-15l9.86-5.32-3.37-6.29c-2.37,1.27-5.69,3.08-9.88,5.34-7.84,4.25-15.65,8.46-23.35,12.59q-27,14.46-52.75,27.89l-5.42,2.83C573.09,682.05,468,729.3,389.17,756c-2,.68-3.92,1.33-5.86,2-67.91,22.54-115.56,29.29-140.4,19.3a19.56,19.56,0,0,1-4.33-33.86l.19-.14-4.2-5.76-.19.14a26.7,26.7,0,0,0,5.87,46.24Z"/><path class="cls-3" d="M383.31,758c1.09,2.11,2.18,4.24,3.3,6.36,1.94-.64,3.89-1.29,5.86-2q-1.67-3.18-3.3-6.36c-16.74-32.42-31.82-63.83-45-93.65l-5.6,2.48C351.69,694.52,366.68,725.75,383.31,758Z"/><path class="cls-3" d="M260.83,680.48C406.9,618.1,554.06,557.39,698.39,495.38c.52,1.19,5.16,7.69,5.71,8.87,1.45,3.18,3,6.32,4.52,9.46-80,48-381.51,167.5-436.12,190.67A64,64,0,0,1,260.83,680.48Z"/><path class="cls-4" d="M462.1,552.83c-39.82-18-80.42,45.76-113.45,40,17.58-17.57,53.83-26.21,71.61-56.52,17.15-29.25,15.7-67.43,8.67-102.72q1.83.09,3.66.12c40.08.44,75.3-21.7,112.18-34.49,11.31,38.87,27,108.73,8.74,140.4-9.19,16-35.64,20.83-50.16,31-19,13.32-36.72,26.13-56.69,37.24-15.25,8.49-61.4,38.08-73.77,15.77C389.21,617.48,513.3,576,462.1,552.83Z"/><path class="cls-3" d="M473.89,425.64c12-3.71,23.87-8.42,35.94-13.22,16.19-6.44,32.94-13.1,51.05-17.71l1-.26-.17-1.07c-1.74-11.45-7.44-25.15-12.47-37.23-2.93-7-5.71-13.71-7.23-18.87l-2.27.68c1.55,5.27,4.35,12,7.31,19.11,4.82,11.58,10.26,24.65,12.14,35.61-17.85,4.64-34.33,11.19-50.29,17.53-35.84,14.25-69.71,27.72-111.9,16.18-1.73-12.45-4.28-32.57,9.41-37.47l-.8-2.24c-15.75,5.64-12.7,27.57-10.87,40.68l.13.9.75.21C424.63,436.58,449.62,433.14,473.89,425.64Z"/><path class="cls-3" d="M721,381.36a74.6,74.6,0,0,0,20.56-9.72,41.65,41.65,0,0,0,18.21-35.56v-1.22h0v0l-1.22.07c-12,.55-24.31,2.85-36.22,5.08l-1.23.24a6.39,6.39,0,0,1-1.81.12,7.8,7.8,0,0,0-2.51.22c-26.58,6.3-52.31,10.08-79.55,14.09-8.05,1.18-16.37,2.4-24.66,3.69-10.54,1.49-22.78,3.48-34.53,8.17A121.17,121.17,0,0,1,557.87,372l.47,2.33a123.29,123.29,0,0,0,20.54-5.57c11.53-4.59,23.6-6.55,34-8,8.3-1.29,16.61-2.51,24.65-3.69,27.31-4,53.1-7.81,79.79-14.14l.08,0a6,6,0,0,1,1.8-.12,8.6,8.6,0,0,0,2.49-.21l1-.2c11.17-2.09,22.7-4.24,33.91-4.93v.27a2.86,2.86,0,0,0,.68,2,39.32,39.32,0,0,1-17.12,30.06C726.82,378.9,711.52,381.8,697,384c-33.11,5.32-65,4-98.74,2.63l-11.18-.45H587c-3.84.05-7.66,0-11.36-.09-4.34-.09-8.82-.17-13.19-.05l.06,2.38c4.32-.13,8.58-.05,13.08,0,3.71.07,7.54.15,11.41.1l11.14.44c33.87,1.39,65.87,2.71,99.21-2.66A159,159,0,0,0,721,381.36Z"/><path class="cls-3" d="M718.18,338.64c3.14-7.3,4.55-15.23,5.91-22.9.45-2.57.92-5.2,1.45-7.8a4,4,0,0,0,.67-2.61,3.68,3.68,0,0,1,0-.47l.15-.63,1-2.09-.54.12.34-1.42-2.43,1.88c-15.5,2.88-30.4,8.49-44.81,13.91-10.53,4-21.2,8.28-31.51,12.43-31.57,12.69-64.22,25.82-97.9,32.36l.45,2.33c33.91-6.58,66.66-19.75,98.33-32.48,10.31-4.15,21-8.43,31.47-12.41,13.63-5.14,27.7-10.44,42.21-13.38a12.45,12.45,0,0,0-.18,2,7.72,7.72,0,0,0-.17,1.76l.12.61c-.35,1.84-.68,3.68-1,5.49-1.34,7.54-2.72,15.33-5.75,22.38Z"/><path class="cls-4" d="M421.32,433.61a121.72,121.72,0,0,0,16.87,1.53l.49,14.07c-22.65,9.43-88.51,43.58-110.74,34.44C356.89,466.72,394.23,451.29,421.32,433.61Z"/><path class="cls-4" d="M550,523.85c33.54,23.08,119.73-46.37,147.25-70.7-1.49,3.27-2.14,8.44-3.52,11.53,3.84-1.37,8.78-2,12.79-2.89-2.63,4.12-3.78,14.47-5.36,17.77,3-.92,6.56-1.48,9.55-2.1-4.7,12.61-4.76,9.06-1.87,19.45a45.25,45.25,0,0,1-11.7,4.68q2.45,1.59,4.86,3.21C657.2,530.58,600.05,535,550.65,535Z"/><path class="cls-4" d="M473.48,435.11c-36.14,33.65-84.5,38.22-122,70.65.2.35,2.38,6.45,2.45,6.84,40.23-6.2,82.69-38.65,121.76-50.25Z"/><path class="cls-3" d="M466.43,372c-54.61,32-116,52.1-172.49,72.43,13.25-16.55,17.37-31.15,33.81-43.78Z"/><path class="cls-4" d="M310.23,242.78c18.8-43.13,57.86-96.63,86.5-133.5,27.88,11.28,50.33,36.11,71.12,57.86,32.76,34.25,62.27,95.42,99.93,119.6l10.78,16.54c.41,2.84,1.75,4.56,1.81,7.47C542,336.94,501.71,358.6,456.13,375.17c-35.79,13-73.27,15.23-109.83,23.21-31.15,6.8-68.71,16.56-100.17,12.56C272.19,358.11,286.35,297.58,310.23,242.78Z"/><path class="cls-5" d="M366.16,414.37A141.69,141.69,0,0,0,376,391.69c4,2.45,10,10.9,12,14.26C380.66,408.59,373.32,411.19,366.16,414.37Z"/><path class="cls-5" d="M350.19,422.35q-7.14,3-14.26,6a141.73,141.73,0,0,1,6.46-15c3.44,4.61,6.84,6.39,9.53,8.08Z"/><path class="cls-5" d="M334.2,401.32c.89,7.3,1,13.26-4.63,18.91-2.16-5.51-3.88-11.67-6-17.09C327.12,402.56,330.67,402,334.2,401.32Z"/><path class="cls-5" d="M361.64,394.14c.68-.16,1.36-.33,2-.51h.05a47.15,47.15,0,0,1-6.73,19.9,64.4,64.4,0,0,0-8.73-15.17A91.55,91.55,0,0,0,361.64,394.14Z"/><path class="cls-3" d="M409.48,362.06c2.25-.34,3.95.63,7,.62l2.91,4.07a16.39,16.39,0,0,0,.13,2.7c.06.51.14,1,.23,1.53-6,4.37-10.14,4-13.29-5.39A22.57,22.57,0,0,0,409.48,362.06Z"/><path class="cls-1" d="M299.27,289.06c5.07-1.59,10.31-.14,14,1.47a12,12,0,0,1,7.21,9.66c1.54,15.1-23.09,19.21-26.94-1.49A8.48,8.48,0,0,1,299.27,289.06Z"/><path class="cls-1" d="M385.59,359.38c7.25-2.71,12.37,3.08,14.8,6.28C430.89,405.74,330.6,380,385.59,359.38Z"/><path class="cls-4" d="M386.31,125.89C405.42,104.66,416,78.78,432,58.31c.2,19.09-7.86,82.22,1.93,93.13Z"/><path class="cls-4" d="M539,277.34c26.79-3.85,51.46-5.39,78.51-12.24-6.83,22.15-48.25,64-71.58,61.43l-5.83-46.46S535.27,283.12,539,277.34Z"/><path class="cls-3" d="M439.64,329.53a8,8,0,0,1,8.81,2.59c3.13,10.25,6.51,20.55,9.09,30.82-.4.06-6.64,2-7,2.17A359.39,359.39,0,0,1,439.64,329.53Z"/><path class="cls-3" d="M313.86,272c2.25-.34,3.95.62,7,.61l2.92,4.08a15.35,15.35,0,0,0,.12,2.7c.07.51.15,1,.23,1.52-6,4.38-10.13,4-13.29-5.39A22.56,22.56,0,0,0,313.86,272Z"/><path class="cls-3" d="M360.63,246.92a8.06,8.06,0,0,1-7.81,4.83c-9.71-4.52-19.63-8.89-29-13.83.23-.33,3-6.27,3.07-6.66A359.51,359.51,0,0,1,360.63,246.92Z"/><path class="cls-3" d="M516.3,274a67.39,67.39,0,0,0,18.15-8.6l-.81-1.17a67.45,67.45,0,0,1-20.83,9.28l.36,1.38C514.22,274.58,515.27,274.29,516.3,274Z"/><path class="cls-3" d="M505.35,257.34c5-1.56,10-3.46,14.1-6.51l-.85-1.15c-5.49,4.06-12.59,6-19.45,8-1.15.32-2.28.64-3.39,1l.39,1.36,3.38-1C501.47,258.48,503.42,257.94,505.35,257.34Z"/><path class="cls-3" d="M451.76,261.2a69.28,69.28,0,0,1,17.12-9.09l-.5-1.33A71,71,0,0,0,450.92,260Z"/><path class="cls-3" d="M447.67,288.35c4.93-3.45,10.85-5.86,16.52-8l-.49-1.33c-5.76,2.12-11.78,4.57-16.85,8.11Z"/><rect class="cls-3" x="465.8" y="302.18" width="20.14" height="1.43" transform="translate(-68.2 153.96) rotate(-17.17)"/><path class="cls-3" d="M489.92,271.47l0-1.43a19.89,19.89,0,0,0-11.78,3.66l.86,1.14A18.49,18.49,0,0,1,489.92,271.47Z"/><path class="cls-3" d="M402.85,295.51A220.7,220.7,0,0,1,424.44,285l-.53-1.32a220.18,220.18,0,0,0-21.73,10.56Z"/><path class="cls-3" d="M400.54,315.32c3.45-3.34,7.92-4.54,12.66-5.8l1.36-.36-.37-1.38-1.35.36c-4.71,1.26-9.58,2.55-13.29,6.16Z"/><path class="cls-3" d="M437.41,305A71.25,71.25,0,0,1,449,299.47l-.5-1.33a73.25,73.25,0,0,0-11.82,5.59Z"/><rect class="cls-3" x="422.67" y="252.52" width="18.31" height="1.43" transform="translate(-55.51 138.74) rotate(-17.17)"/><path class="cls-3" d="M430.27,228.49a190,190,0,0,1,16.48-14.64l-.86-1.14a193.35,193.35,0,0,0-16.61,14.75Z"/><path class="cls-3" d="M431.12,193.66a97,97,0,0,0,12.11-20.17l-1.3-.56A95.66,95.66,0,0,1,430,192.79Z"/><path class="cls-3" d="M426.24,158.5c.87-3.95,3.28-7.25,7.8-10.71l-.87-1.13c-4.81,3.68-7.37,7.23-8.32,11.53Z"/><path class="cls-3" d="M455.3,210.21a50.19,50.19,0,0,0,8.8-12.44l-1.27-.66a48.77,48.77,0,0,1-8.54,12.09Z"/><path class="cls-3" d="M469.75,228.66c2.05-3.27,5.73-6.48,9.33-9.47l-.91-1.1c-3.69,3.07-7.46,6.36-9.63,9.81Z"/><path class="cls-3" d="M493,238.75A25.37,25.37,0,0,1,503.3,230l-.62-1.29A27,27,0,0,0,491.77,238Z"/><path class="cls-3" d="M476.59,204.57a26.46,26.46,0,0,1,10.88-7.09l-.5-1.34a27.94,27.94,0,0,0-11.45,7.48Z"/><path class="cls-3" d="M446.55,238.88c4.11-1.29,6.41-4.51,8.64-7.61l-1.16-.83c-2.18,3.05-4.25,5.93-7.9,7.08Z"/><path class="cls-3" d="M400.14,249.36a77.59,77.59,0,0,0,7.75-5.47l1.74-1.32-.86-1.14L407,242.76a80.26,80.26,0,0,1-7.61,5.37Z"/><path class="cls-3" d="M410.77,221.08l1.37-1.45c3.51-3.71,7.14-7.55,11-11l-.94-1.07c-3.93,3.48-7.58,7.34-11.11,11.07l-1.37,1.45Z"/><path class="cls-3" d="M460.19,188.51a26.51,26.51,0,0,0,2.95-5.77c1.36-3.27,2.64-6.36,5.08-7.11h0l-.42-1.36h0c-3.08,1-4.55,4.5-6,7.93a25.36,25.36,0,0,1-2.77,5.46Z"/><path class="cls-3" d="M416.85,187.43A56,56,0,0,1,424,177.15c1.17-1.43,2.38-2.92,3.52-4.44l-1.14-.85c-1.12,1.5-2.32,3-3.48,4.39a57.32,57.32,0,0,0-7.34,10.54Z"/><path class="cls-3" d="M384.62,241.55a100.33,100.33,0,0,0,7.92-15l-1.3-.59a98.8,98.8,0,0,1-7.8,14.78Z"/><path class="cls-3" d="M368.39,276.38a94.29,94.29,0,0,1,12.56-9.1l1.47-.95-.77-1.19-1.47.95a95.21,95.21,0,0,0-12.75,9.23Z"/><path class="cls-3" d="M399.78,279.19a69.37,69.37,0,0,0,6.27-4.46c1.77-1.36,3.6-2.76,5.51-4l-.77-1.2c-2,1.25-3.82,2.67-5.61,4.05A68.2,68.2,0,0,1,399,278Z"/><path class="cls-3" d="M363,317.28c2.4-3.45,8-6.16,12.95-8.56,1.94-.93,3.76-1.82,5.31-2.7l-.7-1.24c-1.51.86-3.32,1.73-5.23,2.66-5.1,2.47-10.88,5.27-13.5,9Z"/><path class="cls-3" d="M370.56,334.38A49.09,49.09,0,0,0,381,330.06l-.72-1.23c-4.49,2.63-9.66,4.1-14.66,5.52l-2.4.69.4,1.37,2.39-.69C367.5,335.29,369,334.85,370.56,334.38Z"/><path class="cls-3" d="M366,297.31c3.91-1.71,7.31-4.52,10.6-7.23,1.93-1.6,3.93-3.24,6-4.63l-.79-1.18c-2.11,1.42-4.14,3.09-6.09,4.71-3.22,2.65-6.54,5.4-10.28,7Z"/><path class="cls-3" d="M327.25,329.36a28.51,28.51,0,0,1,5.6-3.34,35.42,35.42,0,0,0,7.31-4.49l-.94-1.07a34.41,34.41,0,0,1-7,4.29,29.55,29.55,0,0,0-5.89,3.53Z"/><path class="cls-3" d="M329.49,345.91a55.42,55.42,0,0,1,8.44-5.44c1.24-.71,2.41-1.38,3.49-2l-.74-1.22c-1.06.64-2.22,1.31-3.46,2-3.28,1.88-6.68,3.82-8.68,5.63Z"/><path class="cls-3" d="M381.83,320.19a34.25,34.25,0,0,1,5.52-3.08,36.6,36.6,0,0,0,5.92-3.33l-.85-1.15a34.2,34.2,0,0,1-5.69,3.19A35.74,35.74,0,0,0,381,319Z"/><path class="cls-3" d="M412.59,326.23a43.64,43.64,0,0,0,10-4.23l-.74-1.22c-4.3,2.63-9.34,4.05-14.22,5.42-1.51.42-3.06.86-4.57,1.33h0l.42,1.36h0c1.49-.46,3-.9,4.53-1.32S411.06,326.71,412.59,326.23Z"/><path class="cls-3" d="M321.73,364.65c3.93-2.41,8.86-4.15,13.62-5.83,1.65-.58,3.35-1.19,5-1.8l-.51-1.33c-1.59.6-3.29,1.2-4.93,1.79-4.83,1.7-9.82,3.47-13.88,6Z"/><path class="cls-3" d="M365.72,352c5.38-3.17,10.94-6.44,17.38-8.23l-.38-1.37c-6.63,1.84-12.27,5.16-17.72,8.37Z"/><path class="cls-3" d="M290.29,377.2a33.92,33.92,0,0,1,4.58-3.27,28.93,28.93,0,0,0,6.37-4.95l-1.07-.94a27.66,27.66,0,0,1-6.06,4.69,35,35,0,0,0-4.78,3.41Z"/><path class="cls-3" d="M299.84,361c5.69-1.76,10.13-5.77,13.52-12.2l-1.26-.66c-3.62,6.86-8.47,10.8-14.84,12l.28,1.4A22.07,22.07,0,0,0,299.84,361Z"/><path class="cls-3" d="M278,364.58a17.43,17.43,0,0,1,7.11-6.81l-.67-1.26a18.93,18.93,0,0,0-7.68,7.36Z"/><rect class="cls-3" x="265.59" y="384.36" width="9.56" height="1.43" transform="translate(-168.75 216.09) rotate(-33.88)"/><path class="cls-3" d="M343.74,305.07c4.25-4.11,8-9.1,11.58-13.92,1-1.35,2.05-2.75,3.07-4.08l-1.13-.87c-1,1.34-2.07,2.74-3.08,4.1a115,115,0,0,1-11.43,13.75Z"/><path class="cls-3" d="M395,209.5a79.77,79.77,0,0,1,8.66-15l-1.16-.84a81.8,81.8,0,0,0-8.81,15.3Z"/><path class="cls-3" d="M413,155.83a30.18,30.18,0,0,1,3.93-11.52l-1.22-.74a31.68,31.68,0,0,0-4.12,12.06Z"/><path class="cls-3" d="M523.46,288a30.17,30.17,0,0,0,12.79-7.91l-1-1a28.4,28.4,0,0,1-13.45,7.9l.35,1.38C522.58,288.27,523,288.15,523.46,288Z"/><path class="cls-3" d="M486.57,292.85c3.42-1.06,6.66-2.44,9-5l-1.05-1c-2.88,3.15-7.52,4.4-12,5.62-1.32.35-2.56.69-3.76,1.07l.43,1.36c1.18-.38,2.4-.71,3.7-1.06S485.35,293.22,486.57,292.85Z"/><path class="cls-3" d="M436.48,271.72a63,63,0,0,0,6.65-2.63c1.35-.59,2.63-1.15,3.68-1.53l-.48-1.34c-1.1.39-2.4,1-3.77,1.57a56.44,56.44,0,0,1-7.28,2.8l.38,1.37Z"/><path class="cls-3" d="M389.26,272c4.68-1.45,11.66-10.18,12-10.57l-1.12-.89c-3,3.8-8.62,9.64-11.67,10.19l.25,1.41C388.88,272.05,389.07,272,389.26,272Z"/><path class="cls-3" d="M373.51,262.38c3.54-2.13,6.06-5.45,8.51-8.66.58-.77,1.17-1.54,1.77-2.29l-1.12-.89c-.6.76-1.19,1.54-1.79,2.32-2.36,3.1-4.8,6.31-8.1,8.3Z"/><path class="cls-3" d="M351.86,346a22.51,22.51,0,0,0,7.19-3.4l-.87-1.12c-2.7,2.09-6.5,3.13-10.19,4.14-1.1.3-2.23.61-3.31.94l.43,1.36c1-.32,2.12-.62,3.26-.93S350.7,346.3,351.86,346Z"/><path class="cls-3" d="M351.08,329.83A15.29,15.29,0,0,0,360,323l-1.23-.71a14.28,14.28,0,0,1-9.82,6.67l.28,1.4A18.65,18.65,0,0,0,351.08,329.83Z"/><path class="cls-3" d="M296.71,351.21c1.44-1.62,3.05-3.17,4.62-4.67a56.14,56.14,0,0,0,7-7.59l-1.16-.83a55.54,55.54,0,0,1-6.82,7.39c-1.58,1.52-3.22,3.09-4.69,4.75Z"/><path class="cls-3" d="M313.39,377.11a27.4,27.4,0,0,0,8.19-3.8l-.84-1.15c-3.44,2.51-8,3.71-12.35,4.87-1.55.41-3.16.83-4.66,1.3l.43,1.36c1.47-.46,3-.86,4.59-1.28S311.85,377.59,313.39,377.11Z"/><path class="cls-3" d="M260.23,408s-14.16,54.09-36,40.28C197.43,431.34,233.27,390.43,260.23,408Z"/><path class="cls-3" d="M264.56,410c6.71,10.57,14.39,23.23,17.28,32.42l-.9.28c-2.87-9.08-10.5-21.67-17.18-32.2Z"/><path class="cls-3" d="M259.83,418.79c-.69-1.78-1.34-3.46-1.92-5a1.63,1.63,0,0,1,.11-.17c.08-.12.16-.25.23-.38l.39-.19c.62,1.65,1.32,3.46,2.07,5.4,4.6,11.86,10.32,26.62,8.21,32.09l-.89-.35C270,445.08,264.13,429.89,259.83,418.79Z"/><path class="cls-3" d="M262.13,462.08l.1,0c1-.46,1.22-3-.55-14.78-.08-.57-.15-1-.2-1.36-.31-2.21-.7-4.47-1.11-6.86-1.26-7.39-2.57-15-1.68-21.87l-.94-.13c-.91,7,.41,14.7,1.69,22.16.41,2.39.79,4.64,1.1,6.83,0,.33.12.8.2,1.37,1.24,8.22,1.61,12.83,1.12,13.71a1.83,1.83,0,0,1-.22-.21l-.71.63C261.35,462,261.75,462.19,262.13,462.08Z"/><path class="cls-3" d="M225.15,359.29c.35-.41.93,0,1.31.2l-.29.45c.52.74,1.84,2.23,2.77,3.29s1.77,2,2.11,2.5c8.17,11.6,15.15,23,21.47,33.69-.19.29-.39.59-.57.89-6.38-10.79-13.43-22.31-21.68-34-.31-.44-1.15-1.4-2.05-2.42C225.05,360.25,224.73,359.78,225.15,359.29Z"/><path class="cls-3" d="M219.42,377c2.56,1.75,6.07,5.33,10.14,9.46,6.72,6.84,14.76,15,20.6,16.91a4.34,4.34,0,0,0-.38.86c-6.05-2-13.84-9.93-20.9-17.1-4-4.1-7.52-7.64-10-9.35Z"/><path class="cls-3" d="M201.38,387.27c13,3.32,25.09,10,36.81,16.46,2.63,1.45,5.32,2.93,8,4.37l0,0a6.29,6.29,0,0,0-.79.6c-2.57-1.38-5.13-2.79-7.64-4.17-11.67-6.43-23.73-13.08-36.59-16.37Z"/><path class="cls-3" d="M475.76,459.41l.92-1.09c-3-2.51-4.18-7.26-5.23-11.44-.34-1.35-.66-2.62-1-3.8l-1.36.43c.36,1.14.67,2.39,1,3.72C471.18,451.62,472.43,456.6,475.76,459.41Z"/><path class="cls-3" d="M484.23,454.73l1.35-.45c-.43-1.27-.92-2.56-1.41-3.79a33.1,33.1,0,0,1-2.56-9l-1.42.12a34.12,34.12,0,0,0,2.66,9.42C483.32,452.23,483.81,453.49,484.23,454.73Z"/><path class="cls-3" d="M500.1,446.55l1.31-.57c-.41-.93-.88-1.84-1.33-2.73-1.16-2.25-2.25-4.38-2.44-6.74l-1.42.12a19.5,19.5,0,0,0,2.59,7.27C499.25,444.77,499.72,445.67,500.1,446.55Z"/><path class="cls-3" d="M509.74,477.82l1.35-.47c-1.51-4.31-2-7.66-1.74-10.86l-1.41-.14C507.61,469.76,508.17,473.3,509.74,477.82Z"/><path class="cls-3" d="M501.84,485.64c.59-2.5-.63-5.92-1.81-9.21-.36-1-.71-2-1-2.86l-1.36.42c.28.91.63,1.88,1,2.92,1.06,2.95,2.26,6.31,1.76,8.4Z"/><path class="cls-3" d="M497.75,499.35a39.59,39.59,0,0,0-.3-9.28l-1.41.22a38.86,38.86,0,0,1,.3,8.94Z"/><path class="cls-3" d="M488.37,476.9c-.77-2.95-1.36-5.86-2.05-9.36l-1.4.27c.7,3.53,1.29,6.46,2.08,9.45Z"/><path class="cls-3" d="M506.2,460.74l1.12-.87a7.78,7.78,0,0,1-1.74-5.61l-1.42-.12A9.28,9.28,0,0,0,506.2,460.74Z"/><path class="cls-3" d="M526.17,447.64a78.48,78.48,0,0,0-5.4-13.1c-.29-.6-.59-1.21-.88-1.83l-1.29.62c.3.62.59,1.23.89,1.83A78.1,78.1,0,0,1,524.8,448Z"/><path class="cls-3" d="M533.93,429.56c.05-2.53-.95-4.89-1.92-7.18a35.07,35.07,0,0,1-1.4-3.73l-1.37.4a34,34,0,0,0,1.46,3.88c.95,2.25,1.85,4.38,1.81,6.6Z"/><path class="cls-3" d="M541.58,421.11l1.36-.43a89.24,89.24,0,0,0-3.86-9.77l-1.3.58A88.9,88.9,0,0,1,541.58,421.11Z"/><path class="cls-3" d="M546.3,464.17c-.24-4.19-.69-8.4-1.11-12.47-.11-1-.22-2-.32-3l-1.42.15c.11,1,.21,2,.32,3,.44,4.24.86,8.24,1.11,12.4Z"/><rect class="cls-3" x="532.98" y="461.34" width="1.42" height="7.24" transform="translate(-77.71 108.3) rotate(-10.81)"/><path class="cls-3" d="M507.76,444.24l1.26-.66a23.8,23.8,0,0,1-2.52-8.16l-1.41.17A25.33,25.33,0,0,0,507.76,444.24Z"/><rect class="cls-3" x="508.53" y="413.67" width="1.42" height="6.4" transform="translate(-100.36 168.89) rotate(-17.17)"/><path class="cls-3" d="M458.23,443.61l1.29-.61a11.22,11.22,0,0,1-1.06-6l-1.41-.16A12.57,12.57,0,0,0,458.23,443.61Z"/><rect class="cls-3" x="476.42" y="432.74" width="1.42" height="4" transform="translate(-107.06 160.21) rotate(-17.17)"/><path class="cls-3" d="M491.58,432.47l1.29-.61a7.29,7.29,0,0,1-.34-6l-1.33-.51A8.81,8.81,0,0,0,491.58,432.47Z"/><rect class="cls-3" x="527.99" y="498.73" width="1.42" height="5.82" transform="translate(-10.47 11.28) rotate(-1.21)"/><path class="cls-3" d="M537.92,499.29c-.62-3.15-1.32-6.33-2.07-9.43l-1.39.33c.76,3.09,1.45,6.24,2.06,9.38Z"/><path class="cls-3" d="M545.79,498c.48-2.83-.31-5.8-1.08-8.67-.25-.91-.5-1.86-.7-2.77l-1.39.31c.21.94.46,1.9.71,2.83.73,2.72,1.49,5.54,1.06,8.06Z"/><path class="cls-3" d="M556.3,480.4a18.63,18.63,0,0,0-1.29-6.67,28.75,28.75,0,0,1-1-3.66l-1.4.26a29.45,29.45,0,0,0,1.07,3.85,17,17,0,0,1,1.21,6.16Z"/><path class="cls-3" d="M517.43,500.76c.09-3.54-1.09-7-2.24-10.33-.35-1-.72-2.09-1-3.12l-1.36.42c.32,1,.69,2.12,1,3.16,1.11,3.22,2.25,6.55,2.17,9.83Z"/><rect class="cls-3" x="524.56" y="462.42" width="1.42" height="12.79" transform="translate(-114.98 175.94) rotate(-17.17)"/><path class="cls-3" d="M517.71,460.29l1.35-.46a28.38,28.38,0,0,1-1.73-10.89l-1.42-.09A29.84,29.84,0,0,0,517.71,460.29Z"/><path class="cls-3" d="M539.87,446c-.46-2.52-.78-5.17-1.08-7.73-.07-.62-.14-1.24-.22-1.86l-1.41.17c.07.62.15,1.24.22,1.85.3,2.59.62,5.27,1.09,7.83Z"/><rect class="cls-3" x="547.52" y="430.19" width="1.43" height="12.02" transform="translate(-119.81 225.15) rotate(-20.97)"/><path class="cls-3" d="M535.43,539.2c3.43-2,4-6.52,4.55-10.55a36.58,36.58,0,0,1,.65-3.95l-1.38-.35a36.12,36.12,0,0,0-.68,4.12c-.51,3.88-1,7.89-3.84,9.49Z"/><path class="cls-3" d="M550.45,524.29c2-4.31,1.84-9.78-.63-16.25l-1.34.51c2.33,6.09,2.56,11.18.69,15.13Z"/><path class="cls-3" d="M558,504.88c-.06-.88-.14-1.77-.22-2.66a52.88,52.88,0,0,1-.32-7.12l-1.42-.07a53.84,53.84,0,0,0,.32,7.32c.08.88.16,1.76.22,2.64Z"/><path class="cls-3" d="M526.68,542.66c3.28-3.48,3.81-7.73,4.42-12.66l.1-.79-1.42-.18-.09.8c-.61,4.86-1.09,8.71-4.05,11.85Z"/><rect class="cls-3" x="506.69" y="526.3" width="17.88" height="1.42" transform="matrix(0.16, -0.99, 0.99, 0.16, -88.54, 949.62)"/><path class="cls-3" d="M501.3,532.64a56.92,56.92,0,0,0,1.06-13l-1.43,0a55.17,55.17,0,0,1-1,12.71Z"/><path class="cls-3" d="M443.34,502.08a28.24,28.24,0,0,0,.93-7.9c0-.87,0-1.76.09-2.62l-1.42-.08c-.05.88-.07,1.79-.09,2.67a27.17,27.17,0,0,1-.87,7.5Z"/><path class="cls-3" d="M445.24,481.55c1.75-2.78,1.89-5.77,2-8.94,0-.4,0-.8.06-1.22l-1.43-.07-.06,1.23c-.14,3.1-.26,5.78-1.81,8.24Z"/><path class="cls-3" d="M458.2,471.28c-.21-2.36-.41-4.9-.59-7.33l-1.42.1c.17,2.44.38,5,.59,7.36Z"/><path class="cls-3" d="M439.39,453.79a61.3,61.3,0,0,0,.17-7.67l-1.42.05a60.5,60.5,0,0,1-.17,7.5Z"/><path class="cls-3" d="M464,503.77a21.79,21.79,0,0,1,1.19-9.27l-1.34-.47a23.24,23.24,0,0,0-1.26,9.89Z"/><path class="cls-3" d="M474.75,494.49l1.35-.47a16.37,16.37,0,0,1-.52-9.46l-1.38-.36A17.83,17.83,0,0,0,474.75,494.49Z"/><path class="cls-3" d="M474.79,474a21.74,21.74,0,0,0,1-8.09l-1.42.1a20.51,20.51,0,0,1-.9,7.55Z"/><rect class="cls-3" x="453.92" y="486.63" width="1.42" height="10.52" transform="matrix(0.99, -0.15, 0.15, 0.99, -66.99, 71.7)"/><path class="cls-3" d="M433.88,532c2.13-1.88,3.88-5.69,5.16-8.48l-1.3-.59c-1.22,2.66-2.89,6.32-4.8,8Z"/><path class="cls-3" d="M462.49,539.51a26,26,0,0,1,2.17-8.81l-1.3-.58a27.33,27.33,0,0,0-2.29,9.3Z"/><path class="cls-3" d="M487.22,517a34.06,34.06,0,0,0,1.73-8.23l-1.42-.12a32.14,32.14,0,0,1-1.66,7.88Z"/><path class="cls-3" d="M493.6,559.38c1.07-2.92,2.26-5.87,3.41-8.72.73-1.82,1.49-3.7,2.21-5.56l-1.33-.52c-.72,1.86-1.47,3.73-2.21,5.55-1.15,2.86-2.34,5.82-3.42,8.75Z"/><path class="cls-3" d="M510,559.57c3.25-2.4,6.2-4.73,8.78-6.91l-.92-1.09c-2.56,2.16-5.49,4.47-8.7,6.86Z"/><path class="cls-3" d="M532.13,555.25a20.23,20.23,0,0,0,6.51-9.8l-1.35-.46a18.85,18.85,0,0,1-6,9.13Z"/><path class="cls-3" d="M475.64,549.79a15.17,15.17,0,0,1,3.53-6.68l-1.05-1a16.66,16.66,0,0,0-3.87,7.31Z"/><path class="cls-3" d="M478.1,528.24a16.9,16.9,0,0,0,1.2-4.71,19.41,19.41,0,0,1,1-4.38l-1.32-.54a21,21,0,0,0-1.13,4.7,15.47,15.47,0,0,1-1.08,4.31Z"/><path class="cls-3" d="M472.91,513.53a18.13,18.13,0,0,1,.17-7.3l-1.39-.32a19.68,19.68,0,0,0-.18,7.87Z"/><path class="cls-3" d="M511.18,515l1.36-.44a24.1,24.1,0,0,1-.76-8.1c0-.77,0-1.54,0-2.32h-1.43c0,.77,0,1.53,0,2.28A25.37,25.37,0,0,0,511.18,515Z"/><path class="cls-3" d="M529.84,522.11a52.26,52.26,0,0,0,.76-11.26l-1.42.1a50.89,50.89,0,0,1-.75,10.95Z"/><path class="cls-3" d="M523.29,487.29a31.19,31.19,0,0,0-.55-10.1l-1.39.3a30.11,30.11,0,0,1,.53,9.65Z"/><path class="cls-3" d="M545.87,478.39l1.33-.5c-1-2.76-2.17-5.52-3.37-8.2l-1.3.57C543.71,472.93,544.84,475.66,545.87,478.39Z"/><path class="cls-3" d="M453.13,517.14a7.79,7.79,0,0,1,1.74-6.68l-1-1a9.2,9.2,0,0,0-2.12,7.89Z"/><path class="cls-3" d="M444.68,539.5c.44-.6.87-1.21,1.31-1.82a52.39,52.39,0,0,1,4.61-5.82l-1-1a53.08,53.08,0,0,0-4.73,6c-.44.6-.87,1.21-1.31,1.8Z"/><path class="cls-3" d="M488.09,572.17a29.07,29.07,0,0,1,5.28-4.08l-.74-1.22a30.67,30.67,0,0,0-5.53,4.27Z"/><path class="cls-3" d="M502.38,569.36a5,5,0,0,1,3.81-1.89l-.08-1.42a6.3,6.3,0,0,0-4.87,2.46Z"/><path class="cls-3" d="M458.59,453.54a14.59,14.59,0,0,0-3.07-7l-1,1a13.59,13.59,0,0,1,2.69,6.27Z"/><path class="cls-3" d="M465.23,461.78c.45-2.27.87-4.79,1.18-7.1l-1.42-.19c-.3,2.28-.71,4.77-1.16,7Z"/><path class="cls-3" d="M448.33,461.06a41.29,41.29,0,0,0-.55-10l-1.41.23a39.61,39.61,0,0,1,.53,9.71Z"/><path class="cls-3" d="M740.24,369.48a67.81,67.81,0,0,0,.43-13.45c-.49-5-3.14-11.63-5.36-18.39q5.33-1.22,10.63-2.54c.27,10.41.18,21-.1,31.43C744,367.49,742.1,368.47,740.24,369.48Z"/><path class="cls-3" d="M723.89,378.17q-2.57,1.27-5.19,2.41c.63-7.39,1.46-14.82.81-21.53-.55-5.67-.91-11.74-1.57-17.77l1.75-.34c1.58,12.35,3.11,24.65,4.2,37.23Z"/><path class="cls-3" d="M699.21,386.28c.07-7.6.64-15.32-.38-22.07-1-6.42-3.37-12.43-5.13-18.6l8.64-1.47c.89,13.59,2.78,27.19,4.17,40.72C704.11,385.46,701.67,385.92,699.21,386.28Z"/><path class="cls-3" d="M676.75,387.77l-2.31.09q-2.9.13-5.81.24c0-8.44.69-17.13-.4-25.05a100.17,100.17,0,0,0-2.79-12.95l1.76-.27,5.17-.81c1.27,12.57,3,25.13,4.21,37.67C676.61,387,676.67,387.34,676.75,387.77Z"/><path class="cls-3" d="M642.78,388.91c-.88-7.36-1.24-14.88-2.13-21.62-.33-2.53-1.6-7.54-2.8-12.83q5.91-1,11.82-1.91c.48,12,1.12,24,2.11,36.12Z"/><path class="cls-3" d="M620.17,389.52c-.42-4.93-.47-9.82-.7-13.7a126.36,126.36,0,0,0-2.19-17.55q4.07-.84,8.13-1.6c1.27,10.05,2.71,21.91,3.4,32.6Z"/><path class="cls-3" d="M601,389.92a21.64,21.64,0,0,0-3.15-1.08c0-2.83,0-5.57-.13-8-.4-5.95-.73-11.82-1.55-17.61,2.91-.79,5.84-1.54,8.77-2.24Q606,375.43,607,389.84Z"/><path class="cls-3" d="M577.17,387.19a129.65,129.65,0,0,0-1.76-18.95c2.56-.34,5.1-.83,7.61-1.42q.53,10.23.88,20.45C581.67,387.19,579.42,387.15,577.17,387.19Z"/><path class="cls-3" d="M545.9,397.57c-1.6-4.63-2.56-10.18-3.59-12.34-6-12.41-12.86-23.88-18-36.66a58.6,58.6,0,0,0,7.66-4.33c4.25,9.54,8.89,19,12.49,28.33,2.93,7.59,5.55,15.56,7.8,23.5C550.11,396.5,548,397,545.9,397.57Z"/><path class="cls-3" d="M535.29,405.1c-2,.8-4,1.57-6,2.34-3.93-9.44-7.52-19.09-12.67-28.27-4.21-7.49-9.22-14.52-13.61-21.91,3.7-1.35,7.39-2.72,11-4.19,6,12.69,12.37,25.16,17.82,38.1a103.06,103.06,0,0,0,5.06,9.69A5.7,5.7,0,0,0,535.29,405.1Z"/><path class="cls-3" d="M503.53,416.43c-5.21-11.6-10-23.39-14.8-35.19-2-4.91-3.91-10.26-6-15.58l3.84-1.78c1-.46,2-.93,3-1.41.32-.15.67-.3.87-.38h0l-.49.19,1-.41c6.57,17.41,13.36,34.7,20.24,52Z"/><path class="cls-3" d="M481.53,423.58c-3.27-9.88-6.2-19.95-9.54-29.79-2.35-6.9-5-13.59-7.77-20.25,2.37-.93,4.74-1.9,7.09-2.89,6,16.79,12.18,33.65,17,50.73Z"/><path class="cls-3" d="M449.78,381.25l6.86-3.29c4.54,14,8.84,28,13.23,42.07.41,1.31,1.64,4,2.51,6.42-3,.89-5.93,1.75-8.91,2.54C457.94,413.54,455,396.92,449.78,381.25Z"/><path class="cls-3" d="M436.4,387.77l5.82-2.87a363.16,363.16,0,0,1,9.14,42.62c.21,1.4.43,2.82.67,4.25-1.87.42-3.75.8-5.63,1.16-2.6-6.92-2.87-16.33-4-21.74C440.74,403.28,438.72,395.5,436.4,387.77Z"/><path class="cls-3" d="M423,406c-.61-2.21-1.93-5.64-3.27-9.37l.41-.23c2.44-1.39,4.9-2.72,7.37-4,3,13.88,5.88,27.84,7.86,41.79-2.23.14-4.45.25-6.68.33-.17-2.5-.17-5-.47-7.41C427.34,419.7,425,413.06,423,406Z"/><path class="cls-3" d="M410,402.12c1.16,5.82,2.4,11.62,3.35,17.34.45,2.73,2.46,8.4,3.15,12.78l-7.2-.66a277.57,277.57,0,0,0-1.64-28.21Z"/><path class="cls-3" d="M708.23,343.49c-1.41-11.73.69-24,.29-35.86l5.83-1.94c-1,11.7-2.36,24.91-.77,36.54Q710.9,342.85,708.23,343.49Z"/><path class="cls-3" d="M682.36,346l-2.4.22c-.82-9.27-.27-19.08-2-27.8l-.12-.59q4.85-1.65,9.72-3.27a191.86,191.86,0,0,1,1.61,30.93C686.92,345.67,684.64,345.83,682.36,346Z"/><path class="cls-3" d="M654.66,350.2c-1.6-7.44-2.42-15.21-3.46-22.91q2.92-1.1,5.87-2.16c2,5.75,5.16,15.33,6,23.48Q658.88,349.36,654.66,350.2Z"/><path class="cls-3" d="M625.8,356.21c-1.19-5.64-2.36-12-3.42-17.64l7.67-3.05c1.11,4.73,2.9,12.07,4,18.94Z"/><path class="cls-3" d="M611.19,359l-2.17.38-3.4.58c-1-4.56-1.88-9.41-3.15-13.83l4.41-1.61C608,349.3,609.94,354.08,611.19,359Z"/><path class="cls-3" d="M590.35,362.68c-2,.36-3.89.75-5.82,1.15a85.11,85.11,0,0,0-3.1-10.89c1.37-.38,2.74-.77,4.1-1.17l1.78-.55C587.66,355.12,589.08,358.88,590.35,362.68Z"/><path class="cls-3" d="M564,369.19c-.8-4-1.2-8.12-1.9-12.19,1.13-.15,2.25-.32,3.37-.5,1.27,3.68,2.29,7.53,3.21,11.23Q566.32,368.42,564,369.19Z"/><path class="cls-3" d="M318,737l.57-.17c.46-.13.91-.28,1.37-.44l.84-.46a10.9,10.9,0,0,1,2.23-1c-1.68-4.34-3.34-8.74-5-13.09-5.14-13.66-10.45-27.78-16.33-39.15l-4.81,2.49c5.74,11.09,11,25.06,16.08,38.56C314.65,728.19,316.33,732.63,318,737Z"/><path class="cls-3" d="M647.93,601.66C638,580,627.85,556.15,626.18,533.31l-5.4.39c1.75,23.86,12.17,48.32,22.35,70.48A13.47,13.47,0,0,1,647.93,601.66Z"/><path class="cls-3" d="M278.61,749.78c-10.78,1.09-20.91-.39-34.42-8.12-11.21-6.41-32.7-26.19-31.59-42.87.34-5.11,3.05-12.13,14-16.58l2,5c-6.79,2.76-10.27,6.66-10.62,11.93-.84,12.51,16.55,30.74,28.88,37.8,18.93,10.82,30.26,8.3,49,4.11l5.51-1.21c50.49-10.92,99.52-32.55,147-53.48,24.7-10.89,50.24-22.16,75.78-31.84,23.92-9.06,47.33-20.32,70-31.21,12.73-6.13,25.9-12.46,38.86-18.25,10.22-4.57,21.48-8.73,33.4-13.14,29-10.71,59-21.78,78-40.18l3.76,3.89c-19.87,19.19-50.39,30.47-79.91,41.38-11.83,4.37-23,8.5-33.07,13-12.89,5.76-26,12.08-38.71,18.19-22.74,10.94-46.25,22.25-70.39,31.39-25.41,9.63-50.88,20.87-75.52,31.74-47.67,21-97,42.78-148,53.81l-5.47,1.21A162.45,162.45,0,0,1,278.61,749.78Z"/><path class="cls-3" d="M230.16,746.88l-1.62.16c-3.76-39,3.94-74.06,23.52-107.21,17.47-29.56,45.19-58.58,84.75-88.73,8.49-6.47,18.19-18.87,24.72-31.59,7.24-14.13,9.37-26.06,5.83-32.72-4.05-7.62-15.68-8.45-33.63-2.39-23.74,8-42.55,49.11-57.66,82.13-6,13.12-11.2,24.45-15.87,31.87-4.43,7-9.29,13.92-14,20.58-16.81,23.78-32.68,46.24-29.07,74.46l-1.61.2c-3.69-28.84,12.36-51.55,29.36-75.6,4.69-6.64,9.54-13.5,13.95-20.5,4.61-7.34,9.78-18.62,15.76-31.69,15.24-33.3,34.22-74.74,58.62-83,19.08-6.44,31.05-5.37,35.59,3.17,8.32,15.69-13.27,52.85-31,66.36C255.27,615.29,223.07,673.45,230.16,746.88Z"/><path class="cls-2" d="M430.06,140.2a29.19,29.19,0,0,0-1.61,3.75,23.57,23.57,0,0,0,0,16.27,35.27,35.27,0,0,0,3.62,7.28,66.62,66.62,0,0,0,7.35,9.28c1,1.05,2,2.09,3,3.14,2.38,2.4,4.93,4.8,7.56,7.23l1.76,1.61q1.84,1.65,3.75,3.26c4,3.36,8.09,6.58,12.3,9.72l.88.65c9.57,7.08,19.56,13.74,29.09,20.65l1.14.83c4.33,3.15,8.55,6.36,12.59,9.68a37.05,37.05,0,0,1,4.78,5.07c.39.47.78,1,1.18,1.48,2.15,2.77,4.46,6,6.82,9.42l2.69,3.86c2.4,3.46,4.83,6.92,7.19,10,.71.94,1.41,1.85,2.1,2.71a48.41,48.41,0,0,0,6.47,6.92,11.3,11.3,0,0,0,3.54,2.13,6.24,6.24,0,0,0,2.32.2c9.22-.7,30.38-14.95,36-22.16.46-.59.88-1.18,1.28-1.77a24.1,24.1,0,0,0,3.36-7.79c0-.2.09-.41.13-.62,1.72-8.43-1.19-17.07-3.22-25.62h0A61.22,61.22,0,0,1,584.5,208a30.77,30.77,0,0,1,0-5.08c1.74-19.5,14.94-27.23,11.06-48.08-1.73-9.32-5.54-20.32-9.59-30.71-2.73-7-5.58-13.73-8-19.48C573.3,91,545.33,92.45,525.35,90.39h-.15c-10.42-1.08-27.73-4.15-37.39,1.31a18.22,18.22,0,0,0-7.58,8.26,1.51,1.51,0,0,0-.11.22.2.2,0,0,0,0,.08c-1.1,2.27-1.92,4.67-2.86,7l-.08.21c-1.37,3.39-3,6.7-6.13,9.41a30.36,30.36,0,0,1-10.22,5.64c-3.86,1.36-7.91,2.27-11.83,3.43C441.55,128.18,434.57,131.32,430.06,140.2Z"/><path class="cls-5" d="M535.28,59.1c1.52.11,3.3,2.07,4.72,1.7-1.23-4.58.91-9.83.28-14.07a27.68,27.68,0,0,1,7.28,4.69A27.42,27.42,0,0,1,551,43.71c1.41,3.66,5.26,7,6.79,10.59,1.35-.9.64-4,2.46-4.35,1.18,1.8,5.25,6.08,7.1,8.68,1.44-1.74,2-3.94,3.34-5.83,3.72,1.68,3,3.8,5.8,6,2.59-.07,2.72-3.65,5.91-2.81,1.15.88.67,3.7,2.54,5.09,2.09-1,2.29-2.73,4.94-3.41,2,1.39,1.6,3.81,3.47,5.25a9.47,9.47,0,0,1,3.85-2c2.3,3.18.89,3.63,2.23,7.16,2.05-1.69,3.16-3.35,1.34.71l-3.49,2.53c1.24.54,2.09,3.48,6.41,1.71,0,0,5.75,7.18,6.92,8.65-2,1.44-3.82,2.32-5.8,3.64,2.1,2.33,2.85,6.52,5.88,9.21,1.47.57,1.47.46,0-.33-3.62,4.16-1.07,2.44-1.81,8.23-3,3.86-2.71,4.49-4.43,9.68-1.71.07-.94-2.69-2.68-3-1.13,6.13-3.18,6.22-5.88,11.42a6.79,6.79,0,0,1-2.84-2.37c-1.15,1.71-1.73,4.35-3.47,5.75-1.5-1.43-.56-2.61-1.86-4.24-1.49.89-1.49,3-2.69,4.2-2.61-1.15-2.27-3.38-4-5.27-1.63.81-1,3.1-2.54,4.11-3-1.56-5.62-4.14-8.51-5.55-11.48,5-51.49-19.11-37.94-32.35l-3-2.23c.31-3.12,2.42-1.09,3.06-2.8-.89-2-2.23-4.74-3.09-7,1.77.51,3.57,1.82,5.43,1.91a5.18,5.18,0,0,0-1.25-4C533,71.5,535.68,62.78,535.28,59.1Z"/><path class="cls-5" d="M594.17,255.9c-6.87-19.83-14.81-37.12-31.55-52.58C550.34,192,532.87,184,518.11,175.73A303.13,303.13,0,0,1,480.69,151c-5.07-3.91-11.32-8.4-14.34-13.85-2.66-4.81-2.25-9.42-5.27-14.17-13.88-21.82-51.33,11.16-48.21,29.52,3.06,18,24,29.27,38.56,39.62,16.27,11.56,33.26,20.52,48.61,33.51,16.55,14,19.86,38,37.24,50.45,7.34,5.26,15.19,8.14,21.94,4.25C571.56,273.25,580.81,259.61,594.17,255.9Z"/><path class="cls-2" d="M590.49,243.35c.87,1.28,1.75,2.54,2.66,3.79-5.88,4.05-13.87,7.43-18.79,10-7.18,3.82-13.35,7.32-19.58,12.47-3.3,2.73-7,6.83-11,9.88l-.45-.28c-1.23-.7-2.42-1.44-3.59-2.21,6.49-9.42,17.31-18.5,26-24.51C573.25,247.32,582.06,245.36,590.49,243.35Z"/><path class="cls-2" d="M581.22,228.71c.11.19.23.38.35.57-8.57,12.91-22.83,18.71-35,27.8-5.69,4.26-9.92,9-15.18,13.28l-1.29-1.07c6.9-10,13.2-20.45,24.37-26.66C565.14,236.71,574,230.4,581.22,228.71Z"/><path class="cls-2" d="M567.64,209.65l.69.66c-5.39,17.35-19.53,27.24-34.37,37.05a38.39,38.39,0,0,0-10.69,10.7q-1.08-1.69-2.22-3.36c4.54-8.56,12.36-16.39,20.2-20.28C555.72,227.22,560.43,216.45,567.64,209.65Z"/><path class="cls-2" d="M554.25,198.49c.72.52,1.43,1,2.13,1.58-5.1,12.91-15.79,21.3-27.21,29.24-6,4.17-10.64,10-15.71,14.77l-.62-.92c7.12-10.45,16.17-16.63,26.38-25C547.17,211.72,549.31,203.93,554.25,198.49Z"/><path class="cls-2" d="M529.73,182.18l2.37,1.53c-7.14,9.23-16.12,16.2-23.75,25.46a91.06,91.06,0,0,0-9.52,14.8c-.81-.71-1.63-1.41-2.47-2.1A71.81,71.81,0,0,1,509.5,198C514.71,191.94,522.6,187.27,529.73,182.18Z"/><path class="cls-2" d="M509.84,183c2.43-4.66,1.64-10.35,4.24-11.53,1,.74,2,1.47,3,2.19-1.69,13.59-16.58,19.29-25,28.54a61,61,0,0,0-7.49,10.68l-2.75-2c3.34-6.74,9.2-11.8,15.88-16.51C502.53,191.05,507.17,188.11,509.84,183Z"/><path class="cls-2" d="M499.85,162.72l.77.4c-8.9,14.87-22.61,25.3-32.32,39.79a3.93,3.93,0,0,0-1.27.54c3.94-9.29,9.39-18.67,16.05-25.81S493.93,166.19,499.85,162.72Z"/><path class="cls-2" d="M468.42,141.09c.59.56,1.19,1.12,1.8,1.67-3.13,8.35-11.24,14.36-17.4,22a154.73,154.73,0,0,0-12.88,19.4c-.77-.65-1.53-1.32-2.28-2a47.74,47.74,0,0,1,3.52-9.33c3.14-6.1,6.47-12.4,11.1-17.53S463.7,146.15,468.42,141.09Z"/><path class="cls-2" d="M459.59,130.43c.51.82,1,1.63,1.61,2.42.29.4.59.79.89,1.17-5.83,5.59-15.38,11.79-19,15.88-6,6.77-10,15.34-14,23.69q-1.68-1.83-3.31-3.69C428.92,151.18,441.23,139.09,459.59,130.43Z"/><path class="cls-2" d="M422.17,145.4c7.64-10.7,18.4-24.57,33.15-27.67v.14a22.64,22.64,0,0,0,.41,3.15c-15.82,11.28-30.24,23.33-38.88,38.29l-.2-.25C418.19,154.48,419.15,149.64,422.17,145.4Z"/><path class="cls-1" d="M585.63,160.92c.47,8.25-12.33,4.35-9.11-2.58,2-4.28,10.11-2.73,9.11,2.58Z"/><path class="cls-1" d="M546.3,147.1c1,10.3-16.62,3.71-11.42-3.95,2.49-3.66,11.4-.22,11.42,3.95Z"/><path class="cls-1" d="M511.85,104.17c.63-2.11,2-2.56,3.43-2.09,3.73,1.23,3,6.26-.87,6C512.49,107.94,511,107,511.85,104.17Z"/><path class="cls-1" d="M496.15,131.58c4.47,9-10,12.09-10.52,2.95-.34-5.61,7.5-8.58,10.52-2.95Z"/><path class="cls-1" d="M570.84,182.26l.06.14c4.83,9.74-14.45,6.84-10.23-1.39,1.91-3.72,8.68-2.94,10,.87Z"/><path class="cls-1" d="M480.14,100.18h0a.2.2,0,0,0,0,.08h0l-2.88,7-.08.21c3.74-.64,6.69-4.29,3.54-6.91Z"/><path class="cls-1" d="M570.69,130.22c-.59,6.59-10.33,2.58-7.5-3,1.77-3.48,7.08-.72,7.5,3Z"/><path class="cls-1" d="M514.13,159c2.39-2.46,6.58-.46,8.13,2.4h0C524.42,171.52,508.91,164.42,514.13,159Z"/><path class="cls-1" d="M584.5,208a4.63,4.63,0,0,0-4.84,2c-2.4,4.17,2.78,8.05,6.46,7.41Z"/><path class="cls-5" d="M101.12,149.66c-8.38.39-17.15.39-25.53,1.59h-6c-6,0-7.18-2-7.18-6.78l-1.6-31.54a70.5,70.5,0,0,1-.4-9.18c0-4.39,2-6.79,6-7.59l18-3.19c10.77-2,20.34-4.39,30.31-6.39a61.81,61.81,0,0,1,12.37-1.19l15.55-.8c6-1.2,11.57,0,17.55,1.59a50.45,50.45,0,0,0,6,2c9.57,2,16.35,7.58,22.33,15.17a82.2,82.2,0,0,1,14.76,28.74,40.14,40.14,0,0,1,1.2,10c.4,4.39,0,8.78,0,13.17A26.61,26.61,0,0,1,202,168.82l-8,17.56c-2.79,5.19-2.39,6.79,2,10a80.39,80.39,0,0,1,11.17,8c7.58,6.39,10.77,14.78,14.36,24,3.59,10.78,3.19,20.36,2,31.13-1.2,12.38-5.19,23.56-11.17,34.33-5.19,9.59-11.17,18.77-19.15,26.75-3.59,4.39-6.38,8-10.77,11.58-7.58,6.78-16.35,10.38-25.93,12.37-9.17,2-17.15,3.59-26.32,3.2-4.39-.4-8-.4-11.57-1.6-2,0-3.59-.4-5.58-.4-11.17,1.2-22.34-2-33.11-4-12.76-2.8-24.73-8-36.3-14-1.19-1.2-2.79-1.6-4-2.8-3.59-2.79-4.39-6.39-2.79-10l4-9.58,5.18-13.57a103.25,103.25,0,0,1,4.39-9.58l4-8.78c2-4.4,5.19-5.59,9.57-4,9.18,2.8,18,4.79,27.13,7.59a43.35,43.35,0,0,0,10.37,1.2c4.39.4,8.77,0,13.16.4,9.58,0,18.35-2,27.52-4a30,30,0,0,0,15.56-10c3.59-4.79,5.59-14,1.2-20.76-6-8.38-14-13.57-24.73-13.57-7.58,0-15.16.8-22.74,1.2-.4,0-.4,0-.8.4-6.38.4-8.37-2-8-8.38,1.19-6,.39-11.18.79-17.17,0-3.19-.4-6.39,0-9.58q0-4.78,4.79-6c2.79-1.2,6-1.2,8.78-1.59,8-.4,15.15-3.6,21.53-8,6.39-4.79,8-14,2-20.36a25.1,25.1,0,0,0-14.36-9.18c-4.39-1.2-8.78-1.2-13.56-1.6-3.59-.39-7.18,0-11.57,0Z"/></g></g></svg>