<svg xmlns="http://www.w3.org/2000/svg" viewBox="0 0 832.5 832.5"><defs><style>.cls-1{fill:#5e4440;}.cls-2{fill:#deaa7c;}.cls-3{fill:#ffffc5;}.cls-4{fill:#76b099;}.cls-5{fill:#070707;}.cls-6{fill:#e55747;}</style></defs><g id="Layer_2" data-name="Layer 2"><g id="Layer_1-2" data-name="Layer 1"><rect class="cls-1" width="832.5" height="832.5"/><path class="cls-2" d="M655,553.08c25.73,7.23,53.11,5.63,80.79,7-7.87,32.87-64.47,14.85-87.28,9.26Z"/><path class="cls-2" d="M648.88,588.84c15,14.19,61.85,9,87.37,10.23-12.51,28.72-62.37,19-87.37,19Z"/><path class="cls-3" d="M313.9,585.59C333.34,630.81,421.58,686.16,469.79,703c54.71,19.13,119.79,41.88,178.29,38.12-19.29-82.45,16.68-182.6,28.44-263.32-28.9,24.2-176.06,43.37-206.1,21.58Z"/><path class="cls-2" d="M373.88,718.88c-15,4.75-30.67,3-45.74,3.74a36.58,36.58,0,0,0,.37,15.2c14.62,5.32,27.37,3.71,45.37,3.82Z"/><path class="cls-2" d="M306.1,680.63c-.24,12.84-3.52,23.7-6,35.28,18,1.94,21.63-16.56,28.73-28.78Z"/><path class="cls-4" d="M562.19,530.57c21.29,0,54.22-8.36,69.95-24.91,7.26-7.64,10.19-16.22,8.71-25.5l-.21-1.31h-1.33a51,51,0,0,1-6.72-.59c9.82-6.14,27.48-20.18,24.51-40.35l-.24-1.58-1.57.28a27.13,27.13,0,0,1-6.75-.12c-1.57-.15-3.18-.31-4.75-.32,5.68-11,5.47-23.86-.8-29.77-2.88-2.71-9.3-5.94-20.76,1.28-1.16-19.24-6.61-31.29-16.22-35.84-10.23-4.84-24.37-.76-40.9,11.8-35.8,27.19-72.64,86.64-66.51,122.54l3.06-.53c-2.76-16.12,3.44-38.48,17.47-63C532,420.26,549.88,399.11,567,386.12c15.33-11.65,28.72-15.72,37.71-11.47s13.83,16.31,14.58,35.91l.11,2.87,2.33-1.66c8.24-5.87,15-7,19.15-3.1,5.66,5.32,5.13,18.33-1.14,28.41L638,439.92l3.32-.49a30.45,30.45,0,0,1,7,.15,40.41,40.41,0,0,0,6,.28c1.92,20.63-20.18,34.29-27.14,38l-4.63,2.51,5.24.4c1.31.11,2.73.29,4.24.49,2,.27,4.08.55,6.05.63.86,7.79-1.85,15.05-8.07,21.59-16.68,17.55-55.19,25.71-74.38,23.62l-.33,3.08A63.25,63.25,0,0,0,562.19,530.57Z"/><path class="cls-3" d="M427.6,618.1c.12,41-63.47,67.2-93.7,78.84,15.39,15.86,26.87,38.61,32.55,60.45,41.31-5.07,83.64-68.39,109.88-97Z"/><path class="cls-3" d="M319.1,588.26C319,625.76,313,648.51,287,675.15c14.36,9.84,28.9,21.41,45,26.58,26.3-28.89,66.33-52.25,84.63-87.46Z"/><path class="cls-2" d="M209,720.64l1.12,1.39a46.55,46.55,0,0,0,39.32,17.46c1,12-4.29,24.32-9.45,36.23a157.58,157.58,0,0,0-7,18.15L232,797l1,.12,2-2.06c4.51-4.72,9-9.88,13.26-14.87,6.22-7.21,12.64-14.65,19.44-21l-.09.34a1.18,1.18,0,0,1,2,.11h0l.11.06h0c-.06,0,.06,0,0,0h0a.39.39,0,0,0,.14,0h0l-.22,0a1.28,1.28,0,0,1,1.21,1.09c8.34,5.94,15.3,14.29,22.05,22.42a175.62,175.62,0,0,0,14,15.55l1.89,1.79.16-2.61c.84-13.92-2.33-29-5.4-43.63-.89-4.26-1.74-8.31-2.47-12.23,2.21-.58,4.46-1.19,6.63-1.78,12.16-3.3,24.73-6.72,37.2-6.79l4.48,0-3.88-2.25c-18.14-10.53-36.46-16-53.59-20.35-3.35-7.23-5-16.36-6.6-25.2-2-11.27-4.15-22.93-9.79-31.57l-1.82-2.79-.41,3.31c-2.53,20.71-8,41.55-12.33,55.64-18.48,1.92-36.31,5.4-50.3,9.82Zm4.18,1.25c13.77-4.18,31-7.46,48.87-9.27l.81-.08.24-.77c4.09-13.4,9.42-33.2,12.19-53.28,4.09,7.88,5.9,17.9,7.66,27.64,1.67,9.2,3.39,18.72,7,26.33l.25.51.55.14c15.93,4,32.9,9,49.74,18.11-11.3.71-22.53,3.76-33.42,6.72-2.54.69-5.15,1.4-7.71,2.07l-1.09.28.2,1.11c.77,4.3,1.7,8.73,2.69,13.42,2.83,13.49,5.75,27.41,5.46,40.27-4-4.06-7.83-8.64-11.83-13.44-7.84-9.44-15.95-19.2-26.32-25.35l-.78-.46-.67.61c-7.27,6.66-14.06,14.53-20.62,22.14-3.06,3.55-6.21,7.2-9.39,10.7,1.5-4.09,3.3-8.26,5.18-12.6,5.45-12.59,11.09-25.62,9.51-38.65l-.14-1.16-1.16.09A44.12,44.12,0,0,1,213.13,721.89Z"/><path class="cls-3" d="M472.07,309.31c7.55-48.44-11.16-103.46-51.33-151A278.38,278.38,0,0,0,338.08,92C305.14,74.77,270,65.46,236.42,65.08c-24.69-.27-45.27,6.26-61.22,19.43-14.25,11.75-23.94,28.33-28,47.94-4.82,23.16-1.45,48.23,9.49,70.59a108.08,108.08,0,0,0,55.67,52.86l1.26-3c-52.63-22.22-71.87-78.3-63.24-119.79,8.54-41.07,40.68-65.3,86-64.77,64.75.73,134.44,36,181.87,92.12,39.57,46.77,58,100.84,50.61,148.35Z"/><path class="cls-2" d="M420.42,590.52c-90.16,35.91-201.59,45.84-295.64-5.66-39.84-21.81-64.95-10-77.91-69a121.74,121.74,0,0,1-2.23-30.77c.11-2.36.24-4.72.44-7.1h0a345.55,345.55,0,0,1,5.46-37.52c1.62-8.41,3.32-16.54,4.8-24.15,1.05-5.41,2.15-11.2,3.26-17.33.37-2,.73-4,1.1-6.06,0,0,0,0,0-.06,4.34-24.31,8.8-52.83,11.76-80.23.49-4.58.94-9.15,1.35-13.63.19-2.22.38-4.43.55-6.61.11-1.35.21-2.69.3-4,.27-3.54.48-7.05.67-10.47a17.87,17.87,0,0,0,6.55-4.06c1.81-1.8,3.6-3.63,5.33-5.5a57.59,57.59,0,0,0,16.36-17.17c.69-1.07,1.36-2.15,2-3.25,2.12-3.67,4-7.44,5.94-11.24l2.1-4.23c.65-1.32,1.35-2.62,2-3.94a4.31,4.31,0,0,1,.26-.47c-.36.85-.52,1.2-.52,1.23.15-.22,1.33-2.72,2-4.12.11-.25.25-.48.37-.72a33.86,33.86,0,0,0,3-7.37,369.39,369.39,0,0,1,36.22-13.82h0c20.71-6.82,41.16-12.18,52.8-14.75,41-9,79.79-12.55,120.76-10.64h.06q11.1.5,22.44,1.56c33.29,3.09,60.43,11.71,86,27.11h0a245.16,245.16,0,0,1,33.51,24.63l1.63,1.41h0c19.4,16.85,30.41,27.63,32.76,50.91a110.57,110.57,0,0,1,.39,15.11v0h0v.57c-.15,3.55-.25,7.16-.33,10.83-.11,5.43-.16,11-.17,16.65,0,1.35,0,2.72,0,4.08,0,11,.11,22.29.19,33.81C506.49,455,504.17,557.17,420.42,590.52Z"/><path class="cls-5" d="M86.78,446.4c-8.6,18.54,14.61,19,13.14.24-10.64-6.74-17.15,3.92-13.22,12.52Z"/><path class="cls-6" d="M445,536.41c41.77-40.34-23.45-65.13-52-31.82C378.46,521.61,413.57,566.73,445,536.41Z"/><path class="cls-6" d="M107.84,518.68c42-14.87-13.24-64.76-40.41-45.57C52.19,483.88,35.8,544.17,107.84,518.68Z"/><path class="cls-5" d="M418.72,471.38c-8.6,18.53,14.61,19,13.14.23-10.63-6.74-17.15,3.93-13.22,12.53Z"/><path class="cls-3" d="M505.77,330.79c-32.66-6.93-68.49-23.54-87.21-47.83-30.58-39.63-23-59.74-86.61-47.72C256,249.57,154.67,312.45,73.35,292.41c.11-1.35.21-2.69.3-4,.27-3.54.48-7.05.67-10.47a17.87,17.87,0,0,0,6.55-4.06c1.81-1.8,3.6-3.63,5.33-5.5a57.59,57.59,0,0,0,16.36-17.17c.69-1.07,1.36-2.15,2-3.25,2.12-3.67,4-7.44,5.94-11.24l2.1-4.23c.65-1.32,1.35-2.62,2-3.94a4.31,4.31,0,0,1,.26-.47c-.36.85-.52,1.2-.52,1.23.15-.22,1.33-2.72,2-4.12.11-.25.25-.48.37-.72a33.86,33.86,0,0,0,3-7.37,369.39,369.39,0,0,1,36.22-13.82h0c20.71-6.82,41.16-12.18,52.8-14.75,41-9,79.79-12.55,120.76-10.64h.06q11.1.5,22.44,1.56c33.29,3.09,60.43,11.71,86,27.11h0a245.16,245.16,0,0,1,33.51,24.63l1.63,1.41h0c19.4,16.85,30.41,27.63,32.76,50.91a110.57,110.57,0,0,1,.39,15.11v0h0v.57c-.15,3.55-.25,7.16-.33,10.83-.11,5.43-.16,11-.17,16.65C505.78,328.06,505.77,329.43,505.77,330.79Z"/><path class="cls-1" d="M246.51,505.36c4.69,0,9.95-2.55,15.66-7.6L260,495.32c-5.67,5-10.84,7.32-14.95,6.67-3-.47-5.68-2.59-7.87-6.28l-2.8,1.66c2.71,4.57,6.13,7.2,10.17,7.84A12.39,12.39,0,0,0,246.51,505.36Z"/><path class="cls-4" d="M559.7,118.17a4.7,4.7,0,0,1,3.59,4.79q0,43.13,1.2,86t-1.2,86.48c-.16,2.24-1.91,4-5.27,5.15a24.23,24.23,0,0,1-11.13,1.08,22.74,22.74,0,0,1-11.37-4.79q-5.26-4.06-5.74-12.46.48-28.26.48-55.93t-.48-55.94l-2.87,3.12q-10.54,10.53-18.67,10.54a4.8,4.8,0,0,1,0-9.59q4.06,0,8.73-3.59a59.77,59.77,0,0,0,9.34-9.22,132,132,0,0,0,9.09-12.46q4.44-6.82,8.26-13.06t6.59-11a74.64,74.64,0,0,1,4.18-6.71,9.27,9.27,0,0,1,2.28-2A3.51,3.51,0,0,1,559.7,118.17Z"/><path class="cls-4" d="M588.19,253.13q-2.81,0-9.81-8.65t-7-11.47a6.84,6.84,0,0,1,2-4.56,5.76,5.76,0,0,1,4.32-2.22q1.41,0,3.51,3.51a43,43,0,0,1,2.1,4.68c.63,1.25,2.61,3,6,5.38s5,5.15,5,8.42c0,2.81-.47,4.33-1.4,4.56A21.35,21.35,0,0,1,588.19,253.13ZM599,292.9a27.49,27.49,0,0,1-8.19-.93q-4.9-1.64-4.9-6.09a9.26,9.26,0,0,1,1.4-4.56c.93-1.63,2-2.45,3.27-2.45q.22,0,7.25,4.44a13.07,13.07,0,0,0,6.78,2.34,11.6,11.6,0,0,0,3.74-1,11.72,11.72,0,0,1,3.5-1.05c1.09,0,1.64,1,1.64,3q0,4-4.56,5.14A39.42,39.42,0,0,1,599,292.9Zm-1.64-101.53a14.27,14.27,0,0,0,1.17,4.45,14.29,14.29,0,0,1,1.17,4.44,9.15,9.15,0,0,1-.94,4.33,3.38,3.38,0,0,1-3.27,1.75q-2.81,0-3.74-4.44a43.32,43.32,0,0,1-.94-8.89,38.86,38.86,0,0,1,1.41-10.76,18.52,18.52,0,0,1,4.67-8.19,9.15,9.15,0,0,1,4.33.94,3.38,3.38,0,0,1,1.75,3.27c0,.78-.94,2.66-2.81,5.62S597.31,189.35,597.31,191.37ZM685,293.84a41,41,0,0,1-5.85-.82,41,41,0,0,0-6.54-.82,25.3,25.3,0,0,0-6.66,1.29,25.1,25.1,0,0,1-6.2,1.28q-20.1,0-36.46-17.31T606.89,239.8q0-33.69,18-55.91,19.41-24.1,52.36-24.1,10.75,0,17.3,2.22t11.92,9.71l2.81.47q14.73,14.75,21,27.14A43.07,43.07,0,0,1,735.46,219q0,23.63-13.32,47.25Q706.47,293.84,685,293.84ZM624.89,163.53q-2.57,0-7.13-5.49T613.21,150a9.93,9.93,0,0,1,.7-2.93,13,13,0,0,1,1.17-2.69,28.88,28.88,0,0,1,9,6.55,13.43,13.43,0,0,1,3.63,9.36Q627.7,163.53,624.89,163.53Zm2.34,166.1c-.62-.62-1.25-1.28-1.87-2a3.09,3.09,0,0,1-.93-2l.93-3q1.64-4.68,3.27-9.12,2.8-6.09,6.55-6.08a7.19,7.19,0,0,1,2.92.82c1.17.54,1.75,1.13,1.75,1.75q0,.22-3.85,8.89t-3.63,9.83Zm29.92-155.57q-11,0-16.83,17.55A87.67,87.67,0,0,0,636.11,219q0,20.11,10.76,39.77,12.61,23.16,31.09,23.16,11.68,0,18-18a85.07,85.07,0,0,0,4.67-28.3,76.53,76.53,0,0,0-11.22-39.54Q676.32,174.06,657.15,174.06Zm-2.8-24.8-1.64-1.17a18.9,18.9,0,0,1-4.32-4.91,12.15,12.15,0,0,1-1.52-6.32,18.77,18.77,0,0,1,.58-4.79,2.6,2.6,0,0,1,2.69-2.22c2.34,0,4.13,2.06,5.38,6.2a39.13,39.13,0,0,1,1.87,11.11C657.39,148.56,656.37,149.26,654.35,149.26Zm37.63,3-3.51.47q-3.5,0-3.5-3.51,0-1.39,2.57-10.06,1.4-5.14,3-10.29a19.78,19.78,0,0,1,3.15,1.29,1.88,1.88,0,0,1,1.06,1.75,106.13,106.13,0,0,1-.7,13.57C693.62,149,692.92,151.22,692,152.3Zm7.95,172.89-4.91-.7-2.1-10.06a7.37,7.37,0,0,0-1.29-2,3.76,3.76,0,0,1-1-2,13.29,13.29,0,0,1,1.64-6.2c1.08-2.11,2.41-3.16,4-3.16a9.3,9.3,0,0,1,5.84,1.64q2.12,1.63,2.11,5.38c0,1.09-.67,4.13-2,9.12S700.08,324.87,699.93,325.19Zm36.23-167.74q-2.34,1.88-7.48,5.38a35.33,35.33,0,0,1-4,2.58q-3,0-3.74-5.39,7.47-8,8.88-9.12c2.49-2,4.59-3.12,6.31-3.27l3.27-.24.71,4.21a6.22,6.22,0,0,1-1.87,4A8.48,8.48,0,0,1,736.16,157.45Zm2.11,146.45q-4.46,0-7.37-6.55A29.59,29.59,0,0,1,728,285.42a8.88,8.88,0,0,1,.93-4.56c.63-1,1.79-1.53,3.51-1.53a5,5,0,0,1,3,1.06,14.35,14.35,0,0,1,2.81,2.92l-.71,3.51,2.69,8.07c1.48,4.45,2.22,6.82,2.22,7.14a1.5,1.5,0,0,1-1.28,1.52A11.35,11.35,0,0,1,738.27,303.9Zm34.36-113.23q-2.8,0-15.2,5.85-6.3,3-9.11,3a12.85,12.85,0,0,1-4.33-.7q-2-.71-2-4.21,0-4.92,4.9-5.62l8.19-1.17q6.76-1.86,13.79-3.74c3.11,0,4.67,1,4.67,3A7,7,0,0,1,772.63,190.67Zm-15,58q-6.09,0-8.89-1.29a4.11,4.11,0,0,1-2.8-3.86q0-4,1.28-5.5a4.51,4.51,0,0,1,3.63-1.52,17.75,17.75,0,0,1,3.86.71l5.84,1.52a41.69,41.69,0,0,1,4.32,1.28c2.18,1.1,3.28,2.42,3.28,4,0,1.87-1.1,3.12-3.28,3.74A26,26,0,0,1,757.67,248.69Z"/></g></g></svg>