<svg xmlns="http://www.w3.org/2000/svg" viewBox="0 0 832.5 832.5"><defs><style>.cls-1{fill:#e55747;}.cls-2{fill:#ffffc5;}.cls-3{fill:#deaa7c;}.cls-4{fill:#5e4440;}.cls-5{fill:#76b099;}</style></defs><g id="Layer_2" data-name="Layer 2"><g id="Layer_1-2" data-name="Layer 1"><rect class="cls-1" width="832.5" height="832.5"/><path class="cls-2" d="M703.85,525.82c-16.06,17.27-80.73,28.64-102.68,36.11-56.22,19.12-117,34-176,42-96.43,13.08-194.34,7.29-289.29,30L89.34,521.3l-.07-.18c1.55-1.89,2.87-5.86,4.1-11.14.19-.79.37-1.6.56-2.45v0c4-18.75,7.24-50.69,14.66-68.28,0,0,0,0,0,0a155.66,155.66,0,0,1,10.85-21.34c16-26,37.51-40.93,68.06-53.86a358.74,358.74,0,0,1,65.06-20.29q7.85-1.66,15.75-3c2.9-.51,5.79-1,8.7-1.45,14.67-2.24,29.41-3.79,44.23-4.84h0c36.57-2.59,73.54-2.11,110.72-1.64h0c4.31.05,8.61.11,12.93.15,11,.13,22.09.23,33.15.21,3.39,0,6.8,0,10.25,0H489c26.51.13,54.57,1.12,81.73,5.72a262,262,0,0,1,28.16,6.29,201.58,201.58,0,0,1,24.37,8.58q5.84,2.51,11.49,5.42a150.91,150.91,0,0,1,35.3,25.06c23.3,22.36,46.31,62.58,48,97.66C718.86,498.48,714.87,514,703.85,525.82Z"/><path class="cls-3" d="M34.86,519.81C103.51,535.37,108,620,107,686.39a62.31,62.31,0,0,0,60.5,63.27c87.25,2.5,174.57,3.44,260.07,6.7,57,2.18,118,2.22,172.06-8.13,14.71-2.83,60.55-10.13,69.91-16.3,24.7-16.27,16-46.66,16-76.61,0-65.38,14.82-106.54,58.49-159.64-41.09-34.58-64,2.76-98.57.2C617,493.79,555.23,441.07,545,499.65c-40.94-24.31-108.72-31.06-123.61,15.45C390.08,468,295,467.08,271.26,520c-46.36-24-116.87-58.83-148.78,2.56C85.76,493.76,34.86,519.81,34.86,519.81Z"/><path class="cls-3" d="M189.32,546.72c1.64-34.29-15.38-59-38.7-78.73a228.7,228.7,0,0,0-18.92-14.25c-7.54-5.13-15.34-9.94-23.1-14.54a155.66,155.66,0,0,1,10.85-21.34c8.78,6.71,17.54,13.65,26,20.91,5.7,4.91,11.26,10,16.54,15.2,24.93,24.62,44.11,52.9,47,87.15C202.06,544.38,195.78,545.68,189.32,546.72Z"/><path class="cls-3" d="M410.58,527.24c-3.83,2.38-12.4,1.64-16.94,2.35a308.87,308.87,0,0,0-17.25-45.18,315.13,315.13,0,0,0-39.47-62.66q-6.06-7.59-12.6-14.83a411.94,411.94,0,0,0-49.88-46.69q-8.38-6.72-17.17-13.12c-1.55-1.15-3.13-2.28-4.7-3.4q7.85-1.66,15.75-3c2.9-.51,5.79-1,8.7-1.45q7.34,5.06,14.85,10.67a488.52,488.52,0,0,1,51.77,44.19q6.69,6.63,13,13.47c27.31,29.71,48.52,62.65,53.51,94.76A87.57,87.57,0,0,1,410.58,527.24Z"/><path class="cls-3" d="M597.72,492.91c-6.86,4.51-15.67,7.27-23.65,8.74-9.44-22-20.5-45.25-33.72-67.44-2.74-4.62-5.59-9.21-8.53-13.71-19.18-29.41-42.52-56-71.25-73.8a160,160,0,0,0-20.77-10.86c-2.57-1.09-5.17-2.13-7.8-3.09,4.31.05,8.61.11,12.93.15,11,.13,22.09.23,33.15.21,3.39,0,6.8,0,10.25,0h0l.43-.21a2.25,2.25,0,0,1,.24.21c21.15,19.29,41.17,43.73,58.41,68.65q4.68,6.74,9.06,13.5C575.07,443.91,589.63,472.12,597.72,492.91Z"/><path class="cls-3" d="M711.75,500.48c-7.23,3.67-16.45,5.59-24.47,6a198.07,198.07,0,0,0-4.6-19.3c-12.9-44.53-41-86.64-76.21-119.63q-7.65-7.17-15.72-13.75-9.76-8-20-15a262,262,0,0,1,28.16,6.29,201.58,201.58,0,0,1,24.37,8.58q5.84,2.51,11.49,5.42c30.61,35.62,54.39,82.13,69.91,122C707.27,487.8,709.63,494.27,711.75,500.48Z"/><path class="cls-3" d="M321.25,334.39c-9.74,4.74-19.57,9.93-29.38,15.51-5.82,3.31-11.64,6.77-17.43,10.33-42,25.95-82.37,58.55-112.49,93.74q-6,7-11.33,14c-13.15,17.26-23.64,35-30.53,52.75A144.53,144.53,0,0,0,114.34,539c-6.07-2.26-19.07-11.6-25-17.66-.4-.4-.76-.79-1.09-1.16q2-5.13,4.52-10.26c.37-.79.76-1.56,1.16-2.35v0c9.2-18.24,22.58-36.43,37.77-53.77,4.44-5.07,9-10.06,13.71-15,16.86-17.66,35-34.17,51.57-48.63,22-19.12,41.31-31.76,60.29-43,3.7-2.18,7.38-4.31,11.05-6.43,2.9-.51,5.79-1,8.7-1.45C291.69,337,306.43,335.44,321.25,334.39Z"/><path class="cls-3" d="M488.33,333.12q-13.8,6.56-27.76,13.58c-35,17.68-70.44,37.7-103.92,60.86q-10,6.9-19.73,14.19c-38.3,28.65-73.33,61.84-101.42,100.82-32.78-21.23,19.57-68.67,88.82-115.65,6.32-4.29,12.78-8.57,19.32-12.83,31.94-20.77,66-41,96.16-58.25,1.72-1,3.43-2,5.13-2.94,11,.13,22.09.23,33.15.21C481.47,333.09,484.88,333.11,488.33,333.12Z"/><path class="cls-3" d="M623.27,353.71c-5.59,4.47-11.21,9.08-16.8,13.83a536.17,536.17,0,0,0-50,47.73c-5.59,6.17-11,12.48-16.13,18.94C512.7,469,492.68,508.12,490.06,551c-6.95-.59-29.53-6.79-34.9-9.53,21.8-46.67,47.65-85.1,76.66-121q7.65-9.47,15.6-18.73c13.84-16.15,28.3-31.95,43.33-48q4.05-4.32,8.15-8.66A201.58,201.58,0,0,1,623.27,353.71Z"/><path class="cls-4" d="M455,614.85c-5.7-6.63-12.37-10.06-21.69-14.88-4.45-2.29-9.49-4.9-15.32-8.3l.63-1.07c5.79,3.38,10.82,6,15.26,8.27,9.45,4.88,16.22,8.37,22,15.09,9-10.08,4-41.2-2.91-51.57l1-.71c6.5,9.79,12.8,42.24,2.68,53.21a63.76,63.76,0,0,1,8.7,15l.52,1.24q1.07,2.52,2.14,5.38c.93,2.51,1.87,5.11,2.78,7.62,4.47,12.39,9.1,25.2,16.44,35.66,2.69,3.83,6.69,7.45,10.55,10.94,3.54,3.2,6.93,6.27,8.92,9.22,6.74-16.42,15.75-31.88,24.51-46.89,1.36-2.34,2.74-4.7,4.12-7.09a4.57,4.57,0,0,1-.87-.46c-8.19-5.32-18.94-38.48-19.89-50.64-.1-1.3-.15-2.58-.15-3.85l-.25-.08c.1-.31.18-.62.26-.92a57.06,57.06,0,0,1,.8-8.33c-1.28-9.33-11-12.81-20.47-16.19-7-2.48-13.54-4.84-17-9.34l1-.78c3.28,4.24,9.7,6.53,16.5,9,8.53,3,17.86,6.39,20.61,14.4v0a145,145,0,0,1,5.63-18.38c3.34-9.4,6.8-19.12,6.81-29.49l1.22,0c0,10.59-3.5,20.41-6.89,29.91-1,2.77-2,5.56-2.89,8.4,5,1.07,10.7-.9,15.83-5.48l.22-.19c6.44-5.85,10.39-14.49,9.63-21.09l1.21-.17c.82,7.09-3.2,16-10,22.16l-.24.21c-5.46,4.88-11.63,7-17,5.75h0a89.57,89.57,0,0,0-2.82,11.29v0a22,22,0,0,1-.82,8.52v.06c0,1.48,0,3,.14,4.5,1,12.93,12,45,19.34,49.72a3.88,3.88,0,0,0,.83.43c2.68-4.66,5.36-9.36,7.92-14.09Q560,601,576.27,580.91l-.17,0c1.94-9-3.61-21.57-9-33.69l-1.66-3.76-.51-1.16C558.75,528,554.16,515,562.73,507.9l.76,1c-7.81,6.48-3.5,18.89,2.42,32.56,3.35-3.1,6.06-7.11,8.89-11.28s5.58-8.26,9.11-11.63l.82.9c-3.42,3.27-6.22,7.41-8.94,11.41-2.82,4.18-5.72,8.47-9.36,11.77h0c.59,1.35,1.19,2.7,1.8,4.07,5.12,11.53,10.4,23.43,9.36,32.65q4.67-5.62,9.33-10.43c.62-.63,1.23-1.26,1.85-1.88a105.22,105.22,0,0,1,23.82-18.3c.55-2.31-.26-2.81-1.29-3.43a3.9,3.9,0,0,1-1.51-1.36l1.07-.62a2.81,2.81,0,0,0,1.09.92c1.12.68,2.66,1.62,1.75,5l-.07.26-.24.14a101.44,101.44,0,0,0-22.33,16.79c10.26-2.13,18.41,1.36,26.34,4.75,2.57,1.1,5.1,2.19,7.66,3.07l.42-.69a14.31,14.31,0,0,0,14.76.6c4.62-2.64,7.32-7.61,7.42-13.64h1.22a17.47,17.47,0,0,1-5.44,12.8,14.53,14.53,0,0,1-2.62,1.91,17.12,17.12,0,0,1-1.83.89,28.05,28.05,0,0,0,5.7-1.31l.37,1.17c-11,3.71-19.7,0-28.16-3.65-8.22-3.53-16.71-7.16-27.53-4.24-14.81,14.81-29.69,36-44.45,63.24-2.47,4.56-5,9.11-7.64,13.6l-.73,1.29c-1.45,2.49-2.89,5-4.32,7.41-4,6.93-8.13,14-12,21.13,17.69,5.36,39,2.55,57-7.58a55.08,55.08,0,0,0,5.86-3.82l.23-.82c8.24-30.59,12-44.56,40.06-59.77l.56,1.09c-27.37,14.83-31.24,28.54-39.26,58.3,4-3.11,7.62-6.6,11.2-10,.63-.62,1.27-1.23,1.92-1.84l-.12-.14.94-.81.08.1c4.94-4.67,10.14-9.23,16.21-12.55,3.86-2.11,8.4-3.38,12.8-4.62,5-1.4,9.74-2.72,13-5.13l.7,1c-3.42,2.54-8.25,3.9-13.38,5.33-4.33,1.21-8.81,2.47-12.54,4.51-6,3.26-11.1,7.79-16,12.41l2.46,3c6.13,7.66,11.44,14.3,21.27,17.68l.67.23c.37.11.75.22,1.14.31,4.31,1,10.09.61,15.24.25s9.42-.67,11.66.39l-.54,1.12c-2-.93-6.37-.61-11.05-.28-4.85.35-10.23.73-14.56-.06,2.66,5.55,3.72,13.49,2.87,22.14l-1.22-.1c.88-8.92-.31-17-3.21-22.38l-.72-.22c-10.6-3.42-16.12-10.3-22.51-18.28-.78-1-1.58-2-2.4-3l-1.87,1.78c-5.75,5.5-11.69,11.19-18.89,15.22-18.42,10.34-40.15,13.18-58.19,7.63-2.23,4.11-4.39,8.27-6.42,12.49s-4,8.5-5.72,12.84l-.63,1.56q-.85,2.18-1.65,4.36c-2.42,6.65-4.4,13.54-6.25,20.35-.39-.07-.8-.12-1.2-.17,1.86-6.88,3.85-13.85,6.31-20.59.66-1.82,1.36-3.62,2.07-5.41-1.77-3-5.39-6.27-9.17-9.69s-8-7.2-10.73-11.14c-7.43-10.59-12.09-23.48-16.59-35.94-.9-2.51-1.84-5.1-2.78-7.6-.78-2.09-1.56-4-2.32-5.85-2.61,0-6,.27-9.85.51-16.22,1.07-38.42,2.52-43.44-6.41l1.06-.64c4.65,8.28,27.33,6.8,42.33,5.82,3.59-.23,6.8-.44,9.36-.5a61.75,61.75,0,0,0-8.24-14.12Z"/><path class="cls-1" d="M452.65,557.88c-13-3-6.46,22,4,16.33C465.79,569.19,456.7,558.82,452.65,557.88Z"/><path class="cls-1" d="M415.75,595.62c4.43,5.31,12.84,5.73,16,.68a6.77,6.77,0,0,0-5.45-10.3c-1.95-.08-3.88-.13-5.65-.17C415.58,585.74,412.52,591.76,415.75,595.62Z"/><path class="cls-1" d="M406.47,619.55c-6.29,1.57-5.31,11.07-2.81,17.48C428.45,645.15,423.72,615.22,406.47,619.55Z"/><path class="cls-1" d="M619.05,604.17c.78,13.59,17.22,6.75,16.82.76C635,591.78,618.42,593,619.05,604.17Z"/><path class="cls-1" d="M630.34,627.79s.16.84.6,2.87A8.4,8.4,0,0,0,641.71,637C658,631.75,637.36,606.1,630.34,627.79Z"/><path class="cls-1" d="M644.75,674.15l.18,1a6.47,6.47,0,0,0,7.77,5.27l.2,0c5.47-1.18,7.4-8.24,3.2-11.86-.37-.32-.75-.63-1.13-.92C650.33,664.08,643.73,668.34,644.75,674.15Z"/><path class="cls-1" d="M645.74,561.92l0,.13a5.44,5.44,0,0,0,8.13,3.6c3.07-1.84,4.52-4.91,4.21-8.75a5.26,5.26,0,0,0-7.38-4.45l-.15.07A8.45,8.45,0,0,0,645.74,561.92Z"/><path class="cls-1" d="M593.07,521.73c3-10.92-9.49-17.09-14.35-7.82C573.44,524,589.15,535.83,593.07,521.73Z"/><path class="cls-1" d="M616.2,553.6c5-3.58,5.14-10.27.77-12.81s-9.62.79-10,5.8a21.52,21.52,0,0,0-.07,2.27A5.87,5.87,0,0,0,616.2,553.6Z"/><path class="cls-1" d="M533.11,517.59s-18,2-5.7,15.36C542.12,534.1,544.48,517.67,533.11,517.59Z"/><path class="cls-1" d="M548.73,540.92h-.14a5.83,5.83,0,0,0-6,5.89,15.72,15.72,0,0,0,1.41,6.33c4.92-.68,7.83-1.89,9.19-4.37A5.31,5.31,0,0,0,548.73,540.92Z"/><path class="cls-1" d="M483.68,545.93c-7.54-.41-9.42,10.88-2.05,12.41,3.06.63,6.1-1,7.91-6.67C490.86,547.51,487.68,546.15,483.68,545.93Z"/><path class="cls-4" d="M226.88,653.39c-7.11-2.37-13.53-2-22.52-1.41-4.28.26-9.14.57-14.93.62v-1.07c5.75,0,10.6-.35,14.88-.62,9.11-.56,15.63-1,22.84,1.43,2.18-11.37-15.16-32.1-24.81-36.71l.44-1c9.09,4.34,28,25.48,25.36,38a54.74,54.74,0,0,1,13,7.21c.3.23.61.45.93.68q1.89,1.39,3.94,3c1.79,1.44,3.61,2.94,5.39,4.39,8.74,7.15,17.78,14.56,27.78,19,3.67,1.64,8.2,2.54,12.58,3.42,4,.79,7.86,1.56,10.62,2.86-2.25-15.06-2.4-30.41-2.55-45.32,0-2.33,0-4.68-.08-7a4.55,4.55,0,0,1-.84,0c-8.37-.31-30.86-20-36.9-28.55-.65-.91-1.25-1.83-1.8-2.77l-.22.06c-.07-.28-.14-.54-.22-.8a48.41,48.41,0,0,1-3.06-6.49c-5.05-6.31-13.74-4.59-22.2-2.91-6.23,1.23-12.11,2.39-16.65.61l.36-1c4.28,1.68,10,.54,16.09-.66,7.62-1.51,16-3.16,21.51,1.54v0a123.87,123.87,0,0,1-3.93-16c-1.67-8.39-3.39-17.08-7.94-24.72l.89-.56c4.64,7.81,6.39,16.58,8.07,25.07.49,2.47,1,5,1.56,7.46,4.12-1.4,7.49-5.37,9.26-11,0-.08.05-.16.07-.24,2.18-7.15,1.29-15.25-2.18-19.77l.82-.66c3.72,4.86,4.66,13.16,2.35,20.74,0,.08-.05.17-.08.26-1.88,6-5.52,10.23-10,11.72h0a74.09,74.09,0,0,0,2.89,9.57v0a18.75,18.75,0,0,1,3.14,6.64s0,0,0,0c.64,1.1,1.33,2.19,2.09,3.25,6.42,9.09,28.59,27.83,36.09,28.11a3.33,3.33,0,0,0,.8,0c-.07-4.61-.17-9.25-.36-13.86q-1.22-29.07,2-51l-.14,0c-2.54-7.52-12.14-14.3-21.42-20.86l-2.88-2-.88-.63c-10.82-7.77-19.92-15.34-16.73-24.34l1,.36c-2.9,8.21,5.72,15.45,16.09,22.92a54.36,54.36,0,0,0,1.59-12.23,60.19,60.19,0,0,1,1.61-12.57l1,.3A60,60,0,0,0,279,538.3c-.24,4.32-.5,8.76-1.73,12.79h0l3.12,2.21c8.83,6.24,17.95,12.68,21.24,19.93q1-6.19,2.28-11.79l.54-2.2a90.81,90.81,0,0,1,9.51-24c-.61-1.94-1.43-1.95-2.45-1.95a3.34,3.34,0,0,1-1.72-.34l.52-.93a2.25,2.25,0,0,0,1.2.2c1.13,0,2.68,0,3.51,3l.07.23-.12.2a87.07,87.07,0,0,0-9.07,22.2c6.62-6.09,14.16-7.1,21.49-8.09,2.38-.32,4.71-.64,7-1.11v-.7a12.26,12.26,0,0,0,11.13-6.05c2.24-4,2.05-8.83-.53-13.31l.9-.54a15,15,0,0,1,1.62,11.82,12,12,0,0,1-1.09,2.56,13.13,13.13,0,0,1-1,1.46,24.05,24.05,0,0,0,3.63-3.48l.78.7c-6.44,7.56-14.53,8.65-22.34,9.71-7.61,1-15.46,2.08-22.15,9-4.4,17.43-6.06,39.56-5,66.15.19,4.45.28,8.94.35,13.38,0,.43,0,.85,0,1.28,0,2.47.06,4.93.08,7.36.07,6.88.14,13.85.42,20.85,15.39-3.83,29.82-15.27,38.67-30.67a49,49,0,0,0,2.64-5.4l-.2-.69c-7.37-26.17-10.73-38.12,3.25-61.67l.89.56c-13.64,23-10.47,34.78-3.3,60.22,1.56-4,2.71-8.21,3.85-12.3l.6-2.2-.15,0,.34-1,.1,0c1.6-5.61,3.42-11.27,6.43-16.38a53.33,53.33,0,0,1,7.4-9c3.08-3.23,6-6.29,7.3-9.49l1,.42c-1.4,3.38-4.37,6.51-7.52,9.82a52,52,0,0,0-7.25,8.84c-3,5-4.76,10.62-6.33,16.18l3.15,1.16c7.88,3,14.7,5.5,23.43,3.66l.59-.13a8.94,8.94,0,0,0,1-.27c3.63-1.14,7.71-4,11.34-6.52s6.64-4.64,8.75-4.85l.1,1.07c-1.84.17-5,2.35-8.26,4.66s-7.21,5-10.75,6.36c4.39,2.91,8.67,8.3,11.84,15l-.94.47c-3.27-7-7.73-12.42-12.2-15.08l-.63.16c-9.31,2.15-16.4-.5-24.61-3.56L348.66,617l-.6,2.14c-1.82,6.58-3.7,13.38-7.23,19.53-9,15.72-23.79,27.37-39.51,31.22.16,4,.4,8,.76,12s.81,8,1.43,12c.07.48.14,1,.22,1.43.22,1.32.45,2.63.7,3.94,1.14,6,2.71,11.91,4.34,17.74-.32.12-.64.26-1,.41-1.66-5.89-3.25-11.9-4.4-17.95-.31-1.63-.59-3.26-.85-4.9-2.63-1.42-6.73-2.25-11-3.1s-9-1.8-12.79-3.48c-10.13-4.54-19.22-12-28-19.18-1.76-1.45-3.59-3-5.38-4.37-1.5-1.2-2.93-2.29-4.29-3.29-1.9,1.18-4.31,2.85-7,4.71-11.48,7.92-27.21,18.77-34.82,14.4l.5-.94c7.06,4,23.12-7,33.74-14.34,2.54-1.75,4.81-3.32,6.67-4.49a52.69,52.69,0,0,0-12.27-6.77Z"/><path class="cls-1" d="M200.15,612.44c-10.92,3.53,4.92,19.08,10.1,10.28C214.8,615,203.54,611.34,200.15,612.44Z"/><path class="cls-1" d="M189.55,656.48c5.6,2,12-1.43,12.07-6.54a5.8,5.8,0,0,0-8.54-5.18c-1.47.79-2.92,1.61-4.24,2.36C185.09,649.27,185.48,655.06,189.55,656.48Z"/><path class="cls-1" d="M193.23,678.18c-3.94,3.93,1,10.5,5.61,14.13C220.67,687.37,204,667.41,193.23,678.18Z"/><path class="cls-1" d="M343.07,573.3c6.54,9.67,15.65-2.61,12.72-6.84C349.35,557.17,337.7,565.36,343.07,573.3Z"/><path class="cls-1" d="M361.77,585.73s.48.55,1.7,1.85a7.19,7.19,0,0,0,10.7-.08C383.87,576.48,357.4,566.67,361.77,585.73Z"/><path class="cls-1" d="M385.62,640.35h0c11.4,21.55,16.57-15.92,2.33-4.59A6.21,6.21,0,0,0,385.62,640.35Z"/><path class="cls-1" d="M392.76,613.54l.56.66a5.55,5.55,0,0,0,8,.46l.13-.12a5.94,5.94,0,0,0-2.86-10.15c-.41-.07-.82-.13-1.24-.18C392.44,603.67,389.45,609.71,392.76,613.54Z"/><path class="cls-1" d="M344.16,530.44l.08.08a4.67,4.67,0,0,0,7.57-.93,7.52,7.52,0,0,0-.75-8.3,4.51,4.51,0,0,0-7.39,0,1,1,0,0,0-.08.11A7.28,7.28,0,0,0,344.16,530.44Z"/><path class="cls-1" d="M287.7,524c-2.56-9.39-14.49-8.42-14,.55C274.23,534.31,291,536.12,287.7,524Z"/><path class="cls-1" d="M318.75,537.31c2.1-4.84-.73-9.83-5.06-9.78s-6.75,4.82-4.83,8.68c.29.58.6,1.15.94,1.7A5,5,0,0,0,318.75,537.31Z"/><path class="cls-1" d="M241.72,547.34s-12.36,9.39,2.54,13.83C255.61,555.54,250.13,542.4,241.72,547.34Z"/><path class="cls-1" d="M263.47,557.65l-.1.06a5,5,0,0,0-1.83,7,13.61,13.61,0,0,0,3.83,4c3.32-2.67,4.93-4.84,4.84-7.26A4.55,4.55,0,0,0,263.47,557.65Z"/><path class="cls-1" d="M217.76,590c-5.73,3-2.16,12.16,3.94,10,2.53-.88,4.05-3.42,2.89-8.39C223.74,588,220.8,588.38,217.76,590Z"/><path class="cls-2" d="M775.36,694.83c5-3,9.84-6.17,14.37-9.18l1,1.24c-4.55,3-9.44,6.24-14.44,9.22Z"/><path class="cls-2" d="M755.52,698.54c3-1.85,5.91-3.79,8.78-5.67,5.75-3.76,11.7-7.66,17.91-11l.86,1.31c-6.15,3.32-12.07,7.2-17.8,11-2.87,1.88-5.84,3.83-8.8,5.68Z"/><path class="cls-2" d="M732.79,702.4a369.71,369.71,0,0,0,42.85-26l1,1.23a373.57,373.57,0,0,1-43,26.15Z"/><path class="cls-2" d="M712.41,707.14c18.25-9.3,36.56-20.31,50.22-30.23l1,1.2c-13.73,10-32.11,21-50.44,30.36Z"/><path class="cls-2" d="M688.37,712.79c14.8-4.33,29.47-15.32,42.42-25,3-2.25,5.85-4.38,8.61-6.36l1,1.21c-2.75,2-5.58,4.1-8.58,6.35-13.06,9.78-27.86,20.86-43,25.27Z"/><path class="cls-2" d="M663.81,720.14l1-1.22c.86.59,4.74.77,22-10.32,10.61-6.81,22.12-15.2,28.3-19.7,2.3-1.68,3.82-2.79,4.37-3.14l1,1.25c-.51.33-2.1,1.49-4.3,3.09C683.45,713.9,667.81,722.88,663.81,720.14Z"/><path class="cls-2" d="M638.82,726a1.51,1.51,0,0,1,.43-1.1,1.59,1.59,0,0,0,.4-.77l1.64,0a1.82,1.82,0,0,1-.14.81c9-5.51,17.43-12.45,25.61-19.16,7-5.7,14.13-11.59,21.64-16.62l1,1.24c-7.45,5-14.6,10.86-21.52,16.53-8.52,7-17.32,14.21-26.76,19.88l-.2.11h-.23c-.66,0-1.4,0-1.74-.58A1,1,0,0,1,638.82,726Z"/><path class="cls-2" d="M617.61,729c12.11-4.85,21.15-14.37,29.9-23.57,2.93-3.09,6-6.28,9-9.23l1.2,1.08c-3.06,2.92-6.08,6.09-9,9.17-8.86,9.32-18,19-30.46,24Z"/><path class="cls-2" d="M600.47,730.56c3.82-3,7.57-6.23,11.19-9.34a212,212,0,0,1,19.1-15.17l1,1.23a214.59,214.59,0,0,0-19,15.06c-3.64,3.13-7.4,6.36-11.24,9.39Z"/><path class="cls-2" d="M584.07,731.69c2.73-1.83,5.57-3.89,8.94-6.49,4.09-3.15,8.06-6.56,11.91-9.87,4.29-3.68,8.73-7.5,13.36-11l1.05,1.19c-4.58,3.44-9,7.24-13.27,10.91-3.86,3.32-7.86,6.75-12,9.92-3.39,2.62-6.26,4.7-9,6.55Z"/><path class="cls-2" d="M562.62,736.13c12.08-9.24,23.55-19.06,34.13-28.29L597.9,709c-10.61,9.25-22.09,19.09-34.21,28.36Z"/><path class="cls-2" d="M544.49,738.55c2.91-2.27,5.79-4.48,9.21-7.1l2.42-1.85c9.94-7.62,20.23-15.5,29.81-23.79l1.14,1.12c-9.61,8.32-19.92,16.22-29.88,23.85l-2.42,1.85c-3.42,2.62-6.29,4.83-9.2,7.1Z"/><path class="cls-2" d="M532.4,740.08c2.16-1.77,4.44-3.75,7-6.06s5.2-4.95,7.7-7.41a172.75,172.75,0,0,1,13.23-12.18l1.1,1.16a175.32,175.32,0,0,0-13.12,12.07c-2.5,2.48-5.09,5-7.74,7.45s-4.85,4.34-7,6.12Z"/><path class="cls-2" d="M511.76,744.26c2.57-1.92,5.29-4.08,8.32-6.59,3.41-2.84,6.81-5.8,10.1-8.67,5.88-5.14,12-10.45,18.39-15.23l1,1.2c-6.38,4.73-12.44,10-18.3,15.14-3.29,2.88-6.7,5.86-10.12,8.7-3.05,2.54-5.79,4.71-8.39,6.64Z"/><path class="cls-2" d="M497.51,745c2.59-1.87,5.27-4,8.18-6.39,4.54-3.78,8.94-7.85,13.2-11.78s8.87-8.18,13.54-12.07l1.12,1.15c-4.64,3.85-9.13,8-13.48,12s-8.69,8-13.26,11.84c-2.94,2.45-5.64,4.56-8.27,6.45Z"/><path class="cls-2" d="M474.66,748.42c6.15-3.85,12-8.26,17.57-12.53,4.5-3.41,9.14-6.95,14-10.24l1,1.24c-4.85,3.27-9.48,6.79-13.95,10.19-5.64,4.29-11.48,8.72-17.69,12.61Z"/><path class="cls-2" d="M453.35,751.34c3-1.82,5.93-3.75,9.06-5.91A256.61,256.61,0,0,0,492.76,721L494,722.1a259.62,259.62,0,0,1-30.53,24.56c-3.16,2.17-6.14,4.12-9.13,6Z"/><path class="cls-2" d="M442.26,753.56c7-5.23,13.68-11.09,20.11-16.75,3.81-3.35,7.74-6.82,11.72-10.13l1.12,1.15c-4,3.29-7.89,6.75-11.69,10.09-6.45,5.69-13.12,11.57-20.21,16.84Z"/><path class="cls-2" d="M432.45,754.51c10.05-8.85,19.08-16.86,27.8-25.27l1.2,1.07c-8.74,8.43-17.78,16.45-27.84,25.32Z"/><path class="cls-2" d="M419.72,756.05c1.79-1.6,3.65-3.43,5.7-5.6s4.19-4.63,6.18-6.94a117.54,117.54,0,0,1,12-12.56l1.14,1.13a113.72,113.72,0,0,0-11.87,12.4c-2,2.33-4.09,4.72-6.23,7s-4,4.06-5.79,5.68Z"/><path class="cls-2" d="M409.07,752.75c4.17-3.55,8.26-7.18,12.25-10.73s7.89-7,11.91-10.46l1.14,1.13c-4,3.43-8,7-11.89,10.44-4.31,3.83-8.72,7.75-13.23,11.57Z"/><path class="cls-2" d="M409.43,756.7c49.39-6.27,98.5-13.18,146.87-20,19.46-2.74,39.59-5.57,59.34-8.31,26.64-3.69,52.76-10.31,78-16.71,15.63-4,31.79-8.05,48-11.42,5.37-1.13,11.35-1.8,17.13-2.44,10.8-1.22,22-2.47,29.14-6.7l1.22,1.72c-7.58,4.47-19,5.75-30,7-5.73.64-11.65,1.3-16.92,2.4-16.12,3.37-32.26,7.46-47.87,11.41C669,720.06,642.8,726.7,616,730.4c-19.76,2.74-39.88,5.57-59.34,8.31-48.43,6.82-97.61,13.74-147.07,20C409.56,758.05,409.49,757.37,409.43,756.7Z"/><path class="cls-2" d="M747,701a1.13,1.13,0,0,1,.23-.9l1.36.89a.31.31,0,0,0,0-.33c.59.63,5.21,1.31,8,1.71,1.36.2,2.64.39,3.75.58,19.47,3.47,35,3.78,47.51,1l.43,1.47c-12.73,2.87-28.5,2.56-48.2-.94-1.09-.2-2.36-.38-3.7-.58-6-.87-8.64-1.38-9.22-2.58A1.61,1.61,0,0,1,747,701Z"/><path class="cls-2" d="M736.63,703.22l.68-1.37c15.74,7,33.7,9,51.07,11,3,.34,6.12.7,9.17,1.07l-.17,1.51c-3-.38-6.15-.73-9.15-1.07C770.72,712.35,752.62,710.29,736.63,703.22Z"/><path class="cls-2" d="M725.38,706.32l.38-1.47c3.28.8,6.81,1.83,10.79,3.15,3.72,1.23,7.46,2.58,11.08,3.89,8.62,3.12,17.55,6.34,26.73,8.09l-.29,1.49c-9.32-1.78-18.31-5-27-8.17-3.61-1.3-7.34-2.65-11-3.87C732.1,708.13,728.62,707.11,725.38,706.32Z"/><path class="cls-2" d="M716.57,708.41l.6-1.4c4.61,1.79,9.32,3.48,13.32,4.89,7.68,2.71,15.86,5.48,26.51,9,5.37,1.77,9.89,3.25,14.5,4.73l-.49,1.43c-4.62-1.47-9.15-3-14.53-4.73-10.66-3.52-18.84-6.3-26.54-9C725.93,711.9,721.2,710.21,716.57,708.41Z"/><path class="cls-2" d="M705.31,711.26l.61-1.4a6.07,6.07,0,0,0,1.27.35,10.29,10.29,0,0,1,1.39.33l.08,0c9.64,4,19.34,7.28,28.73,10.48,6.32,2.16,12.85,4.39,19.36,6.82l-.58,1.41c-6.48-2.42-13-4.65-19.31-6.8-9.4-3.21-19.11-6.53-28.8-10.51a8.77,8.77,0,0,0-1.15-.27A8.35,8.35,0,0,1,705.31,711.26Z"/><path class="cls-2" d="M693.82,714.51l.42-1.46c9.59,2.61,19,5.78,28.1,8.85,5.11,1.72,10.39,3.5,15.6,5.14l-.49,1.44c-5.23-1.65-10.52-3.43-15.63-5.15C712.74,720.27,703.36,717.11,693.82,714.51Z"/><path class="cls-2" d="M677.09,717.79l.57-1.41c3.64,1.37,7.2,2.65,10.6,3.83a280,280,0,0,0,37.94,10.51l-.29,1.49a280.8,280.8,0,0,1-38.19-10.58C684.31,720.45,680.74,719.16,677.09,717.79Z"/><path class="cls-2" d="M665.26,720.29l.42-1.46c10.49,2.82,20.88,6.55,30.93,10.15,6.83,2.45,13.89,5,21,7.22l-.5,1.44c-7.1-2.26-14.18-4.79-21-7.24C686,726.81,675.68,723.09,665.26,720.29Z"/><path class="cls-2" d="M656.13,723.22l.56-1.42c3.07,1.11,6.32,2.33,10.22,3.84,2.83,1.09,5.66,2.2,8.49,3.31,9,3.51,18.22,7.15,27.52,10.2l-.51,1.43c-9.35-3.07-18.64-6.71-27.62-10.23-2.82-1.11-5.65-2.22-8.48-3.31C662.42,725.54,659.19,724.32,656.13,723.22Z"/><path class="cls-2" d="M649.56,725.64l.75-1.33c17.4,8.72,31.77,14.77,45.22,19l-.49,1.44C681.5,740.49,667,734.41,649.56,725.64Z"/><path class="cls-2" d="M639.82,728.06a1.77,1.77,0,0,1,0-.23.81.81,0,0,1,.76-.73,3,3,0,0,1,2,.87c.34.11.75.24,1.26.38,8.83,2.49,21.52,9,31.72,14.3,4.19,2.17,7.81,4,10.41,5.23l-.69,1.36C682.65,748,679,746.15,674.8,744c-10.12-5.23-22.73-11.74-31.38-14.17-.5-.14-.92-.27-1.29-.39l-.33.11a1.73,1.73,0,0,0-.15-.27C640.23,728.76,639.88,728.41,639.82,728.06Z"/><path class="cls-2" d="M629.59,728.39l.74-1.33c5.88,2.92,11.54,6.08,17,9.13,7.19,4,14,7.82,21.24,11.12l-.69,1.36c-7.32-3.33-14.14-7.15-21.37-11.18C641.06,734.45,635.43,731.3,629.59,728.39Z"/><path class="cls-2" d="M616.82,730.66l.84-1.29c10.88,6.28,22.53,11.54,34.52,16.81l-.67,1.37C639.48,742.26,627.77,737,616.82,730.66Z"/><path class="cls-2" d="M608.06,731.54l1-1.2a210.57,210.57,0,0,0,36,20.36l-.68,1.37A213,213,0,0,1,608.06,731.54Z"/><path class="cls-2" d="M599.2,732.89l.92-1.24c2.34,1.53,4.7,3.11,7,4.64,8.88,6,18.07,12.13,28.42,15.93l-.57,1.41c-10.55-3.87-19.82-10.1-28.79-16.12C603.88,736,601.53,734.41,599.2,732.89Z"/><path class="cls-2" d="M582,735.17l.84-1.28c2.54,1.45,5,3,7.52,4.52l.57.35c8.43,5.22,17.14,10.61,27,12.84l-.35,1.47c-10.19-2.29-19-7.76-27.58-13.05l-.57-.35C587,738.12,584.54,736.61,582,735.17Z"/><polygon class="cls-2" points="540.19 741.29 541.08 740.04 571.26 758.83 570.37 760.08 540.19 741.29"/><path class="cls-2" d="M525.21,743.23l1-1.17c8.19,6.11,17.22,11.42,26,16.56l5.93,3.5-.86,1.27-5.92-3.49C542.55,754.74,533.47,749.4,525.21,743.23Z"/><path class="cls-2" d="M515.48,744.73l1.21-1c10,10.26,18.53,16.91,27.76,21.56l-.75,1.33C534.29,761.88,525.59,755.13,515.48,744.73Z"/><path class="cls-2" d="M499.69,746.14l1.29-.92a125.86,125.86,0,0,0,12.58,12.28C518.62,762,523.85,766.64,528,772l-1.33.85c-4-5.25-9.21-9.85-14.21-14.29A129.09,129.09,0,0,1,499.69,746.14Z"/><path class="cls-2" d="M488,748.17l1.47-.63c5,9.56,11.27,20.06,22,23.7l-.53,1.43C499.57,768.82,493.11,758,488,748.17Z"/><path class="cls-2" d="M476.83,749.11l1.45-.68c4.23,7.36,9.67,14.19,15.35,21.11l-1.3.9C486.61,763.46,481.12,756.57,476.83,749.11Z"/><path class="cls-2" d="M464.54,751l1.44-.7a51.64,51.64,0,0,0,19.58,18.92l-.81,1.3A53.37,53.37,0,0,1,464.54,751Z"/><polygon class="cls-2" points="452.68 752.3 453.8 751.22 471.02 766.58 469.9 767.66 452.68 752.3"/><path class="cls-2" d="M447.59,754.47l1.44-.69a60.9,60.9,0,0,0,8.42,11.5c2.63,2.76,6.19,6,10.37,6.42l-.13,1.51c-4.76-.48-8.63-4-11.46-7A62.36,62.36,0,0,1,447.59,754.47Z"/><path class="cls-2" d="M429.9,755.39l1.23-1c1.82,2,3.83,3.9,5.77,5.78,4.11,4,8.36,8.11,11.4,12.83l-1.41.75c-2.94-4.57-7.12-8.63-11.17-12.55C433.77,759.34,431.74,757.37,429.9,755.39Z"/><path class="cls-2" d="M420,757.7l1.41-.74c4,6.24,8.9,14,16.14,18.86l-.94,1.22C429.06,772,424,764.07,420,757.7Z"/><path class="cls-2" d="M409.61,758.58l.75-.21C413,765.58,418,772,422.93,777.89l-1.28.91c-4.45-5.25-8.89-11-11.75-17.32C409.8,760.52,409.7,759.55,409.61,758.58Z"/><path class="cls-2" d="M638.72,725.28a16.58,16.58,0,0,1-2.85-6,24.16,24.16,0,0,1-.72-4.37,34.07,34.07,0,0,1,0-4.64l.36.42c2.9-2.05,10.56-5,17.31-7.6,2.61-1,5.06-2,7.06-2.77l-.7-1.39c-2,.81-4.43,1.76-7,2.75-6.34,2.44-13.46,5.18-16.91,7.29h0c.09-1,.22-2.1.4-3.19.1-.6.2-1.21.32-1.82q.49-2.52,1.25-5.23c5.41-.77,10.8-1.73,16.06-2.66l7.36-1.28-.33-1.49c-2.47.41-4.93.85-7.38,1.28-5,.88-10.11,1.78-15.24,2.54.19-.6.38-1.2.58-1.81s.34-1,.52-1.56.38-1,.57-1.59h0c5.11-.75,10.17-1.89,15.11-3,7.44-1.69,15.14-3.42,22.95-3.81l-.13-1.52c-8,.39-15.74,2.15-23.25,3.85-4.6,1-9.32,2.11-14.06,2.85.8-2.09,1.7-4.21,2.67-6.37l.39-.84.83-.15c13.31-2.37,26.44-5.53,37.68-8.37l-.47-1.46c-11.13,2.8-24.09,5.93-37.25,8.28q1.7-3.55,3.65-7.19l.46-.84.79-.13c9-1.61,22.9-4.48,31.37-6.65l-.48-1.47C673.29,667,664,669,655.91,670.58l-1.64.32c-1.91.37-3.73.71-5.4,1q1.49-2.64,3.07-5.28c.31-.53.64-1.06,1-1.58.19-.3.36-.6.55-.9,10.53-2.34,25.36-4.63,35.74-5.75l-.24-1.51c-7.67.82-17.82,2.29-27,4l-1.67.31c-2,.38-3.9.76-5.72,1.15,1-1.64,2.12-3.29,3.22-4.92l.3-.44,1.2-.15,36.57-4.74-.27-1.51-36.35,4.71c2-2.86,4-5.69,6.12-8.46l-.13.42c6.83,1.94,17.84.1,27.55-1.52,4.23-.7,8.22-1.37,11.36-1.63l-.19-1.51c-3.22.26-7.24.93-11.51,1.65-9.33,1.55-19.88,3.31-26.36,1.65,2.21-2.89,4.48-5.71,6.78-8.43.13.49.54.57,1,.56h0l.15,0,.3,0,2.6-.35c2.37-.32,4.78-.67,7.1-1,8.73-1.26,17.75-2.57,26.67-2.47l0-1.52c-9.06-.1-18.15,1.22-26.95,2.49-2.32.34-4.72.69-7.08,1l-1.51.21-.15,0h0l-1.1.15-.15,0h0c1.61-1.87,3.22-3.7,4.85-5.47h0c.29-.06.63-.14,1-.25l2.79-.75c1.46-.4,3-.81,3.56-1,10-2.22,20-3.66,31.85-5.14l-.27-1.5c-11.91,1.48-21.92,2.93-32,5.16-.63.15-2.1.55-3.65,1l-1.35.37c2.22-2.35,4.45-4.57,6.66-6.66l41.09-5.32-.27-1.51-38.86,5h0c1.73-1.57,3.45-3.05,5.15-4.42h0l1-.15c6.1-1,12.51-2.37,18.71-3.72,5.58-1.21,11.34-2.47,16.91-3.42l-.34-1.5c-5.61,1-11.39,2.22-17,3.44-5.32,1.16-10.8,2.35-16.1,3.28l-.16-.27h0c1.64-1.21,3.25-2.32,4.83-3.31l.13.21c8.39-4.54,21.35-9.51,35.53-13.66l-.54-1.45a238.3,238.3,0,0,0-27.61,9.82h0l-.38-.83a44.1,44.1,0,0,0-8.47,4.32c2.78-8.73,10.17-16.25,16.2-22.38l-1.23-1c-6.55,6.67-14.68,14.93-17.07,24.79h0a98.63,98.63,0,0,0-9.57,7.52h0c.13-.94.26-1.87.39-2.78,1.42-10.17,2.54-18.19,8.2-26.09l-1.37-.87c-5.88,8.18-7,16.37-8.46,26.72-.21,1.53-.43,3.1-.67,4.73h0c-1.35,1.23-2.69,2.51-4,3.84h0c-1.2-9.84-2.2-18.38-.31-27.63l-1.62-.32c-2,9.61-.89,18.38.35,28.53l.11.89h0c-1.7,1.71-3.4,3.5-5.09,5.35-3.25-7.82-4.25-18-2.65-27.53l-1.63-.27a56.78,56.78,0,0,0,.11,19.21,44.13,44.13,0,0,0,3,9.9q-3,3.35-6,6.94h0c-2.34-9.63-4.5-20-6.78-32.53L661,606l.05.27c2.36,13,4.61,23.67,7.06,33.63q-2.35,2.91-4.65,5.93c-.23-1.41-.46-2.89-.7-4.43-1.44-9.38-3.23-21-9.29-28.37l-1.3.9c5.79,7,7.55,18.44,9,27.64.33,2.14.65,4.17,1,6.05h0c-1.57,2.11-3.11,4.26-4.61,6.42-1.26-2-2.49-3.92-3.7-5.85-2.45-3.88-5-7.9-7.58-11.76-.65-1-1.28-1.76-1.85-2.47a12.89,12.89,0,0,1-2.79-4.82l-1.59.37a14.36,14.36,0,0,0,3.07,5.34c.57.71,1.16,1.45,1.78,2.36,2.59,3.84,5.11,7.84,7.54,11.71,1.36,2.16,2.74,4.35,4.15,6.54l-.12.18-1.14,1.69q-1.84,2.77-3.6,5.57a60,60,0,0,0-12.77-16.39,30.58,30.58,0,0,0-2.87-2.22,12.86,12.86,0,0,1-4.23-4l-1.43.7a14.53,14.53,0,0,0,4.68,4.55,27.49,27.49,0,0,1,2.72,2.09,58.14,58.14,0,0,1,12.31,15.77q.32.54.63,1.11l-.23.38c-1.27,2.07-2.48,4.15-3.64,6.22-5.46-7.25-11.38-14.85-18.75-24.07l-1.31.88c7.53,9.43,13.55,17.16,19.11,24.55,0,.06.08.1.11.15l-.82,1.52c-1.29,2.4-2.5,4.8-3.61,7.15-7.17-6.61-16-17.82-19.59-25.11l-1.49.58c3.59,7.41,12.57,18.76,19.88,25.54l.51.46-.49,1.09c-1.09,2.42-2.08,4.8-2.94,7.13-.18.46-.35.93-.52,1.39-.46-.39-.92-.77-1.38-1.17-7.18-6.11-14-13-18-21.71l-1.51.57c4,8.56,10.5,15.41,17.48,21.46l1.5,1.28,1.36,1.13h0c-.33,1-.63,1.91-.91,2.85l-.24.78c-.15.55-.3,1.08-.44,1.61-.29,1.08-.55,2.14-.78,3.17-1-.89-2-1.79-3-2.7l-1.15-1.06c-6.15-5.75-11.87-11.91-14.51-19.63l-1.57.42c3.38,9.87,11.44,17.15,19.23,24.18l.62.57a47.09,47.09,0,0,0-.85,7.39A158.12,158.12,0,0,0,618,693.72l-1.23,1c5.85,6.28,11.5,12.53,16.12,19.65a25.78,25.78,0,0,0,.4,3.51,19.61,19.61,0,0,0,3.66,8.58Z"/><path class="cls-2" d="M565.33,737.72a12.87,12.87,0,0,0,1.4,5.08,21.92,21.92,0,0,0,1.92,3.14,31.25,31.25,0,0,0,2.51,3v-.43c3,.08,9.55-1.32,15.33-2.55,2.23-.47,4.33-.92,6.07-1.25l.31,1.2c-1.73.33-3.82.77-6,1.25-5.43,1.15-11.52,2.45-14.9,2.57h0c.63.63,1.29,1.26,2,1.89.39.35.79.69,1.2,1,1.13.94,2.34,1.89,3.65,2.84,3.92-1.83,7.92-3.54,11.83-5.2l5.46-2.35.59,1.11q-2.73,1.2-5.47,2.35c-3.71,1.59-7.5,3.21-11.23,4.93.45.31.9.62,1.36.92l1.19.78c.41.27.81.52,1.23.78h0c3.72-1.72,7.61-3.16,11.41-4.57,5.73-2.12,11.65-4.31,16.91-7.43l.73,1c-5.35,3.18-11.33,5.39-17.12,7.53-3.54,1.31-7.16,2.65-10.64,4.22q2.49,1.5,5.2,3l.71.38.62-.26c9.89-4.2,20.1-7.82,28.91-10.83L621,753c-8.72,3-18.8,6.55-28.58,10.7,2,1,4.11,2.07,6.27,3.07l.75.34.59-.25c6.72-2.86,17.23-7,23.89-9.22l.49,1.16c-5,1.67-12.07,4.38-18.14,6.84l-1.24.5c-1.44.59-2.8,1.15-4,1.68q2.4,1.06,4.86,2.09l1.49.61.84.34a284.37,284.37,0,0,0,26.23-11.68l.67,1.07c-5.41,2.78-12.77,6.21-19.59,9.06-.42.17-.83.35-1.25.51-1.48.61-2.93,1.19-4.32,1.72q2.36.93,4.76,1.8l.43.15.86-.41,26.22-12.7.64,1.09-26,12.62c2.83,1,5.69,2,8.56,2.83l-.31-.21c3.36-4.2,11.47-7.76,18.63-10.89,3.11-1.37,6-2.66,8.23-3.85l.7,1.07c-2.23,1.21-5.19,2.51-8.34,3.89-6.88,3-14.65,6.43-17.94,10.29,3,.91,6,1.76,9,2.52-.18-.37,0-.6.32-.77h0l.11-.06.21-.1,1.88-.9c1.69-.81,3.44-1.62,5.13-2.41,6.33-2.94,12.87-6,18.58-9.89l.81,1c-5.79,4-12.39,7-18.77,10L638.39,779l-1.08.52-.12.05h0l-.8.37-.11,0h0c2.06.52,4.1,1,6.11,1.45h0c.21-.09.48-.18.8-.28l2.21-.71c1.16-.38,2.36-.76,2.82-.93,7.68-2.88,14.9-6.24,23.38-10.4l.65,1.09c-8.51,4.17-15.77,7.55-23.5,10.45-.49.18-1.65.55-2.89.95l-1.07.34c2.72.56,5.37,1,7.93,1.43l29.46-14.27.64,1.09L655,783.75h0c2,.27,3.9.48,5.74.63h0l.72-.32c4.47-2,9.38-3.87,14.12-5.67,4.26-1.61,8.67-3.29,12.79-5.07l.59,1.11c-4.14,1.8-8.57,3.48-12.85,5.1-4.07,1.55-8.26,3.14-12.19,4.82l0,.24h0c1.72.08,3.37.1,4.92.06l0-.19c7.89-.69,19-3.05,30.39-6.48l.45,1.16a193.29,193.29,0,0,1-23.19,5.56h0l.21.7a40.29,40.29,0,0,1-7.83.86c6.56,4.44,15.42,6.11,22.66,7.47L691.3,795c-7.87-1.49-17.62-3.33-24.53-8.67h0a95,95,0,0,1-10.28-.74h0l1.77,1.63c6.45,6,11.55,10.67,19.51,13.33l-.42,1.15c-8.25-2.76-13.44-7.55-20-13.63l-3-2.76h0c-1.54-.22-3.11-.47-4.7-.74h0c4.57,6.87,8.58,12.82,14.84,18l-.87.9c-6.51-5.36-10.59-11.49-15.31-18.59l-.41-.62h0q-3.06-.56-6.22-1.26c2.16,6.46,7,13.44,13.28,18.94l-.9.87a52.14,52.14,0,0,1-10.39-12.47,36.74,36.74,0,0,1-3.47-7.67q-3.76-.87-7.64-1.91h0c3.73,7.23,8,14.88,13.33,23.95l-1.16.56-.12-.2c-5.53-9.39-9.91-17.29-13.74-24.78-2.07-.57-4.15-1.19-6.23-1.83.61,1,1.27,2.07,1.95,3.17,4.18,6.68,9.38,15,9.45,22.34l-1.33,0c-.07-7-5.17-15.18-9.26-21.73-1-1.53-1.86-3-2.65-4.33h0c-2.16-.69-4.32-1.42-6.47-2.17.25,1.81.52,3.61.79,5.38.54,3.56,1.09,7.24,1.51,10.86.1.91.13,1.7.14,2.39a9.78,9.78,0,0,0,.82,4.32l-1.22.45a10.84,10.84,0,0,1-.93-4.77,21.37,21.37,0,0,0-.13-2.29c-.42-3.6-1-7.27-1.5-10.82q-.45-3-.89-6l-.17-.06-1.65-.6c-1.81-.67-3.6-1.35-5.37-2.06a42.87,42.87,0,0,1,.68,16.1,19.87,19.87,0,0,1-.65,2.68,9,9,0,0,0-.53,4.44l-1.3.16a10,10,0,0,1,.54-5,17.86,17.86,0,0,0,.62-2.52,41.86,41.86,0,0,0-.62-15.5q-.1-.48-.21-1l-.35-.14q-2.93-1.2-5.74-2.46c.42,7,.73,14.51,1,23.64h-1.33c-.26-9.34-.58-16.93-1-24.11v-.14l-1.36-.63c-2.14-1-4.23-2-6.23-3.07-1,7.37-.67,18.44,1,24.68l-1.29.26c-1.71-6.33-2.09-17.54-1-25.07,0-.17,0-.35.07-.52l-.91-.49c-2-1.09-3.95-2.2-5.78-3.34-.37-.22-.73-.45-1.09-.68-.09.45-.17.9-.25,1.35-1.32,7-1.92,14.44.19,21.79l-1.29.28c-2.08-7.25-1.6-14.48-.38-21.4l.27-1.47c.09-.44.17-.88.26-1.32h0c-.73-.48-1.44-1-2.14-1.45l-.57-.4-1.16-.85c-.79-.57-1.53-1.15-2.24-1.72q-.24,1.51-.45,3c-.06.4-.11.79-.17,1.19-.84,6.36-1.18,12.81,1.31,18.94l-1.24.4c-3.19-7.84-1.95-16-.74-23.92l.09-.63a45.09,45.09,0,0,1-4.57-4.41,111,111,0,0,1,0,17.86l-1.32-.1a102.32,102.32,0,0,0-.28-19.64,24.63,24.63,0,0,1-1.66-2.45,15.5,15.5,0,0,1-2.3-7.12Z"/><path class="cls-2" d="M571.51,665.84c1.8-5.76,3.37-11.66,4.79-17.18l1.71.44c-1.43,5.54-3,11.46-4.81,17.26Z"/><path class="cls-2" d="M558.28,681.83c1-3.49,2-7.07,2.88-10.54,1.84-7,3.75-14.16,6.27-21.06l1.67.59c-2.5,6.83-4.4,14-6.23,20.92-.92,3.47-1.88,7.07-2.89,10.58Z"/><path class="cls-2" d="M542.83,699.83a360.16,360.16,0,0,0,15.26-50.11l1.72.4a363.77,363.77,0,0,1-15.32,50.33Z"/><path class="cls-2" d="M529.93,717.05c7.82-19.79,14.42-41.1,18.09-58.47l1.72.37c-3.68,17.45-10.3,38.86-18.16,58.72Z"/><path class="cls-2" d="M534.37,677.83l-1.73-.38c-.75,3.49-1.47,7.15-2.22,11-2.15,11-4.49,23-8.33,33.72l2-.32c3.7-10.57,6-22.27,8.08-33C532.9,685,533.62,681.3,534.37,677.83Z"/><path class="cls-2" d="M521.49,694.53l-1.71-.46c-.18.66-.58,2.59-1.2,5.53-1.17,5.6-3.06,14.65-5.32,24l1.86-.29c1.62-6.75,3.35-14.5,5.19-23.33C520.9,697.17,521.32,695.14,521.49,694.53Z"/><path class="cls-2" d="M497.31,717c-.78,3.08-1.45,6.23-2.06,9.41l1.86-.29c.57-2.94,1.2-5.84,1.92-8.69Z"/><path class="cls-2" d="M550.26,693.65a174.07,174.07,0,0,1,11.84-13c8-8.19,16.21-16.65,19-25.4l-2.25-.7c-2.65,8.28-10.71,16.56-18.51,24.57a174.8,174.8,0,0,0-12,13.15c-7.55,9.55-14.81,19.43-21.87,29.22l3.25-.51C536.39,711.82,543.21,702.59,550.26,693.65Z"/><path class="cls-2" d="M553.17,689.45a1.36,1.36,0,0,1-.48-.92l1.75-.11a.41.41,0,0,0-.27-.27c1,.16,5.16-2.23,7.68-3.65,1.24-.71,2.41-1.37,3.45-1.92,18.23-9.56,31-19.3,39-29.79l1.44,1c-8.13,10.68-21.05,20.57-39.5,30.25-1,.53-2.18,1.19-3.4,1.89-5.45,3.09-8,4.37-9.33,3.71A1.21,1.21,0,0,1,553.17,689.45Z"/><path class="cls-2" d="M546.53,698.05l-.46-1.61c17.81-4.14,33.78-14,49.22-23.45,2.67-1.64,5.44-3.34,8.17-5l1,1.41c-2.73,1.63-5.49,3.33-8.16,5C580.72,684,564.63,693.85,546.53,698.05Z"/><path class="cls-2" d="M539.77,708l-.78-1.52c3.23-1.41,6.84-2.8,11-4.23,3.9-1.33,7.91-2.58,11.79-3.78,9.25-2.87,18.81-5.84,27.49-10.25l.87,1.47c-8.81,4.48-18.45,7.47-27.77,10.36-3.86,1.2-7.86,2.44-11.74,3.77C546.52,705.21,543,706.58,539.77,708Z"/><path class="cls-2" d="M534.22,715.47l-.55-1.6c5-1.42,10.07-3,14.33-4.36,8.19-2.62,16.82-5.49,28-9.32,5.63-1.93,10.37-3.57,15.17-5.27l.66,1.56c-4.81,1.7-9.55,3.34-15.18,5.27-11.19,3.84-19.83,6.71-28,9.33C544.33,712.45,539.28,714,534.22,715.47Z"/><path class="cls-2" d="M581.52,708l-.58-1.59c-7,2.11-13.94,4.39-20.62,6.6-6.48,2.14-13.1,4.33-19.89,6.37l11.31-1.78c3.1-1,6.17-2,9.21-3C567.61,712.33,574.51,710,581.52,708Z"/><path class="cls-2" d="M419.47,731.27l-.77,1.47a77.76,77.76,0,0,0,10.59,4l3.79-.59A86.55,86.55,0,0,1,419.47,731.27Z"/><path class="cls-2" d="M453.51,730.71c-.09-.33-.17-.67-.26-1l.54-.63c6.09-7.22,15.12-18.62,20.34-26l-1.47-1c-3.89,5.48-9.9,13.21-15.22,19.77l-1.09,1.34c-1.27,1.55-2.48,3-3.6,4.34q-.76-3.23-1.44-6.54c-.13-.66-.27-1.32-.39-2-.07-.38-.15-.75-.22-1.13a343.82,343.82,0,0,1,24.51-28l-1.3-1.15c-5.57,5.65-12.66,13.46-18.77,20.8q-.57.67-1.11,1.35c-1.32,1.6-2.58,3.17-3.75,4.68q-.57-3.14-1-6.32l-.09-.57.86-.92,25.93-27.66L474.6,679l-25.78,27.49c-.52-3.74-1-7.5-1.33-11.25l.21.45c6.93-2.73,14.44-11.41,21.05-19.07,2.88-3.33,5.61-6.48,7.94-8.73l-1.27-1.18c-2.39,2.3-5.14,5.48-8,8.84-6.37,7.36-13.56,15.67-20,18.43q-.54-5.89-.77-11.65a.87.87,0,0,0,1.18-.14h0l.11-.12.21-.22,1.83-2c1.67-1.8,3.35-3.65,5-5.44,6.09-6.72,12.39-13.66,19.64-19.33l-1.15-1.29c-7.36,5.75-13.71,12.75-19.84,19.52-1.63,1.78-3.3,3.63-5,5.42l-1.07,1.15-.11.12h0l-.77.85-.1.11h0c-.1-2.65-.15-5.27-.15-7.84h0c.18-.23.4-.52.64-.88.47-.66,1.08-1.55,1.68-2.44.89-1.29,1.8-2.62,2.18-3.11a312.11,312.11,0,0,1,21.83-25l-1.33-1.13a313.74,313.74,0,0,0-21.94,25.09c-.4.53-1.29,1.82-2.23,3.19l-.81,1.19c.06-3.46.21-6.82.45-10.05L476,629l-1.33-1.12-27.56,29.4h0c.23-2.47.53-4.85.88-7.13h0l.68-.77c4.2-4.77,8.33-10.11,12.32-15.27,3.59-4.64,7.3-9.44,11.08-13.85l-1.38-1.07c-3.81,4.44-7.53,9.26-11.13,13.91-3.43,4.44-7,9-10.54,13.21l-.33-.12h0c.42-2.1.9-4.1,1.44-6l.26.09c3.41-9.33,10.15-22,18.51-34.69l-1.5-.91a222.26,222.26,0,0,0-15,26.27h0l-.93-.48a43.46,43.46,0,0,0-3.62,9.2c-4.21-9.34-3.82-20.59-3.49-29.77l-1.76-.1c-.35,10-.79,22.36,4.58,32.41h0a99.44,99.44,0,0,0-2.14,12.66h0c-.58-.9-1.17-1.79-1.74-2.65-6.37-9.69-11.4-17.34-12.67-27.81l-1.75.14c1.32,10.85,6.44,18.65,12.94,28.52.95,1.45,1.94,3,2.95,4.51h0q-.26,2.9-.42,5.92h0c-8.23-7.72-15.35-14.45-20.66-23.65l-1.54.76c5.52,9.57,12.86,16.45,21.36,24.41l.74.69h0q-.15,3.87-.14,7.91c-8.4-4.66-16.69-12.77-22.48-22.05l-1.51.81a71.06,71.06,0,0,0,14.29,16.51,55.24,55.24,0,0,0,9.71,6.63c0,3.22.13,6.51.32,9.84h0c-9-6.81-18.43-14.4-29.5-23.72l-1.15,1.23.24.2c11.47,9.67,21.2,17.46,30.53,24.48.17,2.68.39,5.39.64,8.11-1.23-1.06-2.5-2.19-3.83-3.37-8.1-7.17-18.17-16.09-28.45-18.5l-.38,1.61c9.83,2.31,19.7,11.06,27.64,18.09,1.85,1.64,3.6,3.18,5.26,4.58h0c.3,2.84.64,5.68,1,8.52-2.46-.88-4.9-1.78-7.31-2.67-4.83-1.77-9.83-3.61-14.78-5.27-1.24-.41-2.34-.69-3.31-.93a15.86,15.86,0,0,1-5.82-2.36l-1,1.34a17.5,17.5,0,0,0,6.41,2.63c1,.24,2,.5,3.18.89,4.92,1.64,9.9,3.47,14.73,5.25,2.68,1,5.41,2,8.17,3l0,.23.33,2.19c.38,2.39.78,4.77,1.23,7.14a70.64,70.64,0,0,0-22.4-5.92,29.41,29.41,0,0,0-4-.06,14.91,14.91,0,0,1-6.4-.78l-.63,1.53a16.49,16.49,0,0,0,7.13.91,29.32,29.32,0,0,1,3.73.05,68.81,68.81,0,0,1,21.56,5.67l1.33.56c0,.16.07.32.09.47q.78,3.92,1.67,7.72c-9.75-2.74-20.13-5.48-32.87-8.69l-.41,1.6c13,3.29,23.59,6.08,33.52,8.88l.21.05c.15.62.3,1.24.46,1.85s.24.94.37,1.41l2.28-.36C453.88,732.16,453.69,731.44,453.51,730.71Z"/><path class="cls-2" d="M481.21,709.07l-1.47-1c-5.23,7.28-11.18,15.41-17.61,23.51l2.54-.4C470.69,723.57,476.27,715.94,481.21,709.07Z"/><path class="cls-2" d="M484.44,719.61a88.18,88.18,0,0,0-9.37,10l2.61-.41a84,84,0,0,1,8-8.35Z"/><path class="cls-2" d="M42.94,698.12c-4.74-3-9.41-6.16-13.74-9.18l-.94,1.25c4.35,3,9,6.23,13.8,9.21Z"/><path class="cls-2" d="M61.91,701.83c-2.82-1.85-5.65-3.79-8.39-5.66-5.5-3.77-11.19-7.67-17.12-11l-.82,1.32c5.87,3.32,11.53,7.2,17,10.95,2.74,1.88,5.58,3.82,8.42,5.68Z"/><path class="cls-2" d="M83.65,705.7a353.58,353.58,0,0,1-41-26l-1,1.22A354.44,354.44,0,0,0,82.86,707Z"/><path class="cls-2" d="M103.14,710.43a373.65,373.65,0,0,1-48-30.23l-1,1.2a375.68,375.68,0,0,0,48.23,30.37Z"/><path class="cls-2" d="M126.12,716.08c-14.15-4.32-28.18-15.31-40.56-25-2.88-2.26-5.59-4.38-8.23-6.36l-1,1.21c2.63,2,5.34,4.09,8.21,6.34C97,702,111.18,713.12,125.61,717.53Z"/><path class="cls-2" d="M149.6,723.43l-.91-1.21c-.82.59-4.53.77-21-10.32-10.14-6.82-21.14-15.2-27.05-19.71-2.2-1.68-3.66-2.79-4.18-3.14l-.92,1.26c.48.33,2,1.48,4.1,3.09C130.82,717.19,145.77,726.17,149.6,723.43Z"/><path class="cls-2" d="M173.49,729.33a1.51,1.51,0,0,0-.41-1.09,1.66,1.66,0,0,1-.38-.78l-1.57,0a2.09,2.09,0,0,0,.13.81c-8.58-5.51-16.66-12.44-24.48-19.16-6.64-5.69-13.51-11.59-20.69-16.62l-1,1.24c7.12,5,14,10.86,20.57,16.53,8.15,7,16.57,14.22,25.6,19.88l.18.11h.22c.64,0,1.35,0,1.67-.59A.91.91,0,0,0,173.49,729.33Z"/><path class="cls-2" d="M193.77,732.27c-11.57-4.86-20.22-14.38-28.59-23.58-2.8-3.09-5.7-6.28-8.65-9.22l-1.15,1.07c2.93,2.92,5.82,6.1,8.61,9.17,8.47,9.33,17.23,19,29.12,23.95Z"/><path class="cls-2" d="M210.16,733.86c-3.65-3-7.24-6.24-10.7-9.35a208.93,208.93,0,0,0-18.26-15.17l-1,1.24a203.33,203.33,0,0,1,18.13,15.06c3.48,3.12,7.07,6.35,10.75,9.39Z"/><path class="cls-2" d="M225.84,735c-2.61-1.83-5.33-3.9-8.55-6.49-3.91-3.16-7.71-6.57-11.39-9.87-4.1-3.69-8.34-7.5-12.77-11l-1,1.19c4.39,3.45,8.61,7.24,12.7,10.91,3.69,3.32,7.51,6.75,11.44,9.93,3.25,2.61,6,4.7,8.63,6.55Z"/><path class="cls-2" d="M246.34,739.43c-11.55-9.25-22.51-19.06-32.63-28.3l-1.09,1.12c10.14,9.25,21.12,19.09,32.7,28.36Z"/><path class="cls-2" d="M263.68,741.84c-2.78-2.26-5.53-4.47-8.8-7.1l-2.31-1.85c-9.51-7.62-19.35-15.5-28.51-23.79L223,710.23c9.19,8.32,19.05,16.21,28.57,23.84l2.32,1.86c3.26,2.62,6,4.82,8.79,7.09Z"/><path class="cls-2" d="M275.24,743.37c-2.07-1.76-4.24-3.75-6.66-6.06s-5-4.95-7.36-7.41a171.66,171.66,0,0,0-12.65-12.18l-1,1.16A168.54,168.54,0,0,1,260.06,731c2.39,2.47,4.87,5,7.4,7.44s4.63,4.34,6.72,6.12Z"/><path class="cls-2" d="M295,747.55c-2.46-1.92-5.06-4.07-8-6.59-3.26-2.83-6.51-5.8-9.65-8.67-5.63-5.14-11.44-10.45-17.59-15.23l-1,1.2c6.1,4.74,11.89,10,17.49,15.15,3.15,2.87,6.41,5.85,9.68,8.7,2.92,2.53,5.54,4.7,8,6.64Z"/><path class="cls-2" d="M308.6,748.34c-2.48-1.87-5-4-7.82-6.39-4.34-3.79-8.55-7.85-12.62-11.78s-8.48-8.19-13-12.07l-1.07,1.14c4.44,3.86,8.74,8,12.89,12s8.31,8,12.68,11.83c2.81,2.45,5.39,4.57,7.91,6.46Z"/><path class="cls-2" d="M330.45,751.72c-5.89-3.85-11.44-8.27-16.8-12.54-4.3-3.41-8.74-6.94-13.41-10.24l-.95,1.24c4.63,3.27,9.06,6.79,13.34,10.19,5.39,4.29,11,8.72,16.91,12.61Z"/><path class="cls-2" d="M350.82,754.64c-2.83-1.83-5.67-3.76-8.66-5.92a248.38,248.38,0,0,1-29-24.41L312,725.39A248.71,248.71,0,0,0,341.2,750c3,2.17,5.87,4.12,8.73,6Z"/><path class="cls-2" d="M361.42,756.85c-6.72-5.23-13.08-11.08-19.22-16.75-3.64-3.35-7.4-6.82-11.21-10.12l-1.07,1.14c3.79,3.29,7.54,6.75,11.17,10.1,6.17,5.68,12.55,11.56,19.33,16.83Z"/><path class="cls-2" d="M370.8,757.81c-9.61-8.86-18.24-16.87-26.57-25.28l-1.15,1.07c8.35,8.43,17,16.45,26.62,25.32Z"/><path class="cls-2" d="M383,759.34c-1.7-1.6-3.48-3.43-5.44-5.59s-4-4.63-5.91-6.94a114.44,114.44,0,0,0-11.5-12.57L359,735.37a111.85,111.85,0,0,1,11.35,12.41c1.92,2.32,3.9,4.72,5.95,7s3.8,4.05,5.53,5.68Z"/><path class="cls-2" d="M393.16,756c-4-3.55-7.89-7.18-11.71-10.73s-7.54-7-11.39-10.45L369,736c3.84,3.42,7.67,7,11.37,10.43,4.12,3.83,8.34,7.76,12.65,11.57C393.05,757.34,393.1,756.69,393.16,756Z"/><path class="cls-2" d="M392.82,760c-47.22-6.27-94.19-13.18-140.43-20-18.61-2.74-37.85-5.57-56.74-8.31-25.47-3.69-50.44-10.3-74.59-16.7-14.94-4-30.4-8.06-45.86-11.43-5.14-1.12-10.85-1.79-16.37-2.44-10.33-1.21-21-2.47-27.87-6.7l-1.16,1.72c7.25,4.47,18.16,5.75,28.71,7,5.48.64,11.14,1.31,16.18,2.41,15.41,3.36,30.84,7.45,45.77,11.4,24.2,6.42,49.23,13,74.83,16.76,18.88,2.73,38.12,5.57,56.73,8.31,46.3,6.82,93.32,13.73,140.61,20C392.69,761.34,392.76,760.67,392.82,760Z"/><path class="cls-2" d="M70.11,704.25a1.17,1.17,0,0,0-.22-.89l-1.3.89a.34.34,0,0,1,0-.34c-.56.63-5,1.31-7.61,1.71-1.3.2-2.52.39-3.58.59-18.62,3.46-33.48,3.77-45.43,1l-.41,1.48c12.17,2.86,27.25,2.56,46.09-.95,1-.19,2.25-.38,3.53-.58,5.71-.87,8.27-1.38,8.82-2.58A1.4,1.4,0,0,0,70.11,704.25Z"/><path class="cls-2" d="M80,706.51l-.64-1.37c-15,7-32.23,9-48.83,11-2.88.35-5.86.7-8.77,1.07l.16,1.51c2.91-.37,5.88-.73,8.75-1.07C47.38,715.64,64.68,713.59,80,706.51Z"/><path class="cls-2" d="M90.73,709.61l-.37-1.47c-3.13.81-6.51,1.84-10.31,3.15-3.55,1.23-7.13,2.58-10.59,3.89-8.25,3.12-16.78,6.34-25.56,8.09l.28,1.49c8.91-1.77,17.5-5,25.81-8.17,3.45-1.3,7-2.65,10.55-3.87C84.3,711.42,87.63,710.4,90.73,709.61Z"/><path class="cls-2" d="M99.15,711.7l-.57-1.39c-4.4,1.79-8.91,3.47-12.73,4.88-7.35,2.71-15.17,5.49-25.35,9-5.13,1.78-9.46,3.26-13.87,4.73l.48,1.44c4.41-1.48,8.74-3,13.88-4.74,10.19-3.52,18-6.3,25.38-9C90.21,715.19,94.73,713.5,99.15,711.7Z"/><path class="cls-2" d="M109.92,714.55l-.59-1.39a5.55,5.55,0,0,1-1.21.34,9.76,9.76,0,0,0-1.33.33l-.07,0c-9.22,4-18.5,7.28-27.47,10.49-6,2.16-12.29,4.39-18.51,6.81l.55,1.41c6.2-2.42,12.44-4.64,18.47-6.8,9-3.21,18.27-6.53,27.53-10.51a7.9,7.9,0,0,1,1.1-.27A7,7,0,0,0,109.92,714.55Z"/><path class="cls-2" d="M120.9,717.8l-.4-1.45c-9.16,2.6-18.16,5.78-26.87,8.84-4.88,1.72-9.93,3.5-14.91,5.15l.47,1.43c5-1.64,10-3.43,14.94-5.15C102.81,723.56,111.79,720.4,120.9,717.8Z"/><path class="cls-2" d="M136.91,721.09l-.56-1.41c-3.47,1.36-6.88,2.65-10.12,3.82A257.67,257.67,0,0,1,89.94,734l.28,1.48a257.8,257.8,0,0,0,36.52-10.58C130,723.74,133.42,722.45,136.91,721.09Z"/><path class="cls-2" d="M148.21,723.58l-.4-1.46c-10,2.83-20,6.55-29.58,10.15-6.53,2.45-13.28,5-20,7.22l.47,1.44c6.79-2.25,13.56-4.79,20.1-7.24C128.34,730.1,138.25,726.39,148.21,723.58Z"/><path class="cls-2" d="M156.94,726.51l-.54-1.41c-2.93,1.11-6,2.33-9.76,3.83l-8.12,3.31c-8.57,3.52-17.42,7.15-26.32,10.2l.49,1.43c8.94-3.07,17.82-6.71,26.41-10.23,2.7-1.11,5.4-2.22,8.11-3.31C150.93,728.83,154,727.62,156.94,726.51Z"/><path class="cls-2" d="M163.23,728.93l-.72-1.33c-16.64,8.73-30.38,14.78-43.24,19l.47,1.43C132.69,743.78,146.51,737.7,163.23,728.93Z"/><path class="cls-2" d="M172.54,731.35a.88.88,0,0,0,0-.23.79.79,0,0,0-.72-.73,2.81,2.81,0,0,0-1.94.88l-1.2.38c-8.44,2.48-20.58,9-30.33,14.3-4,2.16-7.46,4-9.95,5.22l.67,1.36c2.52-1.21,6-3.09,10-5.26,9.68-5.23,21.73-11.73,30-14.17l1.23-.39.32.11a.87.87,0,0,1,.14-.27C172.14,732.05,172.47,731.7,172.54,731.35Z"/><path class="cls-2" d="M182.32,731.69l-.71-1.34c-5.63,2.93-11,6.08-16.26,9.14-6.87,4-13.37,7.81-20.3,11.11l.66,1.36c7-3.33,13.52-7.14,20.43-11.18C171.35,737.74,176.73,734.59,182.32,731.69Z"/><path class="cls-2" d="M194.52,734l-.8-1.28c-10.39,6.28-21.54,11.53-33,16.8l.64,1.37C172.86,745.55,184.06,740.27,194.52,734Z"/><path class="cls-2" d="M202.9,734.83l-.93-1.19A201,201,0,0,1,167.57,754l.65,1.36A202,202,0,0,0,202.9,734.83Z"/><path class="cls-2" d="M211.37,736.18l-.88-1.23c-2.24,1.52-4.49,3.1-6.67,4.63-8.49,6-17.28,12.13-27.17,15.93l.54,1.41c10.09-3.87,19-10.1,27.53-16.12C206.9,739.28,209.14,737.7,211.37,736.18Z"/><path class="cls-2" d="M227.8,738.47l-.8-1.29c-2.43,1.45-4.79,3-7.2,4.52l-.54.35c-8.06,5.22-16.39,10.61-25.86,12.84l.33,1.47c9.75-2.29,18.2-7.76,26.38-13.05l.54-.35C223,741.41,225.39,739.91,227.8,738.47Z"/><polygon class="cls-2" points="267.8 744.59 266.94 743.33 238.09 762.12 238.94 763.37 267.8 744.59"/><path class="cls-2" d="M282.12,746.53l-1-1.17c-7.84,6.1-16.48,11.42-24.83,16.56-1.9,1.16-3.79,2.32-5.67,3.5l.82,1.27,5.66-3.5C265.54,758,274.22,752.69,282.12,746.53Z"/><path class="cls-2" d="M291.42,748l-1.16-1c-9.53,10.26-17.71,16.9-26.54,21.55l.72,1.33C273.44,765.17,281.75,758.43,291.42,748Z"/><path class="cls-2" d="M306.51,749.43l-1.22-.92a124.52,124.52,0,0,1-12,12.28c-4.84,4.5-9.84,9.14-13.79,14.52l1.27.86c3.86-5.26,8.81-9.85,13.59-14.3A123.38,123.38,0,0,0,306.51,749.43Z"/><path class="cls-2" d="M317.75,751.47l-1.42-.64c-4.79,9.56-10.77,20.06-21,23.71l.51,1.42C306.63,772.12,312.81,761.3,317.75,751.47Z"/><path class="cls-2" d="M328.37,752.4l-1.38-.68c-4,7.36-9.25,14.19-14.68,21.12l1.25.89C319,766.75,324.27,759.87,328.37,752.4Z"/><path class="cls-2" d="M340.12,754.31l-1.37-.7A50.45,50.45,0,0,1,320,772.53l.77,1.3A52,52,0,0,0,340.12,754.31Z"/><polygon class="cls-2" points="351.47 755.6 350.39 754.52 333.93 769.87 335 770.95 351.47 755.6"/><path class="cls-2" d="M356.33,757.77l-1.38-.69a60.45,60.45,0,0,1-8.05,11.49c-2.51,2.77-5.91,6-9.91,6.42l.12,1.51c4.55-.48,8.25-4,11-6.94A62.84,62.84,0,0,0,356.33,757.77Z"/><path class="cls-2" d="M373.24,758.68l-1.18-1c-1.73,2-3.65,3.9-5.51,5.79-3.93,4-8,8.1-10.9,12.82l1.35.75c2.81-4.57,6.81-8.62,10.68-12.54C369.55,762.63,371.48,760.67,373.24,758.68Z"/><path class="cls-2" d="M382.73,761l-1.35-.75c-3.79,6.24-8.51,14-15.44,18.86l.9,1.23C374,775.28,378.86,767.36,382.73,761Z"/><path class="cls-2" d="M392.64,761.88l-.72-.22c-2.52,7.22-7.27,13.65-12,19.52l1.23.92c4.25-5.26,8.49-11,11.23-17.32Z"/><path class="cls-2" d="M173.59,728.57a16.91,16.91,0,0,0,2.72-6,25.13,25.13,0,0,0,.69-4.37,35.76,35.76,0,0,0,0-4.64l-.34.42c-2.77-2-10.1-5-16.56-7.6-2.49-1-4.84-1.94-6.75-2.77l.68-1.39c1.89.82,4.23,1.76,6.71,2.76,6.06,2.44,12.86,5.17,16.17,7.29h0c-.09-1-.22-2.1-.39-3.19-.09-.6-.19-1.2-.31-1.82-.31-1.67-.71-3.42-1.19-5.22-5.18-.78-10.33-1.74-15.35-2.66-2.35-.43-4.69-.87-7-1.29l.32-1.49c2.35.42,4.71.85,7.05,1.29,4.78.87,9.67,1.78,14.57,2.53-.18-.59-.36-1.2-.55-1.81s-.33-1-.5-1.56L173,695.5h0c-4.89-.75-9.73-1.89-14.45-3-7.12-1.68-14.48-3.42-22-3.81l.13-1.51c7.61.39,15,2.14,22.23,3.85,4.4,1,8.91,2.1,13.45,2.85-.77-2.09-1.63-4.22-2.56-6.37-.12-.28-.25-.56-.37-.85l-.8-.15c-12.72-2.37-25.27-5.53-36-8.36l.46-1.47c10.64,2.8,23,5.93,35.61,8.28-1.08-2.37-2.25-4.77-3.49-7.18-.14-.28-.29-.56-.44-.84l-.76-.14c-8.64-1.61-21.89-4.48-30-6.65l.46-1.47c6,1.63,14.94,3.63,22.65,5.21l1.57.32c1.83.37,3.57.71,5.16,1-.94-1.76-1.92-3.53-2.93-5.29-.3-.53-.61-1.06-.92-1.58-.18-.3-.35-.6-.53-.89a339.47,339.47,0,0,0-34.17-5.76l.23-1.51c7.33.83,17,2.29,25.78,4l1.59.32c1.89.37,3.73.76,5.47,1.15q-1.5-2.48-3.07-4.92l-.29-.44-1.15-.16-35-4.74.26-1.5,34.75,4.71q-2.83-4.3-5.85-8.47l.12.42c-6.53,1.94-17.06.1-26.34-1.52-4-.7-7.86-1.37-10.86-1.63l.18-1.51c3.08.27,6.93.94,11,1.65,8.93,1.56,19,3.31,25.21,1.66-2.11-2.9-4.28-5.71-6.48-8.43-.13.48-.52.57-.92.55h0l-.15,0-.28,0-2.49-.35c-2.26-.32-4.56-.67-6.79-1-8.34-1.27-17-2.58-25.5-2.48l0-1.52c8.66-.1,17.35,1.22,25.76,2.49,2.22.34,4.52.69,6.77,1l1.44.21.15,0h0l1.06.15.14,0h0c-1.54-1.88-3.08-3.71-4.63-5.47h0c-.27,0-.6-.14-1-.25-.73-.19-1.7-.47-2.66-.75-1.4-.4-2.85-.81-3.41-.94-9.58-2.22-19.1-3.66-30.45-5.15l.25-1.5a310.08,310.08,0,0,1,30.6,5.17c.61.14,2,.54,3.49,1l1.29.37q-3.18-3.53-6.37-6.65L88,620.22l.27-1.5,37.15,5h0c-1.66-1.57-3.3-3-4.93-4.41h0l-.94-.16c-5.84-1-12-2.37-17.89-3.72C96.3,614.25,90.79,613,85.46,612l.33-1.49c5.36,1,10.89,2.21,16.24,3.43,5.09,1.16,10.33,2.36,15.39,3.28l.16-.26h0c-1.57-1.21-3.11-2.32-4.62-3.3l-.12.2c-8-4.53-20.41-9.51-34-13.65l.51-1.45a219.15,219.15,0,0,1,26.4,9.81h0l.36-.83a42.5,42.5,0,0,1,8.11,4.32c-2.67-8.73-9.73-16.24-15.5-22.38l1.18-1c6.26,6.67,14,14.94,16.32,24.8h0A99.11,99.11,0,0,1,125.4,621h0c-.13-.94-.25-1.87-.37-2.78-1.36-10.16-2.43-18.19-7.85-26.09l1.32-.87c5.62,8.19,6.7,16.37,8.08,26.73.21,1.52.42,3.1.65,4.72h0c1.28,1.24,2.57,2.51,3.86,3.84h0c1.15-9.83,2.1-18.38.3-27.63l1.54-.32c1.88,9.62.86,18.38-.33,28.53l-.1.89h0c1.62,1.72,3.25,3.5,4.87,5.36,3.11-7.83,4.06-18,2.54-27.54l1.55-.27a59.26,59.26,0,0,1-.11,19.22,45.73,45.73,0,0,1-2.84,9.89q2.88,3.36,5.71,7h0c2.24-9.64,4.31-20,6.49-32.54l1.55.21,0,.28c-2.26,13-4.41,23.67-6.75,33.62q2.25,2.91,4.44,5.93c.23-1.4.45-2.88.67-4.42,1.38-9.38,3.1-21.06,8.89-28.38l1.24.9c-5.54,7-7.22,18.45-8.57,27.65-.31,2.14-.62,4.17-.94,6h0q2.25,3.18,4.4,6.43c1.2-2,2.38-3.93,3.54-5.86,2.34-3.88,4.75-7.89,7.24-11.76.63-1,1.24-1.76,1.78-2.46a13.19,13.19,0,0,0,2.66-4.82l1.52.37a14.51,14.51,0,0,1-2.93,5.33c-.55.71-1.11,1.45-1.7,2.36-2.48,3.84-4.88,7.84-7.21,11.71-1.3,2.16-2.62,4.36-4,6.55l.12.17,1.08,1.69q1.77,2.77,3.45,5.58a59.57,59.57,0,0,1,12.21-16.4,25.85,25.85,0,0,1,2.75-2.21,12.81,12.81,0,0,0,4-4.06l1.37.7a14.06,14.06,0,0,1-4.48,4.56,27.44,27.44,0,0,0-2.59,2.08,57.78,57.78,0,0,0-11.77,15.77l-.6,1.12c.07.12.14.25.22.37,1.21,2.07,2.37,4.15,3.48,6.22,5.21-7.25,10.88-14.85,17.92-24.07l1.25.88c-7.2,9.43-13,17.16-18.26,24.56a.83.83,0,0,0-.11.15c.26.5.53,1,.78,1.52,1.24,2.4,2.39,4.79,3.45,7.15,6.86-6.62,15.34-17.82,18.73-25.12L191,660c-3.43,7.4-12,18.75-19,25.53-.16.16-.32.32-.49.47.17.36.32.72.48,1.08,1,2.42,2,4.8,2.81,7.13.17.47.33.93.49,1.39l1.32-1.16c6.87-6.12,13.34-13,17.2-21.71l1.44.56c-3.81,8.56-10,15.42-16.71,21.46L177.08,696l-1.31,1.13h0c.32,1,.61,1.9.88,2.84.08.26.15.52.22.78.15.55.3,1.08.43,1.61.28,1.08.53,2.15.74,3.18l2.85-2.7,1.1-1.07c5.88-5.75,11.35-11.91,13.88-19.63l1.49.42c-3.23,9.87-10.93,17.15-18.38,24.19l-.59.56a50.64,50.64,0,0,1,.81,7.39A156.65,156.65,0,0,1,193.4,697l1.17,1c-5.59,6.28-11,12.53-15.4,19.65a27.66,27.66,0,0,1-.39,3.52,20,20,0,0,1-3.5,8.57Z"/><path class="cls-2" d="M243.76,741a13.28,13.28,0,0,1-1.35,5.08,20.54,20.54,0,0,1-1.83,3.14,29.81,29.81,0,0,1-2.4,3v-.42c-2.86.07-9.13-1.33-14.66-2.56-2.13-.47-4.14-.92-5.8-1.25l-.29,1.2c1.65.33,3.65.78,5.77,1.25,5.19,1.15,11,2.45,14.25,2.57h0c-.59.63-1.23,1.26-1.91,1.9-.37.34-.75.69-1.14,1-1.08.94-2.24,1.89-3.5,2.84-3.74-1.83-7.57-3.53-11.3-5.2l-5.22-2.34-.57,1.11,5.23,2.35c3.55,1.58,7.17,3.2,10.74,4.92-.43.31-.86.62-1.3.92l-1.14.79-1.17.78h0c-3.55-1.72-7.27-3.16-10.9-4.56-5.48-2.13-11.14-4.32-16.17-7.43l-.7,1c5.12,3.18,10.84,5.4,16.37,7.53,3.38,1.32,6.85,2.66,10.17,4.22q-2.37,1.5-5,3l-.68.38-.59-.27c-9.46-4.2-19.22-7.82-27.64-10.83l-.47,1.15c8.33,3,18,6.55,27.32,10.7q-2.89,1.58-6,3.07l-.72.35-.56-.25c-6.43-2.86-16.48-7-22.84-9.23l-.47,1.16c4.74,1.67,11.54,4.38,17.35,6.84l1.18.5c1.37.59,2.67,1.15,3.86,1.68q-2.3,1.07-4.65,2.09l-1.42.61-.8.34a264.52,264.52,0,0,1-25.08-11.68l-.64,1.08c5.17,2.77,12.2,6.2,18.72,9l1.2.52c1.42.61,2.8,1.18,4.13,1.72q-2.25.92-4.55,1.79l-.41.16-.83-.42-25.06-12.7-.61,1.09,24.91,12.62q-4.08,1.5-8.19,2.84l.3-.22c-3.21-4.2-11-7.75-17.81-10.89-3-1.37-5.8-2.66-7.87-3.84l-.67,1.06c2.12,1.21,5,2.51,8,3.89,6.58,3,14,6.43,17.16,10.29-2.87.92-5.74,1.76-8.58,2.53.17-.37,0-.6-.3-.77h0l-.11,0-.2-.11-1.79-.89c-1.62-.82-3.29-1.63-4.91-2.41-6-3-12.31-6-17.77-9.9l-.77,1c5.54,4,11.85,7,17.94,10,1.62.78,3.28,1.59,4.9,2.4l1,.52.11,0h0l.77.38.1.05h0q-3,.78-5.84,1.44h0l-.76-.28-2.11-.71c-1.12-.37-2.27-.76-2.7-.93a241.12,241.12,0,0,1-22.36-10.4l-.62,1.09A244.89,244.89,0,0,0,164,784c.47.18,1.58.55,2.76,1l1,.34c-2.6.56-5.14,1-7.59,1.43L132,772.46l-.61,1.09L158,787h0q-2.83.4-5.48.63h0l-.68-.32c-4.28-2-9-3.87-13.5-5.66-4.08-1.62-8.3-3.29-12.23-5.08l-.57,1.12c4,1.79,8.19,3.47,12.29,5.09,3.89,1.55,7.9,3.14,11.65,4.82l0,.25h0c-1.64.07-3.22.1-4.7.05l0-.18c-7.55-.69-18.14-3.06-29.06-6.49l-.43,1.17A179.81,179.81,0,0,0,137.48,788h0l-.2.7a35.49,35.49,0,0,0,7.49.86C138.49,794,130,795.67,123.1,797l.21,1.2c7.53-1.48,16.85-3.32,23.46-8.67h0a84.73,84.73,0,0,0,9.83-.74h0c-.57.55-1.13,1.1-1.69,1.63-6.16,6-11,10.67-18.65,13.33l.4,1.15c7.89-2.75,12.85-7.55,19.14-13.62.93-.9,1.88-1.82,2.88-2.77h0c1.47-.22,3-.46,4.49-.74h0c-4.38,6.88-8.21,12.83-14.19,18l.83.91c6.22-5.37,10.12-11.5,14.64-18.59l.39-.62h0q2.92-.57,5.94-1.27c-2.06,6.46-6.73,13.44-12.69,18.94l.86.88a51.87,51.87,0,0,0,9.93-12.47,37.25,37.25,0,0,0,3.32-7.68c2.4-.58,4.84-1.21,7.31-1.91h0c-3.57,7.23-7.65,14.89-12.75,24l1.11.56.11-.2c5.29-9.39,9.48-17.28,13.14-24.77q3-.87,6-1.83c-.58,1-1.21,2.06-1.87,3.16-4,6.68-9,15-9,22.34l1.27,0c.07-7,4.94-15.17,8.86-21.73.91-1.52,1.77-3,2.53-4.33h0q3.1-1,6.19-2.17c-.25,1.81-.51,3.61-.76,5.38-.51,3.56-1,7.25-1.45,10.87-.1.9-.12,1.69-.13,2.39a10.19,10.19,0,0,1-.79,4.32l1.18.44a11.48,11.48,0,0,0,.88-4.77,21.52,21.52,0,0,1,.13-2.29c.39-3.6.92-7.27,1.43-10.82.29-2,.58-4,.85-6l.16-.06,1.58-.6c1.73-.66,3.44-1.35,5.13-2a44.84,44.84,0,0,0-.64,16.1,20.22,20.22,0,0,0,.62,2.67,9.22,9.22,0,0,1,.5,4.44l1.25.16a10.35,10.35,0,0,0-.52-5,17.59,17.59,0,0,1-.59-2.52,43.37,43.37,0,0,1,.59-15.49c.07-.33.13-.66.2-1L205,775q2.81-1.18,5.49-2.45c-.4,7-.69,14.5-.94,23.63h1.27c.25-9.34.56-16.93,1-24.1,0-.05,0-.1,0-.15l1.3-.63c2-1,4-2,5.95-3.06,1,7.36.64,18.43-1,24.67l1.23.27c1.63-6.34,2-17.55,1-25.07,0-.18-.05-.35-.08-.53.3-.16.59-.32.87-.49,1.93-1.09,3.78-2.2,5.53-3.33l1-.68c.09.45.17.9.25,1.35,1.26,7,1.83,14.44-.19,21.78l1.23.29c2-7.25,1.54-14.49.37-21.4-.08-.5-.17-1-.26-1.48s-.16-.88-.25-1.32h0c.7-.48,1.38-1,2.05-1.44l.55-.41c.38-.29.75-.56,1.11-.85.74-.57,1.46-1.14,2.14-1.71.14,1,.29,2,.43,3l.15,1.18c.81,6.36,1.14,12.81-1.25,18.94l1.19.41c3.05-7.84,1.86-16,.71-23.92l-.09-.63a44.09,44.09,0,0,0,4.37-4.41,116.89,116.89,0,0,0-.05,17.85l1.26-.1a108.33,108.33,0,0,1,.28-19.64,26.42,26.42,0,0,0,1.58-2.44,16.08,16.08,0,0,0,2.2-7.12Z"/><path class="cls-2" d="M237.85,669.14c-1.72-5.76-3.22-11.67-4.58-17.19l-1.63.44c1.36,5.54,2.86,11.47,4.6,17.26Z"/><path class="cls-2" d="M250.5,685.13c-1-3.5-1.88-7.08-2.75-10.55-1.77-7-3.59-14.16-6-21.05l-1.6.58c2.39,6.83,4.21,14,6,20.92.88,3.48,1.79,7.07,2.77,10.58Z"/><path class="cls-2" d="M265.27,703.12A373.46,373.46,0,0,1,250.68,653l-1.65.4a374.82,374.82,0,0,0,14.66,50.32Z"/><path class="cls-2" d="M277.61,720.34a395.85,395.85,0,0,1-17.3-58.47l-1.65.37C262.18,679.7,268.52,701.1,276,721Z"/><path class="cls-2" d="M273.36,681.12l1.65-.38c.72,3.49,1.4,7.16,2.13,11,2.05,11,4.29,23,8,33.72l-1.89-.31c-3.54-10.58-5.72-22.28-7.73-33.06C274.76,688.25,274.08,684.59,273.36,681.12Z"/><path class="cls-2" d="M285.68,697.82l1.63-.46c.17.66.56,2.6,1.14,5.53,1.12,5.61,2.93,14.66,5.09,24l-1.78-.29c-1.55-6.75-3.19-14.5-5-23.33C286.24,700.46,285.84,698.44,285.68,697.82Z"/><path class="cls-2" d="M308.79,720.3c.75,3.09,1.39,6.24,2,9.41l-1.77-.29c-.55-2.93-1.15-5.84-1.84-8.69Z"/><path class="cls-2" d="M258.16,696.94c-3.27-4.34-7.36-8.73-11.31-13-7.62-8.18-15.5-16.65-18.18-25.4l2.15-.69c2.53,8.28,10.24,16.56,17.7,24.56,4,4.29,8.11,8.72,11.46,13.15,7.21,9.56,14.15,19.43,20.91,29.23l-3.11-.51C271.43,715.11,264.91,705.88,258.16,696.94Z"/><path class="cls-2" d="M255.38,692.75a1.41,1.41,0,0,0,.46-.93l-1.67-.11a.39.39,0,0,1,.26-.27c-.91.17-4.94-2.22-7.34-3.65-1.19-.7-2.31-1.37-3.3-1.91-17.43-9.57-29.61-19.31-37.24-29.8l-1.38,1c7.77,10.68,20.12,20.58,37.77,30.26,1,.53,2.08,1.19,3.25,1.88,5.21,3.09,7.63,4.38,8.92,3.71A1.27,1.27,0,0,0,255.38,692.75Z"/><path class="cls-2" d="M261.73,701.34l.45-1.61c-17-4.13-32.31-14-47.07-23.44-2.56-1.65-5.2-3.35-7.81-5l-.93,1.41c2.6,1.64,5.24,3.33,7.79,5C229,687.25,244.42,697.15,261.73,701.34Z"/><path class="cls-2" d="M268.2,711.27l.74-1.51c-3.09-1.42-6.53-2.81-10.53-4.24-3.72-1.33-7.56-2.58-11.27-3.78-8.84-2.87-18-5.84-26.29-10.24L220,693c8.43,4.47,17.64,7.46,26.55,10.35,3.7,1.2,7.52,2.44,11.23,3.77C261.75,708.5,265.15,709.87,268.2,711.27Z"/><path class="cls-2" d="M273.5,718.76l.53-1.6c-4.81-1.42-9.63-3-13.7-4.36-7.83-2.62-16.09-5.49-26.77-9.32-5.38-1.93-9.91-3.57-14.5-5.27l-.63,1.56c4.6,1.7,9.13,3.34,14.52,5.28,10.69,3.83,19,6.71,26.8,9.33C263.83,715.74,268.67,717.33,273.5,718.76Z"/><path class="cls-2" d="M228.28,711.24l.55-1.58c6.72,2.1,13.33,4.38,19.72,6.59,6.19,2.15,12.52,4.33,19,6.37l-10.81-1.78q-4.45-1.5-8.8-3C241.57,715.62,235,713.34,228.28,711.24Z"/><path class="cls-2" d="M383.22,734.56,384,736a73.47,73.47,0,0,1-10.12,4l-3.63-.59A80.73,80.73,0,0,0,383.22,734.56Z"/><path class="cls-2" d="M350.67,734c.08-.33.17-.67.25-1-.17-.21-.35-.42-.52-.64-5.82-7.21-14.46-18.62-19.44-26l1.4-1c3.72,5.47,9.46,13.2,14.55,19.76l1,1.34c1.22,1.55,2.38,3,3.45,4.35.49-2.16.94-4.34,1.37-6.54.13-.66.26-1.33.38-2l.21-1.13a342.67,342.67,0,0,0-23.44-28l1.25-1.15c5.32,5.66,12.1,13.47,17.94,20.81.36.45.72.89,1.06,1.34,1.26,1.6,2.47,3.17,3.59,4.68q.54-3.13,1-6.32l.08-.57-.82-.91-24.8-27.66,1.28-1.13,24.64,27.5c.51-3.75.93-7.51,1.27-11.25l-.2.44c-6.62-2.73-13.8-11.41-20.13-19.06-2.75-3.34-5.35-6.48-7.59-8.74l1.22-1.18c2.29,2.3,4.91,5.48,7.69,8.84,6.09,7.36,13,15.67,19.12,18.43.34-3.92.59-7.82.74-11.65a.8.8,0,0,1-1.13-.14h0a.58.58,0,0,0-.1-.12l-.21-.23-1.75-2c-1.6-1.79-3.2-3.65-4.76-5.44-5.82-6.72-11.84-13.66-18.77-19.32l1.09-1.3c7,5.75,13.11,12.75,19,19.52,1.55,1.79,3.15,3.64,4.74,5.43l1,1.14.1.13h0l.74.84.1.12h0q.14-4,.14-7.85h0c-.17-.24-.38-.53-.61-.88-.45-.67-1-1.56-1.61-2.45-.85-1.29-1.72-2.62-2.08-3.11a308.7,308.7,0,0,0-20.88-25l1.27-1.13a313.78,313.78,0,0,1,21,25.09c.39.54,1.23,1.83,2.13,3.19.24.37.51.79.78,1.19-.06-3.46-.2-6.82-.43-10l-27.86-31.08,1.27-1.13,26.35,29.4h0q-.33-3.72-.84-7.13h0l-.65-.76c-4-4.78-8-10.11-11.78-15.28-3.43-4.64-7-9.44-10.59-13.85l1.32-1.07c3.63,4.44,7.2,9.26,10.64,13.92,3.28,4.43,6.65,9,10.07,13.2l.32-.12h0q-.6-3.16-1.38-6l-.24.09c-3.26-9.32-9.71-22-17.7-34.69l1.43-.9a222.71,222.71,0,0,1,14.32,26.27h0l.88-.47a44.41,44.41,0,0,1,3.47,9.19c4-9.33,3.64-20.58,3.33-29.76l1.69-.11c.33,10,.75,22.36-4.38,32.41h0a108.17,108.17,0,0,1,2.05,12.66h0l1.66-2.66c6.09-9.69,10.9-17.34,12.12-27.81l1.67.14c-1.26,10.85-6.16,18.65-12.37,28.52-.91,1.45-1.86,2.95-2.82,4.51h0q.24,2.89.4,5.92h0c7.87-7.71,14.67-14.45,19.75-23.65l1.48.77c-5.28,9.56-12.3,16.44-20.43,24.4l-.71.69h0c.1,2.57.15,5.22.14,7.91,8-4.66,16-12.77,21.49-22.06l1.45.81a70.4,70.4,0,0,1-13.67,16.52,52.8,52.8,0,0,1-9.28,6.62c0,3.22-.13,6.51-.3,9.85h0c8.61-6.81,17.62-14.39,28.2-23.72l1.1,1.23-.23.2c-11,9.67-20.27,17.47-29.19,24.48-.16,2.68-.37,5.4-.62,8.11q1.77-1.59,3.67-3.36c7.74-7.17,17.37-16.09,27.2-18.51l.36,1.62c-9.39,2.3-18.84,11-26.42,18.08-1.77,1.64-3.45,3.19-5,4.58h0q-.44,4.25-1,8.51c2.35-.88,4.69-1.78,7-2.67,4.62-1.77,9.4-3.61,14.14-5.27,1.18-.41,2.23-.68,3.16-.93a14.62,14.62,0,0,0,5.56-2.36l1,1.34a16.33,16.33,0,0,1-6.13,2.63c-.95.25-1.92.5-3,.89-4.71,1.65-9.47,3.48-14.08,5.25-2.57,1-5.18,2-7.81,3l0,.23c-.11.74-.21,1.46-.32,2.19-.36,2.39-.75,4.78-1.17,7.14,6.8-3,12.85-5.09,21.41-5.92a28.55,28.55,0,0,1,3.78-.06,13.69,13.69,0,0,0,6.12-.78l.6,1.53a15.11,15.11,0,0,1-6.82.91,28.71,28.71,0,0,0-3.57,0,63.53,63.53,0,0,0-20.61,5.68l-1.27.55-.09.47c-.49,2.61-1,5.19-1.6,7.72,9.33-2.74,19.26-5.48,31.44-8.69l.39,1.6c-12.46,3.29-22.56,6.08-32.06,8.88l-.19.06c-.15.62-.29,1.23-.44,1.84s-.23.94-.35,1.41l-2.18-.35C350.32,735.46,350.5,734.73,350.67,734Z"/><path class="cls-2" d="M324.19,712.36l1.4-1c5,7.29,10.69,15.42,16.84,23.51l-2.43-.4C334.24,726.86,328.91,719.24,324.19,712.36Z"/><path class="cls-2" d="M321.09,722.91a85.49,85.49,0,0,1,9,10l-2.5-.41a82.84,82.84,0,0,0-7.64-8.35Z"/><path class="cls-5" d="M354.62,124.21c-14.9-15.5-21.53-33-19.83-53.78.1-2.71.19-5.43.29-8.15,2.14-19.89,14.72-34.41,36.13-39.56,10.21-2.36,20.91-4.7,32.08-6.58.49-.44,2.9-.35,4.33.15,10,2.62,20.12,4.34,30.13,7.87,22.84,9,35.81,24.39,37.86,48.51,1.77,18.21-1.72,35.32-11.9,50.39-6.64,10.2-14.15,18.1-26,24.49,1.88,1.42,3.28,2.83,5.68,3.37,4.74,2.44,10.47,4,15.71,6,17.59,7.42,27.23,21.37,33.91,37.48,1.35,2.77,1.25,5.49,2.12,8.24.37,3.19.24,6.82,1.09,10,6.28,27.44-4.69,51.1-19.92,72.79-8.63,11.95-20.46,19.24-33.68,24.67-12.24,5-25.25,4.56-38.17,1.38-7.18-1.61-14.35-3.68-22.46-6.23a59.25,59.25,0,0,1-14.83-3.7c-4.29-1.51-8.5-5.29-12.74-8.16-19.38-11.57-29.44-27.35-28.64-50,.05-29,12.51-54,34.48-75,7.48-7,16.4-13.48,25.36-21.33C373.35,140.29,363.47,133.14,354.62,124.21Zm47.26,14.36c15.81,3.28,30.84,1.09,42.36-10.75,18.5-18.41,25.06-40.4,16.8-66.1-1.26-5.49-5-9.7-8.2-13.9-15.38-15.51-35-18.92-56.78-18.32C392,63.37,387.91,96.8,383.77,132,390.46,134.09,396.14,137,401.88,138.57ZM427.06,301c3.88-.78,8.24-1.08,12.65-3.19a67.28,67.28,0,0,0,31.8-26.1c11.76-18.64,18.74-38.8,13.24-60.77a6.53,6.53,0,0,0-.82-4.12c-1-14.09-8.29-25.24-20.53-33.83-16-11.45-34.72-14.38-53.42-17.76a5.94,5.94,0,0,0-2.89-.1c-12.58.92-21.4,4.69-22.36,18.26-.08,2.27-.17,5-.23,6.8-1.68,20.35-2.4,40.74-3.6,61.12q-.86,24.46-1.72,48.93C398.19,298.58,410.62,301.74,427.06,301Z"/></g></g></svg>