<svg xmlns="http://www.w3.org/2000/svg" viewBox="0 0 832.5 832.5"><defs><style>.cls-1{fill:#76b099;}.cls-2{fill:#e55747;}.cls-3{fill:#ed4f44;}.cls-4{fill:#ffffc5;}.cls-5{fill:#5e4440;}.cls-6{fill:#deaa7c;}</style></defs><g id="Layer_2" data-name="Layer 2"><g id="Layer_1-2" data-name="Layer 1"><rect class="cls-1" width="832.5" height="832.5"/><path class="cls-2" d="M674.37,570.77c-2.76,3.72-5.1,7.41-7.2,9.11l14.77,9.85a30.43,30.43,0,0,0,3.68-15.37A6.24,6.24,0,0,0,674.37,570.77Z"/><path class="cls-2" d="M381.67,640.6c5.59,4.87,21.36.09,27.18-1.21l-9.35-10.32C392.85,628,370.77,631.11,381.67,640.6Z"/><path class="cls-3" d="M450.77,600.17c-.32,17.88-25.16,21.57-45.78,26.5l1,1.91c.71,1.2,1.38,2.42,2,3.68.05.12.11.23.15.35a43,43,0,0,1,1.32,4.5c5.21-1.4,10.2-3,14.23-3.88,15-3.34,47.06-15.52,50.93-29.78Z"/><path class="cls-4" d="M407.62,625.37a58.17,58.17,0,0,1-9,.77c-.55.12-1.09.21-1.63.29A42.21,42.21,0,0,1,400.5,648l8.05-1.77a24.06,24.06,0,0,1,11.14.21,162.67,162.67,0,0,0-9.13-21.83A19.82,19.82,0,0,1,407.62,625.37Z"/><path class="cls-3" d="M477.92,479.45c-5.2,3.93,2.08,18.14,4.08,20.28L494.28,496C492,491.3,483.48,475.26,477.92,479.45Z"/><path class="cls-3" d="M622.73,524.61l-2.67,16.1c5.79.06,25.89-12.63,23.54-20S626.41,521.28,622.73,524.61Z"/><path class="cls-5" d="M463.76,675.2a18.61,18.61,0,0,1,3.93-8.44l-14.55-6.56c.46,5.45.74,10.45.87,15C457.26,675.18,460.51,675.17,463.76,675.2Z"/><path class="cls-3" d="M493.23,676.69a795.39,795.39,0,0,1,125.83,4.69c9.57-31.23,9.29-74,9.18-106.48l-162.5,7.23c-9.87,29.65-34.87,59.78-41.7,90.13,3.33,1.3,6.61,2.69,9.87,4.12A329.24,329.24,0,0,1,493.23,676.69Z"/><path class="cls-6" d="M522.71,422.38c-5.56,13.63-17.77,25.52-24.39,39.12-4.78,9.83-8.18,20.49-12.42,30.42-5.54,13-17,31-16.2,45.88.69,12.81,8.56,34.49,17.37,44,14.79,16,44.21,12.84,64.31,15.7,12,1.7,20.39,4.16,30.86,9.55,7.84,4,14.1,8.88,23.46,8.72C616,590.08,616.1,561.89,622,535.2c4.51-20.42,10.29-43.43,10.47-64.47.09-11.42,1.24-10-8.65-15.53-10.74-6-24.77-10.73-36.27-15.11-22-8.41-45.06-16.75-68.18-20.25Z"/><path class="cls-4" d="M498,474c17.16,5.75,30.92,8.11,47.6.73-5.64-12.58-39.46-9.21-49.69-2.84Z"/><path class="cls-4" d="M589.22,489.65c4.58,5.54,33.1,23.85,37.46,12.92-11.13-7.75-21.45-14.87-34.65-17.5a2.86,2.86,0,0,0-2.91,4.43Z"/><path class="cls-4" d="M618.43,553.45a23.29,23.29,0,0,1-4.37,1c-8.23,1.07-16.55-.8-24.23-3.72-10.4-4-18.28-11.71-26.32-19.09a56.6,56.6,0,0,0-10.31-7.14c-7.15-3.41-14.84-5.42-22.55-7.11a67.3,67.3,0,0,0-13.23-.61c-4.46.12-8.92.38-13.38.35h-.56a21.57,21.57,0,0,1-8,.86,22,22,0,0,1-10.91-1.85c-5.9-3-13.71-5.87-17.43-8-21.23,41.38-51.05,86.63-3.28,105.87,26.55,10.7,54.33,19,81.36,28.4,17.7,6.18,36,17.92,53.76,8.52,25.94-13.72,27.3-61.11,32.12-94.88C623.68,556.08,623.31,555.62,618.43,553.45Z"/><rect class="cls-6" x="499.47" y="536.54" width="15.59" height="0.79" transform="translate(-192.43 773.64) rotate(-65.32)"/><path class="cls-6" d="M484.16,544.26l-.73-.31c.33-.79.67-1.58,1-2.37,1.58-3.69,3.21-7.5,3.82-11.49l.78.12c-.62,4.09-2.28,7.95-3.88,11.68C484.82,542.68,484.48,543.47,484.16,544.26Z"/><rect class="cls-6" x="482.8" y="548.8" width="14.04" height="0.79" transform="translate(-190.09 830.71) rotate(-70.76)"/><path class="cls-6" d="M478.67,565.25l-.64-.46a26.87,26.87,0,0,0,4.76-11.45l.78.12A27.66,27.66,0,0,1,478.67,565.25Z"/><path class="cls-6" d="M470.1,549c-.27-.24-.1-.48.15-.85.14-.22.35-.52.61-.9,1.56-2.25,5.21-7.54,6.31-10.28l.73.29c-1.13,2.83-4.68,8-6.39,10.44-.4.58-.74,1.08-.79,1.17a.41.41,0,0,0-.11-.47l-.24.3.26.3Z"/><path class="cls-6" d="M458.78,558.67l-.73-.3a82.88,82.88,0,0,1,4.7-9.08,75.23,75.23,0,0,0,5.14-10.18l.73.28a74.51,74.51,0,0,1-5.19,10.29A84,84,0,0,0,458.78,558.67Z"/><path class="cls-6" d="M454.45,544l-.72-.32c.81-1.8,1.71-3.62,2.58-5.37a68.4,68.4,0,0,0,4.88-11.53l.75.21A68.6,68.6,0,0,1,457,538.63C456.15,540.38,455.25,542.18,454.45,544Z"/><path class="cls-6" d="M445.47,572.48c-1-3.06-.82-7.57-.64-11.54.05-1,.09-2,.11-2.86l.79,0c0,.9-.06,1.86-.11,2.87-.18,3.91-.38,8.34.6,11.26Z"/><path class="cls-6" d="M456.88,602.14a58.56,58.56,0,0,1-1.49-11.55l.79,0a57.88,57.88,0,0,0,1.47,11.4Z"/><path class="cls-6" d="M472.94,594.57c-1.61-2-1.25-6.51-.87-11.27.15-1.91.31-3.89.31-5.57h.79c0,1.72-.16,3.71-.31,5.63-.36,4.4-.72,8.95.7,10.72Z"/><path class="cls-6" d="M486.23,589.59c.12-2.81.54-5.62.93-8.33a80.17,80.17,0,0,0,.93-8.24l.79,0c-.13,2.81-.54,5.61-.94,8.33a82.71,82.71,0,0,0-.92,8.24Z"/><path class="cls-6" d="M457.84,583.51c1.15-4.54,2.24-9.16,3.22-13.73l.77.16c-1,4.59-2.07,9.22-3.23,13.76Z"/><path class="cls-6" d="M496.69,593.19c.43-2.64,1-5.33,1.53-7.92a104.55,104.55,0,0,0,2.27-14.19l.79,0a105.42,105.42,0,0,1-2.29,14.3c-.54,2.59-1.09,5.26-1.52,7.89Z"/><path class="cls-6" d="M507.4,587l-.37-.69a.35.35,0,0,0-.16.15c.16-.37,1-4.31,1.74-8.13,1.2-5.89,2.69-13.23,3.46-15.79l.75.23c-.75,2.52-2.24,9.84-3.44,15.72C507.68,586.81,507.66,586.82,507.4,587Z"/><path class="cls-6" d="M519.64,587.94c.05-.74,1.05-7.78,2.07-14.93.25-1.75.46-3.21.53-3.77h0l0-.2v0h0c.05-.21.16-.4.45-.36s.33.24.32.47h0v0l0,.23-.12.83c-.1.72-.24,1.73-.41,2.91-.76,5.27-2,14.08-2.06,14.85Z"/><path class="cls-6" d="M530.48,581.5c1.28-7.63,2.88-15.25,4.75-22.64l.76.19c-1.86,7.38-3.46,15-4.74,22.58Z"/><path class="cls-6" d="M535.15,618.13c1.46-4.45,2.83-9.09,4.16-13.57.41-1.38.81-2.75,1.22-4.11l.75.22c-.4,1.36-.81,2.73-1.22,4.11-1.32,4.49-2.69,9.14-4.16,13.59Z"/><path class="cls-6" d="M525.51,620.53l-.63-.49a28.9,28.9,0,0,0,5-9.85l.75.22A29.81,29.81,0,0,1,525.51,620.53Z"/><path class="cls-6" d="M510.35,616.85l-.56-.56c2.37-2.41,4.47-9.59,5.24-15.13l.78.11C515.15,606,513.16,614,510.35,616.85Z"/><path class="cls-6" d="M494.29,615.79c1.37-5,1.81-9.13,1.33-12.68l.78-.11c.49,3.66.05,7.91-1.35,13Z"/><path class="cls-6" d="M477.75,611.66a68.66,68.66,0,0,0-.08-10.92l.79-.07a71.53,71.53,0,0,1,.08,11.05Z"/><path class="cls-6" d="M561.15,595.12l-.65-.43a37.41,37.41,0,0,0,5.5-13.57l.77.15A37.83,37.83,0,0,1,561.15,595.12Z"/><path class="cls-6" d="M548.82,623.18l-.62-.48c3.3-4.31,5.56-10,7.38-14.53l.73.3C554.48,613.06,552.2,618.78,548.82,623.18Z"/><path class="cls-6" d="M546,593.11c2.17-6.78,4.3-13.67,6.35-20.48l.76.23c-2.05,6.81-4.19,13.7-6.36,20.49Z"/><path class="cls-6" d="M544.76,578.65c.54-2.86,1-5.93,1.54-8.89l.74-4.4.78.14c-.25,1.42-.49,2.9-.74,4.39-.49,3-1,6-1.55,8.91Z"/><path class="cls-6" d="M580.81,597.64l-.7-.37c3.55-6.8,4.75-16.4,5.16-21.51l.78.06C585.64,581,584.42,590.71,580.81,597.64Z"/><path class="cls-6" d="M591.69,578.61c.35-2.68.8-5.4,1.24-8a139.1,139.1,0,0,0,1.87-14.32l.78,0a139.75,139.75,0,0,1-1.87,14.41c-.44,2.63-.89,5.35-1.24,8Z"/><path class="cls-6" d="M604.61,573a157.22,157.22,0,0,1,.74-20.14l.78.08a159.34,159.34,0,0,0-.74,20Z"/><path class="cls-6" d="M613.17,582.16l-.71-.34c2.46-5.29,2.7-12.91,2.91-19.64,0-1.75.1-3.41.19-4.95l.79,0c-.09,1.53-.14,3.18-.19,4.92C616,569,615.71,576.72,613.17,582.16Z"/><path class="cls-6" d="M621.93,590.68l-.72-.31a69.22,69.22,0,0,0,4.75-24.8l.78,0A69.79,69.79,0,0,1,621.93,590.68Z"/><path class="cls-6" d="M617.13,608.77l-.48-.63c3.13-2.39,5.86-9.68,6.83-15.31l.78.13C623.23,598.89,620.45,606.22,617.13,608.77Z"/><path class="cls-6" d="M597.31,631.7l-.23-.75c3.07-1,4.94-4.69,6.91-8.65.61-1.21,1.23-2.46,1.9-3.66l.69.38c-.66,1.19-1.28,2.43-1.88,3.63C602.64,626.77,600.7,630.66,597.31,631.7Z"/><path class="cls-6" d="M583.46,628.49v-.79c5.77.06,10.91-14.34,12.85-19.77l.13-.35.74.27-.13.35C594.89,614.29,589.79,628.55,583.46,628.49Z"/><path class="cls-6" d="M568.64,628.73l-.25-.75c1.81-.59,4.44-5.67,6.75-10.16.56-1.08,1.09-2.11,1.62-3.09l.69.38c-.52,1-1.05,2-1.61,3.08C573.34,623,570.76,628,568.64,628.73Z"/><path class="cls-6" d="M561.5,618.22l-.63-.49a30.48,30.48,0,0,0,5.94-12.6l.78.15A31.46,31.46,0,0,1,561.5,618.22Z"/><path class="cls-6" d="M556.11,633.62l-.54-.58a29.2,29.2,0,0,0,5.87-8l.69.37A30,30,0,0,1,556.11,633.62Z"/><path class="cls-6" d="M566.49,644.45l-.57-.55,1.62-1.64c2.56-2.59,5.22-5.27,6.62-8.64l.73.31c-1.46,3.5-4.17,6.24-6.79,8.89C567.56,643.35,567,643.91,566.49,644.45Z"/><path class="cls-6" d="M578.16,646l-.29-.73a22.4,22.4,0,0,0,10.67-8.58l.67.42A23.22,23.22,0,0,1,578.16,646Z"/><path class="cls-6" d="M537.93,636.53l-.69-.37a55.06,55.06,0,0,1,6.48-9.56l.6.51A55,55,0,0,0,537.93,636.53Z"/><rect class="cls-6" x="519.89" y="626.64" width="6.69" height="0.79" transform="translate(-204.59 997.47) rotate(-77.13)"/><rect class="cls-6" x="511.85" y="624.98" width="0.79" height="6.61" transform="translate(-76.03 70.55) rotate(-7.34)"/><path class="cls-6" d="M595.24,597.68a59.75,59.75,0,0,0,3.24-16l.79,0A60.84,60.84,0,0,1,596,597.92Z"/><path class="cls-6" d="M605,598.83c1-3.32,1.86-7.36,2.62-10.93.2-1,.4-1.89.59-2.78l.77.17c-.19.88-.39,1.82-.59,2.78-.76,3.58-1.62,7.64-2.64,11Z"/><path class="cls-6" d="M609.7,607.11l-.06-.78c2.23-.18,3.28-5,4.2-9.21.33-1.53.65-3,1-4.22l.76.22c-.36,1.21-.67,2.65-1,4.16C613.58,602,612.51,606.9,609.7,607.11Z"/><path class="cls-6" d="M503.59,566.71l-.61-.5c2.37-2.92,3.54-6.92,4.67-10.79.41-1.4.84-2.85,1.31-4.2l.74.26c-.46,1.33-.86,2.71-1.29,4.16C507.26,559.59,506.07,563.66,503.59,566.71Z"/><rect class="cls-6" x="490.63" y="556.15" width="11.11" height="0.79" transform="translate(-210.2 795.21) rotate(-66.95)"/><path class="cls-6" d="M573.63,556c-1.15-.69-2.27-1.42-3.37-2.18-1.4-.82-2.79-1.66-4.2-2.46-2.11-1.2-4.29-2.28-6.42-3.46a38.75,38.75,0,0,1-7-4.83c-2.2-.23-4.38-.54-6.56-1h0c-2.72.13-5.46.09-8.17.07a119.45,119.45,0,0,1-12.25-.71c-2-.22-4.06-.52-6.09-.81-1.38-.2-2.77-.31-4.16-.44-1.84,10.46,4.27,14.08,17.31,18.49,11.55,3.9,35.14,13.85,41.35,2.08a15.76,15.76,0,0,0,1.42-3.75Q574.53,556.57,573.63,556Z"/><path class="cls-3" d="M552.5,512.93a3.86,3.86,0,0,1-.74-.2c-6.18,5.81-36,7-20.83,21.53,9.34,9,32.45,7.14,44.26,9.48C582.27,534,560.43,523.78,552.5,512.93Z"/><path class="cls-5" d="M604,530.36h0c-2.12-.65-1.83-4.27-1.59-7.18,0-.22,0-.43,0-.63l-1.3-.35c0,.29,0,.57-.06.87-.26,3.21-.62,7.59,2.51,8.55l.06,0c3.47,1,8.77-5.33,9.37-6.4l-1.14-.65C611,526,606.19,531,604,530.36Z"/><path class="cls-5" d="M509.18,493.87l-.93.8c-3.06,2.63-9.43,8.09-12.06,6-1.25-1-.82-4.14-.48-6.68a20.93,20.93,0,0,0,.31-3.94l-1.11-.28-.24,0a15.73,15.73,0,0,1-.26,4c-.41,3-.87,6.46,1,7.9,3.48,2.71,9.89-2.78,13.72-6.07.6-.51,1.13-1,1.51-1.26C510.14,494.22,509.66,494.05,509.18,493.87Z"/><path class="cls-3" d="M489.91,518.41c22.44,3.54,5.17-28-7.07-14.69C480.81,505.94,471.45,515.5,489.91,518.41Z"/><path class="cls-3" d="M602.3,552.13c22.44,3.53,5.16-28-7.07-14.7C593.19,539.65,583.84,549.22,602.3,552.13Z"/><path class="cls-3" d="M633.72,574.66l.15.13-.23-.07Z"/><path class="cls-6" d="M531.09,573.63l-.16-.06C530.45,571.46,532.25,572.83,531.09,573.63Z"/><path class="cls-5" d="M454.67,675.24l2.74,0c-11.8-4-23.93-8.11-33.93-15.47,3.63-13.24,9.25-25.4,14.28-35.8,36.48,12.63,90.5,35.92,129,53.06l2.52.13c-38.79-17.29-94.43-41.33-131.63-54.18l-.38-.13-.17.36c-5.13,10.6-10.91,23-14.6,36.62l-.08.3.25.18C432.16,667.32,443.49,671.47,454.67,675.24Z"/><path class="cls-5" d="M493.23,676.69l3.43-.11c4.75-9.34,10.58-21.13,12.72-26.89,11.25,2.16,30,8.09,37.65,14.95-1.18,2.94-2.76,7-4.5,11.52q6.29.12,12.59.34c1.73-4.87,3.22-9.24,4.18-12.45l-1.6-.53c-12.31-8.9-59.24-24.68-59.24-24.68S486,660.38,478.05,675.63Q485.64,676,493.23,676.69Z"/><path class="cls-5" d="M470.47,659.81c-.09,0-3,1.88.82,1.76,4.95-4.69,4-9.14-2.28-12.72a22.26,22.26,0,0,0-6.18,13.5c2.61,2.42,3.41.23,5,.14Z"/><path class="cls-5" d="M450.74,649.82c1-1.54,2.19-6.7,2.81-9.44-8.29-4.22-11.59,3.56-12.05,11.47a27.6,27.6,0,0,0,6.07,2.25Z"/><path class="cls-5" d="M652.88,513.37c-5.79-11.61-17.78-18.39-33.76-19.09-12.1-.54-23.45,3.21-32,10.55a38.76,38.76,0,0,0-12.3,19.29c-11.58-14.77-31.55-16-44.14-15.1a36,36,0,0,0-1.3-28c-5.8-11.6-17.79-18.38-33.76-19.09-12.1-.53-23.45,3.21-32,10.55-7.82,6.74-12.67,16-13.31,25.41a29,29,0,0,0,8.7,22.94c6.59,6.51,16.63,10.72,29.15,12.25.81.1,1.63.19,2.46.26,14.9,1.37,27.89-4.36,35.64-15.71a37.59,37.59,0,0,0,3.39-6.14c12.42-1.1,33.47-.21,44.46,15.76-.15,1-.27,2-.34,3a29,29,0,0,0,8.7,22.95c6.59,6.5,16.64,10.71,29.16,12.24q1.21.15,2.46.27c14.89,1.37,27.88-4.36,35.63-15.72C657.3,539,658.51,524.63,652.88,513.37ZM524.35,516.3c-7.25,10.61-19.43,16-33.43,14.67q-1.28-.12-2.49-.27c-27.62-3.37-36.57-18.91-35.64-32.62,1.16-17.07,17.84-34.81,42.76-33.71,1.46.06,2.88.18,4.27.35,12.92,1.58,22.58,7.67,27.45,17.41C532.5,492.62,531.36,506,524.35,516.3Zm123.46,32.31c-7.24,10.62-19.42,16-33.42,14.68-29.58-2.72-39.09-18.78-38.13-32.89,1.16-17.08,17.83-34.82,42.76-33.72,15.06.67,26.32,7,31.71,17.77C656,524.93,654.82,538.34,647.81,548.61Z"/><path class="cls-5" d="M550.31,546.64c-.69,2.73-1,5.66-2.44,8-4.11.2-7.74-5.22-4.27-8.57,2.29-2.21,6.4-.78,6.31,2.17Z"/><path class="cls-3" d="M527.59,411.22c10.72-.18,20.62-6.4,31.44-6.8,7.79-.28,17,.84,24.71,2,21,3.05,39.79,10.69,58.9,20,31,15.14,62.12,25.74,92.72,40.72,16.92,8.29,33.92,17.72,51.85,23-23.26,6.28-45.12,5.85-69.3,4.56-16.33-.87-30.2-1.11-46.34-4.68-11.11-2.45-28.82-4.79-40.18-3.18Z"/><path class="cls-4" d="M782.6,488.12l-.16.08c.88,1.31,1.71,2.67,2.5,4,5.73-.5,12.52-4.34,10.63-10.42C792.94,473.38,778.07,478.94,782.6,488.12Z"/><path class="cls-4" d="M582,461.07c12.74,5.13,32.73,21.38,45.34,24.81,14,3.83,10.13-14.91,22.14-20.31-7.27-11-26.25-19.94-37.41-26.3-16-9.13-33.86-13.91-50.76-21.3-8-3.49-22.45-9.26-31.19-8.72C518,410,511,433.7,507.44,444.13,507.44,444.13,571,456.64,582,461.07Z"/><path class="cls-3" d="M675.18,577.24a168.33,168.33,0,0,1-12.64,11.31,165.28,165.28,0,0,1-35.16,21.82,24.05,24.05,0,0,1-1.92,12c-.64,2.32-1.25,4.66-2,7,10.57-6,36.51-27,48.24-36.5A121.69,121.69,0,0,0,683.61,582,44.43,44.43,0,0,0,675.18,577.24Z"/><path class="cls-4" d="M687.21,585.84c-.44.38-.86.78-1.27,1.21-1.81,1.56-3.75,3-5.67,4.4a11.76,11.76,0,0,0-3,3.17,40.67,40.67,0,0,1-5.54-1.77c-3.24-1.29-6.49-2.9-9.21-4.3-1.94-1-3.61-1.87-4.86-2.44l.26-.52A34.75,34.75,0,0,0,669,574.75h.38c1.26.58,3.4,1.42,5.78,2.49a44.43,44.43,0,0,1,8.43,4.77A13.46,13.46,0,0,1,687.21,585.84Z"/><path class="cls-5" d="M281.91,100l-4.46,0c-8,12.25-9.5,39.06-14.19,54.8-13.66-.77-32.14-.29-45.32,2.67l-.93.19A12.59,12.59,0,0,0,207,171.07a56.83,56.83,0,0,1,.18,11.94l.35.36a16.27,16.27,0,0,1,3.27-.1c1.47.09,2.92.33,4.39.51.78.1,1.56.18,2.34.21.39,0,.77,0,1.16,0,.13,0,1.3-.12.6,0a4.06,4.06,0,0,1,1.78.11c12.06-.76,26.22-2.93,38.2-2.49a3.71,3.71,0,0,1,1.33,0l.32,0q1,.06,1.95.15c.73,0,1.47,0,2.2-.07.46,0,.91-.07,1.37-.12l.39-.05.31,0,.57-.08c0-.24,0-.48,0-.72a7,7,0,0,1,.21.69c.64-.09,1.27-.19,1.91-.3,1.78-.29,3.57-.61,5.37-.85,2.06-21.17,4.06-42.67,5.34-63.68,8.92-1.06,10.86.56,19.52-.14C299.52,105.6,287.9,104.94,281.91,100Z"/><path class="cls-5" d="M278.55,107c-3.84-3-8.34-7.11-13.45-7.72,1.94.81,4.07,4,6,5.35,1,.69,6.28,4.18,6.91,2.89Z"/><path class="cls-5" d="M281.62,100.91s-.23.43-.17.21c-1.25-4.64-6.14-7.51-10.15-9.52-.4,1.53,3.39,5.37,4.36,6.48s2.06,2.47,3.1,3.7c.48.56.72,1.48,1.08.88Z"/><path class="cls-5" d="M273.23,171.05c11.5-1.26,23-4.08,34.64-4.69-5.32,5.87-12.06,9.49-18.2,14.42-3.24,2.61-6.76,5.18-9.44,8.39-1.26,1.51-2,3.55-3.32,4.88,4-9.72,12-15.48,20.3-21.43A240.5,240.5,0,0,0,271.45,177Z"/><path class="cls-5" d="M268.6,177.76c8.59.93,17.6.6,26.32,1.25,5.45.41,11.23,1.53,16.62,2.29-10,1.23-19.5,8.16-28.2,12.82-5,2.71-9.51,5.44-13,10,4.08-10.8,16.26-13,23.64-20.47-4.42-1.86-10.68-2-15.49-2.25-4.54-.29-9-.66-13.51-1.27Z"/><path class="cls-5" d="M213.46,175.77c-3.44,3.8-8.68,6.11-12.69,9.27s-6.93,7.37-10.77,10.67c-3.39,2.91-16.56,18.25-20.08,22.69,1.59-5.36,15.7-21.89,19.11-25.48s6.83-7.76,10.58-11.34c2.5-2.39,8.18-6.58,11.77-6.87Z"/><path class="cls-5" d="M223.16,178.13c-3,.58-5.33,3.34-7.77,5a117.78,117.78,0,0,0-11.16,8.51c-5.5,4.85-10.7,10.16-16.09,15.16-3.68,3.41-7.39,6.77-10.88,10.35a35.47,35.47,0,0,1-3.69,3.21c3.63-10.38,28.69-32.85,31.29-35.15,3.33-2.94,6.81-5.51,10.21-8.22Z"/><path class="cls-5" d="M261,93.37c-1.9-.2-3.72-.38-5.43-.68l-1.4-.28-.29-.07a42.51,42.51,0,0,1-10.16-3.72c-3.14-2.59-1.14-7,.79-11.23a18.67,18.67,0,0,0,2-5.73l-1.2-.07A18.83,18.83,0,0,1,243.4,77c-1.5,3.3-3.26,7.36-2.2,10.36h0c-2.22-1-4-3.38-5.07-5.39a9.31,9.31,0,0,1-.17-8.08l-1.12-.49a10.32,10.32,0,0,0,.22,9c1.51,2.9,4.45,5.28,7.91,7.15.25.21.28.37.59.56l-.18-.15h0c3,1.86,5.94,2.46,8.75,3.19-3.68,2.08-9,4.54-11.87,3.91a2.18,2.18,0,0,1-1.5-1l-1,.63a3.48,3.48,0,0,0,2.35,1.58,6,6,0,0,0,1.23.13c4,0,9.89-3.12,12.7-4.79a61.76,61.76,0,0,0,6.81.95c7,.72,14.32,1.46,17.33,8.47l1.11-.48C276,94.9,268,94.09,261,93.37Z"/><path class="cls-5" d="M265.4,100.41a37.7,37.7,0,0,0-9.78,1,38.16,38.16,0,0,1-9.33,1l-.43,0-.91-.07h-.15l-1-.07a43.29,43.29,0,0,1-5.46-.82V101s-2.68-2.27-3.27-3.65c-1.06-2.46-.52-5,0-7.61a23,23,0,0,0,.65-4.66h-1.2a21.86,21.86,0,0,1-.62,4.42c-.57,2.72-1.15,5.41.06,8.22a12.06,12.06,0,0,0,2,2.7h0c-1.88-1-3.59-1.56-5-3,0,0,0,0-.05,0-.19-.2-.54-.54-1-1-.72-.82-1.67-1.94-2.53-3.1-2.29-3.07-2.18-3.86-2.16-3.92s0,0,0,0l-.64-1a1.14,1.14,0,0,0-.53.86c-.19,1.61,2.53,5.09,4.37,7.25-5.35.12-9.86-1.35-15.32-3.13l-.61-.2-.37,1.15.61.2c5.09,1.65,9.62,3.13,14.85,3.18.61,0,1.23,0,1.86,0,.36.41.59.65.61.67,3.27,3.36,8,4.49,12.65,5a29.22,29.22,0,0,1-8.37,5.92c-4.3,1.87-8.22,1.63-11.64-.71l-.68,1a11.8,11.8,0,0,0,6.7,2.17,14.9,14.9,0,0,0,6.1-1.35,31.73,31.73,0,0,0,9.46-6.87l1.87.13a38.69,38.69,0,0,0,9.63-1,36.58,36.58,0,0,1,9.47-.94c3.27.23,10.39,1.79,11.78,3.79l1-.68C276.21,102,268,100.6,265.4,100.41Z"/><path class="cls-5" d="M209.61,162.69c.65-3.13-8.32-4.48-10.48-3.38a12.38,12.38,0,0,0,1.77,2c-.39,0-.85.1-1.23.06.45.2,1.2.78,1.66,1-.16.19-.3.46-.43.62.66.3,1.39.6,2,.84a19.46,19.46,0,0,1-1.65,1.2,37.38,37.38,0,0,1,3.91,2.33c1.31.71,2.79.55,4.14.91Z"/><path class="cls-5" d="M432.64,75l-4.46,0c-8,12.25-9.5,39.06-14.19,54.8-13.66-.77-32.14-.3-45.32,2.67l-.93.19A12.59,12.59,0,0,0,357.68,146a56.83,56.83,0,0,1,.18,11.94l.35.36a16.27,16.27,0,0,1,3.27-.1c1.47.09,2.92.33,4.39.51.78.1,1.56.18,2.34.21.39,0,.77,0,1.16,0,.13,0,1.3-.12.6,0a4.21,4.21,0,0,1,1.78.12c12.06-.76,26.22-2.93,38.2-2.5a4,4,0,0,1,1.33,0l.33.05c.65,0,1.3.09,1.94.15s1.47,0,2.2-.07c.46,0,.91-.07,1.37-.12l.39-.05.31,0,.57-.08c0-.24,0-.48,0-.72a7,7,0,0,1,.21.69c.64-.09,1.28-.19,1.91-.3,1.78-.29,3.57-.61,5.37-.85,2.06-21.17,4.06-42.68,5.34-63.68,8.92-1.06,10.86.56,19.52-.15C450.25,80.56,438.63,79.9,432.64,75Z"/><path class="cls-5" d="M429.28,81.93c-3.84-3-8.34-7.11-13.45-7.72,1.94.81,4.08,4,6,5.35,1,.69,6.28,4.18,6.91,2.89Z"/><path class="cls-5" d="M432.35,75.87s-.23.43-.16.21c-1.26-4.64-6.15-7.51-10.16-9.52-.4,1.53,3.39,5.37,4.36,6.48s2.06,2.47,3.1,3.7c.48.56.72,1.48,1.08.88Z"/><path class="cls-5" d="M424,146c11.5-1.25,23-4.07,34.64-4.68-5.32,5.87-12.06,9.49-18.2,14.42-3.24,2.61-6.76,5.18-9.44,8.39-1.26,1.5-1.95,3.55-3.32,4.88,4-9.72,12-15.48,20.3-21.44A243.05,243.05,0,0,0,422.18,152Z"/><path class="cls-5" d="M419.33,152.72c8.59.93,17.6.6,26.32,1.25,5.45.41,11.23,1.53,16.62,2.29-10,1.23-19.5,8.16-28.2,12.82-5.05,2.71-9.51,5.44-13,10,4.08-10.8,16.26-13,23.64-20.47-4.42-1.86-10.68-2-15.49-2.25-4.54-.29-9-.66-13.51-1.27Z"/><path class="cls-5" d="M364.19,150.73c-3.44,3.8-8.68,6.11-12.69,9.27s-6.93,7.37-10.77,10.67c-3.39,2.91-16.56,18.25-20.08,22.69,1.59-5.36,15.7-21.89,19.11-25.48s6.83-7.76,10.58-11.34c2.5-2.39,8.18-6.58,11.77-6.87Z"/><path class="cls-5" d="M373.89,153.09c-3,.58-5.33,3.33-7.77,5A117.78,117.78,0,0,0,355,166.62c-5.5,4.85-10.7,10.16-16.09,15.16-3.68,3.41-7.39,6.77-10.88,10.35a36.69,36.69,0,0,1-3.69,3.21c3.63-10.38,28.69-32.85,31.29-35.15,3.33-2.94,6.81-5.51,10.21-8.22Z"/><path class="cls-5" d="M411.72,68.33c-1.9-.2-3.72-.38-5.43-.68l-1.4-.28-.29-.07a43.39,43.39,0,0,1-10.16-3.72c-3.14-2.59-1.14-7,.79-11.23a18.63,18.63,0,0,0,2-5.74l-1.2-.06A18.92,18.92,0,0,1,394.13,52c-1.5,3.3-3.26,6.38-2.2,10.38h0c-2.22-2-4-3.4-5.07-5.41a9.33,9.33,0,0,1-.17-8.09l-1.12-.5a10.32,10.32,0,0,0,.22,9c1.51,2.9,4.45,5.28,7.91,7.15a5.87,5.87,0,0,0,.73.66l-.05,0h0c2,1.24,5.8,2.36,8.62,3.09-3.68,2.08-9.05,4.49-11.94,3.86a2.2,2.2,0,0,1-1.53-1l-1,.62a3.48,3.48,0,0,0,2.35,1.58,5.94,5.94,0,0,0,1.22.12c4,0,9.89-3.12,12.7-4.79a61.76,61.76,0,0,0,6.81,1c7,.72,14.32,1.46,17.33,8.47l1.11-.48C426.74,69.86,418.76,69.05,411.72,68.33Z"/><path class="cls-5" d="M416.13,75.37a37.7,37.7,0,0,0-9.78,1,38.16,38.16,0,0,1-9.33,1l-.43,0-.91-.06h-.15l-1.32-.07a48.57,48.57,0,0,1-5.83-.82v-.39a18.49,18.49,0,0,1-2.91-3.65c-1.05-2.46-.34-5,.22-7.61a23.81,23.81,0,0,0,.74-4.66h-1.16a21.76,21.76,0,0,1-.59,4.42c-.57,2.72-1.14,5.43.07,8.24a12.19,12.19,0,0,0,2,2.72h0c-1.88-1-3.59-1.58-5-3,0,0,0,0-.05,0-.19-.2-.54-.55-1-1-.72-.82-1.67-1.94-2.53-3.1-2.29-3.07-2.18-3.86-2.16-3.92l0,0-.64-1a1.14,1.14,0,0,0-.53.86c-.19,1.61,2.53,5.09,4.37,7.24-5.35.12-9.86-1.34-15.32-3.12l-.61-.2-.37,1.15.61.2c5.09,1.65,9.62,3.13,14.85,3.18.61,0,1.23,0,1.86,0,.36.41.59.65.61.66,3.27,3.37,8,4.5,12.66,5a29.42,29.42,0,0,1-8.38,5.92c-4.3,1.86-8.22,1.62-11.64-.72l-.68,1a11.87,11.87,0,0,0,6.7,2.17,14.9,14.9,0,0,0,6.1-1.35,31.58,31.58,0,0,0,9.46-6.88c.63.06,1.26.1,1.87.13a38.69,38.69,0,0,0,9.63-1,36.58,36.58,0,0,1,9.47-.94c3.27.23,10.39,1.79,11.78,3.79l1-.69C426.94,77,418.74,75.56,416.13,75.37Z"/><path class="cls-5" d="M360.34,137.65c.65-3.13-8.32-4.48-10.48-3.38a12.38,12.38,0,0,0,1.77,2c-.39,0-.85.1-1.23.06.45.2,1.2.78,1.66,1-.16.19-.3.46-.43.62.66.3,1.39.6,2,.84A19.46,19.46,0,0,1,352,140a37.38,37.38,0,0,1,3.91,2.33c1.31.71,2.79.55,4.15.91Z"/><path class="cls-5" d="M562.87,49.14l-4.44.48c-6.5,13.11-4.85,39.91-7.65,56.09-13.66.84-32,3.49-44.7,8l-.9.3a12.59,12.59,0,0,0-8.41,14.54,57.1,57.1,0,0,1,1.58,11.84l.39.31a15.37,15.37,0,0,1,3.23-.48c1.47-.08,2.95,0,4.42,0,.78,0,1.57,0,2.35-.07.39,0,.77-.07,1.15-.13.13,0,1.28-.28.6-.1a4.16,4.16,0,0,1,1.78-.1c11.88-2.17,25.69-6,37.64-7a4,4,0,0,1,1.33-.13l.32,0,2-.09c.73-.08,1.45-.19,2.17-.32.46-.09.9-.18,1.35-.29l.39-.09.3-.07.56-.15c0-.24-.07-.48-.09-.72l.28.66,1.86-.51c1.73-.5,3.47-1,5.23-1.48-.43-21.27-1-42.86-2.16-63.87,8.72-2.1,10.85-.72,19.36-2.44C581,52.63,569.39,53.34,562.87,49.14Z"/><path class="cls-5" d="M560.35,56.45c-4.16-2.52-9.12-6.08-14.26-6.08,2,.57,4.51,3.51,6.58,4.61,1.06.56,6.73,3.41,7.21,2.06Z"/><path class="cls-5" d="M562.69,50.07s-.18.45-.14.23c-1.8-4.46-7-6.74-11.21-8.26-.21,1.57,4,4.93,5.09,5.92s2.34,2.21,3.52,3.31c.54.5.89,1.39,1.18.75Z"/><path class="cls-5" d="M562.59,120.71c11.27-2.6,22.33-6.75,33.84-8.72-4.59,6.45-10.86,10.83-16.37,16.45-2.92,3-6.11,5.95-8.39,9.44-1.08,1.65-1.53,3.76-2.73,5.24,2.87-10.13,10.08-16.78,17.64-23.67a244,244,0,0,0-25.06,7.38Z"/><path class="cls-5" d="M558.77,127.92c8.65-.08,17.55-1.47,26.29-1.85,5.46-.23,11.33.2,16.77.32-9.77,2.4-18.4,10.4-26.49,16-4.71,3.28-8.81,6.52-11.75,11.45,2.79-11.2,14.63-14.78,21.08-23.1-4.61-1.33-10.84-.69-15.64-.42-4.54.25-9,.41-13.57.33Z"/><path class="cls-5" d="M503.79,132.43c-3,4.18-7.91,7.09-11.52,10.69s-6,8.14-9.45,11.87c-3,3.28-14.29,20.07-17.27,24.9.95-5.51,13-23.59,16-27.56,3.09-4.12,5.87-8.51,9.17-12.5,2.2-2.67,7.35-7.5,10.89-8.21Z"/><path class="cls-5" d="M513.69,133.64c-2.93.92-4.9,3.93-7.13,5.9a118.88,118.88,0,0,0-10.08,9.75c-4.89,5.47-9.43,11.35-14.2,17-3.25,3.82-6.55,7.59-9.59,11.56a37,37,0,0,1-3.29,3.62c2.39-10.73,24.64-36,27-38.58,3-3.31,6.12-6.27,9.18-9.37Z"/><path class="cls-5" d="M541.31,45c-1.91,0-3.73.06-5.47,0-.48,0-1-.06-1.42-.11l-.29,0a42.88,42.88,0,0,1-10.53-2.5c-3.42-2.21-2-6.8-.54-11.25.72-2.23,1.39-4.34,1.29-5.93l-1.2.08c.08,1.36-.56,3-1.23,5.11-1.11,3.45-2.4,7-1,10h0a12.55,12.55,0,0,1-5.66-4.25,8.83,8.83,0,0,1-1.11-7.76L513,28.14a10.44,10.44,0,0,0,1.28,9c1.84,2.7,5,4.76,8.69,6.21.28.17.3.5.63.65l-.22,0h0a57.59,57.59,0,0,0,9.09,2c-3.41,2.5-8.37,5.48-11.32,5.2a2.16,2.16,0,0,1-1.6-.87l-.91.72a3.49,3.49,0,0,0,2.52,1.28,5.75,5.75,0,0,0,1.24,0c4-.43,9.46-4.27,12.05-6.25a64.42,64.42,0,0,0,6.88.14c7.07-.12,14.39-.23,18.2,6.37l1-.6C556.41,44.77,548.39,44.9,541.31,45Z"/><path class="cls-5" d="M546.52,51.49a37.6,37.6,0,0,0-9.6,2.1,37.53,37.53,0,0,1-9.15,2.06l-.43,0-.91,0h-.16l-.92,0a37.06,37.06,0,0,1-5.5-.17l-.05-.39c-.6,0-2.95-1.94-3.7-3.23-1.34-2.32-1.11-4.87-.88-7.56a23.18,23.18,0,0,0,.1-4.71l-1.2.15a22.35,22.35,0,0,1-.09,4.46c-.25,2.76-.5,5.74,1,8.39a17,17,0,0,0,2.32,2.68h0c-2-1-3.76-1.37-5.34-2.63,0,0,0-.09,0-.11-.22-.17-.6-.53-1.09-1-.81-.73-1.88-1.76-2.88-2.81-2.63-2.78-2.61-3.59-2.6-3.65l0,0-.76-.94a1.15,1.15,0,0,0-.42.92c0,1.61,3.11,4.75,5.19,6.68-5.3.75-9.95-.18-15.58-1.31l-.62-.12L493,51.65l.63.13c5.24,1,9.92,2,15.12,1.41.61-.06,1.22-.15,1.84-.26.41.37.67.58.68.59,3.65,3,8.48,3.52,13.16,3.47a29.27,29.27,0,0,1-7.62,6.85c-4.06,2.37-8,2.59-11.65.67l-.56,1.07A11.94,11.94,0,0,0,511.47,67a14.92,14.92,0,0,0,5.9-2.06,31.64,31.64,0,0,0,8.59-8c.63,0,1.26,0,1.88-.09a38.68,38.68,0,0,0,9.44-2.11,37.34,37.34,0,0,1,9.29-2.05c3.27-.15,10.53.56,12.14,2.39l.91-.8C557.45,51.82,549.14,51.37,546.52,51.49Z"/><path class="cls-5" d="M498.42,119.9c.29-3.19-8.78-3.48-10.8-2.13a12.85,12.85,0,0,0,2,1.8c-.38,0-.83.19-1.2.2.46.15,1.28.63,1.76.81-.14.2-.25.49-.36.67.69.22,1.45.43,2.13.59-.33.4-1.09,1-1.49,1.39a38.71,38.71,0,0,1,4.15,1.85c1.38.55,2.83.22,4.22.42Z"/><path class="cls-5" d="M454.22,113.38c-7.92-.9-15.84-2.37-23.93-3.88-2.38-.45-4.85-.91-7.3-1.35l.09-.5,7.31,1.34c22.36,4.17,43.47,8.11,66.72.14a195.92,195.92,0,0,0,32-13.87c13.17-7.4,21.14-15.07,23.69-22.78l.49.16c-2.59,7.84-10.64,15.6-23.92,23.07a197,197,0,0,1-32.12,13.91C482.33,114.74,468.27,115,454.22,113.38Z"/><path class="cls-5" d="M288.84,137.2c-7.33-.83-12.77-3.35-16.59-7.67l.39-.35c4,4.56,9.92,7.07,18,7.67,7.1.53,15-.49,22-1.38,4.27-.55,8.3-1.06,11.87-1.22a224.62,224.62,0,0,0,49.79-8c12.74-3.46,21.78-9.94,31.35-16.81A163.69,163.69,0,0,1,423,98.06l.25.45A162.76,162.76,0,0,0,406,109.82c-9.6,6.89-18.68,13.4-31.52,16.89a226.2,226.2,0,0,1-49.9,8.06c-3.55.15-7.57.67-11.83,1.21-7,.9-15,1.92-22.12,1.39C290,137.32,289.42,137.27,288.84,137.2Z"/><path class="cls-5" d="M385.79,636.06c-50.79,5.25-100.13-5.87-135.17-17.43C198.42,601.4,157,576.5,139.09,559.46c-77.82-74.07-103-161.27-69-239.22,20.66-47.47,60.24-84.93,96.24-115.31,13.84-11.68,32.49-24.07,56.89-37.78l-.54-.5c-24.41,13.72-43.07,26.12-56.93,37.82-23.58,19.9-41.38,37-56,53.72C91.59,278.91,78.36,299.14,69.27,320a176.63,176.63,0,0,0-14.95,65.22,182.85,182.85,0,0,0,9.45,63,238.93,238.93,0,0,0,29.49,58.86,326.25,326.25,0,0,0,45.19,52.78c18,17.1,59.5,42.08,111.83,59.34,35.1,11.58,84.53,22.72,135.45,17.49Q385.75,636.41,385.79,636.06Z"/><path class="cls-5" d="M387.6,630.72q-5.6.39-12.2.4a397.16,397.16,0,0,1-48.91-3.51C291.63,623.2,260.57,616,253.43,612c-83.8-46.49-141.59-103.47-154.6-152.41-9.14-34.4-9.15-79.21,0-116.95,6.63-27.42,24.87-55.85,41-80.93,1.83-2.85,3.72-5.8,5.53-8.64,13.22-20.79,32-37.79,50.25-54.22,10.4-9.39,21.14-19.08,30.89-29.5l-.67-.37C216,179.39,205.33,189.07,195,198.44c-18.24,16.46-37.11,33.49-50.38,54.37-1.81,2.84-3.7,5.79-5.53,8.64-16.13,25.12-34.4,53.6-41.06,81.13a259.18,259.18,0,0,0-6.88,59C91,422.36,93.42,442.49,98,459.8c5.84,22,21.46,46.68,45.18,71.46a377.44,377.44,0,0,0,46.18,40.5,555,555,0,0,0,63.56,40.84c3.78,2.1,13.61,5,27,7.86,14,3,30.51,5.81,46.41,7.82a397.33,397.33,0,0,0,49,3.52q6.4,0,11.84-.37C387.33,631.19,387.46,631,387.6,630.72Z"/><path class="cls-5" d="M580.53,767.05c-1,12.49-11.5,31.47-14.71,44.88-.18.77-.34,1.51-.48,2.24-3.38.3-3.36-1.8-6.78-1.89.17-.56.35-1.13.54-1.7,4.17-12.78,12.3-29.89,16.51-44.29.67-2.27,1.24-4.46,1.68-6.57.11-.53.21-1.06.31-1.58s.2-1.17.29-1.74l.83,1.68.75,1.52.22.44A15,15,0,0,1,580.53,767.05Z"/><path class="cls-5" d="M376.18,717.64a172.62,172.62,0,0,0-10.45,14.6c-4.45,6.82-8.75,14-12.81,20.41-1.34,2.15-2.67,4.21-4,6.16a11.43,11.43,0,0,1-.7-8.08c1.73-6.61,8.32-12.91,12.53-19.29,3.4-5.16,5.24-10.38,1.68-15.87Z"/><path class="cls-5" d="M611.52,829.11c-23.47.82-40.43-9.41-63.8-14.21-53.41-11-102.64-18.51-154.84-37.37C352.14,762.81,283.74,742.79,300,703.7c11.78-3.07,24.52,2.4,24.89,5.9l-2.29,5c.58.18-1.61,3.52-4.42,2.24a25,25,0,0,0-1.72-3.36c-5.29-8.55-17.53-1.48-13.68,7.81,3.75,9,20.91,19.2,45.45,29.47q2.3,1,4.66,1.92c56.22,22.74,146.67,45.73,206.18,57.93l6.72,1.35c26,5.19,45.13,8,51,7.5C617.62,823.06,612.24,825.42,611.52,829.11Z"/><path class="cls-5" d="M690,655.63q-3,3.24-5.75,6.67l-.2.24c-.71.87-1.41,1.75-2.09,2.64-25.82,33.11-40.78,76.79-67.63,106.53-.68.32-13.71-1.53-33.83-4.66l-4.92-.76c-9.33-1.46-20-3.15-31.46-5l-5.09-.82c-29.21-4.7-63.27-10.27-95.28-15.51l-3-.5c-28.47-4.66-55.12-9-75-12.22l-4.94-.8c-17.85-2.85-29.18-4.59-29.74-4.46-2.34-24.4-4.92-47.23-8.76-70.55q-1.2-7.23-2.56-14.55c13.57,2.06,30.19,6.2,39.08,19.5s.65,36.4,17.3,44.7c38.46,19.16,29.9-37.65,39.69-51.77.23-.33.46-.65.7-1,16.38-21.72,52.44-6.85,74.49-5.61,31,1.75,63.67,2.49,94.3,4.1l1.46.08,1.78.08c30.12,1.25,61.08-6.47,89.77.06A83.6,83.6,0,0,1,690,655.63Z"/><path class="cls-4" d="M690.6,654.32c.69,3.36-6.94,7-6.8,10.74-52.16,3.48-123.39-5.3-176-10.74-17.14-1.78-71.48-13.93-81,.57-7.91,12-8.1,72.14-44.91,61.07-30.65-9.21-18.69-64.48-59.55-59.53q-1.2-7.23-2.56-14.55c13.57,2.06,30.19,6.2,39.08,19.5s.65,36.4,17.3,44.7c38.46,19.16,29.9-37.65,39.69-51.77,16-23.11,47-11.29,69.41-10,31.45,1.77,70.49,6,101.54,7.63C617.43,653.56,659.47,643.21,690.6,654.32Z"/><path class="cls-4" d="M470.62,725.45c-4,6.87-11.62,12.83-22.56,17.71q-2.12.95-4.28,1.8l-3-.5c11.26-4.15,23-10.35,28.51-19.8,3.5-6,4.25-12.81,2.24-20.34-1.9-7.08-8.14-13.77-16.7-17.9s-17.56-4.79-24.3-1.86c-6.07,2.65-10.2,5.92-12.27,9.74a12.84,12.84,0,0,0-.67,10.74c1.81,5.21,6.54,10.6,12.67,14.41s12.23,5.3,16.58,4.14c5.4-1.43,7.44-6.79,5.91-15.51-4.37-2.27-10.38-2.32-13-.06-1.43,1.22-1.74,3-.92,5.28l-1.47.53c-1-2.87-.55-5.36,1.38-7,3.21-2.74,10.14-2.71,15.12.06l.33.18.06.37c2.43,13.13-3.33,16.71-7,17.68a13.55,13.55,0,0,1-3.48.42c-10.19,0-24-9.57-27.65-20-1.85-5.33-2.52-15.32,13.8-22.42,7.15-3.12,16.72-2.42,25.6,1.87S471,696.4,473,703.91C475.14,711.87,474.33,719.11,470.62,725.45Z"/><path class="cls-4" d="M495,734.84a41.46,41.46,0,0,1-24.49-8.1l.91-1.27c14.31,10.21,32.25,10.35,48,.35A50.94,50.94,0,0,0,535.89,709c3.86-6.63,5.4-13.53,4.34-19.42-1.75-9.62-9.94-16.23-23.71-19.12-12.55-2.64-24.23,6.21-27.86,15.92-3,8.15-.16,15.65,7.71,20,6.57,3.68,11.53,4.34,14.32,1.94,3.11-2.69,3-8.7,1.28-13.24-1.32-3.5-3.37-5.69-5.34-5.69h0c-2.38,0-4.77,3.15-6.75,8.76l-1.48-.25c2.84-8,6-9.51,8.21-9.51h.05c2.68,0,5.23,2.23,6.81,6.42,1.85,4.89,2.09,11.53-1.73,14.83-2.33,2-7,3.26-16.11-1.82-8.6-4.81-11.75-13-8.41-22,3.86-10.31,16.29-19.73,29.65-16.92,7.46,1.56,13.41,4.22,17.67,7.91a21.12,21.12,0,0,1,7.26,12.46c1.15,6.34-.42,13.43-4.53,20.48a52.49,52.49,0,0,1-17,17.41,47.77,47.77,0,0,1-23.79,7.67Z"/><path class="cls-4" d="M572,738.76c-1.41,9.86-8.08,16.78-19.83,20.56a60.2,60.2,0,0,1-8,2l-5.09-.82a67.6,67.6,0,0,0,12.63-2.64c11.13-3.58,17.44-10.07,18.76-19.29a15.75,15.75,0,0,0-4-13.54c-4.73-5.12-13.33-8.07-21.9-7.52-8.13.52-16.4,5.78-19.65,12.5-2.51,5.17-1.89,10.72,1.77,16,3.48,5.06,8,7.11,12.37,5.63,3.47-1.18,6.08-4.42,5.93-7.38-.12-2.37-2-4.1-5.34-4.87l.35-1.53c4,.93,6.4,3.24,6.56,6.32.17,3.68-2.83,7.53-7,8.94-2.41.82-8.61,1.84-14.16-6.22-5.06-7.35-3.82-13.64-1.89-17.63,3.49-7.19,12.3-12.82,21-13.37,9-.58,18.11,2.56,23.15,8A17.5,17.5,0,0,1,572,738.76Z"/><path class="cls-4" d="M569.05,759.91c-2.45,0-4.9,0-7.32-.1l0-1.57c13.17.34,27,.06,38.64-4.28,13-4.85,21.11-14,24.67-28.05,5.11-20.16-10.54-33.88-24.57-41.84-8.42-4.78-15.74-7.29-21.76-7.48-5.19-.17-9.3,1.39-12.21,4.64-3.56,4-5.16,10.26-4.51,17.76a41.44,41.44,0,0,0,7.2,20c6.15,8.58,14.42,11.48,22.69,7.93,5.92-2.54,10-5.37,12.13-8.4a7.83,7.83,0,0,0,1.1-7.73c-1.34-3.4-5.09-6.75-10-8.94-4.74-2.11-9.61-2.73-12.69-1.63s-4.12,4-2.69,8.43l-1.49.48c-2.28-7.08,1.31-9.55,3.65-10.38,3.45-1.24,8.76-.6,13.86,1.66,5.4,2.4,9.36,6,10.87,9.81s1.7,11.37-14.08,18.14A19.13,19.13,0,0,1,585,730c-6.31,0-12.26-3.46-17-10.09-8-11.21-11.05-30.27-2.59-39.69,3.24-3.6,7.76-5.34,13.43-5.16,6.28.2,13.84,2.78,22.49,7.69,14.5,8.23,30.66,22.47,25.3,43.59-3.69,14.56-12.07,24.09-25.63,29.13C591.2,759.06,580.07,759.91,569.05,759.91Z"/><path class="cls-4" d="M635.51,714.46a21.69,21.69,0,0,1-8.29-1.74l.6-1.45c7.17,3,14,1.83,19.27-3.16,5.88-5.58,8.36-14.74,5.9-21.77-2-5.62-6.86-9-13.79-9.63-8.65-.74-14.39,1.89-15.73,7.22-1.14,4.56,1.34,10.24,5.22,11.91,3.11,1.35,6.31-.18,9.06-4.3-.81-1.84-1.62-1.89-3.3-2a17.11,17.11,0,0,1-2.39-.29l.32-1.53a14.32,14.32,0,0,0,2.17.25c1.93.13,3.59.24,4.81,3.37l.15.37-.22.34c-4.56,7.13-9.37,6-11.22,5.23-4.6-2-7.46-8.4-6.12-13.73.74-2.91,3.89-9.56,17.38-8.4,7.58.65,13,4.44,15.14,10.67,2.65,7.59,0,17.44-6.31,23.42A18,18,0,0,1,635.51,714.46Z"/><path class="cls-4" d="M463.59,686.47a16,16,0,0,1-7.12-2l.71-1.4c5.41,2.74,9.57,2.38,12.05-1,2.21-3,2.94-8.37,2-14.24s-3.63-11.61-7.06-15.07c-3.65-3.67-9.84-6.72-18.66-.39-5.57,4-6.83,11.37-5.19,16.27a9.2,9.2,0,0,0,9.47,6.54c4.79-.12,7.86-1.72,8.4-4.41a4.43,4.43,0,0,0-2.43-4.78c-2-.89-4.19.06-6.11,2.61l-1.25-1c2.37-3.13,5.36-4.29,8-3.09a6,6,0,0,1,3.33,6.52c-.34,1.64-2,5.48-9.9,5.66a10.68,10.68,0,0,1-11-7.6,16.54,16.54,0,0,1,5.77-18c10.22-7.34,17.35-2.8,20.68.56,3.71,3.74,6.44,9.54,7.5,15.92s.19,12.05-2.26,15.43A8.24,8.24,0,0,1,463.59,686.47Z"/><path class="cls-4" d="M562.54,264.5c.07-14.45-1-27.29-.32-39,1.42-23.95,35.78-26.36,40.68-2.87l.09.42c.42-2.45.88-5,1.4-7.49,4.66-22.91,37.94-20.91,39.81,2.39.22,2.75.3,5.44.25,8,2.8-16.58,21.8-54.14,43.25-47.94,17.61,5.09,20.79,84.39,20.79,84.39Z"/><path class="cls-4" d="M56.07,614.79c16.12,3.43,16.21,36.55,20.16,48.43,4.17-13,17.47-49,35.68-48.22,24.59,1,22,42.18,22,60.14,16.93-31,30.5-86.41,68.73-42.55C229.3,663.13,232.6,694.76,230,733c-6.44.93-149.15-3.15-196.36-3.62C33.67,729.41,30.81,609.43,56.07,614.79Z"/><path class="cls-5" d="M209.85,545.08c.55-19.6,2.19-38.31,3.83-57.46v-1.34c-3.28-26.28,1.09-52.12,1.09-78.4,0-25.84,0-51.23.55-77.51,0-8,1.64-16.48-.55-25.83-2.73.44-6,1.33-7.65,2.67A137.15,137.15,0,0,1,194,317a60.56,60.56,0,0,1-13.67,6.68c-3.28.89-6.56-.44-7.65-3.12a9.34,9.34,0,0,1,1.09-6.68c1.64-1.34,3.83-2.67,5.47-4,17.5-11.58,35.54-22.72,52.49-34.74,6-4,10.94-8.91,15.86-12.92s13.13-3.12,14.77,2.22c.55,4,1.64,8.47,2.19,13.37,0,8,1.09,16,1.09,24.05.55,3.12,0,7.13,0,11.14,0,1.34-1.09,2.67-1.09,4,2.73,18.71-2.19,37.42-1.64,56.13,1.09,12,1.09,24.05,1.64,36.08,2.73,25.39,2.73,51.67,2.73,77.06.55,13.81,0,28.51,0,42.77,0,4,1.64,8,2.19,12,1.09,5.35-.55,8.47-7.11,9.36a155.71,155.71,0,0,1-24.61,3.12c-3.28.89-7.66,0-10.94,1.33-5.46,1.34-10.39,0-17-2.67Z"/><path class="cls-5" d="M370.07,275.58c-8.75,0-18.05.89-27.89,1.34-10.39,0-21.33.89-32.81,1.33-.55,0-3.28,0-3.83-.44a10.5,10.5,0,0,1-4.92-4.9c-1.64-3.12.55-5.35,3.83-6.68,2.73-.45,4.92-1.34,8.2-1.34A317.13,317.13,0,0,0,363,263.11c8.75-.89,18.05-.89,24.61-6.24,9.84,3.57,19.68,2.67,29.53,2.23,7.11,0,9.84,1.34,10.39,7.13a45.45,45.45,0,0,1,1.09,14.7c-4.92,23.61-6.56,46.77-8.2,70.38-2.74,27.17-6,53.9-8.2,80.63a100.24,100.24,0,0,0-1.64,17.37c-1.1,13.36-1.64,26.73-2.74,40.09-.55,9.36-.55,18.71-3.28,28.06-1.64,6.69-.55,13.37-.55,20,0,8-4.92,13.36-14.22,16-5.46,1.33-11.48,2.67-18,.89-3.83-1.34-8.75,0-13.13,1.78-5.46,2.67-11.48-1.34-11.48-5.79v-1.34c6.56-33,4.92-65,9.3-97.55,2.18-25.39,7.11-50.79,10.39-77.07,1.64-13.36,3.28-26.73,4.92-39.2q2.46-24,4.92-46.77c1.09-4,0-8,0-12C374.44,275.58,372.8,275.58,370.07,275.58Z"/></g></g></svg>