<svg xmlns="http://www.w3.org/2000/svg" viewBox="0 0 832.5 832.5"><defs><style>.cls-1{fill:#ffffc5;}.cls-2{fill:#e55747;}.cls-3{fill:#5e4440;}.cls-4{fill:#deaa7c;}.cls-5{fill:#76b099;}</style></defs><g id="Layer_2" data-name="Layer 2"><g id="Layer_1-2" data-name="Layer 1"><rect class="cls-1" width="832.5" height="832.5"/><path class="cls-2" d="M814.1,405.89c-5.62,21.59-22.87,39.94-45.56,54.87C744.94,476.28,715.46,488.09,687,496l-4.83,1.31h0c-11,2.9-21.8,5.22-32,6.93-3.35.57-6.64,1.07-9.84,1.5a222.11,222.11,0,0,1-26.21,2.12c-1.09,0-2.16,0-3.22,0a54.73,54.73,0,0,1-5.56-.49c-42.44-5.89-52.12-58.88-35.43-79.56,5-6.17,11.06-10.58,17.49-14.43,3-1.81,6.13-3.49,9.24-5.17,4.75-2.57,9.52-5.14,14-8.13a61,61,0,0,0,12-10.25,50.26,50.26,0,0,0,8.7-13.78q1-2.25,1.76-4.6a70.83,70.83,0,0,0,2.12-7.53,96.88,96.88,0,0,0,2-24.21c-.11-3.47-.37-7-.76-10.58h0A187.9,187.9,0,0,0,632,304q-.93-3.75-2-7.52c-2.93-10.4-6.58-20.89-10.64-31.25q-2.6-6.58-5.38-13.07c-4.27-9.94-8.82-19.64-13.39-28.86-1.31-2.65-2.62-5.27-3.93-7.83-4.35-8.55-8.65-16.61-12.65-24l-4-3.3c45-9.28,85-54.64,130.58-63.52,7-1.37,15.45,9.52,24.69,27.37,3.1,6,6.29,12.74,9.56,20.09,4.2,9.44,8.52,19.84,12.93,30.78q2.71,6.75,5.47,13.75c3.74,9.5,7.53,19.25,11.33,29l3.35,8.55q.87,2.25,1.76,4.47c2.52,6.36,5.06,12.66,7.57,18.88h0q2.1,5.2,4.16,10.36c5.92,14.82,11.47,29.2,15.87,43.07C815.81,358.08,820,383.19,814.1,405.89Z"/><path class="cls-3" d="M700.2,128c-1.56-24.25-1.05-60.68,6.23-75.45,6.54,18.85,11.14,53.37,8.19,74.11Z"/><path class="cls-4" d="M814.1,405.89c-5.62,21.59-22.87,39.94-45.56,54.87C725,430.13,762.63,360.7,807.24,331,815.81,358.08,820,383.19,814.1,405.89Z"/><path class="cls-3" d="M744.8,172.15c-42.27,25.53-99.58,33.31-144.2,51.16-1.31-2.65-2.62-5.27-3.93-7.83,40.6-16.37,100-50.88,138.57-63.42C738.34,158.05,741.53,164.8,744.8,172.15Z"/><path class="cls-5" d="M763.2,216.68c-45.53,20-98.91,28.64-143.83,48.56q-2.6-6.58-5.38-13.07c34.77-11.09,76.43-25.54,102.66-35.36,13.55-5.07,27.45-9.34,41.08-13.88Q760.45,209.68,763.2,216.68Z"/><path class="cls-3" d="M779.64,258.71C730.54,275,680.63,287.3,632,304q-.93-3.75-2-7.52c46.8-13.68,99-31.39,144.52-50.8l3.35,8.55Q778.75,256.49,779.64,258.71Z"/><path class="cls-5" d="M791.37,288c-2.31.52-4.59,1.05-6.78,1.67-10.43,2.9-20.77,6.14-31.14,9.31q-24.09,7.37-47.92,15.25c-13.9,4.62-28,8.93-41.76,14-8.62,3.17-16.95,7.11-25.26,11l-1.13.5c-.11-3.47-.37-7-.76-10.58h0c31.43-12.05,64.54-24.93,97.6-33.23,15.42-3.86,29.87-9.66,44.69-15.25,2.74-1,5.54-2,8.3-3Q789.31,282.8,791.37,288Z"/><path class="cls-3" d="M610.93,507.84a54.73,54.73,0,0,1-5.56-.49c-1.21-5.51-2.49-11-3.5-16.25-4.93-25.62-10.85-51.68-14.44-77.74,3-1.81,6.13-3.49,9.24-5.17,1.5,6.42,3.36,12.67,3.94,16.57,2,13.36,3.09,27,4.69,40.45,1.24,10.37,2.05,20.81,3.38,31.18C609.12,499.84,610,503.77,610.93,507.84Z"/><path class="cls-5" d="M650.2,504.26c-3.35.57-6.64,1.07-9.84,1.5-1.31-4.52-2.38-9.12-3.52-13.59-4.14-16.29-8.69-32.55-12.8-48.89-3.42-13.59-9.81-28.56-13.34-43.22a61,61,0,0,0,12-10.25c1.07,3.46,2.19,6.89,3.21,10.32,4.46,15,7.19,30.4,10.16,45.76,2.52,13.05,4.55,26.24,7.85,39.08C645.34,490.31,648.19,497.33,650.2,504.26Z"/><path class="cls-3" d="M687,496l-4.83,1.31h0c-2.08-6.53-5.17-12.85-7.87-18.84-6.72-14.95-13.18-29.95-18.65-45.42-7.24-20.43-14.28-41.45-22.44-61.64a70.83,70.83,0,0,0,2.12-7.53,1088.11,1088.11,0,0,1,43.15,106.18C681.32,478.24,683.81,487.37,687,496Z"/><path class="cls-3" d="M575,385.33c-4.88,24.63-22.84,45.16-44,61.41a27,27,0,0,1-1.74-2.08c-22.73-30,1.93-121,34.94-128.27a20.22,20.22,0,0,1,2.67-.39C575.15,340.41,579.28,363.67,575,385.33Z"/><path class="cls-3" d="M566.83,316c-1.82-5.38-3.86-10.82-6.06-16.3-5.65-14.17-12.36-28.68-19.34-43.46l-4.13-8.73q-2-4.11-3.95-8.33c-2.28-4.83-4.59-9.73-6.85-14.63q-3.64-7.87-7.26-15.75c-4.73-10.26-9.36-20.31-13.87-30-3.5-7.48-6.93-14.72-10.28-21.61-20.25-41.63-37.64-70.86-50.41-67.51-24.57,6.44-47.27,23-69.21,39-21.27,15.53-43.27,31.6-66.61,38l3.93,5.22-.16.11c13.1,21,27.49,45.33,39.54,70.35h0c4.05,8.38,7.83,16.84,11.2,25.28a268,268,0,0,1,11,33.1A172,172,0,0,1,378.48,322h0c1.51,12.19,1.34,23.78-1,34.42a72.71,72.71,0,0,1-2.51,8.72c-6.71,18.69-20.13,27.06-34.33,35.93-8.19,5.11-16.6,10.36-23.49,17.78a56.63,56.63,0,0,0-4.59,5.62c-9.62,13.52-9.37,37.07.63,56,9.51,18,25.9,28.35,45.65,29.1a64,64,0,0,0,7.3-.15c4.81-.38,9.86-1,15.09-1.76,33.33-5,73.87-18.08,107.51-35a267.32,267.32,0,0,0,42.22-26c21.2-16.25,39.16-36.78,44-61.41C579.28,363.67,575.15,340.41,566.83,316Zm5.57,68.77c-4.73,23.94-22.36,44-43.18,59.89a264.87,264.87,0,0,1-41.62,25.55c-37.12,18.62-77.71,30.18-106.83,34.69-5.37.83-10.34,1.42-14.83,1.77-21.91,1.71-40.3-8.32-50.44-27.53-9.51-18-9.85-40.3-.81-53a52.74,52.74,0,0,1,5.36-6.38c6.48-6.63,14.32-11.53,21.95-16.29,14-8.72,28.41-17.74,35.44-37.33a72.83,72.83,0,0,0,2.92-10.56,104.57,104.57,0,0,0,1-31.72,172.14,172.14,0,0,0-4.55-24.23,271.84,271.84,0,0,0-11-33c-3.28-8.17-6.91-16.35-10.8-24.46h0c-12-25.15-26.42-49.57-39.6-70.71C338,164.32,356.26,146.14,377,131c21.76-15.87,44.24-32.29,68.35-38.61,6.7-1.75,16.94,9.5,30.46,33.43,5.55,9.85,11.36,21.23,17.39,33.62,2.86,5.88,5.76,12,8.72,18.28,4.87,10.37,9.86,21.21,14.94,32.26q3.63,7.88,7.27,15.76c2.24,4.83,4.5,9.65,6.75,14.4q2.05,4.33,4.07,8.59l5.67,12C547,274.21,553,287.46,558.19,300.4c2.16,5.39,4.17,10.72,6,16C572.46,340.59,576.61,363.55,572.4,384.77Z"/><path class="cls-3" d="M443.67,89.94c-3.35-8.82-5.29-42.92-4.21-68.06,9.4,22,8.34,51.65,8.32,81.72Z"/><path class="cls-3" d="M495.09,157.24a22.17,22.17,0,0,1-1.91,2.21c-7.62,7.7-18.93,5.86-40.56-13.46-5.23,14.09-8.2,30.76-13.43,45.93-9.87-7.42-22.76-16.78-33.77-21.6-5.27,17.43-11.14,34.43-16.24,52-9.91-6.78-20.29-11.18-27.8-22.66-4.65,12.42-4.24,27.92-6.4,42.51h0c-.11.76-.23,1.51-.35,2.27l-2.46-2h0c-6.58-13.67-13.86-27.13-21.25-39.95h0c-1.15-2-2.3-4-3.46-5.94Q323,189,318.67,181.85l-2.31-3.76q-1.87-3-3.73-6l.16-.11-3.93-5.22c23.34-6.39,45.34-22.46,66.61-38,21.94-16,44.64-32.58,69.21-39,9.88-2.59,22.52,14.31,37.11,41.37l1.91,3.57q3,5.78,6.2,12.06l1.7,3.42C492.75,152.47,493.92,154.83,495.09,157.24Z"/><path class="cls-3" d="M381.23,507.66c-5.23.79-10.28,1.38-15.09,1.76a64,64,0,0,1-7.3.15c-19.75-.75-36.14-11.08-45.65-29.1-10-18.9-10.25-42.45-.63-56a56.63,56.63,0,0,1,4.59-5.62c1,.27,2,.55,2.9.88,31.09,10.4,54.77,52.49,60.72,85.14C380.94,505.83,381.09,506.75,381.23,507.66Z"/><path class="cls-3" d="M533.35,239.18c-.82.33-1.66.65-2.49,1-26.13,10.19-53.2,18.81-78.53,29.29-23.34,9.66-50.76,18.19-75.55,30.19l-2.39,1.18a268,268,0,0,0-11-33.1c.1-.46.2-.92.28-1.38a13.39,13.39,0,0,1,2.13.28c10.59,2.22,24.2,16.33,33.65,21.84.37-14.53,8.93-27.81,8.88-43,11,1.2,22.8,10.43,33.1,15.24-.58-13.89,3.82-28.53,4.28-42.69,14.34,1.9,24.33,17.21,36.93,23.34-1.41-11.83,1.41-25.46,1.33-37.59,0-6.67-2.54-23.18,4.33-26.66,3-1.52,7.89-1,13.62.67,1.13.33,2.28.7,3.47,1.12,4.51,9.64,9.14,19.69,13.87,30q3.62,7.86,7.26,15.75C528.76,229.45,531.07,234.35,533.35,239.18Z"/><path class="cls-3" d="M560.77,299.7l-2.58.7c-8.44,2.27-16.35,4.06-21.14,5.64-24.73,8.16-48.38,18.7-73.28,26.48-27,8.45-55.81,14.85-83.41,23.06-1,.29-1.93.57-2.88.87,2.34-10.64,2.51-22.23,1-34.42l2.85,1.83c7.71,4.95,18.52,11.7,24.19,14.45,2.28-5.94,12.06-32.32,12.06-32.32s27.36,15,37.22,15.55c.75-6.19,4.45-26.81,4.45-26.81s12.8.69,22.21,5.91c8.75,4.85,17.37,12.91,23.61,4.12,5.38-7.59,3.63-25.72,6.2-35.12,9.57,3.18,19.69,13.07,27.14,20.63,4.11-8.55,1.16-19.83,2.19-29.55a26.44,26.44,0,0,1,.83-4.48C548.41,271,555.12,285.53,560.77,299.7Z"/><path class="cls-1" d="M491.6,150.15c0,.53-.06,1-.08,1.56l-.06,1.88L490,152.52a87,87,0,0,0-13.57-7.39c-2.64-1.24-5.37-2.53-7.95-3.92-2.19-1.18-4.69-2.88-7.34-4.68-6.38-4.32-13.56-9.19-19.36-9.12a126.77,126.77,0,0,1-11.07,42.83l-.85,1.83-.92-1.79c-3.82-7.51-23.27-15.44-27.83-17.21-1.15,3.72-5.06,16.26-6.6,20.08-1.3,3.2-2.9,6.36-4.44,9.43-2.73,5.4-5.56,11-6.75,16.87L383,201l-1.24-1c-3.39-2.63-6.92-5.18-10.34-7.65-6.08-4.42-12.37-9-18.18-14.12-5.47,8.72-7.8,28-8,39.21l-.06,2.82-1.71-2.19c-1-1.25-2-2.63-3.1-4.09a130.46,130.46,0,0,0-9.39-11.58h0c-1.15-2-2.3-4-3.46-5.94,5.43,4.25,10.3,10.76,14.42,16.26l1.41,1.88c.51-11,2.83-30,8.93-38.51l.64-.89.81.73a222.89,222.89,0,0,0,18.86,14.72c3,2.2,6.13,4.45,9.17,6.76,1.39-5.57,4-10.8,6.58-15.86,1.52-3,3.1-6.15,4.36-9.27,1.75-4.32,6.81-20.76,6.87-20.93l.3-1,1,.35c1,.35,22.46,8.35,28.87,16.94a125.12,125.12,0,0,0,10.18-41.34l.06-.87.84-.08c6.6-.67,14.49,4.68,21.46,9.4,2.61,1.77,5.07,3.44,7.17,4.57,2.53,1.37,5.24,2.64,7.86,3.87a99.89,99.89,0,0,1,12.41,6.58q.11-1.5.27-3.09Z"/><path class="cls-1" d="M483.7,134.67c-13.09-8.3-35.64-18.2-51-17.31A103.44,103.44,0,0,1,429,129c-2.14,6-4.34,12.14-4.52,17.87l-.05,1.78-1.46-.93c-6.81-4.37-25.49-9.16-29.63-10.19-2,5.17-12.88,32.12-19.63,40.69l-.62.79-.77-.63c-8.62-7.14-21-14.4-30.34-13.7a198.56,198.56,0,0,1-11.25,25.78l-.57,1-.89-.71c-1.58-1.24-3.1-2.61-4.57-3.92a68.41,68.41,0,0,0-6-5l-2.31-3.76c3.58,1.75,6.63,4.5,9.63,7.19,1.16,1,2.35,2.11,3.57,3.12a207.42,207.42,0,0,0,10.78-25.07l.21-.59.61-.07c9.7-1.09,22.52,6.11,31.6,13.45,7.21-10,18.93-39.88,19.05-40.19l.32-.81.82.2c.9.21,20.78,5,29.64,9.8.5-5.55,2.55-11.28,4.55-16.85a94.67,94.67,0,0,0,3.75-12.11l.15-.75.74-.07c14.75-1.19,36.19,7.63,50,15.76Z"/><path class="cls-4" d="M371.24,448.09l13.86-.92c-2.63-5.09-5.15-10.69-8.89-14.74A59.46,59.46,0,0,0,371.24,448.09Z"/><path class="cls-4" d="M456.05,469.92l23.17-5.54c-1.25-4-11.46-13.21-13-17.21C463.09,454.79,459.51,462.43,456.05,469.92Z"/><path class="cls-4" d="M423.62,422.2l11.31-4.85,13.25-3.19c-1.37-5-11.88-8.84-13.63-13.5C431.09,407.9,428.4,415.75,423.62,422.2Z"/><path class="cls-4" d="M386.08,380.42c-2.42,5.08-3.31,11.43-3.75,17.34L395,392.47C390.64,390.06,387.48,385.08,386.08,380.42Z"/><path class="cls-4" d="M500.19,346c-.22,7.71-2.46,15.5-5.15,22.79l18.82-6.13C512.34,356.06,506.14,349.19,500.19,346Z"/><path class="cls-4" d="M447.48,354.9c-1.87,6.65-9.78,14.58-9.92,21.59l28.38-2.34C459.78,369.13,455.1,355.33,447.48,354.9Z"/><path class="cls-4" d="M495.43,399.27c-1.9,6.88-3.24,14.14-7.87,19.78L505.71,414C501.78,410,498.77,403.1,495.43,399.27Z"/><path class="cls-4" d="M403.83,469.42l22-6.42c-2.33-4.19-12.7-9-15.39-12.42C407.06,458.07,406.54,461.39,403.83,469.42Z"/><path class="cls-3" d="M285,412c-18.31,70.3-151.44,108.56-214.54,109.42C17,522.18,3.93,459.15,23,435.51,41.88,412.17,75.19,412.24,89,380c15.56-36.34.51-88.81-20-135.77-10-22.87-21.24-44.44-30.9-62.2l-4.34-3.54c48.28-10,91.23-58.63,140.11-68.14,11.58-2.26,26.65,26.5,43.12,65.71,9.38,22.3,19.21,48,29.1,73.27C270.09,310.53,297,365.91,285,412Z"/><path class="cls-3" d="M179.15,116.23l-23.54,5c-.07-1.15-.13-2.29-.19-3.44-1.09-25,3.53-51.17,17.18-65.53,5.27,17.8,7.32,36.64,6.86,56.32Q179.35,112.38,179.15,116.23Z"/><path class="cls-2" d="M217,176c-5.67,5.53-14.34,10.79-26.84,16C149.84,208.63,105.88,223.38,69,244.21c-10-22.87-21.24-44.44-30.9-62.2l-4.34-3.54c48.28-10,91.23-58.63,140.11-68.14C185.47,108.07,200.54,136.83,217,176Z"/><path class="cls-4" d="M240,389.38a36.14,36.14,0,0,1-9.54,6.21c-.67-1-1.3-2.12-1.9-3.23-6.88-12.7-9.6-29.73-17.53-42,.42,14.9,8.44,30.17,10.42,45.29a48.58,48.58,0,0,1,.43,5.36,16.33,16.33,0,0,1-5.53-.19c-.22-1.3-.46-2.6-.72-3.92-2.82-14.57-7.49-30.3-7.41-45.43-8.2,7.23-20.1,9.63-29.68,15.17,4.7,14.69,16.49,25.66,22.61,39.39.6,1.33,1.13,2.69,1.61,4.08a37.35,37.35,0,0,1-11.61,3.28,26.22,26.22,0,0,0-.7-3.31c-3.54-13.28-18.17-45-24.93-41.53,1.6,9.35,5.38,17.69,9.1,26.57,2,4.78,7.63,14,7,19.14-.36,2.8-2.58,4.39-8.28,3.37-.07-.92-.16-1.86-.28-2.82-3-26-20.13-62.33-29.93-83.17-.23,6.13-.33,12.35-.82,18.41-8.63.17-20.16,1.3-27.84-2.31-.31-13,1.11-29.65-1.17-40.41l-2.18-5c4.6-3.63,18.27-7.21,24.5-6.2,8.74,1.4,6.65,1.51,11.06,8.47,3.43,5.41,5.78,11.89,7.66,18.09,3.25,10.78,1.26,14.41,11,14.93,12.57.66,34.31-19.6,45.52-12.2,4.75,3.14,9,21.5,11.21,26.59,4.87,11.13,10.09,22.76,15.8,33.43C238.56,386.79,239.28,388.09,240,389.38Z"/><path class="cls-4" d="M115.84,301.31c-4.87-.66-10.63-12.57-17-15.24,1.47,7.78,8.19,24.92,15.46,25Z"/><path class="cls-4" d="M140.7,298.56c5.06-3.05,8.26-8.22,12.29-12.62-.56,9.12-5.07,17.62-6.87,26.46-1.3,2.53-.15-.53,0-1.33Z"/><path class="cls-1" d="M167.47,343.85h0S167.45,343.88,167.47,343.85Z"/><path class="cls-1" d="M169.71,337c-.81,1.75-2,6.48-2.24,6.86l7,.26C173.77,342.18,171.33,339.05,169.71,337Z"/><path class="cls-1" d="M187.59,332.4c-1.91,2.52-2.4,6.28-2.36,8.43l6-2.24C190,336,188,335.65,187.59,332.4Z"/><path class="cls-1" d="M177.86,349.16l7.07.27c-1-1.94-3.75-4.39-4.49-6.5C180,344.1,178.09,348.13,177.86,349.16Z"/><path class="cls-1" d="M200.62,330.53a19.21,19.21,0,0,0-4.71,8.24l8.29-.92A20.48,20.48,0,0,0,200.62,330.53Z"/><path class="cls-4" d="M209.38,324.52c7.45-1.07,13.93,4.27,17.24,10.25-3.27,1.85-6.33,4.2-9.55,6Z"/><path class="cls-3" d="M134.58,347.81c.51-16.71,7.81-35.59,11.38-43.89-.22-.46-.45-.92-.67-1.37-3.44,7.86-11.35,27.74-11.86,45.31,0,.84,0,1.68,0,2.51a63,63,0,0,1-10.31-1.52c-.16-.8-.34-1.62-.52-2.47-.51-2.28-1.08-4.74-1.67-7.29-2.88-12.37-6.46-27.77-5.49-38.6l-1.15-.1c-1,11,2.62,26.52,5.52,39,.55,2.42,1.1,4.74,1.58,6.92.24,1.1.47,2.17.68,3.19l.08.38.36.08A64.25,64.25,0,0,0,134,351.61l.63,0,0-.66C134.54,349.94,134.55,348.88,134.58,347.81Z"/><path class="cls-1" d="M119,311.27c0,.11,1.76-4.87,2.84-7.14a19.79,19.79,0,0,1,5.37,8.68Z"/><path class="cls-1" d="M122,319.45c1.3.27,2.1-1.85,3.38-2.48.82,1.31,1.27,3,2.15,4.14Z"/><path class="cls-1" d="M132.94,310.82a67.2,67.2,0,0,0,2.6-8.65c1.13,1.63,1.66,5.48,1.91,7.65Z"/><path class="cls-3" d="M139,336.67a5.83,5.83,0,0,0,.33-2.32c-.52,0-1-.06-1.56-.08l-.18.5c0,.27-.07,1-.08,1.78C138,336.58,138.52,336.63,139,336.67Z"/><path class="cls-3" d="M117.37,335.89a3.4,3.4,0,0,0-.13-2.55c-.68.05-1.36.12-2,.19L115,334c.08.44.16.92.25,1.42A11.63,11.63,0,0,0,117.37,335.89Z"/><path class="cls-4" d="M115.72,283.26c-.15,4.26,1,12.21-.65,16.65.21,0,.42,0,.66,0a2.27,2.27,0,0,1,.46,0c.5-.06,1-.15,1.48-.24.15-7.48.24-14.9.5-22.38v-.22c1.26-.7,2.73-1.4,3.85-2.11,2.56-1.64,6.4-5.52,9.51-5.34.13-1.58.13-3.2.23-4.8-2.1,1.35-4.17,2.92-6.18,4.47-1.77,1.36-5,5.12-7.34,6.22.14-3.86.35-7.68.7-11.5.87-1.41,1.87-3.34,2.65-4.63,1.09-1.83,2.09-3.74,3.31-5.48.95-1.36,3-2.73,3.41-4.13a20.68,20.68,0,0,1-2.18-1.35c-2.86,3.63-3.8,9.42-6.85,12.91l-.09.28c0-.41.08-.82.13-1.23.6-5,1.74-10.62,1.61-15.56a4.6,4.6,0,0,0-2.15-.08c-.75,2.42-.58,5.27-.9,7.82-.55,4.32-1.4,8.5-1.54,12.89l-.12,3.48a72.13,72.13,0,0,0-3.94-9.1c-1.32-2.78-2.82-5.35-3.92-8.21a6.11,6.11,0,0,1-2.17,1.69c.06,1.79,1.85,3.79,2.7,5.45.58,1.15,1.1,2.32,1.57,3.5-3.2-.56-8.31-3-10.39-3.88a5.76,5.76,0,0,0,.28,1.9,12.86,12.86,0,0,1,6.56,2.18,38.14,38.14,0,0,0,4.37,1.94c.28.8.55,1.6.81,2.41a64,64,0,0,0,3.93,7.81Z"/><path class="cls-4" d="M145.79,262.81c1.26-1.89,3.26-3.12,4.32-4.93-.27-.63-.73-1.47-1.08-2.11a65.36,65.36,0,0,0-4.33,5.69c-.19.29-.37.58-.55.88-.1,0-3.52,8.07-5.9,11.28.49-9.08.89-18.18.8-27.27a3.75,3.75,0,0,0-1.6,0,90.54,90.54,0,0,0-1.29,12.64,57,57,0,0,0-5.41-6,3.6,3.6,0,0,0-1.47,1.12c1.82,3.08,6.8,7.34,6.8,7.34-.14,5.76,0,11.57-.09,17.36l-.14.44c-2.27-2.42-8-4-10.24-5.41-.23.63-.51,1.61-.66,2.2,2.67,1.67,10.94,6.42,10.94,6.42a90.17,90.17,0,0,1-1.36,13.31c.43,0,.86,0,1.3,0a1.89,1.89,0,0,1,1.26.51c.26-6.72.65-13.45,1-20.19,1.15-1.94,2.37-4.05,2.79-4.77,1.42-2.4,2.73-4.91,4.15-7.3,2.3,1.86,7.69,3.24,9.81,3.59A13.88,13.88,0,0,1,156,264.5,66.28,66.28,0,0,1,145.79,262.81Z"/><path class="cls-2" d="M181.59,414.3c-.36,2.8-2.58,4.39-8.28,3.37-.07-.92-.16-1.86-.28-2.82A48.62,48.62,0,0,0,181.59,414.3Z"/><path class="cls-2" d="M202.75,410.15a37.35,37.35,0,0,1-11.61,3.28,26.22,26.22,0,0,0-.7-3.31c2.54-.91,5-2.27,7.61-3,.43-.12,1.84-.71,3.09-1.08C201.74,407.4,202.27,408.76,202.75,410.15Z"/><path class="cls-2" d="M221.87,401.05a16.33,16.33,0,0,1-5.53-.19c-.22-1.3-.46-2.6-.72-3.92a40.61,40.61,0,0,1,5.82-1.25A48.58,48.58,0,0,1,221.87,401.05Z"/><path class="cls-2" d="M240,389.38a36.14,36.14,0,0,1-9.54,6.21c-.67-1-1.3-2.12-1.9-3.23,2-1.31,5.83-5.11,9.31-6.89C238.56,386.79,239.28,388.09,240,389.38Z"/><path class="cls-2" d="M134.58,351.65l-.63,0a64.25,64.25,0,0,1-11.47-1.67l-.36-.08-.08-.38c-.21-1-.44-2.09-.68-3.19l1.21.09a60,60,0,0,1,6.45.78,31.79,31.79,0,0,0,4.41.7,7.27,7.27,0,0,0,1.15-.05c0,1.07,0,2.13,0,3.18Z"/><path class="cls-5" d="M79.25,477.38c-3.58,5.92-3.87,14.67-3.78,21.51L89,491.5C86,487.2,83.64,480.41,79.25,477.38Z"/><path class="cls-5" d="M57.18,446a2.29,2.29,0,0,0-1.42-.29c-1.38,3.8-1.83,8.06-3.49,11.83L64.61,457C61.49,454.22,59.37,449.78,57.18,446Z"/><path class="cls-5" d="M122.74,447.32l15.2-1.41c-2.36-6.65-5.58-13-7.84-19.72C126.33,432.06,124.8,440.91,122.74,447.32Z"/><path class="cls-5" d="M95.71,405.82c-3.17,2.57-2.94,7.93-4.15,11.67L104.77,419C101.16,415.77,98.35,410.3,95.71,405.82Z"/><path class="cls-5" d="M194.38,452.28c-4.62,6-7.09,13.63-12.79,19L200,461.1C197.37,458.94,195.68,455.57,194.38,452.28Z"/><path class="cls-5" d="M236.83,271.77c-3.43,5.83-5.87,12.47-9.17,18.44L243,285.85C239.4,282.27,239.24,275.92,236.83,271.77Z"/><path class="cls-5" d="M182.36,283.84c-1.8,3-2.43,7.07-4.11,10.44l10.45-.6C186.32,290.44,184.89,286.89,182.36,283.84Z"/><path class="cls-5" d="M197.61,227.81l13.14,3.46c-1.06-6.43-4.21-14.23-6.67-20.07A36.35,36.35,0,0,1,197.61,227.81Z"/><path class="cls-5" d="M269.35,366c-5.2,2.73-7.52,9.41-7.9,15.45L274.9,376C272.43,373.45,271.36,369.49,269.35,366Z"/><path class="cls-1" d="M201.44,142.88c-15.13-4.32-36.66-11.2-36.93-11.29l-1.33-.42-.63,1.28c-.58,1.16-13.51,27.39-17.41,37.38a138.31,138.31,0,0,1-16.59-4.9c-9.23-3.16-18.77-6.42-29.21-6.15l-1.17,0L97.81,160c-.74,2.39-1.58,4.85-2.47,7.46-2.59,7.53-5.48,16-6,23.92-10.23-5-25.71-8.12-37.34-7.4L51,184l-.38,1a56.12,56.12,0,0,0-2.18,7.59c.19.44.38.87.56,1.3l1.86,3.7a62.59,62.59,0,0,1,2.47-10.3c11.75-.45,27.69,3.1,36.85,8.28L92.6,197l0-2.93c-.07-8.14,3-17,5.88-25.5.76-2.21,1.48-4.32,2.14-6.39,9.41,0,17.93,2.92,26.93,6a127.46,127.46,0,0,0,18.38,5.28l1.36.25.48-1.35c2.66-7.48,14.27-31.27,17.12-37.07,5.34,1.7,25.06,7.94,38.28,11.63C202.56,145.59,202,144.24,201.44,142.88Z"/><path class="cls-1" d="M209.94,162.43c-10-2.36-20.22-4.22-30.25-3.83l-1,0-.41,1c-2.71,6.51-4,13.42-5.33,20.11C172.29,183,171.7,186,171,189a92,92,0,0,1-14.7-4.58c-2.77-1-5.63-2.09-8.4-3-3.47-1.08-17.65-6.25-17.8-6.3l-1.41-.52-.63,1.42c-.42.95-9.74,22-12.32,31.33-10.84-1.51-43.27-6.16-43.61-6.21L70.67,201l-.38,1.46c0,.08-2.18,8.27-5,16.38-.64,1.86-1.25,3.48-1.81,4.92.62,1.44,1.23,2.87,1.82,4.31.95-2.17,2-4.8,3.09-8,2.17-6.22,4-12.48,4.71-15.24,6.77,1,35.67,5.12,43.65,6.21l1.49.21.33-1.53c1.51-6.83,9.54-25.46,11.85-30.76,3.73,1.36,13.61,4.93,16.52,5.84,2.69.84,5.38,1.84,8.23,2.9,5.51,2.05,11.21,4.18,16.81,5l1.43.21.39-1.46c.94-3.56,1.66-7.34,2.37-11,1.18-6.16,2.41-12.52,4.71-18.41,10.09-.22,20.49,1.87,30.72,4.35C211.06,165,210.5,163.73,209.94,162.43Z"/><path class="cls-5" d="M330.79,805.45c.56-19.41,2-37.93,3.43-56.9v-1.32c-2.48-26,1.19-51.61,1.35-77.64.15-25.58.3-50.73.9-76.75,0-7.94,1.42-16.32-.29-25.59-2.2.43-4.85,1.29-6.18,2.61a117.61,117.61,0,0,1-10.64,9.64,45.57,45.57,0,0,1-11.06,6.55,4.75,4.75,0,0,1-6.15-3.12,11.12,11.12,0,0,1,.92-6.62c1.33-1.31,3.1-2.62,4.43-3.94C321.67,561,336.29,550,350,538.21c4.87-3.94,8.87-8.77,12.86-12.71s10.6-3,11.89,2.27c.42,4,1.27,8.39,1.68,13.25,0,7.94.79,15.89.74,23.83.43,3.09,0,7-.06,11,0,1.33-.9,2.65-.91,4,2.1,18.54-2,37-1.65,55.58.81,11.91.74,23.82,1.11,35.74,2.05,25.16,1.89,51.18,1.74,76.33.36,13.68-.17,28.23-.25,42.35,0,4,1.27,7.95,1.69,11.92.85,5.3-.49,8.38-5.78,9.23a102.54,102.54,0,0,1-19.86,3c-2.65.87-6.17,0-8.82,1.27-4.42,1.3-8.38-.05-13.65-2.73C330.77,809.42,330.78,807.21,330.79,805.45Z"/><path class="cls-5" d="M431.39,640.61c-14-14.64-20.53-31.45-19.52-51.73,0-2.65,0-5.3,0-7.94,1.44-19.41,12.55-33.9,32-39.52,9.27-2.59,19-5.18,29.14-7.32.44-.44,2.64-.43,4,0,9.25,2.26,18.5,3.64,27.74,6.78,21.11,8.07,33.36,22.7,35.87,46.1,2.1,17.66-.65,34.41-9.56,49.35-5.79,10.12-12.45,18-23.07,24.57,1.76,1.34,3.07,2.67,5.28,3.12,4.39,2.23,9.67,3.59,14.51,5.38,16.27,6.72,25.45,20,32,35.49,1.3,2.65,1.29,5.3,2.16,8,.42,3.09.4,6.62,1.26,9.71,6.45,26.51-2.94,49.84-16.3,71.38-7.56,11.86-18.19,19.3-30.12,25-11.05,5.23-23,5.16-34.84,2.44-6.61-1.36-13.21-3.17-20.69-5.42a51,51,0,0,1-13.64-3.17c-4-1.35-7.91-4.9-11.86-7.57-18-10.69-27.62-25.75-27.49-47.81-.71-28.24,10-52.88,29.54-73.94,6.65-7,14.63-13.59,22.61-21.48A120.91,120.91,0,0,1,431.39,640.61ZM475,653.22c14.53,2.74,28.21.17,38.42-11.68,16.42-18.43,21.84-40,13.61-64.77-1.29-5.3-4.79-9.29-7.85-13.28-14.46-14.64-32.52-17.4-52.36-16.2-2.85,33.08-5.69,65.7-8.54,100.1C464.4,649.19,469.68,651.87,475,653.22Zm27.27,157.22c3.53-.86,7.5-1.28,11.48-3.46a62.88,62.88,0,0,0,28.37-26.3c10.25-18.47,16.1-38.28,10.5-59.49a6.58,6.58,0,0,0-.86-4c-1.24-13.68-8.23-24.31-19.64-32.32-14.93-10.68-32.11-13-49.28-15.74a5,5,0,0,0-2.65,0c-11.46,1.25-19.42,5.17-19.94,18.41,0,2.2,0,4.85,0,6.61-1,19.85-1.12,39.7-1.68,59.55q-.15,23.82-.29,47.65C475.79,809,487.24,811.68,502.23,810.44Z"/></g></g></svg>