<svg xmlns="http://www.w3.org/2000/svg" viewBox="0 0 832.5 832.5"><defs><style>.cls-1{fill:#deaa7c;}.cls-2{fill:#ffffc5;}.cls-3{fill:#5e4440;}.cls-4{fill:#e55747;}.cls-5{fill:#76b099;}</style></defs><g id="Layer_2" data-name="Layer 2"><g id="Layer_1-2" data-name="Layer 1"><rect class="cls-1" width="832.5" height="832.5"/><path class="cls-2" d="M451.29,415.38c-13.74-43.38-39.46-97.52-84.23-115.83-29.14-11.92-61.84-9.4-92.23-4.78-26.44,4-52.62,6.67-79.25,9.37l-18-1.48c-8.42-.46-22.69,11.49-29.16,16.21-10.47,7.61-20,17.3-25.35,29.13-7.49,16.69-18.42,35.29-21.94,53.34-4.51,23.18,1.57,47.15,7.16,69.58,5.39,21.61,12.68,39.08,30.68,53.14,21.49,16.79,53.88,17,79.87,21.08,36.75,5.76,76.47,4.63,113-2.21,36.06-6.75,68.41-16.77,96-41.6,10-9,21.69-19.65,25.56-33.17C457.85,452.42,456.16,430.76,451.29,415.38Z"/><path class="cls-3" d="M516,664.35c-22.15,15.22-38.23,9.1-62.47,11.61-26,2.68-42.1,9.73-67.43,22.91-20.4,10.61-57.46,18.53-73,33.75-18.87,18.48-5,65.64-26.46,61-11.15-38.91-16.81-56.57-36.72-87.75l-3.54-5.49c-1.77-2.73-3.6-5.53-5.51-8.43q-2.57-3.87-4.82-7.78c-2.35-4-4.46-8.08-6.39-12.14a183,183,0,0,1-11.14-30.5q-1.26-4.63-2.32-9.26c-1.75-7.63-3.13-15.23-4.33-22.76-.29-1.81-.56-3.62-.83-5.42-2.14-14.47-3.77-28.71-6.17-42.46a12.64,12.64,0,0,0,1.84-.07,33.52,33.52,0,0,0,5.4-1l.25,0c15.23,3.25,32.5-1.74,47.44-3.43,0,0,2.42-.2,2.65-.22,2-.15,4.07-.35,6.11-.54q5.56-.54,11.14-1.18,10.94-1.27,21.83-2.9,6.63-1,13.25-2c9-1.45,18-3,27-4.65l2.61-.48a108.05,108.05,0,0,0,22.09-6.8,9,9,0,0,0,3.67-.11l1.55-.39c5.17,7,10,14.4,14.68,22,1.09,1.75,2.18,3.52,3.27,5.28,4.86,7.87,9.69,15.77,14.82,23.32q1.36,2,2.75,4a171.61,171.61,0,0,0,10.65,13.62q2,2.32,4.15,4.53,2.85,3,5.89,5.67C449.44,635.22,510,638.06,516,664.35Z"/><path class="cls-3" d="M214.08,564.34C155.37,582.22,103.15,665,49.62,655.63a14.43,14.43,0,0,1,0,5l.45,2.1c44.57,10.44,151.13-49,194.12-62.6Z"/><path class="cls-2" d="M341.72,545.45c-4.73,1.65-9.15,3.3-12.92,5-16.76,7.64-33.2,16-50,23.42-23.21,10.25-46.6,22.41-66.91,35.57-.29-1.81-.56-3.62-.83-5.42,34.37-18.25,68.33-37.77,103.74-53.94C323.77,548.65,332.75,547.08,341.72,545.45Z"/><path class="cls-2" d="M389.59,564.93c-16.5,6.85-37.09,9.31-52.94,16.61-17.21,7.92-34,16.26-50.27,25.76-13.81,8-27.31,16.35-41.9,23.05-7.17,3.29-17.37,6.68-26,11.13q-1.26-4.63-2.32-9.26c9.48-4.54,18.95-9.58,28.3-12.83,12.28-4.25,24.82-8.47,36.58-14,19.72-9.29,38.46-20.45,58.45-29.11,12.36-5.35,30.86-14,46.81-16.63C387.41,561.4,388.5,563.17,389.59,564.93Z"/><path class="cls-2" d="M407.16,592.21C349.31,621.19,290.41,652,236,684.12c-2.35-4-4.46-8.08-6.39-12.14C275,651.5,319.65,630.45,364,607.4c12.14-6.32,26.29-14.54,40.45-19.15Q405.78,590.25,407.16,592.21Z"/><path class="cls-2" d="M422,610.36c-15.26,9.12-33.13,16.2-47.67,24.24C349.8,648.14,326.43,663.46,302.6,678c-15.76,9.6-33,17.23-49.27,25.88-.79.42-2,1.1-3.43,2l-3.54-5.49c43.49-24.64,87-48.9,130-74.34,12.7-7.51,26.51-13.39,39.87-19.42.5-.22,1-.47,1.58-.74Q419.84,608.16,422,610.36Z"/><path class="cls-4" d="M312.62,701.9c.62,4.05-.42-6.66-.41-8.5,3.26,1.39,6.92,4.91,10.8,4.35Z"/><path class="cls-4" d="M345.73,685.94c2.81-5.86,3.13-12.37,3.57-18.81,5.24,1.84,9.63,6,13.22,10.07Z"/><path class="cls-4" d="M375.71,661.55c2.75-5,3.08-10.6,2.94-16.21,3.64,6.89,11.62,11.35,16.5,17.4Z"/><path class="cls-4" d="M346.08,708.35c.13-5-.27-10.25.69-15,4.8,3.22,9,7.24,14.16,9.83Z"/><path class="cls-4" d="M384.12,689.82c.86-4.5,1.59-9.49.43-13.64a76.62,76.62,0,0,0,14,12.41Z"/><path class="cls-3" d="M405.19,525.7c-44.88,23.35-100.57,29-147,33.8-6.4.65-12.45,1.27-18.42,1.93-41.22,4.52-72,1.65-96.75-9-29.48-12.7-50.39-36.62-63.93-73.14-6.09-16.45-15.48-54.91-12-94.69,1.86-21.26,7.14-40,15.67-55.56a99.69,99.69,0,0,1,43.75-42.11c34.27-17.1,92.42-36.41,152.88-39.33,48.42-2.33,114.9,5.56,156.63,56.42,20.92,25.5,33.88,64.52,34.66,104.39.84,42.68-12.78,78.73-37.36,98.9A163,163,0,0,1,405.19,525.7ZM126.06,289.92c-41.66,21.67-53.73,63.44-56.5,94.87-3.45,39.35,5.82,77.37,11.85,93.62,30.73,82.91,97.17,87.26,158.1,80.57,6-.65,12-1.27,18.44-1.93,46.2-4.73,101.64-10.4,146.12-33.54a159.12,159.12,0,0,0,27.72-18.13c24-19.68,37.29-55,36.47-96.94-.77-38.75-13.83-78.16-34.11-102.88C393.06,255.49,327.39,247.73,279.53,250c-60.07,2.9-117.85,22.08-151.89,39.07C127.11,289.37,126.58,289.64,126.06,289.92Z"/><path class="cls-3" d="M155,407.46c-6.9-1.63-9.93,1.31-12.4,5q.16.6.3,1.2a36.85,36.85,0,0,1,.59,5.89,22,22,0,0,1,1.21,2.43c4.31-5.76,8.7-4.21,12.15-9.13A51.32,51.32,0,0,1,155,407.46Z"/><path class="cls-3" d="M404.09,384.41c-1.49.71-3,1.44-4.44,2.23-.66.36-3.44,2.24-1.68.91-.21.16-.43.31-.64.45A86,86,0,0,1,402,399c4.25-2.14,11.31-6,11.66-6.18-.32-.61-3.32-6.29-5.44-10.36C406.82,383.13,405.45,383.76,404.09,384.41Z"/><path class="cls-1" d="M385.2,419c-4.78,11.14,9.11,22.47,21.22,22.25,13.66-.26,28.67-7.75,30.26-18.4C441.08,393.41,391.87,403.42,385.2,419Z"/><path class="cls-1" d="M139.28,442.69c-34.18,17.39-20.54,51.63,17.22,33.16C199.6,454.76,164.94,429.64,139.28,442.69Z"/><path class="cls-3" d="M327.38,388.45c-22.94-19-50.37-6.92-75.19,1.57a63.32,63.32,0,0,0-16.74,8.59c-2.24,1.62-4.55,3.14-6.85,4.67a26.11,26.11,0,0,1-4.51,3.18c-25.4,49.05,28.74,96.84,93.56,58.65C348.23,447.09,361.61,416.84,327.38,388.45Z"/><path class="cls-2" d="M250.29,442.84C248.12,444,246,445,243.78,446l-1.48.67-1-1.28c-7.65-9.93-4.39-13.59,1.89-18.45a57.1,57.1,0,0,0,4.43-3.7l2.82,3c-1.66,1.57-3.3,2.84-4.74,4-4.94,3.82-6.65,5.14-2.13,11.4,17.24-8.14,42.91-25.35,36.55-41.7L284,398.4C290.43,415.07,271.08,432,250.29,442.84Z"/><path class="cls-2" d="M311.86,436.63a20.25,20.25,0,0,1-2.53,1.1c-9.53,3.33-21.65-.94-27.6-9.72-5.09-7.49-4.28-16.09,2.21-23.57l3.09,2.68c-7.08,8.18-4.24,15.16-1.91,18.59,4.87,7.19,15.13,10.85,22.86,8.15,9.09-3.18,13.41-13.9,12.18-30.17l4.08-.31C325.88,425,318.1,433.38,311.86,436.63Z"/><path class="cls-4" d="M259.66,407.66c-.48,9.61,26,10.08,38.45-.66C291.56,389.9,260.42,392.88,259.66,407.66Z"/><path class="cls-3" d="M125.76,288.55a28.68,28.68,0,0,1,9.18-5.17c-3.09-10.21-11.9-26-18.29-37-13,10.8-11.1,36.55-9.51,57.11C113,298.19,119.65,293.62,125.76,288.55Z"/><path class="cls-3" d="M373.6,270.79c12.45-5.5,24.14-18.58,36.24-26.63a184.69,184.69,0,0,1-1,37.78Z"/><path class="cls-4" d="M278,151.07c6.56,12.53,13,25.19,19.21,37.86q3.19,6.47,6.33,12.95,2.79,5.75,5.52,11.48,3.81,8,7.52,15.9c3.7,7.86,7.32,15.71,10.89,23.49C292.35,281,214.92,270.87,168.55,275.07l-1.15-1.63a117.68,117.68,0,0,0,12.7-19.31c2.08-3.86,4.13-8,6.13-12.31,3-6.35,5.78-13.16,8.52-20.26,1.81-4.7,3.57-9.54,5.28-14.48,5.6-16.1,10.69-33.18,15.16-49.72.84-3.1,1.65-6.2,2.45-9.25,1.32-5,2.57-10,3.76-14.83.6-2.41,1.17-4.79,1.74-7.13,5.2-21.69,9.09-40.33,11.42-51.6,7.57,12.19,15,24.74,22.2,37.53q3.42,6,6.77,12.12,5.16,9.33,10.17,18.8Q275.85,147,278,151.07Z"/><path class="cls-5" d="M221.79,53a11,11,0,0,0-.26,2.79l-3.18,10.08c9.46,26.7,34.2,12.63,30-11.79C245.88,39.45,224.93,38.5,221.79,53Z"/><path class="cls-5" d="M309,213.36q3.81,8,7.52,15.9c-17.36,4.27-35.14,9.43-52.59,12.86-15.15,3-30.17,4.62-45.08,7.92-8.92,2-26.49,6.13-38.77,4.09,2.08-3.86,4.13-8,6.13-12.31,3.19.43,6.34.77,9.38.89,13.06.54,25.27.56,38.23-1.76C260.73,236.16,284.56,225,309,213.36Z"/><path class="cls-5" d="M297.17,188.93q3.19,6.47,6.33,12.95c-10.27,3.64-21.51,5.91-31.09,10.26-24.93,11.31-51.19,13.92-77.66,9.42,1.81-4.7,3.57-9.54,5.28-14.48,11.5,1.57,23.25,4.33,33.26,4.44C256.29,211.78,277,199.43,297.17,188.93Z"/><path class="cls-5" d="M225.68,195.1c-.26-5.4-.3-10.85-.52-16.1-5.4,4.72-8.93,11.33-13.78,16.54C216.11,195.66,220.92,195.08,225.68,195.1Z"/><path class="cls-5" d="M255.09,195l.6-.19c-2.88-6.37-5.68-12.78-9.34-18.67-1.17,6.5-4.37,13.45-6.88,20A43.92,43.92,0,0,0,255.09,195Z"/><path class="cls-5" d="M280.19,183.27c-3.86-4.41-7.74-8.88-10.67-14.09-.17,6.65-.61,13.81-.86,20.54A112.5,112.5,0,0,0,280.19,183.27Z"/><path class="cls-5" d="M278,151.07c-19.53,9.77-40.36,9.52-62.77,6.29.84-3.1,1.65-6.2,2.45-9.25,10,3.36,23.11,1,32.46.93,10-.09,17.09-2,23.6-6Q275.85,147,278,151.07Z"/><path class="cls-5" d="M263.53,124.2c-12.17,6-29.58,12.08-42.13,9.08.6-2.41,1.17-4.79,1.74-7.13,13.06,1.56,24.69-4.57,33.62-14.07Q260.18,118.1,263.53,124.2Z"/><path class="cls-3" d="M422.11,616.9c39.57-6.25,78.3,2.08,118.39-15.16,25.55-11,48.75-30.58,73.23-43.61,10.09-5.37,20.62,6.71,13.84,15.92C597.84,614.44,487,636.54,454.18,638.13Z"/><path class="cls-2" d="M457.18,637.94a152.76,152.76,0,0,1-9.39-21.46c-1.43,0-2.87,0-4.3,0a184.66,184.66,0,0,0,9.31,22.3Z"/><path class="cls-2" d="M475.05,634.43c-2.64-7-5.9-14.34-7.67-19.71l-5.27.26c2.56,6.82,5,13.69,7.77,20.45Z"/><path class="cls-2" d="M489.62,631.63c-.82-6-1.62-12-2.61-18-2.56.18-5.11.34-7.67.48A109,109,0,0,0,484,631.28c.18.44.36.88.53,1.32Z"/><path class="cls-2" d="M504.14,628.74c-1.5-5.42-3.27-10.8-4.92-16.19-1.7.18-3.41.35-5.12.5q2.68,8.34,5.64,16.58Z"/><path class="cls-2" d="M523.75,624.47c-1.07-5.1-2.24-10.19-3.42-15.28-2.26.5-4.53.94-6.81,1.34,1.9,5,3.73,10,5.65,15Z"/><path class="cls-2" d="M545.67,618.8c-.51-1.48-1-2.94-1.41-4.37-1.11-3.74-2.09-7.52-3-11.3q-5.26,1.95-10.69,3.49c2.42,4.8,4.81,9.62,7.34,14.34C540.48,620.27,543.07,619.55,545.67,618.8Z"/><path class="cls-2" d="M570.31,610.41c-1.87-3.67-3.86-7.29-5.25-10.63-.93-2.24-1.81-4.49-2.69-6.75-1.61.94-3.22,1.87-4.86,2.76q-1.72.93-3.48,1.8a151.91,151.91,0,0,0,10.54,15C566.5,611.91,568.41,611.18,570.31,610.41Z"/><path class="cls-2" d="M590.8,600.87A191.14,191.14,0,0,0,584.14,579c-5.45,3.69-10.9,7.38-16.48,10.85,3,4.79,7,11.15,11.13,16.93Q584.87,604,590.8,600.87Z"/><path class="cls-2" d="M610.55,589.43a181.07,181.07,0,0,0-8.07-22.52c-3.72,2.29-7.37,4.68-11,7.08l-1.09.73a213.71,213.71,0,0,0,10.38,20.56Q605.73,592.42,610.55,589.43Z"/><path class="cls-2" d="M624.22,580.78a226.94,226.94,0,0,0-6.09-22.32,130,130,0,0,0-12.21,6.39c3.74,6.85,7.56,13.66,11.49,20.28Z"/><path class="cls-3" d="M382.09,559.75c12.92,4.63,47.83-33.14,58.43-41.09,13.38-10,19.76-21.08,27.35-35.5,14.17-26.92,28.6-51.22,25.68-80.52-8.93,1.43-20.29,23.73-23.6,32.9-6.65,18.47-15.22,31.17-29.56,44.1-15.3,13.79-32.63,24.65-48.91,37.05-9.64,7.35-32.54,21-36.44,30.08Z"/><path class="cls-3" d="M349.59,803.51a467.84,467.84,0,0,1-48.9,3.47,84.65,84.65,0,0,1,.25-24.21c.2-1.36-1.94-1.44-2.15-.09a86.67,86.67,0,0,0-.25,24.34q-6.36.09-12.7,0,.44-10.86.88-21.72a1.07,1.07,0,0,0-2.14-.09q-.43,10.89-.89,21.77l-2.73-.05c-5.41-.13-10.84-.29-16.24-.69-4-.3-8.2-.87-11.87-2.63-3.46-1.67-6.46-4.73-6.74-8.74a11.33,11.33,0,0,1,4.47-9.55c3.47-2.6,9.37-2.47,11.72,1.64a4,4,0,0,1-.93,5.28c-1.52,1.24-3.79,1.73-5.14,0-.86-1.08-2.44.38-1.58,1.46,2.4,3,6.91,1.83,9.1-.84,2.7-3.31.91-7.72-2.39-9.84-7.9-5.09-17.21,2.41-17.4,10.87-.24,10.18,11,13.56,19.2,14.35a308.11,308.11,0,0,0,36,.91,1.1,1.1,0,0,0,1.18,0l3.47-.08q23.22-.57,46.29-3.46C351.44,805.43,351,803.34,349.59,803.51Z"/><path class="cls-3" d="M551.52,619.18a465.85,465.85,0,0,1-18,45.64,84.66,84.66,0,0,1-21.71-10.68c-1.14-.78-2.14,1.12-1,1.9a87,87,0,0,0,21.82,10.74q-2.65,5.76-5.48,11.46L508,668.06a1.08,1.08,0,0,0-1,1.9l19.24,10.2L525,682.6c-2.45,4.83-4.94,9.66-7.63,14.36-2,3.5-4.33,7-7.5,9.58-3,2.41-7.05,3.79-10.79,2.31a11.34,11.34,0,0,1-6.68-8.16c-.84-4.25,1.83-9.52,6.55-9.87a3.94,3.94,0,0,1,4.35,3.12c.46,1.91-.08,4.17-2.2,4.66-1.35.3-.71,2.35.63,2,3.77-.86,4.64-5.45,3.17-8.58-1.81-3.87-6.56-4.15-9.89-2.1-8,4.94-5.27,16.58,2.28,20.41,9.07,4.61,17-4.1,21.22-11.13a310,310,0,0,0,16.36-32.08,1.13,1.13,0,0,0,.49-1.08l1.42-3.16q9.51-21.21,16.88-43.28C554.05,618.34,552,617.88,551.52,619.18Z"/><path class="cls-3" d="M631.17,274.23a557.8,557.8,0,0,0-4.6-70.34,523.47,523.47,0,0,0-13-68l54.77,2.3q-5,28.74-6.12,43.12t-1.15,27q0,1.14.76,13t.77,16.48l48.26-3.45q4.21-10,4.21-23.76a251.23,251.23,0,0,0-5.74-53.86,283.55,283.55,0,0,0-16.85-51.94l74.3-15A446.94,446.94,0,0,0,756,133.55a222.8,222.8,0,0,0-3.45,40.25q0,13,.77,26.25t1.91,25.88H792l3.07,43.32-41,.38a260.34,260.34,0,0,0-3.06,38.72A136.53,136.53,0,0,0,753,330.2q1.9,11.88,4.21,21.46H701.65a220.72,220.72,0,0,0,8.43-26.06,99.55,99.55,0,0,0,3.06-24.15c0-3.84-.07-7.41-.19-10.74s-.71-9.83-1.73-19.55a230.89,230.89,0,0,0-36.38-3.06A138.68,138.68,0,0,0,653,270Q641.14,271.93,631.17,274.23Z"/><path class="cls-3" d="M522,207.84A52.54,52.54,0,0,1,499.27,213c-3,0-5.26-1-6.67-2.88a10.3,10.3,0,0,1-2.12-6.22,9.86,9.86,0,0,1,2.27-6.21,7.82,7.82,0,0,1,6.52-2.88q14.84,0,27.26-12.13A71.41,71.41,0,0,0,537,170a147.15,147.15,0,0,0,9.54-17,165.65,165.65,0,0,0,6.67-16.52q2.73-8,4.54-14.4c1.21-4.25,2.32-9,3.33-14.25A8.48,8.48,0,0,1,564.7,102a8.74,8.74,0,0,1,6.66-1.52,10,10,0,0,1,5.76,3.34,7.35,7.35,0,0,1,1.82,6.36L560.76,320a22,22,0,0,1-8.93,15.91,39.67,39.67,0,0,1-17.42,7.89q-9.4,1.67-16.66-2.13t-6.37-13.79Z"/></g></g></svg>