<svg xmlns="http://www.w3.org/2000/svg" viewBox="0 0 832.5 832.5"><defs><style>.cls-1{fill:#76b099;}.cls-2{fill:#ffffc5;}.cls-3{fill:#5e4440;}.cls-4{fill:#bd9689;}.cls-5{fill:#deaa7c;}.cls-6{fill:#e55747;}</style></defs><g id="Layer_2" data-name="Layer 2"><g id="Layer_1-2" data-name="Layer 1"><rect class="cls-1" width="832.5" height="832.5"/><path class="cls-2" d="M57.21,381.13c12,31.93-8.91,71.58-11.44,104.24a417.2,417.2,0,0,0,3.5,92.82c1.93,12.5,1,32.32,5.09,44.27,6.09,17.74-3.09,20.12,9.23,34.08,20.92,23.69,24.24,47.94,40,75.94,22.86,40.63,54,31.4,93,31,1.23-25-17.62-62.73-2.77-84.12,13.24-19.06,75.36-27.31,99.73-26.4,14.45,35.92-18,46.23-27.39,76.62-13.5,43.81,36.05,36.56,65.12,34.9,14.61-.83,30.25,2.8,39.45-10.34,8.84-12.63,2.47-41.22,12.34-58,23.89-40.53,44.1-41.19,90.25-40.71,9.2,31.23,21.41,66.49,35.18,93.69a48.1,48.1,0,0,0,27.68-3c1.3-46.28,9.37-80.07,39.48-113.73,30.87,50.55,4.39,71.28,9.77,119.46,16.78,4.42,60.81,11.28,78.32,3.42,22.43-10.07,27.17-65.89,35.52-90.87,13.16-39.39,30.63-76.56,46.51-115,8.45-20.45,11.05-52.46,27-67.26,7.63,5.85,11.45,2.61,20.26,4.21,6.83-18.77-1-21.2-8.14-36.71-8.53-18.41-14.63-41.67-25.46-59.75-12.86-21.47-28.56-36-38.47-59.86-12.72-30.65-18.52-51.88-50.64-63.86-86.75-32.36-175-34.56-265.93-39.14-39.37-2-73.21-5-111.56,5.65-32.07,8.9-56.58,23.5-87.37,35.62-36.57,14.4-73.63,34-106.7,55.54C76.69,338.23,66.67,358.81,57.21,384Z"/><path class="cls-3" d="M330.77,782.31l-1,.87c-10.07,9-20.23,19.26-35.07,23.67a210.71,210.71,0,0,1,.72-22.72c-7,5.55-14.17,11-24.38,12.51a109.3,109.3,0,0,1,.48-19C261.36,784.43,246,790,231.77,791.24c1.58-2,3.34-3.88,5.18-5.76l.43-.44c5.05-5.14,10.59-10.13,14.16-15.61.2-.29.37-.57.55-.87,10,3.93,25.78,7.66,44.63,10.42A337.12,337.12,0,0,0,330.77,782.31Z"/><path class="cls-3" d="M217.63,755c-15-14-15.42-32-15.87-50.92A177,177,0,0,0,200.21,681a4.78,4.78,0,0,1-1.45.76,180,180,0,0,1,1.46,22.33c.45,18.94.86,36.86,15.52,51.22l-2,.88c-18.27,7.84-51.93,20-77.47,16.06-8.75-1.34-16.55-4.58-22.45-10.53C94,741.79,82.47,706,79.84,676.05c0-.56-.09-1.11-.14-1.66l-.06-.82a4.55,4.55,0,0,1-1.58-.66l.06,1c0,.55.08,1.1.13,1.66,2.55,30.35,14.22,67,34.44,87.33,6.66,6.72,15.62,10.1,25.61,11.24a74.53,74.53,0,0,0,8.53.47c24,0,51.69-10.13,67.61-17q1.58-.66,3-1.29l1.07-.47Z"/><path class="cls-3" d="M219.73,790.16c-7.83-2.79-15.77-7.28-22.79-9.92.9,6-.68,11.85,1.64,17.89-6.79-6-14.73-12.11-23.56-15.56,1.22,6.43-.62,13.77,1.77,19.91-14.85-4.59-23.09-17.18-34.35-26.62-.55-.45-1.1-.9-1.66-1.34,20.53,2.94,47.59-6.16,62.28-12,.19.34.39.67.59,1,5.17,8.8,11,17.68,16.41,26.09l.57.89Z"/><path class="cls-3" d="M554.31,701.93c-.58,4.39-.12,10,.38,15.83.73,8.64,1.48,17.56-1.1,23.68l-.34.79c-4.16,9.85-5,11.89-8.28,12.38a20,20,0,0,1-2.44.17,49.41,49.41,0,0,0-13.69,2.15c-11.53,3.26-20.19,5.25-27.17,5.25a26.08,26.08,0,0,1-8.77-1.36,20.62,20.62,0,0,1-8.87-6.16c-4.13-4.73-7.43-11.94-10.37-22.31-1.2-4.24-2.45-8.42-3.66-12.47-5.74-19.18-11.17-37.35-10.56-58.44,0-.52,0-1,.06-1.54s0-.89.06-1.34l1.54.08-.06,1.28c0,.51,0,1-.06,1.53-.61,20.86,4.79,38.92,10.49,58,1.22,4,2.47,8.24,3.68,12.49,2.88,10.17,6,17.16,9.94,21.7,8.72,10.1,21.28,8.06,43.33,1.82a51.27,51.27,0,0,1,14.07-2.21,10.27,10.27,0,0,0,2.9-.32c2-.68,2.94-3,6.44-11.29l.34-.79c2.43-5.77,1.7-14.5,1-23-.51-6-1-11.6-.37-16.16a175.83,175.83,0,0,0,1.08-18.8c.29-13.56.6-27.56,7.64-37.6.18-.27.38-.53.57-.79l1.09.83h0l.13.1c-7.29,9.68-7.59,23.19-7.9,37.49A174.44,174.44,0,0,1,554.31,701.93Z"/><path class="cls-3" d="M545.39,752.92l-.42,1.23c-4,12-8.71,25.64-16.1,31.53-1.5-7.07-3.88-13.7-3.39-21-9.67,6.77-18.69,14.27-29.91,18.85.77-3.9-1.63-9-.91-12.85-9.16,4.89-20.58,9-32.32,8.29,1.16-9,13.4-18.84,21.69-24.75.36-.27.72-.52,1.06-.76,8.72,7.35,21.28,5.86,43.33,1.33a69,69,0,0,1,14.07-1.61A14,14,0,0,0,545.39,752.92Z"/><path class="cls-3" d="M681.63,763.83c-.11.33-.22.66-.31,1-3.29,11-2.1,22.33-3.29,33.75-11.52-4.85-21.32-13.7-32.19-16.66.59,3.39-1.49,7.57-1.06,10.94-9.52-2.74-17.17-8.64-23-14.41a69.53,69.53,0,0,0-4.15,18.19c-18.73-8.43-25.47-22.09-31.6-33.84l-.56-1.09a224.61,224.61,0,0,0,27.62,2.7C636.44,765.45,662.83,764.56,681.63,763.83Z"/><path class="cls-3" d="M305.88,580.87h-1.54c0,23.73-4.6,49.81-12.74,75.44-3.31-1.47-17.58,2.16-47,10.53-9.85,2.79-18.34,5.21-22.52,6.06-5,1-10.11,2.12-15,3.2l-7.43,1.61-1.51.32c-19.87,4.21-40.33,7.89-61.48,6.6-17.58-1.08-38.85-4.3-56.93-10.24,0,.55.09,1.1.14,1.66,18.11,5.87,39.23,9.05,56.7,10.12,21.33,1.3,41.9-2.4,61.86-6.63l1.51-.32,7.46-1.61c4.93-1.08,10-2.18,15-3.2,4.23-.86,12.75-3.28,22.63-6.09s20.87-5.94,29.74-8.11c13.77-3.37,15.89-2.76,16.21-2.5l.26-.28c-11.75,36.48-30.63,71.93-53.55,98.25l-.4.46.36.49c2.28,3.15,6,6,10.64,8.66.19-.5.35-1,.51-1.48a32.79,32.79,0,0,1-9.54-7.59C258.47,734,275,705.59,287.14,673.9,299.4,641.82,305.89,609.65,305.88,580.87Zm0,0h-1.54c0,23.73-4.6,49.81-12.74,75.44-3.31-1.47-17.58,2.16-47,10.53-9.85,2.79-18.34,5.21-22.52,6.06-5,1-10.11,2.12-15,3.2l-7.43,1.61-1.51.32c-19.87,4.21-40.33,7.89-61.48,6.6-17.58-1.08-38.85-4.3-56.93-10.24,0,.55.09,1.1.14,1.66,18.11,5.87,39.23,9.05,56.7,10.12,21.33,1.3,41.9-2.4,61.86-6.63l1.51-.32,7.46-1.61c4.93-1.08,10-2.18,15-3.2,4.23-.86,12.75-3.28,22.63-6.09s20.87-5.94,29.74-8.11c13.77-3.37,15.89-2.76,16.21-2.5l.26-.28c-11.75,36.48-30.63,71.93-53.55,98.25l-.4.46.36.49c2.28,3.15,6,6,10.64,8.66.19-.5.35-1,.51-1.48a32.79,32.79,0,0,1-9.54-7.59C258.47,734,275,705.59,287.14,673.9,299.4,641.82,305.89,609.65,305.88,580.87Zm0,0h-1.54c0,23.73-4.6,49.81-12.74,75.44-3.31-1.47-17.58,2.16-47,10.53-9.85,2.79-18.34,5.21-22.52,6.06-5,1-10.11,2.12-15,3.2l-7.43,1.61-1.51.32c-19.87,4.21-40.33,7.89-61.48,6.6-17.58-1.08-38.85-4.3-56.93-10.24,0,.55.09,1.1.14,1.66,18.11,5.87,39.23,9.05,56.7,10.12,21.33,1.3,41.9-2.4,61.86-6.63l1.51-.32,7.46-1.61c4.93-1.08,10-2.18,15-3.2,4.23-.86,12.75-3.28,22.63-6.09s20.87-5.94,29.74-8.11c13.77-3.37,15.89-2.76,16.21-2.5l.26-.28c-11.75,36.48-30.63,71.93-53.55,98.25l-.4.46.36.49c2.28,3.15,6,6,10.64,8.66.19-.5.35-1,.51-1.48a32.79,32.79,0,0,1-9.54-7.59C258.47,734,275,705.59,287.14,673.9,299.4,641.82,305.89,609.65,305.88,580.87ZM786.94,451.72c-.35-28.44-14.91-51.85-29-74.49-8.76-14.09-17.82-28.66-23.29-44.23-10.42-29.68-20.38-53.9-45.39-73-27.49-21-64.74-27.52-97.56-31.16-10.89-1.21-21.43-4-31.62-6.76A257.48,257.48,0,0,0,533.56,216c-20.32-3.17-41.64-4.54-62.26-5.87l-2.61-.17-8.76-.57c-40.89-2.69-83.16-5.47-123.78,2.29-4.7.9-9.48,1.79-14.11,2.64-38.17,7.08-77.65,14.39-112,36.44-25,16.07-51.44,30.51-88.3,48.29-28.3,13.64-49.3,25.46-61.81,53.38-8,17.79-11,38.38-14,58.3-1.36,9.22-2.78,18.76-4.65,27.65-8.25,39.09-6.13,74-3.88,111,.46,7.54.93,15.32,1.33,23.23.35,7.22-.2,15.5-.78,24.27-1.65,24.87-3.51,53,15.41,66.65,6.72,4.82,15.35,8.8,24.88,12l1.59.53c18.11,5.87,39.23,9.05,56.7,10.12,21.33,1.3,41.9-2.4,61.86-6.63l1.51-.32,7.46-1.61c4.93-1.08,10-2.18,15-3.2,4.23-.86,12.75-3.28,22.63-6.09s20.87-5.94,29.74-8.11c13.77-3.37,15.89-2.76,16.21-2.5l.26-.28c-11.75,36.48-30.63,71.93-53.55,98.25l-.4.46.36.49c2.28,3.15,6,6,10.64,8.66,11.83,6.63,29.7,11.44,45.32,14.06a205.51,205.51,0,0,0,33.47,3h.05c12.76,0,23.31-1.58,29.68-4.68,29.66-14.43,47.86-84.58,52.17-117,10.86-.51,22.22-.11,33.2.27,5.71.2,11.48.4,17.26.48H461a208.47,208.47,0,0,0,27-1.2c11.31-1.35,21.67-4.37,31.68-7.29,13.7-4,26.71-7.8,41.83-7.63.55,0,1.1,0,1.66,0h0c1.19,0,2.4.09,3.62.18,1,17.17,1.64,36.88-2.88,54.58-2.72,10.68-4,35.88-1.49,46,2.09,8.5,11.06,13.9,23.57,17.24,26.43,7.05,68.68,4.89,95.32,3.25l4.48-.28c4.61-.29,8.59-.53,11.69-.68l.72,0,0-.72c1-42.91,20.91-94,39.51-138.52,8.38-20.06,23-62.68,45.11-151.77.68-2.7,1.12-4.49,1.23-4.86C786,463.35,787,458.32,786.94,451.72Zm-4.34,17.65c-.12.41-.54,2.11-1.24,4.93-22.08,89-36.68,131.54-45,151.55-18.55,44.4-38.41,95.33-39.61,138.36-3,.15-6.74.38-11,.64l-4.07.26c-18.8,1.16-45.19,2.58-68.57.88q-16.56-1.22-27.62-4.3c-12.57-3.5-19.78-8.81-21.51-15.88-2.45-10-1.2-34.77,1.49-45.3,4.63-18.15,3.91-38.28,2.88-55.73l0-.67-.67-.05c-18-1.44-32.74,2.86-48.34,7.41-9.95,2.91-20.24,5.91-31.43,7.25a209.9,209.9,0,0,1-26.78,1.2l-1.54,0c-5.78-.08-11.56-.28-17.26-.48-11.23-.39-22.85-.8-34-.24l-.64,0-.08.64c-4.13,31.83-22.11,102.17-51.4,116.43-6.05,2.94-16,4.47-28.12,4.53a203.16,203.16,0,0,1-34.16-3c-18.95-3.19-34.89-8.23-45.06-14a32.79,32.79,0,0,1-9.54-7.59C258.47,734,275,705.59,287.14,673.9c12.26-32.08,18.75-64.25,18.74-93h-1.54c0,23.73-4.6,49.81-12.74,75.44-3.31-1.47-17.58,2.16-47,10.53-9.85,2.79-18.34,5.21-22.52,6.06-5,1-10.11,2.12-15,3.2l-7.43,1.61-1.51.32c-19.87,4.21-40.33,7.89-61.48,6.6-17.58-1.08-38.85-4.3-56.93-10.24l-1.58-.53c-9.14-3.12-17.4-7-23.85-11.59C36,649.17,37.88,621.44,39.5,597c.58-8.82,1.14-17.15.77-24.46-.39-7.91-.86-15.71-1.32-23.24-2.25-36.87-4.36-71.7,3.84-110.58,1.89-8.94,3.31-18.5,4.68-27.74,2.94-19.81,6-40.3,13.87-57.9,12.31-27.44,33.08-39.12,61.08-52.62,36.92-17.8,63.38-32.27,88.46-48.39,34.09-21.88,73.41-29.16,111.44-36.21,4.63-.86,9.41-1.74,14.12-2.64,40.43-7.73,82.6-4.95,123.39-2.27l8.76.57,2.62.17c20.58,1.33,41.87,2.69,62.11,5.85a254.21,254.21,0,0,1,26.37,6.07c10.25,2.74,20.85,5.57,31.85,6.8,32.61,3.61,69.61,10.1,96.79,30.85,24.73,18.86,34.2,41.85,44.88,72.27,5.52,15.73,14.62,30.37,23.43,44.53,14,22.46,28.41,45.69,28.76,73.7C785.47,458.18,784.47,462.91,782.6,469.37ZM305.88,580.87h-1.54c0,23.73-4.6,49.81-12.74,75.44-3.31-1.47-17.58,2.16-47,10.53-9.85,2.79-18.34,5.21-22.52,6.06-5,1-10.11,2.12-15,3.2l-7.43,1.61-1.51.32c-19.87,4.21-40.33,7.89-61.48,6.6-17.58-1.08-38.85-4.3-56.93-10.24,0,.55.09,1.1.14,1.66,18.11,5.87,39.23,9.05,56.7,10.12,21.33,1.3,41.9-2.4,61.86-6.63l1.51-.32,7.46-1.61c4.93-1.08,10-2.18,15-3.2,4.23-.86,12.75-3.28,22.63-6.09s20.87-5.94,29.74-8.11c13.77-3.37,15.89-2.76,16.21-2.5l.26-.28c-11.75,36.48-30.63,71.93-53.55,98.25l-.4.46.36.49c2.28,3.15,6,6,10.64,8.66.19-.5.35-1,.51-1.48a32.79,32.79,0,0,1-9.54-7.59C258.47,734,275,705.59,287.14,673.9,299.4,641.82,305.89,609.65,305.88,580.87Zm0,0h-1.54c0,23.73-4.6,49.81-12.74,75.44-3.31-1.47-17.58,2.16-47,10.53-9.85,2.79-18.34,5.21-22.52,6.06-5,1-10.11,2.12-15,3.2l-7.43,1.61-1.51.32c-19.87,4.21-40.33,7.89-61.48,6.6-17.58-1.08-38.85-4.3-56.93-10.24,0,.55.09,1.1.14,1.66,18.11,5.87,39.23,9.05,56.7,10.12,21.33,1.3,41.9-2.4,61.86-6.63l1.51-.32,7.46-1.61c4.93-1.08,10-2.18,15-3.2,4.23-.86,12.75-3.28,22.63-6.09s20.87-5.94,29.74-8.11c13.77-3.37,15.89-2.76,16.21-2.5l.26-.28c-11.75,36.48-30.63,71.93-53.55,98.25l-.4.46.36.49c2.28,3.15,6,6,10.64,8.66.19-.5.35-1,.51-1.48a32.79,32.79,0,0,1-9.54-7.59C258.47,734,275,705.59,287.14,673.9,299.4,641.82,305.89,609.65,305.88,580.87Z"/><path class="cls-3" d="M781.28,498.72a15.33,15.33,0,0,1-5.22-.85l.52-1.45c4.44,1.6,10.81.59,17.46-2.78,8.34-4.21,15.38-11.12,17.27-16.91-7.11-12.61-18.35-25.18-26.56-33.52l1.1-1.08c8.34,8.47,19.78,21.28,27,34.14l.16.28-.1.32c-1.85,6.22-9.31,13.68-18.14,18.15A30.61,30.61,0,0,1,781.28,498.72Z"/><path class="cls-3" d="M19.23,517.87c-3.87,0-7.45-.85-10-3-3.39-2.85-4.43-7.47-3.07-13.72l.1-.47.47-.12C13.16,499,22.22,503,28.83,506c3.44,1.54,6.42,2.88,7.79,2.88h0l0,1.54h0c-1.71,0-4.68-1.33-8.43-3C22,504.61,13.47,500.79,7.54,502c-1.08,5.4-.19,9.34,2.65,11.73,5,4.23,15.34,2.82,23.31-.45l.59,1.43A41.15,41.15,0,0,1,19.23,517.87Z"/><path class="cls-3" d="M323.32,534.9a15.85,15.85,0,0,1-7.2-1.69l.7-1.38c5.53,2.83,12.62,1.68,18.5-3,4.73-3.77,9.11-10.51,7.43-18.26-10.11-1.25-20.43,1.93-31.55,9.72l-.88-1.26c11.64-8.16,22.49-11.4,33.16-9.92l.52.07.13.51c1.81,7.26-1.2,15.05-7.85,20.34A21,21,0,0,1,323.32,534.9Z"/><path class="cls-4" d="M312.19,525.37c3.58-1.66,10.8-5.79,16.91-5.49-.1,8-10,11-16.91,12.64Z"/><path class="cls-3" d="M139.28,496.53c3.34-7.29,4.78-15.33,7.9-22.56l-22.3,3.79C131.74,482.1,133.61,490.94,139.28,496.53Z"/><path class="cls-3" d="M159.49,529.92c5-5.52,8.46-15.14,13-20.81l-24.16-1.89C152.41,514.59,155.1,522.73,159.49,529.92Z"/><path class="cls-3" d="M190.1,487.63c4.88,6,5.17,16.19,8.74,22.62,4.26-7.53,8-16.73,13.57-22.62Z"/><path class="cls-5" d="M217.69,655.4c-6.6-19.82-14.27-39-18.42-61-3.86-20.45,1.18-30-21.92-27.23-15.09,1.85-30,5.32-45.12,7.93a240.36,240.36,0,0,1-3.75,30.72c-4.13,23-10.6,45.49-14.26,68.57-.83,5.23,1.46,2.32.6,7.63,32.43-2.69,62.18,1.59,95-2.26l.15-.08c1.22-.65,2.42-1.34,3.61-2l1-.57,1.55-.94c2.23-1.36,4.46-2.74,6.71-4.07C221.26,666.42,219.52,660.88,217.69,655.4Z"/><path class="cls-3" d="M217.69,655.4a30.62,30.62,0,0,0-3,.72c-32.82-.85-66.78,8.7-99.67,13.64q-.41,2.32-.78,4.65c-1.07,6.75-.06,2.87-1.25,9.72,20.24,4,40.5,16.79,59.14,12,19.61-5,23.45-7.5,38.61-16.45q6-3.57,12.19-7.32C221.32,666.6,219.55,661,217.69,655.4Z"/><path class="cls-6" d="M242.31,656c-1.31-13.6,19.43-18.27,24.16-4.87,4.52,12.8-6.85,15-16.27,14.9a5.19,5.19,0,0,1-5-4.27v0Z"/><path class="cls-6" d="M80.27,670.89a7,7,0,0,1-4.78-7.23c1.28-14.12,21.5-19.24,26.27-4.2,4.56,14.43-12,20.83-21.49,11.43Z"/><path class="cls-3" d="M87,635.72c-1.6,5.54-1.09,8.07,5.47,6.89a19.22,19.22,0,0,0,2.88-8,33.56,33.56,0,0,0-4.06-1.85C89.3,633.28,87,635.72,87,635.72Z"/><path class="cls-3" d="M244.65,638.79a23.14,23.14,0,0,0,7.13-.53c.63-6.75-2.48-8.43-8.35-5.5C243.43,632.76,243.36,637.5,244.65,638.79Z"/><path class="cls-5" d="M172,344.36l-1.85-4.14c3.76-1.69,5.76-5,6.11-10l4.52.31C180.32,337.31,177.36,342,172,344.36Z"/><rect class="cls-5" x="190.85" y="351.2" width="14.05" height="4.54" transform="translate(-157.19 158.48) rotate(-31.99)"/><rect class="cls-5" x="225.47" y="312.45" width="20.74" height="4.54" transform="translate(-97.19 105.53) rotate(-21.02)"/><path class="cls-5" d="M236.53,361a14,14,0,0,1-1.7-.1l.54-4.51c3.17.38,5.93-.83,8.44-3.71l3.42,3C244.14,359.25,240.54,361,236.53,361Z"/><path class="cls-5" d="M236.73,383.3l-.28-4.53c5.4-.34,10.87-.84,16.25-1.48l.53,4.51C247.77,382.45,242.22,383,236.73,383.3Z"/><rect class="cls-5" x="157.52" y="395.9" width="18.18" height="4.54" transform="translate(-198.12 167.37) rotate(-34.97)"/><path class="cls-5" d="M77.57,452.47,74,449.67a39.53,39.53,0,0,0,7-14.1l4.38,1.2A44.1,44.1,0,0,1,77.57,452.47Z"/><rect class="cls-5" x="144.28" y="390.69" width="1.49" height="4.54"/><path class="cls-5" d="M128.31,373.33l-3.8-2.47c4.13-6.37,5.72-13.82,7.11-21.52l4.46.81C134.67,358,132.9,366.26,128.31,373.33Z"/><rect class="cls-5" x="105.07" y="393.67" width="23.32" height="4.54" transform="translate(-289.58 323.13) rotate(-63.41)"/><path class="cls-5" d="M157.9,369.88l-.45-4.52a27.79,27.79,0,0,0,13.75-5.51l2.73,3.62A32.35,32.35,0,0,1,157.9,369.88Z"/><path class="cls-5" d="M166.41,314.35l-2.58-3.73a30.48,30.48,0,0,0,9.7-11.1l4,2.1A35,35,0,0,1,166.41,314.35Z"/><rect class="cls-5" x="221.7" y="280.42" width="1.49" height="4.54"/><rect class="cls-5" x="254.36" y="301.28" width="22.53" height="4.54" transform="translate(-37.76 37.74) rotate(-7.59)"/><path class="cls-5" d="M196.2,290.5l-2.61-3.71A113.24,113.24,0,0,0,214,267.85l3.53,2.85A116.93,116.93,0,0,1,196.2,290.5Z"/><path class="cls-5" d="M218.33,256.36l-2.19-4a54.28,54.28,0,0,0,14.29-11.45l3.39,3A58.66,58.66,0,0,1,218.33,256.36Z"/><path class="cls-5" d="M226.19,304.33l0-4.54a23.88,23.88,0,0,0,15-5.48l2.81,3.57A28.69,28.69,0,0,1,226.19,304.33Z"/><rect class="cls-5" x="284.94" y="340.66" width="4.54" height="15.18" transform="translate(-110.63 561.53) rotate(-78.68)"/><rect class="cls-5" x="297.6" y="376.52" width="4.54" height="12.01" transform="translate(-181.06 452.94) rotate(-60.24)"/><path class="cls-5" d="M276.68,417.8a19.93,19.93,0,0,1-11.61-3.61l2.59-3.73a15.81,15.81,0,0,0,11.79,2.6l.64,4.49A23.52,23.52,0,0,1,276.68,417.8Z"/><rect class="cls-5" x="276.75" y="426.32" width="4.54" height="13.73" transform="translate(-231.44 362.93) rotate(-49.38)"/><path class="cls-5" d="M309.3,405a7.53,7.53,0,0,1-3.92-1.15l2.38-3.87c.68.42,2.1,1.29,4.68-1.19l3.15,3.27C313.27,404.28,311.11,405,309.3,405Z"/><path class="cls-5" d="M314.9,356.3l-1.77-4.18a20.31,20.31,0,0,0,9.38-8l3.86,2.39A24.81,24.81,0,0,1,314.9,356.3Z"/><rect class="cls-5" x="290.77" y="316.93" width="13.73" height="4.54" transform="translate(-138.42 337.31) rotate(-49.38)"/><path class="cls-5" d="M354.27,411.62l-.1-4.54c3.95-.09,7.3-1.78,10.24-5.18l3.43,3C364.06,409.23,359.5,411.5,354.27,411.62Z"/><path class="cls-5" d="M369.92,527.74c-1.39-4.47-2.95-9-4.45-13.35s-3.08-8.94-4.49-13.47l4.34-1.35c1.38,4.47,2.94,9,4.44,13.34s3.08,8.94,4.49,13.48Z"/><path class="cls-5" d="M369.56,660.76c-.66-7.44-1.95-15-3.21-22.27-.41-2.41-.84-4.91-1.24-7.37l4.48-.73c.39,2.44.82,4.93,1.23,7.33,1.27,7.38,2.58,15,3.25,22.64Z"/><path class="cls-5" d="M366.2,559.83a41.9,41.9,0,0,0-5.65-11.31l3.71-2.62a46.69,46.69,0,0,1,6.26,12.53Z"/><path class="cls-5" d="M390.69,509.52c-.68-4.49-1.19-9.06-1.51-13.59l4.52-.32c.32,4.41.81,8.86,1.47,13.23Z"/><rect class="cls-5" x="412.28" y="514.36" width="1.49" height="4.54"/><path class="cls-5" d="M412,460.78c-7-.76-14.06-1.77-21-3l.8-4.46c6.83,1.21,13.79,2.21,20.69,2.95Z"/><path class="cls-5" d="M385.63,474.23A33.56,33.56,0,0,1,371.12,471l1.93-4.1a29.37,29.37,0,0,0,13.83,2.76l.18,4.54Z"/><path class="cls-5" d="M475.46,478.51A83,83,0,0,0,461,474.16l.9-4.45a87.56,87.56,0,0,1,15.29,4.59Z"/><path class="cls-5" d="M495,518.79a66.17,66.17,0,0,0-7.19-15.85l3.84-2.41a70.75,70.75,0,0,1,7.69,16.93Z"/><path class="cls-5" d="M539.07,509.18l-3.43-3c1.89-2.2-.14-7.77-3.13-12.13l3.74-2.57C540.11,497.15,542.88,504.76,539.07,509.18Z"/><rect class="cls-5" x="573.8" y="464.33" width="4.54" height="15.2" transform="translate(-81.31 122.04) rotate(-11.3)"/><rect class="cls-5" x="639.31" y="513.65" width="4.54" height="1.49"/><path class="cls-5" d="M590.25,537.56l-4.54-.12c.19-7.23.39-14.7-1.42-21.73l4.4-1.13C590.65,522.23,590.45,530,590.25,537.56Z"/><rect class="cls-5" x="571.57" y="541.66" width="4.54" height="2.11" transform="translate(-215.69 564.4) rotate(-44.98)"/><path class="cls-5" d="M520.17,553.06l-4.34-1.32a88.81,88.81,0,0,0,2.9-13.08l4.49.65A92.78,92.78,0,0,1,520.17,553.06Z"/><path class="cls-5" d="M480,575.44l-4.32-1.38a26,26,0,0,0,0-16.46l4.3-1.46A30.41,30.41,0,0,1,480,575.44Z"/><path class="cls-5" d="M445.65,550.27l-4.2-1.71a43.06,43.06,0,0,0,2.83-21.24l4.5-.51A47.48,47.48,0,0,1,445.65,550.27Z"/><path class="cls-5" d="M423.17,546.11l-3.9-2.33a30.13,30.13,0,0,0,4.15-13.85l4.53.23A34.76,34.76,0,0,1,423.17,546.11Z"/><rect class="cls-5" x="393.64" y="555.82" width="4.54" height="9.54" transform="translate(-263.37 369.91) rotate(-38.64)"/><path class="cls-5" d="M444.53,505.78a50.71,50.71,0,0,1-4.68-12.48l4.42-1a46.34,46.34,0,0,0,4.26,11.37Z"/><rect class="cls-5" x="557.42" y="457.31" width="4.54" height="15.83" transform="translate(-159.03 579.8) rotate(-48.79)"/><rect class="cls-5" x="594.64" y="455.54" width="4.54" height="1.49"/><path class="cls-5" d="M639.51,466.9A143.42,143.42,0,0,1,632,445.7l4.38-1.18A138.08,138.08,0,0,0,643.65,465Z"/><rect class="cls-5" x="656.43" y="485.03" width="4.54" height="2.11" transform="translate(-150.84 607.82) rotate(-44.98)"/><path class="cls-5" d="M680.11,542a40.65,40.65,0,0,1-7.89-12.63l4.23-1.65a36.06,36.06,0,0,0,7,11.21Z"/><rect class="cls-5" x="624.42" y="506.2" width="4.54" height="19.37"/><path class="cls-5" d="M605.27,496.36l-1.82-4.16c2.27-1,2.9-6.34,1.65-13.94l4.47-.74C611.3,488,609.85,494.35,605.27,496.36Z"/><path class="cls-5" d="M609.26,444.81l-3.85-2.39a17.66,17.66,0,0,0,2.63-9.26l4.54,0A22.09,22.09,0,0,1,609.26,444.81Z"/><rect class="cls-5" x="605.07" y="415.31" width="4.54" height="1.49"/><path class="cls-5" d="M553.07,456.25a203,203,0,0,1-6-22.61l4.45-.91a194.49,194.49,0,0,0,5.89,22.1Z"/><path class="cls-5" d="M518.78,469l-4.54-.14c.23-7.23.07-12.88-1.42-18.74l4.4-1.12C518.83,455.4,519,461.4,518.78,469Z"/><rect class="cls-5" x="488.93" y="458.37" width="4.54" height="15.2" transform="translate(-81.79 105.29) rotate(-11.3)"/><path class="cls-5" d="M627.39,432.28,623,431.11a117.44,117.44,0,0,0,2.92-14.62l4.5.61A122.45,122.45,0,0,1,627.39,432.28Z"/><rect class="cls-5" x="656.44" y="400.11" width="4.54" height="16.99" transform="translate(-84.25 187.56) rotate(-15.24)"/><path class="cls-5" d="M688.65,443.06a33.28,33.28,0,0,0-9.76-12.56l2.8-3.57a37.7,37.7,0,0,1,11.09,14.26Z"/><path class="cls-5" d="M708.31,495.71a124.64,124.64,0,0,0-13.16-14.64l3-3.37a128.35,128.35,0,0,1,13.65,15.16Z"/><path class="cls-5" d="M678,506.36c-.33-4.91-.83-9.88-1.47-14.76l4.49-.6c.66,5,1.17,10,1.51,15.05Z"/><path class="cls-5" d="M637.76,584.45l-4.27-1.52c2.86-8.07,3.71-16.65,4.34-24.75l4.52.35C641.7,566.93,640.81,575.85,637.76,584.45Z"/><path class="cls-5" d="M622.08,594.46l-2.69-3.66c3.14-2.31,2.48-4.07,2.2-4.82l4.25-1.6C626.82,587,627,590.87,622.08,594.46Z"/><path class="cls-5" d="M579.37,599.35l-.65-4.5c5.65-.81,9.25-9.36,11.64-15l4.18,1.76C591.75,588.19,587.55,598.17,579.37,599.35Z"/><path class="cls-5" d="M544.82,597.3l-3-3.38A27.09,27.09,0,0,0,550,580.18l4.41,1.06A31.65,31.65,0,0,1,544.82,597.3Z"/><path class="cls-5" d="M516.54,597.3l-3-3.38a55.76,55.76,0,0,0,12.88-17.19l4.08,2A60.49,60.49,0,0,1,516.54,597.3Z"/><rect class="cls-5" x="481.48" y="586.81" width="4.54" height="16.11" transform="matrix(0.83, -0.55, 0.55, 0.83, -248.64, 367.98)"/><path class="cls-5" d="M441.39,605.22a26,26,0,0,0-5.48-9.58l3.37-3a30.42,30.42,0,0,1,6.44,11.28Z"/><path class="cls-5" d="M397.46,604.71l-3.11-3.3a17.15,17.15,0,0,0,5.26-10.58l4.5.62A21.78,21.78,0,0,1,397.46,604.71Z"/><path class="cls-5" d="M358.83,604.63l-3.28-3.14a17.54,17.54,0,0,0,5.33-13.25l4.54-.16A22.2,22.2,0,0,1,358.83,604.63Z"/><path class="cls-5" d="M328.73,612.36l-2.63-3.7c3.95-2.81,7.75-11.9,8-19.08l4.54.14C338.37,597.43,334.34,608.37,328.73,612.36Z"/><path class="cls-5" d="M315.82,604.44l-3.61-2.76a38.38,38.38,0,0,0,7-15.47l4.44.92A42.84,42.84,0,0,1,315.82,604.44Z"/><rect class="cls-5" x="306.57" y="579.93" width="1.49" height="4.54"/><rect class="cls-5" x="698.5" y="406.67" width="10.53" height="4.54" transform="translate(-83.11 617.14) rotate(-44.98)"/><path class="cls-5" d="M751.82,455.46,751,451a16.33,16.33,0,0,0,7.82-3.9l3.09,3.32A20.6,20.6,0,0,1,751.82,455.46Z"/><rect class="cls-5" x="734.92" y="471.87" width="4.54" height="24.02" transform="translate(-142.92 429.21) rotate(-29.73)"/><path class="cls-5" d="M740.43,421.25l-4.53-.18a29.53,29.53,0,0,0-2.76-13.84l4.1-1.94A34,34,0,0,1,740.43,421.25Z"/><rect class="cls-5" x="440.98" y="417.73" width="4.54" height="13.41"/><rect class="cls-5" x="570.01" y="395.74" width="4.54" height="11.92"/><path class="cls-5" d="M717.77,345.41l-4.49-.64a12.75,12.75,0,0,0-2.51-10.19l3.55-2.82A17.28,17.28,0,0,1,717.77,345.41Z"/><path class="cls-5" d="M404.28,442.19a35.7,35.7,0,0,1-12.73-12.73l3.92-2.29a31.07,31.07,0,0,0,11.1,11.1Z"/><path class="cls-5" d="M373.42,311.56a47,47,0,0,0-5.68-14.22l3.88-2.35a51.76,51.76,0,0,1,6.23,15.58Z"/><path class="cls-5" d="M711.6,391.54a64.33,64.33,0,0,1-7.71-15.45l4.29-1.46A60.09,60.09,0,0,0,715.35,389Z"/><path class="cls-5" d="M688.51,641.94l-4.53-.27c.29-4.84.74-9.75,1.18-14.51.11-1.14.22-2.29.32-3.44l4.52.41c-.11,1.15-.21,2.3-.32,3.45C689.25,632.3,688.8,637.17,688.51,641.94Z"/><path class="cls-5" d="M664.67,613.81l-4.49-.64a28.9,28.9,0,0,0-1.37-13.8l4.26-1.56A33.1,33.1,0,0,1,664.67,613.81Z"/><path class="cls-5" d="M672.24,584.54a15.92,15.92,0,0,0-6.53-7.86l2.37-3.87a20.52,20.52,0,0,1,8.36,10Z"/><rect class="cls-5" x="704.08" y="567.24" width="4.54" height="9.06" transform="translate(-84.34 123.82) rotate(-9.46)"/><path class="cls-5" d="M724.34,569.63a24.45,24.45,0,0,0-4.09-6.82l3.46-2.94a29.35,29.35,0,0,1,4.85,8.08Z"/><path class="cls-5" d="M731.63,542.15a107.77,107.77,0,0,0-2.92-16l4.41-1.05a116,116,0,0,1,3,16.73Z"/><path class="cls-5" d="M715.27,539.43l-4.44-.89a9.85,9.85,0,0,0-1.21-7.32l3.88-2.35A14.33,14.33,0,0,1,715.27,539.43Z"/><path class="cls-5" d="M600.55,566.52l-4.3-1.43c2.54-7.68,3.06-15.15,1.45-21l4.38-1.19C604.44,551.5,602.55,560.5,600.55,566.52Z"/><path class="cls-5" d="M539.56,561.49c-.33-4.91-.83-9.87-1.48-14.75l4.5-.6c.66,5,1.17,10,1.5,15.05Z"/><path class="cls-5" d="M652,656.93l-3-3.43a6.71,6.71,0,0,0,2.2-5.6l4.53-.27A11.14,11.14,0,0,1,652,656.93Z"/><rect class="cls-5" x="626.61" y="667.1" width="7.6" height="4.54" transform="translate(-149.75 1156.02) rotate(-78.67)"/><path class="cls-5" d="M730,630.85l-4.1-1.94a46.75,46.75,0,0,0,4.26-15.63l4.51.42A51,51,0,0,1,730,630.85Z"/><path class="cls-5" d="M695.94,612.3l-4.49-.6a23.36,23.36,0,0,0-2.71-15l4-2.22A28,28,0,0,1,695.94,612.3Z"/><path class="cls-5" d="M657.2,545.41l-4.44-.93a31.31,31.31,0,0,0-1.38-18.08l4.22-1.65A35.68,35.68,0,0,1,657.2,545.41Z"/><rect class="cls-5" x="648.98" y="488.29" width="13.49" height="4.54" transform="translate(95.75 1088.09) rotate(-83.66)"/><path class="cls-5" d="M723.28,446.57a73.28,73.28,0,0,0-5.78-21.68l4.15-1.84a77.86,77.86,0,0,1,6.14,23Z"/><rect class="cls-5" x="663.88" y="452.52" width="4.54" height="14.98" transform="translate(-42.43 68.5) rotate(-5.7)"/><rect class="cls-5" x="590.18" y="418.29" width="4.54" height="14.9"/><path class="cls-5" d="M183.45,413.48l-3.9-2.31a102.85,102.85,0,0,0,8.74-18.95l4.29,1.47A107.11,107.11,0,0,1,183.45,413.48Z"/><path class="cls-5" d="M106.09,368.66l-4-2.07a29.34,29.34,0,0,0,2.77-8.29l4.47.77A33.65,33.65,0,0,1,106.09,368.66Z"/><rect class="cls-5" x="126.36" y="309.48" width="13.49" height="4.54" transform="translate(-191.44 409.56) rotate(-83.65)"/><path class="cls-5" d="M150.79,303l-4.09-2c1.48-3.1,1.35-14.64,1.29-20.19,0-1,0-1.93,0-2.67h4.54c0,.73,0,1.62,0,2.63C152.63,290,152.58,299.3,150.79,303Z"/><path class="cls-5" d="M185.16,271.41l-4.35-1.29a30.51,30.51,0,0,0,0-18.05l4.33-1.35A35,35,0,0,1,185.16,271.41Z"/><path class="cls-5" d="M250,281.42,247,278c4.82-4.19,9.88-8.23,15-12l2.7,3.65C259.69,273.34,254.73,277.31,250,281.42Z"/><path class="cls-5" d="M217.54,343.05l-.61-4.5a117.65,117.65,0,0,0,14.61-2.92l1.17,4.38A123,123,0,0,1,217.54,343.05Z"/><path class="cls-5" d="M198.59,418.29a36.94,36.94,0,0,0-2.81-14l4.19-1.75a41.67,41.67,0,0,1,3.15,15.77Z"/><path class="cls-5" d="M78,412.69a90.73,90.73,0,0,0-5.81-20.35l4.19-1.75A95.44,95.44,0,0,1,82.49,412Z"/><path class="cls-5" d="M64.63,460.32l-4.49-.62a9.94,9.94,0,0,0-2.41-8.59L61.08,448A14.43,14.43,0,0,1,64.63,460.32Z"/><path class="cls-5" d="M265.38,478.61l-1-4.42c4.72-1.08,8.1-4.07,10.35-9.14l4.14,1.84C276,473.27,271.5,477.21,265.38,478.61Z"/><rect class="cls-5" x="305.08" y="448.8" width="16.38" height="4.54"/><path class="cls-5" d="M333.87,430.76c-2.19-1.06-9.09-1.58-16.78-1.26L316.9,425c3.33-.14,14.56-.42,19,1.72Z"/><path class="cls-5" d="M347.9,399.4l-2.26-3.94c4.19-2.4,7.15-6,10.29-9.88.81-1,1.65-2,2.52-3l3.45,2.95c-.84,1-1.66,2-2.46,3C356.18,392.45,352.82,396.58,347.9,399.4Z"/><path class="cls-5" d="M331.62,377l-2.46-3.81c3.72-2.4,3.76-4.95,3.46-6.65l4.47-.77C337.64,368.91,337.14,373.42,331.62,377Z"/><path class="cls-5" d="M356.81,450.07l-2.21-4a35.63,35.63,0,0,0,11.2-9.82l3.63,2.73A40,40,0,0,1,356.81,450.07Z"/><path class="cls-5" d="M380.67,365.3q-.48,0-1,0l.22-4.1c4.62.25,10.43-1.92,14.48-5.38l2.67,3.12A26.63,26.63,0,0,1,380.67,365.3Z"/><rect class="cls-5" x="395.74" y="389.67" width="0.84" height="4.11"/><path class="cls-5" d="M455.77,346a61.36,61.36,0,0,1-13.86-3.48l1.5-3.82a58.15,58.15,0,0,0,13,3.23Z"/><path class="cls-5" d="M397.67,391l-2.18-3.49c7.52-4.71,14.8-10.12,21.84-15.36l.65-.48,2.45,3.3-.65.48C412.68,380.7,405.33,386.16,397.67,391Z"/><path class="cls-5" d="M426.7,328.42l-3.26-2.51a96.51,96.51,0,0,0,10.65-18.06l3.73,1.74A101.18,101.18,0,0,1,426.7,328.42Z"/><path class="cls-5" d="M438.1,300.48c-.34-4.74-.62-9.55-.84-14.31l4.1-.19c.22,4.72.5,9.5.84,14.21Z"/><path class="cls-5" d="M401.31,283.3a100.82,100.82,0,0,1-2.57-11.13l4.05-.69a98.09,98.09,0,0,0,2.46,10.67Z"/><rect class="cls-5" x="341.32" y="273.03" width="4.11" height="12.68" transform="translate(21.04 582.78) rotate(-82.4)"/><path class="cls-5" d="M343.25,336.75l-.58-4.08a33.22,33.22,0,0,0,10.27-3.16l1.82,3.69A37.74,37.74,0,0,1,343.25,336.75Z"/><path class="cls-5" d="M399.85,318.18l-1.51-3.83a20,20,0,0,0,7.59-5.32l3.08,2.73A24.18,24.18,0,0,1,399.85,318.18Z"/><path class="cls-5" d="M332.75,254.48l-1.37-3.88,3.29-1.13c4.55-1.54,9.71-3.29,13.07-5.38l2.17,3.49c-3.76,2.35-9.16,4.17-13.92,5.79C334.85,253.75,333.75,254.12,332.75,254.48Z"/><rect class="cls-5" x="368.66" y="229.52" width="10.6" height="4.11" transform="translate(-54.02 130.05) rotate(-18.42)"/><path class="cls-5" d="M294.72,267.14l-.7-4.05a77.86,77.86,0,0,0,8.92-2.3l3.44-1,1.11,4-3.37,1A81.34,81.34,0,0,1,294.72,267.14Z"/><path class="cls-5" d="M309,237l-.73-4.05a76.57,76.57,0,0,0,9.79-2.45l1.26,3.91A79.88,79.88,0,0,1,309,237Z"/><path class="cls-5" d="M328.64,295.68c-5.94-.22-12.84-.69-19-2.61l1.23-3.92c5.66,1.77,12.22,2.21,17.89,2.42Z"/><rect class="cls-5" x="479.98" y="285.24" width="4.11" height="0.84"/><rect class="cls-5" x="526.9" y="296.43" width="4.11" height="12" transform="translate(122.33 756.2) rotate(-77.89)"/><path class="cls-5" d="M518.45,344.26c-5.76-1.28-11.63-2.4-17.46-3.33l.64-4.06c5.91.94,11.87,2.07,17.72,3.38Z"/><path class="cls-5" d="M481,309l-1.28-3.91a101,101,0,0,0,14-5.76l1.85,3.68A106.74,106.74,0,0,1,481,309Z"/><path class="cls-5" d="M490.44,279.56l-1.73-3.73a22.35,22.35,0,0,0,10-9.24l3.54,2.08A26.37,26.37,0,0,1,490.44,279.56Z"/><rect class="cls-5" x="515.04" y="245.87" width="11.91" height="4.11" transform="translate(-0.91 493.93) rotate(-50.69)"/><rect class="cls-5" x="458.72" y="241.26" width="9.77" height="4.11" transform="translate(-59.13 273.05) rotate(-30.95)"/><path class="cls-5" d="M410.63,244.43l-1.29-3.9a120.1,120.1,0,0,0,15.65-6.6l1.83,3.68A123.56,123.56,0,0,1,410.63,244.43Z"/><rect class="cls-5" x="413.34" y="275.64" width="0.84" height="4.11"/><rect class="cls-5" x="576.33" y="306.79" width="4.11" height="11.4" transform="translate(-73.21 399.71) rotate(-36.01)"/><path class="cls-5" d="M619.22,363.17a87.19,87.19,0,0,0-7.37-13.93L615.3,347A90.4,90.4,0,0,1,623,361.59Z"/><path class="cls-5" d="M618.23,381a19.78,19.78,0,0,0-2.27-7.6l3.61-1.95a23.71,23.71,0,0,1,2.75,9.17Z"/><path class="cls-5" d="M556.78,374.39a19,19,0,0,1-8.43-5.64l3.11-2.68a14.88,14.88,0,0,0,6.64,4.43Z"/><path class="cls-5" d="M519.14,392a128.59,128.59,0,0,0-13.2-3.3l.79-4a136,136,0,0,1,13.61,3.4Z"/><path class="cls-5" d="M505.64,421.61a19,19,0,0,0-6.05-4.55l1.76-3.71a22.87,22.87,0,0,1,7.35,5.52Z"/><rect class="cls-5" x="479.14" y="416.05" width="4.11" height="8.38" transform="translate(-155.88 372.51) rotate(-36.85)"/><path class="cls-5" d="M473.57,376.85a42.44,42.44,0,0,0-4-5.6l3.14-2.65a47.49,47.49,0,0,1,4.38,6.14Z"/><path class="cls-5" d="M496.54,326.14a24.37,24.37,0,0,0-7-4.64l1.65-3.76a28.27,28.27,0,0,1,8.13,5.42Z"/><path class="cls-5" d="M588.19,279.76h-.65l.13-4.11a13.34,13.34,0,0,0,8-2.18L598,276.9A17.44,17.44,0,0,1,588.19,279.76Z"/><rect class="cls-5" x="634.56" y="290.53" width="4.11" height="4.51" transform="translate(128.22 775.01) rotate(-68.18)"/><path class="cls-5" d="M654.4,352.25c-1.1-2.73-3.7-6.36-6.22-9.87-1.57-2.19-3.19-4.45-4.51-6.58l3.49-2.18c1.25,2,2.83,4.22,4.36,6.36,2.78,3.88,5.41,7.54,6.69,10.73Z"/><path class="cls-5" d="M638.22,322a96.45,96.45,0,0,0-14.75-10.68l2-3.59a100.51,100.51,0,0,1,15.41,11.13Z"/><rect class="cls-5" x="683.57" y="315.87" width="4.11" height="7.5" transform="translate(92.98 789.74) rotate(-63.42)"/><path class="cls-5" d="M658.6,273a37.05,37.05,0,0,1-13.33-4.43l2-3.61a32.88,32.88,0,0,0,11.8,3.95Z"/><path class="cls-5" d="M556.67,260.46l-.13-4.11a76.91,76.91,0,0,0,13.7-2.08l1.86-.39.84,4-1.84.39A81.66,81.66,0,0,1,556.67,260.46Z"/><rect class="cls-5" x="548.68" y="280.68" width="4.11" height="11.64" transform="translate(25.65 617.68) rotate(-59.72)"/><path class="cls-5" d="M379.49,268.48a25.8,25.8,0,0,1-5.1-.51l.81-4a22.14,22.14,0,0,0,11.52-.77l1.29,3.9A26.93,26.93,0,0,1,379.49,268.48Z"/><path class="cls-5" d="M433.63,232l-.37-4.1c1.39-.12,2.65-.17,3.86-.23,4-.17,6.64-.28,9.19-2.6l2.76,3c-3.65,3.31-7.41,3.48-11.77,3.66C436.13,231.78,434.92,231.83,433.63,232Z"/><path class="cls-5" d="M474.82,268.83l-.64-4.07c5.16-.81,11.69-8.14,16-13,.74-.84,1.44-1.62,2.07-2.3l3,2.79c-.62.66-1.29,1.43-2,2.25C488.27,260.11,481.43,267.79,474.82,268.83Z"/><path class="cls-5" d="M498.49,234.4l-1.06-4a10.81,10.81,0,0,0,5.66-3.53l3.14,2.65A15,15,0,0,1,498.49,234.4Z"/><path class="cls-5" d="M269.8,250.32l-1.14-3.95a10.45,10.45,0,0,0,5.57-4.21l3.4,2.31A14.62,14.62,0,0,1,269.8,250.32Z"/><path class="cls-5" d="M328,321.73a10.88,10.88,0,0,1-1.13-.07l.45-4.09a6,6,0,0,0,5-1.94l2.86,2.95A10.16,10.16,0,0,1,328,321.73Z"/><path class="cls-5" d="M577.65,346.69c-4.64-1.79-6.45-6.16-7.91-10.48l3.89-1.32c1.47,4.36,2.78,6.91,5.5,8Z"/><rect class="cls-5" x="541.14" y="323.97" width="4.11" height="8.91" transform="translate(-61.74 520.7) rotate(-48.79)"/><path class="cls-5" d="M686.38,373.5a66.5,66.5,0,0,1-4.06-8.44c-.61-1.43-1.24-2.9-1.9-4.32l3.72-1.75c.7,1.48,1.34,3,2,4.46a63.79,63.79,0,0,0,3.8,7.93Z"/><path class="cls-5" d="M673.44,400.14l-4.11-.06a9.17,9.17,0,0,0-2.05-6.21l3.19-2.6A13.39,13.39,0,0,1,673.44,400.14Z"/><rect class="cls-5" x="433.9" y="458.55" width="4.11" height="11.4" transform="translate(-117.17 148.6) rotate(-17.09)"/><path class="cls-5" d="M339.8,660.07l-3.73-1.73a12.84,12.84,0,0,0,.72-8.66l4-1.07A17,17,0,0,1,339.8,660.07Z"/><path class="cls-5" d="M323.11,648.15l-3.87-1.37a35.53,35.53,0,0,0,1.58-6.33l4.06.62A38.61,38.61,0,0,1,323.11,648.15Z"/><path class="cls-5" d="M309.76,649.67l-4-1c2-7.78,2.88-14.6,2.45-20.28l4.09-.32C312.8,634.17,311.94,641.45,309.76,649.67Z"/><path class="cls-5" d="M296.62,706l-2.84-3a24.61,24.61,0,0,0,7-10.84l3.94,1.17A28.58,28.58,0,0,1,296.62,706Z"/><path class="cls-5" d="M341.4,707.16l-3.59-2a23.87,23.87,0,0,0,3.1-11.58H345A27.79,27.79,0,0,1,341.4,707.16Z"/><rect class="cls-5" x="360.17" y="708.67" width="4.11" height="13.42"/><path class="cls-5" d="M321.42,693.48,317.58,692c1.15-3,1-7,.82-10.93-.06-1.41-.12-2.87-.12-4.27h4.11c0,1.31.06,2.66.12,4.09C322.69,685.21,322.88,689.66,321.42,693.48Z"/><path class="cls-5" d="M312.45,751.77c-.31-1.85-.5-3.71-.69-5.51a66.47,66.47,0,0,0-1-7l4-.86c.52,2.49.78,5,1,7.4.18,1.74.37,3.54.65,5.27Z"/><path class="cls-5" d="M293.21,754.45a56.07,56.07,0,0,0-3.69-9.55c-1-2.27-2.1-4.62-2.95-7l3.87-1.38c.79,2.25,1.83,4.51,2.82,6.7a59.32,59.32,0,0,1,3.94,10.27Z"/><path class="cls-5" d="M269.39,751.53l-3.67-1.86a14,14,0,0,0,1.48-8.81l4.06-.64A18.24,18.24,0,0,1,269.39,751.53Z"/><path class="cls-5" d="M327.19,749l-3.65-1.87a8,8,0,0,0,.69-6l3.95-1.13A12,12,0,0,1,327.19,749Z"/><rect class="cls-5" x="345.93" y="749.76" width="4.11" height="6.71"/><path class="cls-5" d="M388.52,708.32l-4-1a207.16,207.16,0,0,0,4.15-23.24l4.08.5A210.55,210.55,0,0,1,388.52,708.32Z"/><path class="cls-5" d="M415.07,661.31c-2.47-3.14-4.3-8.21-5.92-12.68-.38-1-.74-2-1.08-2.94l3.83-1.48c.36.93.73,1.95,1.11,3,1.44,4,3.23,8.92,5.29,11.54Z"/><rect class="cls-5" x="461.13" y="637.17" width="4.11" height="13.04" transform="translate(-319.45 515.76) rotate(-44.98)"/><path class="cls-5" d="M410.67,638.35a73.61,73.61,0,0,0-13-18l2.93-2.89a77.78,77.78,0,0,1,13.76,19Z"/><path class="cls-5" d="M380.2,650.93l-4.1-.22a47.35,47.35,0,0,1,4.37-17.52l3.73,1.72A43.41,43.41,0,0,0,380.2,650.93Z"/><rect class="cls-5" x="461.97" y="630.68" width="4.11" height="10.93" transform="translate(-47.38 37.43) rotate(-4.39)"/><path class="cls-5" d="M510.83,642.13l-4-1.06c1.16-4.36,1.32-9.56,1.46-14.59,0-1.41.09-2.87.15-4.27l4.11.2c-.07,1.36-.11,2.73-.15,4.19C512.28,631.87,512.12,637.31,510.83,642.13Z"/><rect class="cls-5" x="532.29" y="635.77" width="17.63" height="4.11" transform="translate(-121.77 1147.92) rotate(-87.27)"/><path class="cls-5" d="M584,675a64.27,64.27,0,0,0-3.94-8.64c-.91-1.76-1.85-3.58-2.69-5.43l3.75-1.69c.79,1.75,1.7,3.52,2.59,5.23a69.1,69.1,0,0,1,4.18,9.2Z"/><path class="cls-5" d="M594.15,642.53a107.72,107.72,0,0,0-7.4-12.34l3.38-2.34a111.87,111.87,0,0,1,7.68,12.81Z"/><rect class="cls-5" x="617.8" y="623.05" width="4.11" height="16.13" transform="translate(-223.18 363.12) rotate(-27.88)"/><rect class="cls-5" x="629.64" y="640.38" width="26.51" height="4.11" transform="translate(-169.94 1049.05) rotate(-71.56)"/><rect class="cls-5" x="623.13" y="699.91" width="21.94" height="4.11" transform="translate(-136.04 1251.26) rotate(-83.41)"/><path class="cls-5" d="M634.15,738.2c-.35-3.92-.63-7.89-.84-11.81l4.1-.22c.21,3.87.49,7.8.83,11.67Z"/><path class="cls-5" d="M666.66,706.73l-3.95-1.14c1.89-6.57,3.57-13.29,5-20l4,.85C670.28,693.25,668.58,700.06,666.66,706.73Z"/><rect class="cls-5" x="684.69" y="675.18" width="16.13" height="4.11" transform="matrix(0.16, -0.99, 0.99, 0.16, -84.32, 1255.78)"/><rect class="cls-5" x="581.74" y="711.65" width="10.9" height="4.11" transform="translate(-297.57 980.86) rotate(-67.36)"/><path class="cls-5" d="M576.87,735.22a8.86,8.86,0,0,1-2.19-7.54l4.07.56a4.8,4.8,0,0,0,1.15,4.2Z"/><path class="cls-5" d="M622.24,716l-3.92-1.21c1.95-6.35,2.74-13.52,3.26-19.69l4.1.34C625.14,701.82,624.31,709.27,622.24,716Z"/><path class="cls-5" d="M606.5,749.83a31.74,31.74,0,0,0-2.36-11l3.8-1.57a35.67,35.67,0,0,1,2.66,12.45Z"/><path class="cls-5" d="M615.72,694.63a27.47,27.47,0,0,0-3.9-11.71l3.51-2.15a31.65,31.65,0,0,1,4.48,13.44Z"/><rect class="cls-5" x="670.17" y="728.21" width="4.11" height="11.25" transform="translate(-257.09 377.77) rotate(-26.55)"/><path class="cls-5" d="M712.82,687.83l-4.11-.24a34.87,34.87,0,0,0-1.58-12.67l3.92-1.25A39.25,39.25,0,0,1,712.82,687.83Z"/><path class="cls-5" d="M733.62,606.31l-3.82-1.53c2.06-5.14,2.72-11.23,3.21-17l4.1.35C736.61,594,735.88,600.65,733.62,606.31Z"/><rect class="cls-5" x="717.93" y="589.61" width="4.11" height="10.06"/><path class="cls-5" d="M568,631.68a45.24,45.24,0,0,0-3.19-14.43l3.78-1.61a49.25,49.25,0,0,1,3.51,15.75Z"/><path class="cls-5" d="M511.43,621.71l-3.49-2.16c.53-1-1.61-5.63-5.65-10.12l3.06-2.75C506.28,607.72,514.38,617,511.43,621.71Z"/><path class="cls-5" d="M430.55,640a38.45,38.45,0,0,0-2.37-12.73l3.83-1.51a42.89,42.89,0,0,1,2.65,14.09Z"/><rect class="cls-5" x="417.53" y="603.48" width="0.84" height="4.11"/><path class="cls-5" d="M494.44,697.86a26.49,26.49,0,0,1-2.72-10l4.1-.3a22.38,22.38,0,0,0,2.3,8.46Z"/><rect class="cls-5" x="520.62" y="694.12" width="4.11" height="5.62" transform="translate(-256.39 307.11) rotate(-26.55)"/><rect class="cls-5" x="530.05" y="707.46" width="10.37" height="4.11" transform="translate(-283.02 1056.41) rotate(-75.94)"/><rect class="cls-5" x="489.84" y="732.61" width="10.37" height="4.11" transform="translate(-337.87 1036.44) rotate(-75.94)"/><rect class="cls-5" x="478.04" y="714.17" width="7.16" height="4.11" transform="translate(-358.15 915.52) rotate(-69.43)"/><path class="cls-5" d="M526.58,728.93,523,727a25.25,25.25,0,0,0,2.33-6.2l4,.92A29,29,0,0,1,526.58,728.93Z"/><rect class="cls-5" x="522.23" y="736.39" width="9.26" height="4.11" transform="translate(-256.3 1196.19) rotate(-84.8)"/><rect class="cls-5" x="506.37" y="706.62" width="4.11" height="8.3" transform="translate(-353.63 567.39) rotate(-44.98)"/><path class="cls-5" d="M549.55,683a50.24,50.24,0,0,0-3.22-11.28l3.79-1.58a54.46,54.46,0,0,1,3.49,12.2Z"/><rect class="cls-5" x="516.01" y="669.27" width="4.11" height="0.84"/><path class="cls-5" d="M475.35,685.52,472,683.2a17.42,17.42,0,0,0,3-9l4.1.23A21.34,21.34,0,0,1,475.35,685.52Z"/><path class="cls-5" d="M519.56,683.56c-.72-1.53-1.43-3.09-2.18-4.74-1.44-3.15-2.92-6.4-4.49-9.45l3.65-1.89c1.62,3.14,3.12,6.44,4.58,9.64.74,1.63,1.44,3.18,2.15,4.68Z"/><path class="cls-5" d="M504.51,678.6c-1-2-2.17-3.89-3.29-5.77s-2.34-3.91-3.41-6l3.64-1.9c1,1.95,2.18,3.89,3.3,5.77s2.33,3.91,3.41,6Z"/><path class="cls-5" d="M539.47,739.84a54.62,54.62,0,0,0-.81-6.48l4.05-.74a60.61,60.61,0,0,1,.86,6.94Z"/><path class="cls-5" d="M498.49,756.18a30.28,30.28,0,0,0-3.93-8.64l3.44-2.26a35,35,0,0,1,4.45,9.8Z"/><rect class="cls-5" x="635.4" y="746.83" width="4.11" height="10.9" transform="translate(-240.17 302.79) rotate(-22.6)"/><path class="cls-5" d="M663.94,754.43a17.44,17.44,0,0,1-3.8-8.56l4.06-.61a13.41,13.41,0,0,0,2.9,6.54Z"/><path class="cls-5" d="M699.4,726.53l-4.08-.5a17.51,17.51,0,0,0-1.5-9.77l3.72-1.75A21.55,21.55,0,0,1,699.4,726.53Z"/><path class="cls-5" d="M673.55,669.64a8.88,8.88,0,0,0-3.41-5.45l2.49-3.27a13,13,0,0,1,5,8Z"/><path class="cls-5" d="M678.56,724a85.9,85.9,0,0,0-1.63-9l4-.95a91,91,0,0,1,1.71,9.44Z"/><path class="cls-5" d="M449.05,402.66a83.23,83.23,0,0,1-14.6-12.89l3-2.79a78.65,78.65,0,0,0,13.88,12.27Z"/><path class="cls-5" d="M141.65,728.71a50.89,50.89,0,0,1-2.15-8.08,54.6,54.6,0,0,0-2.05-7.87l3.84-1.46a56.91,56.91,0,0,1,2.23,8.48,47.9,47.9,0,0,0,1.95,7.43Z"/><path class="cls-5" d="M120.44,717.44l-4-.76a8.45,8.45,0,0,0-.66-5.43l3.69-1.79A12.46,12.46,0,0,1,120.44,717.44Z"/><path class="cls-5" d="M97.12,720.73c-.63-4.15-1.47-8.32-2.48-12.4l4-1c1,4.2,1.9,8.49,2.55,12.76Z"/><rect class="cls-5" x="110.92" y="733.24" width="4.11" height="16.27" transform="translate(-635.76 699.1) rotate(-78.1)"/><rect class="cls-5" x="162.25" y="742.67" width="10.37" height="4.11" transform="translate(-595.66 726.29) rotate(-75.94)"/><path class="cls-5" d="M177.77,747.5l-1.39-3.87c.18-.06.29-.1.31-.65l4.11.14A4.55,4.55,0,0,1,177.77,747.5Z"/><path class="cls-5" d="M130.8,758.73l-3-2.84a9.18,9.18,0,0,0,2.78-6.89l4.11-.15A13.27,13.27,0,0,1,130.8,758.73Z"/><path class="cls-5" d="M130,734.84c-.81-1.44-2.48-4.78-3.43-6.86l3.74-1.71c.9,2,2.52,5.21,3.27,6.55Z"/><path class="cls-5" d="M178.28,715.59l-4.09-.41a25.73,25.73,0,0,0-.78-9.31l4-1.1A30,30,0,0,1,178.28,715.59Z"/><path class="cls-5" d="M194.19,718.19l-4.07-.58c.19-1.37.45-2.74.7-4.07a54.51,54.51,0,0,0,1-6.66l4.1.24a57.3,57.3,0,0,1-1,7.17C194.6,715.64,194.37,716.91,194.19,718.19Z"/><path class="cls-5" d="M155.83,726.13l-2.76-3a7.37,7.37,0,0,0,2.68-6l4.1-.16A11.39,11.39,0,0,1,155.83,726.13Z"/><path class="cls-5" d="M120.18,704.11a34.11,34.11,0,0,0-5.19-4.8,39.21,39.21,0,0,1-5.68-5.24l3.15-2.65a34.88,34.88,0,0,0,5.11,4.69,38,38,0,0,1,5.79,5.39Z"/><path class="cls-5" d="M95.09,705.84c-2.63-3-5.19-6.15-7.62-9.33l3.26-2.5c2.38,3.11,4.89,6.18,7.46,9.12Z"/><path class="cls-5" d="M151.46,759.73c-3-2.49-3.58-7.34-4.06-11.24l0-.16,4.08-.49,0,.16c.37,3,.87,7.12,2.6,8.56Z"/><path class="cls-5" d="M185.91,755.8a11.69,11.69,0,0,0-3.58-7.1l2.89-2.91a15.62,15.62,0,0,1,4.79,9.67Z"/><path class="cls-5" d="M190.4,736.58c-.46-.76-1-1.54-1.47-2.34a64.29,64.29,0,0,1-3.65-6.21l3.69-1.82a62,62,0,0,0,3.42,5.81c.53.83,1,1.63,1.52,2.42Z"/><path class="cls-5" d="M208.58,757.77c-.68-3-2.78-5.55-4.53-7.45l3-2.79c2.09,2.28,4.62,5.39,5.52,9.32Z"/><path class="cls-5" d="M165.79,771.07a18.69,18.69,0,0,1-9.39-4.71l2.8-3a14.47,14.47,0,0,0,7.36,3.68Z"/><path class="cls-5" d="M87.75,360.33l-4-.93a29.05,29.05,0,0,0,0-13.31l4-.95A33,33,0,0,1,87.75,360.33Z"/><path class="cls-5" d="M70.46,369.91a85,85,0,0,0-6.55-12.28l3.46-2.23a90.16,90.16,0,0,1,6.86,12.87Z"/><path class="cls-5" d="M106,449.78l-3.56-2.07a74.77,74.77,0,0,0,5.71-12.24l3.87,1.39A79.38,79.38,0,0,1,106,449.78Z"/><path class="cls-5" d="M141.14,430.5l-3.54-2.08a21.72,21.72,0,0,0,3.07-11.5l4.1-.08A25.62,25.62,0,0,1,141.14,430.5Z"/><path class="cls-5" d="M228.53,426.11l-2.38-3.36c1.5-1.06,2.75-3.7,3.36-7.07l4,.73C233.08,419,231.8,423.79,228.53,426.11Z"/><path class="cls-5" d="M299.42,494.33,296,492c2.09-3.13,6.23-5.8,10.23-8.39,1.61-1,3.14-2,4.51-3l2.42,3.33c-1.47,1.06-3.11,2.12-4.7,3.15C304.82,489.46,301.05,491.91,299.42,494.33Z"/><path class="cls-5" d="M329.35,500.17l-1.27-3.91.46-.15c3.75-1.21,7.61-2.47,10.74-4.62l2.33,3.39c-3.62,2.49-7.78,3.84-11.8,5.14Z"/><path class="cls-5" d="M336.81,580.16c-1.63-5.25-4.25-13-8.19-19.69l3.54-2.09c4.16,7,6.89,15.11,8.57,20.56Z"/><path class="cls-5" d="M319,581.39l-4.09-.33a32.64,32.64,0,0,0-.79-10.25l4-1A36.72,36.72,0,0,1,319,581.39Z"/><path class="cls-5" d="M56.27,516.75c-1.43-2.82-1.42-6.36-1.41-9.78a30.3,30.3,0,0,0-.44-6.61l4-.93A33.74,33.74,0,0,1,59,507c0,3.07,0,6,1,7.92Z"/><path class="cls-5" d="M78.88,500.45l-3-2.8c.81-.87,1.14-4.72.34-8.2l4-.92C81,491.91,81.27,497.87,78.88,500.45Z"/><path class="cls-5" d="M41,491.74c-.41-3.58-1-7.2-1.65-10.74l4-.79c.71,3.65,1.28,7.37,1.7,11.07Z"/><path class="cls-5" d="M44.57,561.26a22.77,22.77,0,0,1-2.77-12l4.11.16a18.53,18.53,0,0,0,2.26,9.83Z"/><rect class="cls-5" x="93.33" y="493.42" width="4.11" height="7.91" transform="matrix(0.85, -0.53, 0.53, 0.85, -248.99, 126.04)"/><path class="cls-5" d="M71.18,534.72c-.58-2.56-2.59-5.31-4.53-8-.94-1.28-1.91-2.61-2.75-4l3.48-2.18c.77,1.22,1.65,2.44,2.59,3.72,2.18,3,4.45,6.1,5.21,9.5Z"/><path class="cls-5" d="M45.29,533.34c-1.29-3.33-2.44-6.78-3.41-10.25l4-1.11c.93,3.34,2,6.66,3.28,9.87Z"/><path class="cls-5" d="M98.81,476a67.06,67.06,0,0,1-.87-14.71l4.1.13a62.92,62.92,0,0,0,.81,13.79Z"/><rect class="cls-5" x="69.03" y="473.73" width="4.11" height="1.19" transform="translate(-314.51 189.1) rotate(-44.99)"/><path class="cls-5" d="M766.87,496.85a72,72,0,0,1-4.82-8.78c-.64-1.32-1.31-2.68-2-4l3.64-1.92c.72,1.37,1.39,2.75,2,4.1a68.5,68.5,0,0,0,4.54,8.29Z"/><path class="cls-3" d="M631.6,418.94l-3.72.86q-8.4-.44-12.74-8c-1.31-1.83-2.21-4.85-2.69-9.09l4.57-7.13q9.53-1.08,60.77-67.39t51.84-77.84l-1.14-8.48q-15.86,21.81-43.11,20.41-32-1.63-56-25.5T607,180.89q1.66-32.53,28.88-55.61t60.25-21.38q33.54,1.72,54.4,25.95t19.12,57.81q-1.7,33.06-29.76,77.93-13.74,21.92-58.24,79.62Q644.48,393.29,631.6,418.94ZM710.67,127.8q-17.83-.92-29.63,14a58.09,58.09,0,0,0-12.78,33.81,74.9,74.9,0,0,0,8.29,38.31q9.32,18.38,28.19,19.34,17.82.92,30.31-16.86a67.11,67.11,0,0,0,11.79-35.17q1-18.9-7.72-34.08Q728.5,128.73,710.67,127.8Z"/><path class="cls-3" d="M406.32,372.8a3.58,3.58,0,0,1,2.13-.45,40.7,40.7,0,0,0,5.84-.45l17-.89,17-1.35v-2.24a16.68,16.68,0,0,1,.53-3.15q.52-21.09,1.59-38.15a123,123,0,0,1,.53-12.57V212.11a26.24,26.24,0,0,0,.54-5.83l.53-18.86v-2.24L448.79,187l-15.92,8.53q-3.19,1.8-5.31,3.15a5.88,5.88,0,0,1-2.13.89l-20.17,4h-1.59a14.19,14.19,0,0,0-3.72-.45q-5.31-.44-11.67-1.12t-11.68-1.12a13.73,13.73,0,0,1-3.72-.45h-1.59l6.9-53.41h1.59a18.32,18.32,0,0,1,3.72.45h2.65l.53.44h4.78l.53.45h3.19a41.83,41.83,0,0,0,5.83.45l13.81-7.18q8-4.48,15.92-8.53l8-14.36,8.49-14.36c1.06-2.1,1.94-3.74,2.65-4.94a4.33,4.33,0,0,0,1.06-1.8l60.52,9.43v2.24c.35,1.8.71,3.75,1.06,5.84l1.6,18,1.59,18a12.06,12.06,0,0,1,.53,3.36,11.76,11.76,0,0,0,.26,2.7,8,8,0,0,1,.27,1.57v12.12l-1.06,18.4-.53,18.85a27,27,0,0,1-.53,5.84V315.35q-.54,5.38-.53,12.57Q513,345.42,512,366.07v1.79h16.46l.53-.44h18.58a18.89,18.89,0,0,0,4.78-.45h2.12L556,420.83H553.9l-4.78.45H530l-.53.45H509.31a41.85,41.85,0,0,0-5.84.45H485.42l-18.05.45h-8l-5.84.45-17,1.34-17,1.35h-3.71l-.53.45h-3.19Z"/></g></g></svg>