<svg xmlns="http://www.w3.org/2000/svg" viewBox="0 0 832.5 832.5"><defs><style>.cls-1{fill:#deaa7c;}.cls-2{fill:#e55747;}.cls-3{fill:#ffffc5;}.cls-4{fill:#5e4440;}.cls-5{fill:#76b099;}</style></defs><g id="Layer_2" data-name="Layer 2"><g id="Layer_1-2" data-name="Layer 1"><rect class="cls-1" width="832.5" height="832.5"/><path class="cls-2" d="M667.82,522.82c-12.76-8.46-27.21-.31-26.18-3.78-1.72,4,4.6,12.41,4.56,17.56,4.41.67,12.91-5.25,15.84-8.51C662,528.09,667.26,523.67,667.82,522.82Z"/><path class="cls-3" d="M172.62,801.93c9.69-21.43,8.58-51.06,16.26-74.23a233.78,233.78,0,0,1,27.94-57c18.85-28.29,81.22-45.53,115.6-37.76,53.28,12,36.63,72.85,38.93,118,.79,15.42-3.27,34.71,1.25,49.46-32.81,1-66.19-5.14-99.74-3.63-32.38,1.46-65.35,5-97.48,5.22Z"/><path class="cls-3" d="M382,676.48a104.44,104.44,0,0,1,57.54-27.23c12.5-1.67,27-1.93,39.38,0,19.32,3,42.79,9,54.48,25.4,17.09,24,14.78,66,16.07,94,.65,14.23,2.75,32.53-10.28,39.4-11.21,5.91-32.11,4.5-44.48,5.31a366.82,366.82,0,0,1-49.95.06C428,812.31,387.85,806,379.32,791.8Z"/><path class="cls-4" d="M370,674.86c-2.69-19.92,4.4-45.54,4.4-66.59,0-32.79-4.33-64.82-4.33-98.15,0-28.94,9.93-68.4-8.4-93.34-10.84-14.76-41.78-22.4-58.06-22.33-23,.11-45.82-1.44-68.9-1.44-29.56,0-49.46,1.78-75.54,16.22-11.07,6.13-49.11,65.55-50.56,91.65-1.48,26.65-5.29,41.92-9.35,68.64-9.35,61.62-33.32,117.91-42.47,179-2,13.64.36,26.68-11.64,35.46-10.55,7.72-20.8,12.23-32.16,16.54,18.14,1.36,159.37.48,185.31,1.6,4.27.18,3.17-17.88,4.2-22.13,2.75-11.37,5.39-23.09,8.3-34.34,4.05-15.64,5.73-39.15,13.08-52.35,8.09-14.55,42.53-18,59.65-15.63,16.67,2.3,10.44,14.58,22.95,25.76,24,21.46,53.59,27.24,84.16,25.7C382.7,719.27,371.78,688.44,370,674.86Z"/><path class="cls-4" d="M381.57,410.35c-10.81,40.53-8.73,93-.32,133.63,4.66,22.49.1,46.73,10,68.69,8.2,18.12,22.54,25.54,36.89,37.34,5.82,4.79,16.28,15.28,14.1,24.19-2.22,9.08-21.27,21.19-27.49,29.76-7.26,10-15,16.29-23.32,24.35,13.14,16.92,49.82,4.87,65.86-2.13,14.18-6.19,27.68-15.71,39.54-25.66,9.42-7.91,17.66-22.38,31.77-19.68,8.1,27.67,6,55.88,6,85.11,0,20.13-6.29,42.82,16.54,46.24,28.78,4.3,61.52-1.59,90-4.3,20.15-1.92,55.12,1,69.53-14.1-9.57-7.63-30.17-9.89-35.81-22.09-3.81-8.24,1.3-30.09,1.3-40,0-17,1.63-34.83.11-51.71a434.79,434.79,0,0,0-13.39-72.64c-5.08-18.47-5.52-34.84-8.07-53.66-7.72-57.1-22.32-112.13-60.9-157.8-12.07-14.29-27-10.45-45.87-11.93-27.67-2.16-55-.37-82.63,1.85-21.5,1.73-38.54,6-58.79,13.07-7.09,2.47-15.14,6.4-22.21,7.16Z"/><path class="cls-3" d="M361,457.2c-1.54-3.68-3.33-7.53-5.3-11.38a67.36,67.36,0,0,0-12.11-9.91c-11.94-7.49-26.41-10.91-41.31-12.31-8.48.17-17,.33-25.46.36-8.15,0-16.31,0-24.46-.26-11.94.66-23.84,1.83-35.38,5.19-6.34,1.84-13,4.34-18.11,8.61s-32.34,35.35-33.64,66.5c-.06,1.66-.43,3.3-.65,5,.19-1.46.39-2.92.58-4.38-1,7.53-1.73,15.09-2.34,22.67-.55,6.81-1.23,13.66-1.48,20.5-.06,1.66-.09,3.33-.12,5a49.48,49.48,0,0,0,1.84,6.53,38,38,0,0,0,2.33,4.06c4.32,4.87,9.91,8.61,14.81,12.86,2.86,2.49,4.25,6.32,4.68,10l.36,0C234.74,584,313.77,601.73,352.88,563c11.35-11.22,8.21-26.64,11-42C367.68,500.15,369.34,477.19,361,457.2Z"/><path class="cls-3" d="M388.91,486.66c.73,15.69.12,32.16,1.45,47.83,3.41,40.08,42.76,39,76,39,20.59,0,39.66,1.21,59.25-5.18,14.45-4.71,50.67-11,60.84-22.74,13.21-15.21-.12-41.82-5.29-58.17-7.4-23.38-11.67-46-32.41-61.42-27.58-20.55-68.65-26.47-102-20-22.13,4.29-36.25,15.56-54.82,24.13-.35,1.37.05,2.54-.21,3.9C391.74,434,388.21,471.6,388.91,486.66Z"/><path class="cls-4" d="M418.82,509.2c-1.76,4.83-4.44,9.53-6.73,10.19a1.89,1.89,0,0,1-1.87-.51c-1.73-1.48-1.1-4.58-.48-7.57.12-.62.25-1.22.35-1.8h-1.75c-.08.47-.18,1-.29,1.46-.68,3.32-1.45,7.09,1.05,9.23a3.77,3.77,0,0,0,2.48,1,3.38,3.38,0,0,0,1-.14c4-1.14,7.08-9,8.14-12C420.07,509.09,419.44,509.15,418.82,509.2Z"/><path class="cls-4" d="M574.84,504.93c-2,4.1-7.14,8.54-9.17,7.85-.48-.16-1.86-1.19-.43-7.55-.58,0-1.15-.09-1.73-.15-1.18,5.43-.64,8.57,1.6,9.33a3.21,3.21,0,0,0,1,.15c3.58,0,8.77-5.37,10.54-9.41l.2-.51C576.17,504.75,575.51,504.85,574.84,504.93Z"/><path class="cls-1" d="M567.55,522.15c-6.73,4.6,1.16,17.91,12.42,9.62C590.81,523.78,576.43,516.1,567.55,522.15Z"/><path class="cls-1" d="M407.23,524.8a15.32,15.32,0,0,0-3.85,2,4.69,4.69,0,0,0-.62,7.11c4.4,4.36,13.62,2,15.86-4.21a4.08,4.08,0,0,0-3.74-5.44c-2.18,0-4.37.05-5.6.12A7.18,7.18,0,0,0,407.23,524.8Z"/><path class="cls-2" d="M468.13,510.08a35,35,0,0,0,10.48,15.46,49.44,49.44,0,0,0,7-14.32c-5.27-1.47-10.71-1.1-16.31-1.14Z"/><path class="cls-4" d="M221.73,516.18c-1,0-1.65-1-2-1.58l1.66-1.08.11.16c.11-.5.22-1.17.31-1.75.59-3.69,1.58-9.87,7.05-10,3.28-.08,6.31,3.74,9,11.35l.14.39-1.81.8c0-.07-.1-.25-.19-.52-3.27-9.13-6.07-10.06-7.13-10-3.52.08-4.44,4-5.13,8.33-.37,2.28-.59,3.66-1.76,3.91Z"/><path class="cls-4" d="M333.64,505.67c-.92-5.05.06-9.1,2.69-11.12a6.49,6.49,0,0,1,6.86-.55c3.72,1.76,6,6,6.22,11.46l-2,.07c-.18-5.49-2.75-8.63-5.08-9.74a4.52,4.52,0,0,0-4.81.33c-2,1.55-2.73,4.91-2,9.2Z"/><path class="cls-2" d="M274.39,518.2c6.17-1,12.77-2.13,19.11-1.17.13,4.52-3,12.35-2.28,16.55C286.51,529.91,274.39,518.2,274.39,518.2Z"/><path class="cls-1" d="M208.14,529.25h0c-.93,7.92,16.48,19.26,23.34,6.35C238.52,522.38,209.23,515.19,208.14,529.25Z"/><path class="cls-1" d="M339.16,511.79c-12.54,9.69,2.24,25.75,16,13.68C369.85,512.69,349.93,503.47,339.16,511.79Z"/><path class="cls-2" d="M388.32,392.89a32.65,32.65,0,0,0,1.44,4.32A27.35,27.35,0,0,0,402,411a42.46,42.46,0,0,0,8.61,3.61,81,81,0,0,0,13.31,2.67c1.63.2,3.28.37,5,.53,3.86.35,7.86.58,12,.78l2.72.11c1.89.07,3.79.1,5.69.12,5.94,0,11.92-.15,17.9-.47l1.26-.07c13.57-.77,27.19-2.19,40.59-3.08l1.61-.11c6.1-.38,12.16-.65,18.14-.7a44.36,44.36,0,0,1,7.93.92l2.13.42c3.94.83,8.38,1.95,13,3.16l5.23,1.37c4.67,1.23,9.37,2.45,13.76,3.42,1.31.3,2.6.57,3.84.81a58,58,0,0,0,10.79,1.3,13,13,0,0,0,4.65-.71,6.68,6.68,0,0,0,2.14-1.47c7.42-7.12,14.88-34.19,14.29-44.27,0-.83-.13-1.64-.24-2.42a26.2,26.2,0,0,0-3-9c-.11-.21-.23-.42-.35-.62C598.05,359,589,353.71,580.84,347.9h0a71.54,71.54,0,0,1-8.46-6.81,36.12,36.12,0,0,1-3.83-4.31c-13.19-17.77-7.66-33.68-26.71-48.62-8.52-6.68-20.08-13.31-31.4-19.25-7.63-4-15.15-7.7-21.56-10.87-14.36-8.29-37.33,12.75-56.07,25.15a.71.71,0,0,0-.14.1c-9.79,6.46-27,16.11-31.19,27.59a19.4,19.4,0,0,0-.3,12.36,1.11,1.11,0,0,0,.07.26.3.3,0,0,0,0,.1c.77,2.71,1.87,5.32,2.84,8l.09.23c1.38,3.85,2.46,7.82,1.82,12.32a32.19,32.19,0,0,1-4.54,12c-2.3,3.89-5.11,7.52-7.6,11.28C389.16,374.56,385.51,382.16,388.32,392.89Z"/><path class="cls-3" d="M417.75,249.61c1.39-1,4.41-.58,5.35-1.9-4.51-3-6.63-9-10.37-12.13a32.5,32.5,0,0,1,9.81-1.18,30,30,0,0,1-2.88-9c4,2.1,9.79,2.19,13.83,4.18.48-1.72-2.44-3.82-1.17-5.44,2.38.7,9.11,1.44,12.66,2.34-.08-2.5-1.22-4.79-1.53-7.31,4.47-1.21,5.43,1.11,9.55,1,2.17-1.89-.41-5,3-6.56,1.66-.07,3.36,2.66,6,2.52,1-2.34-.08-3.94,1.69-6.39,2.73-.21,4.24,2.09,6.94,2a10.23,10.23,0,0,1,1.77-4.45c4.38,1.06,3.5,2.45,7.32,4.49.49-2.89.19-5.08,1.69-.35l-1.1,4.63c1.47-.43,4.42,1.46,6.8-3.1l12.48,2.45c-.6,2.6-1.54,4.66-2.25,7.19,3.57.48,7.37,3.51,12,3.64q2.54-.84-.28-.26c0,6.1.92,2.82,4.66,8.26.32,5.4,1,5.72,3.48,11.35-1.42,1.27-2.84-1.62-4.53-.61,3.64,6,2,7.53,3.54,13.85a8.09,8.09,0,0,1-4.23,0c.3,2.27,1.79,4.92,1.36,7.34-2.38-.15-2.46-1.83-4.81-2.29-.61,1.82,1,3.58.85,5.48-3.11.86-4.49-1.27-7.42-1.64-.79,1.84,1.48,3.33.92,5.28-3.76.81-8,.48-11.51,1.33-6.14,12.33-58.72,20.24-57-.58l-4.26.24c-2.09-2.88,1.25-2.64.52-4.54-2.26-1.05-5.5-2.45-7.91-3.72,1.91-.82,4.44-1,6.12-2.22a6.19,6.19,0,0,0-4.12-2.53C425.11,261.77,420.87,252.45,417.75,249.61Z"/><path class="cls-5" d="M616.77,374.84c-20.86-12-40.73-21-66.78-22.27-19.13-.92-40.18,4.67-59.1,8.12A353.41,353.41,0,0,1,440,366.2c-7.31.27-16.08.89-22.78-1.59-5.91-2.19-9-6.39-15.22-8.28-28.39-8.69-35.77,45.8-19.24,59.16,16.18,13.08,42.74,7.83,63.05,6.3,22.72-1.71,44.09-6.14,67.1-6C537.73,416,558.68,434,583,432.23c10.28-.74,19.2-3.85,22.09-11.93C610.38,405.56,608.06,387.44,616.77,374.84Z"/><path class="cls-3" d="M604.15,366.8c1.7.46,3.41.91,5.14,1.32-2,7.6-6.34,16.13-8.61,21.83-3.3,8.32-6,15.66-7.45,24.44-.78,4.64-.89,10.75-2.05,16.19l-.6.08c-1.58.28-3.17.5-4.75.67-1.52-12.59.95-27.95,3.9-39.2C592.3,382.37,598.4,374.47,604.15,366.8Z"/><path class="cls-3" d="M585.12,360.94l.74.24c2.36,17-5.55,32-9.14,48.34-1.69,7.63-1.76,14.65-3.06,22h-1.92c-1.57-13.33-4-26.69.88-39.86C577.32,379.11,580.18,367.5,585.12,360.94Z"/><path class="cls-3" d="M559.08,354.39l1.09.08c6.27,13.77,5.28,27.46,2.15,41.31-1.09,4.79-2.42,9.6-3.81,14.44a40.71,40.71,0,0,0-1.13,16.64c-1.47-.45-3-.88-4.45-1.28-2.54-10.48-1.71-22.64,2.1-31.5C562.06,377.73,558,365.26,559.08,354.39Z"/><path class="cls-3" d="M539.14,354.41c1-.07,2-.12,3-.18,5.33,14.56,2.46,29.25-1.38,44.08-2,7.78-1.64,16-2.39,23.64l-1.23-.34c-1.75-13.91,1.38-25.55,3.9-39.85C543,370.64,539,362.52,539.14,354.41Z"/><path class="cls-3" d="M505.75,357.93l3.19-.38c.81,12.88-1.67,25.15-1.26,38.41a99,99,0,0,0,3,19.3c-1.23,0-2.47,0-3.7,0a77.8,77.8,0,0,1-6.7-29.55C500.18,376.85,503.44,367.3,505.75,357.93Z"/><path class="cls-3" d="M489.24,372.71c-1.42-5.68-6.38-9.93-5-12.78,1.42-.08,2.83-.18,4.25-.28,8.79,12.72.27,28.09,0,41.87a66.14,66.14,0,0,0,1.6,14.37l-3.87.25c-2.19-8.08-1-16.52,1.24-25.25C489,384.71,490.8,378.93,489.24,372.71Z"/><path class="cls-3" d="M465.36,362.58l1-.2c3.55,18.91-.39,37.47,2.18,56.63a3.93,3.93,0,0,0-.69,1.35c-3.62-10.67-6-22.48-5.65-33.25C462.5,376.54,462.88,369.71,465.36,362.58Z"/><path class="cls-3" d="M443.14,365.91q3-.32,6-.71c.89-.11,1.77-.24,2.65-.37,5.54,14.5-2.61,40.86-2.65,57.66l-4.47.57c-3.1-8.76-.83-19.59-.15-27.84C445.42,384.11,444.21,375.22,443.14,365.91Z"/><path class="cls-3" d="M422,366.48c.93.07,1.87.11,2.81.15,3.6,9.3,1.15,20.14,1.57,30.94a166.3,166.3,0,0,0,3.53,25.57c-1.15,0-2.31,0-3.46-.08a53.18,53.18,0,0,1-4-10.4c-1.89-7.39-3.77-15.09-3.66-22.73C418.9,382.45,421.77,374.12,422,366.48Z"/><path class="cls-3" d="M406.38,363.7c1.05.34,2.13.64,3.21.91l1.64.37c-.8,8.87-4.34,20.88-4.36,26.9,0,10,3,20.08,5.78,30q-2.82-.36-5.62-.79C395.62,403,397.11,384,406.38,363.7Z"/><path class="cls-3" d="M385.46,402.89C384,388.4,382.77,369,393.13,356l.11.11a24.08,24.08,0,0,0,2.73,2.39c-5.13,20.77-8.45,41.19-4.61,60l-.36-.07C388.87,413.41,386.05,408.63,385.46,402.89Z"/><path class="cls-3" d="M537.83,300.32c6.62,6.67-7.33,12.42-9.78,4.26-1.52-5,6.64-9.47,9.78-4.26Z"/><path class="cls-3" d="M493.57,316.44c8.61,8-11.51,14.92-12.81,4.74-.62-4.86,9.65-8.26,12.81-4.74Z"/><path class="cls-3" d="M431.56,304.42c-1.05-2.23-.21-3.58,1.38-4.19,4.14-1.6,7.27,3.21,3.76,5.7C435,307.16,433,307.45,431.56,304.42Z"/><path class="cls-3" d="M438.71,338.78c10.67,4.52.54,17.32-6.83,10a6.14,6.14,0,0,1,6.83-10Z"/><path class="cls-3" d="M541.19,328.9l.15.07c11.5,4.85-7.28,16-9.85,6.06-1.15-4.5,5.26-8.64,9.29-6.36Z"/><path class="cls-3" d="M401.26,323.49h0a.3.3,0,0,0,0,.1h0l2.81,8,.09.23c2.74-3.19,2.52-8.36-2.15-8.36Z"/><path class="cls-3" d="M501.83,284.87c4.46,6-6.94,9.49-8.69,2.78-1.1-4.21,5.54-5.63,8.69-2.78Z"/><path class="cls-3" d="M474.88,349.35c.2-3.78,5.32-5,8.8-3.73h0C493.14,352.66,474.44,357.61,474.88,349.35Z"/><path class="cls-3" d="M572.37,341.08c-1.85,1.15-3.11,3-2.67,5.1,1.07,5.24,8.46,4.87,11.14,1.72Z"/><path class="cls-2" d="M683.29,643c9.55-5,27.84,5.27,38.27,8.25,16.3,4.66,32.72,9.07,48.69,14.54,14.07,4.82,29.14,7.93,42.53,13.37,1.07,18.11-4.5,32.5-8.21,49.29C795,726.8,783.48,718,773.57,714c-17.24-6.83-26.89-13.56-40.9-25.45-17.89-15.18-41.89-32.62-63-42.67-.3,1.42,0,2.6-.18,4Z"/><path class="cls-2" d="M674.42,647.8c23,23,45.75,46.91,68,70.48,8.54,9,17,18.23,21.23,30.14-11.79-.9-21.68,6.07-31,12.64-13.8,9.75-12.07,8.11-23.71-6.84-18.13-23.27-41.07-46.44-51.83-74.13-2.16-5.53-15.39-47.21-25.49-35.05Z"/><path class="cls-2" d="M709,642c-3-41.61-44.93-76.87-41.43-119.46-13.26,14.59-31.42,16.39-48.81,21.83-23.48,7.34-48,11.68-72.16,15.72-63.19,10.58-128,22.31-191.78,25.73-30.52,1.63-63.73,6.58-94,.4-27.31-5.58-52.67-18.52-78.69-28.3-18.5-6.94-36.76-12.88-55.51-19-6.56-2.13-22.15-5.68-27.83-10.94-2.23-.17-4.46-.34-6.68-.61l-.6,0c-3.5,10.06-9.16,18.31-9.35,29.92-.26,15.57,3.11,30.12-5.84,43.23C65.72,616.09,62.13,639,69.3,659.05c10.46,29.27,50.12,22.51,75.82,32,39.8,14.62,93.37,6.57,135.85,5.49,37.11-1,73.4-10.8,110-12.28,34.35-1.39,70,5.51,104.26,7.39,41.54,2.27,82.67-4.87,123.84-8.53,22.79-2,46.75-9.77,67.7-19.6,4-1.87,20.71-8.39,22.89-12.61C713,644.54,709.52,649.29,709,642Z"/><path class="cls-2" d="M92.2,527.43c2.24-.46,10.48-1.07,14.18-2.72.7,1.62-.09,5.45-.53,7.31-3.09.47-8.68-.3-10-.61Z"/><path class="cls-1" d="M670,542.65c-.32-.82-.6-1.66-.85-2.51a4.11,4.11,0,0,1-3.4-3.71c-.19-1.48-2.5-1.56-2.37,0,0,.12,0,.24,0,.36.44,4.1,1,21.08-5.15,18.22-4.81-2.24-4.32-9.37-8.69-12.42-.91-.63-1.95.41-1.74,1.34,1.11,5-.26,11.56-5.35,13.87-4.61,2.09-12-2.77-9.47-8.09.65-1.37-1.34-2.58-2-1.2l-8.87,17a18.15,18.15,0,0,1-7.36-10.27,1.2,1.2,0,0,0-2.29,0c-1.76,6.4-5.15,14-12,16.27-5.59,1.84-13.55-1.78-13.18-8.34a1.19,1.19,0,0,0-2.37,0,12.55,12.55,0,0,1-23.64,6.23,1.19,1.19,0,0,0-2.17.91c.91,5.26-3.15,11-8.63,11.29-5.7.33-10.19-5.15-9.82-10.57.1-1.36-2-1.58-2.33-.31-1.67,6-5,12.69-11.36,14.83-5.33,1.81-12.89-1.18-13.29-7.39-.08-1.25-2.13-1.73-2.33-.32-1,6.71-6.93,12.39-13.9,12.18-6.67-.21-12.15-5.83-13-12.27a11.2,11.2,0,0,0-.1-1.29c-.18-1.47-2.42-1.58-2.37,0,0,.44,0,.87.09,1.3.13,5.57-3.35,11.12-9,12.52-6.3,1.57-12.95-3.63-13.41-10-.11-1.52-2.49-1.53-2.38,0,.38,5.37-2.94,10.76-8.27,12.21s-11.35-1.79-13.44-6.91a1.2,1.2,0,0,0-2.34.32,11.31,11.31,0,0,1-22.05,3.19c-.31-.87-1.69-1.29-2.17-.29-2.41,5.07-5.82,10.66-11.5,12.42-5.1,1.6-13.5-3.26-10.59-9.34.65-1.36-1.29-2.56-2.05-1.2-3,5.37-6.95,11.62-13.29,13.31-5.44,1.46-14.24-3.89-11-10.22.7-1.35-1.33-2.55-2.05-1.2-2.61,4.87-5.89,10.92-11.61,12.54-3.87,1.1-10.48-2.88-9.6-7.09.46-.8.89-1.59,1.28-2.33.61-1.14-.94-2.49-1.86-1.44a6.82,6.82,0,0,0-1.46,2.58c-2.43,4.37-5.5,9-10.38,10.43-4.38,1.29-11.67-3-9.58-7.94l.41-.79a1.19,1.19,0,0,0-2.06-1.2,8.45,8.45,0,0,0-.57,1.12c-3.08,6-7.66,13.42-15.38,11.52-8.66-2.12-2.24-11.53-5-17.21a1.19,1.19,0,0,0-2.05,0c-2.43,5-5.69,11.08-11.53,12.59-4.08,1.06-10.32-3.63-8.92-7.77a12.82,12.82,0,0,0,1.43-2.11,1.19,1.19,0,0,0-1.87-1.44,6.6,6.6,0,0,0-1.57,2.23c-2.94,3.32-7.94,4.78-12.09,2.75-4.86-2.36-6.77-8.77-4.54-13.55a1.19,1.19,0,0,0-2-1.2c-3.13,4.1-8.87,10.91-14.82,8.76-2.64-1-5.16-4.8-4.39-7.57a23.34,23.34,0,0,0,2.43-2.71c.8-1-.68-2.08-1.62-1.62a5.46,5.46,0,0,0-2.91,3.09,19.55,19.55,0,0,1-11.91,4.93,26.38,26.38,0,0,1,2.81-11.51,20,20,0,0,0,1.52-2.64,1.19,1.19,0,0,0-2.05-1.2,28.84,28.84,0,0,0-1.57,2.74c-3.14,4.66-8.75,9.33-14.15,6.32a8.54,8.54,0,0,1-3.7-8.31,38.53,38.53,0,0,0,3.29-3.59c.66-.81.08-2.46-1.15-2a6.75,6.75,0,0,0-4.17,4.38c-2.91,2.81-6.41,5-10.62,4.41-2.75-.36-5.75-2.08-6-5.13a5.67,5.67,0,0,1,.45-2.76q2.35-1.42,4.6-3a1.2,1.2,0,0,0-.6-2.22,6.24,6.24,0,0,0-5.83,3.57,62.22,62.22,0,0,1-18.88,7.2,22,22,0,0,1,4.5-11.89,28.41,28.41,0,0,0,1.89-2.18l0,0h0l.19-.24c.83-1.09-.94-2.38-1.87-1.44a25.83,25.83,0,0,0-2.22,2.58,25.12,25.12,0,0,1-21.31,7.19,17.41,17.41,0,0,1,4.1-10.86c1-.88,1.93-1.79,2.85-2.74,1.09-1.13-.51-2.59-1.68-1.68a19.45,19.45,0,0,0-3,2.84,47,47,0,0,1-6.25,4.7c-3.15,2-8.23,5.38-12.09,4.34-3.37-.91-4.91-5-4.57-8.21.46-4.37,3.67-8,6.39-11.2a1.19,1.19,0,0,0-1.68-1.68,32.78,32.78,0,0,1-19.56,8.43,23.13,23.13,0,0,1,4.65-15.28c1-1,1.92-2,2.81-3.11a1.19,1.19,0,0,0-1.68-1.68,25.71,25.71,0,0,0-2.91,3.19A40.67,40.67,0,0,1,85.61,548,21.85,21.85,0,0,1,93,529.22c1.16-1-.53-2.69-1.68-1.68a24.2,24.2,0,0,0-7.88,22.08,1.19,1.19,0,0,0,1.15.87,43.44,43.44,0,0,0,20.88-8,25.32,25.32,0,0,0-1.7,12.11,1.21,1.21,0,0,0,1.19,1.19,35.45,35.45,0,0,0,15.81-4.51,15.58,15.58,0,0,0-2.2,6.13c-.41,3.62,1,7.76,4.08,9.86,3.9,2.63,8.54.48,12.27-1.4a47.89,47.89,0,0,0,5.53-3.28,20.1,20.1,0,0,0-1.32,7.81,1.21,1.21,0,0,0,.87,1.15,27.57,27.57,0,0,0,19.69-3.86,24.88,24.88,0,0,0-1.83,9.15,1.19,1.19,0,0,0,1.5,1.14,63.67,63.67,0,0,0,19-6.6,8,8,0,0,0,3.13,6.94c5.26,3.76,10.82,1.8,15.36-1.69a10.84,10.84,0,0,0,3.69,7.45c4.66,3.85,10.12,2,14.34-1.58a29.1,29.1,0,0,0-.87,7.88,1.21,1.21,0,0,0,1.19,1.19,21.83,21.83,0,0,0,12.8-4.11,10.39,10.39,0,0,0,4.36,7c5.71,3.66,11.75-.6,16-5.16a12.08,12.08,0,0,0,19.52,10.48,10.84,10.84,0,0,0,7.77,8c7.15,1.66,12.45-5.17,15.69-11.05.13,3.57-1.87,7.35-.26,10.89a9.16,9.16,0,0,0,7.37,4.93c6.81.89,11.32-3.85,14.61-9.17A11.13,11.13,0,0,0,321.9,610c6,.66,10.41-4,13.63-8.86a10.94,10.94,0,0,0,7.92,6.61c6.34,1.17,11.11-4,14.47-9.23,1.15,4.26,5.62,7.69,10.15,8.21,7.08.81,12.48-4.79,16.28-10.49,1.07,4.1,5.26,7.39,9.66,7.82,7.4.74,12.76-5.84,16-11.88a13.51,13.51,0,0,0,25-2.81,13.92,13.92,0,0,0,13.87,5.7A13.75,13.75,0,0,0,459,585.81a13.6,13.6,0,0,0,13.65,7c5.26-.79,9.33-4.82,11-9.67a16.2,16.2,0,0,0,13,9.24c6.83.58,13.26-3.86,15.9-10,2.44,4.41,8,6.76,13.16,6,6.52-1,10.82-6.53,13.33-12.4,1.84,4.91,6.77,8.66,12.25,8s9.38-5.23,10.16-10.37a14.68,14.68,0,0,0,24.84-5c2.49,4.06,7.93,6.28,12.73,5.67,7.66-1,12.23-8.17,14.71-15.06a20.55,20.55,0,0,0,8.26,9,1.2,1.2,0,0,0,1.63-.42q3.54-6.81,7.09-13.62A10,10,0,0,0,641,560.7c6.53-.87,9.47-7.58,9.48-13.65,1.33,2.3,1.81,5.17,3.42,7.33s4.48,4.15,7.27,3.19c3-1,3.63-4.63,4.17-7.34a41.84,41.84,0,0,0,.75-9A8.52,8.52,0,0,0,670,542.65Z"/><path class="cls-1" d="M715.13,645.84a12.24,12.24,0,0,1-6.67,9.8c-1.37.68-.17,2.73,1.2,2.06a14.35,14.35,0,0,0,7.63-10.34A24.08,24.08,0,0,1,715.13,645.84Z"/><path class="cls-1" d="M709.79,640a58.43,58.43,0,0,0-15.55,16.37,9.77,9.77,0,0,0-.92-1.9,9.91,9.91,0,0,0-10.6-4.67c-5.09,1-9.11,4.6-12.26,9.14a16.56,16.56,0,0,0-2.51-4.53,1.16,1.16,0,0,0-1.16-.3A41.62,41.62,0,0,0,648.32,667a10.24,10.24,0,0,0-.26-1.88c-.84-3.75-3.76-7.52-7.84-7.84-5.14-.4-9.35,4.55-12.48,7.94a71.86,71.86,0,0,0-6.28,7.86c1.29-6.17,1.45-13.07-4.78-11.58-4,.94-8.25,5.06-11,7.87a41.34,41.34,0,0,0-6.35,8.49c-1.61-3.6-6.17-5.71-10.26-5.17-3.78.49-6.52,2.92-8.61,6a10.24,10.24,0,0,0-7.27-6.13c-8.65-1.69-14.48,4.54-18.49,11.42a13,13,0,0,0-9-7.67c-6.72-1.39-12,3.43-15.95,8.91a34.48,34.48,0,0,0-1.38-15.65,1.21,1.21,0,0,0-1.46-.83,44.57,44.57,0,0,0-21.19,15.84,50,50,0,0,0,.19-12c-.4-3.32-2.12-6.33-5.87-6.1-4.46.28-8,4.56-10.63,7.68a62.25,62.25,0,0,0-5.73,8,35.94,35.94,0,0,0-2.17-14.72,1.2,1.2,0,0,0-1.46-.83,32.67,32.67,0,0,0-16.28,11.31,13.61,13.61,0,0,0-.73-6.57c-1.22-3-4-5.75-7.36-6.14-4.1-.48-6.88,2.84-9.23,5.72q-2.06,2.52-3.87,5.21a12.68,12.68,0,0,0-.61-5.75c-1.17-3.19-4-6.14-7.53-6.49-4.18-.42-7.42,3.07-10.14,5.73q-3,2.92-5.65,6.12a11.76,11.76,0,0,0-6.22-8.06c-6.72-3.08-12.72,1.93-16.5,7.66a11.39,11.39,0,0,0-8.79-6.32c-5.73-.5-9.58,3.73-12.17,8.7a11.89,11.89,0,0,0-7-5.74c-6.64-1.75-11.6,3.19-14.68,8.95a11.65,11.65,0,0,0-7.2-5.95c-6.85-1.7-12.17,3.75-15.14,9.68-1.79-3.74-6.38-6.37-10.55-6.42-6.86-.09-11.68,5.66-15.2,11.31-1.3-5-7.1-8.73-12.34-8.81-7.93-.13-13.61,6.66-17.84,13-1.16-5.47-6.58-9.5-12.27-10.19-7.57-.92-14,4-19,9.42a10.63,10.63,0,0,0-7.12-8c-5.94-1.84-11,2.26-14.76,6.91a12.68,12.68,0,0,0-8-9.89c-6.1-2.27-12.09.77-16.43,5.2a12.83,12.83,0,0,0-7.63-11.57c-5.7-2.32-11.72.39-15.3,5-.84-5.41-4.62-10.4-10.12-11.79-5.67-1.43-11.33,1.23-14.61,5.68a12.57,12.57,0,0,0-9.18-7.74c-6.47-1.23-12.06,3-16,8-1-5.26-7-9.49-12.4-9.78-7.41-.39-12.78,5.36-16.71,11.53,0-6.33-3.23-12.68-9.91-14-5.54-1.09-11.37,3.29-13,8.52a23,23,0,0,1,2.34.44c1.47-4.48,7-8.06,11.63-6.18,6,2.45,7.7,9.86,6,15.7.75.46,1.5.91,2.27,1.35,3.17-6,7.2-12.46,13.81-14.52,6.18-1.94,17,4.13,12.93,11.52-.74,1.34,1.31,2.54,2.05,1.2,2.93-5.26,7.45-10.76,13.82-11.51,4.82-.57,10.58,3.64,10.56,8.52a14.07,14.07,0,0,0-1,3.74c-.14,1.2,1.68,1.57,2.22.6a8.74,8.74,0,0,0,1.09-3.86c2.38-5.18,8.58-8.58,14.21-6.7s8.49,8,7.56,13.51a13.79,13.79,0,0,0-.64,2.32,1.19,1.19,0,0,0,2.29.64,12.75,12.75,0,0,0,.67-2.34c2.16-5.45,8-9.79,14-7.8,5.49,1.82,8.16,8.81,5.56,13.78q-.36.55-.69,1.11c-.79,1.36,1.17,2.41,2.06,1.2a9.35,9.35,0,0,0,.81-1.3c3.36-5,9-9.77,15.34-8.63,5.57,1,10.22,7.83,6.86,13-.8,1.31,1.23,2.48,2.06,1.2,2.78-4.58,6.56-10,12.27-11,4.51-.75,11.2,4.86,8,9.35l-.47.58c-.93,1.17.62,2.83,1.68,1.68a6.07,6.07,0,0,0,.65-.81c4.33-5.33,9.68-10.93,16.77-11.93,6.37-.91,14.76,4.1,13.39,11.36a1.19,1.19,0,0,0,2.17.92c3.66-5.8,8-12.61,15-14.67,6-1.78,15.36,3.39,12.71,10.52-.47,1.28,1.53,2.08,2.17.92,3-5.31,6.56-11.89,12.76-13.88,4.93-1.59,12.68,2.11,11.7,7.8-.14.45-.27.9-.38,1.34a1.19,1.19,0,0,0,2.3.63,8.18,8.18,0,0,0,.45-1.6c1.74-5.54,5.56-11.62,11.77-12.11,3.63-.29,7.72,3,8.55,6.65a34.15,34.15,0,0,0-1.82,5.56,1.2,1.2,0,0,0,2,1.16,7.24,7.24,0,0,0,2.2-6.48c2-4.7,5.24-9,10.36-9.85,3.39-.55,7.76,2.68,9,6.18a60.11,60.11,0,0,0-2.25,6.35c-.28.94.89,2,1.75,1.35a6.94,6.94,0,0,0,2.87-7.38c1.61-3.7,3.91-7.09,7.6-8.71s10.67,1.88,10.68,6a29.88,29.88,0,0,0-1.59,3.47c-.42,1.12,1.22,2,2,1.15a6.45,6.45,0,0,0,1.79-3.81c2.69-5.16,7.36-10.49,13.39-9.41,3.6.65,7.2,5.39,6.51,9.09q-1.33,1.73-2.6,3.52c-.7,1,.65,2.23,1.62,1.62a6.84,6.84,0,0,0,3.08-4c1.35-1.73,2.76-3.43,4.26-5.05,2.3-2.51,5-5.9,8.09-7.48,4.4-2.26,8.45,1.27,9.2,5.67.68,4-1,8.1-2.45,11.79-.49,1.26,1.57,2.11,2.17.92a76,76,0,0,1,5.13-8.65c1.94-2.8,4.23-6.42,7.13-8.36,3.53-2.36,7.49.46,8.79,4,1.47,3.94.06,8.35-1.07,12.19-.37,1.26,1.6,2.17,2.17.91a30.3,30.3,0,0,1,17.65-16.26,33.66,33.66,0,0,1,.61,19.38c-.32,1.25,1.59,2.17,2.18.91,3.17-6.78,7.65-14.2,13.69-18.81,2-1.49,4.64-2.93,6.46-.56,1.34,1.74,1.12,4.18,1.15,6.29a62.89,62.89,0,0,1-1.25,13.41c-.25,1.26,1.5,2.17,2.17.92a42,42,0,0,1,21.82-19.31,32.3,32.3,0,0,1-1.27,21.43c-.51,1.25,1.56,2.09,2.18.91,3.16-6,7.37-13.56,14.6-15.11,4.51-1,11.38,3.61,11.11,8.36-.61,1.22-1.18,2.43-1.7,3.58s.88,2.52,1.87,1.45a7.55,7.55,0,0,0,2-4.23c2.68-5.52,6.17-10.92,12.34-12.66,3.66-1,8.06-.41,10.16,3.09a8.15,8.15,0,0,1,1.08,3.15,63.15,63.15,0,0,0-2.88,6.53,1.2,1.2,0,0,0,1.75,1.34,8,8,0,0,0,3.56-7.43,14.88,14.88,0,0,1,5.46-5.88c3.91-2.2,11.89-.14,10.78,5.52-.24,1.23,1.57,2.22,2.17.91a40,40,0,0,1,13.19-16c1.16-.81,3-2.41,4.44-2.57,2.81-.3,2.65,2.64,2.51,4.45a48.91,48.91,0,0,1-3,12.49c-.46,1.27,1.54,2.09,2.17.92,4-7.35,9.44-15.52,16.4-20.38,4.41-3.08,9-1,10.31,4.07a10.58,10.58,0,0,1-.15,5.5,41.73,41.73,0,0,0-4.26,8.69,1,1,0,0,0,.55,1.32,14.28,14.28,0,0,1,1.69-.51,38.42,38.42,0,0,0,4.17-8.51,39,39,0,0,1,15.21-13.58c.75-.37,2.93-1.84,3.64-1.57.87.35,1.48,2.18,1.76,2.93a13.38,13.38,0,0,1,.55,1.87,69.06,69.06,0,0,0-6.54,16.29,1.2,1.2,0,0,0,1.75,1.34,17.21,17.21,0,0,0,7.25-16.9,29.41,29.41,0,0,1,6.41-7.37c3.22-2.57,7.83-4.25,11.45-1.49a7.78,7.78,0,0,1,3.23,6.13c-.61,1.11-1.19,2.23-1.72,3.38a1.19,1.19,0,0,0,1.86,1.45,6.63,6.63,0,0,0,2.18-4.12,55.92,55.92,0,0,1,16.47-18.28A20.18,20.18,0,0,1,709.79,640Zm-44,34.43a62,62,0,0,1,3.33-8.28A15,15,0,0,1,665.79,674.41Z"/><path class="cls-1" d="M709,638.59c-.24-.44-.45-.87-.66-1.31-8.26,2.18-17,3.19-25.33,4-9.34.94-18.7,1.74-27.94,3.42-11.06,2-21.92,5-32.74,8-21.41,5.95-43.18,12.47-65.62,12-23.27-.44-45.14-10-68.12-12.75-23.42-2.81-47.16-1.32-70.57.87q-35.5,3.33-70.58,10c-23.67,4.52-47.35,12.05-71.57,12.73-23.5.66-44.72-8.43-66.52-15.88-44-15-90.17-12.26-135.64-6.63l-4.6.58c.08.78.15,1.56.23,2.34,42.16-5.36,85.56-9.43,127,2.11,21.47,6,41.77,16.31,64.07,19.13,23.72,3,47.16-3.54,70.14-8.51a738,738,0,0,1,73-12c23.86-2.71,48.09-4.86,72.11-3.51a193.89,193.89,0,0,1,36.17,5.52c11.06,2.75,22,6,33.35,7.51,21.93,2.85,43.74-1.95,64.81-7.67,21.33-5.79,42.27-11.85,64.35-14.05,11.57-1.16,23.81-1.93,35.25-5C709.32,639.22,709.14,638.91,709,638.59Z"/><path class="cls-1" d="M706.65,632.47c-36.8,8.22-73.58,16.57-110.5,24.23-11.28,2.34-22.76,4.16-34.32,3.52-11.75-.65-23.21-3.58-34.64-6.16a331.19,331.19,0,0,0-66.4-7.94c-45.4-.89-90.55,6.34-134.83,15.71-11.08,2.34-22.12,4.88-33.16,7.38-11.69,2.63-23.58,4.72-35.48,2.22-10.48-2.2-20.16-7-29.89-11.26a184.76,184.76,0,0,0-29.34-10.25c-41.35-10.49-84.72-6.7-126.55-1.5l-3,.38.27,2.33c38.54-4.9,77.9-8.73,116.31-1.62a182.8,182.8,0,0,1,30.22,8.25c10,3.7,19.43,8.67,29.4,12.4s20.29,5.54,31,4.46c11.13-1.11,22-4.15,32.92-6.59,44.88-10.06,90.45-18.61,136.57-19.52a338.2,338.2,0,0,1,69.23,5.33c11,2.07,21.89,5,33,7a109.18,109.18,0,0,0,33.07,1c11.14-1.41,22.09-4,33-6.46l34.21-7.53,59.53-13.1C707,634,706.83,633.22,706.65,632.47Z"/><path class="cls-1" d="M676,561.33l-24.33,7.55c-20.74,6.42-41.56,12.76-62.95,16.6-21.92,3.93-44.18,5.41-66.32,7.6q-32.78,3.24-65.43,7.61-32.16,4.3-64.17,9.68c-21.81,3.66-43.69,8.46-65.89,8.52-21.82.07-42.8-5.76-63.42-12.36-20.39-6.54-40.78-13-61.42-18.71A1177.22,1177.22,0,0,0,82.29,561.43c.08.81.13,1.63.17,2.44q52.62,8.79,104.29,22.3,31.5,8.26,62.52,18.26c19.88,6.41,39.8,13.33,60.64,15.85,21.59,2.62,43.17-.64,64.44-4.33,21.83-3.79,43.69-7.4,65.63-10.54q33.4-4.77,67-8.36c21.88-2.35,43.85-3.85,65.67-6.72,35.46-4.66,69.74-15.6,103.8-26.5C676.25,563,676.1,562.17,676,561.33Z"/><path class="cls-1" d="M679,572.35c-27.36,8.44-55.61,14-83.93,18.34-42,6.39-84.31,10.17-126.24,16.85-22.06,3.51-43.83,8.34-65.73,12.68-22.31,4.43-44.95,8.14-67.77,7.86-23.05-.28-44.66-5.94-66.28-13.52s-43.23-14.79-65.34-20.76-44.15-11.08-66.35-16.08c-17.92-4-36.34-9.07-54.86-9.59,0,.81,0,1.63-.09,2.44,14.49.45,29,3.78,43.11,6.93,22.42,5,44.83,10.07,67.07,15.82,22,5.69,43.75,12.16,65.16,19.75,21.07,7.47,42.07,14.87,64.5,16.77,44.87,3.8,88.86-9.77,132.58-17.55,42.21-7.5,84.94-11.39,127.37-17.34,33-4.62,66-10.53,97.79-20.38C679.67,573.84,679.35,573.1,679,572.35Z"/><path class="cls-1" d="M118.35,593.05a4.46,4.46,0,0,0-1.18,5,1.28,1.28,0,0,0,1.15.88c3.49.28,6.07-4.41,3.68-7.11-2.2-2.47-6.86-1.2-7.5,2-.3,1.5,2,2.14,2.29.63.27-1.35,2.29-2.23,3.36-1.16,1.25,1.23-.37,3.34-1.83,3.22l1.14.87a2.19,2.19,0,0,1,.57-2.64c1.15-1-.54-2.7-1.68-1.68Z"/><path class="cls-1" d="M116.4,613.38a3.86,3.86,0,0,0-3.2,4.94c.72,2.69,3.89,3.12,5.75,1.31s1.74-5.18-1-6.09c-2.18-.73-5.06.57-5.41,3-.21,1.49,2.08,2.14,2.3.63a1.76,1.76,0,0,1,2-1.43c1.15.15,1.15,1.31.52,2.07-1.86,2.22-2.78-1.89-1-2,1.51-.13,1.53-2.51,0-2.38Z"/><path class="cls-1" d="M96.09,598.83a5.69,5.69,0,0,0-3.35,7.5c1.33,3.19,5.55,4.06,8.39,2.4,3.17-1.84,3.66-6.32,1.68-9.21a5.14,5.14,0,0,0-4.65-2.4,3.31,3.31,0,0,0-2.93,3.61c.18,1.5,2.56,1.52,2.37,0-.23-2,2.3-1,3.06-.13a4.38,4.38,0,0,1,1,2.75,3.61,3.61,0,0,1-3,3.8,3.16,3.16,0,0,1-1.88-6c1.44-.49.83-2.79-.63-2.3Z"/><path class="cls-1" d="M95.65,627.3c-2.78.06-4.28,3.4-3,5.75,1.65,3.06,6.09,2.34,8.06.07s2-6.46-.87-8a4.21,4.21,0,0,0-6.14,3.12c-.16,1.52,2.22,1.51,2.38,0,.12-1.14,1.85-1.47,2.69-1,1.45.82,1.1,3.09.26,4.19s-3,2-4.12.75c-.61-.71-.37-2.46.76-2.48a1.19,1.19,0,0,0,0-2.38Z"/><path class="cls-1" d="M75.32,616.73c3.1-2.05,7.2,1.86,4.27,4.8s-6.85-1.16-4.8-4.27c.85-1.28-1.21-2.47-2.05-1.2a6,6,0,0,0,1,7.46,5.59,5.59,0,0,0,7.87-7.88,6,6,0,0,0-7.46-1c-1.27.84-.08,2.9,1.2,2.05Z"/><path class="cls-1" d="M161.84,609.37c-3.11-.33-4.52,4-2.54,6.06,2.64,2.76,7.12.6,8.67-2.21,1.75-3.19.62-7.57-3.08-8.73a4.93,4.93,0,0,0-6.28,5.56c.24,1.51,2.53.87,2.3-.63a2.54,2.54,0,0,1,3.35-2.64,3.53,3.53,0,0,1,1.91,4.68,4.19,4.19,0,0,1-3.66,2.82c-.8,0-1.7-.34-1.76-1.23-.06-.71.35-1.38,1.09-1.3,1.52.16,1.51-2.22,0-2.38Z"/><path class="cls-1" d="M193.29,626a5.09,5.09,0,0,0-5.64,6.31c1,3.46,5.45,4.93,8.53,3.43s5-6,2.54-8.84a5.12,5.12,0,0,0-8,.15c-.91,1.23,1.15,2.41,2,1.2s3.21-1,4.13.22c1.27,1.62.07,4.05-1.49,5a4.08,4.08,0,0,1-4.84-.68c-1.45-1.59-.35-4.86,2.07-4.47,1.49.24,2.14-2,.63-2.3Z"/><path class="cls-1" d="M195.69,606.89l2.7.63a1.2,1.2,0,0,0,1.16-2,3.63,3.63,0,0,0-4.22-1,5,5,0,0,0-3,4.09c-.64,3.79.3,8.32,5,8.15a7.16,7.16,0,1,0-1.37-14.23c-1.49.19-1.51,2.57,0,2.38,5.18-.65,8.07,6,3.3,8.85a3.9,3.9,0,0,1-3.12.5c-1.38-.49-1.45-1.68-1.51-2.95a6.31,6.31,0,0,1,.53-3.62c.59-1,1.89-1.59,2.74-.52.38-.67.77-1.33,1.15-2l-2.7-.64c-1.49-.35-2.12,1.95-.63,2.3Z"/><path class="cls-1" d="M141.27,625.71a6.12,6.12,0,0,0,4.3-1.44,1.19,1.19,0,0,0,.19-1.44c-4.36-5.75-13.14-.93-11.76,5.82.59,2.89,3.16,5.21,6.2,4.29,3.8-1.16,4.45-5.44,4.65-8.83A1.22,1.22,0,0,0,144,623l-1.8-.72c-1.42-.57-2,1.73-.64,2.29l1.81.73-.87-1.15c-.12,1.95-.2,4.31-1.71,5.77-1.94,1.87-4.15.35-4.48-2-.56-3.89,4.63-7.56,7.42-3.89l.18-1.44a3.58,3.58,0,0,1-2.62.74c-1.52-.08-1.52,2.3,0,2.38Z"/><path class="cls-1" d="M141.87,595.88c-1.06,3.11,2.72,5.49,5.35,4,3-1.78,3.21-6.32,1.31-9a5.6,5.6,0,0,0-8.08-1.2,4.73,4.73,0,0,0,.68,7.51c1.31.8,2.5-1.25,1.2-2a2.33,2.33,0,0,1-.37-3.63,3.12,3.12,0,0,1,4,0,4.34,4.34,0,0,1,1.42,4.15,3.11,3.11,0,0,1-1.32,2.11c-.89.47-2.26-.1-1.86-1.27.49-1.45-1.8-2.07-2.29-.63Z"/><path class="cls-1" d="M246.84,633.42c.92,4.68,8.65,3,7.57-1.9a5.1,5.1,0,0,0-5.22-3.94c-2.7.19-4.67,2.23-5.64,4.63-.58,1.41,1.72,2,2.29.63.91-2.25,4.25-4.37,5.94-1.56,1.49,2.47-2.26,3.51-2.65,1.5-.3-1.5-2.59-.86-2.29.64Z"/><path class="cls-1" d="M224.82,622.39a7.29,7.29,0,0,0,2.36,3.8,3.49,3.49,0,0,0,4.07.09c2.42-1.84,1.45-5.77-.47-7.58s-5.14-2-6.74.41c-1.32,1.94-1.16,4.76,1,6a1.19,1.19,0,0,0,1.2-2.06,1.76,1.76,0,0,1-.34-2.41,1.89,1.89,0,0,1,2.9-.57,3.47,3.47,0,0,1,1.45,3.58c-.34,1.11-1.38.93-2.06.17a6.26,6.26,0,0,1-1-2.1c-.51-1.43-2.81-.82-2.29.63Z"/><path class="cls-1" d="M231.61,639.06a4.67,4.67,0,0,0,3.15.15A1.2,1.2,0,0,0,235,637a7.13,7.13,0,0,0-9.66,1.14,6.76,6.76,0,0,0,1.11,9.37c2.71,2,7,1.53,8.94-1.32a6.33,6.33,0,0,0-1.79-8.68c-1.28-.85-2.47,1.21-1.2,2.06a3.89,3.89,0,0,1,.88,5.49,4.15,4.15,0,0,1-5.67.35,4.42,4.42,0,0,1-.11-6.16,4.87,4.87,0,0,1,6.3-.2l.29-2.17a2.68,2.68,0,0,1-1.89-.15c-1.42-.57-2,1.73-.63,2.29Z"/><path class="cls-1" d="M172.11,628.05a3.54,3.54,0,0,0-.5,6.32c2.71,1.78,6.72.6,8.49-2a5.35,5.35,0,0,0-1.74-7.71,4.43,4.43,0,0,0-6.28,4c0,1.53,2.43,1.54,2.37,0a2,2,0,0,1,3.09-1.78,3,3,0,0,1,.77,3.86,4.33,4.33,0,0,1-3.72,2,2.64,2.64,0,0,1-2.06-.76c-.35-.47-.52-1.45.21-1.72,1.41-.54.8-2.84-.63-2.3Z"/><path class="cls-1" d="M180,606.32c3,1.78,6.14-2.36,3.78-4.89-2.57-2.74-6.51-.48-7.06,2.77-.25,1.49,2,2.14,2.29.63.19-1.13,1.06-2.68,2.45-2.16.4.15.91.56.82,1a.78.78,0,0,1-1.08.55,1.19,1.19,0,0,0-1.2,2.06Z"/><path class="cls-1" d="M101.13,581.4a4.7,4.7,0,0,0-7.33-.4c-2.28,2.61-.28,6.74,2.79,7.59a5.09,5.09,0,0,0,6.09-6.27,4.3,4.3,0,0,0-7.6-1.32c-.93,1.22,1.14,2.41,2,1.2,1.22-1.6,3.36-.13,3.37,1.51A2.65,2.65,0,0,1,96.56,586c-1.2-.76-2-2.67-.69-3.71a2.3,2.3,0,0,1,3.2.31c.84,1.27,2.9.08,2.06-1.2Z"/><path class="cls-1" d="M268.75,634.22a3.61,3.61,0,0,0-5.32,3.08c0,3.31,3.44,4.94,6.31,4.47,2.72-.45,5.72-2.43,4.78-5.57-.83-2.82-4.25-3.28-6.25-1.44-1.13,1,.56,2.72,1.68,1.68a1.37,1.37,0,0,1,2.34,1.21c-.23,1-1.76,1.52-2.62,1.72a3.25,3.25,0,0,1-3.5-1c-.66-1,0-2.91,1.38-2.12a1.19,1.19,0,0,0,1.2-2Z"/><path class="cls-1" d="M263.45,651.55a3.82,3.82,0,1,0,7.22-2.5c-1.6-5.31-9.28-4.67-13.1-2.64-4.41,2.36-7.49,7.38-6.38,12.44,1.2,5.43,6.79,6.94,11.46,4.88,5.92-2.63,8.44-9.65,7.37-15.73-.26-1.51-2.55-.87-2.29.63.78,4.45-.83,9.69-4.75,12.23s-9.16,1.79-9.62-3.48c-.36-4.1,2.61-7.76,6.24-9.3a9.07,9.07,0,0,1,6.09-.51c1.18.35,2.5,1.06,2.78,2.38.37,1.79-2.07,2.75-2.73,1-.52-1.42-2.82-.81-2.29.63Z"/><path class="cls-1" d="M240.23,652a2.94,2.94,0,0,0-2,3.24,4.36,4.36,0,0,0,3.14,3.26c2.82.93,6.48-.31,7.49-3.27.93-2.71-.64-6.23-3.65-6.65s-5.87,2.88-4.71,5.79c.56,1.41,2.86.8,2.29-.63a2.08,2.08,0,0,1,1.91-2.8c1.39,0,2.18,1.64,2.05,2.88a3,3,0,0,1-2.52,2.52,4,4,0,0,1-1.83,0c-.39-.1-2.92-1.51-1.53-2s.8-2.83-.63-2.29Z"/><path class="cls-1" d="M212.12,632a4.25,4.25,0,0,0-6,4.15c.3,3.77,4.65,5.35,7.79,4.13,3-1.15,6.11-4.64,3.44-7.61-1.13-1.26-2.86-2.66-4.66-2.47a2.94,2.94,0,0,0-2.71,2.95,1.19,1.19,0,0,0,2.38,0c0-1.6,2.51.41,2.7.61a1.88,1.88,0,0,1,.58,2.28,5.22,5.22,0,0,1-3.2,2.23,3.35,3.35,0,0,1-3.55-1.25c-.8-1.3.12-3.81,2-3,1.39.62,2.6-1.43,1.2-2.06Z"/><path class="cls-1" d="M300.25,641.67a4.55,4.55,0,0,0-6.88,4.26c.38,4.33,5.3,6,8.83,4.19,3.24-1.66,5.47-6.61,2.56-9.62-2.22-2.29-6.42-1.58-7.47,1.47-.5,1.45,1.8,2.07,2.3.63s2.86-1.3,3.66-.17c1.25,1.78-.13,4.37-1.76,5.36s-4.4,1.05-5.44-1,1-4.37,3-3c1.28.84,2.48-1.22,1.19-2.05Z"/><path class="cls-1" d="M332,644.82c-3.56-.81-8.55,1.29-7.36,5.76,1,3.94,6.74,4.17,9.54,2.19a6,6,0,0,0,.52-9.31,5.18,5.18,0,0,0-8.14,2.8c-.34,1.49,2,2.13,2.29.64a2.78,2.78,0,0,1,4.49-1.47,3.57,3.57,0,0,1-.31,5.22c-1.44,1.17-4.43,1.55-5.76-.06a2.22,2.22,0,0,1,.77-3.13,4.36,4.36,0,0,1,3.32-.35c1.49.34,2.13-2,.64-2.29Z"/><path class="cls-1" d="M293.17,661.06c2.36-.47,5.67-1.7,5.95-4.51.34-3.37-3.44-4.77-6.16-3.93s-6,3.34-5.86,6.49a3.87,3.87,0,0,0,5.49,3.44c1.35-.71.15-2.76-1.2-2-.93.48-1.68-.49-1.85-1.24a2.51,2.51,0,0,1,.75-2.16,7.09,7.09,0,0,1,3.91-2.35c1.86-.27,3.44,1.41,1.68,2.77a8,8,0,0,1-3.34,1.25c-1.5.3-.87,2.59.63,2.29Z"/><path class="cls-1" d="M260.77,620.13l1.43-.52-.92-2.18a5.1,5.1,0,0,0-1.74,6.18,4.51,4.51,0,0,0,6,2.32,4.65,4.65,0,0,0,2.79-5.89,5.12,5.12,0,0,0-6.24-3c-1.44.49-.82,2.79.64,2.29,2.89-1,5,3.13,1.89,4.42-2.69,1.12-4.37-2.71-2.17-4.25,1-.72.44-2.68-.91-2.18l-1.43.53c-1.42.53-.81,2.82.63,2.29Z"/><path class="cls-1" d="M287.55,628.63a4.31,4.31,0,0,0-2.86,6,4.7,4.7,0,0,0,6.78,1.52,5.17,5.17,0,0,0,1-7.18c-1.52-1.86-4.7-2.59-6.38-.55-1,1.17.7,2.87,1.68,1.68.76-.93,2.12-.51,2.83.32a2.8,2.8,0,0,1-.34,3.63,2.33,2.33,0,0,1-3.4-.33,1.9,1.9,0,0,1,1.28-2.79c1.5-.32.86-2.61-.63-2.3Z"/><path class="cls-1" d="M353,639.55c-1.47,1.06-3.1,2.53-3.25,4.46s1.37,3,3.08,3.47c4,1,9-.08,10.59-4.33,1.66-4.51-2.21-7.66-6.34-8.25-3.72-.52-8.42,2.36-6.18,6.55.72,1.35,2.77.15,2.05-1.2s.44-2.59,1.68-2.93a6.51,6.51,0,0,1,3.6.27c2.28.74,4,2.58,2.83,5-1,2.12-3.3,2.88-5.49,2.83-.76,0-3.25-.06-3.47-1.21-.18-.93,1.48-2.18,2.1-2.62,1.23-.89,0-3-1.2-2.06Z"/><path class="cls-1" d="M345.94,632.65c-2.8-.63-6.29,0-7,3.23s2.85,4.93,5.59,4.31c2.51-.56,4.95-3,4-5.74a3.84,3.84,0,0,0-5.94-2c-1.2.93.49,2.61,1.69,1.68.79-.62,2,.6,2.08,1.37.12,1.29-1.43,2.17-2.49,2.36-1.24.22-3.23-.32-2.46-1.92s2.6-1.33,3.91-1c1.49.33,2.13-2,.64-2.29Z"/><path class="cls-1" d="M318.89,635.54a2.48,2.48,0,0,0,3.39,2.05c1.93-.62,2.16-2.94,1.15-4.45s-3.48-2.65-5.23-1.47a2.43,2.43,0,0,0,.47,4.25,1.2,1.2,0,0,0,1.46-.83,1.22,1.22,0,0,0-.83-1.46c.07,0,.17.16.21.13s0-.07,0-.07.28-.15.45-.15a2,2,0,0,1,1.55,1c.1.18.27.65.15.77s-.36,0-.41.06c-.24.07,0-.18,0,.19-.1-1.52-2.48-1.54-2.38,0Z"/><path class="cls-1" d="M424.13,631a4,4,0,0,0-5.71,4.32c.84,4.24,5.75,4.91,9.09,3.37s5-5.11,2.52-8.21c-2.82-3.52-7.57-2.42-10.87-.28-1.28.83-.09,2.89,1.2,2.06,1.67-1.09,3.8-2.15,5.86-1.59,1.88.51,3.44,2.66,2.17,4.47a5.55,5.55,0,0,1-5.7,1.8,2.77,2.77,0,0,1-1.92-2.1c-.15-1.11.93-2.4,2.16-1.79s2.57-1.37,1.2-2Z"/><path class="cls-1" d="M401.93,635.38a5.09,5.09,0,0,0,4.78-1.54,1.21,1.21,0,0,0-.24-1.87c-2.92-1.49-7.07-2.32-9.46.56a5.7,5.7,0,0,0,1.14,8.11,6,6,0,0,0,8-1.66,6.36,6.36,0,0,0-1.92-8.55c-1.24-.88-2.43,1.18-1.2,2.06a4,4,0,0,1,1.18,5.13,3.57,3.57,0,0,1-4.94.93,3.26,3.26,0,0,1-.15-4.82c1.71-1.47,4.35-.61,6.11.3l-.24-1.87a2.66,2.66,0,0,1-2.47.92c-1.5-.25-2.14,2-.63,2.3Z"/><path class="cls-1" d="M380.83,643.05a3.6,3.6,0,0,0,5.44-.91,3.37,3.37,0,0,0-1.91-5,4.09,4.09,0,0,0-5.26,2.27,5,5,0,0,0,2.4,5.91c1.35.71,2.56-1.34,1.2-2a2.64,2.64,0,0,1-1.48-2.57,1.6,1.6,0,0,1,1.9-1.43c.7.08,1.6.62,1.25,1.44-.27.62-1.29,1.22-1.86.67-1.1-1.06-2.78.62-1.68,1.68Z"/><path class="cls-1" d="M458.94,617.29a5.17,5.17,0,0,0,3.31,7.78c3.74.74,7.63-1.83,9.23-5.1.7-1.43,1.33-3.45.72-5-.68-1.74-2.74-1.83-4.34-2-3.31-.28-7.43.21-8.92,3.66-.59,1.39,1.45,2.6,2.06,1.2.85-2,2.8-2.46,4.8-2.54a16.59,16.59,0,0,1,2.9.15c1.61.21,1.41,1.59.93,2.85a7.12,7.12,0,0,1-5,4.36c-2.59.56-5.29-1.5-3.66-4.18.8-1.31-1.26-2.5-2.05-1.2Z"/><path class="cls-1" d="M490.8,629.81l-3.14,3.28a1.21,1.21,0,0,0,.24,1.87A12.62,12.62,0,0,0,498.7,637c2.95-.81,6.63-3.25,5.64-6.82-.91-3.3-5.71-5.05-8.75-5.27-3.53-.26-6.85,2.29-6.28,6,.23,1.51,2.52.87,2.29-.63-.53-3.46,4.3-3.15,6.29-2.45s5.87,2.64,3.38,5.17c-3.19,3.22-8.9,2.31-12.17-.15l.24,1.87,3.14-3.28c1.06-1.1-.62-2.79-1.68-1.68Z"/><path class="cls-1" d="M555.26,633.57c-3.79-1.34-8.74,0-9.77,4.35a6,6,0,0,0,1,5c1.36,1.76,3.56,2.16,5.65,2.34,4,.35,9.72-1,9.89-6,.15-4.48-4.82-5.76-8.33-6.18-1.51-.18-1.5,2.2,0,2.38,2,.24,5.28.69,5.88,3,1,3.78-4.32,4.6-6.8,4.46-2.76-.16-5.87-1.23-4.91-4.63.83-2.94,4.32-3.32,6.78-2.45,1.45.51,2.07-1.79.63-2.3Z"/><path class="cls-1" d="M568.07,604.9c-1.83,1.78-3.59,3.79-3.39,6.52a7,7,0,0,0,3.6,5.43c4.65,2.56,10.83-.18,13.17-4.64,2.17-4.14.77-9.71-3.71-11.64a6.82,6.82,0,0,0-9.39,6.32c0,1.53,2.42,1.53,2.37,0a4.43,4.43,0,0,1,7-3.61,6.14,6.14,0,0,1,1.37,8.23c-1.72,2.81-5.44,4.68-8.71,3.66a4.75,4.75,0,0,1-3.3-3.53c-.39-2.15,1.25-3.7,2.65-5.06,1.1-1.07-.58-2.75-1.68-1.68Z"/><path class="cls-1" d="M620.88,624.08c-4.39,2.61-2.8,8.69,1.43,10.45,4.78,2,10.42-.78,12.44-5.39a7.75,7.75,0,0,0-.13-7c-1.46-2.37-4.45-2.61-7-2.63s-5.58.52-7.5,2.52a6.18,6.18,0,0,0-1.58,6.37c.51,1.43,2.81.81,2.29-.64-1.45-4,3.33-5.84,6.45-5.88,1.65,0,4.2-.1,5.26,1.46s.62,3.62-.1,5.11a7.77,7.77,0,0,1-7.33,4.36,5,5,0,0,1-4.12-2.3,3.28,3.28,0,0,1,1.06-4.36,1.19,1.19,0,0,0-1.2-2Z"/><path class="cls-1" d="M657.81,595.09a6.7,6.7,0,0,0,4.9,9.77c5.25.77,9.36-3.77,9.32-8.83s-3.94-8.65-8.92-7.82-7.65,6-7.14,10.8c.16,1.5,2.54,1.52,2.37,0-.33-3.07.7-6.66,3.73-8a5.2,5.2,0,0,1,7.43,3.6c.76,3.5-1.26,7.56-5.06,8-3.41.38-6.31-3-4.57-6.26.73-1.34-1.32-2.55-2.06-1.2Z"/><path class="cls-1" d="M692.31,625.15c-1.65,1.4-3.49,3.33-3.65,5.61a4,4,0,0,0,3.08,4.22c4.39,1.14,8.62-4,10-7.59s-.09-9-4.57-9.53c-5.44-.67-7.68,5.28-8.66,9.49-.35,1.49,1.94,2.13,2.29.64.66-2.84,1.49-6.62,4.67-7.63s4.9,2.58,4.35,5.21a11.08,11.08,0,0,1-5.19,6.74c-1.45.75-4,.5-3.53-1.76.34-1.51,1.78-2.77,2.9-3.72s-.52-2.66-1.68-1.68Z"/><path class="cls-1" d="M666.4,618.61c-2-1.27-4.13.23-5.12,2a7.86,7.86,0,0,0-.45,6.07c1.52,4.69,6.6,6.61,11,4.78,4.66-1.92,7.12-7.65,4.13-12a7.54,7.54,0,0,0-12-.38c-1,1.18.71,2.87,1.68,1.69,2.14-2.63,6.19-3.06,8.32-.11,2,2.78.76,6.47-2,8.16-2.37,1.43-5.74,1.44-7.66-.76a6,6,0,0,1-1.44-3.59c0-.8.67-4.92,2.39-3.83,1.29.83,2.49-1.23,1.2-2Z"/><path class="cls-1" d="M636.88,603.42a2.9,2.9,0,0,0,4.8-1.11,1.19,1.19,0,0,0-.31-1.16,4.89,4.89,0,0,0-7.25-.11,5.42,5.42,0,0,0,.44,7.79c1.93,1.59,5.06,1.59,6.17-1,.85-1.93.08-4.72-2.23-5.1-1.5-.24-2.14,2.05-.63,2.29.82.14,1,1,.73,1.77-.56,1.4-2.3.55-3-.3-2.07-2.66,1.69-6.5,4.05-3.7l-.3-1.16c-.14.37-.64.25-.83.06a1.19,1.19,0,0,0-1.68,1.68Z"/><path class="cls-1" d="M586.64,634.14c-1.92,2.66,1.11,5.48,3.81,5.27,2.89-.23,7.45-2.72,7.69-6s-3.14-5.36-6.06-4.76c-4,.82-5.67,4.83-6.65,8.34a1.19,1.19,0,0,0,2.29.63,12.22,12.22,0,0,1,2.35-5.13c1.2-1.31,3.33-2.28,4.87-.94,1.95,1.7,0,3.32-1.56,4.2a10.22,10.22,0,0,1-2.62,1.16c-.88.19-3-.25-2.07-1.61s-1.16-2.43-2.05-1.2Z"/><path class="cls-1" d="M518.09,617.5A3.31,3.31,0,0,0,524,618a5.24,5.24,0,0,0-1.7-7.11,4.15,4.15,0,0,0-6.12,1.38c-.95,1.92-.53,4.64,1.58,5.57,1.38.61,2.59-1.44,1.2-2.06-1.78-.78-.75-3.69,1.17-3.28a3.1,3.1,0,0,1,2.21,2.29,2.41,2.41,0,0,1-.45,2.06c-.34.35-1.24.62-1.49,0-.55-1.41-2.85-.79-2.29.63Z"/><path class="cls-1" d="M449.85,630.58a3.83,3.83,0,0,0-3.67,6.07c2.22,2.89,6.44,1.94,8.53-.53,2.23-2.64,3.35-7.23-1.12-8.14-3.54-.72-6.7,2.3-6.93,5.7-.11,1.53,2.27,1.52,2.37,0a3.75,3.75,0,0,1,2.71-3.29,2.6,2.6,0,0,1,2.24.26c.89.86,0,2.39-.53,3.18-.84,1.3-2.18,2.45-3.82,2.2a2.07,2.07,0,0,1-1.77-1.23c-.26-.79.33-2.12,1.36-1.93,1.49.28,2.13-2,.63-2.29Z"/><path class="cls-1" d="M477.89,635.85a4.59,4.59,0,0,0-6.16,1.58,4.53,4.53,0,0,0,1.72,6,4.63,4.63,0,0,0,6.18-1.91c1.39-2.44.18-5.32-1.93-6.85a1.19,1.19,0,0,0-1.62.42l-.72,1.64c-.6,1.39,1.44,2.61,2.05,1.2l.72-1.63-1.63.42a3,3,0,0,1,1.16,3.4,2.26,2.26,0,0,1-3,1.26c-2.39-1.34-.31-4.77,2.05-3.46a1.19,1.19,0,0,0,1.19-2.06Z"/><path class="cls-1" d="M531.82,641.09c-2.31,2.1.08,5.56,2.87,5a5.16,5.16,0,0,0,3.58-3c.65-1.36,1.53-3.28.78-4.76-1.38-2.76-6.55-2.83-8.8-1.36s-3,5.07-.9,7c1.1,1.06,2.79-.62,1.68-1.68a2.15,2.15,0,0,1,.09-3c1-1.05,2.61-1.05,3.9-.76.84.19,1.83.35,1.86,1.47a6.09,6.09,0,0,1-.77,2.08c-.33.63-.85,1.48-1.62,1.63-.55.11-1.74-.28-1-1,1.13-1-.55-2.71-1.68-1.68Z"/><path class="cls-1" d="M553,615.66a4.94,4.94,0,0,0-7.2,3.59,5.66,5.66,0,0,0,6.32,6.16c3.51-.39,6.64-3.92,5.56-7.54a4,4,0,0,0-7.1-1.15c-.83,1.29,1.22,2.48,2.05,1.2a1.52,1.52,0,0,1,2.16-.23,2.34,2.34,0,0,1,.56,2.59,4.19,4.19,0,0,1-4.21,2.79,3.26,3.26,0,0,1-3-3.34,2.52,2.52,0,0,1,3.66-2c1.35.72,2.55-1.33,1.2-2.06Z"/><path class="cls-1" d="M573.54,647.48a8.79,8.79,0,0,0-2.75,4.46,1.2,1.2,0,0,0,1.15,1.5c3,.26,6.37.39,8.87-1.56a6.08,6.08,0,0,0,2.12-6.19,4.28,4.28,0,0,0-5.35-2.9c-3.06.78-4.42,3.76-5.37,6.48-.51,1.45,1.79,2.07,2.29.63.62-1.75,1.36-3.85,3.21-4.64a2,2,0,0,1,3,2.2c-.42,4.17-5.73,3.87-8.78,3.6l1.14,1.51a6.58,6.58,0,0,1,2.14-3.41c1.16-1-.53-2.68-1.68-1.68Z"/><path class="cls-1" d="M609.22,605.08l-1.92,4.31a5.65,5.65,0,0,0-.77,2.54c.13,2,2.27,2.42,3.85,2.74,4.67,1,7.34-2.09,8.78-6.25,1.21-3.51.27-8.61-4.11-9.2-4.65-.62-6.81,4.28-7.91,7.89a1.19,1.19,0,0,0,2.29.63c.68-2.24,1.51-5.18,4-6,3.79-1.22,4.26,3.62,3.42,6-.89,2.58-2.43,5.15-5.53,4.65a6.39,6.39,0,0,1-1.89-.47c-.78-.55-.27-1,.07-1.74.58-1.32,1.18-2.63,1.76-4s-1.43-2.6-2-1.2Z"/><path class="cls-1" d="M611.37,640.93c-.83,2.17,1.56,4,3.6,3.69,2.74-.44,3-3.84,1.75-5.8a5.89,5.89,0,0,0-7.17-2,6.13,6.13,0,0,0-3.41,6.94,1.18,1.18,0,0,0,1.15.87h2.36a1.19,1.19,0,0,0,0-2.38l-2.36,0,1.14.87a3.64,3.64,0,0,1,4.29-4.34,2.87,2.87,0,0,1,2.34,2.17c.28,1.95-1.63,1.22-1.4.61.55-1.44-1.75-2.05-2.29-.64Z"/><path class="cls-1" d="M685.66,594a10.86,10.86,0,0,0-9.2,7.58c-.49,1.75-.52,4,1,5.26s4.23,1.42,6.08,1.32c4.24-.23,7.35-3.4,6.19-7.81-.62-2.31-5.18-9.55-8.11-6.47-1.05,1.11.62,2.8,1.68,1.69.15-.17,2,1.88,2.32,2.24a7.39,7.39,0,0,1,2,4.08c.22,3.09-2.57,4-5.1,3.9-1.21-.05-3.31-.12-3.85-1.45-.47-1.14.35-2.91.91-3.87a8.45,8.45,0,0,1,6.15-4.09c1.49-.19,1.51-2.57,0-2.38Z"/><path class="cls-1" d="M647.06,633a4.17,4.17,0,0,0,5.06,4.19c2.57-.62,3.64-3.67,2.79-6-.95-2.59-4-3.58-6.54-2.77-3,1-4.42,4.23-4.09,7.18.16,1.5,2.54,1.52,2.38,0a4.84,4.84,0,0,1,1.27-4.21,3.27,3.27,0,0,1,4.15-.25,2.43,2.43,0,0,1,.26,3.24c-1.07,1.25-3,.11-2.9-1.38s-2.24-1.51-2.38,0Z"/><path class="cls-1" d="M509,640.9c0,1.59-2.05,2.56-2.18,4.29a3.49,3.49,0,0,0,2.24,3.34,7.84,7.84,0,0,0,9.3-2.59c1.66-2.52,1.2-6.53-1.67-8a4.6,4.6,0,0,0-6.55,3.62c-.15,1.52,2.23,1.51,2.38,0,.23-2.33,3.49-2,4.2-.18.85,2.14-.63,4.19-2.62,4.94-1.24.47-5.56.88-4.71-1.53.25-.71,1.05-1.3,1.44-1.95a3.76,3.76,0,0,0,.54-2,1.19,1.19,0,0,0-2.37,0Z"/><path class="cls-1" d="M596.39,596.29c-1.88,1.44-3.79,3.36-3.89,5.89a4.85,4.85,0,0,0,3.21,4.78,3.73,3.73,0,0,0,4.41-2.1c.87-1.86.59-4.11.12-6a1.2,1.2,0,0,0-1.14-.88l-3.44-.15c-1.53-.06-1.53,2.32,0,2.38l3.44.15-1.15-.87c.31,1.29,1,4.77-.93,5.24-1.72.43-2.33-2-2-3.18a6.78,6.78,0,0,1,2.57-3.18c1.2-.91,0-3-1.2-2.05Z"/><path class="cls-1" d="M757.77,739.69,756,737.15a10.14,10.14,0,0,0-.38,1.67c-2.36-2.19-5.72-3.38-8.71-1.67-3.68,2.11-3.93,6.14-3.2,9.91a12.79,12.79,0,0,0-9.54-.87c-2.51.72-5,2.11-6,4.63a9.26,9.26,0,0,0-.34,5.24c-3.24-1.38-7.37-.51-10.39,1.25a8.47,8.47,0,0,0-2.22,1.79l1.6,1.76a5.65,5.65,0,0,1,1.82-1.49c3.14-1.84,7.79-2.65,10.34.52.76,1,2.31-.08,2-1.16-.63-2.07-1.38-4.43-.75-6.58s3-3.29,5.11-3.79c3.46-.84,7.68-.17,9.66,3.09.67,1.11,2.62.39,2.17-.92-1.14-3.27-2.84-8.18.35-10.9,3-2.53,6.9.56,8.31,3.3.51,1,2.37.59,2.21-.6A19,19,0,0,1,757.77,739.69Z"/><path class="cls-1" d="M749.12,727a6.24,6.24,0,0,1-3.48-.34,5.49,5.49,0,0,0-3.26-.67c-2.2.47-3.12,3.13-4,4.91-1.09,2.09-2.29,4.55-4.49,5.67-2.5,1.28-5.53.13-8.15,1.15a8.25,8.25,0,0,0-3.91,3.54c-1.06,1.68-1.73,3.57-2.68,5.31a7.28,7.28,0,0,1-5.16,4.06,19,19,0,0,0-4.73,1.82c.53.59,1.07,1.18,1.6,1.78,1.89-.85,3.91-1.12,5.87-2,3.79-1.6,4.89-5.74,6.7-9,1.15-2.09,2.54-3.47,5-3.65s4.84.17,7.07-1.21a12.72,12.72,0,0,0,4.11-4.8c.59-1.05,1.12-2.13,1.69-3.19a5.73,5.73,0,0,1,1-1.7c.87-.64,2,0,2.83.33a7.63,7.63,0,0,0,5.4.1Z"/><path class="cls-1" d="M744.25,720.31a11,11,0,0,0-3.23.62c-3.83,1.41-5.8,5.13-8.47,8a6.45,6.45,0,0,1-5.44,2.41,9.59,9.59,0,0,0-6.61,1.43c-4,2.75-6.38,7.43-9.85,10.81a30.87,30.87,0,0,1-5.55,4.32c.53.61,1.06,1.21,1.6,1.81.89-.56,1.76-1.17,2.61-1.82a37.72,37.72,0,0,0,6.13-6.05,49.67,49.67,0,0,1,5.21-6.18,8.08,8.08,0,0,1,3.4-1.93c1.57-.37,3.14.16,4.72,0a8.68,8.68,0,0,0,5-2.61c1.65-1.6,2.91-3.55,4.47-5.23a9.3,9.3,0,0,1,7.36-3.19h.33C745.35,721.86,744.8,721.09,744.25,720.31Z"/><path class="cls-1" d="M732.83,707.54a10.38,10.38,0,0,0-6.47,7.89,9.24,9.24,0,0,0-11.59,8.4c-2.74-1.1-6.11-1.23-8.46.61-3,2.33-1.11,5.25-.48,8.14-3.62-1.19-7.86-1-10.63,1.89a9,9,0,0,0-.78,1c.53.64,1.06,1.27,1.6,1.9a5.68,5.68,0,0,1,1.23-1.53c2.58-2.23,6.49-1.81,9.34-.38a1.21,1.21,0,0,0,1.79-1,8.49,8.49,0,0,0-.53-3.31c-.36-1.08-1.2-2.65-.8-3.83,1.11-3.19,6.48-1.66,8.39-.43.95.62,1.9-.39,1.75-1.34a6.9,6.9,0,0,1,9.58-7.47,1.21,1.21,0,0,0,1.79-1,8,8,0,0,1,5.83-7.46l.53-.1C734.22,708.82,733.52,708.19,732.83,707.54Z"/><path class="cls-1" d="M725.29,700c-2.71,4.13-7.27,7.26-11.1,10a160.44,160.44,0,0,1-17,10,38,38,0,0,0-9.71,7l1.48,1.85c5.51-6.14,14.35-9,21.16-13.31a93.14,93.14,0,0,0,12.43-9.12,28.54,28.54,0,0,0,4.39-4.8l.06-.08Z"/><path class="cls-1" d="M720.7,695.62c-4.27,5.25-10.5,9.31-15.72,13q-7.25,5.11-14.83,9.74c-2.09,1.27-4.3,2.48-6.31,3.91l1.33,1.76.05.06c2.82-2.09,6.17-3.68,9-5.43q7.67-4.81,15-10.14c4.52-3.28,9.49-6.85,13.2-11.26Z"/><path class="cls-1" d="M711.11,685.54c-3.56,1.22-6.49,4.28-6.11,8.1a12.09,12.09,0,0,0-11.81,6.26c-2.47-1.52-5.7-2.06-8.09-.07a5.64,5.64,0,0,0-1.89,5.42,9.44,9.44,0,0,0-8.37,4.38l1.44,2.12A7.39,7.39,0,0,1,685,708a1.2,1.2,0,0,0,1.16-2,3,3,0,0,1,.67-4.47c1.87-1.28,4.43-.29,6,1a1.2,1.2,0,0,0,2-.52,9.62,9.62,0,0,1,11.44-5.71,1.19,1.19,0,0,0,1.46-1.46,5.44,5.44,0,0,1,2.77-6.58,7.74,7.74,0,0,1,2.38-.78C712.27,686.83,711.69,686.19,711.11,685.54Z"/><path class="cls-1" d="M708.72,682.83a4.53,4.53,0,0,1-.81-1.33c-5.06,5.11-13.52,7-19.89,9.69a55.68,55.68,0,0,0-17.48,11.88c.43.68.87,1.37,1.32,2.06a55.59,55.59,0,0,1,20.39-13.07c5.82-2.15,12.46-4.34,17-8.64Z"/><path class="cls-1" d="M703.54,676.93l-.39.36a42.54,42.54,0,0,1-5.83,4.33,143.29,143.29,0,0,1-12.85,6.81c-5.85,2.89-11.79,6-16.57,10.38.41.68.83,1.36,1.25,2,5.45-5.18,12.64-8.45,19.34-11.75a88,88,0,0,0,13-7.42,39.56,39.56,0,0,0,4.18-3.46Q704.58,677.6,703.54,676.93Z"/><path class="cls-1" d="M697.93,672.23c-.62-.49-1.23-1-1.84-1.52a6.19,6.19,0,0,0-1.52,3.84,11.52,11.52,0,0,0-10.7,6.87c-3.07-.34-6.43-.23-8.85,1.9a6.39,6.39,0,0,0-2.28,5.13c-3.37-.32-6.28,1.38-8.75,3.67l1.19,2.09c2.39-2.36,5.27-4.17,8.76-3.09,1.1.33,1.73-.87,1.35-1.75-.92-2.12.82-4.33,2.71-5.12,2.09-.88,4.44-.65,6.64-.36a1.18,1.18,0,0,0,1.14-.88,9.12,9.12,0,0,1,9.75-6,1.21,1.21,0,0,0,1.46-1.46A3.75,3.75,0,0,1,697.93,672.23Z"/><path class="cls-1" d="M800.61,727.41c-.93-1.29-1.44-3.13-.19-4.38.88-.89,2.39-1.11,3.52-1.53a8.24,8.24,0,0,0,2.65-1.52,1.19,1.19,0,0,0,0-1.69c-2.16-1.74-6-4.82-4.06-8,1.28-2.14,4.58-1.45,5.29-4.27a1.22,1.22,0,0,0-.83-1.47c-2.5-.67-7.87-4.42-4.23-7.06,2.09-1.52,5-1.35,7.07-2.94a1.22,1.22,0,0,0-.29-2.18c-1.85-.67-5-1.92-4.27-4.47s3.92-3.2,6.15-3.7c1.5-.34.86-2.63-.63-2.3s-2-.89-1.91-2.09l-2.44-.46a4.93,4.93,0,0,0,1.11,3.51c-2.37.95-4.47,2.5-4.73,5.28s1.53,4.33,3.64,5.46c-3,1.09-6.59,1.52-7.24,5.1-.61,3.4,2.56,6.25,5.56,7.58-1,.64-2.63,1-3.35,1.62a5.45,5.45,0,0,0-1.68,3.68c-.24,3.16,1.78,5.52,4,7.46-1.29.61-2.79.82-4,1.56a4.92,4.92,0,0,0-2.44,4.27,5.88,5.88,0,0,0,.09.95C798.46,726.35,799.54,726.88,800.61,727.41Z"/><path class="cls-1" d="M791.31,722.61l0,0c5-7.21,9.43-15.91,10.8-24.69.73-4.77-.46-9.48-.44-14.25a37.59,37.59,0,0,1,.39-5.21l-2.32-.56c-.17,1.19-.3,2.4-.38,3.61-.29,4.9,1,9.77.58,14.65-.41,4.63-2.2,9.32-4.06,13.55a68.81,68.81,0,0,1-6.63,11.7l-.06.12Z"/><path class="cls-1" d="M786.47,720c.74-1.63,1.37-3.35,2-4.93a159.53,159.53,0,0,0,6.27-16.37c1.72-5.66,1.32-11.42,2.27-17.19.23-1.39.52-2.76.87-4.12-.76-.21-1.52-.42-2.28-.65-.09.36-.19.72-.27,1.08-1.19,5.1-.92,10.25-1.72,15.38s-2.83,9.89-4.7,14.61c-1.08,2.74-2.22,5.46-3.4,8.16-.2.45-.61,1.63-1.14,2.89Z"/><path class="cls-1" d="M771.49,709.06A7,7,0,0,0,771,711c.8.46,1.58,1,2.35,1.46a5.48,5.48,0,0,1,.12-1.84c.73-3,3.67-2.93,6.17-2.72,1.13.1,1.67-1.75.59-2.21s-6.16-2.58-4.88-4.09c.45-.52,2.17-.75,2.84-.88a14.08,14.08,0,0,1,3.61-.12,1.19,1.19,0,0,0,1.14-1.5c-.85-2.1-3.43-2.82-3.85-5.1-.55-3,2.44-4.83,5.07-3.82,1.29.49,2-1.5.92-2.18-1.8-1.09-3.65-3.23-3-5.51a3,3,0,0,1,4.34-1.92c1.18.76,2.29-.89,1.44-1.86-1.36-1.54-3.09-3.49-3.27-5.63l-2.38-.88a9.09,9.09,0,0,0,2,5.68,5.71,5.71,0,0,0-4.08,3.17,6.29,6.29,0,0,0,1.11,6.6,5.75,5.75,0,0,0-4.15,3.53,6.13,6.13,0,0,0,.06,4.42,5.64,5.64,0,0,0,1.2,1.88,6.18,6.18,0,0,0,.86.72c-2.65.14-5.82.83-6.67,2.93-.76,1.88.83,3.48,2.72,4.68A5.36,5.36,0,0,0,771.49,709.06Z"/><path class="cls-1" d="M763.83,705.7c.63.52,1.25,1.06,1.87,1.6,3.56-7.81,7.6-15.55,10.61-23.58a35.79,35.79,0,0,0,2-13L776,669.8a35.16,35.16,0,0,1-2,13.29C771.14,690.79,767.26,698.22,763.83,705.7Z"/><path class="cls-1" d="M759.74,702.43l1.84-2.49a60.91,60.91,0,0,0,6.6-10.35c3.21-7,3-14.48,2.32-21.91l-2.47-1c.79,7.78,1.19,15.75-2.5,22.91a70.64,70.64,0,0,1-6.23,9.44l-1.44,2Z"/><path class="cls-1" d="M747.72,693.71q.33.33.66.72c1.27.83,2.53,1.66,3.77,2.51a7.18,7.18,0,0,0-1.38-3.35c-.37-.5-3-2.88-2.89-3.17s2.3-.82,2.71-1l3.4-1.21a1.19,1.19,0,0,0-.32-2.33c-1.66-.1-1.26-2.54-.53-3.35,1.13-1.24,3.2-1.46,4.75-1.65,1.24-.15,1.73-2,.32-2.33-2.22-.57-3.05-3.43-1.87-5.31a5.15,5.15,0,0,1,4.94-2,7,7,0,0,0,1.93.34,1.2,1.2,0,0,0,.32-2.34,9.18,9.18,0,0,0-1.75-.34,4.15,4.15,0,0,1-2.63-5,3.73,3.73,0,0,1,.3-.64l-2.21-.89a5.52,5.52,0,0,0-.38.9,6.11,6.11,0,0,0,1.38,5.94,6.42,6.42,0,0,0-4.36,3.69,6.25,6.25,0,0,0,.94,6.2c-2.06.56-4,1.62-4.56,3.82a4.64,4.64,0,0,0,.67,3.86c-1.24.42-2.48.85-3.68,1.34s-2,1-2,2.3C745.24,691.86,746.82,692.81,747.72,693.71Z"/><path class="cls-1" d="M740,689.26a71.3,71.3,0,0,0,12.23-26.09c.35-1.49-1.94-2.13-2.3-.64a68.87,68.87,0,0,1-12,25.53Z"/><path class="cls-1" d="M733.85,685.67l.07-.06a43.12,43.12,0,0,0,13.53-27.1l-2.2-.85-.1,0a40.78,40.78,0,0,1-12.91,26.31,1.14,1.14,0,0,0-.36.63Z"/><path class="cls-1" d="M721,677.19l1.95,1.29a5.57,5.57,0,0,1,4.84-2.53c1,0,1.66-1.36.84-2a3.47,3.47,0,0,1,3.42-6c1.31.48,2-1.48.91-2.18-2.17-1.4-3.65-4.32-2.47-6.85a4.47,4.47,0,0,1,5-2.37,4.75,4.75,0,0,0,1.17.45c1.26.3,2.15-1.53.91-2.18a6.85,6.85,0,0,0-.84-.36h0q-1.54-.55-3.12-1a3.67,3.67,0,0,0,.11.74,6.81,6.81,0,0,0-5.21,3.58,7.38,7.38,0,0,0,.82,7.69,6,6,0,0,0-3.78,8.47A7.57,7.57,0,0,0,721,677.19Z"/><path class="cls-1" d="M714.53,672.71a39.23,39.23,0,0,0,10.29-22c-.77-.27-1.54-.55-2.3-.85a36.78,36.78,0,0,1-9.95,21.49Z"/><path class="cls-1" d="M719.72,648.66l-.19-.09a28.55,28.55,0,0,1-9.11,17.79c-1.14,1,.55,2.71,1.68,1.68a30.85,30.85,0,0,0,9.71-18.49C721.11,649.27,720.41,649,719.72,648.66Z"/><path class="cls-4" d="M110.06,154.56c-2.77.92-5.94,1.93-9.48,3l-10.64,3.24q-5.32,1.62-9.94,2.54a39.65,39.65,0,0,1-7.4.93,8.66,8.66,0,0,1-6.71-2.78A9.27,9.27,0,0,1,63.35,155q0-5.55,5.78-11.34a73.91,73.91,0,0,1,14.8-11.11,172.26,172.26,0,0,1,19.89-9.95q10.86-4.62,21-8.1t18-5.56q7.85-2.08,11-2.08a23.42,23.42,0,0,1,12.55,3.24,28.25,28.25,0,0,1,8.67,8.33,36.85,36.85,0,0,1,5,11.11,45.35,45.35,0,0,1,1.6,11.57q0,10.67-5,22.92a212.9,212.9,0,0,1-13.23,26.38q-8.22,14.13-18.8,29.63t-21.22,32.63a48.61,48.61,0,0,1-3.47,5.79,28.13,28.13,0,0,0-3.47,7.17,267.64,267.64,0,0,1,42.32-11.34,228.81,228.81,0,0,1,41.86-4.4A66.56,66.56,0,0,1,216.91,252q8.33,2.08,9.25,10.88a15.34,15.34,0,0,0,.92,5.32,14.18,14.18,0,0,1,.93,4.86,10,10,0,0,1-3.24,7.64,11.72,11.72,0,0,1-8.32,3,62.65,62.65,0,0,1-9.26-.7,59.56,59.56,0,0,0-8.78-.69A88.8,88.8,0,0,0,180,284.17,170.28,170.28,0,0,1,162.59,287a91.53,91.53,0,0,0-12.81,1.85c-4.27.92-8.58,1.7-12.89,2.31l-39.32,6.48L86.94,299a44.65,44.65,0,0,1-4.86,1.62,17.32,17.32,0,0,1-4.39.7,10.27,10.27,0,0,1-4.63-1.16A10.29,10.29,0,0,0,68.44,299H61.5a16.17,16.17,0,0,1-6.71-2.78q-3.47-2.31-3.47-8.79c0-3.08,1.16-6.87,3.47-11.34A114.54,114.54,0,0,1,63.58,262q5.31-7.4,10.87-14.35t9.71-12.5q9.72-12.94,21-26.15T126,184.18q9.48-11.56,15.73-20.6T148,150.39q0-5.08-6.94-5.09Q131.35,145.3,110.06,154.56Z"/><path class="cls-4" d="M294.61,212.42q19-6.94,25.67-18T327,174q0-3.24-4.86-7.18c-3.24-2.61-6.4-3.93-9.48-3.93a19,19,0,0,0-5.09.46l-19.43,1.39a48,48,0,0,0-7.63,1.16q-2.55.69-4.62,1.39c-1.39.46-2.94.92-4.63,1.39a28.86,28.86,0,0,1-7.17.69,19.78,19.78,0,0,1-11.79-3.47,10.64,10.64,0,0,1-4.86-9q0-6.48,7.17-11.57a81.28,81.28,0,0,1,16.19-8.79,126.81,126.81,0,0,1,17.34-5.79q8.33-2.08,10.18-2.08A95.24,95.24,0,0,1,315,127.25h17.58q15.72,0,24.74,7.87t9,24.53a102,102,0,0,1-5.09,26.62q-4.62,14.58-18,27.08L332.07,224q6.48,8.34,14.11,16.67t14.34,16.89a98.84,98.84,0,0,1,11.1,17.59,42.36,42.36,0,0,1,4.4,18.75q0,9.27-3.94,15a28.66,28.66,0,0,1-10.4,9.26,57.51,57.51,0,0,1-14.8,5.32,104.54,104.54,0,0,1-17.12,2.32,61,61,0,0,0-17.57.69,26.77,26.77,0,0,1-16.66-2.08L259.92,308.7a51.78,51.78,0,0,1-6.94-4.86,67.55,67.55,0,0,1-6.94-6.48,41.14,41.14,0,0,1-5.31-6.94,12,12,0,0,1-2.09-5.79,7.84,7.84,0,0,1,2.09-4.86,36.47,36.47,0,0,1,4.85-4.86,45.26,45.26,0,0,1,6.94-5.55,11.29,11.29,0,0,1,3,1.85l6,4.39q3.46,2.55,6.94,4.87a54.89,54.89,0,0,0,5.32,3.24,40,40,0,0,0,9.71,3.7,92,92,0,0,0,11.33,2.08c3.85.46,7.7.78,11.56.93s7.17.23,10,.23q9.24-1.84,9.25-13.89,0-14.34-5.09-22.22T305.25,237l.46-.46Q285.82,230.94,294.61,212.42Z"/><path class="cls-3" d="M420.46,26.56v1.16a2.29,2.29,0,1,0,4.57,0V26.6a2.29,2.29,0,1,0-4.57,0Z"/><path class="cls-3" d="M595.56,26h1.15a2.29,2.29,0,1,0,0-4.57h-1.16a2.29,2.29,0,0,0,0,4.57Z"/><path class="cls-3" d="M212.52,32.75v1.16a2.29,2.29,0,0,0,4.57,0V32.78a2.29,2.29,0,1,0-4.57,0Z"/><path class="cls-3" d="M324.33,51.16v.51a2.29,2.29,0,1,0,4.57,0v-.52a2.29,2.29,0,1,0-4.57,0v.51a2.29,2.29,0,1,0,4.57,0v-.52a2.29,2.29,0,1,0-4.57,0Z"/><path class="cls-3" d="M179.21,88.24a2.29,2.29,0,1,0-2.27-2.3,2.31,2.31,0,0,0,2.27,2.3Z"/><path class="cls-3" d="M128.32,85.19a2.29,2.29,0,1,0-2.27-2.3,2.31,2.31,0,0,0,2.27,2.3Z"/><path class="cls-3" d="M126.18,114.85V116a2.29,2.29,0,0,0,4.57,0v-1.16a2.29,2.29,0,0,0-4.57,0Z"/><path class="cls-3" d="M103.45,44.35V45.5a4.23,4.23,0,0,0,8.46.06V44.41a4.23,4.23,0,1,0-8.46-.06Z"/><path class="cls-3" d="M92.69,279.33a4.23,4.23,0,1,0-4.19-4.26,4.26,4.26,0,0,0,4.19,4.26Z"/><path class="cls-3" d="M170,137.59a4.23,4.23,0,1,0-4.19-4.26,4.28,4.28,0,0,0,4.19,4.26Z"/><path class="cls-3" d="M93.57,119.47v1.16a2.57,2.57,0,1,0,5.13,0v-1.15a2.57,2.57,0,1,0-5.13,0Z"/><path class="cls-3" d="M99.2,155.84a1.18,1.18,0,0,0,0-2.36,1.18,1.18,0,0,0,0,2.36Z"/><path class="cls-3" d="M89.2,147h1.15a1,1,0,0,0,1-1,1,1,0,0,0-1-1H89.21a1,1,0,0,0,0,1.94Z"/><path class="cls-3" d="M128.65,50.15a5.28,5.28,0,0,0,.23,2,2,2,0,0,0,1.89,1.31c1.25,0,1.26-1.9,0-1.95h-.09c.13,0-.11-.11,0,0s.06.08,0,0c.09.15,0-.11,0-.14a4.9,4.9,0,0,1-.07-1.18,1,1,0,0,0-1.94,0Z"/><path class="cls-3" d="M149.24,114.68a1,1,0,0,0,0-1.94,1,1,0,0,0,0,1.94Z"/><path class="cls-3" d="M202,59.19a1,1,0,0,0,0-1.94,1,1,0,0,0,0,1.94Z"/><path class="cls-3" d="M501.27,129.52l-.21,0-1.76.38a1,1,0,0,0,.28.63l1.16,1.15a1,1,0,0,0,1.37,0,1,1,0,0,0,0-1.38Z"/><path class="cls-3" d="M232.35,68.46c.12-.63.25-1.26.38-1.88a.9.9,0,0,0-.34-.06A1,1,0,0,0,232.35,68.46Z"/><path class="cls-3" d="M327.64,77.12a1,1,0,0,0,0-1.94,1,1,0,0,0,0,1.94Z"/><path class="cls-3" d="M137,164.05a1,1,0,0,0,0-1.94,1,1,0,0,0,0,1.94Z"/><path class="cls-3" d="M212.94,104.56l-1.16,1.15a1,1,0,1,0,1.38,1.37l1.16-1.16a1,1,0,1,0-1.38-1.36Z"/><path class="cls-3" d="M616.87,200.61h-1.16a2.29,2.29,0,0,1,0-4.58h1.15a2.29,2.29,0,1,1,0,4.58Z"/><path class="cls-3" d="M376.09,215.1a2.29,2.29,0,1,1,2.27-2.3,2.31,2.31,0,0,1-2.27,2.3Z"/><path class="cls-3" d="M305.6,201.48a2.29,2.29,0,1,1,2.27-2.3,2.32,2.32,0,0,1-2.27,2.3Z"/><path class="cls-3" d="M154,216.31H152.8a2.29,2.29,0,0,1,0-4.58h1.15a2.29,2.29,0,0,1,0,4.58Z"/><path class="cls-3" d="M112.29,196.59v1.16a2.29,2.29,0,0,1-4.58,0v-1.16a2.29,2.29,0,0,1,4.58,0Z"/><path class="cls-3" d="M87.34,247.49v1.15a2.29,2.29,0,1,1-4.57,0v-1.16a2.29,2.29,0,0,1,4.57,0Z"/><path class="cls-3" d="M111.63,227.84a2.29,2.29,0,1,1,2.27-2.31,2.32,2.32,0,0,1-2.27,2.31Z"/><path class="cls-3" d="M204.63,180.31a2.29,2.29,0,1,1,2.27-2.3,2.31,2.31,0,0,1-2.27,2.3Z"/><path class="cls-3" d="M541,354.29a4.23,4.23,0,1,1,4.2-4.26,4.26,4.26,0,0,1-4.2,4.26Z"/><path class="cls-3" d="M424.92,176.42a.89.89,0,0,0-.21.6,4.86,4.86,0,0,1-.07,1.18,1.18,1.18,0,0,1-.06.13s0,0,0,0h-.06c-1.25,0-1.24,2,0,1.94a2,2,0,0,0,1.89-1.3,3.45,3.45,0,0,0,.18-.77C426,177.66,425.45,177.05,424.92,176.42Zm-.33,1.93Zm0,0h0C424.66,178.35,424.66,178.35,424.6,178.36Z"/><path class="cls-3" d="M353.31,186.05a1,1,0,0,1,0-1.94,1,1,0,0,1,0,1.94Z"/><path class="cls-3" d="M205.14,251.37a1,1,0,0,1,0-2,1,1,0,0,1,0,2Z"/><path class="cls-3" d="M231.69,209.77v-1.15a1,1,0,0,1,1-1,1,1,0,0,1,1,1v1.16a1,1,0,0,1-1.94,0Z"/><path class="cls-3" d="M174,230a1,1,0,0,1,0-1.94,1,1,0,0,1,0,1.94Z"/><path class="cls-3" d="M131.25,220.74a1,1,0,0,1,0-1.94,1,1,0,0,1,0,1.94Z"/><path class="cls-3" d="M156.46,249.81a2.31,2.31,0,0,1-.44,1.71,2.2,2.2,0,0,1-1.68.42,1,1,0,1,1,0-1.94h.61c.22,0-.26.06,0,0s-.25.11-.14,0-.21.19-.12.1-.17.24-.1.12-.1.28-.06.15,0-.06,0-.09,0,.28,0,.12,0-.41,0-.62a1,1,0,0,1,1.94,0Z"/><path class="cls-3" d="M115.15,281.52a1,1,0,0,1,0-1.94,1,1,0,0,1,0,1.94Z"/><path class="cls-3" d="M385.38,335.73l1.15,1.15a1,1,0,0,1-1.38,1.37L384,337.09a1,1,0,0,1,0-1.37,1,1,0,0,1,1.38,0Z"/><path class="cls-3" d="M191.81,332.88a2.28,2.28,0,1,0,4.16,1.63C194.57,334,193.18,333.49,191.81,332.88Z"/><path class="cls-3" d="M142.82,333.36a2.29,2.29,0,1,0-2.27-2.3,2.31,2.31,0,0,0,2.27,2.3Z"/><path class="cls-3" d="M140.68,363v1.16a2.29,2.29,0,1,0,4.57,0v-1.16a2.29,2.29,0,0,0-4.57,0Z"/><path class="cls-3" d="M482.45,368.8V370a2.29,2.29,0,0,0,4.58,0v-1.16a2.29,2.29,0,0,0-4.58,0Z"/><path class="cls-3" d="M458.17,349.15a2.29,2.29,0,1,0-2.27-2.31,2.31,2.31,0,0,0,2.27,2.31Z"/><path class="cls-3" d="M304.35,357.16a2.29,2.29,0,1,0-2.27-2.3,2.32,2.32,0,0,0,2.27,2.3Z"/><path class="cls-3" d="M215.35,398.47v1.15a4.23,4.23,0,1,0,8.46.06v-1.15a4.23,4.23,0,0,0-8.46-.06Z"/><path class="cls-3" d="M439.68,383.45a4.23,4.23,0,1,0-4.2-4.26,4.28,4.28,0,0,0,4.2,4.26Z"/><path class="cls-3" d="M139.43,412.42a4.23,4.23,0,1,0-4.2-4.26,4.26,4.26,0,0,0,4.2,4.26Z"/><path class="cls-3" d="M184.5,385.76a4.23,4.23,0,1,0-4.2-4.26,4.28,4.28,0,0,0,4.2,4.26Z"/><path class="cls-3" d="M90.66,378.32v1.16a2.57,2.57,0,0,0,5.13,0v-1.16a2.57,2.57,0,0,0-5.13,0Z"/><path class="cls-3" d="M113.7,404a1.18,1.18,0,0,0,0-2.35,1.18,1.18,0,0,0,0,2.35Z"/><path class="cls-3" d="M103.7,395.21h1.15a1,1,0,1,0,0-1.94h-1.16a1,1,0,1,0,0,1.94Z"/><path class="cls-3" d="M143.15,298.32a5.36,5.36,0,0,0,.23,2,2,2,0,0,0,1.89,1.3c1.25.05,1.26-1.9,0-1.94-.13,0-.17,0-.1,0s-.11-.1,0,0,.06.08,0,0c.1.16,0-.11,0-.14a4.86,4.86,0,0,1-.07-1.18,1,1,0,0,0-1.94,0Z"/><path class="cls-3" d="M163.74,362.85a1,1,0,0,0,0-1.94,1,1,0,0,0,0,1.94Z"/><path class="cls-3" d="M237.35,358.12l1.15,1.15a1,1,0,1,0,1.37-1.38l-1.16-1.15a1,1,0,0,0-1.37,0,1,1,0,0,0,0,1.38Z"/><path class="cls-3" d="M364.65,372.68a1,1,0,0,0,0-1.95,1,1,0,0,0,0,1.95Z"/><path class="cls-3" d="M338.1,331.08v-1.15a1,1,0,0,0-1.94,0v1.16a1,1,0,0,0,1.94,0Z"/><path class="cls-3" d="M395.83,351.3a1,1,0,0,0,0-1.94,1,1,0,0,0,0,1.94Z"/><path class="cls-3" d="M413.34,371.12a2.35,2.35,0,0,0,.43,1.71,2.23,2.23,0,0,0,1.69.42,1,1,0,0,0,0-1.94h-.61c-.23,0,.26.06,0,0s.25.11.13.05.22.19.12.1.17.24.1.12.11.28.06.15a.29.29,0,0,0,0-.09c0-.15,0,.28,0,.12s0-.41,0-.62a1,1,0,0,0-1.94,0Z"/><path class="cls-3" d="M514.08,378.75l1.16,1.16a1,1,0,1,0,1.36-1.38l-1.15-1.16a1,1,0,1,0-1.37,1.38Z"/><path class="cls-3" d="M507.73,336a1,1,0,0,0,0-1.94,1,1,0,0,0,0,1.94Z"/><path class="cls-3" d="M454.64,402.83a1,1,0,0,0,0-1.94,1,1,0,0,0,0,1.94Z"/><path class="cls-3" d="M251.28,410.13a1,1,0,0,0,0-1.94,1,1,0,0,0,0,1.94Z"/><path class="cls-3" d="M270.17,376.93a1,1,0,0,0,0-1.94,1,1,0,0,0,0,1.94Z"/><path class="cls-3" d="M164.89,435.65a1,1,0,0,0,0-1.94,1,1,0,0,0,0,1.94Z"/><path class="cls-3" d="M116.4,446.05a1,1,0,0,0,0-1.94,1,1,0,0,0,0,1.94Z"/><path class="cls-3" d="M184.42,457l-1.16,1.15a1,1,0,0,0,1.38,1.37l1.16-1.16a1,1,0,1,0-1.38-1.36Z"/><path class="cls-3" d="M532.89,426v1.16a2.29,2.29,0,0,1-4.57,0V426a2.29,2.29,0,1,1,4.57,0Z"/><path class="cls-3" d="M357.62,513.51h-1.16a2.29,2.29,0,1,1,0-4.57h1.16a2.29,2.29,0,0,1,0,4.57Z"/><path class="cls-3" d="M324,389.85V391a2.29,2.29,0,0,1-4.58,0v-1.16a2.29,2.29,0,0,1,4.58,0Z"/><path class="cls-3" d="M289.38,387.54v.51a2.29,2.29,0,1,1-4.57,0v-.51a2.29,2.29,0,1,1,4.57,0v.51a2.29,2.29,0,1,1-4.57,0v-.51a2.29,2.29,0,1,1,4.57,0Z"/><path class="cls-3" d="M408,463.22a2.29,2.29,0,1,1,2.27-2.31,2.32,2.32,0,0,1-2.27,2.31Z"/><path class="cls-3" d="M441.48,460.22a2.29,2.29,0,1,1,2.27-2.3,2.32,2.32,0,0,1-2.27,2.3Z"/><path class="cls-3" d="M443.62,489.88V491a2.29,2.29,0,0,1-4.58,0v-1.15a2.29,2.29,0,1,1,4.58,0Z"/><path class="cls-3" d="M305.19,459.63v1.16a2.29,2.29,0,0,1-4.57,0v-1.16a2.29,2.29,0,1,1,4.57,0Z"/><path class="cls-3" d="M168.45,464.48H167.3a2.29,2.29,0,0,1,0-4.58h1.15a2.29,2.29,0,0,1,0,4.58Z"/><path class="cls-3" d="M126.78,444.76v1.16a2.29,2.29,0,0,1-4.57,0v-1.16a2.29,2.29,0,1,1,4.57,0Z"/><path class="cls-3" d="M101.84,495.66v1.16a2.29,2.29,0,0,1-4.58,0v-1.16a2.29,2.29,0,0,1,4.58,0Z"/><path class="cls-3" d="M126.12,476a2.29,2.29,0,1,1,2.27-2.31,2.31,2.31,0,0,1-2.27,2.31Z"/><path class="cls-3" d="M466.34,419.38v1.15a4.23,4.23,0,1,1-8.45.07v-1.16a4.23,4.23,0,1,1,8.45-.06Z"/><path class="cls-3" d="M364.79,419.69a4.23,4.23,0,1,1,4.2-4.26,4.28,4.28,0,0,1-4.2,4.26Z"/><path class="cls-3" d="M144.61,510.31a4.23,4.23,0,1,1,4.2-4.26,4.27,4.27,0,0,1-4.2,4.26Z"/><path class="cls-3" d="M322,481.79a4.23,4.23,0,1,1,4.2-4.26,4.28,4.28,0,0,1-4.2,4.26Z"/><path class="cls-3" d="M386.8,394.25a5.34,5.34,0,0,1-.24,2,2,2,0,0,1-1.88,1.3c-1.26,0-1.26-1.89,0-1.94.14,0,.17,0,.1,0s.11-.1,0,0-.05.07,0,0c-.1.16,0-.1,0-.13a4.9,4.9,0,0,0,.07-1.18,1,1,0,0,1,1.94,0Z"/><path class="cls-3" d="M490.51,449l-1.16,1.15a1,1,0,0,1-1.37,0,1,1,0,0,1,0-1.38l1.15-1.15a1,1,0,0,1,1.37,1.38Z"/><path class="cls-3" d="M367.81,434.22a1,1,0,0,1,0-1.94,1,1,0,0,1,0,1.94Z"/><path class="cls-3" d="M246.19,457.94v-1.15a1,1,0,1,1,1.94,0v1.16a1,1,0,1,1-1.94,0Z"/><path class="cls-3" d="M209,481.19a1,1,0,0,1,0-1.94,1,1,0,0,1,0,1.94Z"/><path class="cls-3" d="M145.74,468.91a1,1,0,0,1,0-1.94,1,1,0,0,1,0,1.94Z"/><path class="cls-3" d="M171,498a2.35,2.35,0,0,1-.44,1.71,2.21,2.21,0,0,1-1.68.42,1,1,0,0,1,0-1.94c.21,0,.41,0,.61,0s-.25.06,0,0-.25.11-.13,0-.22.19-.12.1-.17.24-.1.12-.11.28-.06.15,0-.06,0-.09,0,.28,0,.12,0-.41,0-.61a1,1,0,0,1,1-1,1,1,0,0,1,1,1Z"/><path class="cls-3" d="M85.71,469.89a1,1,0,0,1,0-1.95,1,1,0,0,1,0,1.95Z"/><path class="cls-3" d="M129.65,529.7a1,1,0,0,1,0-2,1,1,0,0,1,0,2Z"/><path class="cls-3" d="M333,537a1,1,0,0,1,0-2,1,1,0,0,1,0,2Z"/><path class="cls-3" d="M314.12,503.79a1,1,0,0,1,0-1.94,1,1,0,0,1,0,1.94Z"/><path class="cls-3" d="M337.42,443.49a1,1,0,0,1,0-1.94,1,1,0,0,1,0,1.94Z"/><path class="cls-3" d="M326.26,594.58l-1.15.07a2.29,2.29,0,1,0,.25,4.57l1.15-.07a2.29,2.29,0,1,0-.25-4.57Z"/><path class="cls-3" d="M415.61,414.87a4.23,4.23,0,1,0,4-4.45,4.27,4.27,0,0,0-4,4.45Z"/><path class="cls-3" d="M207.74,800.53a4.23,4.23,0,1,0,4-4.46,4.28,4.28,0,0,0-4,4.46Z"/><path class="cls-3" d="M319.63,562.29l-1.15.07a2.57,2.57,0,0,0,.28,5.13l1.16-.08a2.56,2.56,0,1,0-.29-5.12Z"/><path class="cls-3" d="M291.87,559.63c0,.38.05.77.07,1.15a1,1,0,1,0,1.94-.1l-.07-1.16a1,1,0,0,0-1.94.11Z"/><path class="cls-3" d="M329.77,654a1,1,0,0,0,1.94-.11,1,1,0,0,0-1.94.11Z"/><path class="cls-3" d="M364.14,545.21l-1.08,1.22a1,1,0,1,0,1.46,1.28l1.08-1.23a1,1,0,1,0-1.46-1.27Z"/><path class="cls-3" d="M172.21,590.46a1,1,0,0,1,1.93-.14,1,1,0,0,1-1.93.14Z"/><path class="cls-3" d="M143.44,546.77l-1.15.07a4.23,4.23,0,0,0,.46,8.45l1.15-.07a4.23,4.23,0,0,0-.46-8.45Z"/><path class="cls-3" d="M87.52,614.65a5.25,5.25,0,0,0-2,.35,2,2,0,0,0-1.18,2c0,1.26,2,1.15,1.94-.1,0-.14,0-.17,0-.1s.09-.11,0,0-.07.06,0,0c-.15.11.1,0,.13,0a5.77,5.77,0,0,1,1.17-.14,1,1,0,0,0-.1-1.93Z"/><path class="cls-3" d="M117.54,575l-1.08,1.23a1,1,0,1,0,1.46,1.28l1.08-1.23a1,1,0,0,0-1.46-1.28Z"/><path class="cls-3" d="M528.73,13.85V15a2.29,2.29,0,1,0,4.57,0V13.88a2.29,2.29,0,1,0-4.57,0Z"/><path class="cls-3" d="M536.3,178.44a1,1,0,0,0,0-1.94,1,1,0,0,0,0,1.94Z"/><path class="cls-3" d="M587.61,214.88V216a2.29,2.29,0,0,1-4.58,0v-1.15a2.29,2.29,0,1,1,4.58,0Z"/><path class="cls-3" d="M604.12,333.84a2.25,2.25,0,0,0,1.57.66,2.32,2.32,0,0,0,2.31-2.27v-.51a1.79,1.79,0,0,0,0-.24C606.67,332.21,605.38,333,604.12,333.84Z"/><path class="cls-3" d="M493.23,352.89a2.29,2.29,0,1,0-2.27-2.31,2.3,2.3,0,0,0,2.27,2.31Z"/><path class="cls-3" d="M578.62,349.24v1.16a2.29,2.29,0,0,0,4.58,0v-1.15a2.29,2.29,0,1,0-4.58,0Z"/><path class="cls-3" d="M484,402.23a4.23,4.23,0,1,0-4.19-4.26,4.26,4.26,0,0,0,4.19,4.26Z"/><path class="cls-3" d="M550.8,426.61a1,1,0,0,0,0-1.94,1,1,0,0,0,0,1.94Z"/><path class="cls-3" d="M569.7,393.4a1,1,0,0,0,0-1.94,1,1,0,0,0,0,1.94Z"/><path class="cls-3" d="M546.4,333.1a1,1,0,0,0,0-1.94,1,1,0,0,0,0,1.94Z"/><path class="cls-3" d="M653.42,458.35v1.16a2.29,2.29,0,0,1-4.57,0v-1.15a2.29,2.29,0,1,1,4.57,0Z"/><path class="cls-3" d="M519.18,492.48a2.29,2.29,0,1,1,2.27-2.3,2.32,2.32,0,0,1-2.27,2.3Z"/><path class="cls-3" d="M519.17,516a1,1,0,0,1,0-1.94,1,1,0,0,1,0,1.94Z"/><path class="cls-3" d="M545.72,474.42v-1.16a1,1,0,1,1,1.94,0v1.15a1,1,0,0,1-1,1,1,1,0,0,1-1-1Z"/><path class="cls-3" d="M759.75,552.53a2.29,2.29,0,1,0-2.27-2.31,2.32,2.32,0,0,0,2.27,2.31Z"/><path class="cls-3" d="M683.57,758.84V760a2.29,2.29,0,1,0,4.57,0v-1.15a2.29,2.29,0,1,0-4.57,0Z"/><path class="cls-3" d="M726.39,558.7a4.23,4.23,0,1,0-4.2-4.26,4.27,4.27,0,0,0,4.2,4.26Z"/><path class="cls-3" d="M413.46,809.82a4.23,4.23,0,1,0-4.2-4.26,4.26,4.26,0,0,0,4.2,4.26Z"/><path class="cls-3" d="M725,586.8V588a2.56,2.56,0,1,0,5.12,0v-1.16a2.56,2.56,0,1,0-5.12,0Z"/><path class="cls-3" d="M730.63,623.18a1.18,1.18,0,0,0,0-2.36,1.18,1.18,0,0,0,0,2.36Z"/><path class="cls-3" d="M720.64,614.37h1.15a1,1,0,1,0,0-1.94h-1.15a1,1,0,1,0,0,1.94Z"/><path class="cls-3" d="M780.68,582a1,1,0,0,0,0-1.95,1,1,0,0,0,0,1.95Z"/><path class="cls-3" d="M781.83,654.82a1,1,0,0,0,0-2,1,1,0,0,0,0,2Z"/><path class="cls-3" d="M733.34,665.22a1,1,0,0,0,0-2,1,1,0,0,0,0,2Z"/><path class="cls-3" d="M801.36,676.2l-1.16,1.15a1,1,0,1,0,1.38,1.37l1.16-1.16a1,1,0,0,0-1.38-1.36Z"/><path class="cls-3" d="M785.39,683.64h-1.15a2.29,2.29,0,1,1,0-4.58h1.16a2.29,2.29,0,0,1,0,4.58Z"/><path class="cls-3" d="M743.72,663.92v1.16a2.29,2.29,0,0,1-4.57,0V664a2.29,2.29,0,1,1,4.57,0Z"/><path class="cls-3" d="M718.78,714.82V716a2.29,2.29,0,0,1-4.58,0v-1.15a2.29,2.29,0,0,1,4.58,0Z"/><path class="cls-3" d="M743.06,695.17a2.29,2.29,0,1,1,2.27-2.3,2.31,2.31,0,0,1-2.27,2.3Z"/><path class="cls-3" d="M778.92,806.6a4.23,4.23,0,1,1,4.2-4.26,4.28,4.28,0,0,1-4.2,4.26Z"/><path class="cls-3" d="M762.68,688.08a1,1,0,0,1,0-1.94,1,1,0,0,1,0,1.94Z"/><path class="cls-3" d="M787.89,717.14a2.33,2.33,0,0,1-.43,1.71,2.19,2.19,0,0,1-1.69.43,1,1,0,0,1-1-1,1,1,0,0,1,1-1c.2,0,.41,0,.61,0s-.26.06,0,0-.25.12-.13.06-.22.18-.12.09-.17.24-.1.13-.11.28-.06.14a.29.29,0,0,1,0-.09c0-.15,0,.29,0,.12s0-.41,0-.61a1,1,0,0,1,1.94,0Z"/><path class="cls-3" d="M687.15,724.77,686,725.93a1,1,0,1,1-1.37-1.38l1.16-1.16a1,1,0,0,1,1.36,1.38Z"/><path class="cls-3" d="M702.65,689.05a1,1,0,0,1,0-1.94,1,1,0,0,1,0,1.94Z"/><path class="cls-3" d="M746.59,748.86a1,1,0,0,1,0-1.94,1,1,0,0,1,0,1.94Z"/><path class="cls-3" d="M779.3,52.46V52.4l.06,0Z"/><path class="cls-3" d="M692.89,64.35H694a2.29,2.29,0,0,0,0-4.58h-1.15a2.29,2.29,0,1,0,0,4.58Z"/><path class="cls-3" d="M734.56,44.63v1.16a2.29,2.29,0,0,0,4.57,0V44.67a2.29,2.29,0,1,0-4.57,0Z"/><path class="cls-3" d="M759.5,95.53v1.16a2.29,2.29,0,0,0,4.58,0V95.57a2.29,2.29,0,0,0-4.58,0Z"/><path class="cls-3" d="M735.21,75.88a2.29,2.29,0,1,0-2.27-2.3,2.32,2.32,0,0,0,2.27,2.3Z"/><path class="cls-3" d="M716.73,110.18a4.23,4.23,0,1,0-4.2-4.26,4.26,4.26,0,0,0,4.2,4.26Z"/><path class="cls-3" d="M672.87,78a1,1,0,0,0,0-1.94,1,1,0,0,0,0,1.94Z"/><path class="cls-3" d="M689.91,19.88a1,1,0,0,0,0-1.95,1,1,0,0,0,0,1.95Z"/><path class="cls-3" d="M690.38,97.85a2.3,2.3,0,0,0,.44,1.71,2.18,2.18,0,0,0,1.68.43,1,1,0,0,0,0-1.94c-.21,0-.41,0-.62,0s.26.07,0,0,.26.12.14.06.22.18.12.09.17.24.1.13.1.28.06.14,0-.06,0-.09,0,.29,0,.12,0-.41,0-.61a1,1,0,0,0-1-1,1,1,0,0,0-1,1Z"/><path class="cls-3" d="M344.51,29.5l1.15,1.16A1,1,0,0,0,347,29.28l-1.16-1.16a1,1,0,1,0-1.36,1.38Z"/><path class="cls-3" d="M775.63,69.76a1,1,0,0,0,0-1.94,1,1,0,0,0,0,1.94Z"/><path class="cls-3" d="M731.69,129.57a1,1,0,0,0,0-1.94,1,1,0,0,0,0,1.94Z"/><path class="cls-3" d="M632.72,38.08v1.15a2.29,2.29,0,1,1-4.57,0V38.11a2.29,2.29,0,1,1,4.57,0Z"/><path class="cls-3" d="M667.88,149.23h-1.15a2.29,2.29,0,1,1,0-4.58h1.15a2.29,2.29,0,0,1,0,4.58Z"/><path class="cls-3" d="M665,177a2.29,2.29,0,1,1,2.27-2.3A2.3,2.3,0,0,1,665,177Z"/><path class="cls-3" d="M715.91,173.91a2.29,2.29,0,1,1,2.27-2.31,2.3,2.3,0,0,1-2.27,2.31Z"/><path class="cls-3" d="M718.05,203.57v1.15a2.29,2.29,0,1,1-4.57,0V203.6a2.29,2.29,0,1,1,4.57,0Z"/><path class="cls-3" d="M740.77,133.06v1.16a4.23,4.23,0,1,1-8.45.06v-1.16a4.23,4.23,0,1,1,8.45-.06Z"/><path class="cls-3" d="M749.28,180.08a4.23,4.23,0,1,1,4.19-4.26,4.28,4.28,0,0,1-4.19,4.26Z"/><path class="cls-3" d="M674.22,226.3a3.9,3.9,0,0,0,1.28-.21c.68-.53,1.37-1,2.06-1.5a4.17,4.17,0,0,0,.86-2.55,4.23,4.23,0,1,0-4.2,4.26Z"/><path class="cls-3" d="M750.66,208.19v1.15a2.57,2.57,0,1,1-5.13,0v-1.16a2.57,2.57,0,1,1,5.13,0Z"/><path class="cls-3" d="M745,244.56a1.18,1.18,0,0,1,0-2.36,1.18,1.18,0,0,1,0,2.36Z"/><path class="cls-3" d="M755,235.75h-1.16a1,1,0,0,1,0-1.94H755a1,1,0,0,1,1,1,1,1,0,0,1-1,1Z"/><path class="cls-3" d="M629.37,17.92a5.34,5.34,0,0,1-.24,2,2,2,0,0,1-1.88,1.3c-1.26.05-1.26-1.9,0-1.94.14,0,.17,0,.1,0s.11-.1,0,0,0,.08,0,0c-.1.16,0-.11,0-.13a5,5,0,0,0,.07-1.19,1,1,0,0,1,1.94,0Z"/><path class="cls-3" d="M695,203.4a1,1,0,0,1,0-1.94,1,1,0,0,1,0,1.94Z"/><path class="cls-3" d="M764.94,162.67l-1.15,1.16a1,1,0,1,1-1.37-1.38l1.16-1.16a1,1,0,0,1,1.36,1.38Z"/><path class="cls-3" d="M742.33,286.6a1,1,0,0,1,0-1.94,1,1,0,0,1,0,1.94Z"/><path class="cls-3" d="M749.05,292.81V294a2.29,2.29,0,1,0,4.58,0v-1.15a2.29,2.29,0,1,0-4.58,0Z"/><path class="cls-3" d="M774,343.71v1.15a2.29,2.29,0,1,0,4.57,0v-1.15a2.29,2.29,0,1,0-4.57,0Z"/><path class="cls-3" d="M749.71,324.05a2.29,2.29,0,1,0-2.27-2.3,2.32,2.32,0,0,0,2.27,2.3Z"/><path class="cls-3" d="M731.22,358.35a4.23,4.23,0,1,0-4.19-4.26,4.26,4.26,0,0,0,4.19,4.26Z"/><path class="cls-3" d="M656.19,347.58a1,1,0,0,0,0-1.94,1,1,0,0,0,0,1.94Z"/><path class="cls-3" d="M730.09,317a1,1,0,0,0,0-1.94,1,1,0,0,0,0,1.94Z"/><path class="cls-3" d="M704.88,346a2.31,2.31,0,0,0,.43,1.7,2.2,2.2,0,0,0,1.69.43,1,1,0,1,0,0-1.94c-.2,0-.4,0-.61,0s.26.07,0,0,.25.12.14.06.21.18.12.09.17.24.1.13.1.28.06.14a.29.29,0,0,1,0-.09c0-.15,0,.29,0,.12s0-.41,0-.61a1,1,0,1,0-1.94,0Z"/><path class="cls-3" d="M790.13,317.93a1,1,0,0,0,0-1.94,1,1,0,0,0,0,1.94Z"/><path class="cls-3" d="M746.19,377.74a1,1,0,0,0,0-1.94,1,1,0,0,0,0,1.94Z"/><path class="cls-3" d="M689,380.43v1.16a2.29,2.29,0,0,1-4.57,0v-1.15a2.29,2.29,0,1,1,4.57,0Z"/><path class="cls-3" d="M673.1,398.84H672a2.29,2.29,0,1,1,0-4.57h1.16a2.29,2.29,0,0,1,0,4.57Z"/><path class="cls-3" d="M629.88,354v1.16a2.29,2.29,0,0,1-4.57,0V354a2.29,2.29,0,1,1,4.57,0Z"/><path class="cls-3" d="M610.81,377.82v.51a2.29,2.29,0,1,1-4.57,0v-.52a2.29,2.29,0,1,1,4.57,0v.51a2.29,2.29,0,1,1-4.57,0v-.52a2.29,2.29,0,1,1,4.57,0Z"/><path class="cls-3" d="M682.13,438.18a2.29,2.29,0,1,1,2.27-2.3,2.31,2.31,0,0,1-2.27,2.3Z"/><path class="cls-3" d="M733,435.13a2.29,2.29,0,1,1,2.27-2.31,2.31,2.31,0,0,1-2.27,2.31Z"/><path class="cls-3" d="M735.16,464.79v1.15a2.29,2.29,0,1,1-4.57,0v-1.16a2.29,2.29,0,1,1,4.57,0Z"/><path class="cls-3" d="M757.88,394.29v1.15a4.23,4.23,0,1,1-8.45.06v-1.15a4.23,4.23,0,1,1,8.45-.06Z"/><path class="cls-3" d="M766.39,441.3a4.23,4.23,0,1,1,4.2-4.26,4.28,4.28,0,0,1-4.2,4.26Z"/><path class="cls-3" d="M736.41,514.19a4.23,4.23,0,1,1,4.2-4.26,4.28,4.28,0,0,1-4.2,4.26Z"/><path class="cls-3" d="M767.77,469.41v1.15a2.57,2.57,0,1,1-5.13,0v-1.15a2.57,2.57,0,1,1,5.13,0Z"/><path class="cls-3" d="M762.14,505.78a1.18,1.18,0,0,1,0-2.36,1.18,1.18,0,0,1,0,2.36Z"/><path class="cls-3" d="M772.14,497H771a1,1,0,0,1,0-2h1.15a1,1,0,0,1,0,2Z"/><path class="cls-3" d="M732.69,400.09a5.28,5.28,0,0,1-.23,2,2,2,0,0,1-1.89,1.31c-1.25,0-1.26-1.9,0-1.95h.09c-.13,0,.11-.11,0,0s0,.07,0,0c-.09.15,0-.11,0-.14a4.9,4.9,0,0,0,.07-1.18,1,1,0,0,1,1.94,0Z"/><path class="cls-3" d="M782.05,423.89l-1.15,1.16a1,1,0,1,1-1.37-1.38l1.16-1.16a1,1,0,1,1,1.36,1.38Z"/><path class="cls-3" d="M659.35,409.13a1,1,0,0,1,0-1.94,1,1,0,0,1,0,1.94Z"/><path class="cls-3" d="M605.67,478.69a1,1,0,0,1,0-1.94,1,1,0,0,1,0,1.94Z"/><path class="cls-3" d="M629,418.4a1,1,0,0,1,0-1.94,1,1,0,0,1,0,1.94Z"/><path class="cls-3" d="M553.55,512.76a1,1,0,0,0,0-1.94,1,1,0,0,0,0,1.94Z"/><path class="cls-3" d="M543.41,646.35a1.06,1.06,0,0,0-.37.07l-.56.73a.93.93,0,0,0,.92,1.14A1,1,0,0,0,543.41,646.35Z"/><path class="cls-3" d="M494.9,658.69a1,1,0,0,0,0-1.94,1,1,0,0,0,0,1.94Z"/><path class="cls-3" d="M572.34,626.43l-1.15,1.15a1,1,0,1,0,1.38,1.37l1.15-1.16a1,1,0,0,0,0-1.37,1,1,0,0,0-1.38,0Z"/><path class="cls-3" d="M547,677.12H545.8a2.29,2.29,0,0,1,0-4.58h1.16a2.29,2.29,0,0,1,0,4.58Z"/><path class="cls-3" d="M505.29,657.4v1.16a2.29,2.29,0,0,1-4.58,0v-1.16a2.29,2.29,0,0,1,4.58,0Z"/><path class="cls-3" d="M480.34,708.3v1.16a2.29,2.29,0,0,1-4.57,0v-1.16a2.29,2.29,0,1,1,4.57,0Z"/><path class="cls-3" d="M504.63,688.65a2.29,2.29,0,1,1,2.27-2.3,2.3,2.3,0,0,1-2.27,2.3Z"/><path class="cls-3" d="M549.74,402.57a4.23,4.23,0,1,1,4.19-4.26,4.26,4.26,0,0,1-4.19,4.26Z"/><path class="cls-3" d="M524.25,681.55a1,1,0,0,1,0-1.94,1,1,0,0,1,0,1.94Z"/><path class="cls-3" d="M570.05,588.25a2.35,2.35,0,0,1-.43,1.71,2.24,2.24,0,0,1-1.69.42,1,1,0,1,1,0-1.94h.61c.22,0-.26.06,0,0s-.25.11-.14.05-.21.19-.12.1-.17.24-.1.12-.1.28-.06.15a.29.29,0,0,0,0-.09c0-.15,0,.28,0,.12s0-.41,0-.62a1,1,0,0,1,1.94,0Z"/><path class="cls-3" d="M448.72,718.25l-1.16,1.16A1,1,0,0,1,446.2,718l1.15-1.16a1,1,0,0,1,1.37,1.38Z"/><path class="cls-3" d="M464.21,682.53a1,1,0,0,1,0-1.95,1,1,0,0,1,0,1.95Z"/><path class="cls-3" d="M508.15,742.34a1,1,0,0,1,0-2,1,1,0,0,1,0,2Z"/><path class="cls-3" d="M159,613.93a2.29,2.29,0,1,0-2.27-2.31,2.32,2.32,0,0,0,2.27,2.31Z"/><path class="cls-3" d="M81.17,537.38v1.15a2.29,2.29,0,1,0,4.57,0v-1.15a2.29,2.29,0,1,0-4.57,0Z"/><path class="cls-3" d="M125.65,620.1a4.23,4.23,0,1,0-4.2-4.26,4.28,4.28,0,0,0,4.2,4.26Z"/><path class="cls-3" d="M155.63,693a4.23,4.23,0,1,0-4.2-4.26,4.27,4.27,0,0,0,4.2,4.26Z"/><path class="cls-3" d="M124.27,648.21v1.15a2.57,2.57,0,1,0,5.13,0v-1.16a2.57,2.57,0,0,0-5.13,0Z"/><path class="cls-3" d="M129.9,684.58a1.18,1.18,0,0,0,0-2.36,1.18,1.18,0,0,0,0,2.36Z"/><path class="cls-3" d="M119.9,675.77h1.15a1,1,0,1,0,0-1.94h-1.16a1,1,0,1,0,0,1.94Z"/><path class="cls-3" d="M179.94,643.42a1,1,0,0,0,0-1.94,1,1,0,0,0,0,1.94Z"/><path class="cls-3" d="M181.09,716.22a1,1,0,0,0,0-1.94,1,1,0,0,0,0,1.94Z"/><path class="cls-3" d="M132.6,726.62a1,1,0,0,0,0-1.94,1,1,0,0,0,0,1.94Z"/><path class="cls-3" d="M200.62,737.6l-1.16,1.15a1,1,0,0,0,0,1.38,1,1,0,0,0,1.37,0L202,739a1,1,0,0,0-1.38-1.36Z"/><path class="cls-3" d="M184.65,745H183.5a2.29,2.29,0,0,1,0-4.58h1.15a2.29,2.29,0,0,1,0,4.58Z"/><path class="cls-3" d="M457.94,764.24v1.15a2.29,2.29,0,1,1-4.57,0v-1.16a2.29,2.29,0,1,1,4.57,0Z"/><path class="cls-3" d="M118,776.22v1.16a2.29,2.29,0,1,1-4.58,0v-1.15a2.29,2.29,0,1,1,4.58,0Z"/><path class="cls-3" d="M130.63,802.4a2.29,2.29,0,1,1,2.27-2.3,2.31,2.31,0,0,1-2.27,2.3Z"/><path class="cls-3" d="M160.81,790.87a4.23,4.23,0,1,1,4.2-4.26,4.26,4.26,0,0,1-4.2,4.26Z"/><path class="cls-3" d="M161.94,749.48a1,1,0,0,1,0-1.94,1,1,0,0,1,0,1.94Z"/><path class="cls-3" d="M182.45,807.59a2.33,2.33,0,0,1-.43,1.71,2.18,2.18,0,0,1-1.68.43,1,1,0,0,1-1-1,1,1,0,0,1,1-1c.21,0,.41,0,.61,0s-.25.06,0,0-.25.12-.13.06-.22.18-.12.09-.17.24-.1.13-.11.28-.06.14,0-.06,0-.09,0,.29,0,.12,0-.41,0-.61a1,1,0,0,1,1-1,1,1,0,0,1,1,1Z"/><path class="cls-3" d="M86.41,786.18l-1.15,1.15A1,1,0,0,1,83.89,786l1.16-1.15a1,1,0,0,1,1.37,0,1,1,0,0,1,0,1.38Z"/><path class="cls-3" d="M101.91,750.45a1,1,0,0,1,0-1.94,1,1,0,0,1,0,1.94Z"/><path class="cls-3" d="M145.85,810.26a1,1,0,0,1,0-1.94,1,1,0,0,1,0,1.94Z"/><path class="cls-3" d="M426.15,705a2.29,2.29,0,0,0,4.49-.9,2.29,2.29,0,1,0-4.49.9Z"/><path class="cls-3" d="M396.69,708.94l-1.13.23a2.29,2.29,0,0,0,.9,4.49l1.13-.23a2.29,2.29,0,0,0-.9-4.49Z"/><path class="cls-3" d="M373.06,761.79a4.23,4.23,0,1,0,3.32-5,4.28,4.28,0,0,0-3.32,5Z"/><path class="cls-3" d="M348.1,717.7a4.23,4.23,0,1,0,3.32-5,4.26,4.26,0,0,0-3.32,5Z"/><path class="cls-3" d="M385.58,677.91l-1.13.24a2.56,2.56,0,1,0,1,5l1.13-.23a2.57,2.57,0,0,0-1-5Z"/><path class="cls-3" d="M351.13,690.78a1.18,1.18,0,0,0,2.31-.46,1.18,1.18,0,0,0-2.31.46Z"/><path class="cls-3" d="M357.72,679.2c.08.38.15.76.23,1.13a1,1,0,0,0,1.14.77,1,1,0,0,0,.77-1.15l-.24-1.13a1,1,0,1,0-1.9.38Z"/><path class="cls-3" d="M401.52,731.51a1,1,0,0,0,1.91-.38,1,1,0,0,0-1.91.38Z"/><path class="cls-3" d="M330.51,747.36a1,1,0,0,0,1.91-.38,1,1,0,0,0-1.91.38Z"/><path class="cls-3" d="M310.53,701.93a1,1,0,0,0,1.9-.38,1,1,0,0,0-1.9.38Z"/><path class="cls-3" d="M313.54,770.82l-1.37-.9a1,1,0,1,0-1.05,1.63l1.36.9a1,1,0,0,0,1.06-1.63Z"/><path class="cls-3" d="M303,756.68c-.08-.38-.16-.76-.23-1.14a2.28,2.28,0,1,1,4.47-.95c.08.37.15.75.23,1.13a2.29,2.29,0,1,1-4.47,1Z"/><path class="cls-3" d="M313.9,711.85l-1.13.23a2.29,2.29,0,1,1-1-4.47l1.13-.24a2.29,2.29,0,0,1,1,4.48Z"/><path class="cls-3" d="M101.68,688.69l-1.13.24a2.29,2.29,0,0,1-1-4.48l1.13-.23a2.29,2.29,0,1,1,1,4.47Z"/><path class="cls-3" d="M283.18,717.52a2.29,2.29,0,1,1,2.72,1.76,2.33,2.33,0,0,1-2.72-1.76Z"/><path class="cls-3" d="M253.36,742.58a4.23,4.23,0,1,1,5,3.25,4.28,4.28,0,0,1-5-3.25Z"/><path class="cls-3" d="M294.09,735.32a1,1,0,0,1,1.9-.41,1,1,0,0,1-1.9.41Z"/><path class="cls-3" d="M270.75,765.9a2.28,2.28,0,0,1-1.76-.08c-.53-.32-.64-1-.76-1.56a1,1,0,0,1,1.9-.41c0,.2.08.4.14.6s-.12-.24,0,0-.16-.22-.08-.12-.22-.18-.12-.1-.26-.12-.14-.07-.29,0-.15,0h.09c.15,0-.28,0-.12,0s.4-.07.6-.11a1,1,0,0,1,1.15.75,1,1,0,0,1-.74,1.15Z"/><path class="cls-3" d="M281,676.67a1,1,0,0,1,1.89-.4,1,1,0,0,1-1.89.4Z"/><path class="cls-3" d="M231.36,731.83a1,1,0,0,1,1.9-.4,1,1,0,0,1-1.9.4Z"/><path class="cls-3" d="M617.71,667a1,1,0,0,0,0-1.94,1,1,0,0,0,0,1.94Z"/><path class="cls-3" d="M685.73,678l-1.16,1.16a1,1,0,1,0,1.38,1.36l1.16-1.15a1,1,0,0,0,0-1.38,1,1,0,0,0-1.37,0Z"/><path class="cls-3" d="M669.76,685.46h-1.15a2.29,2.29,0,1,1,0-4.58h1.16a2.29,2.29,0,0,1,0,4.58Z"/><path class="cls-3" d="M628.09,665.75v1.15a2.29,2.29,0,1,1-4.57,0v-1.16a2.29,2.29,0,1,1,4.57,0Z"/><path class="cls-3" d="M715.34,775.8V777a2.29,2.29,0,1,1-4.57,0v-1.15a2.29,2.29,0,1,1,4.57,0Z"/><path class="cls-3" d="M627.43,697a2.29,2.29,0,1,1,2.27-2.31,2.32,2.32,0,0,1-2.27,2.31Z"/><path class="cls-3" d="M645.92,731.29a4.23,4.23,0,1,1,4.2-4.26,4.28,4.28,0,0,1-4.2,4.26Z"/><path class="cls-3" d="M647.05,689.9a1,1,0,0,1,0-1.94,1,1,0,0,1,0,1.94Z"/><path class="cls-3" d="M672.26,719a2.31,2.31,0,0,1-.43,1.7,2.18,2.18,0,0,1-1.68.43,1,1,0,0,1,0-1.94h.61c.23,0-.26.06,0,0s-.25.12-.13.06-.22.18-.12.09-.17.24-.1.13-.11.28-.06.14,0-.06,0-.08,0,.28,0,.11,0-.41,0-.61a1,1,0,1,1,1.94,0Z"/><path class="cls-3" d="M571.52,726.6l-1.15,1.15a1,1,0,1,1-1.37-1.38l1.16-1.15a1,1,0,0,1,1.37,0,1,1,0,0,1,0,1.38Z"/><path class="cls-3" d="M587,690.87a1,1,0,0,1,0-1.94,1,1,0,0,1,0,1.94Z"/><path class="cls-3" d="M631,750.68a1,1,0,0,1,0-1.94,1,1,0,0,1,0,1.94Z"/><path class="cls-3" d="M372.3,38.26A2.29,2.29,0,1,0,370,36a2.31,2.31,0,0,0,2.27,2.3Z"/><path class="cls-3" d="M259.61,24.86a4.22,4.22,0,0,0-1.82-8,4.3,4.3,0,0,0-4.18,3.42C255.7,21.68,257.69,23.28,259.61,24.86Z"/><path class="cls-3" d="M385.8,160.56c-.94.39-1.9.72-2.86,1a.94.94,0,0,0,.27.51,1,1,0,0,0,1.37,0l1.16-1.15a1,1,0,0,0,.24-.44Z"/><path class="cls-3" d="M192.22,172.29a2.27,2.27,0,0,0,1.87,3.6h1.16a2.32,2.32,0,0,0,2.27-2.31,2.22,2.22,0,0,0-.39-1.24A44.76,44.76,0,0,1,192.22,172.29Z"/><path class="cls-3" d="M248.23,807.66a4.23,4.23,0,1,1,4.2-4.26,4.28,4.28,0,0,1-4.2,4.26Z"/><path class="cls-3" d="M370.89,200.51a2.35,2.35,0,0,1-.43,1.71,2.23,2.23,0,0,1-1.69.42,1,1,0,0,1,0-1.94h.61c.23,0-.26.06,0,0s-.25.12-.13.06-.22.18-.12.1-.17.23-.1.12-.11.28-.06.14a.31.31,0,0,1,0-.08c0-.16,0,.28,0,.11s0-.41,0-.61a1,1,0,1,1,1.94,0Z"/><path class="cls-3" d="M552.22,755.76a2.29,2.29,0,1,0-2.27-2.31,2.31,2.31,0,0,0,2.27,2.31Z"/><path class="cls-3" d="M708.09,497.29v1.16a2.29,2.29,0,1,0,4.57,0v-1.16a2.29,2.29,0,0,0-4.57,0Z"/><path class="cls-3" d="M485.5,698.17a4.23,4.23,0,1,0-4.2-4.26,4.28,4.28,0,0,0,4.2,4.26Z"/><path class="cls-3" d="M515.48,771.06a4.23,4.23,0,1,0-4.2-4.26,4.28,4.28,0,0,0,4.2,4.26Z"/><path class="cls-3" d="M413.62,754.57v1.15a2.57,2.57,0,1,0,5.13,0V754.6a2.57,2.57,0,1,0-5.13,0Z"/><path class="cls-3" d="M489.75,762.65a1.18,1.18,0,0,0,0-2.36,1.18,1.18,0,0,0,0,2.36Z"/><path class="cls-3" d="M479.75,753.84h1.16a1,1,0,0,0,0-1.94h-1.15a1,1,0,0,0-1,1,1,1,0,0,0,1,1Z"/><path class="cls-3" d="M539.79,721.49a1,1,0,0,0,0-1.94,1,1,0,0,0,0,1.94Z"/><path class="cls-3" d="M541,794.29a1,1,0,0,0,0-1.94,1,1,0,0,0,0,1.94Z"/><path class="cls-3" d="M492.45,804.69a1,1,0,0,0,0-1.94,1,1,0,0,0,0,1.94Z"/><path class="cls-3" d="M502.84,803.4v1.15a2.29,2.29,0,1,1-4.58,0v-1.15a2.29,2.29,0,1,1,4.58,0Z"/></g></g></svg>