<?xml version="1.0" encoding="UTF-8" standalone="no"?><!DOCTYPE svg PUBLIC "-//W3C//DTD SVG 1.1//EN" "http://www.w3.org/Graphics/SVG/1.1/DTD/svg11.dtd"><svg width="100%" height="100%" viewBox="0 0 833 836" version="1.1" xmlns="http://www.w3.org/2000/svg" xmlns:xlink="http://www.w3.org/1999/xlink" xml:space="preserve" xmlns:serif="http://www.serif.com/" style="fill-rule:evenodd;clip-rule:evenodd;stroke-linejoin:round;stroke-miterlimit:2;"><g id="Layer_2"><g id="Layer_1-2"><rect x="0" y="0" width="832.5" height="832.5" style="fill:#deaa7c;"/><path d="M284.44,407.73c-15.86,-28.53 -32.25,-44.36 -67.32,-52.61c-16.86,-4 -38.63,-1.85 -51.19,0.61c-77.52,15.19 -64.82,170.49 -9.47,209.89c38,27.07 114.7,15.43 148.59,-16.55c47.79,-45.07 2.72,-99.35 -20.61,-141.34Z" style="fill:#ffffc5;fill-rule:nonzero;"/><path d="M350.68,470.21c-6.75,-18.87 -15.94,-37.33 -24.76,-54.61c-13,-25.47 -38.63,-49.91 -68.55,-65.4c-14.502,-7.677 -30.168,-12.917 -46.37,-15.51c-16.57,-2.49 -32.06,-1.44 -46,3.12c-37.41,12.2 -65.57,35.37 -81.45,67c-15.49,30.84 -18.54,68 -8.84,107.46c3.152,12.848 7.899,25.251 14.13,36.92c7.852,14.852 18.521,28.034 31.41,38.81c24.12,19.86 55.1,29.84 92.47,29.84c10.462,-0.033 20.911,-0.748 31.28,-2.14c5.48,-0.72 11.073,-1.62 16.78,-2.7l0.43,-0.08c25.86,-4.93 50.34,-16.2 68.92,-31.74c18.86,-15.76 29.78,-34.42 30.77,-52.54c0.98,-17.38 -2.37,-36.5 -10.22,-58.43Zm8.38,58.32c-2,36.18 -45.1,72.43 -98.17,82.55l-0.38,0.07c-5.727,1.093 -11.29,1.987 -16.69,2.68c-10.276,1.381 -20.632,2.089 -31,2.12c-98.87,0 -128.07,-70.46 -136.35,-104.13c-19.81,-80.52 15.15,-148.13 89.04,-172.23c9.234,-2.95 18.876,-4.422 28.57,-4.36c13.174,0.128 26.245,2.352 38.72,6.59l1.83,0.62c7.513,2.607 14.826,5.758 21.88,9.43c4.72,2.44 9.33,5.11 13.8,8l0.19,0.12c23.46,15 43,35.42 53.75,56.48c19.49,38.14 36.82,75.43 34.81,112.06Z" style="fill:#5e4440;fill-rule:nonzero;"/><path d="M246.22,719.93c0.93,20 3.65,39.26 5.92,58.76c3.72,-0.76 7.45,-1.48 11.2,-2.13c5.3,-0.93 10.64,-1.77 16,-2.43c-4.95,-24.22 -9.72,-48.56 -14.09,-73.18c-4.79,-27 -0.2,-60.23 -4.44,-88c-0.09,-0.62 -0.19,-1.24 -0.29,-1.85c-5.74,1.093 -11.307,1.987 -16.7,2.68l0.21,1.87c3.61,34.01 0.63,70.8 2.19,104.28Z" style="fill:#5e4440;fill-rule:nonzero;"/><path d="M146.17,466l0.54,9.29c6.82,-1 7.38,-1.69 8.28,-8.3c-3.23,-1.46 -7.71,-1.11 -8.82,-0.99Z" style="fill:#5e4440;fill-rule:nonzero;"/><path d="M226.7,483.8c2.78,-0.47 5.54,-1.16 8.33,-1.85l2.63,-0.65c-1.59,-17.41 -10,-53.75 -15.42,-51.24l-0,5.3c0.05,9.1 -2.46,37.1 4.46,48.44Z" style="fill:#5e4440;fill-rule:nonzero;"/><path d="M151.93,476c-4.801,1.37 -8.658,4.973 -10.35,9.67c-0.364,0.972 -0.55,2.001 -0.55,3.038c-0,4.751 3.909,8.66 8.66,8.66c0.27,-0 0.541,-0.013 0.81,-0.038c9,-0.79 16.22,-5.44 12.75,-17.49c-0.927,-0.238 -1.785,-0.694 -2.5,-1.33c-2.29,-2.33 -5.647,-3.285 -8.82,-2.51Z" style="fill:#e55747;fill-rule:nonzero;"/><path d="M293.75,457.35c-19.9,-4.36 -13.61,26.29 4.43,16.86c17.5,-9.15 -4.43,-16.86 -4.43,-16.86Z" style="fill:#e55747;fill-rule:nonzero;"/><path d="M230.57,498.37c-5.3,0 -10.63,-1.64 -13.93,-4.39l1.2,-1.44c3.55,3 9.78,4.49 15.5,3.78c3.64,-0.44 6.5,-1.76 7.85,-3.62l1.52,1.11c-1.69,2.3 -4.93,3.86 -9.14,4.37c-0.995,0.128 -1.997,0.192 -3,0.19Z" style="fill:#5e4440;fill-rule:nonzero;"/><path d="M197.89,370.81c0.54,-12.28 -1.57,-27.66 -14.72,-29.21c-0.48,9.8 -1.76,21.56 2.46,30.15c4.068,-0.519 8.16,-0.833 12.26,-0.94Z" style="fill:#5e4440;fill-rule:nonzero;"/><path d="M157.47,380.74c1.808,-1.043 3.667,-1.994 5.57,-2.85c-6.22,-8.38 -12,-14.83 -23.56,-17.65c-1.44,9 3.48,18.15 10.2,25.06c2.59,-1.55 5.2,-3.06 7.79,-4.56Z" style="fill:#5e4440;fill-rule:nonzero;"/><path d="M131.81,398.18c-9.86,-6.07 -20,-9.31 -31.9,-8.65c2.36,9.68 12,16.43 21.55,21.28c2.799,-4.704 6.288,-8.961 10.35,-12.63Z" style="fill:#5e4440;fill-rule:nonzero;"/><path d="M100.35,445.72c0.876,-4.567 2.426,-8.979 4.6,-13.09c-10,-0.64 -21.1,-1.47 -26.43,6.61c5.48,5.01 13.82,6.54 21.83,6.48Z" style="fill:#5e4440;fill-rule:nonzero;"/><path d="M100,483.88c-5.92,1.3 -11.59,3.44 -15.78,7.31c5.08,5.11 11.64,4 18.81,4.85c-1.325,-3.968 -2.338,-8.034 -3.03,-12.16Z" style="fill:#5e4440;fill-rule:nonzero;"/><path d="M124.16,534.23c-5.799,1.767 -10.754,5.6 -13.92,10.77c6.847,1.217 13.904,0.345 20.25,-2.5c-2.18,-2.72 -4.29,-5.477 -6.33,-8.27Z" style="fill:#5e4440;fill-rule:nonzero;"/><path d="M144.93,558.12c-5.37,4.73 -8.79,11.08 -6.78,18.83c7.151,-0.718 13.835,-3.9 18.9,-9c-4.315,-2.923 -8.37,-6.212 -12.12,-9.83Z" style="fill:#5e4440;fill-rule:nonzero;"/><path d="M179.63,577.61c-1.027,3.649 -1.082,7.503 -0.16,11.18c7,0.49 12.26,-3.16 15.78,-8.44c-5.266,-0.534 -10.487,-1.45 -15.62,-2.74Z" style="fill:#5e4440;fill-rule:nonzero;"/><path d="M227.8,580.29c-2.913,0.26 -5.853,0.46 -8.82,0.6c-2.319,5.071 -3.195,10.684 -2.53,16.22c8.35,-0.41 12.05,-8.35 12.19,-16.9l-0.84,0.08Z" style="fill:#5e4440;fill-rule:nonzero;"/><path d="M262.93,579.15c-3.061,0.796 -6.218,1.166 -9.38,1.1c1.16,7.55 2.92,14.76 10.6,18c2.166,-6.521 3.102,-13.387 2.76,-20.25c-1.32,0.43 -2.66,0.82 -3.98,1.15Z" style="fill:#5e4440;fill-rule:nonzero;"/><path d="M295,576.68c3.213,4.572 8.284,7.501 13.85,8c0.932,-5.252 0.803,-10.638 -0.38,-15.84c-4.254,2.999 -8.761,5.622 -13.47,7.84Z" style="fill:#5e4440;fill-rule:nonzero;"/><path d="M329.59,547l-0.35,0.13c-2.01,3.732 -4.49,7.19 -7.38,10.29c4.071,1.605 8.507,2.062 12.82,1.32c2.32,-7.64 -0.33,-9.28 -5.09,-11.74Z" style="fill:#5e4440;fill-rule:nonzero;"/><path d="M336.11,513.18c0,1.72 0,3.44 -0.08,5.16c-0.08,1.72 -0.07,3.26 -0.12,4.93c6.7,2.44 14.41,1.47 19.57,-2.4c-4.9,-0.48 -13.21,-6.06 -19.37,-7.69Z" style="fill:#5e4440;fill-rule:nonzero;"/><path d="M264.48,385.64c1.323,1.145 2.553,2.392 3.68,3.73c5.87,-9.57 9.64,-22.34 2.19,-29.56c-6.83,4.45 -10.16,12.82 -12.59,21c2.39,1.39 4.641,3.008 6.72,4.83Z" style="fill:#5e4440;fill-rule:nonzero;"/><path d="M228.75,372.18l4,-12.12c1.19,-2.44 2.49,-12.15 1.76,-18.42c-11.45,0.15 -12.26,18.31 -10,30.08c1.41,0.13 2.83,0.28 4.24,0.46Z" style="fill:#5e4440;fill-rule:nonzero;"/><path d="M335.48,497.93c5.48,-1.41 10.56,-3 14.26,-6.37c-4.76,-0.31 -10.1,-0.82 -15.2,-0.73c0.39,2.36 0.7,4.72 0.94,7.1Z" style="fill:#5e4440;fill-rule:nonzero;"/><path d="M277.74,445.2l0.54,9.29c6.82,-1 7.38,-1.69 8.28,-8.29c-3.23,-1.48 -7.71,-1.14 -8.82,-1Z" style="fill:#5e4440;fill-rule:nonzero;"/><path d="M580.48,467.25c-20.508,3.295 -41.403,3.389 -61.94,0.28c-29.2,-4.39 -51.74,-21.18 -67,-49.89c-17.09,-32.18 -24.69,-80.11 -21.39,-135c2.7,-45 12.86,-91.7 25.87,-119c7,-14.74 21.78,-27.24 42.72,-36.17c19.36,-8.25 43.38,-13.31 69.49,-14.63c31.82,-1.61 64.32,2.51 91.52,11.61c30.13,10.07 52.27,25.63 64,45c15.19,25 18.85,60.62 10.89,105.79c-7.56,42.9 -23.55,82.49 -32.41,102.27c-15,33.52 -41,59.67 -75.21,75.61c-14.794,6.817 -30.453,11.572 -46.54,14.13Zm-61.65,-1.65c79.5,12 152.5,-23.76 181.66,-88.89c8.82,-19.7 24.74,-59.12 32.26,-101.81c7.88,-44.69 4.3,-79.82 -10.63,-104.44c-11.5,-19 -33.28,-34.24 -63,-44.17c-27,-9 -59.22,-13.1 -90.8,-11.5c-54.93,2.78 -97.29,21.82 -110.55,49.68c-26.06,54.75 -41.16,183.28 -4.53,252.25c14.98,28.14 37.04,44.59 65.59,48.88Z" style="fill:#5e4440;fill-rule:nonzero;"/><path d="M568.69,468.71c-0.273,2.667 -0.523,5.35 -0.75,8.05c-0.6,6.913 -1.067,13.847 -1.4,20.8c-0.327,6.327 -0.553,12.677 -0.68,19.05c-0.08,4.04 -0.127,8.093 -0.14,12.16c0,6.18 0.057,12.373 0.17,18.58c0.1,4.8 0.24,9.597 0.42,14.39c0.213,5.687 0.473,11.373 0.78,17.06c0.24,4.233 0.497,8.46 0.77,12.68c0.47,7.15 1,14.32 1.61,21.47c0.427,5.147 0.88,10.297 1.36,15.45c0.667,7.507 1.413,15.007 2.24,22.5c0.24,2.387 0.49,4.767 0.75,7.14c0.753,7.033 1.527,14.033 2.32,21c0.54,4.667 1.083,9.363 1.63,14.09c0.58,5.04 1.163,10.07 1.75,15.09c0.32,2.733 0.653,5.48 1,8.24c0.46,3.94 0.92,7.893 1.38,11.86c0.61,5.32 1.22,10.66 1.81,16c0.41,3.65 0.82,7.29 1.2,10.92c0.32,2.87 0.62,5.72 0.92,8.58l0.1,0.93l-0.93,0.13c-7.72,1.14 -24.35,2.18 -33.87,1.3l-0.63,-0.06l-0.2,-0.61c-0.49,-1.47 -0.95,-3 -1.38,-4.49c-1.368,-4.846 -2.469,-9.764 -3.3,-14.73c-0.82,-4.8 -1.44,-9.73 -1.9,-14.75c-0.393,-4.34 -0.667,-8.733 -0.82,-13.18c-0.27,-6.72 -0.3,-13.54 -0.18,-20.38c0.08,-5.08 0.25,-10.18 0.47,-15.24c0.32,-7.3 0.74,-14.54 1.17,-21.62c0.08,-1.36 0.16,-2.73 0.25,-4.09c0.06,-1.06 0.13,-2.12 0.19,-3.17c0.49,-8.13 0.94,-15.94 1.23,-23.43c0.08,-2.22 0.16,-4.4 0.21,-6.56c0.067,-3.093 0.097,-6.213 0.09,-9.36c0,-6.22 -0.13,-12.56 -0.33,-19c-0.14,-4.83 -0.32,-9.75 -0.51,-14.75l0,-1.27c-0.2,-5.27 -0.4,-10.56 -0.55,-15.86c-0.14,-4.22 -0.243,-8.437 -0.31,-12.65c-0.12,-7.86 -0.12,-15.69 0.14,-23.45c0.13,-4.11 0.32,-8.19 0.61,-12.25c0.37,-5.24 0.88,-10.43 1.58,-15.56c1.016,-8.003 2.573,-15.928 4.66,-23.72c0.613,-2.24 1.28,-4.46 2,-6.66c0.66,0.08 1.32,0.14 2,0.2c-0.7,2.127 -1.367,4.277 -2,6.45c-2.119,7.76 -3.71,15.655 -4.76,23.63c-0.71,5.17 -1.23,10.41 -1.6,15.7c-0.3,4.1 -0.5,8.24 -0.63,12.4c-0.25,7.58 -0.26,15.22 -0.13,22.88c0.06,4.31 0.17,8.62 0.3,12.93c0.16,5.31 0.36,10.62 0.55,15.9l-0,1.1c0.19,5 0.36,9.87 0.51,14.68c0.2,6.52 0.34,12.9 0.34,19.16c-0,3.23 -0,6.43 -0.1,9.6c-0.047,2.107 -0.113,4.243 -0.2,6.41c-0.28,7.45 -0.73,15.22 -1.22,23.31c-0.07,1.16 -0.14,2.34 -0.21,3.52c-0.07,1.18 -0.16,2.52 -0.24,3.8c-0.42,7 -0.84,14.26 -1.16,21.52c-0.22,5.07 -0.39,10.17 -0.48,15.27c-0.12,6.87 -0.09,13.73 0.17,20.48c0.16,4.46 0.43,8.88 0.83,13.21c0.46,5 1.08,9.93 1.89,14.72c0.825,4.904 1.923,9.758 3.29,14.54c0.34,1.22 0.72,2.42 1.1,3.6c9.08,0.74 24.07,-0.16 31.85,-1.21c-0.27,-2.54 -0.55,-5.09 -0.82,-7.65c-0.4,-3.66 -0.81,-7.34 -1.21,-11c-0.6,-5.29 -1.2,-10.6 -1.81,-15.88c-0.47,-4 -0.93,-8 -1.4,-12c-0.31,-2.71 -0.63,-5.4 -0.94,-8.08c-0.58,-5 -1.163,-10 -1.75,-15c-0.553,-4.733 -1.1,-9.477 -1.64,-14.23c-0.793,-6.973 -1.563,-13.953 -2.31,-20.94c-0.26,-2.39 -0.52,-4.77 -0.77,-7.16c-0.78,-7.493 -1.52,-14.993 -2.22,-22.5c-0.493,-5.2 -0.953,-10.407 -1.38,-15.62c-0.58,-7 -1.12,-14.09 -1.58,-21.14c-0.3,-4.32 -0.567,-8.653 -0.8,-13c-0.3,-5.64 -0.57,-11.28 -0.78,-16.93c-0.18,-4.793 -0.32,-9.587 -0.42,-14.38c-0.133,-6.293 -0.187,-12.58 -0.16,-18.86c-0,-4.127 0.047,-8.25 0.14,-12.37c0.133,-6.167 0.347,-12.323 0.64,-18.47c0.353,-7.127 0.83,-14.24 1.43,-21.34c0.22,-2.49 0.45,-5 0.7,-7.48c0.72,-0.11 1.36,-0.27 2.05,-0.4Z" style="fill:#5e4440;fill-rule:nonzero;"/><path d="M545.34,535.73l-0.84,0.92l-0.47,0.52c-11.29,-10.24 -23.9,-20.75 -37.26,-31.69l-11.67,-9.48l-1.1,-1l-6.49,-5.3c-3.427,-2.793 -6.857,-5.607 -10.29,-8.44c-3.267,-2.667 -6.517,-5.36 -9.75,-8.08c-1.467,-1.22 -2.927,-2.447 -4.38,-3.68c-4.86,-4.1 -9.65,-8.21 -14.32,-12.32c3.895,5.737 8.154,11.218 12.75,16.41c1.35,1.57 2.76,3.18 4.22,4.81c2.82,3.16 5.82,6.42 8.93,9.75c3.11,3.33 6.51,6.9 9.9,10.44l5.71,6l0.75,0.78c3.9,4.06 7.82,8.14 11.66,12.19c19.08,20.1 36.58,39.75 42.48,54.42c1.167,2.714 1.873,5.604 2.09,8.55c0.03,0.523 0.03,1.047 0,1.57l-1.72,-0.09l-0.22,0c0.73,-14 -20,-37.8 -43.41,-62.45c-4.05,-4.27 -8.18,-8.57 -12.28,-12.84l-0.13,-0.13l-5.65,-5.89c-3.38,-3.54 -6.72,-7 -9.93,-10.46c-3.06,-3.27 -6,-6.47 -8.8,-9.59c-1.52,-1.68 -3,-3.34 -4.4,-5c-7.44,-8.58 -13.43,-16.38 -16.85,-22.9l-2.52,-4.75l4,3.59c6,5.33 12.14,10.68 18.43,16l4.41,3.71c3.22,2.667 6.45,5.35 9.69,8.05c3.42,2.813 6.837,5.61 10.25,8.39c2.187,1.8 4.373,3.587 6.56,5.36l1.64,1.34l10,8.11c13.69,11.2 26.63,21.94 38.22,32.42l0.79,0.76Z" style="fill:#5e4440;fill-rule:nonzero;"/><path d="M676.05,426.21l-4.39,7.79c-6.91,12.28 -15.12,24.88 -23.84,37.49c-3.29,4.78 -6.67,9.55 -10.07,14.32c-0.78,1.1 -1.56,2.2 -2.35,3.29c-3.24,4.52 -6.5,9 -9.73,13.5l-0.86,1.19c-4.78,6.61 -9.58,13.27 -14.31,19.94c-2.2,3.107 -4.38,6.22 -6.54,9.34c-14.59,21.1 -27.76,42.13 -35.86,61.93c-0.14,0.35 -0.28,0.69 -0.41,1l-1.5,-0.61l-0.31,-0.12c0.08,-0.21 0.17,-0.41 0.25,-0.63c0.41,-1 0.85,-2.07 1.3,-3.12c0.12,-0.28 0.25,-0.56 0.37,-0.85c8.39,-19.29 21.26,-39.6 35.38,-60c2.147,-3.087 4.32,-6.173 6.52,-9.26c4.74,-6.69 9.56,-13.38 14.36,-20c3.5,-4.84 7,-9.72 10.53,-14.61l2.26,-3.17c3.52,-4.93 7,-9.87 10.38,-14.81c6.35,-9.21 12.39,-18.4 17.84,-27.46c-6.18,6.95 -12.63,14.22 -19.22,21.73c-3.78,4.32 -7.61,8.71 -11.49,13.17l-2.63,3c-3.51,4.05 -7,8.16 -10.58,12.3c-5.26,6.16 -10.54,12.38 -15.77,18.63l-6,7.21c-11.42,13.81 -22.5,27.62 -32.65,40.93l-0.59,-0.45l-0.95,-0.73l0.89,-1.17c10.18,-13.31 21.27,-27.1 32.68,-40.87c1.933,-2.333 3.863,-4.667 5.79,-7c5.28,-6.31 10.61,-12.59 15.93,-18.81c3.48,-4.08 7,-8.11 10.43,-12.12l2.82,-3.25c3.88,-4.46 7.723,-8.86 11.53,-13.2c8.62,-9.81 17,-19.21 24.79,-28l6,-6.52Z" style="fill:#5e4440;fill-rule:nonzero;"/><path d="M437,378.19l-4.51,6.26c1.956,-1.72 3.497,-3.86 4.51,-6.26Z" style="fill:#ffffc5;fill-rule:nonzero;"/><path d="M441.28,206c0.85,-2.59 1.71,-5.17 2.53,-7.76c0.57,-1.82 1.09,-3.65 1.59,-5.48l-0,-0.2c0.14,-1 0.38,-1.92 0.54,-2.88c0.527,-3.464 2.374,-6.593 5.15,-8.73c-14.8,-12.94 -16.22,-50.18 -45.37,-26.67c0.59,21.49 17.43,42.31 35.2,52.18l0.36,-0.46Z" style="fill:#ffffc5;fill-rule:nonzero;"/><path d="M438.83,379c-19.07,9.45 -52,10.22 -49.53,41.33c21.44,-0.21 43.18,-12.54 48.52,-34.63l1.94,-2.7c-0.32,-1.38 -0.63,-2.71 -0.93,-4Z" style="fill:#ffffc5;fill-rule:nonzero;"/><path d="M432.94,282.11c-22,0.45 -39.85,-14.54 -62.39,-8.36c2.74,30.15 45.27,26.47 61.72,14c0.16,-1.9 0.383,-3.78 0.67,-5.64Z" style="fill:#ffffc5;fill-rule:nonzero;"/><path d="M507.17,124.53l0.06,0c2.073,-1.053 4.193,-2.01 6.36,-2.87c4.704,-1.842 9.537,-3.336 14.46,-4.47c-9.84,-11 -8,-28.82 -16.23,-43.47c-48.65,-4.24 -31.12,34.66 -13,55.05c2.677,-1.613 5.468,-3.03 8.35,-4.24Z" style="fill:#ffffc5;fill-rule:nonzero;"/><path d="M624,116.34c0.79,0.07 1.58,0.13 2.37,0.22c5.312,0.563 10.592,1.394 15.82,2.49c4.54,-21.29 0,-43.83 -4.77,-65.75c-6.43,0.08 -19.44,4.16 -24.85,7.92c0.71,18.89 11.97,37.95 11.43,55.12Z" style="fill:#ffffc5;fill-rule:nonzero;"/><path d="M736.49,105.73c-7.7,14.42 -20.47,34.23 -35.74,37c6.347,6.178 11.888,13.133 16.49,20.7c32.57,-6.7 38.76,-26.55 19.25,-57.7Z" style="fill:#ffffc5;fill-rule:nonzero;"/><path d="M738.86,219.43l-2.35,10.57c0.36,3.67 0.6,7.36 0.71,11c15.63,5.85 52.09,2.12 56.91,-16.71c9.07,-35.41 -42.47,-6.4 -55.27,-4.86Z" style="fill:#ffffc5;fill-rule:nonzero;"/><path d="M772.51,310.18c-15.6,4.56 -34.17,5.41 -42.34,-8.41c-1.74,7.26 -3.74,14.45 -5.94,21.53c-0.587,1.88 -1.197,3.757 -1.83,5.63c23.15,20.94 69.85,23.81 50.11,-18.75Z" style="fill:#ffffc5;fill-rule:nonzero;"/><path d="M699.05,380.5c-5.179,8.941 -11.015,17.484 -17.46,25.56c12.4,7 41.39,46.18 53.15,19.37c8.76,-19.98 -28.28,-31.2 -35.69,-44.93Z" style="fill:#ffffc5;fill-rule:nonzero;"/><path d="M652.31,435.17c-5.566,4.293 -11.53,8.043 -17.81,11.2c17,24.28 28.38,50.57 63.1,34.94c-1.85,-22.31 -29.47,-35.6 -45.29,-46.14Z" style="fill:#ffffc5;fill-rule:nonzero;"/><path d="M587.89,303.22c-3.381,-11.058 -7.731,-21.796 -13,-32.09c-8.41,10.84 -14,23.56 -22.5,30.75c11.72,-1.37 23.82,-0.48 35.5,1.34Z" style="fill:#5e4440;fill-rule:nonzero;"/><path d="M461.17,301.66c-6.92,4.22 -13.1,9.65 -18.67,14.64l1.23,7.61c-3.69,23.16 46.12,25.67 50.22,-1c2.76,-18.05 -17.22,-30.72 -32.78,-21.25Z" style="fill:#e55747;fill-rule:nonzero;"/><path d="M663.23,313c-10,0.23 -12.54,13.72 -6.8,27.76c44.48,13.74 55.76,-28.88 6.8,-27.76Z" style="fill:#e55747;fill-rule:nonzero;"/><path d="M466.14,285.76c-2.921,0.346 -5.878,0.225 -8.76,-0.36l-0.53,-0.09l-0.21,-0.48c-0.686,-1.823 -1.101,-3.737 -1.23,-5.68c-0.104,-1.713 -0.472,-3.399 -1.09,-5l1.76,-0.82c0.717,1.801 1.142,3.705 1.26,5.64c0.115,1.58 0.418,3.141 0.9,4.65c10.84,1.7 12.15,-1.32 14.69,-7.26c0.32,-0.74 0.65,-1.51 1,-2.31l1.76,0.81c-0.35,0.79 -0.68,1.55 -1,2.27c-1.88,4.4 -3.33,7.78 -8.55,8.63Z" style="fill:#5e4440;fill-rule:nonzero;"/><path d="M677.75,301.47c-2.345,0.334 -4.725,0.334 -7.07,0l-0.89,-0.1l0,-0.89c0.09,-3.32 -1.45,-8.13 -2,-9.94l-0.17,-0.52l1.87,-0.58c0,0.13 0.09,0.3 0.15,0.5c1.097,3.132 1.809,6.386 2.12,9.69c10.16,0.94 13.89,-3.61 19.47,-10.42l1.51,1.23c-4.4,5.42 -8.08,9.91 -14.99,11.03Z" style="fill:#5e4440;fill-rule:nonzero;"/><path d="M573.38,341c-3.77,0.61 -7.82,0.92 -11.59,1.22c-2.33,0.18 -4.53,0.35 -6.45,0.58l-0.68,0.08l-0.3,-0.61c-1.804,-3.559 -2.661,-7.523 -2.49,-11.51l2,0.07c-0.148,3.429 0.539,6.844 2,9.95c1.78,-0.19 3.76,-0.34 5.84,-0.5c6.66,-0.52 14.21,-1.11 19.29,-3.29l0.77,1.79c-2.698,1.072 -5.515,1.817 -8.39,2.22Z" style="fill:#5e4440;fill-rule:nonzero;"/><path d="M583.68,744.35c0.41,3.65 0.82,7.29 1.2,10.92l-1.93,0.19l-1.25,0.12c-8.46,0.86 -19.35,3.13 -30.88,5.14l-1.93,0.33c-1.368,-4.846 -2.469,-9.764 -3.3,-14.73l1.94,-0.14c9.89,-0.73 19.72,-1.42 29.32,-1.57c1.43,0 3.08,-0.08 4.89,-0.16l1.94,-0.1Z" style="fill:#5e4440;fill-rule:nonzero;"/><path d="M580.49,716.5c0.46,3.94 0.92,7.893 1.38,11.86c-0.65,0.07 -1.29,0.15 -1.94,0.21c-11.43,1.23 -22.9,2.24 -34.29,2.89l-1.95,0.11c-0.393,-4.34 -0.667,-8.733 -0.82,-13.18l1.94,-0.14c11.24,-0.79 22.51,-1.27 33.72,-1.68l1.96,-0.07Z" style="fill:#5e4440;fill-rule:nonzero;"/><path d="M576.14,679.08c0.54,4.667 1.083,9.363 1.63,14.09l-1.93,0.29c-10.38,1.567 -20.78,3.003 -31.2,4.31l-1.95,0.24c0.08,-5.08 0.25,-10.18 0.47,-15.24c0.65,-0.1 1.31,-0.18 2,-0.27c9.67,-1.3 19.36,-2.43 29.08,-3.27c0.61,-0.05 1.25,-0.11 1.9,-0.15Z" style="fill:#5e4440;fill-rule:nonzero;"/><path d="M573.07,650.9c0.24,2.387 0.49,4.767 0.75,7.14l-1.93,0.25c-8.52,1 -17.06,1.91 -25.61,2.69l-1.95,0.17c0.08,-1.36 0.16,-2.73 0.25,-4.09c0.06,-1.06 0.13,-2.12 0.19,-3.17l2,-0.23c7.253,-0.88 14.537,-1.64 21.85,-2.28l2.54,-0.25c0.6,-0.07 1.25,-0.13 1.91,-0.23Z" style="fill:#5e4440;fill-rule:nonzero;"/><path d="M569.47,613c0.427,5.147 0.88,10.297 1.36,15.45l-1.93,0.23c-6.92,0.79 -14,1.33 -20.95,1.72l-2,0.11c0.08,-2.22 0.16,-4.4 0.21,-6.56c0.067,-3.093 0.097,-6.213 0.09,-9.36l2,-0.2c6.4,-0.62 12.82,-1.08 19.27,-1.33l1.95,-0.06Z" style="fill:#5e4440;fill-rule:nonzero;"/><path d="M567.09,578.8c0.24,4.233 0.497,8.46 0.77,12.68l-1.92,0.39c-6,1.22 -12,2.323 -18,3.31l-1.94,0.32c-0.14,-4.83 -0.32,-9.75 -0.51,-14.75l1.94,-0.25c5.84,-0.71 11.83,-1.28 17.74,-1.6l1.92,-0.1Z" style="fill:#5e4440;fill-rule:nonzero;"/><path d="M565.89,547.35c0.1,4.8 0.24,9.597 0.42,14.39l-1.95,0.23c-6,0.67 -12.13,1.17 -17.55,1.53l-1.94,0.12c-0.14,-4.22 -0.243,-8.437 -0.31,-12.65l2,-0.4c5.61,-1.13 11.63,-2.22 17.43,-3l1.9,-0.22Z" style="fill:#5e4440;fill-rule:nonzero;"/><path d="M565.86,516.61c-0.08,4.04 -0.127,8.093 -0.14,12.16l-1.94,0c-5.77,-0.16 -11.83,-0.57 -17.14,-1l-1.94,-0.17c0.13,-4.11 0.32,-8.19 0.61,-12.25l2,0c5.565,0.053 11.124,0.41 16.65,1.07l1.9,0.19Z" style="fill:#5e4440;fill-rule:nonzero;"/><path d="M567.94,476.76c-0.6,6.913 -1.067,13.847 -1.4,20.8l-2,0.33c-5.33,0.85 -10.88,1.38 -15.69,1.7l-2,0.12c1.053,-8.002 2.646,-15.923 4.77,-23.71l2,0c4,0 8.24,0.2 12.36,0.59l1.96,0.17Z" style="fill:#5e4440;fill-rule:nonzero;"/><path d="M468.19,471.32c-0.27,0.62 -0.51,1.25 -0.75,1.9c-0.64,1.69 -1.2,3.44 -1.73,5.22c-0.21,0.73 -0.42,1.47 -0.62,2.21c-1.52,-1.68 -3,-3.34 -4.4,-5c0.26,-0.69 0.53,-1.38 0.8,-2.06c0.53,-1.37 1.05,-2.73 1.57,-4.09c0.24,-0.65 0.49,-1.29 0.72,-1.93l4.41,3.75Z" style="fill:#5e4440;fill-rule:nonzero;"/><path d="M488.13,487.76c-0.22,0.66 -0.43,1.32 -0.65,2c-1,3 -1.94,5.93 -2.94,8.89c-0.24,0.69 -0.47,1.38 -0.72,2.07c-3.38,-3.54 -6.72,-7 -9.93,-10.46c0.24,-0.69 0.5,-1.37 0.75,-2.05c0.85,-2.29 1.71,-4.59 2.55,-6.89l0.69,-1.93c3.413,2.8 6.83,5.59 10.25,8.37Z" style="fill:#5e4440;fill-rule:nonzero;"/><path d="M507,504.74c-0.07,0.24 -0.13,0.48 -0.2,0.74c-0.87,3.11 -2.28,7.41 -4.11,12.08c-0.25,0.66 -0.51,1.33 -0.78,2c-4.05,-4.27 -8.18,-8.57 -12.28,-12.84l-0.13,-0.13l0.78,-2c1.25,-3.17 2.52,-6.34 3.72,-9.55c0.25,-0.64 0.49,-1.27 0.72,-1.92l1.64,1.34l10,8.11l0.64,2.17Z" style="fill:#5e4440;fill-rule:nonzero;"/><path d="M610.5,523.75c-2.2,3.107 -4.38,6.22 -6.54,9.34c-0.25,-0.77 -0.5,-1.55 -0.76,-2.33c-1.4,-4.45 -2.63,-9 -3.79,-13.26c-0.21,-0.77 -0.42,-1.54 -0.62,-2.29c1.933,-2.333 3.863,-4.667 5.79,-7c0.28,0.67 0.56,1.35 0.83,2c1.52,3.75 3,7.47 4.31,11.21c0.28,0.83 0.53,1.58 0.78,2.33Z" style="fill:#5e4440;fill-rule:nonzero;"/><path d="M635.4,489.12c-3.24,4.52 -6.5,9 -9.73,13.5l-0.86,1.19c-0.25,-0.77 -0.49,-1.54 -0.73,-2.32c-1,-3.27 -1.93,-6.59 -2.9,-9.83c-0.22,-0.74 -0.44,-1.47 -0.67,-2.21c3.48,-4.08 7,-8.11 10.43,-12.12c0.28,0.67 0.55,1.35 0.82,2c1,2.45 2,5 2.86,7.5c0.26,0.78 0.53,1.54 0.78,2.29Z" style="fill:#5e4440;fill-rule:nonzero;"/><path d="M647.82,471.51c-3.29,4.78 -6.67,9.55 -10.07,14.32c-0.3,-0.7 -0.59,-1.42 -0.87,-2.14c-0.93,-2.38 -1.76,-4.87 -2.49,-7.37c-0.22,-0.74 -0.43,-1.49 -0.63,-2.24c3.88,-4.46 7.723,-8.86 11.53,-13.2c0.2,0.75 0.4,1.51 0.59,2.27c0.5,1.9 1,3.82 1.38,5.73c0.2,0.88 0.38,1.76 0.56,2.63Z" style="fill:#5e4440;fill-rule:nonzero;"/><path d="M168.13,46.32c3.44,1.153 5.16,3.45 5.16,6.89c0,41.333 0.573,82.55 1.72,123.65c1.147,41.1 0.573,82.547 -1.72,124.34c-0.227,3.22 -2.75,5.69 -7.57,7.41c-5.14,1.753 -10.619,2.284 -16,1.55c-5.978,-0.744 -11.634,-3.129 -16.34,-6.89c-5.053,-3.9 -7.807,-9.87 -8.26,-17.91c0.447,-27.093 0.677,-53.903 0.69,-80.43c0.013,-26.527 -0.217,-53.333 -0.69,-80.42l-4.12,4.49c-10.1,10.1 -19.05,15.15 -26.85,15.15c-3.78,-0 -6.89,-3.11 -6.89,-6.89c0,-3.78 3.11,-6.89 6.89,-6.89c3.9,-0 8.087,-1.72 12.56,-5.16c4.95,-3.914 9.453,-8.361 13.43,-13.26c4.694,-5.728 9.055,-11.721 13.06,-17.95c4.24,-6.547 8.197,-12.803 11.87,-18.77c3.673,-5.967 6.827,-11.25 9.46,-15.85c1.827,-3.318 3.83,-6.536 6,-9.64c0.918,-1.154 2.023,-2.144 3.27,-2.93c1.295,-0.806 2.887,-0.987 4.33,-0.49Z" style="fill:#e55747;fill-rule:nonzero;"/><path d="M282.73,46.32c3.44,1.153 5.16,3.45 5.16,6.89c0,41.333 0.573,82.55 1.72,123.65c1.147,41.1 0.573,82.547 -1.72,124.34c-0.227,3.22 -2.75,5.69 -7.57,7.41c-5.14,1.755 -10.619,2.285 -16,1.55c-5.97,-0.749 -11.619,-3.134 -16.32,-6.89c-5.053,-3.9 -7.807,-9.87 -8.26,-17.91c0.46,-27.093 0.69,-53.903 0.69,-80.43c-0,-26.527 -0.23,-53.333 -0.69,-80.42l-4.16,4.49c-10.1,10.1 -19.047,15.15 -26.84,15.15c-3.78,-0 -6.89,-3.11 -6.89,-6.89c0,-3.78 3.11,-6.89 6.89,-6.89c3.887,-0 8.073,-1.72 12.56,-5.16c4.946,-3.914 9.446,-8.361 13.42,-13.26c4.701,-5.727 9.068,-11.72 13.08,-17.95c4.24,-6.547 8.197,-12.803 11.87,-18.77c3.673,-5.967 6.83,-11.25 9.47,-15.85c1.824,-3.32 3.827,-6.538 6,-9.64c0.92,-1.151 2.025,-2.141 3.27,-2.93c1.293,-0.803 2.88,-0.983 4.32,-0.49Z" style="fill:#e55747;fill-rule:nonzero;"/><path d="M386,27.88l0,1.12c0.079,1.197 1.086,2.139 2.285,2.139c1.199,-0 2.206,-0.942 2.285,-2.139l-0,-1.09c0.003,-0.05 0.005,-0.101 0.005,-0.151c-0,-1.257 -1.034,-2.29 -2.29,-2.29c-1.256,-0 -2.29,1.033 -2.29,2.29c-0,0.05 0.002,0.101 0.005,0.151l0,-0.03Z" style="fill:#ffffc5;fill-rule:nonzero;"/><path d="M561.04,27.27l1.16,0c1.256,-0 2.29,-1.034 2.29,-2.29c0,-1.256 -1.034,-2.29 -2.29,-2.29l-1.16,-0c-1.256,0 -2.29,1.034 -2.29,2.29c0,1.256 1.034,2.29 2.29,2.29Z" style="fill:#ffffc5;fill-rule:nonzero;"/><path d="M178,34.07l0,1.15c-0.003,0.05 -0.005,0.101 -0.005,0.151c0,1.257 1.034,2.29 2.29,2.29c1.256,0 2.29,-1.033 2.29,-2.29c0,-0.05 -0.002,-0.101 -0.005,-0.151l0,-1.12c0.003,-0.05 0.005,-0.101 0.005,-0.151c0,-1.257 -1.034,-2.29 -2.29,-2.29c-1.256,-0 -2.29,1.033 -2.29,2.29c0,0.05 0.002,0.101 0.005,0.151l0,-0.03Z" style="fill:#ffffc5;fill-rule:nonzero;"/><path d="M289.82,52.48l0,0.52c-0.003,0.05 -0.005,0.101 -0.005,0.151c0,1.257 1.034,2.29 2.29,2.29c1.256,0 2.29,-1.033 2.29,-2.29c0,-0.05 -0.002,-0.101 -0.005,-0.151l-0,-0.51c0.003,-0.05 0.005,-0.101 0.005,-0.151c0,-1.257 -1.034,-2.29 -2.29,-2.29c-1.256,-0 -2.29,1.033 -2.29,2.29c0,0.05 0.002,0.101 0.005,0.151l0,0.51c-0.003,0.05 -0.005,0.101 -0.005,0.151c0,1.257 1.034,2.29 2.29,2.29c1.256,0 2.29,-1.033 2.29,-2.29c0,-0.05 -0.002,-0.101 -0.005,-0.151l-0,-0.51c0.003,-0.05 0.005,-0.101 0.005,-0.151c0,-1.257 -1.034,-2.29 -2.29,-2.29c-1.256,-0 -2.29,1.033 -2.29,2.29c0,0.05 0.002,0.101 0.005,0.151l0,-0.01Z" style="fill:#ffffc5;fill-rule:nonzero;"/><path d="M144.7,89.56c0.007,0 0.013,0 0.02,0c1.256,0 2.29,-1.034 2.29,-2.29c-0,-1.256 -1.034,-2.29 -2.29,-2.29c-1.249,0 -2.279,1.021 -2.29,2.27c-0.006,1.254 1.016,2.294 2.27,2.31Z" style="fill:#ffffc5;fill-rule:nonzero;"/><path d="M93.81,86.51c0.007,0 0.013,0 0.02,0c1.256,0 2.29,-1.034 2.29,-2.29c-0,-1.256 -1.034,-2.29 -2.29,-2.29c-1.249,0 -2.279,1.021 -2.29,2.27c0.005,1.25 1.02,2.283 2.27,2.31Z" style="fill:#ffffc5;fill-rule:nonzero;"/><path d="M91.67,116.17l0,1.15c-0.003,0.05 -0.005,0.101 -0.005,0.151c0,1.257 1.034,2.29 2.29,2.29c1.256,0 2.29,-1.033 2.29,-2.29c0,-0.05 -0.002,-0.101 -0.005,-0.151l-0,-1.12c0.003,-0.05 0.005,-0.101 0.005,-0.151c0,-1.257 -1.034,-2.29 -2.29,-2.29c-1.256,-0 -2.29,1.033 -2.29,2.29c0,0.05 0.002,0.101 0.005,0.151l0,-0.03Z" style="fill:#ffffc5;fill-rule:nonzero;"/><path d="M69,45.66l0,1.16c-0.004,0.078 -0.006,0.156 -0.006,0.233c-0,2.321 1.909,4.23 4.23,4.23c2.32,0 4.23,-1.909 4.23,-4.23c-0,-0.057 -0.002,-0.115 -0.004,-0.173l0,-1.16c0.004,-0.078 0.006,-0.156 0.006,-0.233c0,-2.321 -1.909,-4.23 -4.23,-4.23c-2.32,-0 -4.23,1.909 -4.23,4.23c0,0.057 0.002,0.115 0.004,0.173Z" style="fill:#ffffc5;fill-rule:nonzero;"/><path d="M58.19,280.65c0.01,0 0.02,0 0.03,0c2.32,0 4.23,-1.909 4.23,-4.23c-0,-2.32 -1.91,-4.23 -4.23,-4.23c-2.309,0 -4.214,1.891 -4.23,4.2c0.005,2.312 1.888,4.222 4.2,4.26Z" style="fill:#ffffc5;fill-rule:nonzero;"/><path d="M135.49,138.9c0.013,0 0.027,0 0.04,0c2.32,0 4.23,-1.909 4.23,-4.23c-0,-2.32 -1.91,-4.23 -4.23,-4.23c-2.309,0 -4.214,1.891 -4.23,4.2c-0,2.311 1.88,4.222 4.19,4.26Z" style="fill:#ffffc5;fill-rule:nonzero;"/><path d="M59.06,120.78l0,1.16c-0.003,0.053 -0.005,0.107 -0.005,0.16c0,1.41 1.16,2.57 2.57,2.57c1.41,0 2.57,-1.16 2.57,-2.57c0,-0.053 -0.002,-0.107 -0.005,-0.16l0,-1.16c0.003,-0.053 0.005,-0.107 0.005,-0.16c0,-1.41 -1.16,-2.57 -2.57,-2.57c-1.41,-0 -2.57,1.16 -2.57,2.57c0,0.053 0.002,0.107 0.005,0.16Z" style="fill:#ffffc5;fill-rule:nonzero;"/><path d="M64.69,157.16c0.647,0 1.18,-0.533 1.18,-1.18c0,-0.647 -0.533,-1.18 -1.18,-1.18c-0.647,0 -1.18,0.533 -1.18,1.18c-0,0.647 0.533,1.18 1.18,1.18Z" style="fill:#ffffc5;fill-rule:nonzero;"/><path d="M54.69,148.35l1.16,0c0.443,-0.111 0.757,-0.513 0.757,-0.97c-0,-0.457 -0.314,-0.859 -0.757,-0.97l-1.14,0c-0.549,0 -1,0.451 -1,1c0,0.549 0.451,1 1,1l-0.02,-0.06Z" style="fill:#ffffc5;fill-rule:nonzero;"/><path d="M94.14,51.46c-0.051,0.675 0.027,1.354 0.23,2c0.294,0.786 1.051,1.307 1.89,1.3c1.25,0 1.26,-1.89 0,-1.94c-0.13,0 -0.16,0 -0.09,0c0.07,0 -0.11,-0.1 0,0c0.11,0.1 0,0.07 0,0c0.09,0.16 0,-0.1 0,-0.13c-0.071,-0.389 -0.094,-0.785 -0.07,-1.18c-0.111,-0.443 -0.513,-0.757 -0.97,-0.757c-0.457,0 -0.859,0.314 -0.97,0.757l-0.02,-0.05Z" style="fill:#ffffc5;fill-rule:nonzero;"/><path d="M114.73,116c0.443,-0.111 0.757,-0.513 0.757,-0.97c-0,-0.457 -0.314,-0.859 -0.757,-0.97c-0.443,0.111 -0.757,0.513 -0.757,0.97c0,0.457 0.314,0.859 0.757,0.97Z" style="fill:#ffffc5;fill-rule:nonzero;"/><path d="M167.48,60.51c0.443,-0.111 0.757,-0.513 0.757,-0.97c-0,-0.457 -0.314,-0.859 -0.757,-0.97c-0.443,0.111 -0.757,0.513 -0.757,0.97c0,0.457 0.314,0.859 0.757,0.97Z" style="fill:#ffffc5;fill-rule:nonzero;"/><path d="M466.76,130.84l-0.21,0l-1.75,0.37c0.013,0.235 0.109,0.458 0.27,0.63l1.16,1.16c0.153,0.089 0.327,0.136 0.503,0.136c0.549,-0 1,-0.451 1,-1c0,-0.182 -0.049,-0.36 -0.143,-0.516c-0.27,-0.23 -0.59,-0.5 -0.83,-0.78Z" style="fill:#ffffc5;fill-rule:nonzero;"/><path d="M197.85,69.77c0.12,-0.63 0.24,-1.25 0.38,-1.88c-0.113,-0.036 -0.231,-0.056 -0.35,-0.06c-0.451,0.105 -0.772,0.511 -0.772,0.974c-0,0.451 0.306,0.85 0.742,0.966Z" style="fill:#ffffc5;fill-rule:nonzero;"/><path d="M293.13,78.44c0.549,0 1,-0.451 1,-1c0,-0.549 -0.451,-1 -1,-1c-0.549,0 -1,0.451 -1,1c0,0.549 0.451,1 1,1Z" style="fill:#ffffc5;fill-rule:nonzero;"/><path d="M102.47,165.36c0.443,-0.111 0.757,-0.513 0.757,-0.97c-0,-0.457 -0.314,-0.859 -0.757,-0.97c-0.443,0.111 -0.757,0.513 -0.757,0.97c0,0.457 0.314,0.859 0.757,0.97Z" style="fill:#ffffc5;fill-rule:nonzero;"/><path d="M178.43,105.87l-1.16,1.13c-0.089,0.153 -0.136,0.327 -0.136,0.503c0,0.549 0.451,1 1,1c0.182,0 0.36,-0.049 0.516,-0.143l1.16,-1.15c0.366,-0.384 0.366,-0.996 0,-1.38c-0.383,-0.36 -0.987,-0.36 -1.37,0l-0.01,0.04Z" style="fill:#ffffc5;fill-rule:nonzero;"/><path d="M582.36,201.92l-1.16,-0c-1.197,-0.079 -2.139,-1.086 -2.139,-2.285c0,-1.199 0.942,-2.206 2.139,-2.285l1.15,-0c0.05,-0.003 0.101,-0.005 0.151,-0.005c1.257,-0 2.29,1.034 2.29,2.29c0,1.256 -1.033,2.29 -2.29,2.29c-0.05,-0 -0.101,-0.002 -0.151,-0.005l0.01,-0Z" style="fill:#ffffc5;fill-rule:nonzero;"/><path d="M341.58,216.42c-0.007,0 -0.013,0 -0.02,0c-1.256,0 -2.29,-1.034 -2.29,-2.29c0,-1.256 1.034,-2.29 2.29,-2.29c1.252,0 2.284,1.028 2.29,2.28c0,1.25 -1.02,2.284 -2.27,2.3Z" style="fill:#ffffc5;fill-rule:nonzero;"/><path d="M271.09,202.8c-0.007,0 -0.013,0 -0.02,0c-1.256,0 -2.29,-1.034 -2.29,-2.29c0,-1.256 1.034,-2.29 2.29,-2.29c1.249,0 2.279,1.021 2.29,2.27c-0.005,1.25 -1.02,2.283 -2.27,2.31Z" style="fill:#ffffc5;fill-rule:nonzero;"/><path d="M119.45,217.62l-1.16,0c-1.256,0 -2.29,-1.034 -2.29,-2.29c0,-1.256 1.034,-2.29 2.29,-2.29l1.15,-0c1.256,-0 2.29,1.034 2.29,2.29c0,1.256 -1.034,2.29 -2.29,2.29l0.01,0Z" style="fill:#ffffc5;fill-rule:nonzero;"/><path d="M77.78,197.91l0,1.15c0,1.256 -1.034,2.29 -2.29,2.29c-1.256,0 -2.29,-1.034 -2.29,-2.29l0,-1.15c0,-1.256 1.034,-2.29 2.29,-2.29c1.256,-0 2.29,1.034 2.29,2.29Z" style="fill:#ffffc5;fill-rule:nonzero;"/><path d="M52.83,248.8l0,1.2c0.003,0.05 0.005,0.101 0.005,0.151c0,1.257 -1.034,2.29 -2.29,2.29c-1.256,0 -2.29,-1.033 -2.29,-2.29c0,-0.05 0.002,-0.101 0.005,-0.151l-0,-1.15c-0.003,-0.05 -0.005,-0.101 -0.005,-0.151c0,-1.257 1.034,-2.29 2.29,-2.29c1.256,-0 2.29,1.033 2.29,2.29c0,0.05 -0.002,0.101 -0.005,0.151l0,-0.05Z" style="fill:#ffffc5;fill-rule:nonzero;"/><path d="M77.12,229.15c-0.007,0 -0.013,0 -0.02,0c-1.256,0 -2.29,-1.034 -2.29,-2.29c0,-1.256 1.034,-2.29 2.29,-2.29c1.252,0 2.284,1.028 2.29,2.28c-0.01,1.246 -1.024,2.273 -2.27,2.3Z" style="fill:#ffffc5;fill-rule:nonzero;"/><path d="M170.12,181.63c-0.007,0 -0.013,0 -0.02,0c-1.256,0 -2.29,-1.034 -2.29,-2.29c0,-1.256 1.034,-2.29 2.29,-2.29c1.249,0 2.279,1.021 2.29,2.27c0,1.252 -1.018,2.288 -2.27,2.31Z" style="fill:#ffffc5;fill-rule:nonzero;"/><path d="M506.47,355.61c-0.01,0 -0.02,0 -0.03,0c-2.32,0 -4.23,-1.909 -4.23,-4.23c0,-2.32 1.91,-4.23 4.23,-4.23c2.309,0 4.214,1.891 4.23,4.2c-0.005,2.312 -1.888,4.222 -4.2,4.26Z" style="fill:#ffffc5;fill-rule:nonzero;"/><path d="M390.41,177.73c-0.143,0.17 -0.218,0.388 -0.21,0.61c0.024,0.395 0.001,0.791 -0.07,1.18l-0.05,0.13l-0.08,0c-1.25,0.05 -1.24,2 -0,1.94c0.839,0.007 1.596,-0.514 1.89,-1.3c0.095,-0.244 0.156,-0.5 0.18,-0.76c-0.56,-0.53 -1.07,-1.16 -1.66,-1.8Zm-0.33,1.94c0,0 0.07,0 0.01,0l-0.01,0Z" style="fill:#ffffc5;fill-rule:nonzero;"/><path d="M318.8,187.37c-0.443,-0.111 -0.757,-0.513 -0.757,-0.97c0,-0.457 0.314,-0.859 0.757,-0.97c0.443,0.111 0.757,0.513 0.757,0.97c-0,0.457 -0.314,0.859 -0.757,0.97Z" style="fill:#ffffc5;fill-rule:nonzero;"/><path d="M170.64,252.68c-0.443,-0.111 -0.757,-0.513 -0.757,-0.97c0,-0.457 0.314,-0.859 0.757,-0.97c0.443,0.111 0.757,0.513 0.757,0.97c-0,0.457 -0.314,0.859 -0.757,0.97Z" style="fill:#ffffc5;fill-rule:nonzero;"/><path d="M197.19,211.09l0,-1.16c-0.02,-0.079 -0.03,-0.161 -0.03,-0.243c0,-0.549 0.451,-1 1,-1c0.549,-0 1,0.451 1,1c0,0.082 -0.01,0.164 -0.03,0.243l0,1.15c0,0.549 -0.451,1 -1,1c-0.549,0 -1,-0.451 -1,-1l0.06,0.01Z" style="fill:#ffffc5;fill-rule:nonzero;"/><path d="M139.46,231.3c-0.443,-0.111 -0.757,-0.513 -0.757,-0.97c0,-0.457 0.314,-0.859 0.757,-0.97c0.443,0.111 0.757,0.513 0.757,0.97c-0,0.457 -0.314,0.859 -0.757,0.97Z" style="fill:#ffffc5;fill-rule:nonzero;"/><path d="M96.74,222.06c-0.443,-0.111 -0.757,-0.513 -0.757,-0.97c0,-0.457 0.314,-0.859 0.757,-0.97c0.443,0.111 0.757,0.513 0.757,0.97c-0,0.457 -0.314,0.859 -0.757,0.97Z" style="fill:#ffffc5;fill-rule:nonzero;"/><path d="M122,251.13c0.085,0.601 -0.07,1.212 -0.43,1.7c-0.48,0.37 -1.092,0.526 -1.69,0.43c-0.079,0.02 -0.161,0.03 -0.243,0.03c-0.549,0 -1,-0.451 -1,-1c-0,-0.549 0.451,-1 1,-1c0.082,0 0.164,0.01 0.243,0.03l0.61,0c0.21,0 -0.26,0.07 0,0c0.26,-0.07 -0.25,0.12 -0.14,0.06c0.11,-0.06 -0.21,0.18 -0.12,0.09c0.09,-0.09 -0.16,0.24 -0.1,0.13c0.06,-0.11 -0.1,0.28 -0.06,0.14c0.005,-0.03 0.005,-0.06 0,-0.09c0,-0.15 0,0.29 0,0.12l0,-0.61c-0.02,-0.079 -0.03,-0.161 -0.03,-0.243c0,-0.549 0.451,-1 1,-1c0.549,-0 1,0.451 1,1c0,0.082 -0.01,0.164 -0.03,0.243l-0.01,-0.03Z" style="fill:#ffffc5;fill-rule:nonzero;"/><path d="M80.64,282.84c-0.443,-0.111 -0.757,-0.513 -0.757,-0.97c0,-0.457 0.314,-0.859 0.757,-0.97c0.443,0.111 0.757,0.513 0.757,0.97c-0,0.457 -0.314,0.859 -0.757,0.97Z" style="fill:#ffffc5;fill-rule:nonzero;"/><path d="M350.87,337l1.13,1.2c0.089,0.153 0.136,0.327 0.136,0.503c-0,0.549 -0.451,1 -1,1c-0.182,0 -0.36,-0.049 -0.516,-0.143l-1.15,-1.15c-0.295,-0.182 -0.475,-0.505 -0.475,-0.851c0,-0.549 0.452,-1 1,-1c0.349,0 0.674,0.183 0.855,0.481l0.02,-0.04Z" style="fill:#ffffc5;fill-rule:nonzero;"/><path d="M157.3,334.2c-0.24,0.362 -0.369,0.786 -0.37,1.22c-0.006,1.254 1.016,2.294 2.27,2.31c1.109,-0.01 2.065,-0.81 2.27,-1.9c-1.41,-0.48 -2.8,-1.02 -4.17,-1.63Z" style="fill:#ffffc5;fill-rule:nonzero;"/><path d="M108.31,334.68c0.007,0 0.013,0 0.02,0c1.256,0 2.29,-1.034 2.29,-2.29c-0,-1.256 -1.034,-2.29 -2.29,-2.29c-1.249,0 -2.279,1.021 -2.29,2.27c-0,1.252 1.018,2.288 2.27,2.31Z" style="fill:#ffffc5;fill-rule:nonzero;"/><path d="M106.17,364.33l0,1.16c-0.003,0.05 -0.005,0.101 -0.005,0.151c0,1.257 1.034,2.29 2.29,2.29c1.256,0 2.29,-1.033 2.29,-2.29c0,-0.05 -0.002,-0.101 -0.005,-0.151l-0,-1.16c0.003,-0.05 0.005,-0.101 0.005,-0.151c0,-1.257 -1.034,-2.29 -2.29,-2.29c-1.256,-0 -2.29,1.033 -2.29,2.29c0,0.05 0.002,0.101 0.005,0.151Z" style="fill:#ffffc5;fill-rule:nonzero;"/><path d="M448,370.11l0,1.16c-0.003,0.05 -0.005,0.101 -0.005,0.151c-0,1.257 1.034,2.29 2.29,2.29c1.256,0 2.29,-1.033 2.29,-2.29c-0,-0.05 -0.002,-0.101 -0.005,-0.151l-0,-1.15c0.003,-0.05 0.005,-0.101 0.005,-0.151c-0,-1.257 -1.034,-2.29 -2.29,-2.29c-1.256,-0 -2.29,1.033 -2.29,2.29c-0,0.05 0.002,0.101 0.005,0.151l0,-0.01Z" style="fill:#ffffc5;fill-rule:nonzero;"/><path d="M423.66,350.46c0.007,0 0.013,0 0.02,0c1.256,0 2.29,-1.034 2.29,-2.29c-0,-1.256 -1.034,-2.29 -2.29,-2.29c-1.252,0 -2.284,1.028 -2.29,2.28c0.005,1.248 1.022,2.278 2.27,2.3Z" style="fill:#ffffc5;fill-rule:nonzero;"/><path d="M269.84,358.48c0.007,0 0.013,0 0.02,0c1.256,0 2.29,-1.034 2.29,-2.29c-0,-1.256 -1.034,-2.29 -2.29,-2.29c-1.249,0 -2.279,1.021 -2.29,2.27c0.005,1.25 1.02,2.283 2.27,2.31Z" style="fill:#ffffc5;fill-rule:nonzero;"/><path d="M180.85,399.78l0,1.16c-0.004,0.078 -0.006,0.156 -0.006,0.233c-0,2.321 1.909,4.23 4.23,4.23c2.32,0 4.23,-1.909 4.23,-4.23c-0,-0.057 -0.002,-0.115 -0.004,-0.173l0,-1.16c0.004,-0.078 0.006,-0.156 0.006,-0.233c0,-2.321 -1.909,-4.23 -4.23,-4.23c-2.32,-0 -4.23,1.909 -4.23,4.23c0,0.057 0.002,0.115 0.004,0.173Z" style="fill:#ffffc5;fill-rule:nonzero;"/><path d="M405.17,384.76c0.01,0 0.02,0 0.03,0c2.32,0 4.23,-1.909 4.23,-4.23c-0,-2.32 -1.91,-4.23 -4.23,-4.23c-2.309,0 -4.214,1.891 -4.23,4.2c0.01,2.31 1.89,4.217 4.2,4.26Z" style="fill:#ffffc5;fill-rule:nonzero;"/><path d="M104.92,413.74c0.01,0 0.02,0 0.03,0c2.32,0 4.23,-1.909 4.23,-4.23c-0,-2.32 -1.91,-4.23 -4.23,-4.23c-2.309,0 -4.214,1.891 -4.23,4.2c0.005,2.312 1.888,4.222 4.2,4.26Z" style="fill:#ffffc5;fill-rule:nonzero;"/><path d="M150,387.07c0.013,0 0.027,0 0.04,0c2.32,0 4.23,-1.909 4.23,-4.23c-0,-2.32 -1.91,-4.23 -4.23,-4.23c-2.309,0 -4.214,1.891 -4.23,4.2c0.01,2.307 1.884,4.212 4.19,4.26Z" style="fill:#ffffc5;fill-rule:nonzero;"/><path d="M56.15,379.64l0,1.16c-0.003,0.053 -0.005,0.107 -0.005,0.16c0,1.41 1.16,2.57 2.57,2.57c1.41,0 2.57,-1.16 2.57,-2.57c0,-0.053 -0.002,-0.107 -0.005,-0.16l0,-1.15c0.003,-0.053 0.005,-0.107 0.005,-0.16c0,-1.41 -1.16,-2.57 -2.57,-2.57c-1.41,-0 -2.57,1.16 -2.57,2.57c0,0.053 0.002,0.107 0.005,0.16l0,-0.01Z" style="fill:#ffffc5;fill-rule:nonzero;"/><path d="M79.19,405.33c0.647,0 1.18,-0.533 1.18,-1.18c0,-0.647 -0.533,-1.18 -1.18,-1.18c-0.647,0 -1.18,0.533 -1.18,1.18c0,0.647 0.533,1.18 1.18,1.18Z" style="fill:#ffffc5;fill-rule:nonzero;"/><path d="M69.19,396.52l1.15,0c0.079,0.02 0.161,0.03 0.243,0.03c0.549,0 1,-0.451 1,-1c0,-0.549 -0.451,-1 -1,-1c-0.082,0 -0.164,0.01 -0.243,0.03l-1.14,0c-0.443,0.111 -0.757,0.513 -0.757,0.97c0,0.457 0.314,0.859 0.757,0.97l-0.01,0Z" style="fill:#ffffc5;fill-rule:nonzero;"/><path d="M108.64,299.63c-0.051,0.675 0.027,1.354 0.23,2c0.294,0.786 1.051,1.307 1.89,1.3c1.25,0.05 1.26,-1.89 0,-1.94c-0.13,0 -0.16,0 -0.09,0c0.07,0 -0.11,-0.1 0,0c0.11,0.1 0.06,0.07 0,0c0.09,0.16 0,-0.1 0,-0.13c-0.071,-0.389 -0.094,-0.785 -0.07,-1.18c-0.111,-0.443 -0.513,-0.757 -0.97,-0.757c-0.457,0 -0.859,0.314 -0.97,0.757l-0.02,-0.05Z" style="fill:#ffffc5;fill-rule:nonzero;"/><path d="M129.23,364.17c0.443,-0.111 0.757,-0.513 0.757,-0.97c-0,-0.457 -0.314,-0.859 -0.757,-0.97c-0.443,0.111 -0.757,0.513 -0.757,0.97c0,0.457 0.314,0.859 0.757,0.97Z" style="fill:#ffffc5;fill-rule:nonzero;"/><path d="M202.84,359.43l1.16,1.16c0.181,0.3 0.506,0.484 0.857,0.484c0.548,0 1,-0.451 1,-1c-0,-0.355 -0.19,-0.685 -0.497,-0.864l-1.15,-1.16c-0.182,-0.295 -0.505,-0.475 -0.851,-0.475c-0.549,0 -1,0.452 -1,1c0,0.349 0.183,0.674 0.481,0.855Z" style="fill:#ffffc5;fill-rule:nonzero;"/><path d="M330.14,374c0.443,-0.111 0.757,-0.513 0.757,-0.97c-0,-0.457 -0.314,-0.859 -0.757,-0.97c-0.443,0.111 -0.757,0.513 -0.757,0.97c0,0.457 0.314,0.859 0.757,0.97Z" style="fill:#ffffc5;fill-rule:nonzero;"/><path d="M303.59,332.4l-0,-1.16c0.02,-0.079 0.03,-0.161 0.03,-0.243c0,-0.549 -0.451,-1 -1,-1c-0.549,-0 -1,0.451 -1,1c0,0.082 0.01,0.164 0.03,0.243l0,1.15c-0.02,0.079 -0.03,0.161 -0.03,0.243c0,0.549 0.451,1 1,1c0.549,0 1,-0.451 1,-1c0,-0.082 -0.01,-0.164 -0.03,-0.243l-0,0.01Z" style="fill:#ffffc5;fill-rule:nonzero;"/><path d="M361.32,352.61c0.443,-0.111 0.757,-0.513 0.757,-0.97c-0,-0.457 -0.314,-0.859 -0.757,-0.97c-0.443,0.111 -0.757,0.513 -0.757,0.97c0,0.457 0.314,0.859 0.757,0.97Z" style="fill:#ffffc5;fill-rule:nonzero;"/><path d="M378.83,372.43c-0.086,0.604 0.068,1.219 0.43,1.71c0.479,0.371 1.092,0.527 1.69,0.43c0.443,-0.111 0.757,-0.513 0.757,-0.97c-0,-0.457 -0.314,-0.859 -0.757,-0.97l-0.61,0c-0.2,0 0.26,0.07 0,0c-0.26,-0.07 0.25,0.12 0.13,0.06c-0.12,-0.06 0.22,0.18 0.13,0.09c-0.09,-0.09 0.16,0.24 0.09,0.13c-0.07,-0.11 0.11,0.28 0.07,0.14c-0.005,-0.03 -0.005,-0.06 0,-0.09c0,-0.15 0,0.29 0,0.12l0,-0.61c-0.111,-0.443 -0.513,-0.757 -0.97,-0.757c-0.457,0 -0.859,0.314 -0.97,0.757l0.01,-0.04Z" style="fill:#ffffc5;fill-rule:nonzero;"/><path d="M479.57,380.07l1.16,1.15c0.181,0.3 0.506,0.484 0.857,0.484c0.548,0 1,-0.451 1,-1c-0,-0.355 -0.19,-0.685 -0.497,-0.864l-1.15,-1.15c-0.182,-0.295 -0.505,-0.475 -0.851,-0.475c-0.549,0 -1,0.452 -1,1c0,0.349 0.183,0.674 0.481,0.855Z" style="fill:#ffffc5;fill-rule:nonzero;"/><path d="M473.22,337.28c0.443,-0.111 0.757,-0.513 0.757,-0.97c-0,-0.457 -0.314,-0.859 -0.757,-0.97c-0.443,0.111 -0.757,0.513 -0.757,0.97c0,0.457 0.314,0.859 0.757,0.97Z" style="fill:#ffffc5;fill-rule:nonzero;"/><path d="M420.13,404.15c0.443,-0.111 0.757,-0.513 0.757,-0.97c-0,-0.457 -0.314,-0.859 -0.757,-0.97c-0.443,0.111 -0.757,0.513 -0.757,0.97c0,0.457 0.314,0.859 0.757,0.97Z" style="fill:#ffffc5;fill-rule:nonzero;"/><path d="M216.77,411.45c0.443,-0.111 0.757,-0.513 0.757,-0.97c-0,-0.457 -0.314,-0.859 -0.757,-0.97c-0.443,0.111 -0.757,0.513 -0.757,0.97c0,0.457 0.314,0.859 0.757,0.97Z" style="fill:#ffffc5;fill-rule:nonzero;"/><path d="M235.66,378.24c0.443,-0.111 0.757,-0.513 0.757,-0.97c-0,-0.457 -0.314,-0.859 -0.757,-0.97c-0.443,0.111 -0.757,0.513 -0.757,0.97c0,0.457 0.314,0.859 0.757,0.97Z" style="fill:#ffffc5;fill-rule:nonzero;"/><path d="M130.39,437c0.443,-0.111 0.757,-0.513 0.757,-0.97c-0,-0.457 -0.314,-0.859 -0.757,-0.97c-0.443,0.111 -0.757,0.513 -0.757,0.97c0,0.457 0.314,0.859 0.757,0.97Z" style="fill:#ffffc5;fill-rule:nonzero;"/><path d="M81.89,447.37c0.443,-0.111 0.757,-0.513 0.757,-0.97c-0,-0.457 -0.314,-0.859 -0.757,-0.97c-0.443,0.111 -0.757,0.513 -0.757,0.97c0,0.457 0.314,0.859 0.757,0.97Z" style="fill:#ffffc5;fill-rule:nonzero;"/><path d="M149.91,458.35l-1.15,1.16c-0.309,0.179 -0.499,0.509 -0.499,0.866c-0,0.548 0.451,1 1,1c0.359,-0 0.691,-0.194 0.869,-0.506l1.16,-1.15c0.295,-0.182 0.475,-0.505 0.475,-0.851c-0,-0.549 -0.452,-1 -1,-1c-0.349,0 -0.674,0.183 -0.855,0.481Z" style="fill:#ffffc5;fill-rule:nonzero;"/><path d="M498.39,427.31l0,1.16c-0,1.256 -1.034,2.29 -2.29,2.29c-1.256,-0 -2.29,-1.034 -2.29,-2.29l0,-1.16c0,-1.256 1.034,-2.29 2.29,-2.29c1.256,-0 2.29,1.034 2.29,2.29Z" style="fill:#ffffc5;fill-rule:nonzero;"/><path d="M323.16,514.83l-1.16,0c-1.256,-0 -2.29,-1.034 -2.29,-2.29c0,-1.256 1.034,-2.29 2.29,-2.29l1.16,0c1.256,0 2.29,1.034 2.29,2.29c-0,1.256 -1.034,2.29 -2.29,2.29Z" style="fill:#ffffc5;fill-rule:nonzero;"/><path d="M289.46,391.16l0,1.16c-0,1.256 -1.034,2.29 -2.29,2.29c-1.256,-0 -2.29,-1.034 -2.29,-2.29l0,-1.12c0,-1.256 1.034,-2.29 2.29,-2.29c1.256,0 2.29,1.034 2.29,2.29l0,-0.04Z" style="fill:#ffffc5;fill-rule:nonzero;"/><path d="M254.88,388.86l0,0.51c0,1.256 -1.034,2.29 -2.29,2.29c-1.256,0 -2.29,-1.034 -2.29,-2.29l-0,-0.51c-0,-1.256 1.034,-2.29 2.29,-2.29c1.256,0 2.29,1.034 2.29,2.29l0,0.51c0,1.256 -1.034,2.29 -2.29,2.29c-1.256,0 -2.29,-1.034 -2.29,-2.29l-0,-0.51c-0,-1.256 1.034,-2.29 2.29,-2.29c1.256,0 2.29,1.034 2.29,2.29Z" style="fill:#ffffc5;fill-rule:nonzero;"/><path d="M373.48,464.53c-0.007,0 -0.013,0 -0.02,0c-1.256,0 -2.29,-1.034 -2.29,-2.29c0,-1.256 1.034,-2.29 2.29,-2.29c1.252,0 2.284,1.028 2.29,2.28c-0.01,1.246 -1.024,2.273 -2.27,2.3Z" style="fill:#ffffc5;fill-rule:nonzero;"/><path d="M407,461.54c-0.007,0 -0.013,0 -0.02,0c-1.256,0 -2.29,-1.034 -2.29,-2.29c0,-1.256 1.034,-2.29 2.29,-2.29c1.249,0 2.279,1.021 2.29,2.27c0.006,1.254 -1.016,2.294 -2.27,2.31Z" style="fill:#ffffc5;fill-rule:nonzero;"/><path d="M409.11,491.19l0,1.16c0,1.256 -1.034,2.29 -2.29,2.29c-1.256,0 -2.29,-1.034 -2.29,-2.29l0,-1.16c0,-1.256 1.034,-2.29 2.29,-2.29c1.256,0 2.29,1.034 2.29,2.29Z" style="fill:#ffffc5;fill-rule:nonzero;"/><path d="M270.68,460.94l0,1.16c0.003,0.05 0.005,0.101 0.005,0.151c0,1.257 -1.034,2.29 -2.29,2.29c-1.256,0 -2.29,-1.033 -2.29,-2.29c0,-0.05 0.002,-0.101 0.005,-0.151l0,-1.1c-0.003,-0.05 -0.005,-0.101 -0.005,-0.151c0,-1.257 1.034,-2.29 2.29,-2.29c1.256,-0 2.29,1.033 2.29,2.29c0,0.05 -0.002,0.101 -0.005,0.151l0,-0.06Z" style="fill:#ffffc5;fill-rule:nonzero;"/><path d="M134,465.79l-1.16,0c-1.256,-0 -2.29,-1.034 -2.29,-2.29c0,-1.256 1.034,-2.29 2.29,-2.29l1.15,0c1.256,0 2.29,1.034 2.29,2.29c-0,1.256 -1.034,2.29 -2.29,2.29l0.01,0Z" style="fill:#ffffc5;fill-rule:nonzero;"/><path d="M92.28,446.07l0,1.16c0,1.256 -1.034,2.29 -2.29,2.29c-1.256,0 -2.29,-1.034 -2.29,-2.29l0,-1.16c0,-1.256 1.034,-2.29 2.29,-2.29c1.256,-0 2.29,1.034 2.29,2.29Z" style="fill:#ffffc5;fill-rule:nonzero;"/><path d="M67.33,497l0,1.15c0.003,0.05 0.005,0.101 0.005,0.151c0,1.257 -1.034,2.29 -2.29,2.29c-1.256,0 -2.29,-1.033 -2.29,-2.29c0,-0.05 0.002,-0.101 0.005,-0.151l0,-1.15c-0.003,-0.05 -0.005,-0.101 -0.005,-0.151c0,-1.257 1.034,-2.29 2.29,-2.29c1.256,-0 2.29,1.033 2.29,2.29c0,0.05 -0.002,0.101 -0.005,0.151Z" style="fill:#ffffc5;fill-rule:nonzero;"/><path d="M91.62,477.33c-0.007,0 -0.013,0 -0.02,0c-1.256,0 -2.29,-1.034 -2.29,-2.29c0,-1.256 1.034,-2.29 2.29,-2.29c1.241,0 2.268,1.009 2.29,2.25c-0.005,1.25 -1.02,2.283 -2.27,2.31l-0,0.02Z" style="fill:#ffffc5;fill-rule:nonzero;"/><path d="M431.83,420.69l0,1.16c0.004,0.078 0.006,0.156 0.006,0.233c0,2.321 -1.909,4.23 -4.23,4.23c-2.32,0 -4.23,-1.909 -4.23,-4.23c0,-0.057 0.002,-0.115 0.004,-0.173l0,-1.15c-0.004,-0.079 -0.007,-0.158 -0.007,-0.238c0,-2.32 1.91,-4.23 4.23,-4.23c2.321,0 4.23,1.91 4.23,4.23c0,0.056 -0.001,0.112 -0.003,0.168Z" style="fill:#ffffc5;fill-rule:nonzero;"/><path d="M330.28,421c-0.01,0 -0.02,0 -0.03,0c-2.32,0 -4.23,-1.909 -4.23,-4.23c0,-2.32 1.91,-4.23 4.23,-4.23c2.309,0 4.214,1.891 4.23,4.2c-0.01,2.31 -1.89,4.217 -4.2,4.26Z" style="fill:#ffffc5;fill-rule:nonzero;"/><path d="M110.1,511.62c-0.01,0 -0.02,0 -0.03,0c-2.32,0 -4.23,-1.909 -4.23,-4.23c0,-2.32 1.91,-4.23 4.23,-4.23c2.309,0 4.214,1.891 4.23,4.2c0,2.314 -1.886,4.227 -4.2,4.26Z" style="fill:#ffffc5;fill-rule:nonzero;"/><path d="M287.45,483.11c-0.01,0 -0.02,0 -0.03,0c-2.32,0 -4.23,-1.909 -4.23,-4.23c0,-2.32 1.91,-4.23 4.23,-4.23c2.309,0 4.214,1.891 4.23,4.2c-0.005,2.312 -1.888,4.222 -4.2,4.26Z" style="fill:#ffffc5;fill-rule:nonzero;"/><path d="M352.29,395.57c0.052,0.675 -0.026,1.354 -0.23,2c-0.29,0.79 -1.049,1.315 -1.89,1.31c-1.25,0.05 -1.26,-1.9 0,-1.94c0.13,0 0.16,0 0.09,0c-0.07,0 0.11,-0.11 0,0c-0.11,0.11 -0.05,0.08 0,0c-0.09,0.16 0,-0.11 0,-0.14c0.071,-0.389 0.094,-0.785 0.07,-1.18c0.111,-0.443 0.513,-0.757 0.97,-0.757c0.457,0 0.859,0.314 0.97,0.757l0.02,-0.05Z" style="fill:#ffffc5;fill-rule:nonzero;"/><path d="M456.01,450.29l-1.17,1.17c-0.153,0.089 -0.327,0.136 -0.503,0.136c-0.549,-0 -1,-0.451 -1,-1c-0,-0.182 0.049,-0.36 0.143,-0.516l1.15,-1.16c0.384,-0.366 0.996,-0.366 1.38,0c0.36,0.383 0.36,0.987 0,1.37Z" style="fill:#ffffc5;fill-rule:nonzero;"/><path d="M333.3,435.54c-0.443,-0.111 -0.757,-0.513 -0.757,-0.97c0,-0.457 0.314,-0.859 0.757,-0.97c0.443,0.111 0.757,0.513 0.757,0.97c-0,0.457 -0.314,0.859 -0.757,0.97Z" style="fill:#ffffc5;fill-rule:nonzero;"/><path d="M211.68,459.26l0,-1.16c-0.02,-0.079 -0.03,-0.161 -0.03,-0.243c0,-0.549 0.451,-1 1,-1c0.549,-0 1,0.451 1,1c0,0.082 -0.01,0.164 -0.03,0.243l0,1.15c0.02,0.079 0.03,0.161 0.03,0.243c0,0.549 -0.451,1 -1,1c-0.549,0 -1,-0.451 -1,-1c0,-0.082 0.01,-0.164 0.03,-0.243l0,0.01Z" style="fill:#ffffc5;fill-rule:nonzero;"/><path d="M174.51,482.51c-0.443,-0.111 -0.757,-0.513 -0.757,-0.97c0,-0.457 0.314,-0.859 0.757,-0.97c0.443,0.111 0.757,0.513 0.757,0.97c-0,0.457 -0.314,0.859 -0.757,0.97Z" style="fill:#ffffc5;fill-rule:nonzero;"/><path d="M111.24,470.23c-0.443,-0.111 -0.757,-0.513 -0.757,-0.97c0,-0.457 0.314,-0.859 0.757,-0.97c0.443,0.111 0.757,0.513 0.757,0.97c-0,0.457 -0.314,0.859 -0.757,0.97Z" style="fill:#ffffc5;fill-rule:nonzero;"/><path d="M136.45,499.3c0.084,0.604 -0.078,1.217 -0.45,1.7c-0.476,0.369 -1.085,0.525 -1.68,0.43c-0.079,0.02 -0.161,0.03 -0.243,0.03c-0.549,0 -1,-0.451 -1,-1c-0,-0.549 0.451,-1 1,-1c0.082,0 0.164,0.01 0.243,0.03l0.62,0c0.22,0 -0.26,0.06 0,0c0.26,-0.06 -0.26,0.12 -0.14,0.06c0.12,-0.06 -0.21,0.18 -0.12,0.09c0.09,-0.09 -0.17,0.24 -0.1,0.13c0.07,-0.11 -0.1,0.28 -0.06,0.14c0.04,-0.14 0,-0.06 0,-0.08c0,-0.02 0,0.28 0,0.11l0,-0.61c-0.02,-0.079 -0.03,-0.161 -0.03,-0.243c0,-0.549 0.451,-1 1,-1c0.549,-0 1,0.451 1,1c0,0.082 -0.01,0.164 -0.03,0.243l-0.01,-0.03Z" style="fill:#ffffc5;fill-rule:nonzero;"/><path d="M51.2,471.2c-0.443,-0.111 -0.757,-0.513 -0.757,-0.97c0,-0.457 0.314,-0.859 0.757,-0.97c0.443,0.111 0.757,0.513 0.757,0.97c-0,0.457 -0.314,0.859 -0.757,0.97Z" style="fill:#ffffc5;fill-rule:nonzero;"/><path d="M95.14,531c-0.443,-0.111 -0.757,-0.513 -0.757,-0.97c0,-0.457 0.314,-0.859 0.757,-0.97c0.443,0.111 0.757,0.513 0.757,0.97c-0,0.457 -0.314,0.859 -0.757,0.97Z" style="fill:#ffffc5;fill-rule:nonzero;"/><path d="M298.51,538.31c-0.443,-0.111 -0.757,-0.513 -0.757,-0.97c0,-0.457 0.314,-0.859 0.757,-0.97c0.443,0.111 0.757,0.513 0.757,0.97c-0,0.457 -0.314,0.859 -0.757,0.97Z" style="fill:#ffffc5;fill-rule:nonzero;"/><path d="M279.61,505.1c-0.443,-0.111 -0.757,-0.513 -0.757,-0.97c0,-0.457 0.314,-0.859 0.757,-0.97c0.443,0.111 0.757,0.513 0.757,0.97c-0,0.457 -0.314,0.859 -0.757,0.97Z" style="fill:#ffffc5;fill-rule:nonzero;"/><path d="M302.91,444.81c-0.443,-0.111 -0.757,-0.513 -0.757,-0.97c0,-0.457 0.314,-0.859 0.757,-0.97c0.443,0.111 0.757,0.513 0.757,0.97c-0,0.457 -0.314,0.859 -0.757,0.97Z" style="fill:#ffffc5;fill-rule:nonzero;"/><path d="M291.75,595.89l-1.15,0.07c-1.172,0.108 -2.08,1.103 -2.08,2.28c0,1.257 1.034,2.29 2.29,2.29c0.013,0 0.027,0 0.04,0l1.15,-0.07c1.241,-0.022 2.25,-1.048 2.25,-2.29c0,-1.256 -1.034,-2.29 -2.29,-2.29c-0.07,0 -0.14,0.004 -0.21,0.01Z" style="fill:#ffffc5;fill-rule:nonzero;"/><path d="M381.1,416.19c0.124,2.228 1.992,3.994 4.223,3.994c2.321,0 4.23,-1.909 4.23,-4.23c0,-2.32 -1.909,-4.23 -4.23,-4.23c-0.074,0 -0.149,0.002 -0.223,0.006c-2.313,0.144 -4.108,2.145 -4,4.46Z" style="fill:#ffffc5;fill-rule:nonzero;"/><path d="M173.24,801.85c0.124,2.228 1.992,3.994 4.223,3.994c2.321,0 4.23,-1.909 4.23,-4.23c0,-2.32 -1.909,-4.23 -4.23,-4.23c-0.074,0 -0.149,0.002 -0.223,0.006c-2.313,0.144 -4.108,2.145 -4,4.46Z" style="fill:#ffffc5;fill-rule:nonzero;"/><path d="M285.13,563.61l-1.16,0.07c-1.352,0.074 -2.424,1.206 -2.424,2.56c0,1.406 1.158,2.564 2.564,2.564c0.047,-0 0.093,-0.001 0.14,-0.004l1.16,-0.07c1.352,-0.074 2.424,-1.206 2.424,-2.56c-0,-1.406 -1.158,-2.564 -2.564,-2.564c-0.047,0 -0.093,0.001 -0.14,0.004Z" style="fill:#ffffc5;fill-rule:nonzero;"/><path d="M257.36,561l0.07,1.15c0.046,0.514 0.484,0.912 1,0.91c0.514,-0.046 0.912,-0.484 0.91,-1l-0.07,-1.15c0.011,-0.06 0.017,-0.121 0.017,-0.181c-0,-0.549 -0.452,-1 -1,-1c-0.549,-0 -1,0.451 -1,1c-0,0.098 0.014,0.197 0.043,0.291l0.03,-0.02Z" style="fill:#ffffc5;fill-rule:nonzero;"/><path d="M295.27,655.3c0.133,0.412 0.519,0.693 0.952,0.693c0.47,-0 0.881,-0.332 0.978,-0.793c-0.133,-0.412 -0.519,-0.693 -0.952,-0.693c-0.47,0 -0.881,0.332 -0.978,0.793Z" style="fill:#ffffc5;fill-rule:nonzero;"/><path d="M329.63,546.52l-1.08,1.23c-0.289,0.183 -0.464,0.502 -0.464,0.844c0,0.549 0.451,1 1,1c0.395,0 0.754,-0.233 0.914,-0.594l1.08,-1.22c0.074,-0.142 0.112,-0.3 0.112,-0.46c-0,-0.548 -0.451,-1 -1,-1c-0.205,0 -0.404,0.063 -0.572,0.18l0.01,0.02Z" style="fill:#ffffc5;fill-rule:nonzero;"/><path d="M137.7,591.77c0.09,-0.469 0.504,-0.812 0.982,-0.812c0.429,0 0.812,0.276 0.948,0.682c-0.09,0.469 -0.504,0.812 -0.982,0.812c-0.429,-0 -0.812,-0.276 -0.948,-0.682Z" style="fill:#ffffc5;fill-rule:nonzero;"/><path d="M108.93,548.08l-1.15,0.08c-2.301,0.029 -4.178,1.929 -4.178,4.23c0,2.32 1.91,4.23 4.23,4.23c0.137,-0 0.273,-0.007 0.408,-0.02l1.15,-0.07c2.231,-0.121 4.001,-1.99 4.001,-4.225c0,-2.321 -1.91,-4.231 -4.231,-4.231c-0.077,-0 -0.153,0.002 -0.23,0.006Z" style="fill:#ffffc5;fill-rule:nonzero;"/><path d="M83,576.36l-1,1.22c-0.268,0.187 -0.428,0.494 -0.428,0.82c-0,0.549 0.451,1 1,1c0.373,0 0.716,-0.209 0.888,-0.54l1.08,-1.22c0.149,-0.18 0.231,-0.406 0.231,-0.64c0,-0.549 -0.452,-1.001 -1.001,-1.001c-0.297,-0 -0.58,0.132 -0.77,0.361Z" style="fill:#ffffc5;fill-rule:nonzero;"/><path d="M494.22,15.16l0,1.16c0.079,1.197 1.086,2.139 2.285,2.139c1.199,-0 2.206,-0.942 2.285,-2.139l-0,-1.13c0.003,-0.05 0.005,-0.101 0.005,-0.151c-0,-1.257 -1.034,-2.29 -2.29,-2.29c-1.256,-0 -2.29,1.033 -2.29,2.29c-0,0.05 0.002,0.101 0.005,0.151l0,-0.03Z" style="fill:#ffffc5;fill-rule:nonzero;"/><path d="M501.8,179.75c0.443,-0.111 0.757,-0.513 0.757,-0.97c-0,-0.457 -0.314,-0.859 -0.757,-0.97c-0.443,0.111 -0.757,0.513 -0.757,0.97c0,0.457 0.314,0.859 0.757,0.97Z" style="fill:#ffffc5;fill-rule:nonzero;"/><path d="M553.1,216.19l0,1.16c-0,1.256 -1.034,2.29 -2.29,2.29c-1.256,0 -2.29,-1.034 -2.29,-2.29l-0,-1.16c-0,-1.256 1.034,-2.29 2.29,-2.29c1.256,-0 2.29,1.034 2.29,2.29Z" style="fill:#ffffc5;fill-rule:nonzero;"/><path d="M569.61,335.16c0.419,0.413 0.982,0.646 1.57,0.65c1.252,0 2.288,-1.018 2.31,-2.27l0,-0.54c0.005,-0.08 0.005,-0.16 0,-0.24c-1.327,0.76 -2.62,1.56 -3.88,2.4Z" style="fill:#ffffc5;fill-rule:nonzero;"/><path d="M458.72,354.2c0.007,0 0.013,0 0.02,0c1.256,0 2.29,-1.034 2.29,-2.29c-0,-1.256 -1.034,-2.29 -2.29,-2.29c-1.252,0 -2.284,1.028 -2.29,2.28c0.01,1.246 1.024,2.273 2.27,2.3Z" style="fill:#ffffc5;fill-rule:nonzero;"/><path d="M544.12,350.55l0,1.16c-0.003,0.05 -0.005,0.101 -0.005,0.151c0,1.257 1.034,2.29 2.29,2.29c1.256,0 2.29,-1.033 2.29,-2.29c0,-0.05 -0.002,-0.101 -0.005,-0.151l0,-1.16c0.003,-0.05 0.005,-0.101 0.005,-0.151c0,-1.257 -1.034,-2.29 -2.29,-2.29c-1.256,-0 -2.29,1.033 -2.29,2.29c0,0.05 0.002,0.101 0.005,0.151Z" style="fill:#ffffc5;fill-rule:nonzero;"/><path d="M449.52,403.55c0.01,0 0.02,0 0.03,0c2.32,0 4.23,-1.909 4.23,-4.23c-0,-2.32 -1.91,-4.23 -4.23,-4.23c-2.309,0 -4.214,1.891 -4.23,4.2c0.005,2.312 1.888,4.222 4.2,4.26Z" style="fill:#ffffc5;fill-rule:nonzero;"/><path d="M516.29,427.92c0.443,-0.111 0.757,-0.513 0.757,-0.97c-0,-0.457 -0.314,-0.859 -0.757,-0.97c-0.443,0.111 -0.757,0.513 -0.757,0.97c0,0.457 0.314,0.859 0.757,0.97Z" style="fill:#ffffc5;fill-rule:nonzero;"/><path d="M535.19,394.72c0.443,-0.111 0.757,-0.513 0.757,-0.97c-0,-0.457 -0.314,-0.859 -0.757,-0.97c-0.443,0.111 -0.757,0.513 -0.757,0.97c0,0.457 0.314,0.859 0.757,0.97Z" style="fill:#ffffc5;fill-rule:nonzero;"/><path d="M511.89,334.42c0.443,-0.111 0.757,-0.513 0.757,-0.97c-0,-0.457 -0.314,-0.859 -0.757,-0.97c-0.443,0.111 -0.757,0.513 -0.757,0.97c0,0.457 0.314,0.859 0.757,0.97Z" style="fill:#ffffc5;fill-rule:nonzero;"/><path d="M618.91,459.67l0,1.15c0.003,0.05 0.005,0.101 0.005,0.151c0,1.257 -1.034,2.29 -2.29,2.29c-1.256,0 -2.29,-1.033 -2.29,-2.29c0,-0.05 0.002,-0.101 0.005,-0.151l-0,-1.12c-0.003,-0.05 -0.005,-0.101 -0.005,-0.151c0,-1.257 1.034,-2.29 2.29,-2.29c1.256,-0 2.29,1.033 2.29,2.29c0,0.05 -0.002,0.101 -0.005,0.151l0,-0.03Z" style="fill:#ffffc5;fill-rule:nonzero;"/><path d="M484.67,493.8c-0.007,0 -0.013,0 -0.02,0c-1.256,0 -2.29,-1.034 -2.29,-2.29c0,-1.256 1.034,-2.29 2.29,-2.29c1.249,0 2.279,1.021 2.29,2.27c-0.005,1.25 -1.02,2.283 -2.27,2.31Z" style="fill:#ffffc5;fill-rule:nonzero;"/><path d="M484.66,517.33c-0.443,-0.111 -0.757,-0.513 -0.757,-0.97c0,-0.457 0.314,-0.859 0.757,-0.97c0.443,0.111 0.757,0.513 0.757,0.97c-0,0.457 -0.314,0.859 -0.757,0.97Z" style="fill:#ffffc5;fill-rule:nonzero;"/><path d="M511.21,475.74l-0,-1.16c0.111,-0.443 0.513,-0.757 0.97,-0.757c0.457,0 0.859,0.314 0.97,0.757l-0,1.16c0.02,0.079 0.03,0.161 0.03,0.243c-0,0.549 -0.451,1 -1,1c-0.549,0 -1,-0.451 -1,-1c-0,-0.082 0.01,-0.164 0.03,-0.243Z" style="fill:#ffffc5;fill-rule:nonzero;"/><path d="M725.24,553.84c0.007,0 0.013,0 0.02,0c1.256,0 2.29,-1.034 2.29,-2.29c-0,-1.256 -1.034,-2.29 -2.29,-2.29c-1.252,0 -2.284,1.028 -2.29,2.28c0.01,1.246 1.024,2.273 2.27,2.3Z" style="fill:#ffffc5;fill-rule:nonzero;"/><path d="M649.06,760.15l-0,1.16c-0.003,0.05 -0.005,0.101 -0.005,0.151c0,1.257 1.034,2.29 2.29,2.29c1.256,0 2.29,-1.033 2.29,-2.29c0,-0.05 -0.002,-0.101 -0.005,-0.151l0,-1.16c0.003,-0.05 0.005,-0.101 0.005,-0.151c0,-1.257 -1.034,-2.29 -2.29,-2.29c-1.256,-0 -2.29,1.033 -2.29,2.29c0,0.05 0.002,0.101 0.005,0.151Z" style="fill:#ffffc5;fill-rule:nonzero;"/><path d="M691.88,560c0.01,0 0.02,0 0.03,0c2.32,0 4.23,-1.909 4.23,-4.23c-0,-2.32 -1.91,-4.23 -4.23,-4.23c-2.309,0 -4.214,1.891 -4.23,4.2c-0,2.314 1.886,4.227 4.2,4.26Z" style="fill:#ffffc5;fill-rule:nonzero;"/><path d="M379,811.14c0.01,0 0.02,0 0.03,0c2.32,0 4.23,-1.909 4.23,-4.23c-0,-2.32 -1.91,-4.23 -4.23,-4.23c-2.309,0 -4.214,1.891 -4.23,4.2c0.005,2.312 1.888,4.222 4.2,4.26Z" style="fill:#ffffc5;fill-rule:nonzero;"/><path d="M690.5,588.12l0,1.16c-0.003,0.053 -0.005,0.107 -0.005,0.16c0,1.41 1.16,2.57 2.57,2.57c1.41,0 2.57,-1.16 2.57,-2.57c0,-0.053 -0.002,-0.107 -0.005,-0.16l-0,-1.15c0.003,-0.053 0.005,-0.107 0.005,-0.16c0,-1.41 -1.16,-2.57 -2.57,-2.57c-1.41,-0 -2.57,1.16 -2.57,2.57c0,0.053 0.002,0.107 0.005,0.16l0,-0.01Z" style="fill:#ffffc5;fill-rule:nonzero;"/><path d="M696.13,624.49c0.647,0 1.18,-0.533 1.18,-1.18c0,-0.647 -0.533,-1.18 -1.18,-1.18c-0.647,-0 -1.18,0.533 -1.18,1.18c-0,0.647 0.533,1.18 1.18,1.18Z" style="fill:#ffffc5;fill-rule:nonzero;"/><path d="M686.12,615.69l1.16,0c0.443,-0.111 0.757,-0.513 0.757,-0.97c-0,-0.457 -0.314,-0.859 -0.757,-0.97l-1.16,0c-0.079,-0.02 -0.161,-0.03 -0.243,-0.03c-0.549,0 -1,0.451 -1,1c-0,0.549 0.451,1 1,1c0.082,0 0.164,-0.01 0.243,-0.03Z" style="fill:#ffffc5;fill-rule:nonzero;"/><path d="M746.17,583.33c0.443,-0.111 0.757,-0.513 0.757,-0.97c-0,-0.457 -0.314,-0.859 -0.757,-0.97c-0.443,0.111 -0.757,0.513 -0.757,0.97c0,0.457 0.314,0.859 0.757,0.97Z" style="fill:#ffffc5;fill-rule:nonzero;"/><path d="M747.32,656.13c0.443,-0.111 0.757,-0.513 0.757,-0.97c-0,-0.457 -0.314,-0.859 -0.757,-0.97c-0.443,0.111 -0.757,0.513 -0.757,0.97c0,0.457 0.314,0.859 0.757,0.97Z" style="fill:#ffffc5;fill-rule:nonzero;"/><path d="M698.83,666.53c0.443,-0.111 0.757,-0.513 0.757,-0.97c-0,-0.457 -0.314,-0.859 -0.757,-0.97c-0.443,0.111 -0.757,0.513 -0.757,0.97c0,0.457 0.314,0.859 0.757,0.97Z" style="fill:#ffffc5;fill-rule:nonzero;"/><path d="M766.85,677.51l-1.16,1.16c-0.3,0.181 -0.484,0.506 -0.484,0.857c-0,0.548 0.451,1 1,1c0.355,-0 0.685,-0.19 0.864,-0.497l1.16,-1.15c0.095,-0.156 0.145,-0.336 0.145,-0.519c0,-0.549 -0.451,-1 -1,-1c-0.185,-0 -0.367,0.052 -0.525,0.149Z" style="fill:#ffffc5;fill-rule:nonzero;"/><path d="M750.88,685l-1.15,0c-0.05,0.003 -0.101,0.005 -0.151,0.005c-1.257,-0 -2.29,-1.034 -2.29,-2.29c-0,-1.256 1.033,-2.29 2.29,-2.29c0.05,-0 0.101,0.002 0.151,0.005l1.15,-0c1.197,0.079 2.139,1.086 2.139,2.285c-0,1.199 -0.942,2.206 -2.139,2.285Z" style="fill:#ffffc5;fill-rule:nonzero;"/><path d="M709.21,665.23l0,1.16c0.003,0.05 0.005,0.101 0.005,0.151c-0,1.257 -1.034,2.29 -2.29,2.29c-1.256,0 -2.29,-1.033 -2.29,-2.29c-0,-0.05 0.002,-0.101 0.005,-0.151l-0,-1.16c-0.003,-0.05 -0.005,-0.101 -0.005,-0.151c-0,-1.257 1.034,-2.29 2.29,-2.29c1.256,-0 2.29,1.033 2.29,2.29c-0,0.05 -0.002,0.101 -0.005,0.151Z" style="fill:#ffffc5;fill-rule:nonzero;"/><path d="M684.27,716.13l0,1.16c0,1.256 -1.034,2.29 -2.29,2.29c-1.256,0 -2.29,-1.034 -2.29,-2.29l-0,-1.16c0,-1.256 1.034,-2.29 2.29,-2.29c1.256,-0 2.29,1.034 2.29,2.29Z" style="fill:#ffffc5;fill-rule:nonzero;"/><path d="M708.55,696.49c-0.007,0 -0.013,0 -0.02,0c-1.256,0 -2.29,-1.034 -2.29,-2.29c0,-1.256 1.034,-2.29 2.29,-2.29c1.249,0 2.279,1.021 2.29,2.27c0,1.252 -1.018,2.288 -2.27,2.31Z" style="fill:#ffffc5;fill-rule:nonzero;"/><path d="M744.41,807.92c-0.01,0 -0.02,0 -0.03,0c-2.32,0 -4.23,-1.909 -4.23,-4.23c0,-2.32 1.91,-4.23 4.23,-4.23c2.309,0 4.214,1.891 4.23,4.2c-0.01,2.31 -1.89,4.217 -4.2,4.26Z" style="fill:#ffffc5;fill-rule:nonzero;"/><path d="M728.17,689.39c-0.443,-0.111 -0.757,-0.513 -0.757,-0.97c0,-0.457 0.314,-0.859 0.757,-0.97c0.443,0.111 0.757,0.513 0.757,0.97c-0,0.457 -0.314,0.859 -0.757,0.97Z" style="fill:#ffffc5;fill-rule:nonzero;"/><path d="M753.38,718.46c0.084,0.604 -0.07,1.218 -0.43,1.71c-0.479,0.363 -1.086,0.514 -1.68,0.42c-0.443,-0.111 -0.757,-0.513 -0.757,-0.97c0,-0.457 0.314,-0.859 0.757,-0.97l0.61,0c0.23,0 -0.26,0.06 0,0c0.26,-0.06 -0.25,0.12 -0.13,0.06c0.12,-0.06 -0.22,0.18 -0.12,0.1c0.1,-0.08 -0.17,0.24 -0.1,0.12c0.07,-0.12 -0.11,0.28 -0.06,0.15c0.05,-0.13 0,-0.06 0,-0.09c0,-0.03 0,0.28 0,0.12l0,-0.62c0.111,-0.443 0.513,-0.757 0.97,-0.757c0.457,0 0.859,0.314 0.97,0.757l-0.03,-0.03Z" style="fill:#ffffc5;fill-rule:nonzero;"/><path d="M652.64,726.09l-1.15,1.16c-0.184,0.285 -0.501,0.458 -0.841,0.458c-0.548,0 -1,-0.451 -1,-1c0,-0.344 0.179,-0.666 0.471,-0.848l1.16,-1.15c0.153,-0.089 0.327,-0.136 0.503,-0.136c0.549,0 1,0.451 1,1c0,0.182 -0.049,0.36 -0.143,0.516Z" style="fill:#ffffc5;fill-rule:nonzero;"/><path d="M668.14,690.36c-0.443,-0.111 -0.757,-0.513 -0.757,-0.97c0,-0.457 0.314,-0.859 0.757,-0.97c0.443,0.111 0.757,0.513 0.757,0.97c-0,0.457 -0.314,0.859 -0.757,0.97Z" style="fill:#ffffc5;fill-rule:nonzero;"/><path d="M712.08,750.17c-0.443,-0.111 -0.757,-0.513 -0.757,-0.97c0,-0.457 0.314,-0.859 0.757,-0.97c0.443,0.111 0.757,0.513 0.757,0.97c-0,0.457 -0.314,0.859 -0.757,0.97Z" style="fill:#ffffc5;fill-rule:nonzero;"/><path d="M744.79,53.77l0,-0.05l0.06,0c-0.013,0.023 -0.035,0.041 -0.06,0.05Z" style="fill:#ffffc5;fill-rule:nonzero;"/><path d="M658.38,65.67l1.15,0c1.256,-0 2.29,-1.034 2.29,-2.29c-0,-1.256 -1.034,-2.29 -2.29,-2.29l-1.15,0c-1.256,0 -2.29,1.034 -2.29,2.29c0,1.256 1.034,2.29 2.29,2.29Z" style="fill:#ffffc5;fill-rule:nonzero;"/><path d="M700.05,46l-0,1.16c0.079,1.197 1.086,2.139 2.285,2.139c1.199,-0 2.206,-0.942 2.285,-2.139l0,-1.16c-0.079,-1.197 -1.086,-2.139 -2.285,-2.139c-1.199,0 -2.206,0.942 -2.285,2.139Z" style="fill:#ffffc5;fill-rule:nonzero;"/><path d="M725,96.85l0,1.15c0,1.256 1.034,2.29 2.29,2.29c1.256,0 2.29,-1.034 2.29,-2.29l0,-1.12c0,-1.256 -1.034,-2.29 -2.29,-2.29c-1.256,-0 -2.29,1.034 -2.29,2.29l0,-0.03Z" style="fill:#ffffc5;fill-rule:nonzero;"/><path d="M700.71,77.2c0.007,0 0.013,0 0.02,0c1.256,0 2.29,-1.034 2.29,-2.29c-0,-1.256 -1.034,-2.29 -2.29,-2.29c-1.249,0 -2.279,1.021 -2.29,2.27c-0,1.252 1.018,2.288 2.27,2.31Z" style="fill:#ffffc5;fill-rule:nonzero;"/><path d="M682.22,111.5c0.01,0 0.02,0 0.03,0c2.32,0 4.23,-1.909 4.23,-4.23c-0,-2.32 -1.91,-4.23 -4.23,-4.23c-2.309,0 -4.214,1.891 -4.23,4.2c0.005,2.312 1.888,4.222 4.2,4.26Z" style="fill:#ffffc5;fill-rule:nonzero;"/><path d="M638.36,79.35c0.443,-0.111 0.757,-0.513 0.757,-0.97c-0,-0.457 -0.314,-0.859 -0.757,-0.97c-0.443,0.111 -0.757,0.513 -0.757,0.97c0,0.457 0.314,0.859 0.757,0.97Z" style="fill:#ffffc5;fill-rule:nonzero;"/><path d="M655.4,21.19c0.443,-0.111 0.757,-0.513 0.757,-0.97c-0,-0.457 -0.314,-0.859 -0.757,-0.97c-0.443,0.111 -0.757,0.513 -0.757,0.97c0,0.457 0.314,0.859 0.757,0.97Z" style="fill:#ffffc5;fill-rule:nonzero;"/><path d="M655.88,99.17c-0.084,0.604 0.07,1.218 0.43,1.71c0.479,0.363 1.086,0.514 1.68,0.42c0.079,0.02 0.161,0.03 0.243,0.03c0.549,0 1,-0.451 1,-1c0,-0.549 -0.451,-1 -1,-1c-0.082,0 -0.164,0.01 -0.243,0.03l-0.61,0c-0.23,0 0.25,0.06 0,0c-0.25,-0.06 0.25,0.11 0.13,0.05c-0.12,-0.06 0.22,0.19 0.12,0.1c-0.1,-0.09 0.17,0.24 0.1,0.12c-0.07,-0.12 0.11,0.28 0.06,0.15c-0.05,-0.13 0,-0.06 0,-0.09c0,-0.03 0,0.28 0,0.12l0,-0.62c-0.111,-0.443 -0.513,-0.757 -0.97,-0.757c-0.457,0 -0.859,0.314 -0.97,0.757l0.03,-0.02Z" style="fill:#ffffc5;fill-rule:nonzero;"/><path d="M310,30.82l1.15,1.18c0.182,0.295 0.505,0.475 0.851,0.475c0.549,-0 1,-0.452 1,-1c-0,-0.349 -0.183,-0.674 -0.481,-0.855l-1.16,-1.15c-0.383,-0.36 -0.987,-0.36 -1.37,0c-0.366,0.384 -0.366,0.996 0,1.38l0.01,-0.03Z" style="fill:#ffffc5;fill-rule:nonzero;"/><path d="M741.12,71.07c0.443,-0.111 0.757,-0.513 0.757,-0.97c-0,-0.457 -0.314,-0.859 -0.757,-0.97c-0.443,0.111 -0.757,0.513 -0.757,0.97c0,0.457 0.314,0.859 0.757,0.97Z" style="fill:#ffffc5;fill-rule:nonzero;"/><path d="M697.18,130.88c0.443,-0.111 0.757,-0.513 0.757,-0.97c-0,-0.457 -0.314,-0.859 -0.757,-0.97c-0.443,0.111 -0.757,0.513 -0.757,0.97c0,0.457 0.314,0.859 0.757,0.97Z" style="fill:#ffffc5;fill-rule:nonzero;"/><path d="M598.21,39.39l0,1.16c-0.079,1.197 -1.086,2.139 -2.285,2.139c-1.199,-0 -2.206,-0.942 -2.285,-2.139l-0,-1.13c-0.003,-0.05 -0.005,-0.101 -0.005,-0.151c-0,-1.257 1.034,-2.29 2.29,-2.29c1.256,-0 2.29,1.033 2.29,2.29c-0,0.05 -0.002,0.101 -0.005,0.151l0,-0.03Z" style="fill:#ffffc5;fill-rule:nonzero;"/><path d="M633.37,150.54l-1.15,0c-1.256,0 -2.29,-1.034 -2.29,-2.29c0,-1.256 1.034,-2.29 2.29,-2.29l1.15,-0c1.256,-0 2.29,1.034 2.29,2.29c0,1.256 -1.034,2.29 -2.29,2.29Z" style="fill:#ffffc5;fill-rule:nonzero;"/><path d="M630.51,178.28c-0.007,0 -0.013,0 -0.02,0c-1.256,0 -2.29,-1.034 -2.29,-2.29c0,-1.256 1.034,-2.29 2.29,-2.29c1.249,0 2.279,1.021 2.29,2.27c0,1.252 -1.018,2.288 -2.27,2.31Z" style="fill:#ffffc5;fill-rule:nonzero;"/><path d="M681.4,175.22c-0.007,0 -0.013,0 -0.02,0c-1.256,0 -2.29,-1.034 -2.29,-2.29c0,-1.256 1.034,-2.29 2.29,-2.29c1.252,0 2.284,1.028 2.29,2.28c-0.005,1.248 -1.022,2.278 -2.27,2.3Z" style="fill:#ffffc5;fill-rule:nonzero;"/><path d="M683.54,204.85l0,1.15c0.003,0.05 0.005,0.101 0.005,0.151c-0,1.257 -1.034,2.29 -2.29,2.29c-1.256,0 -2.29,-1.033 -2.29,-2.29c-0,-0.05 0.002,-0.101 0.005,-0.151l-0,-1.15c-0.003,-0.05 -0.005,-0.101 -0.005,-0.151c-0,-1.257 1.034,-2.29 2.29,-2.29c1.256,-0 2.29,1.033 2.29,2.29c-0,0.05 -0.002,0.101 -0.005,0.151Z" style="fill:#ffffc5;fill-rule:nonzero;"/><path d="M706.26,134.38l0,1.15c0.004,0.079 0.007,0.158 0.007,0.238c-0,2.32 -1.91,4.23 -4.23,4.23c-2.321,-0 -4.23,-1.91 -4.23,-4.23c-0,-0.056 0.001,-0.112 0.003,-0.168l0,-1.16c-0.004,-0.078 -0.006,-0.156 -0.006,-0.233c-0,-2.321 1.909,-4.23 4.23,-4.23c2.32,-0 4.23,1.909 4.23,4.23c-0,0.057 -0.002,0.115 -0.004,0.173Z" style="fill:#ffffc5;fill-rule:nonzero;"/><path d="M714.77,181.4c-0.013,0 -0.027,0 -0.04,0c-2.326,0 -4.24,-1.914 -4.24,-4.24c0,-2.326 1.914,-4.24 4.24,-4.24c2.315,0 4.224,1.895 4.24,4.21c-0.005,2.314 -1.886,4.227 -4.2,4.27Z" style="fill:#ffffc5;fill-rule:nonzero;"/><path d="M639.72,227.62c0.432,-0.003 0.86,-0.074 1.27,-0.21c0.68,-0.53 1.37,-1 2.06,-1.5c0.559,-0.732 0.862,-1.629 0.86,-2.55c-0.016,-2.309 -1.921,-4.2 -4.23,-4.2c-2.32,0 -4.23,1.91 -4.23,4.23c0,2.321 1.91,4.23 4.23,4.23c0.013,0 0.027,0 0.04,0Z" style="fill:#ffffc5;fill-rule:nonzero;"/><path d="M716.15,209.5l0,1.16c0.003,0.053 0.005,0.107 0.005,0.16c0,1.41 -1.16,2.57 -2.57,2.57c-1.41,0 -2.57,-1.16 -2.57,-2.57c0,-0.053 0.002,-0.107 0.005,-0.16l0,-1.15c-0.003,-0.053 -0.005,-0.107 -0.005,-0.16c0,-1.41 1.16,-2.57 2.57,-2.57c1.41,-0 2.57,1.16 2.57,2.57c0,0.053 -0.002,0.107 -0.005,0.16l0,-0.01Z" style="fill:#ffffc5;fill-rule:nonzero;"/><path d="M710.52,245.87c-0.604,-0.056 -1.071,-0.569 -1.071,-1.175c-0,-0.606 0.467,-1.119 1.071,-1.175c0.604,0.056 1.071,0.569 1.071,1.175c0,0.606 -0.467,1.119 -1.071,1.175Z" style="fill:#ffffc5;fill-rule:nonzero;"/><path d="M720.52,237.07l-1.16,0c-0.443,-0.111 -0.757,-0.513 -0.757,-0.97c0,-0.457 0.314,-0.859 0.757,-0.97l1.15,0c0.443,0.111 0.757,0.513 0.757,0.97c-0,0.457 -0.314,0.859 -0.757,0.97l0.01,0Z" style="fill:#ffffc5;fill-rule:nonzero;"/><path d="M594.86,19.24c0.052,0.675 -0.026,1.354 -0.23,2c-0.294,0.786 -1.051,1.307 -1.89,1.3c-1.25,0.05 -1.26,-1.89 0,-1.94l0.09,-0c-0.13,-0 0.11,-0.11 0,-0c-0.11,0.11 0,0.07 0,-0c-0.09,0.15 0,-0.11 0,-0.14c0.071,-0.389 0.094,-0.785 0.07,-1.18c0.111,-0.443 0.513,-0.757 0.97,-0.757c0.457,0 0.859,0.314 0.97,0.757l0.02,-0.04Z" style="fill:#ffffc5;fill-rule:nonzero;"/><path d="M660.48,204.71c-0.443,-0.111 -0.757,-0.513 -0.757,-0.97c0,-0.457 0.314,-0.859 0.757,-0.97c0.443,0.111 0.757,0.513 0.757,0.97c-0,0.457 -0.314,0.859 -0.757,0.97Z" style="fill:#ffffc5;fill-rule:nonzero;"/><path d="M730.43,164l-1.15,1.15c-0.182,0.295 -0.505,0.475 -0.851,0.475c-0.549,-0 -1,-0.452 -1,-1c0,-0.349 0.183,-0.674 0.481,-0.855l1.16,-1.15c0.153,-0.089 0.327,-0.136 0.503,-0.136c0.549,0 1,0.451 1,1c0,0.182 -0.049,0.36 -0.143,0.516Z" style="fill:#ffffc5;fill-rule:nonzero;"/><path d="M707.82,287.91c-0.443,-0.111 -0.757,-0.513 -0.757,-0.97c0,-0.457 0.314,-0.859 0.757,-0.97c0.443,0.111 0.757,0.513 0.757,0.97c-0,0.457 -0.314,0.859 -0.757,0.97Z" style="fill:#ffffc5;fill-rule:nonzero;"/><path d="M714.54,294.12l0,1.16c0,1.256 1.034,2.29 2.29,2.29c1.256,0 2.29,-1.034 2.29,-2.29l0,-1.16c0,-1.256 -1.034,-2.29 -2.29,-2.29c-1.256,0 -2.29,1.034 -2.29,2.29Z" style="fill:#ffffc5;fill-rule:nonzero;"/><path d="M739.49,345l0,1.16c-0.003,0.05 -0.005,0.101 -0.005,0.151c0,1.257 1.034,2.29 2.29,2.29c1.256,0 2.29,-1.033 2.29,-2.29c0,-0.05 -0.002,-0.101 -0.005,-0.151l0,-1.16c-0.079,-1.197 -1.086,-2.139 -2.285,-2.139c-1.199,0 -2.206,0.942 -2.285,2.139Z" style="fill:#ffffc5;fill-rule:nonzero;"/><path d="M715.2,325.37c0.007,0 0.013,0 0.02,0c1.256,0 2.29,-1.034 2.29,-2.29c-0,-1.256 -1.034,-2.29 -2.29,-2.29c-1.249,0 -2.279,1.021 -2.29,2.27c0.005,1.25 1.02,2.283 2.27,2.31Z" style="fill:#ffffc5;fill-rule:nonzero;"/><path d="M696.72,359.67c0.01,0 0.02,0 0.03,0c2.32,0 4.23,-1.909 4.23,-4.23c-0,-2.32 -1.91,-4.23 -4.23,-4.23c-2.309,0 -4.214,1.891 -4.23,4.2c0.005,2.312 1.888,4.222 4.2,4.26Z" style="fill:#ffffc5;fill-rule:nonzero;"/><path d="M621.69,348.9c0.453,-0.103 0.778,-0.51 0.778,-0.975c-0,-0.465 -0.325,-0.872 -0.778,-0.975c-0.453,0.103 -0.778,0.51 -0.778,0.975c0,0.465 0.325,0.872 0.778,0.975Z" style="fill:#ffffc5;fill-rule:nonzero;"/><path d="M695.58,318.27c0.443,-0.111 0.757,-0.513 0.757,-0.97c-0,-0.457 -0.314,-0.859 -0.757,-0.97c-0.443,0.111 -0.757,0.513 -0.757,0.97c0,0.457 0.314,0.859 0.757,0.97Z" style="fill:#ffffc5;fill-rule:nonzero;"/><path d="M670.37,347.34c-0.086,0.606 0.073,1.221 0.44,1.71c0.479,0.364 1.086,0.516 1.68,0.42c0.079,0.02 0.161,0.03 0.243,0.03c0.549,0 1,-0.451 1,-1c0,-0.549 -0.451,-1 -1,-1c-0.082,0 -0.164,0.01 -0.243,0.03l-0.61,0c-0.22,0 0.26,0.06 0,0c-0.26,-0.06 0.26,0.11 0.14,0.05c-0.12,-0.06 0.21,0.19 0.12,0.1c-0.09,-0.09 0.17,0.24 0.1,0.12c-0.07,-0.12 0.1,0.28 0.06,0.15c-0.04,-0.13 0,-0.06 0,-0.09c0,-0.03 0,0.28 0,0.12l0,-0.61c-0.111,-0.443 -0.513,-0.757 -0.97,-0.757c-0.457,0 -0.859,0.314 -0.97,0.757l0.01,-0.03Z" style="fill:#ffffc5;fill-rule:nonzero;"/><path d="M755.62,319.25c0.453,-0.103 0.778,-0.51 0.778,-0.975c-0,-0.465 -0.325,-0.872 -0.778,-0.975c-0.453,0.103 -0.778,0.51 -0.778,0.975c0,0.465 0.325,0.872 0.778,0.975Z" style="fill:#ffffc5;fill-rule:nonzero;"/><path d="M711.68,379.06c0.453,-0.103 0.778,-0.51 0.778,-0.975c-0,-0.465 -0.325,-0.872 -0.778,-0.975c-0.453,0.103 -0.778,0.51 -0.778,0.975c0,0.465 0.325,0.872 0.778,0.975Z" style="fill:#ffffc5;fill-rule:nonzero;"/><path d="M654.47,381.74l0,1.16c0,1.256 -1.034,2.29 -2.29,2.29c-1.256,-0 -2.29,-1.034 -2.29,-2.29l-0,-1.16c0,-1.256 1.034,-2.29 2.29,-2.29c1.256,-0 2.29,1.034 2.29,2.29Z" style="fill:#ffffc5;fill-rule:nonzero;"/><path d="M638.59,400.16l-1.15,0c-1.256,-0 -2.29,-1.034 -2.29,-2.29c0,-1.256 1.034,-2.29 2.29,-2.29l1.15,0c1.256,0 2.29,1.034 2.29,2.29c-0,1.256 -1.034,2.29 -2.29,2.29Z" style="fill:#ffffc5;fill-rule:nonzero;"/><path d="M595.37,355.27l0,1.15c0.003,0.05 0.005,0.101 0.005,0.151c0,1.257 -1.034,2.29 -2.29,2.29c-1.256,0 -2.29,-1.033 -2.29,-2.29c0,-0.05 0.002,-0.101 0.005,-0.151l-0,-1.12c-0.003,-0.05 -0.005,-0.101 -0.005,-0.151c0,-1.257 1.034,-2.29 2.29,-2.29c1.256,-0 2.29,1.033 2.29,2.29c0,0.05 -0.002,0.101 -0.005,0.151l0,-0.03Z" style="fill:#ffffc5;fill-rule:nonzero;"/><path d="M576.31,379.14l-0,0.51c-0,1.256 -1.034,2.29 -2.29,2.29c-1.256,0 -2.29,-1.034 -2.29,-2.29l-0,-0.51c-0,-1.256 1.034,-2.29 2.29,-2.29c1.256,0 2.29,1.034 2.29,2.29l-0,0.51c-0,1.256 -1.034,2.29 -2.29,2.29c-1.256,0 -2.29,-1.034 -2.29,-2.29l-0,-0.51c-0,-1.256 1.034,-2.29 2.29,-2.29c1.256,0 2.29,1.034 2.29,2.29Z" style="fill:#ffffc5;fill-rule:nonzero;"/><path d="M647.62,439.5c-0.007,0 -0.013,0 -0.02,0c-1.256,0 -2.29,-1.034 -2.29,-2.29c0,-1.256 1.034,-2.29 2.29,-2.29c1.249,0 2.279,1.021 2.29,2.27c0,1.252 -1.018,2.288 -2.27,2.31Z" style="fill:#ffffc5;fill-rule:nonzero;"/><path d="M698.51,436.45c-0.007,0 -0.013,0 -0.02,0c-1.256,0 -2.29,-1.034 -2.29,-2.29c0,-1.256 1.034,-2.29 2.29,-2.29c1.249,0 2.279,1.021 2.29,2.27c-0.005,1.25 -1.02,2.283 -2.27,2.31Z" style="fill:#ffffc5;fill-rule:nonzero;"/><path d="M700.65,466.1l0,1.16c-0.079,1.197 -1.086,2.139 -2.285,2.139c-1.199,-0 -2.206,-0.942 -2.285,-2.139l-0,-1.15c-0.003,-0.05 -0.005,-0.101 -0.005,-0.151c0,-1.257 1.034,-2.29 2.29,-2.29c1.256,-0 2.29,1.033 2.29,2.29c0,0.05 -0.002,0.101 -0.005,0.151l0,-0.01Z" style="fill:#ffffc5;fill-rule:nonzero;"/><path d="M723.38,395.6l0,1.16c0,0.01 0,0.02 0,0.03c0,2.321 -1.909,4.23 -4.23,4.23c-2.309,0 -4.214,-1.891 -4.23,-4.2l0,-1.16c-0,-0.01 -0,-0.02 -0,-0.03c-0,-2.321 1.909,-4.23 4.23,-4.23c2.309,-0 4.214,1.891 4.23,4.2Z" style="fill:#ffffc5;fill-rule:nonzero;"/><path d="M731.88,442.62c-0.01,0 -0.02,0 -0.03,0c-2.32,0 -4.23,-1.909 -4.23,-4.23c0,-2.32 1.91,-4.23 4.23,-4.23c2.309,0 4.214,1.891 4.23,4.2c-0.01,2.31 -1.89,4.217 -4.2,4.26Z" style="fill:#ffffc5;fill-rule:nonzero;"/><path d="M701.9,515.51c-0.013,0 -0.027,0 -0.04,0c-2.326,0 -4.24,-1.914 -4.24,-4.24c0,-2.326 1.914,-4.24 4.24,-4.24c2.318,0 4.229,1.902 4.24,4.22c-0.005,2.312 -1.888,4.222 -4.2,4.26Z" style="fill:#ffffc5;fill-rule:nonzero;"/><path d="M733.26,470.72l0,1.16c-0.084,1.347 -1.216,2.41 -2.565,2.41c-1.349,-0 -2.481,-1.063 -2.565,-2.41l0,-1.16c0.084,-1.347 1.216,-2.41 2.565,-2.41c1.349,0 2.481,1.063 2.565,2.41Z" style="fill:#ffffc5;fill-rule:nonzero;"/><path d="M727.63,507.1c-0.647,0 -1.18,-0.533 -1.18,-1.18c0,-0.647 0.533,-1.18 1.18,-1.18c0.647,0 1.18,0.533 1.18,1.18c0,0.647 -0.533,1.18 -1.18,1.18Z" style="fill:#ffffc5;fill-rule:nonzero;"/><path d="M737.64,498.29l-1.16,0c-0.443,-0.111 -0.757,-0.513 -0.757,-0.97c0,-0.457 0.314,-0.859 0.757,-0.97l1.16,0c0.443,0.111 0.757,0.513 0.757,0.97c-0,0.457 -0.314,0.859 -0.757,0.97Z" style="fill:#ffffc5;fill-rule:nonzero;"/><path d="M698.18,401.4c0.051,0.675 -0.027,1.354 -0.23,2c-0.294,0.786 -1.051,1.307 -1.89,1.3c-1.25,0.05 -1.26,-1.89 -0,-1.94c0.13,-0 0.16,-0 0.09,-0c-0.07,-0 0.11,-0.1 -0,-0c-0.11,0.1 -0.06,0.07 -0,-0c-0.09,0.16 -0,-0.1 -0,-0.13c0.071,-0.389 0.094,-0.785 0.07,-1.18c0.111,-0.443 0.513,-0.757 0.97,-0.757c0.457,0 0.859,0.314 0.97,0.757l0.02,-0.05Z" style="fill:#ffffc5;fill-rule:nonzero;"/><path d="M747.54,425.21l-1.15,1.16c-0.161,0.104 -0.35,0.159 -0.542,0.159c-0.548,0 -1,-0.451 -1,-1c0,-0.187 0.053,-0.37 0.152,-0.529l1.16,-1.16c0.153,-0.089 0.327,-0.136 0.503,-0.136c0.549,0 1,0.451 1,1c0,0.182 -0.049,0.36 -0.143,0.516l0.02,-0.01Z" style="fill:#ffffc5;fill-rule:nonzero;"/><path d="M624.85,410.45c-0.453,-0.103 -0.778,-0.51 -0.778,-0.975c0,-0.465 0.325,-0.872 0.778,-0.975c0.453,0.103 0.778,0.51 0.778,0.975c-0,0.465 -0.325,0.872 -0.778,0.975Z" style="fill:#ffffc5;fill-rule:nonzero;"/><path d="M571.16,480c-0.443,-0.111 -0.757,-0.513 -0.757,-0.97c0,-0.457 0.314,-0.859 0.757,-0.97c0.443,0.111 0.757,0.513 0.757,0.97c-0,0.457 -0.314,0.859 -0.757,0.97Z" style="fill:#ffffc5;fill-rule:nonzero;"/><path d="M594.45,419.71c-0.443,-0.111 -0.757,-0.513 -0.757,-0.97c0,-0.457 0.314,-0.859 0.757,-0.97c0.443,0.111 0.757,0.513 0.757,0.97c-0,0.457 -0.314,0.859 -0.757,0.97Z" style="fill:#ffffc5;fill-rule:nonzero;"/><path d="M519.05,514.07c0.443,-0.111 0.757,-0.513 0.757,-0.97c-0,-0.457 -0.314,-0.859 -0.757,-0.97c-0.443,0.111 -0.757,0.513 -0.757,0.97c0,0.457 0.314,0.859 0.757,0.97Z" style="fill:#ffffc5;fill-rule:nonzero;"/><path d="M508.9,647.67c-0.127,0.001 -0.252,0.025 -0.37,0.07l-0.56,0.72c-0.016,0.069 -0.024,0.139 -0.024,0.21c0,0.516 0.425,0.94 0.94,0.94c0.001,0 0.003,0 0.004,-0c0.446,-0.109 0.762,-0.512 0.762,-0.971c-0,-0.456 -0.311,-0.856 -0.752,-0.969Z" style="fill:#ffffc5;fill-rule:nonzero;"/><path d="M460.39,660c0.443,-0.111 0.757,-0.513 0.757,-0.97c-0,-0.457 -0.314,-0.859 -0.757,-0.97c-0.443,0.111 -0.757,0.513 -0.757,0.97c0,0.457 0.314,0.859 0.757,0.97Z" style="fill:#ffffc5;fill-rule:nonzero;"/><path d="M537.84,627.74l-1.16,1.16c-0.3,0.181 -0.484,0.506 -0.484,0.857c-0,0.548 0.451,1 1,1c0.355,-0 0.685,-0.19 0.864,-0.497c0.39,-0.38 0.77,-0.77 1.15,-1.15c0.304,-0.18 0.49,-0.508 0.49,-0.86c0,-0.549 -0.451,-1 -1,-1c-0.352,-0 -0.68,0.186 -0.86,0.49Z" style="fill:#ffffc5;fill-rule:nonzero;"/><path d="M512.45,678.43l-1.16,-0c-0.05,0.003 -0.101,0.005 -0.151,0.005c-1.257,-0 -2.29,-1.034 -2.29,-2.29c-0,-1.256 1.033,-2.29 2.29,-2.29c0.05,-0 0.101,0.002 0.151,0.005l1.16,-0c0.05,-0.003 0.101,-0.005 0.151,-0.005c1.257,-0 2.29,1.034 2.29,2.29c0,1.256 -1.033,2.29 -2.29,2.29c-0.05,-0 -0.101,-0.002 -0.151,-0.005Z" style="fill:#ffffc5;fill-rule:nonzero;"/><path d="M470.78,658.71l-0,1.16c0.003,0.05 0.005,0.101 0.005,0.151c0,1.257 -1.034,2.29 -2.29,2.29c-1.256,0 -2.29,-1.033 -2.29,-2.29c0,-0.05 0.002,-0.101 0.005,-0.151l0,-1.16c-0.003,-0.05 -0.005,-0.101 -0.005,-0.151c0,-1.257 1.034,-2.29 2.29,-2.29c1.256,-0 2.29,1.033 2.29,2.29c0,0.05 -0.002,0.101 -0.005,0.151Z" style="fill:#ffffc5;fill-rule:nonzero;"/><path d="M445.83,709.62l0,1.15c0.003,0.05 0.005,0.101 0.005,0.151c0,1.257 -1.034,2.29 -2.29,2.29c-1.256,0 -2.29,-1.033 -2.29,-2.29c0,-0.05 0.002,-0.101 0.005,-0.151l0,-1.15c-0.003,-0.05 -0.005,-0.101 -0.005,-0.151c0,-1.257 1.034,-2.29 2.29,-2.29c1.256,-0 2.29,1.033 2.29,2.29c0,0.05 -0.002,0.101 -0.005,0.151Z" style="fill:#ffffc5;fill-rule:nonzero;"/><path d="M470.12,690c-0.007,0 -0.013,0 -0.02,0c-1.256,0 -2.29,-1.034 -2.29,-2.29c0,-1.256 1.034,-2.29 2.29,-2.29c1.249,0 2.279,1.021 2.29,2.27c0,1.252 -1.018,2.288 -2.27,2.31Z" style="fill:#ffffc5;fill-rule:nonzero;"/><path d="M515.23,403.89c-0.013,0 -0.027,0 -0.04,0c-2.32,0 -4.23,-1.909 -4.23,-4.23c0,-2.32 1.91,-4.23 4.23,-4.23c2.309,0 4.214,1.891 4.23,4.2c-0.005,2.309 -1.882,4.217 -4.19,4.26Z" style="fill:#ffffc5;fill-rule:nonzero;"/><path d="M489.74,682.87c-0.443,-0.111 -0.757,-0.513 -0.757,-0.97c0,-0.457 0.314,-0.859 0.757,-0.97c0.443,0.111 0.757,0.513 0.757,0.97c-0,0.457 -0.314,0.859 -0.757,0.97Z" style="fill:#ffffc5;fill-rule:nonzero;"/><path d="M535.54,589.56c0.086,0.604 -0.068,1.219 -0.43,1.71c-0.48,0.37 -1.092,0.526 -1.69,0.43c-0.079,0.02 -0.161,0.03 -0.243,0.03c-0.549,-0 -1,-0.451 -1,-1c-0,-0.549 0.451,-1 1,-1c0.082,-0 0.164,0.01 0.243,0.03l0.61,-0c0.2,-0 -0.26,0.07 0,-0c0.26,-0.07 -0.25,0.12 -0.13,0.06c0.12,-0.06 -0.22,0.18 -0.13,0.09c0.09,-0.09 -0.16,0.24 -0.1,0.13c0.06,-0.11 -0.1,0.28 -0.06,0.14c0.005,-0.03 0.005,-0.06 0,-0.09c0,-0.15 0,0.29 0,0.12l0,-0.61c-0.02,-0.079 -0.03,-0.161 -0.03,-0.243c0,-0.549 0.451,-1 1,-1c0.549,-0 1,0.451 1,1c0,0.082 -0.01,0.164 -0.03,0.243l-0.01,-0.04Z" style="fill:#ffffc5;fill-rule:nonzero;"/><path d="M414.21,719.57l-1.16,1.15c-0.383,0.36 -0.987,0.36 -1.37,0c-0.366,-0.384 -0.366,-0.996 -0,-1.38l1.15,-1.15c0.383,-0.36 0.987,-0.36 1.37,0c0.366,0.384 0.366,0.996 -0,1.38l0.01,0Z" style="fill:#ffffc5;fill-rule:nonzero;"/><path d="M429.71,683.84c-0.443,-0.111 -0.757,-0.513 -0.757,-0.97c0,-0.457 0.314,-0.859 0.757,-0.97c0.443,0.111 0.757,0.513 0.757,0.97c-0,0.457 -0.314,0.859 -0.757,0.97Z" style="fill:#ffffc5;fill-rule:nonzero;"/><path d="M473.65,743.65c-0.443,-0.111 -0.757,-0.513 -0.757,-0.97c0,-0.457 0.314,-0.859 0.757,-0.97c0.443,0.111 0.757,0.513 0.757,0.97c-0,0.457 -0.314,0.859 -0.757,0.97Z" style="fill:#ffffc5;fill-rule:nonzero;"/><path d="M124.51,615.24c0.007,0 0.013,0 0.02,0c1.256,0 2.29,-1.034 2.29,-2.29c-0,-1.256 -1.034,-2.29 -2.29,-2.29c-1.252,0 -2.284,1.028 -2.29,2.28c0.005,1.248 1.022,2.278 2.27,2.3Z" style="fill:#ffffc5;fill-rule:nonzero;"/><path d="M46.66,538.69l-0,1.16c-0.003,0.05 -0.005,0.101 -0.005,0.151c-0,1.257 1.034,2.29 2.29,2.29c1.256,0 2.29,-1.033 2.29,-2.29c-0,-0.05 -0.002,-0.101 -0.005,-0.151l0,-1.16c-0.079,-1.197 -1.086,-2.139 -2.285,-2.139c-1.199,0 -2.206,0.942 -2.285,2.139Z" style="fill:#ffffc5;fill-rule:nonzero;"/><path d="M91.14,621.41c0.01,0 0.02,0 0.03,0c2.32,0 4.23,-1.909 4.23,-4.23c-0,-2.32 -1.91,-4.23 -4.23,-4.23c-2.309,0 -4.214,1.891 -4.23,4.2c0.01,2.31 1.89,4.217 4.2,4.26Z" style="fill:#ffffc5;fill-rule:nonzero;"/><path d="M121.12,694.3c0.01,0 0.02,0 0.03,0c2.32,0 4.23,-1.909 4.23,-4.23c-0,-2.32 -1.91,-4.23 -4.23,-4.23c-2.309,0 -4.214,1.891 -4.23,4.2c-0,2.314 1.886,4.227 4.2,4.26Z" style="fill:#ffffc5;fill-rule:nonzero;"/><path d="M89.76,649.52l0,1.16c0.084,1.347 1.216,2.41 2.565,2.41c1.349,-0 2.481,-1.063 2.565,-2.41l0,-1.15c0.003,-0.053 0.005,-0.107 0.005,-0.16c0,-1.41 -1.16,-2.57 -2.57,-2.57c-1.41,-0 -2.57,1.16 -2.57,2.57c0,0.053 0.002,0.107 0.005,0.16l0,-0.01Z" style="fill:#ffffc5;fill-rule:nonzero;"/><path d="M95.39,685.89c0.647,0 1.18,-0.533 1.18,-1.18c0,-0.647 -0.533,-1.18 -1.18,-1.18c-0.647,-0 -1.18,0.533 -1.18,1.18c0,0.647 0.533,1.18 1.18,1.18Z" style="fill:#ffffc5;fill-rule:nonzero;"/><path d="M85.39,677.09l1.15,0c0.443,-0.111 0.757,-0.513 0.757,-0.97c-0,-0.457 -0.314,-0.859 -0.757,-0.97l-1.14,0c-0.443,0.111 -0.757,0.513 -0.757,0.97c0,0.457 0.314,0.859 0.757,0.97l-0.01,0Z" style="fill:#ffffc5;fill-rule:nonzero;"/><path d="M145.43,644.73c0.443,-0.111 0.757,-0.513 0.757,-0.97c-0,-0.457 -0.314,-0.859 -0.757,-0.97c-0.443,0.111 -0.757,0.513 -0.757,0.97c0,0.457 0.314,0.859 0.757,0.97Z" style="fill:#ffffc5;fill-rule:nonzero;"/><path d="M146.59,717.53c0.443,-0.111 0.757,-0.513 0.757,-0.97c-0,-0.457 -0.314,-0.859 -0.757,-0.97c-0.443,0.111 -0.757,0.513 -0.757,0.97c0,0.457 0.314,0.859 0.757,0.97Z" style="fill:#ffffc5;fill-rule:nonzero;"/><path d="M98.09,727.93c0.443,-0.111 0.757,-0.513 0.757,-0.97c-0,-0.457 -0.314,-0.859 -0.757,-0.97c-0.443,0.111 -0.757,0.513 -0.757,0.97c0,0.457 0.314,0.859 0.757,0.97Z" style="fill:#ffffc5;fill-rule:nonzero;"/><path d="M166.11,738.91l-1.11,1.16c-0.304,0.18 -0.49,0.508 -0.49,0.86c-0,0.549 0.451,1 1,1c0.352,0 0.68,-0.186 0.86,-0.49l1.16,-1.16c0.095,-0.156 0.145,-0.336 0.145,-0.519c0,-0.549 -0.451,-1 -1,-1c-0.185,-0 -0.367,0.052 -0.525,0.149l-0.04,0Z" style="fill:#ffffc5;fill-rule:nonzero;"/><path d="M150.15,746.36l-1.15,0c-1.256,-0 -2.29,-1.034 -2.29,-2.29c-0,-1.256 1.034,-2.29 2.29,-2.29l1.15,-0c1.256,-0 2.29,1.034 2.29,2.29c0,1.256 -1.034,2.29 -2.29,2.29Z" style="fill:#ffffc5;fill-rule:nonzero;"/><path d="M423.44,765.55l0,1.16c0,1.256 -1.034,2.29 -2.29,2.29c-1.256,0 -2.29,-1.034 -2.29,-2.29l0,-1.15c0,-1.256 1.034,-2.29 2.29,-2.29c1.256,-0 2.29,1.034 2.29,2.29c-0,-0 0,-0.01 0,-0.01Z" style="fill:#ffffc5;fill-rule:nonzero;"/><path d="M83.53,777.54l0,1.16c-0.079,1.197 -1.086,2.139 -2.285,2.139c-1.199,-0 -2.206,-0.942 -2.285,-2.139l0,-1.16c-0.003,-0.05 -0.005,-0.101 -0.005,-0.151c-0,-1.257 1.034,-2.29 2.29,-2.29c1.256,-0 2.29,1.033 2.29,2.29c-0,0.05 -0.002,0.101 -0.005,0.151Z" style="fill:#ffffc5;fill-rule:nonzero;"/><path d="M96.13,803.72c-0.007,0 -0.013,0 -0.02,0c-1.256,0 -2.29,-1.034 -2.29,-2.29c0,-1.256 1.034,-2.29 2.29,-2.29c1.249,0 2.279,1.021 2.29,2.27c-0.005,1.25 -1.02,2.283 -2.27,2.31Z" style="fill:#ffffc5;fill-rule:nonzero;"/><path d="M126.3,792.19c-0.01,0 -0.02,0 -0.03,0c-2.32,0 -4.23,-1.909 -4.23,-4.23c0,-2.32 1.91,-4.23 4.23,-4.23c2.309,0 4.214,1.891 4.23,4.2c-0.005,2.312 -1.888,4.222 -4.2,4.26Z" style="fill:#ffffc5;fill-rule:nonzero;"/><path d="M127.44,750.79c-0.443,-0.111 -0.757,-0.513 -0.757,-0.97c0,-0.457 0.314,-0.859 0.757,-0.97c0.443,0.111 0.757,0.513 0.757,0.97c-0,0.457 -0.314,0.859 -0.757,0.97Z" style="fill:#ffffc5;fill-rule:nonzero;"/><path d="M148,808.91c0.086,0.606 -0.073,1.221 -0.44,1.71c-0.479,0.363 -1.086,0.514 -1.68,0.42c-0.079,0.02 -0.161,0.03 -0.243,0.03c-0.549,0 -1,-0.451 -1,-1c-0,-0.549 0.451,-1 1,-1c0.082,0 0.164,0.01 0.243,0.03l0.62,0c0.22,0 -0.26,0.06 0,0c0.26,-0.06 -0.26,0.12 -0.14,0.06c0.12,-0.06 -0.21,0.18 -0.12,0.1c0.09,-0.08 -0.17,0.23 -0.1,0.12c0.07,-0.11 -0.1,0.28 -0.06,0.15c0.04,-0.13 0,-0.06 0,-0.09c0,-0.03 0,0.28 0,0.11l0,-0.61c-0.02,-0.079 -0.03,-0.161 -0.03,-0.243c0,-0.549 0.451,-1 1,-1c0.549,-0 1,0.451 1,1c0,0.082 -0.01,0.164 -0.03,0.243l-0.02,-0.03Z" style="fill:#ffffc5;fill-rule:nonzero;"/><path d="M51.9,787.49l-1.15,1.16c-0.156,0.095 -0.336,0.145 -0.519,0.145c-0.549,0 -1,-0.451 -1,-1c-0,-0.185 0.052,-0.367 0.149,-0.525l1.16,-1.16c0.181,-0.3 0.506,-0.484 0.857,-0.484c0.548,-0 1,0.451 1,1c-0,0.355 -0.19,0.685 -0.497,0.864Z" style="fill:#ffffc5;fill-rule:nonzero;"/><path d="M67.4,751.76c-0.443,-0.111 -0.757,-0.513 -0.757,-0.97c0,-0.457 0.314,-0.859 0.757,-0.97c0.443,0.111 0.757,0.513 0.757,0.97c-0,0.457 -0.314,0.859 -0.757,0.97Z" style="fill:#ffffc5;fill-rule:nonzero;"/><path d="M111.34,811.57c-0.443,-0.111 -0.757,-0.513 -0.757,-0.97c0,-0.457 0.314,-0.859 0.757,-0.97c0.443,0.111 0.757,0.513 0.757,0.97c-0,0.457 -0.314,0.859 -0.757,0.97Z" style="fill:#ffffc5;fill-rule:nonzero;"/><path d="M391.64,706.35c0.211,1.069 1.157,1.846 2.247,1.846c1.256,0 2.29,-1.034 2.29,-2.29c-0,-1.256 -1.034,-2.29 -2.29,-2.29c-0.15,0 -0.3,0.015 -0.447,0.044c-1.222,0.259 -2.026,1.461 -1.8,2.69Z" style="fill:#ffffc5;fill-rule:nonzero;"/><path d="M362.19,710.25l-1.14,0.24c-1.062,0.224 -1.829,1.169 -1.829,2.255c-0,1.264 1.04,2.304 2.304,2.304c0.16,0 0.319,-0.016 0.475,-0.049l1.13,-0.24c1.032,-0.241 1.769,-1.17 1.769,-2.23c-0,-1.256 -1.034,-2.29 -2.29,-2.29c-0.124,0 -0.247,0.01 -0.369,0.03l-0.05,-0.02Z" style="fill:#ffffc5;fill-rule:nonzero;"/><path d="M338.55,763.11c0.402,1.96 2.143,3.379 4.144,3.379c2.32,0 4.23,-1.909 4.23,-4.23c-0,-2.32 -1.91,-4.23 -4.23,-4.23c-0.277,0 -0.553,0.027 -0.824,0.081c-2.277,0.469 -3.772,2.719 -3.32,5Z" style="fill:#ffffc5;fill-rule:nonzero;"/><path d="M313.59,719c0.402,1.96 2.143,3.379 4.144,3.379c2.32,0 4.23,-1.909 4.23,-4.23c-0,-2.32 -1.91,-4.23 -4.23,-4.23c-0.277,0 -0.553,0.027 -0.824,0.081c-2.274,0.474 -3.766,2.72 -3.32,5Z" style="fill:#ffffc5;fill-rule:nonzero;"/><path d="M351.07,679.23l-1.13,0.23c-1.084,0.321 -1.833,1.324 -1.833,2.455c0,1.404 1.156,2.56 2.56,2.56c0.091,-0 0.182,-0.005 0.273,-0.015l1.13,-0.23c1.294,-0.139 2.287,-1.244 2.287,-2.545c0,-1.405 -1.156,-2.56 -2.56,-2.56c-0.246,-0 -0.491,0.035 -0.727,0.105Z" style="fill:#ffffc5;fill-rule:nonzero;"/><path d="M316.62,692.1c0.137,0.516 0.607,0.877 1.141,0.877c0.647,0 1.18,-0.532 1.18,-1.18c-0,-0.052 -0.004,-0.105 -0.011,-0.157c-0.137,-0.516 -0.607,-0.877 -1.141,-0.877c-0.647,-0 -1.18,0.532 -1.18,1.18c0,0.052 0.004,0.105 0.011,0.157Z" style="fill:#ffffc5;fill-rule:nonzero;"/><path d="M323.21,680.52c0.08,0.37 0.16,0.75 0.23,1.13c0.162,0.357 0.519,0.587 0.911,0.587c0.536,-0 0.981,-0.431 0.999,-0.967l-0.24,-1.13c-0.166,-0.346 -0.518,-0.567 -0.901,-0.567c-0.529,-0 -0.971,0.419 -0.999,0.947Z" style="fill:#ffffc5;fill-rule:nonzero;"/><path d="M367,732.82c0.162,0.357 0.519,0.587 0.911,0.587c0.536,-0 0.981,-0.431 0.999,-0.967c-0.162,-0.357 -0.519,-0.587 -0.911,-0.587c-0.536,0 -0.981,0.431 -0.999,0.967Z" style="fill:#ffffc5;fill-rule:nonzero;"/><path d="M296,748.68c0.166,0.346 0.518,0.567 0.901,0.567c0.529,0 0.971,-0.419 0.999,-0.947c-0.166,-0.346 -0.518,-0.567 -0.901,-0.567c-0.529,-0 -0.971,0.419 -0.999,0.947Z" style="fill:#ffffc5;fill-rule:nonzero;"/><path d="M276,703.25c0.162,0.357 0.519,0.587 0.911,0.587c0.536,-0 0.981,-0.431 0.999,-0.967c-0.162,-0.357 -0.519,-0.587 -0.911,-0.587c-0.536,0 -0.981,0.431 -0.999,0.967Z" style="fill:#ffffc5;fill-rule:nonzero;"/><path d="M279,772.13l-1.36,-0.89c-0.189,-0.208 -0.458,-0.327 -0.74,-0.327c-0.549,-0 -1,0.451 -1,1c-0,0.427 0.275,0.81 0.68,0.947l1.36,0.9c0.45,0.28 1.048,0.156 1.35,-0.28c0.278,-0.453 0.149,-1.051 -0.29,-1.35Z" style="fill:#ffffc5;fill-rule:nonzero;"/><path d="M268.52,758c-0.08,-0.38 -0.16,-0.75 -0.23,-1.13c-0.037,-0.164 -0.055,-0.332 -0.055,-0.5c-0,-1.256 1.034,-2.29 2.29,-2.29c1.068,-0 2.002,0.747 2.235,1.79c0.08,0.38 0.16,0.76 0.23,1.13c0.037,0.164 0.055,0.332 0.055,0.5c0,1.256 -1.034,2.29 -2.29,2.29c-1.068,0 -2.002,-0.747 -2.235,-1.79Z" style="fill:#ffffc5;fill-rule:nonzero;"/><path d="M279.39,713.16l-1.13,0.24c-0.164,0.037 -0.332,0.055 -0.5,0.055c-1.259,0 -2.295,-1.036 -2.295,-2.295c-0,-1.071 0.75,-2.007 1.795,-2.24l1.13,-0.23c0.164,-0.037 0.332,-0.055 0.5,-0.055c1.256,-0 2.29,1.034 2.29,2.29c0,1.068 -0.747,2.002 -1.79,2.235Z" style="fill:#ffffc5;fill-rule:nonzero;"/><path d="M67.17,690l-1.13,0.23c-0.164,0.037 -0.332,0.055 -0.5,0.055c-1.256,0 -2.29,-1.034 -2.29,-2.29c-0,-1.068 0.747,-2.002 1.79,-2.235l1.13,-0.24c0.164,-0.037 0.332,-0.055 0.5,-0.055c1.259,-0 2.295,1.036 2.295,2.295c0,1.071 -0.75,2.007 -1.795,2.24Z" style="fill:#ffffc5;fill-rule:nonzero;"/><path d="M248.68,718.84c-0.035,-0.161 -0.053,-0.326 -0.053,-0.491c-0,-1.256 1.034,-2.29 2.29,-2.29c1.256,0 2.29,1.034 2.29,2.29c-0,1.079 -0.762,2.018 -1.817,2.241c-1.221,0.247 -2.433,-0.536 -2.71,-1.75Z" style="fill:#ffffc5;fill-rule:nonzero;"/><path d="M218.85,743.89c-0.063,-0.293 -0.095,-0.591 -0.095,-0.891c0,-2.32 1.91,-4.23 4.23,-4.23c2.321,0 4.23,1.91 4.23,4.23c0,1.996 -1.412,3.733 -3.365,4.141c-2.257,0.444 -4.49,-1.007 -5,-3.25Z" style="fill:#ffffc5;fill-rule:nonzero;"/><path d="M259.59,736.63c0.023,-0.531 0.467,-0.956 0.999,-0.956c0.375,0 0.721,0.211 0.891,0.546c-0.023,0.531 -0.467,0.956 -0.999,0.956c-0.375,-0 -0.721,-0.211 -0.891,-0.546Z" style="fill:#ffffc5;fill-rule:nonzero;"/><path d="M236.24,767.22c-0.574,0.205 -1.207,0.176 -1.76,-0.08c-0.53,-0.32 -0.64,-1 -0.76,-1.57c-0.065,-0.136 -0.099,-0.284 -0.099,-0.435c-0,-0.548 0.451,-1 1,-1c0.548,0 1,0.452 1,1c-0,0.012 -0.001,0.023 -0.001,0.035c0.036,0.199 0.083,0.396 0.14,0.59c0.06,0.22 -0.12,-0.24 0,0c0.12,0.24 -0.17,-0.22 -0.09,-0.12c0.08,0.1 -0.22,-0.17 -0.11,-0.1c0.11,0.07 -0.27,-0.11 -0.15,-0.07c0.12,0.04 -0.29,-0.05 -0.15,0l0.09,0c0.16,0 -0.28,0 -0.12,0c0.16,0 0.4,-0.07 0.6,-0.11c0.136,-0.066 0.285,-0.1 0.435,-0.1c0.549,0 1,0.452 1,1c0,0.549 -0.451,1 -1,1c-0.008,0 -0.017,0 -0.025,0l0,-0.04Z" style="fill:#ffffc5;fill-rule:nonzero;"/><path d="M246.5,678c0.023,-0.531 0.467,-0.956 0.999,-0.956c0.375,0 0.721,0.211 0.891,0.546c-0.023,0.531 -0.467,0.956 -0.999,0.956c-0.375,-0 -0.721,-0.211 -0.891,-0.546Z" style="fill:#ffffc5;fill-rule:nonzero;"/><path d="M196.85,733.15c0.014,-0.539 0.461,-0.975 1,-0.975c0.383,0 0.733,0.22 0.9,0.565c-0.014,0.539 -0.461,0.975 -1,0.975c-0.383,-0 -0.733,-0.22 -0.9,-0.565Z" style="fill:#ffffc5;fill-rule:nonzero;"/><path d="M583.2,668.35c0.443,-0.111 0.757,-0.513 0.757,-0.97c-0,-0.457 -0.314,-0.859 -0.757,-0.97c-0.443,0.111 -0.757,0.513 -0.757,0.97c0,0.457 0.314,0.859 0.757,0.97Z" style="fill:#ffffc5;fill-rule:nonzero;"/><path d="M651.22,679.34l-1.16,1.15c-0.095,0.156 -0.145,0.336 -0.145,0.519c-0,0.549 0.451,1 1,1c0.185,0 0.367,-0.052 0.525,-0.149l1.16,-1.16c0.089,-0.153 0.136,-0.327 0.136,-0.503c-0,-0.549 -0.451,-1 -1,-1c-0.182,-0 -0.36,0.049 -0.516,0.143Z" style="fill:#ffffc5;fill-rule:nonzero;"/><path d="M635.25,686.78l-1.15,0c-1.256,0 -2.29,-1.034 -2.29,-2.29c-0,-1.256 1.034,-2.29 2.29,-2.29l1.15,-0c1.256,0 2.29,1.034 2.29,2.29c0,1.256 -1.034,2.29 -2.29,2.29Z" style="fill:#ffffc5;fill-rule:nonzero;"/><path d="M593.58,667.06l0,1.16c-0.079,1.197 -1.086,2.139 -2.285,2.139c-1.199,-0 -2.206,-0.942 -2.285,-2.139l-0,-1.16c-0.003,-0.05 -0.005,-0.101 -0.005,-0.151c0,-1.257 1.034,-2.29 2.29,-2.29c1.256,-0 2.29,1.033 2.29,2.29c0,0.05 -0.002,0.101 -0.005,0.151Z" style="fill:#ffffc5;fill-rule:nonzero;"/><path d="M680.84,777.12l0,1.16c-0,1.256 -1.034,2.29 -2.29,2.29c-1.256,0 -2.29,-1.034 -2.29,-2.29l-0,-1.16c-0,-1.256 1.034,-2.29 2.29,-2.29c1.256,-0 2.29,1.034 2.29,2.29Z" style="fill:#ffffc5;fill-rule:nonzero;"/><path d="M592.92,698.31c-0.007,0 -0.013,0 -0.02,0c-1.256,0 -2.29,-1.034 -2.29,-2.29c0,-1.256 1.034,-2.29 2.29,-2.29c1.252,0 2.284,1.028 2.29,2.28c-0.005,1.248 -1.022,2.278 -2.27,2.3Z" style="fill:#ffffc5;fill-rule:nonzero;"/><path d="M611.41,732.61c-0.01,0 -0.02,0 -0.03,0c-2.32,0 -4.23,-1.909 -4.23,-4.23c0,-2.32 1.91,-4.23 4.23,-4.23c2.309,0 4.214,1.891 4.23,4.2c-0.005,2.312 -1.888,4.222 -4.2,4.26Z" style="fill:#ffffc5;fill-rule:nonzero;"/><path d="M612.54,691.21c-0.443,-0.111 -0.757,-0.513 -0.757,-0.97c0,-0.457 0.314,-0.859 0.757,-0.97c0.443,0.111 0.757,0.513 0.757,0.97c-0,0.457 -0.314,0.859 -0.757,0.97Z" style="fill:#ffffc5;fill-rule:nonzero;"/><path d="M637.75,720.28c0.084,0.604 -0.07,1.218 -0.43,1.71c-0.48,0.361 -1.085,0.516 -1.68,0.43c-0.453,-0.103 -0.778,-0.51 -0.778,-0.975c0,-0.465 0.325,-0.872 0.778,-0.975l0.61,0c0.2,0 -0.25,0.06 0,0c0.25,-0.06 -0.25,0.11 -0.13,0c0.12,-0.11 -0.22,0.19 -0.12,0.1c0.1,-0.09 -0.17,0.24 -0.1,0.12c0.07,-0.12 -0.11,0.28 -0.06,0.15c0.05,-0.13 0,-0.06 0,-0.09c0,-0.03 0,0.28 0,0.12l0,-0.61c0,-0.549 0.451,-1 1,-1c0.549,0 1,0.451 1,1l-0.09,0.02Z" style="fill:#ffffc5;fill-rule:nonzero;"/><path d="M537,727.91l-1.15,1.16c-0.156,0.095 -0.336,0.145 -0.519,0.145c-0.549,0 -1,-0.451 -1,-1c-0,-0.185 0.052,-0.367 0.149,-0.525l1.16,-1.16c0.153,-0.089 0.327,-0.136 0.503,-0.136c0.549,0 1,0.451 1,1c0,0.182 -0.049,0.36 -0.143,0.516Z" style="fill:#ffffc5;fill-rule:nonzero;"/><path d="M552.51,692.19c-0.549,0 -1,-0.451 -1,-1c0,-0.549 0.451,-1 1,-1c0.549,0 1,0.451 1,1c0,0.549 -0.451,1 -1,1Z" style="fill:#ffffc5;fill-rule:nonzero;"/><path d="M596.45,752c-0.549,0 -1,-0.451 -1,-1c0,-0.549 0.451,-1 1,-1c0.549,0 1,0.451 1,1c0,0.549 -0.451,1 -1,1Z" style="fill:#ffffc5;fill-rule:nonzero;"/><path d="M337.79,39.58c0.007,0 0.013,0 0.02,0c1.256,0 2.29,-1.034 2.29,-2.29c-0,-1.256 -1.034,-2.29 -2.29,-2.29c-1.249,0 -2.279,1.021 -2.29,2.27c0.005,1.25 1.02,2.283 2.27,2.31Z" style="fill:#ffffc5;fill-rule:nonzero;"/><path d="M225.1,26.18c1.434,-0.711 2.345,-2.18 2.345,-3.78c-0,-2.294 -1.871,-4.19 -4.165,-4.22c-2.016,0.009 -3.767,1.437 -4.18,3.41c2.09,1.41 4.08,3 6,4.59Z" style="fill:#ffffc5;fill-rule:nonzero;"/><path d="M351.29,161.88c-0.94,0.38 -1.89,0.72 -2.86,1c0.041,0.195 0.134,0.375 0.27,0.52c0.383,0.36 0.987,0.36 1.37,0l1.16,-1.16c0.118,-0.119 0.201,-0.268 0.24,-0.43l-0.18,0.07Z" style="fill:#ffffc5;fill-rule:nonzero;"/><path d="M157.71,173.6c-0.28,0.387 -0.431,0.853 -0.431,1.33c0,1.246 1.025,2.27 2.27,2.27c0.014,0 0.027,0 0.041,-0l1.15,-0c1.25,-0.016 2.27,-1.05 2.27,-2.3c-0.004,-0.446 -0.14,-0.881 -0.39,-1.25c-1.636,0.083 -3.276,0.066 -4.91,-0.05Z" style="fill:#ffffc5;fill-rule:nonzero;"/><path d="M213.72,809c-0.01,0 -0.02,0 -0.03,0c-2.32,0 -4.23,-1.909 -4.23,-4.23c0,-2.32 1.91,-4.23 4.23,-4.23c2.309,0 4.214,1.891 4.23,4.2c-0.005,2.312 -1.888,4.222 -4.2,4.26Z" style="fill:#ffffc5;fill-rule:nonzero;"/><path d="M336.38,201.82c0.086,0.604 -0.068,1.219 -0.43,1.71c-0.476,0.369 -1.085,0.525 -1.68,0.43c-0.549,0 -1,-0.451 -1,-1c0,-0.549 0.451,-1 1,-1l0.61,0c0.2,0 -0.26,0.06 0,0c0.26,-0.06 -0.25,0.12 -0.13,0.06c0.12,-0.06 -0.22,0.18 -0.12,0.09c0.1,-0.09 -0.17,0.24 -0.1,0.13c0.07,-0.11 -0.11,0.28 -0.06,0.14c0.05,-0.14 0,-0.06 0,-0.09c0,-0.03 0,0.28 0,0.12l0,-0.61c0,-0.549 0.451,-1 1,-1c0.549,0 1,0.451 1,1l-0.09,0.02Z" style="fill:#ffffc5;fill-rule:nonzero;"/><path d="M517.71,757.07c0.007,0 0.013,0 0.02,0c1.256,0 2.29,-1.034 2.29,-2.29c-0,-1.256 -1.034,-2.29 -2.29,-2.29c-1.252,0 -2.284,1.028 -2.29,2.28c0.005,1.248 1.022,2.278 2.27,2.3Z" style="fill:#ffffc5;fill-rule:nonzero;"/><path d="M673.58,498.61l0,1.15c0,1.256 1.034,2.29 2.29,2.29c1.256,0 2.29,-1.034 2.29,-2.29l0,-1.15c0,-1.256 -1.034,-2.29 -2.29,-2.29c-1.256,0 -2.29,1.034 -2.29,2.29Z" style="fill:#ffffc5;fill-rule:nonzero;"/><path d="M451,699.48c0.013,0 0.027,0 0.04,0c2.32,0 4.23,-1.909 4.23,-4.23c-0,-2.32 -1.91,-4.23 -4.23,-4.23c-2.309,0 -4.214,1.891 -4.23,4.2c-0,2.311 1.88,4.222 4.19,4.26Z" style="fill:#ffffc5;fill-rule:nonzero;"/><path d="M481,772.37c0.01,0 0.02,0 0.03,0c2.32,0 4.23,-1.909 4.23,-4.23c-0,-2.32 -1.91,-4.23 -4.23,-4.23c-2.309,0 -4.214,1.891 -4.23,4.2c0.01,2.31 1.89,4.217 4.2,4.26Z" style="fill:#ffffc5;fill-rule:nonzero;"/><path d="M379.12,755.85l0,1.15c0,1.404 1.156,2.56 2.56,2.56c1.404,0 2.56,-1.156 2.56,-2.56l0,-1.15c0,-1.404 -1.156,-2.56 -2.56,-2.56c-1.404,-0 -2.56,1.156 -2.56,2.56Z" style="fill:#ffffc5;fill-rule:nonzero;"/><path d="M455.24,764c0.647,0 1.18,-0.533 1.18,-1.18c0,-0.647 -0.533,-1.18 -1.18,-1.18c-0.647,-0 -1.18,0.533 -1.18,1.18c-0,0.647 0.533,1.18 1.18,1.18Z" style="fill:#ffffc5;fill-rule:nonzero;"/><path d="M445.24,755.16l1.16,0c0.443,-0.111 0.757,-0.513 0.757,-0.97c-0,-0.457 -0.314,-0.859 -0.757,-0.97l-1.15,0c-0.443,0.111 -0.757,0.513 -0.757,0.97c0,0.457 0.314,0.859 0.757,0.97l-0.01,0Z" style="fill:#ffffc5;fill-rule:nonzero;"/><path d="M505.29,722.8c0.443,-0.111 0.757,-0.513 0.757,-0.97c-0,-0.457 -0.314,-0.859 -0.757,-0.97c-0.443,0.111 -0.757,0.513 -0.757,0.97c0,0.457 0.314,0.859 0.757,0.97Z" style="fill:#ffffc5;fill-rule:nonzero;"/><path d="M506.44,795.6c0.443,-0.111 0.757,-0.513 0.757,-0.97c-0,-0.457 -0.314,-0.859 -0.757,-0.97c-0.443,0.111 -0.757,0.513 -0.757,0.97c0,0.457 0.314,0.859 0.757,0.97Z" style="fill:#ffffc5;fill-rule:nonzero;"/><path d="M457.94,806c0.443,-0.111 0.757,-0.513 0.757,-0.97c-0,-0.457 -0.314,-0.859 -0.757,-0.97c-0.443,0.111 -0.757,0.513 -0.757,0.97c0,0.457 0.314,0.859 0.757,0.97Z" style="fill:#ffffc5;fill-rule:nonzero;"/><path d="M526,817l-1.15,1.16c-0.095,0.156 -0.145,0.336 -0.145,0.519c-0,0.549 0.451,1 1,1c0.185,0 0.367,-0.052 0.525,-0.149l1.15,-1.16c0.36,-0.383 0.36,-0.987 0,-1.37c-0.384,-0.366 -0.996,-0.366 -1.38,0Z" style="fill:#ffffc5;fill-rule:nonzero;"/><path d="M510,824.43l-1.16,-0c-1.256,-0 -2.29,-1.034 -2.29,-2.29c0,-1.256 1.034,-2.29 2.29,-2.29l1.16,-0c1.256,-0 2.29,1.034 2.29,2.29c0,1.256 -1.034,2.29 -2.29,2.29Z" style="fill:#ffffc5;fill-rule:nonzero;"/><path d="M468.33,804.71l0,1.16c-0.079,1.197 -1.086,2.139 -2.285,2.139c-1.199,-0 -2.206,-0.942 -2.285,-2.139l0,-1.16c-0.003,-0.05 -0.005,-0.101 -0.005,-0.151c0,-1.257 1.034,-2.29 2.29,-2.29c1.256,-0 2.29,1.033 2.29,2.29c0,0.05 -0.002,0.101 -0.005,0.151Z" style="fill:#ffffc5;fill-rule:nonzero;"/><path d="M467.67,836c-0.007,0 -0.013,0 -0.02,0c-1.256,0 -2.29,-1.034 -2.29,-2.29c0,-1.256 1.034,-2.29 2.29,-2.29c1.249,0 2.279,1.021 2.29,2.27c0,1.252 -1.018,2.288 -2.27,2.31Z" style="fill:#ffffc5;fill-rule:nonzero;"/><path d="M487.29,828.86c-0.443,-0.111 -0.757,-0.513 -0.757,-0.97c0,-0.457 0.314,-0.859 0.757,-0.97c0.443,0.111 0.757,0.513 0.757,0.97c-0,0.457 -0.314,0.859 -0.757,0.97Z" style="fill:#ffffc5;fill-rule:nonzero;"/><path d="M427.26,829.83c-0.443,-0.111 -0.757,-0.513 -0.757,-0.97c0,-0.457 0.314,-0.859 0.757,-0.97c0.443,0.111 0.757,0.513 0.757,0.97c-0,0.457 -0.314,0.859 -0.757,0.97Z" style="fill:#ffffc5;fill-rule:nonzero;"/></g></g></svg>