<svg xmlns="http://www.w3.org/2000/svg" viewBox="0 0 832.5 832.5"><defs><style>.cls-1{fill:#5e4440;}.cls-2{fill:#e55747;}.cls-3{fill:#deaa7c;}.cls-4{fill:#76b099;}.cls-5{fill:#ffffc5;}</style></defs><g id="Layer_2" data-name="Layer 2"><g id="Layer_1-2" data-name="Layer 1"><rect class="cls-1" width="832.5" height="832.5"/><path class="cls-2" d="M231.85,10.4C242.67,32.21,74.81,264,74.81,264s5.32,470.14,9,533.59c71.78,3.73,339.81-40.52,394.74-40.75-2.49-76.86-39.36-510-39.36-510Z"/><path class="cls-1" d="M234.18,410.75a206,206,0,0,0-22.47,1.69c-2.26.28-4.52.58-6.76.89-15,2.07-29.92,4.69-44,5.06-2.6-31.67-3.59-63.72-4.58-95.69q-.12-3.51-.22-7-.48-15.51-1.06-31l10.7-.43c-.84.32-1.46.55-1.9.73l7.27-2.56a286.18,286.18,0,0,0,28.7,0q3.39-.15,6.78-.36c4.85-.31,9.69-.69,14.55-1.12l8.76-.78c1,11.68,1.86,23.54,2.51,35.46.13,2.35.26,4.71.37,7.07C234.28,352.28,234.62,382.12,234.18,410.75Z"/><path class="cls-1" d="M393.66,339.84c.85,21.7,1.33,43.41,1.32,64.9-7.06.46-14.3,1-21.61,1.46q-3.39.24-6.8.43c-17.28,1-34.71,1.43-50.65-.44-3.21-20.88-2.84-42.82-1.9-64.88.1-2.33.2-4.66.32-7,.8-17.34,1.75-34.67,1.41-51.55,11.47,1.67,23,3.26,34.52,4l1.41.09c2.42.15,4.85.26,7.27.35,10.69.38,21.39.23,32.08.33q1.37,22.55,2.36,45.29C393.49,335.2,393.57,337.51,393.66,339.84Z"/><path class="cls-3" d="M373.37,406.2q-3.39.24-6.8.43c.53-20.37,1.05-43.73-.34-64.56-.15-2.34-.34-4.66-.55-6.94-2-22-6.5-40.2-15.94-47.61l.53-.71,1.41.09c2.42.15,4.85.26,7.27.35,7.78,10.26,11.68,27.43,13.52,47.37.21,2.28.4,4.59.55,6.95C374.41,362.2,373.92,385.15,373.37,406.2Z"/><path class="cls-3" d="M393.66,339.84l-7.8.65c-4.26.37-8.55.74-12.84,1.08l-6.79.5c-4.45.31-8.89.57-13.32.75-13.27.53-26.37.34-38.89-1.51.1-2.33.2-4.66.32-7,16.26,2.47,33.76,2,51.34.81q3.4-.24,6.79-.51c4.28-.33,8.56-.7,12.82-1.06l8.1-.69C393.49,335.2,393.57,337.51,393.66,339.84Z"/><path class="cls-3" d="M206.67,282.09l5,130.35c-2.26.28-4.52.58-6.76.89l-5.06-130.88Q203.28,282.3,206.67,282.09Z"/><path class="cls-3" d="M232.86,322.72a155.37,155.37,0,0,0-24.65-.75c-2.23.07-4.5.16-6.78.27l-6.76.32c-12.82.65-25.94,1.3-38.27.14q-.12-3.51-.22-7c12.11,1.23,25.3.57,38.15-.07l6.83-.34,6.78-.27a165.64,165.64,0,0,1,24.55.65C232.62,318,232.75,320.36,232.86,322.72Z"/><path class="cls-1" d="M172.78,762.78C184.89,677.3,132.21,531.36,240.2,481c97.06-45.25,146.79,65.21,151.14,161.2,1.77,38.95,4.42,77.73,4.56,116.79Z"/><path class="cls-4" d="M588.31,368.93q17,1.92,24.49,6.2,20.79,10.49,20.79,37.07,0,23.39-19.58,51.54-5.91,8.13-18,21.57a228.86,228.86,0,0,1-22.21,22,208.89,208.89,0,0,0-22.89,23.38q36.09-3.34,60.59-3.35,10.83,0,10.82,5,0,4,3.35,43.28c-1.42,1.37-2.68,2.06-3.77,2.06a287.51,287.51,0,0,0-74-3.13q-38.88,3.13-41,3.13a9.83,9.83,0,0,1-3.34-7.91l3.34-37.86q3.57-3.71,12.07-9t16.31-10.91A134.68,134.68,0,0,0,553,496.18q5.13-4.06,14.1-17.47,7.41-9.4,16.59-30.47a105.14,105.14,0,0,0,9.18-42.31q-1.7-17.25-20.79-15.4-14.8,4.07-28.62,29.94,19.8,3.78,20.26,18t-8.37,23.89q-11.25,13.47-24.07,13.75-16.23-.27-23.56-12.76-8-16.32-.43-37.42,9-25.38,39.52-46.13Q564.1,368.93,588.31,368.93Z"/><path class="cls-4" d="M724.31,368.93q16.94,1.92,24.49,6.2,20.79,10.49,20.79,37.07,0,23.39-19.58,51.54-5.91,8.13-18,21.57a228.86,228.86,0,0,1-22.21,22,208.89,208.89,0,0,0-22.89,23.38q36.09-3.34,60.59-3.35,10.82,0,10.82,5,0,4,3.35,43.28c-1.42,1.37-2.68,2.06-3.77,2.06a287.57,287.57,0,0,0-74-3.13q-38.86,3.13-41,3.13a9.84,9.84,0,0,1-3.35-7.91l3.35-37.86q3.55-3.71,12.07-9t16.31-10.91A134.68,134.68,0,0,0,689,496.18q5.13-4.06,14.1-17.47,7.39-9.4,16.59-30.47a105.14,105.14,0,0,0,9.18-42.31q-1.7-17.25-20.79-15.4-14.8,4.07-28.62,29.94,19.78,3.78,20.26,18t-8.37,23.89q-11.25,13.47-24.07,13.75Q651,475.8,643.7,463.31q-8-16.32-.42-37.42,9-25.38,39.52-46.13Q700.1,368.93,724.31,368.93Z"/><path class="cls-5" d="M501.23,130.22c25.78,5.47,25.93,58.45,32.24,77.45,6.67-20.76,27.94-78.3,57.06-77.12,39.31,1.59,35.16,67.46,35.24,96.19,27.08-49.6,48.78-138.21,109.91-68.05,42.56,48.84,47.83,99.42,43.73,160.64-10.29,1.48-238.5-5-314-5.8C465.41,313.53,460.84,121.64,501.23,130.22Z"/><path class="cls-5" d="M372.22,19.56v1.16a2.29,2.29,0,1,0,4.57,0V19.6a2.29,2.29,0,1,0-4.57,0Z"/><path class="cls-5" d="M547.24,19h1.16a2.29,2.29,0,0,0,0-4.57h-1.15a2.29,2.29,0,1,0,0,4.57Z"/><path class="cls-5" d="M164.36,25.75v1.16a2.29,2.29,0,0,0,4.57,0V25.78a2.29,2.29,0,1,0-4.57,0Z"/><path class="cls-5" d="M276.13,44.16v.51a2.29,2.29,0,1,0,4.57,0v-.52a2.29,2.29,0,0,0-4.57,0v.51a2.29,2.29,0,1,0,4.57,0v-.52a2.29,2.29,0,0,0-4.57,0Z"/><path class="cls-5" d="M131.07,81.24a2.29,2.29,0,1,0-2.27-2.3,2.31,2.31,0,0,0,2.27,2.3Z"/><path class="cls-5" d="M80.2,78.19a2.29,2.29,0,1,0-2.27-2.3,2.31,2.31,0,0,0,2.27,2.3Z"/><path class="cls-5" d="M78.06,107.85V109a2.29,2.29,0,0,0,4.57,0v-1.16a2.29,2.29,0,1,0-4.57,0Z"/><path class="cls-5" d="M55.35,37.35V38.5a4.23,4.23,0,1,0,8.45.06V37.41a4.23,4.23,0,1,0-8.45-.06Z"/><path class="cls-5" d="M44.59,272.33a4.23,4.23,0,1,0-4.2-4.26,4.28,4.28,0,0,0,4.2,4.26Z"/><path class="cls-5" d="M121.87,130.59a4.23,4.23,0,1,0-4.2-4.26,4.27,4.27,0,0,0,4.2,4.26Z"/><path class="cls-5" d="M45.47,112.47v1.16a2.56,2.56,0,1,0,5.12,0v-1.15a2.56,2.56,0,1,0-5.12,0Z"/><path class="cls-5" d="M51.09,148.84a1.18,1.18,0,0,0,0-2.36,1.18,1.18,0,0,0,0,2.36Z"/><path class="cls-5" d="M41.1,140h1.15a1,1,0,1,0,0-1.94H41.11a1,1,0,1,0,0,1.94Z"/><path class="cls-5" d="M80.53,43.15a5.28,5.28,0,0,0,.23,2,2,2,0,0,0,1.89,1.31c1.25,0,1.26-1.9,0-1.95h-.09c.12,0-.11-.11,0,0s.06.08,0,0c.09.15,0-.11,0-.14a4.9,4.9,0,0,1-.07-1.18,1,1,0,0,0-1.94,0Z"/><path class="cls-5" d="M101.11,107.68a1,1,0,0,0,0-1.94,1,1,0,0,0,0,1.94Z"/><path class="cls-5" d="M153.83,52.19a1,1,0,0,0,0-1.94,1,1,0,0,0,0,1.94Z"/><path class="cls-5" d="M453,122.52l-.22,0L451,123a.92.92,0,0,0,.28.63l1.15,1.15a1,1,0,0,0,1.37,0,1,1,0,0,0,0-1.38C453.55,123.08,453.27,122.8,453,122.52Z"/><path class="cls-5" d="M184.19,61.46c.12-.63.25-1.26.38-1.88a.9.9,0,0,0-.34-.06A1,1,0,0,0,184.19,61.46Z"/><path class="cls-5" d="M279.44,70.12a1,1,0,0,0,0-1.94,1,1,0,0,0,0,1.94Z"/><path class="cls-5" d="M88.85,157.05a1,1,0,0,0,0-1.94,1,1,0,0,0,0,1.94Z"/><path class="cls-5" d="M164.78,97.56l-1.15,1.15a1,1,0,1,0,1.38,1.37l1.15-1.16a1,1,0,1,0-1.38-1.36Z"/><path class="cls-5" d="M568.54,193.61h-1.15a2.29,2.29,0,0,1,0-4.58h1.15a2.29,2.29,0,0,1,0,4.58Z"/><path class="cls-5" d="M327.87,208.1a2.29,2.29,0,1,1,2.26-2.3,2.31,2.31,0,0,1-2.26,2.3Z"/><path class="cls-5" d="M257.4,194.48a2.29,2.29,0,1,1,2.27-2.3,2.31,2.31,0,0,1-2.27,2.3Z"/><path class="cls-5" d="M105.83,209.31h-1.16a2.29,2.29,0,0,1,0-4.58h1.15a2.29,2.29,0,0,1,0,4.58Z"/><path class="cls-5" d="M64.17,189.59v1.16a2.29,2.29,0,1,1-4.57,0v-1.16a2.29,2.29,0,0,1,4.57,0Z"/><path class="cls-5" d="M39.24,240.49v1.15a2.29,2.29,0,1,1-4.57,0v-1.16a2.29,2.29,0,1,1,4.57,0Z"/><path class="cls-5" d="M63.51,220.84a2.29,2.29,0,1,1,2.27-2.31,2.31,2.31,0,0,1-2.27,2.31Z"/><path class="cls-5" d="M156.48,173.31a2.29,2.29,0,1,1,2.27-2.3,2.31,2.31,0,0,1-2.27,2.3Z"/><path class="cls-5" d="M492.69,347.29a4.23,4.23,0,1,1,4.2-4.26,4.26,4.26,0,0,1-4.2,4.26Z"/><path class="cls-5" d="M376.67,169.42a.94.94,0,0,0-.21.6,5.47,5.47,0,0,1-.06,1.18l-.06.13s0,0,0,0h-.06c-1.24,0-1.24,2,0,1.94a2,2,0,0,0,1.88-1.3,3,3,0,0,0,.19-.77C377.77,170.66,377.21,170.05,376.67,169.42Zm-.32,1.93Zm0,0h0C376.42,171.35,376.41,171.35,376.36,171.36Z"/><path class="cls-5" d="M305.1,179.05a1,1,0,0,1,0-1.94,1,1,0,0,1,0,1.94Z"/><path class="cls-5" d="M157,244.37a1,1,0,0,1,0-2,1,1,0,0,1,0,2Z"/><path class="cls-5" d="M183.53,202.77v-1.15a1,1,0,0,1,1.94,0v1.16a1,1,0,0,1-1.94,0Z"/><path class="cls-5" d="M125.83,223a1,1,0,0,1,0-1.94,1,1,0,0,1,0,1.94Z"/><path class="cls-5" d="M83.13,213.74a1,1,0,0,1,0-1.94,1,1,0,0,1,0,1.94Z"/><path class="cls-5" d="M108.33,242.81a2.31,2.31,0,0,1-.44,1.71,2.21,2.21,0,0,1-1.68.42,1,1,0,1,1,0-1.94h.61c.22,0-.26.06,0,0s-.26.11-.14,0-.21.19-.12.1-.17.24-.1.12-.1.28-.06.15,0-.06,0-.09,0,.28,0,.12,0-.41,0-.62a1,1,0,0,1,1.94,0Z"/><path class="cls-5" d="M67,274.52a1,1,0,0,1,0-1.94,1,1,0,0,1,0,1.94Z"/><path class="cls-5" d="M337.15,328.73l1.15,1.15a1,1,0,0,1,0,1.37,1,1,0,0,1-1.38,0l-1.15-1.16a1,1,0,1,1,1.38-1.36Z"/><path class="cls-5" d="M143.67,325.88a2.21,2.21,0,0,0-.38,1.23,2.29,2.29,0,0,0,4.54.4C146.42,327,145,326.49,143.67,325.88Z"/><path class="cls-5" d="M94.69,326.36a2.29,2.29,0,1,0-2.27-2.3,2.31,2.31,0,0,0,2.27,2.3Z"/><path class="cls-5" d="M92.55,356v1.16a2.29,2.29,0,1,0,4.57,0v-1.16a2.29,2.29,0,0,0-4.57,0Z"/><path class="cls-5" d="M434.19,361.8V363a2.29,2.29,0,1,0,4.57,0v-1.16a2.29,2.29,0,0,0-4.57,0Z"/><path class="cls-5" d="M409.91,342.15a2.29,2.29,0,1,0-2.27-2.31,2.31,2.31,0,0,0,2.27,2.31Z"/><path class="cls-5" d="M256.16,350.16a2.29,2.29,0,1,0-2.27-2.3,2.31,2.31,0,0,0,2.27,2.3Z"/><path class="cls-5" d="M167.2,391.47v1.15a4.23,4.23,0,1,0,8.45.06v-1.15a4.23,4.23,0,1,0-8.45-.06Z"/><path class="cls-5" d="M391.43,376.45a4.23,4.23,0,1,0-4.19-4.26,4.28,4.28,0,0,0,4.19,4.26Z"/><path class="cls-5" d="M91.3,405.42a4.23,4.23,0,1,0-4.19-4.26,4.28,4.28,0,0,0,4.19,4.26Z"/><path class="cls-5" d="M136.36,378.76a4.23,4.23,0,1,0-4.2-4.26,4.27,4.27,0,0,0,4.2,4.26Z"/><path class="cls-5" d="M42.56,371.32v1.16a2.56,2.56,0,1,0,5.12,0v-1.16a2.56,2.56,0,1,0-5.12,0Z"/><path class="cls-5" d="M65.58,397a1.18,1.18,0,0,0,0-2.35,1.18,1.18,0,0,0,0,2.35Z"/><path class="cls-5" d="M55.59,388.21h1.15a1,1,0,0,0,0-1.94H55.6a1,1,0,0,0,0,1.94Z"/><path class="cls-5" d="M95,291.32a5.36,5.36,0,0,0,.23,2,2,2,0,0,0,1.89,1.3c1.25.05,1.26-1.9,0-1.94-.13,0-.16,0-.09,0s-.11-.1,0,0,0,.08,0,0c.09.16,0-.11,0-.14a4.86,4.86,0,0,1-.07-1.18,1,1,0,0,0-1.94,0Z"/><path class="cls-5" d="M115.61,355.85a1,1,0,0,0,0-1.94,1,1,0,0,0,0,1.94Z"/><path class="cls-5" d="M189.18,351.12l1.16,1.15a1,1,0,0,0,1.36-1.38l-1.15-1.15a1,1,0,0,0-1.37,0,1,1,0,0,0,0,1.38Z"/><path class="cls-5" d="M316.43,365.68a1,1,0,0,0,0-1.95,1,1,0,0,0,0,1.95Z"/><path class="cls-5" d="M289.89,324.08v-1.15a1,1,0,1,0-1.94,0v1.16a1,1,0,0,0,1.94,0Z"/><path class="cls-5" d="M347.59,344.3a1,1,0,0,0,0-1.94,1,1,0,0,0,0,1.94Z"/><path class="cls-5" d="M365.1,364.12a2.35,2.35,0,0,0,.43,1.71,2.23,2.23,0,0,0,1.69.42,1,1,0,0,0,0-1.94h-.61c-.23,0,.26.06,0,0s.25.11.13.05.22.19.13.1.16.24.09.12.11.28.07.15a.29.29,0,0,1,0-.09c0-.15,0,.28,0,.12s0-.41,0-.62a1,1,0,0,0-1.94,0Z"/><path class="cls-5" d="M465.8,371.75l1.15,1.16a1,1,0,0,0,1.38,0,1,1,0,0,0,0-1.37l-1.16-1.16a1,1,0,0,0-1.36,1.38Z"/><path class="cls-5" d="M459.45,329a1,1,0,0,0,0-1.94,1,1,0,0,0,0,1.94Z"/><path class="cls-5" d="M406.39,395.83a1,1,0,0,0,0-1.94,1,1,0,0,0,0,1.94Z"/><path class="cls-5" d="M203.11,403.13a1,1,0,0,0,0-1.94,1,1,0,0,0,0,1.94Z"/><path class="cls-5" d="M222,369.93a1,1,0,0,0,0-1.94,1,1,0,0,0,0,1.94Z"/><path class="cls-5" d="M116.76,428.65a1,1,0,0,0,0-1.94,1,1,0,0,0,0,1.94Z"/><path class="cls-5" d="M68.28,439.05a1,1,0,0,0,0-1.94,1,1,0,0,0,0,1.94Z"/><path class="cls-5" d="M136.28,450l-1.16,1.15a1,1,0,0,0,1.38,1.37l1.15-1.16a1,1,0,1,0-1.37-1.36Z"/><path class="cls-5" d="M484.61,419v1.16a2.29,2.29,0,0,1-4.58,0V419a2.29,2.29,0,0,1,4.58,0Z"/><path class="cls-5" d="M309.4,506.51h-1.15a2.29,2.29,0,1,1,0-4.57h1.15a2.29,2.29,0,0,1,0,4.57Z"/><path class="cls-5" d="M275.77,382.85V384a2.29,2.29,0,0,1-4.58,0v-1.16a2.29,2.29,0,0,1,4.58,0Z"/><path class="cls-5" d="M241.2,380.54v.51a2.29,2.29,0,1,1-4.57,0v-.51a2.29,2.29,0,1,1,4.57,0v.51a2.29,2.29,0,1,1-4.57,0v-.51a2.29,2.29,0,1,1,4.57,0Z"/><path class="cls-5" d="M359.75,456.22a2.29,2.29,0,1,1,2.27-2.31,2.31,2.31,0,0,1-2.27,2.31Z"/><path class="cls-5" d="M393.23,453.22a2.29,2.29,0,1,1,2.27-2.3,2.32,2.32,0,0,1-2.27,2.3Z"/><path class="cls-5" d="M395.36,482.88V484a2.29,2.29,0,1,1-4.57,0v-1.15a2.29,2.29,0,1,1,4.57,0Z"/><path class="cls-5" d="M257,452.63v1.16a2.29,2.29,0,0,1-4.57,0v-1.16a2.29,2.29,0,1,1,4.57,0Z"/><path class="cls-5" d="M120.32,457.48h-1.16a2.29,2.29,0,0,1,0-4.58h1.15a2.29,2.29,0,1,1,0,4.58Z"/><path class="cls-5" d="M78.67,437.76v1.16a2.29,2.29,0,0,1-4.58,0v-1.16a2.29,2.29,0,0,1,4.58,0Z"/><path class="cls-5" d="M53.73,488.66v1.16a2.29,2.29,0,0,1-4.57,0v-1.16a2.29,2.29,0,0,1,4.57,0Z"/><path class="cls-5" d="M78,469a2.29,2.29,0,1,1,2.27-2.31A2.32,2.32,0,0,1,78,469Z"/><path class="cls-5" d="M418.08,412.38v1.15a4.23,4.23,0,1,1-8.45.07v-1.16a4.23,4.23,0,1,1,8.45-.06Z"/><path class="cls-5" d="M316.57,412.69a4.23,4.23,0,1,1,4.2-4.26,4.27,4.27,0,0,1-4.2,4.26Z"/><path class="cls-5" d="M96.49,503.31a4.23,4.23,0,1,1,4.19-4.26,4.28,4.28,0,0,1-4.19,4.26Z"/><path class="cls-5" d="M273.76,474.79a4.23,4.23,0,1,1,4.2-4.26,4.26,4.26,0,0,1-4.2,4.26Z"/><path class="cls-5" d="M338.57,387.25a5.34,5.34,0,0,1-.23,2,2,2,0,0,1-1.89,1.3c-1.25,0-1.26-1.89,0-1.94.13,0,.16,0,.09,0s.11-.1,0,0-.05.07,0,0c-.09.16,0-.1,0-.13a4.9,4.9,0,0,0,.07-1.18,1,1,0,0,1,1.94,0Z"/><path class="cls-5" d="M442.24,442l-1.16,1.15a1,1,0,0,1-1.37,0,1,1,0,0,1,0-1.38l1.15-1.15a1,1,0,0,1,1.37,1.38Z"/><path class="cls-5" d="M319.59,427.22a1,1,0,0,1,0-1.94,1,1,0,0,1,0,1.94Z"/><path class="cls-5" d="M198,450.94v-1.15a1,1,0,0,1,1-1,1,1,0,0,1,1,1v1.16a1,1,0,1,1-1.94,0Z"/><path class="cls-5" d="M160.87,474.19a1,1,0,0,1,0-1.94,1,1,0,0,1,0,1.94Z"/><path class="cls-5" d="M97.62,461.91a1,1,0,0,1,0-1.94,1,1,0,0,1,0,1.94Z"/><path class="cls-5" d="M122.82,491a2.35,2.35,0,0,1-.43,1.71,2.24,2.24,0,0,1-1.69.42,1,1,0,1,1,0-1.94c.2,0,.4,0,.61,0s-.26.06,0,0-.25.11-.13,0-.22.19-.13.1-.16.24-.1.12-.1.28-.06.15a.29.29,0,0,0,0-.09c0-.15,0,.28,0,.12s0-.41,0-.61a1,1,0,0,1,1.94,0Z"/><path class="cls-5" d="M37.61,462.89a1,1,0,0,1,0-1.95,1,1,0,0,1,0,1.95Z"/><path class="cls-5" d="M81.53,522.7a1,1,0,0,1,0-2,1,1,0,0,1,0,2Z"/><path class="cls-5" d="M284.81,530a1,1,0,0,1,0-2,1,1,0,0,1,0,2Z"/><path class="cls-5" d="M265.92,496.79a1,1,0,0,1,0-1.94,1,1,0,0,1,0,1.94Z"/><path class="cls-5" d="M289.21,436.49a1,1,0,0,1,0-1.94,1,1,0,0,1,0,1.94Z"/><path class="cls-5" d="M278.06,587.58l-1.15.07a2.29,2.29,0,1,0,.25,4.57l1.15-.07a2.29,2.29,0,1,0-.25-4.57Z"/><path class="cls-5" d="M367.37,407.87a4.23,4.23,0,1,0,4-4.45,4.27,4.27,0,0,0-4,4.45Z"/><path class="cls-5" d="M159.59,793.53a4.23,4.23,0,1,0,4-4.46,4.27,4.27,0,0,0-4,4.46Z"/><path class="cls-5" d="M271.44,555.29l-1.16.07a2.57,2.57,0,0,0,.28,5.13l1.16-.08a2.56,2.56,0,0,0-.28-5.12Z"/><path class="cls-5" d="M243.68,552.63l.07,1.15a1,1,0,0,0,1,.92,1,1,0,0,0,.91-1l-.07-1.16a1,1,0,0,0-1.94.11Z"/><path class="cls-5" d="M281.57,647a1,1,0,0,0,1.94-.11,1,1,0,0,0-1.94.11Z"/><path class="cls-5" d="M317.41,538.24a1,1,0,0,0-1.37,0h0l-1.19,1.12a1,1,0,0,0,0,1.37,1,1,0,0,0,1.37,0C316.59,540.36,317.77,538.62,317.41,538.24Z"/><path class="cls-5" d="M124.07,583.46a1,1,0,0,1,1.93-.14,1,1,0,0,1-1.93.14Z"/><path class="cls-5" d="M95.31,539.77l-1.15.07a4.23,4.23,0,0,0,.46,8.45l1.16-.07a4.23,4.23,0,0,0-.47-8.45Z"/><path class="cls-5" d="M39.41,607.65a5.23,5.23,0,0,0-2,.35,2,2,0,0,0-1.18,2,1,1,0,0,0,1.93-.1v-.1c0,.13.1-.11,0,0s-.07.06,0,0c-.16.11.1,0,.13,0a5.68,5.68,0,0,1,1.17-.14,1,1,0,0,0-.11-1.93Z"/><path class="cls-5" d="M69.42,568l-1.08,1.23a1,1,0,1,0,1.46,1.28l1.08-1.23A1,1,0,0,0,69.42,568Z"/><path class="cls-5" d="M480.44,6.85V8A2.29,2.29,0,1,0,485,8V6.88a2.29,2.29,0,1,0-4.58,0Z"/><path class="cls-5" d="M488,171.44a1,1,0,0,0,0-1.94,1,1,0,0,0,0,1.94Z"/><path class="cls-5" d="M539.29,207.88V209a2.29,2.29,0,1,1-4.57,0v-1.15a2.29,2.29,0,1,1,4.57,0Z"/><path class="cls-5" d="M555.8,326.84a2.27,2.27,0,0,0,1.57.66,2.32,2.32,0,0,0,2.31-2.27v-.51a1.79,1.79,0,0,0,0-.24C558.35,325.21,557.06,326,555.8,326.84Z"/><path class="cls-5" d="M445,345.89a2.29,2.29,0,1,0-2.27-2.31,2.31,2.31,0,0,0,2.27,2.31Z"/><path class="cls-5" d="M530.32,342.24v1.16a2.29,2.29,0,1,0,4.57,0v-1.15a2.29,2.29,0,1,0-4.57,0Z"/><path class="cls-5" d="M435.76,395.23a4.23,4.23,0,1,0-4.2-4.26,4.26,4.26,0,0,0,4.2,4.26Z"/><path class="cls-5" d="M502.51,419.61a1,1,0,0,0,0-1.94,1,1,0,0,0,0,1.94Z"/><path class="cls-5" d="M521.39,386.4a1,1,0,0,0,0-1.94,1,1,0,0,0,0,1.94Z"/><path class="cls-5" d="M498.11,326.1a1,1,0,0,0,0-1.94,1,1,0,0,0,0,1.94Z"/><path class="cls-5" d="M605.08,451.35v1.16a2.29,2.29,0,0,1-4.57,0v-1.15a2.29,2.29,0,1,1,4.57,0Z"/><path class="cls-5" d="M470.89,485.48a2.29,2.29,0,1,1,2.27-2.3,2.31,2.31,0,0,1-2.27,2.3Z"/><path class="cls-5" d="M470.88,509a1,1,0,0,1,0-1.94,1,1,0,0,1,0,1.94Z"/><path class="cls-5" d="M497.42,467.42v-1.16a1,1,0,1,1,1.94,0v1.15a1,1,0,0,1-1.94,0Z"/><path class="cls-5" d="M711.37,545.53a2.29,2.29,0,1,0-2.27-2.31,2.31,2.31,0,0,0,2.27,2.31Z"/><path class="cls-5" d="M635.22,751.84V753a2.29,2.29,0,1,0,4.57,0v-1.15a2.29,2.29,0,1,0-4.57,0Z"/><path class="cls-5" d="M678,551.7a4.23,4.23,0,1,0-4.2-4.26,4.27,4.27,0,0,0,4.2,4.26Z"/><path class="cls-5" d="M365.22,802.82a4.23,4.23,0,1,0-4.2-4.26,4.26,4.26,0,0,0,4.2,4.26Z"/><path class="cls-5" d="M676.64,579.8V581a2.56,2.56,0,1,0,5.12,0v-1.16a2.56,2.56,0,1,0-5.12,0Z"/><path class="cls-5" d="M682.26,616.18a1.18,1.18,0,0,0,0-2.36,1.18,1.18,0,0,0,0,2.36Z"/><path class="cls-5" d="M672.27,607.37h1.15a1,1,0,0,0,0-1.94h-1.16a1,1,0,0,0,0,1.94Z"/><path class="cls-5" d="M732.29,575a1,1,0,0,0,0-1.95,1,1,0,0,0,0,1.95Z"/><path class="cls-5" d="M733.44,647.82a1,1,0,0,0,0-2,1,1,0,0,0,0,2Z"/><path class="cls-5" d="M685,658.22a1,1,0,0,0,0-2,1,1,0,0,0,0,2Z"/><path class="cls-5" d="M753,669.2l-1.16,1.15a1,1,0,0,0,0,1.38,1,1,0,0,0,1.37,0l1.15-1.16A1,1,0,1,0,753,669.2Z"/><path class="cls-5" d="M737,676.64h-1.16a2.29,2.29,0,0,1,0-4.58H737a2.29,2.29,0,0,1,0,4.58Z"/><path class="cls-5" d="M695.35,656.92v1.16a2.29,2.29,0,0,1-4.58,0V657a2.29,2.29,0,1,1,4.58,0Z"/><path class="cls-5" d="M670.41,707.82V709a2.29,2.29,0,0,1-4.57,0v-1.15a2.29,2.29,0,1,1,4.57,0Z"/><path class="cls-5" d="M694.69,688.17a2.29,2.29,0,1,1,2.27-2.3,2.32,2.32,0,0,1-2.27,2.3Z"/><path class="cls-5" d="M730.53,799.6a4.23,4.23,0,1,1,4.19-4.26,4.28,4.28,0,0,1-4.19,4.26Z"/><path class="cls-5" d="M714.3,681.08a1,1,0,0,1,0-1.94,1,1,0,0,1,0,1.94Z"/><path class="cls-5" d="M739.5,710.14a2.33,2.33,0,0,1-.43,1.71,2.2,2.2,0,0,1-1.69.43,1,1,0,1,1,0-1.94c.2,0,.41,0,.61,0s-.26.06,0,0-.25.12-.13.06-.22.18-.13.09-.16.24-.1.13-.1.28-.06.14a.29.29,0,0,0,0-.09c0-.15,0,.29,0,.12s0-.41,0-.61a1,1,0,0,1,1.94,0Z"/><path class="cls-5" d="M638.8,717.77l-1.16,1.16a1,1,0,1,1-1.36-1.38l1.15-1.16a1,1,0,0,1,1.37,1.38Z"/><path class="cls-5" d="M654.29,682.05a1,1,0,0,1,0-1.94,1,1,0,0,1,0,1.94Z"/><path class="cls-5" d="M698.21,741.86a1,1,0,0,1,0-1.94,1,1,0,0,1,0,1.94Z"/><path class="cls-5" d="M730.9,45.46V45.4l.06,0Z"/><path class="cls-5" d="M644.53,57.35h1.15a2.29,2.29,0,0,0,0-4.58h-1.16a2.29,2.29,0,0,0,0,4.58Z"/><path class="cls-5" d="M686.18,37.63v1.16a2.29,2.29,0,0,0,4.57,0V37.67a2.29,2.29,0,1,0-4.57,0Z"/><path class="cls-5" d="M711.12,88.53v1.16a2.29,2.29,0,1,0,4.57,0V88.57a2.29,2.29,0,1,0-4.57,0Z"/><path class="cls-5" d="M686.84,68.88a2.29,2.29,0,1,0-2.27-2.3,2.3,2.3,0,0,0,2.27,2.3Z"/><path class="cls-5" d="M668.36,103.18a4.23,4.23,0,1,0-4.19-4.26,4.28,4.28,0,0,0,4.19,4.26Z"/><path class="cls-5" d="M624.53,71a1,1,0,0,0,0-1.94,1,1,0,0,0,0,1.94Z"/><path class="cls-5" d="M641.55,12.88a1,1,0,0,0,0-2,1,1,0,0,0,0,2Z"/><path class="cls-5" d="M642,90.85a2.33,2.33,0,0,0,.43,1.71,2.19,2.19,0,0,0,1.69.43,1,1,0,0,0,0-1.94c-.2,0-.41,0-.61,0s.26.07,0,0,.25.12.13.06.22.18.13.09.16.24.1.13.1.28.06.14a.29.29,0,0,1,0-.09c0-.15,0,.29,0,.12s0-.41,0-.61a1,1,0,0,0-1.94,0Z"/><path class="cls-5" d="M296.3,22.5l1.15,1.16a1,1,0,0,0,1.37-1.38l-1.16-1.16a1,1,0,1,0-1.36,1.38Z"/><path class="cls-5" d="M727.24,62.76a1,1,0,0,0,0-1.94,1,1,0,0,0,0,1.94Z"/><path class="cls-5" d="M683.32,122.57a1,1,0,0,0,0-1.94,1,1,0,0,0,0,1.94Z"/><path class="cls-5" d="M584.39,31.08v1.15a2.29,2.29,0,1,1-4.57,0V31.11a2.29,2.29,0,1,1,4.57,0Z"/><path class="cls-5" d="M619.54,142.23h-1.16a2.29,2.29,0,0,1,0-4.58h1.16a2.29,2.29,0,0,1,0,4.58Z"/><path class="cls-5" d="M616.68,170a2.29,2.29,0,1,1,2.26-2.3,2.32,2.32,0,0,1-2.26,2.3Z"/><path class="cls-5" d="M667.55,166.91a2.29,2.29,0,1,1,2.26-2.31,2.32,2.32,0,0,1-2.26,2.31Z"/><path class="cls-5" d="M669.68,196.57v1.15a2.29,2.29,0,1,1-4.57,0V196.6a2.29,2.29,0,1,1,4.57,0Z"/><path class="cls-5" d="M692.4,126.06v1.16a4.23,4.23,0,1,1-8.45.06v-1.16a4.23,4.23,0,1,1,8.45-.06Z"/><path class="cls-5" d="M700.9,173.08a4.23,4.23,0,1,1,4.19-4.26,4.28,4.28,0,0,1-4.19,4.26Z"/><path class="cls-5" d="M625.88,219.3a3.85,3.85,0,0,0,1.27-.21c.68-.53,1.37-1,2.06-1.5a4.17,4.17,0,0,0,.86-2.55,4.23,4.23,0,1,0-4.19,4.26Z"/><path class="cls-5" d="M702.28,201.19v1.15a2.57,2.57,0,1,1-5.13,0v-1.16a2.57,2.57,0,1,1,5.13,0Z"/><path class="cls-5" d="M696.65,237.56a1.18,1.18,0,0,1,0-2.36,1.18,1.18,0,0,1,0,2.36Z"/><path class="cls-5" d="M706.65,228.75h-1.16a1,1,0,0,1,0-1.94h1.15a1,1,0,0,1,1,1,1,1,0,0,1-1,1Z"/><path class="cls-5" d="M581,10.92a5.34,5.34,0,0,1-.23,2,2,2,0,0,1-1.89,1.3c-1.25,0-1.26-1.9,0-1.94.13,0,.16,0,.09,0s.11-.1,0,0-.05.08,0,0c-.09.16,0-.11,0-.13a5,5,0,0,0,.07-1.19,1,1,0,0,1,1.94,0Z"/><path class="cls-5" d="M646.63,196.4a1,1,0,0,1,0-1.94,1,1,0,0,1,0,1.94Z"/><path class="cls-5" d="M716.56,155.67l-1.16,1.16a1,1,0,1,1-1.36-1.38l1.15-1.16a1,1,0,0,1,1.37,1.38Z"/><path class="cls-5" d="M694,279.6a1,1,0,0,1,0-1.94,1,1,0,0,1,0,1.94Z"/><path class="cls-5" d="M700.67,285.81V287a2.29,2.29,0,1,0,4.58,0v-1.15a2.29,2.29,0,1,0-4.58,0Z"/><path class="cls-5" d="M725.61,336.71v1.15a2.29,2.29,0,1,0,4.57,0v-1.15a2.29,2.29,0,1,0-4.57,0Z"/><path class="cls-5" d="M701.33,317.05a2.29,2.29,0,1,0-2.27-2.3,2.32,2.32,0,0,0,2.27,2.3Z"/><path class="cls-5" d="M682.85,351.35a4.23,4.23,0,1,0-4.19-4.26,4.28,4.28,0,0,0,4.19,4.26Z"/><path class="cls-5" d="M607.86,340.58a1,1,0,0,0,0-1.94,1,1,0,0,0,0,1.94Z"/><path class="cls-5" d="M681.72,310a1,1,0,0,0,0-1.94,1,1,0,0,0,0,1.94Z"/><path class="cls-5" d="M656.52,339a2.31,2.31,0,0,0,.43,1.7,2.2,2.2,0,0,0,1.69.43,1,1,0,1,0,0-1.94c-.2,0-.41,0-.61,0s.26.07,0,0,.25.12.13.06.22.18.13.09.16.24.1.13.1.28.06.14a.29.29,0,0,1,0-.09c0-.15,0,.29,0,.12s0-.41,0-.61a1,1,0,1,0-1.94,0Z"/><path class="cls-5" d="M741.73,310.93a1,1,0,0,0,0-1.94,1,1,0,0,0,0,1.94Z"/><path class="cls-5" d="M697.81,370.74a1,1,0,0,0,0-1.94,1,1,0,0,0,0,1.94Z"/><path class="cls-5" d="M640.62,373.43v1.16a2.29,2.29,0,1,1-4.57,0v-1.15a2.29,2.29,0,1,1,4.57,0Z"/><path class="cls-5" d="M624.76,391.84H623.6a2.29,2.29,0,0,1,0-4.57h1.15a2.29,2.29,0,0,1,0,4.57Z"/><path class="cls-5" d="M581.55,347v1.16a2.29,2.29,0,1,1-4.57,0V347a2.29,2.29,0,1,1,4.57,0Z"/><path class="cls-5" d="M562.49,370.82v.51a2.29,2.29,0,1,1-4.57,0v-.52a2.29,2.29,0,1,1,4.57,0v.51a2.29,2.29,0,1,1-4.57,0v-.52a2.29,2.29,0,1,1,4.57,0Z"/><path class="cls-5" d="M633.78,431.18a2.29,2.29,0,1,1,2.27-2.3,2.31,2.31,0,0,1-2.27,2.3Z"/><path class="cls-5" d="M684.65,428.13a2.29,2.29,0,1,1,2.27-2.31,2.31,2.31,0,0,1-2.27,2.31Z"/><path class="cls-5" d="M686.79,457.79v1.15a2.29,2.29,0,1,1-4.57,0v-1.16a2.29,2.29,0,1,1,4.57,0Z"/><path class="cls-5" d="M709.5,387.29v1.15a4.23,4.23,0,1,1-8.45.06v-1.15a4.23,4.23,0,1,1,8.45-.06Z"/><path class="cls-5" d="M718,434.3a4.23,4.23,0,1,1,4.2-4.26,4.26,4.26,0,0,1-4.2,4.26Z"/><path class="cls-5" d="M688,507.19a4.23,4.23,0,1,1,4.19-4.26,4.28,4.28,0,0,1-4.19,4.26Z"/><path class="cls-5" d="M719.38,462.41v1.15a2.56,2.56,0,1,1-5.12,0v-1.15a2.56,2.56,0,1,1,5.12,0Z"/><path class="cls-5" d="M713.76,498.78a1.18,1.18,0,0,1,0-2.36,1.18,1.18,0,0,1,0,2.36Z"/><path class="cls-5" d="M723.75,490H722.6a1,1,0,0,1,0-2h1.16a1,1,0,0,1,0,2Z"/><path class="cls-5" d="M684.32,393.09a5.28,5.28,0,0,1-.23,2,2,2,0,0,1-1.89,1.31c-1.25,0-1.26-1.9,0-1.95h.09c-.13,0,.11-.11,0,0s0,.07,0,0c-.09.15,0-.11,0-.14a4.9,4.9,0,0,0,.07-1.18,1,1,0,0,1,1.94,0Z"/><path class="cls-5" d="M733.66,416.89l-1.15,1.16a1,1,0,1,1-1.37-1.38l1.16-1.16a1,1,0,0,1,1.36,1.38Z"/><path class="cls-5" d="M611,402.13a1,1,0,0,1,0-1.94,1,1,0,0,1,0,1.94Z"/><path class="cls-5" d="M557.35,471.69a1,1,0,0,1,0-1.94,1,1,0,0,1,0,1.94Z"/><path class="cls-5" d="M580.63,411.4a1,1,0,0,1,0-1.94,1,1,0,0,1,0,1.94Z"/><path class="cls-5" d="M505.26,505.76a1,1,0,0,0,0-1.94,1,1,0,0,0,0,1.94Z"/><path class="cls-5" d="M495.12,639.35a1.06,1.06,0,0,0-.37.07l-.56.73a.93.93,0,0,0,.92,1.14A1,1,0,0,0,495.12,639.35Z"/><path class="cls-5" d="M446.63,651.69a1,1,0,0,0,0-1.94,1,1,0,0,0,0,1.94Z"/><path class="cls-5" d="M524,619.43l-1.15,1.15a1,1,0,1,0,1.37,1.37l1.16-1.16a1,1,0,0,0-1.38-1.36Z"/><path class="cls-5" d="M498.66,670.12h-1.15a2.29,2.29,0,0,1,0-4.58h1.15a2.29,2.29,0,0,1,0,4.58Z"/><path class="cls-5" d="M457,650.4v1.16a2.29,2.29,0,0,1-4.57,0v-1.16a2.29,2.29,0,1,1,4.57,0Z"/><path class="cls-5" d="M432.08,701.3v1.16a2.29,2.29,0,0,1-4.58,0v-1.16a2.29,2.29,0,0,1,4.58,0Z"/><path class="cls-5" d="M456.35,681.65a2.29,2.29,0,1,1,2.27-2.3,2.31,2.31,0,0,1-2.27,2.3Z"/><path class="cls-5" d="M501.44,395.57a4.23,4.23,0,1,1,4.19-4.26,4.28,4.28,0,0,1-4.19,4.26Z"/><path class="cls-5" d="M476,674.55a1,1,0,0,1,0-1.94,1,1,0,0,1,0,1.94Z"/><path class="cls-5" d="M521.74,581.25a2.35,2.35,0,0,1-.43,1.71,2.21,2.21,0,0,1-1.68.42,1,1,0,0,1,0-1.94h.61c.23,0-.25.06,0,0s-.25.11-.13.05-.22.19-.12.1-.17.24-.1.12-.11.28-.06.15,0-.06,0-.09,0,.28,0,.12,0-.41,0-.62a1,1,0,0,1,1-1,1,1,0,0,1,1,1Z"/><path class="cls-5" d="M400.46,711.25l-1.15,1.16a1,1,0,0,1-1.37-1.38l1.16-1.16a1,1,0,0,1,1.36,1.38Z"/><path class="cls-5" d="M416,675.53a1,1,0,0,1,0-1.95,1,1,0,0,1,0,1.95Z"/><path class="cls-5" d="M459.88,735.34a1,1,0,0,1,0-2,1,1,0,0,1,0,2Z"/><path class="cls-5" d="M110.88,606.93a2.29,2.29,0,1,0-2.27-2.31,2.32,2.32,0,0,0,2.27,2.31Z"/><path class="cls-5" d="M33.07,530.38v1.15a2.29,2.29,0,1,0,4.57,0v-1.15a2.29,2.29,0,1,0-4.57,0Z"/><path class="cls-5" d="M77.53,613.1a4.23,4.23,0,1,0-4.2-4.26,4.27,4.27,0,0,0,4.2,4.26Z"/><path class="cls-5" d="M107.49,686a4.23,4.23,0,1,0-4.19-4.26,4.28,4.28,0,0,0,4.19,4.26Z"/><path class="cls-5" d="M76.15,641.21v1.15a2.57,2.57,0,1,0,5.13,0v-1.16a2.57,2.57,0,1,0-5.13,0Z"/><path class="cls-5" d="M81.78,677.58a1.18,1.18,0,0,0,0-2.36,1.18,1.18,0,0,0,0,2.36Z"/><path class="cls-5" d="M71.78,668.77h1.16a1,1,0,0,0,0-1.94H71.8a1,1,0,0,0,0,1.94Z"/><path class="cls-5" d="M131.8,636.42a1,1,0,0,0,0-1.94,1,1,0,0,0,0,1.94Z"/><path class="cls-5" d="M133,709.22a1,1,0,0,0,0-1.94,1,1,0,0,0,0,1.94Z"/><path class="cls-5" d="M84.48,719.62a1,1,0,0,0,0-1.94,1,1,0,0,0,0,1.94Z"/><path class="cls-5" d="M152.47,730.6l-1.15,1.15a1,1,0,1,0,1.37,1.37l1.16-1.16a1,1,0,0,0-1.38-1.36Z"/><path class="cls-5" d="M136.51,738h-1.15a2.29,2.29,0,1,1,0-4.58h1.16a2.29,2.29,0,0,1,0,4.58Z"/><path class="cls-5" d="M409.69,757.24v1.15a2.29,2.29,0,1,1-4.57,0v-1.16a2.29,2.29,0,1,1,4.57,0Z"/><path class="cls-5" d="M69.92,769.22v1.16a2.29,2.29,0,1,1-4.57,0v-1.15a2.29,2.29,0,1,1,4.57,0Z"/><path class="cls-5" d="M82.51,795.4a2.29,2.29,0,1,1,2.27-2.3,2.31,2.31,0,0,1-2.27,2.3Z"/><path class="cls-5" d="M112.68,783.87a4.23,4.23,0,1,1,4.19-4.26,4.28,4.28,0,0,1-4.19,4.26Z"/><path class="cls-5" d="M113.81,742.48a1,1,0,0,1,0-1.94,1,1,0,0,1,0,1.94Z"/><path class="cls-5" d="M134.31,800.59a2.33,2.33,0,0,1-.43,1.71,2.18,2.18,0,0,1-1.68.43,1,1,0,0,1-1-1,1,1,0,0,1,1-1c.21,0,.41,0,.61,0s-.26.06,0,0-.25.12-.13.06-.22.18-.12.09-.17.24-.1.13-.11.28-.06.14,0-.06,0-.09,0,.29,0,.12,0-.41,0-.61a1,1,0,0,1,1-1,1,1,0,0,1,1,1Z"/><path class="cls-5" d="M38.31,779.18l-1.15,1.15A1,1,0,1,1,35.79,779L37,777.8a1,1,0,0,1,1.37,0,1,1,0,0,1,0,1.38Z"/><path class="cls-5" d="M53.8,743.45a1,1,0,0,1,0-1.94,1,1,0,0,1,0,1.94Z"/><path class="cls-5" d="M97.72,803.26a1,1,0,0,1,0-1.94,1,1,0,0,1,0,1.94Z"/><path class="cls-5" d="M377.91,698a2.28,2.28,0,1,0,1.79-2.7,2.3,2.3,0,0,0-1.79,2.7Z"/><path class="cls-5" d="M348.46,701.94l-1.13.23a2.29,2.29,0,0,0,.89,4.49l1.13-.23a2.29,2.29,0,1,0-.89-4.49Z"/><path class="cls-5" d="M324.84,754.79a4.23,4.23,0,1,0,3.32-5,4.27,4.27,0,0,0-3.32,5Z"/><path class="cls-5" d="M299.89,710.7a4.23,4.23,0,1,0,3.32-5,4.26,4.26,0,0,0-3.32,5Z"/><path class="cls-5" d="M337.35,670.91l-1.13.24a2.56,2.56,0,0,0,1,5l1.13-.23a2.57,2.57,0,1,0-1-5Z"/><path class="cls-5" d="M302.91,683.78a1.18,1.18,0,0,0,2.31-.46,1.18,1.18,0,0,0-2.31.46Z"/><path class="cls-5" d="M309.5,672.2l.24,1.13a1,1,0,1,0,1.9-.38l-.23-1.13a1,1,0,0,0-1.91.38Z"/><path class="cls-5" d="M353.29,724.51a1,1,0,0,0,1.9-.38,1,1,0,0,0-1.9.38Z"/><path class="cls-5" d="M282.31,740.36a1,1,0,0,0,1.9-.38,1,1,0,0,0-1.9.38Z"/><path class="cls-5" d="M262.34,694.93a1,1,0,0,0,1.9-.38,1,1,0,0,0-1.9.38Z"/><path class="cls-5" d="M265.34,763.82l-1.36-.9a1,1,0,0,0-1.06,1.63l1.37.9a1,1,0,0,0,1-1.63Z"/><path class="cls-5" d="M254.84,749.68l-.24-1.14a2.28,2.28,0,0,1,4.47-.95l.24,1.13a2.29,2.29,0,1,1-4.47,1Z"/><path class="cls-5" d="M265.7,704.85l-1.13.23a2.29,2.29,0,0,1-1-4.47l1.13-.24a2.29,2.29,0,1,1,1,4.48Z"/><path class="cls-5" d="M53.57,681.69l-1.13.24a2.29,2.29,0,0,1-1-4.48l1.13-.23a2.29,2.29,0,1,1,1,4.47Z"/><path class="cls-5" d="M235,710.52a2.29,2.29,0,1,1,2.71,1.76,2.32,2.32,0,0,1-2.71-1.76Z"/><path class="cls-5" d="M205.19,735.58a4.22,4.22,0,1,1,5,3.25,4.28,4.28,0,0,1-5-3.25Z"/><path class="cls-5" d="M245.91,728.32a1,1,0,0,1,1.89-.41,1,1,0,0,1-1.89.41Z"/><path class="cls-5" d="M222.57,758.9a2.28,2.28,0,0,1-1.76-.08c-.53-.32-.64-1-.76-1.56a1,1,0,0,1,1.9-.41c0,.2.08.4.14.6s-.12-.24,0,0-.17-.22-.09-.12-.22-.18-.11-.1-.27-.12-.15-.07-.29,0-.15,0h.09c.16,0-.28,0-.12,0s.4-.07.6-.11a1,1,0,0,1,1.15.75,1,1,0,0,1-.74,1.15Z"/><path class="cls-5" d="M232.82,669.67a1,1,0,0,1,1.9-.4,1,1,0,0,1-1.9.4Z"/><path class="cls-5" d="M183.2,724.83a1,1,0,0,1,1.9-.4,1,1,0,0,1-1.9.4Z"/><path class="cls-5" d="M569.38,660a1,1,0,0,0,0-1.94,1,1,0,0,0,0,1.94Z"/><path class="cls-5" d="M637.38,671l-1.16,1.16a1,1,0,1,0,1.38,1.36l1.15-1.15a1,1,0,1,0-1.37-1.37Z"/><path class="cls-5" d="M621.42,678.46h-1.16a2.29,2.29,0,0,1,0-4.58h1.15a2.29,2.29,0,0,1,0,4.58Z"/><path class="cls-5" d="M579.76,658.75v1.15a2.29,2.29,0,1,1-4.57,0v-1.16a2.29,2.29,0,1,1,4.57,0Z"/><path class="cls-5" d="M667,768.8V770a2.29,2.29,0,1,1-4.57,0v-1.15a2.29,2.29,0,1,1,4.57,0Z"/><path class="cls-5" d="M579.11,690a2.29,2.29,0,1,1,2.26-2.31,2.32,2.32,0,0,1-2.26,2.31Z"/><path class="cls-5" d="M597.59,724.29a4.23,4.23,0,1,1,4.19-4.26,4.27,4.27,0,0,1-4.19,4.26Z"/><path class="cls-5" d="M598.72,682.9a1,1,0,0,1,0-1.94,1,1,0,0,1,0,1.94Z"/><path class="cls-5" d="M623.92,712a2.31,2.31,0,0,1-.43,1.7,2.2,2.2,0,0,1-1.69.43,1,1,0,1,1,0-1.94h.61c.22,0-.26.06,0,0s-.25.12-.14.06-.21.18-.12.09-.17.24-.1.13-.1.28-.06.14a.31.31,0,0,0,0-.08c0-.16,0,.28,0,.11s0-.41,0-.61a1,1,0,1,1,1.94,0Z"/><path class="cls-5" d="M523.22,719.6l-1.16,1.15a1,1,0,0,1-1.37,0,1,1,0,0,1,0-1.38l1.15-1.15a1,1,0,0,1,1.37,0,1,1,0,0,1,0,1.38Z"/><path class="cls-5" d="M538.71,683.87a1,1,0,0,1,0-1.94,1,1,0,0,1,0,1.94Z"/><path class="cls-5" d="M582.63,743.68a1,1,0,0,1,0-1.94,1,1,0,0,1,0,1.94Z"/><path class="cls-5" d="M324.08,31.26a2.29,2.29,0,1,0-2.27-2.3,2.31,2.31,0,0,0,2.27,2.3Z"/><path class="cls-5" d="M211.44,17.86a4.22,4.22,0,0,0-1.83-8,4.29,4.29,0,0,0-4.17,3.42C207.53,14.68,209.51,16.28,211.44,17.86Z"/><path class="cls-5" d="M337.57,153.56c-.94.39-1.89.72-2.85,1a.93.93,0,0,0,.26.51,1,1,0,0,0,1.37,0l1.16-1.15a1,1,0,0,0,.24-.44Z"/><path class="cls-5" d="M144.07,165.29a2.27,2.27,0,0,0,1.88,3.6h1.15a2.31,2.31,0,0,0,2.27-2.31,2.22,2.22,0,0,0-.39-1.24A44.78,44.78,0,0,1,144.07,165.29Z"/><path class="cls-5" d="M200.06,800.66a4.23,4.23,0,1,1,4.2-4.26,4.26,4.26,0,0,1-4.2,4.26Z"/><path class="cls-5" d="M322.67,193.51a2.35,2.35,0,0,1-.43,1.71,2.21,2.21,0,0,1-1.68.42,1,1,0,0,1,0-1.94h.61c.23,0-.26.06,0,0s-.25.12-.13.06-.22.18-.12.1-.17.23-.1.12-.11.28-.06.14a.31.31,0,0,1,0-.08c0-.16,0,.28,0,.11s0-.41,0-.61a1,1,0,1,1,1.94,0Z"/><path class="cls-5" d="M503.92,748.76a2.29,2.29,0,1,0-2.27-2.31,2.3,2.3,0,0,0,2.27,2.31Z"/><path class="cls-5" d="M659.73,490.29v1.16a2.29,2.29,0,1,0,4.57,0v-1.16a2.29,2.29,0,0,0-4.57,0Z"/><path class="cls-5" d="M437.23,691.17a4.23,4.23,0,1,0-4.19-4.26,4.28,4.28,0,0,0,4.19,4.26Z"/><path class="cls-5" d="M467.2,764.06a4.23,4.23,0,1,0-4.2-4.26,4.27,4.27,0,0,0,4.2,4.26Z"/><path class="cls-5" d="M365.39,747.57v1.15a2.56,2.56,0,1,0,5.12,0V747.6a2.56,2.56,0,1,0-5.12,0Z"/><path class="cls-5" d="M441.48,755.65a1.18,1.18,0,0,0,0-2.36,1.18,1.18,0,0,0,0,2.36Z"/><path class="cls-5" d="M431.49,746.84h1.15a1,1,0,1,0,0-1.94H431.5a1,1,0,1,0,0,1.94Z"/><path class="cls-5" d="M491.5,714.49a1,1,0,0,0,0-1.94,1,1,0,0,0,0,1.94Z"/><path class="cls-5" d="M492.66,787.29a1,1,0,0,0,0-1.94,1,1,0,0,0,0,1.94Z"/><path class="cls-5" d="M444.18,797.69a1,1,0,0,0,0-1.94,1,1,0,0,0,0,1.94Z"/><path class="cls-5" d="M512.17,808.67,511,809.82a1,1,0,1,0,1.38,1.37l1.15-1.16a1,1,0,0,0-1.38-1.36Z"/><path class="cls-5" d="M496.21,816.11h-1.15a2.29,2.29,0,0,1,0-4.58h1.15a2.29,2.29,0,0,1,0,4.58Z"/><path class="cls-5" d="M454.56,796.4v1.15a2.29,2.29,0,1,1-4.57,0v-1.15a2.29,2.29,0,1,1,4.57,0Z"/><path class="cls-5" d="M527.17,825.88H55.8c6.07-13,12.31-25.75,22.77-37.22,22.52-24.66,49-46,79.42-60,57.18-26.32,121.69-28.52,183.44-28.11,29.34.19,54.44,8.6,82.45,15.89,24.39,6.35,51.65,12,69.51,31.46C510.15,766.18,520.76,796.88,527.17,825.88Z"/><path class="cls-3" d="M324.13,536.13c10,8.11,38.24,11.33,39.22,29.37-14.39,1.32-26.51-3.65-41.32-1.74C318.53,632,310.54,703.48,306,767.65c-4.67-11.07,3.34-74.3-4.25-96.92.54,31.58,1.89,64.41-.36,95.85-4.31-21.25-5.85-64.11-7.33-94-23-1.87-52.23,3.66-75.49,4.79C224.36,705.72,222,743,232.24,770c-15.29-23.28-12.75-67.34-23.41-91,.18,29.54-1.78,67.55,3.95,96.5-9.37-31.93-10.39-73.61-12.23-110.53-3.07,3.38-2.05,3.7-4.58,9.89-1.1-2.94-.66-6.2-.43-9.26-.33.73-2.18,6.31-2.74,6.42,0-25.86.15-33.23,25.8-39.27,21.9-5.14,52.64-6.24,75.39-5.18,7.54-26.27,9.6-70.92,22.71-91.44Z"/><path class="cls-3" d="M305.59,528.78c3.77,3.75,7.62,7.35,11.58,10.72l-1,.89c-3.57-3-7.05-6.28-10.46-9.63l-1.41-1.4c-3.58-3.58-7.09-7.3-10.55-11.06-9.74-1.25-18.88-4.93-27.74-8.5l-1.77-.72.5-1.24,1.77.72c8.3,3.34,16.82,6.78,25.81,8.19-2.74-3-5.44-6-8.15-9-4.71-5.25-9.16-10.21-13.67-14.94l1-.92c4.52,4.75,9,9.71,13.7,15q4.59,5.12,9.23,10.21c.47.49.92,1,1.38,1.48h0c2.77,3,5.58,6,8.43,8.84-.09-2.44-.16-5-.23-7.64-.34-12.3-.73-26.23-3.69-35.26l1.27-.42c3,9.21,3.41,23.25,3.75,35.64C305.38,522.86,305.47,525.91,305.59,528.78Z"/><path class="cls-3" d="M319.87,516.82a187.24,187.24,0,0,1,4.35,19.52l.27,1.76-1.25.57c-.09-.6-.18-1.19-.28-1.79a183.49,183.49,0,0,0-4.22-19.15c-.12-.45-.25-.91-.38-1.37-1.54-5.44-3.34-10.86-5.36-16.11a15.79,15.79,0,0,1-7.51-.49c-8.77-2.48-18.22-10.65-22-19l1.22-.55c3.63,8,12.71,15.89,21.13,18.27a14.79,14.79,0,0,0,6.66.51,158.27,158.27,0,0,0-9.18-19.49l1.16-.66a157.84,157.84,0,0,1,9.31,19.82c.17.41.33.83.49,1.24,1.94,5.07,3.68,10.28,5.18,15.53,5.45-4.92,10.22-13.78,11-21.38l1.33.14C331,502.26,325.76,511.73,319.87,516.82Z"/><path class="cls-3" d="M318.65,547.78c-6.43-4.93-14-11.7-22.5-12.64,3.24,1.32,6.84,6.62,10.06,8.82,1.66,1.12,10.52,6.84,11.56,4.7Z"/><path class="cls-3" d="M323.67,537.64c-.06.05-.39.71-.28.36-2.17-7.72-10.35-12.42-17.06-15.69-.64,2.55,5.73,8.88,7.36,10.71,1.8,2,3.47,4.08,5.22,6.11.81.93,1.23,2.46,1.82,1.45Z"/></g></g></svg>