<svg xmlns="http://www.w3.org/2000/svg" viewBox="0 0 832.5 832.5"><defs><style>.cls-1{fill:#e55747;}.cls-2{fill:#76b099;}.cls-3{fill:#deaa7c;}.cls-4{fill:#5e4440;}.cls-5{fill:#ffffc5;}</style></defs><g id="Layer_2" data-name="Layer 2"><g id="Layer_1-2" data-name="Layer 1"><rect class="cls-1" width="832.5" height="832.5"/><path class="cls-2" d="M760.22,256.16C736.17,254.21,731,284,742.1,299c-6.53-3.55-12.56-.65-19.52-2.07-.28,7.32-5.16,14.08-4.09,21.7-24.42-32.6-93.12-1.72-109.58,25.76,21.72-27.24,33.75-45.33,34.67-79.46,9.2,3.59,20.55,6.85,31.22,5,3.77-9.35,4.67-20.32,4-30.48,17.38,25.23,45.08,14.48,43.93-14.66,21.75,12.12,55.95,17.49,81.32,6.84C784.72,239.61,760.22,256.16,760.22,256.16Z"/><path class="cls-3" d="M599,277.37c-10.73,57.91-22.05,114.33-33.74,168,.71-.81,1.43-1.6,2.16-2.39,11.45-52.74,22.56-108.12,33.09-164.93,11.92,4.4,33.84-8.56,28.85-23.82-11.26-1.92-18.67,7-27,13.69q2.82-15.35,5.57-30.82,1.25-6.94,2.47-13.92.57-3.21,1.13-6.44,1.4-8,2.78-16,1-5.53,1.9-11.08,1.17-6.85,2.32-13.73h0c.37-2.23.74-4.45,1.12-6.68h0a31.58,31.58,0,0,0,5.42.34h.21c8.8-.3,17.13-4.54,17.32-14.52-6.7-2.56-13.89-1.34-20.69.51.19-1.11.37-2.23.56-3.35,30.11,1.12,36.58-35.27,5.54-16.53-1,.61-2.07,1.29-3.17,2,.4-2.47.79-4.93,1.19-7.4h0c.06-.4.13-.8.19-1.19h0c10.66-5,21.32-13.71,21.17-26.26-4.27.4-9.51,2.76-13.8,5.13l-.62.35c-1.42.8-2.71,1.59-3.81,2.3.08-.49.16-1,.23-1.46.29-1.81.57-3.61.85-5.42.32-2,.63-4,1-6,15.55-8.81,22.31-14.69,26-36.2C648.8,65,643.84,72.65,638.48,79.79l-.83,1.09a69.31,69.31,0,0,1-4.71,5.62l.9-5.89,1.32-8.68c0-.15.07-.29.1-.44,2.86-12.71,6-25.56,8.1-38.29-14.91-7.07-16.43,11.86-14.2,26.64-3.37-5.06-7.49-9.14-12.54-10.53C610.9,60.88,618.34,71,625.33,80l6.9.49q-.84,5.58-1.71,11.15l-1.1,7.11c-.17,1.07-.34,2.14-.5,3.21-5-6.84-10.19-14.4-17.2-17.64-3.56,10.93,5,22.78,16.09,24.68l-.45,2.86h0l-3.16,15.87c-3.87-4.77-10-9.06-15.16-9.79-6.36,11,1.86,20.84,12.19,25.12l1,.41-1.41,8.64c-.22,1.31-.43,2.62-.65,3.93q-1.07,6.47-2.15,12.92c-.26,1.6-.53,3.2-.8,4.8-6.22-9.42-20.59-17.38-29.73-19.07-7.25,14.61,13.31,30.48,27.11,34.54L613,198.94c-6.42-8.35-17.42-15.56-27.4-18.07C579.08,196,595.75,210.3,610,216.14q-.56,3.13-1.1,6.27c-9.23-5-26-17.58-32-5.22-6.47,13.4,18,19.68,29.36,19.92q-2.88,16.21-5.85,32.28Q599.72,273.4,599,277.37Z"/><path class="cls-4" d="M544.42,541l1.91-.88c-6.17-13-5.66-30.61,1.54-53.93,6.2-20.06,16.37-40.91,24.54-57.67,3-6.18,5.86-12,8.16-17.11l3.14-6.93c20.7-45.78,40.26-89,62.71-132.72,18.94-36.86,35.87-61.79,58.44-86.06,3.39-3.65,7-7.21,10.85-11,15.39-15.08,31.3-30.68,32-52.61l-2.11-.06c-.7,21.1-16.31,36.4-31.4,51.2-3.86,3.78-7.5,7.35-10.92,11-22.71,24.42-39.74,49.49-58.77,86.53-22.47,43.74-42,87-62.76,132.81l-3.13,6.93c-2.29,5.06-5.13,10.89-8.14,17.06-8.2,16.82-18.41,37.76-24.65,58C538.49,509.46,538,527.58,544.42,541Z"/><path class="cls-4" d="M734.82,153.63c.82-10.44,1.86-21.5,4.74-32l-1.52-.41c-2.92,10.59-4,21.74-4.79,32.25Z"/><path class="cls-4" d="M731,158.26c.13-3.87.41-7.82.68-11.65.36-4.9.72-10,.77-15.07l-1.58,0c0,5-.41,10.1-.76,15-.28,3.84-.56,7.81-.69,11.71Z"/><path class="cls-4" d="M724.92,165.29c.8-5.3.5-10.77.22-16.07a97.52,97.52,0,0,1-.12-12.67l-1.57-.13a97.3,97.3,0,0,0,.11,12.89c.28,5.21.57,10.6-.2,15.75Z"/><path class="cls-4" d="M718.3,172.64c.07-5.78,0-11.66,0-17.34,0-4.34-.09-8.83-.08-13.25h-1.58c0,4.42,0,8.92.08,13.27.06,5.67.12,11.54.05,17.31Z"/><path class="cls-4" d="M712.64,176.13l1.58,0c-.11-2.9-.34-5.84-.57-8.69-.49-6.25-1-12.72-.24-19l-1.57-.19c-.78,6.45-.26,13,.24,19.32C712.3,170.34,712.53,173.27,712.64,176.13Z"/><rect class="cls-4" x="689.56" y="168.55" width="29.28" height="1.58" transform="matrix(0, -1, 1, 0, 533.03, 873.1)"/><path class="cls-4" d="M698,185.66l1.58,0,0-1.5c-.32-9.34-.65-19,.4-28.41l-1.57-.17c-1.07,9.53-.73,19.24-.41,28.63Z"/><path class="cls-4" d="M694.26,196.89l1.58,0c-.12-6.39-.34-12.88-.56-19.16q-.19-5.94-.37-11.89l-1.58.05q.17,5.94.38,11.89C693.92,184,694.14,190.51,694.26,196.89Z"/><path class="cls-4" d="M687.65,203.81l1.58,0c-.25-10.69-.38-21.14.73-31.36l-1.57-.17C687.26,182.55,687.4,193.06,687.65,203.81Z"/><path class="cls-4" d="M681,209.62l1.58,0c-.28-10.68-.42-20.3.69-29.9l-1.57-.18C680.6,189.21,680.74,198.89,681,209.62Z"/><path class="cls-4" d="M675.55,217.79l1.58-.07c-.07-1.49-.15-3-.22-4.46-.55-10.68-1.11-21.71-.27-32.52l-1.58-.12c-.84,10.91-.28,22,.27,32.71C675.4,214.82,675.48,216.31,675.55,217.79Z"/><path class="cls-4" d="M670.51,225.44l1.58,0c-.09-5-.28-10.12-.47-15-.28-7.58-.58-15.43-.54-23.14H669.5c0,7.75.26,15.61.54,23.21C670.23,215.34,670.42,220.43,670.51,225.44Z"/><path class="cls-4" d="M663.69,236.52l1.58-.17c-1.11-9.93-2-20-2.78-29.85-.44-5.28-.9-10.73-1.39-16.1l-1.58.14c.5,5.36,1,10.82,1.4,16.09C661.74,216.43,662.59,226.57,663.69,236.52Z"/><path class="cls-4" d="M656.73,248.56l1.56-.23-.21-1.35c-.16-1-.32-2.06-.45-3.09l-1.57.19c.13,1,.3,2.11.46,3.14Z"/><path class="cls-4" d="M657.15,247.89l1.58-.06a143.41,143.41,0,0,0-2.17-17.57c-1.2-7.28-2.45-14.81-2.15-22.3l-1.58-.06c-.3,7.65.95,15.25,2.17,22.61A143.73,143.73,0,0,1,657.15,247.89Z"/><path class="cls-4" d="M652.69,255.24l1.57-.19c-.6-4.75-1.38-9.56-2.13-14.21-1.56-9.69-3.17-19.7-3.27-29.66l-1.58,0c.1,10.08,1.72,20.14,3.29,29.88C651.32,245.72,652.09,250.52,652.69,255.24Z"/><path class="cls-4" d="M647.36,264.84l1.57-.2c-.63-4.77-1.52-9.57-2.38-14.22-1.52-8.17-3.08-16.63-3.27-25.06l-1.58,0c.19,8.55,1.77,17.07,3.29,25.3C645.85,255.33,646.74,260.11,647.36,264.84Z"/><path class="cls-4" d="M640.88,276.19l1.56-.28c-2.58-14.3-3.67-28.87-4.73-43l-1.57.12C637.2,247.19,638.29,261.8,640.88,276.19Z"/><path class="cls-4" d="M633.18,296.12l1.57-.18c-1.85-16-2.3-31.94-2.5-45.43l-1.58,0C630.87,264.06,631.32,280,633.18,296.12Z"/><path class="cls-4" d="M626.7,309l1.44-.65c-5.48-11.8-6.55-24.86-3.17-38.83l-1.54-.36C620,283.45,621.07,296.85,626.7,309Z"/><path class="cls-4" d="M619.69,322l1.57-.21c-.5-3.5-1.06-7.06-1.6-10.5-1.65-10.53-3.37-21.43-3.61-32.25l-1.58,0c.25,10.93,2,21.88,3.63,32.46C618.64,314.91,619.2,318.46,619.69,322Z"/><path class="cls-4" d="M614.35,334.46l1.55-.34c-3.21-14.25-5.73-28.82-7.85-41.37l-1.56.26C608.61,305.57,611.14,320.17,614.35,334.46Z"/><path class="cls-4" d="M607.8,348.52l1.55-.3c-.57-2.88-1.2-5.8-1.81-8.62-1.9-8.72-3.85-17.73-4-26.77H602c.11,9.21,2.08,18.29,4,27.08C606.6,342.74,607.24,345.65,607.8,348.52Z"/><path class="cls-4" d="M602.51,357.49l1.55-.32c-1.11-5.29-2.46-10.6-3.77-15.75-2-7.7-4-15.66-5.22-23.63l-1.57.23c1.24,8.05,3.28,16.05,5.25,23.78C600.06,346.93,601.41,352.23,602.51,357.49Z"/><path class="cls-4" d="M595.21,374.07l1.52-.41c-4-14.57-6-29-7.43-41.1l-1.57.18C589.17,344.94,591.18,359.39,595.21,374.07Z"/><path class="cls-4" d="M591.18,380.84l1.52-.43c-3.31-11.45-6.51-23.8-7.55-36.54l-1.58.12C584.62,356.87,587.85,369.31,591.18,380.84Z"/><path class="cls-4" d="M741.27,144l.06,0a74.42,74.42,0,0,0,13.75-5.49l-.79-1.36a73,73,0,0,1-13.45,5.37l-.06,0Z"/><path class="cls-4" d="M734.78,153.93c2.58-.76,5.25-1.41,7.84-2.05,2.75-.67,5.61-1.36,8.38-2.2l-.47-1.49c-2.73.82-5.56,1.51-8.29,2.18s-5.3,1.3-7.92,2.07Z"/><path class="cls-4" d="M725.65,164.58c4.3-1.74,8.72-3.42,13-5,3.13-1.19,6.37-2.42,9.54-3.66l-.59-1.45c-3.16,1.24-6.39,2.47-9.52,3.65-4.28,1.62-8.71,3.3-13,5Z"/><path class="cls-4" d="M711.85,179.06c3-5.43,15.45-7.88,23.66-9.5,1.72-.34,3.35-.66,4.67-1l-.36-1.51c-1.3.3-2.91.61-4.62.95-9,1.78-21.34,4.21-24.74,10.28Z"/><path class="cls-4" d="M703.35,187.55c1.3-4.16,14.62-5.1,24.35-5.8a95.31,95.31,0,0,0,11.66-1.22L739,179a96.72,96.72,0,0,1-11.43,1.19c-11.3.8-24.12,1.71-25.74,6.89Z"/><path class="cls-4" d="M696.87,195.61c5.22-4.73,15.13-6,24.71-7.3,6.37-.83,12.38-1.63,17.17-3.36l-.54-1.46c-4.63,1.67-10.56,2.45-16.84,3.28-9.82,1.3-20,2.64-25.57,7.69Z"/><path class="cls-4" d="M686.94,206.79c3.29-6.81,19.73-9.79,29.55-11.57,2.1-.38,3.91-.7,5.4-1l-.34-1.53c-1.46.32-3.26.64-5.35,1-10.77,1.95-27.05,4.9-30.69,12.43Z"/><path class="cls-4" d="M682.41,213.18c12.15-5.23,25.5-7.48,38.41-9.67l-.26-1.54.14.77-.15-.76c-13,2.2-26.45,4.47-38.77,9.77Z"/><path class="cls-4" d="M678.47,219c8.68-4.13,18.22-4.51,28.33-4.92l3.28-.13h.11c.81-.16,1.68-.27,2.59-.38a20.5,20.5,0,0,0,6-1.37l-.66-1.41a19.5,19.5,0,0,1-5.55,1.23c-.92.12-1.79.22-2.63.39l-3.21.13c-9.83.39-20,.79-29,5.07Z"/><path class="cls-4" d="M671.4,229.15c2.26-4.07,14.61-5.75,36.71-5,1.56.06,2.26.08,2.56.06l-.1-1.56c-.24,0-1.2,0-2.41,0-14.71-.5-34.67-.44-38.14,5.82Z"/><path class="cls-4" d="M692.07,235.59q5,0,9.78-.44l-.15-1.55a117.56,117.56,0,0,1-34-2.14l-.3,1.53A129.32,129.32,0,0,0,692.07,235.59Z"/><path class="cls-4" d="M693,242.82c1.08,0,2.16,0,3.22,0l0-1.55a130.67,130.67,0,0,1-21.93-1.41h-.11c-4.14,0-8.43,0-12.41-.06v1.56c4,0,8.23.05,12.36.06A135.28,135.28,0,0,0,693,242.82Z"/><path class="cls-4" d="M684,250.4l.09-1.56c-4.1-.24-8.28-.76-12.32-1.27-2.44-.3-5-.61-7.43-.86s-4.54-.44-6.41-.57l-.12,1.55c1.86.13,3.82.31,6.37.57s5,.56,7.39.86C675.59,249.63,679.8,250.15,684,250.4Z"/><path class="cls-4" d="M669.68,259.66a95.31,95.31,0,0,0,11.07-.54l-.18-1.54c-7.34.82-14.87.5-22.15.19l-5.61-.21,0,1.55c1.86.06,3.73.14,5.59.22C662.08,259.49,665.88,259.65,669.68,259.66Z"/><path class="cls-4" d="M668.4,268.93l.08-1.56c-6.79-.36-13.67-.66-20.45-.88l0,1.56C654.75,268.27,661.62,268.57,668.4,268.93Z"/><path class="cls-4" d="M651.81,277.42a77.5,77.5,0,0,0,12.3-.87l-.24-1.53a88.74,88.74,0,0,1-21,.43l-.13,1.56Q647.47,277.41,651.81,277.42Z"/><path class="cls-4" d="M645.6,284.18h16.15v-1.55l-8.19,0c-4.72,0-9.44,0-14.16,0v1.56Z"/><path class="cls-4" d="M636.25,291.89c8.55-.2,17.34-.21,27.68,0l0-1.56c-10.36-.18-19.18-.17-27.74,0Z"/><path class="cls-4" d="M632.16,300.88a144,144,0,0,0,26.41-3.6l-.36-1.51a143.45,143.45,0,0,1-26.11,3.56Z"/><path class="cls-4" d="M627.42,310.24c2.6-.28,5.28-.37,8.11-.46a74.53,74.53,0,0,0,12.68-1.12l-.32-1.52a75,75,0,0,1-12.41,1.09c-2.74.08-5.57.17-8.24.46Z"/><path class="cls-4" d="M623,319.57a92.09,92.09,0,0,1,15.64-2.94c3.58-.46,7.28-.94,10.88-1.7l-.33-1.53c-3.54.75-7.21,1.23-10.75,1.68a94.74,94.74,0,0,0-15.92,3Z"/><path class="cls-4" d="M619.46,328.06c5.23-1,10.6-1.8,15.8-2.56,2.76-.41,5.62-.83,8.43-1.28l-.25-1.54c-2.8.45-5.66.87-8.42,1.27-5.21.77-10.6,1.57-15.87,2.58Z"/><path class="cls-4" d="M614.52,338.94c3.62-.73,7.39-1.11,11-1.49a87.67,87.67,0,0,0,15.29-2.5l-.44-1.5a87.28,87.28,0,0,1-15,2.45c-3.68.38-7.48.77-11.17,1.51Z"/><path class="cls-4" d="M609.38,346.49c6-1.2,12.17-2.27,18.12-3.3,2.6-.45,5.19-.89,7.78-1.35L635,340.3l-7.77,1.36c-6,1-12.12,2.1-18.16,3.3Z"/><path class="cls-4" d="M606.81,354.34a170.2,170.2,0,0,0,20.08-5.27l-.5-1.47a169.11,169.11,0,0,1-19.9,5.22Z"/><path class="cls-4" d="M602.77,363.72c5.72-.94,11.71-1.68,18.3-2.27l-.14-1.55c-6.63.59-12.66,1.33-18.42,2.28Z"/><path class="cls-4" d="M598.17,370.66a168.08,168.08,0,0,0,24.33-7.05l-.55-1.46a166.74,166.74,0,0,1-24.09,7Z"/><path class="cls-4" d="M596.8,375.81c1.55,0,3.15-.06,4.69-.08a94.89,94.89,0,0,0,13.84-.85l-.26-1.54a92.49,92.49,0,0,1-13.6.83c-1.55,0-3.15,0-4.72.09Z"/><path class="cls-4" d="M586.75,395.28C593.25,393,600,391,606.45,389q3.81-1.14,7.61-2.31l-.47-1.49q-3.8,1.17-7.61,2.31c-6.5,2-13.22,4-19.75,6.26Z"/><path class="cls-2" d="M800.13,360.75c-20.8-4.53-25.16,2.77-22,24.47-5-28.78-34.12-.69-31.37,17.8-7.18-15.78-31-30.14-35-5.84-9.62-13.31-34.89-32.36-43.3-8.86-7-28.75-33.87-22.45-57.67-22.15,21.81-7.2,42.83-20.91,40.66-46,16.32,9.88,45.4,17.22,47.15-8.6,5.33,14.09,19,20.64,33.82,16.88,1-4.41,4.69-8.38,5.6-11,9.34,27.64,45.86,35.05,68,40.48Z"/><path class="cls-2" d="M519.68,366.18c5.29-23.21-23.92-32.39-40.5-23.61,4.48-5.88,2.39-12.17,4.78-18.77-7.31-1.28-13.43-7-21.23-7,36.12-19.33,14.59-90.68-10.74-110.54,24.36,25,40.88,39.21,75,44.82-4.89,8.49-9.73,19.13-9.31,29.81,8.88,5,19.77,7.35,30.09,8.07-27.76,13.48-20.79,42,8.65,44.92-15.18,19.56-25.3,52.2-18.11,78.45-5.43-20-17.52-45.42-28.21-62.06Z"/><path class="cls-4" d="M569.7,32.22c2.39-5.16,5-10.28,7.54-15l-1.41-.72c-2.51,4.78-5.16,9.92-7.57,15.11Z"/><path class="cls-4" d="M568.48,51.48c1.51-3.08,3.11-6.19,4.66-9.19,3.12-6,6.34-12.28,9-18.68L580.65,23c-2.61,6.33-5.82,12.54-8.92,18.55-1.55,3-3.16,6.13-4.68,9.22Z"/><path class="cls-4" d="M567.47,73.49A359.74,359.74,0,0,1,588.6,28.85l-1.39-.75A361.24,361.24,0,0,0,566,72.93Z"/><path class="cls-4" d="M565.27,93.42a383.26,383.26,0,0,1,24.47-52.26l-1.37-.77A382.36,382.36,0,0,0,563.8,92.87Z"/><path class="cls-4" d="M562.61,117c2.51-14.63,11.87-30.26,20.13-44,1.92-3.21,3.73-6.23,5.41-9.16L586.77,63c-1.67,2.91-3.48,5.93-5.39,9.13-8.33,13.91-17.77,29.67-20.33,44.58Z"/><path class="cls-4" d="M558.27,141.26l1.12-1.1c-.72-.72-1.4-4.32,7.72-22.41,5.61-11.11,12.71-23.33,16.53-29.89,1.42-2.44,2.36-4.06,2.65-4.63l-1.41-.7c-.28.54-1.26,2.22-2.61,4.56C562.11,121.75,554.94,138,558.27,141.26Z"/><path class="cls-4" d="M555.48,165.71a1.67,1.67,0,0,0,1.06-.58c.23-.21.51-.48.75-.5l-.18-1.55a2.14,2.14,0,0,0-.81.26c4.48-9.36,10.49-18.46,16.31-27.28,4.94-7.48,10-15.21,14.24-23.12l-1.4-.72c-4.15,7.84-9.24,15.54-14.16,23-6.06,9.18-12.32,18.67-16.9,28.49l-.09.2,0,.21c.08.63.21,1.32.83,1.54A1,1,0,0,0,555.48,165.71Z"/><path class="cls-4" d="M555.23,186.13c3.4-12.19,12-22.29,20.29-32,2.78-3.27,5.66-6.66,8.28-10.05l-1.26-.95c-2.59,3.37-5.46,6.74-8.23,10C565.9,163,557.2,173.2,553.7,185.72Z"/><path class="cls-4" d="M555.83,202.5c2.59-4.1,5.41-8.16,8.13-12.09A214.6,214.6,0,0,0,577,169.92l-1.4-.73a210.65,210.65,0,0,1-13,20.34c-2.73,3.94-5.55,8-8.16,12.14Z"/><path class="cls-4" d="M556.81,218.09c1.52-2.87,3.27-5.89,5.49-9.49,2.7-4.37,5.69-8.68,8.58-12.85,3.22-4.65,6.55-9.46,9.51-14.39l-1.36-.79c-2.93,4.88-6.25,9.67-9.46,14.3-2.9,4.19-5.9,8.52-8.62,12.92-2.24,3.63-4,6.68-5.54,9.58Z"/><path class="cls-4" d="M555.05,239c7.91-12.9,16.48-25.32,24.58-36.82l-1.3-.89c-8.11,11.52-16.7,24-24.63,36.9Z"/><path class="cls-4" d="M554.93,256.41c2-3.11,3.84-6.18,6.09-9.83L562.6,244c6.52-10.62,13.26-21.61,20.52-32l-1.3-.89c-7.29,10.43-14,21.44-20.57,32.08l-1.59,2.59c-2.24,3.65-4.13,6.72-6.07,9.83Z"/><path class="cls-4" d="M554.94,268c1.53-2.33,3.27-4.8,5.31-7.57s4.4-5.72,6.6-8.48c3.69-4.63,7.51-9.42,10.77-14.47l-1.33-.84c-3.22,5-7,9.75-10.68,14.35-2.21,2.77-4.5,5.64-6.63,8.52s-3.82,5.29-5.36,7.64Z"/><path class="cls-4" d="M553.34,288.12c1.64-2.74,3.49-5.66,5.68-8.92,2.46-3.69,5.06-7.38,7.58-10.95,4.51-6.39,9.16-13,13.22-19.84l-1.36-.78c-4,6.79-8.67,13.37-13.16,19.73-2.52,3.58-5.13,7.28-7.6,11-2.2,3.29-4.07,6.23-5.72,9Z"/><path class="cls-4" d="M554.4,301.63c1.58-2.75,3.37-5.61,5.48-8.76,3.3-4.89,6.89-9.71,10.37-14.38s7.24-9.71,10.62-14.74l-1.32-.86c-3.35,5-7,9.92-10.57,14.68s-7.1,9.51-10.41,14.44c-2.14,3.18-4,6.07-5.55,8.86Z"/><path class="cls-4" d="M553.91,323.66c3.15-6.43,6.92-12.62,10.56-18.61,2.92-4.8,5.94-9.75,8.68-14.89l-1.4-.73c-2.72,5.1-5.73,10-8.63,14.82-3.67,6-7.46,12.24-10.64,18.74Z"/><path class="cls-4" d="M553.69,344.17c1.48-3.09,3.08-6.2,4.88-9.51a258.79,258.79,0,0,1,21.1-32.61l-1.27-.94a260.79,260.79,0,0,0-21.22,32.81c-1.81,3.33-3.42,6.47-4.92,9.58Z"/><path class="cls-4" d="M552.86,355c4.45-7.49,9.59-14.72,14.56-21.71,3-4.14,6-8.42,8.86-12.71l-1.32-.86c-2.86,4.28-5.89,8.54-8.83,12.67-5,7-10.15,14.28-14.63,21.82Z"/><path class="cls-4" d="M553.16,364.33c7.77-10.93,14.82-20.76,22.3-30.36l-1.25-1c-7.51,9.62-14.56,19.47-22.34,30.41Z"/><path class="cls-4" d="M553.25,376.54c1.4-1.94,3-4,5-6.29s4.21-4.71,6.32-7a121.68,121.68,0,0,0,11.32-13.42l-1.31-.87a119.76,119.76,0,0,1-11.18,13.23c-2.12,2.28-4.31,4.63-6.36,7s-3.64,4.41-5.07,6.39Z"/><path class="cls-4" d="M554.08,391.85c4.26-6.51,8.88-12.94,13.35-19.17,3-4.22,6.17-8.59,9.17-12.95l-1.3-.87c-3,4.34-6.13,8.7-9.16,12.92C561.66,378,557,384.47,552.75,391Z"/><path class="cls-4" d="M556.1,556.83l2.11-.12c-6-103.34-4.43-209.26-2.93-311.69.28-18.74.56-38.12.79-57.14.32-25.64,3.7-51.28,7-76.08,2-15.35,4.12-31.22,5.47-47,.45-5.24.36-11,.28-16.5-.17-10.35-.34-21,3.07-28.5L569.94,19c-3.6,7.87-3.43,18.81-3.26,29.38.09,5.49.18,11.16-.26,16.29C565.07,80.36,563,96.21,561,111.53c-3.28,24.86-6.67,50.56-7,76.33-.24,19-.52,38.39-.79,57.13C551.67,347.46,550.12,453.42,556.1,556.83Z"/><path class="cls-4" d="M567.11,59.94a1.31,1.31,0,0,0,.89-.37l-1.09-1.12a.36.36,0,0,1,.35,0c-.73-.44-2-4.66-2.8-7.18-.38-1.24-.74-2.42-1.09-3.43-6.09-17.7-8.43-32.24-7.17-44.45l-1.58-.16c-1.28,12.44,1.09,27.19,7.26,45.11.34,1,.69,2.15,1.07,3.38,1.67,5.45,2.54,7.88,3.85,8.22A1.1,1.1,0,0,0,567.11,59.94Z"/><path class="cls-4" d="M566.14,70l1.31-.87C558.25,55.53,553.82,39,549.53,23c-.74-2.77-1.51-5.64-2.29-8.43l-1.52.41c.77,2.79,1.54,5.65,2.28,8.42C552.32,39.53,556.79,56.18,566.14,70Z"/><path class="cls-4" d="M564.42,81.09l1.46-.6c-1.25-2.94-2.77-6.08-4.64-9.6-1.74-3.28-3.62-6.57-5.43-9.75C551.49,53.56,547,45.73,544,37.4l-1.49.52c3,8.45,7.55,16.35,11.9,24,1.81,3.16,3.68,6.44,5.41,9.7C561.69,75.09,563.19,78.19,564.42,81.09Z"/><path class="cls-4" d="M563.42,89.72l1.36-.79c-2.44-4-4.78-8.17-6.75-11.69-3.78-6.76-7.69-14-12.69-23.38-2.52-4.75-4.62-8.74-6.74-12.83l-1.4.71c2.11,4.09,4.22,8.09,6.74,12.84,5,9.42,8.92,16.64,12.71,23.41C558.62,81.53,561,85.68,563.42,89.72Z"/><path class="cls-4" d="M562,100.78l1.35-.81a5.91,5.91,0,0,1-.52-1.13,8.44,8.44,0,0,0-.52-1.25l0-.07c-5.32-8.39-10-16.94-14.5-25.22-3-5.57-6.18-11.33-9.52-17l-1.36.77c3.32,5.69,6.46,11.44,9.49,17,4.52,8.28,9.19,16.85,14.53,25.27a7.74,7.74,0,0,1,.43,1A7.55,7.55,0,0,0,562,100.78Z"/><path class="cls-4" d="M560.13,112.12l1.44-.64c-3.92-8.57-8.4-16.87-12.74-24.91-2.43-4.5-4.94-9.16-7.31-13.78l-1.41.7c2.38,4.63,4.89,9.3,7.33,13.82C551.76,95.32,556.23,103.6,560.13,112.12Z"/><path class="cls-4" d="M559,128.39l1.36-.78c-1.87-3.19-3.65-6.32-5.3-9.31a240.35,240.35,0,0,1-15.73-33.87l-1.49.53a241.85,241.85,0,0,0,15.84,34.09C555.28,122.05,557.07,125.19,559,128.39Z"/><path class="cls-4" d="M557.93,139.92l1.44-.64c-4.26-9.38-9.44-18.52-14.45-27.35-3.4-6-6.91-12.21-10.14-18.47l-1.41.7c3.24,6.3,6.77,12.51,10.17,18.53C548.53,121.49,553.69,130.6,557.93,139.92Z"/><path class="cls-4" d="M556.11,149l1.38-.76c-1.54-2.7-3.21-5.54-5.27-8.95q-2.24-3.72-4.5-7.42C543,124,538,115.94,533.67,107.72l-1.4.72c4.37,8.26,9.31,16.37,14.09,24.21q2.26,3.71,4.5,7.41C552.91,143.46,554.58,146.3,556.11,149Z"/><path class="cls-4" d="M554.48,155.56l1.27-.93c-11.22-14.87-19.3-27.35-25.42-39.27l-1.41.71C535.09,128.07,543.21,140.62,554.48,155.56Z"/><path class="cls-4" d="M553.27,165.12l.24,0a.85.85,0,0,0,.65-.84A2.69,2.69,0,0,0,553,162.5c-.16-.3-.34-.67-.56-1.12-3.7-7.88-12.07-18.69-18.8-27.38-2.77-3.58-5.16-6.66-6.72-8.9l-1.3.88c1.58,2.27,4,5.37,6.76,9,6.69,8.63,15,19.37,18.63,27.09.2.44.39.82.56,1.15l-.06.33a1.4,1.4,0,0,1,.29.09C552.5,164.85,552.9,165.12,553.27,165.12Z"/><path class="cls-4" d="M554.26,174.79l1.27-.93c-3.76-5-7.74-9.81-11.58-14.43-5.06-6.08-9.84-11.82-14.17-18.08l-1.31.88c4.37,6.32,9.17,12.08,14.25,18.19C546.56,165,550.52,169.78,554.26,174.79Z"/><path class="cls-4" d="M553.6,187.15l1.21-1C547,177,540,166.93,533.07,156.56l-1.32.86C538.75,167.83,545.69,177.94,553.6,187.15Z"/><path class="cls-4" d="M553.84,195.53l1.1-1.12a190.45,190.45,0,0,1-25.58-30.36l-1.31.87A191.65,191.65,0,0,0,553.84,195.53Z"/><path class="cls-4" d="M553.61,204.08l1.15-1.07c-1.87-1.95-3.8-3.89-5.66-5.77-7.28-7.34-14.81-14.94-20.05-24l-1.37.77c5.34,9.26,12.94,16.92,20.29,24.33C549.83,200.2,551.75,202.14,553.61,204.08Z"/><path class="cls-4" d="M553.51,220.6l1.21-1c-1.82-2.15-3.7-4.21-5.62-6.31l-.44-.48c-6.45-7-13.11-14.31-16.69-23.24l-1.47.58c3.68,9.19,10.45,16.57,17,23.71l.43.47C549.83,216.42,551.7,218.47,553.51,220.6Z"/><polygon class="cls-4" points="552.68 260.92 553.85 259.87 530.65 234.69 529.48 235.74 552.68 260.92"/><path class="cls-4" d="M552.64,275.32l1.07-1.15c-7.33-6.67-14-14.26-20.37-21.6-1.45-1.66-2.9-3.33-4.36-5l-1.2,1q2.19,2.47,4.36,5C538.58,261,545.24,268.59,552.64,275.32Z"/><path class="cls-4" d="M552.37,284.7l.87-1.3c-11.83-7.64-19.76-14.56-25.73-22.45l-1.26.94C532.33,269.92,540.39,277,552.37,284.7Z"/><path class="cls-4" d="M553,299.77l.77-1.36a121.74,121.74,0,0,1-14.23-9.75c-5.27-4-10.72-8.13-16.77-11.11l-.71,1.4c5.92,2.91,11.3,7,16.52,10.94A122.4,122.4,0,0,0,553,299.77Z"/><path class="cls-4" d="M552.43,311.14l.46-1.49c-10.46-3.1-22-7.21-27.19-16.68l-1.39.74C529.73,303.7,541.67,308,552.43,311.14Z"/><path class="cls-4" d="M552.92,321.74l.51-1.48c-8.1-2.73-15.81-6.69-23.66-10.86l-.75,1.37C536.93,315,544.7,319,552.92,321.74Z"/><path class="cls-4" d="M552.56,333.6l.53-1.47a49.52,49.52,0,0,1-22-15.2l-1.23,1A51.09,51.09,0,0,0,552.56,333.6Z"/><polygon class="cls-4" points="552.79 344.96 553.75 343.73 535.75 330.14 534.79 331.37 552.79 344.96"/><path class="cls-4" d="M551.23,350.11l.52-1.47a61.19,61.19,0,0,1-12.89-6c-3.18-2-7-4.8-7.94-8.66l-1.53.38c1.11,4.39,5.19,7.44,8.62,9.6A63.09,63.09,0,0,0,551.23,350.11Z"/><path class="cls-4" d="M552.6,366.87l.83-1.32c-2.24-1.37-4.5-2.93-6.68-4.44-4.63-3.19-9.41-6.49-14.65-8.55l-.59,1.45c5.08,2,9.78,5.24,14.33,8.38C548,363.91,550.32,365.48,552.6,366.87Z"/><path class="cls-4" d="M551.51,376.58l.58-1.45c-6.91-2.68-15.52-6-21.45-12l-1.13,1.09C535.68,370.45,544.46,373.85,551.51,376.58Z"/><path class="cls-4" d="M551.83,387.26l.26-1.54c-7.75-1.27-15-4.84-21.67-8.51l-.77,1.36C536.45,382.31,543.84,386,551.83,387.26Z"/><path class="cls-4" d="M556.26,165.68a17.53,17.53,0,0,0,6.49,1.67,27.13,27.13,0,0,0,4.58,0,38.17,38.17,0,0,0,4.76-.77l-.47-.26c1.72-3.07,3.75-10.76,5.53-17.54.69-2.62,1.34-5.08,1.92-7.1l1.52.43c-.57,2-1.22,4.45-1.91,7.06-1.67,6.36-3.56,13.5-5.27,17.1h0c1.05-.26,2.12-.56,3.23-.91.6-.19,1.2-.39,1.81-.61,1.68-.59,3.42-1.28,5.2-2,.1-5.22.37-10.44.64-15.53.12-2.38.25-4.76.36-7.13l1.57.06c-.1,2.39-.23,4.77-.35,7.15-.25,4.84-.51,9.79-.62,14.73l1.78-.84,1.54-.76c.51-.26,1-.53,1.55-.79h0c.1-4.94.62-9.88,1.12-14.7.76-7.28,1.54-14.8.92-22.21l1.57-.12c.64,7.54-.15,15.14-.92,22.48-.47,4.5-.95,9.1-1.09,13.69,2-1.11,4.1-2.31,6.18-3.58l.82-.51c0-.27,0-.54,0-.81.69-12.9,2.22-25.76,3.67-36.8l1.56.2c-1.42,10.92-2.94,23.62-3.64,36.37,2.29-1.45,4.59-3,6.89-4.63l.81-.57c0-.25,0-.51,0-.77.47-8.76,1.6-22.26,2.73-30.58l1.57.2c-.85,6.21-1.69,15.29-2.26,23.13l-.12,1.6c-.12,1.85-.23,3.62-.32,5.23,1.68-1.22,3.35-2.47,5-3.77q.75-.57,1.5-1.17l.84-.67A327.24,327.24,0,0,0,618.31,107l1.58,0c.15,7.35,0,17.13-.56,26,0,.55-.07,1.09-.11,1.62-.12,1.92-.27,3.79-.43,5.57,1.55-1.26,3.1-2.54,4.63-3.85l.41-.36v-1.15l.1-35.15h1.58l-.1,34.93q4-3.51,7.89-7.18l-.42.2c-2.88-6.1-2.43-16.74-2-26.13.17-4.09.34-7.95.19-10.95l1.58-.07c.15,3.07,0,7-.19,11.08-.38,9-.8,19.23,1.74,25,2.67-2.57,5.27-5.18,7.76-7.79-.52,0-.66-.41-.69-.81h0v-.44l0-2.5c0-2.27.06-4.59.1-6.84.16-8.41.33-17.1-.94-25.46l1.57-.23c1.28,8.49,1.11,17.25.95,25.72,0,2.24-.08,4.56-.1,6.82v1.61h0l0,1.06v.14h0c1.71-1.82,3.38-3.65,5-5.47h0c0-.27.06-.61.12-1,.11-.76.26-1.75.41-2.75.22-1.44.45-2.93.51-3.51A298.37,298.37,0,0,0,650,74.37h1.58a298.63,298.63,0,0,1-1.13,30.92c-.06.62-.28,2.07-.52,3.6-.06.41-.13.87-.2,1.33q3.18-3.73,6-7.39l.11-39.48h1.58l-.1,37.35h0c1.38-1.9,2.67-3.76,3.85-5.59h0l0-1c.2-5.9.79-12.15,1.37-18.2.52-5.44,1.06-11.07,1.31-16.46l1.58.07c-.26,5.43-.8,11.08-1.32,16.53-.49,5.2-1,10.55-1.26,15.67l.29.12h0c1-1.74,2-3.44,2.77-5.08l-.23-.09c3.56-8.65,7-21.65,9.38-35.67l1.56.26a219,219,0,0,1-6.47,27.58h0l.91.22a42.77,42.77,0,0,1-3.33,8.68c8.59-4.09,15.34-12.29,20.84-19l1.23,1c-6,7.28-13.41,16.3-23.21,20.2h0a103.22,103.22,0,0,1-6.47,10.25h0l2.8-.84c10.24-3,18.33-5.44,25.7-12.09l1.07,1.15c-7.63,6.89-15.88,9.34-26.31,12.43l-4.77,1.43h0c-1.09,1.47-2.22,3-3.41,4.44h0c10.25-.52,19.14-1,28.38-4.36l.55,1.47c-9.61,3.46-18.75,3.93-29.32,4.47l-.92,0h0q-2.31,2.83-4.83,5.69c8.45,1.74,19,1,28.59-2.14l.49,1.48a65,65,0,0,1-19.73,3.13,48.38,48.38,0,0,1-10.54-1.13c-2,2.26-4.15,4.53-6.34,6.78h0c10.19.58,21.14.86,34.26.89v1.56h-.29c-13.59,0-24.88-.35-35.41-1-1.78,1.8-3.62,3.59-5.48,5.36,1.47,0,3,0,4.63-.08,9.81-.23,22-.51,30.33,3.95l-.76,1.37c-7.93-4.26-19.91-4-29.53-3.77-2.24.06-4.36.1-6.33.09h0c-2,1.82-4,3.63-6,5.4,2.18.85,4.35,1.68,6.49,2.5,4.3,1.64,8.75,3.33,13.05,5.13,1.08.45,2,.91,2.77,1.33a13.45,13.45,0,0,0,5.31,1.81l-.17,1.55a15.09,15.09,0,0,1-5.88-2c-.8-.42-1.63-.85-2.65-1.28-4.28-1.79-8.71-3.47-13-5.11-2.39-.91-4.82-1.84-7.25-2.79l-.16.14-1.59,1.35c-1.73,1.47-3.49,2.91-5.25,4.32a59.72,59.72,0,0,1,18.48,9.24,26.3,26.3,0,0,1,2.65,2.32,12.57,12.57,0,0,0,4.71,3.29l-.53,1.46a13.92,13.92,0,0,1-5.28-3.63,25,25,0,0,0-2.5-2.2,58,58,0,0,0-17.78-8.91l-1.22-.4-.36.28q-2.94,2.3-5.91,4.46c8.15,3.91,16.72,8.19,27.14,13.56l-.73,1.38c-10.66-5.49-19.37-9.84-27.68-13.81l-.17-.09c-.48.35-1,.7-1.45,1q-3.45,2.43-6.87,4.6c7.72,5.61,20.37,12.06,28.32,14.16l-.41,1.51c-8.06-2.13-20.88-8.66-28.78-14.38l-.55-.4-1,.65c-2.33,1.42-4.64,2.75-6.92,4l-1.36.71,1.37,1.1c7.21,5.72,15.2,10.91,24.62,13.25l-.39,1.51c-9.29-2.3-17.18-7.27-24.28-12.8l-1.51-1.2c-.46-.36-.9-.72-1.34-1.09h0c-.94.47-1.87.92-2.79,1.34l-.78.35-1.59.69c-1.07.46-2.13.88-3.16,1.27l3.16,2.34,1.24.9c6.7,4.81,13.77,9.14,22,10.33l-.22,1.54c-10.57-1.51-19.09-7.85-27.32-14l-.66-.49a53.37,53.37,0,0,1-7.47,2.05,155.93,155.93,0,0,1,20.12,11l-.83,1.31c-7.2-4.43-14.36-8.68-22.26-11.82a29.1,29.1,0,0,1-3.66.21,20.7,20.7,0,0,1-9.27-2Z"/><path class="cls-4" d="M553.07,236.7a14.12,14.12,0,0,1-5.4-.46A22.62,22.62,0,0,1,544.2,235a29.73,29.73,0,0,1-3.41-1.86l.44-.07c-.47-2.79.11-9.19.62-14.82.19-2.18.38-4.23.49-5.92l-1.27-.08c-.11,1.68-.3,3.72-.49,5.88-.48,5.29-1,11.23-.7,14.43h0c-.73-.48-1.46-1-2.21-1.56-.4-.31-.81-.62-1.21-.95-1.11-.9-2.25-1.89-3.39-3,1.36-4,2.59-8,3.79-12q.84-2.76,1.69-5.52l-1.21-.37c-.58,1.84-1.14,3.69-1.7,5.53-1.14,3.75-2.31,7.59-3.59,11.37-.37-.36-.75-.73-1.12-1.11l-1-1-1-1h0c1.28-3.78,2.25-7.68,3.19-11.48,1.43-5.74,2.91-11.67,5.42-17.14l-1.16-.51c-2.56,5.56-4.05,11.55-5.49,17.34-.89,3.55-1.79,7.18-2.94,10.71q-1.87-2.08-3.72-4.38l-.48-.61.18-.62c3-10,5.41-20.2,7.35-29l-1.24-.27c-1.93,8.69-4.27,18.76-7.26,28.65-1.33-1.73-2.66-3.52-4-5.37l-.46-.65c.06-.2.13-.4.19-.6,2-6.79,4.9-17.36,6.34-24l-1.25-.27c-1.07,4.95-2.92,12.08-4.65,18.2-.12.42-.24.84-.35,1.24-.42,1.45-.82,2.82-1.2,4.08q-1.41-2.07-2.78-4.22l-.82-1.29-.45-.73a264.83,264.83,0,0,1,8.56-26.6l-1.19-.45c-2.14,5.55-4.7,13-6.74,19.92-.12.42-.25.84-.36,1.26-.44,1.5-.84,3-1.21,4.35q-1.25-2.06-2.46-4.16l-.21-.39.31-.88,9.61-26.75-1.2-.42L509,194.55q-2.1-3.75-4-7.57l.26.26c3.87-3.86,6.46-12.08,8.74-19.33,1-3.16,1.94-6.14,2.87-8.38l-1.18-.47c-1,2.29-1.9,5.29-2.91,8.48-2.19,7-4.68,14.84-8.21,18.58q-2-4-3.76-8c.4.11.61-.14.74-.43h0a.53.53,0,0,0,0-.11c0-.08.06-.15.08-.22l.67-1.91c.62-1.73,1.22-3.51,1.81-5.23,2.19-6.44,4.46-13.09,7.73-19.11l-1.13-.6c-3.31,6.12-5.6,12.82-7.81,19.31-.59,1.72-1.19,3.49-1.8,5.22l-.39,1.1,0,.12h0l-.28.81a.76.76,0,0,1,0,.11h0q-1.2-2.77-2.28-5.5h0c.06-.22.12-.48.19-.8l.44-2.19c.23-1.16.47-2.35.58-2.81A243.39,243.39,0,0,1,507,142.17l-1.2-.42a244,244,0,0,0-7.66,23.82c-.12.49-.35,1.65-.59,2.87-.07.34-.14.71-.21,1.07-.93-2.46-1.77-4.87-2.51-7.21l10.8-30.06-1.2-.42-10.21,28.43h0c-.54-1.81-1-3.58-1.4-5.28h0l.24-.73c1.47-4.54,2.74-9.46,4-14.22,1.1-4.27,2.24-8.7,3.54-12.86l-1.22-.37c-1.31,4.19-2.45,8.63-3.56,12.92-1.05,4.09-2.14,8.29-3.35,12.26h-.26c-.3-1.6-.54-3.14-.7-4.6h.2c-.33-7.53.66-18.34,2.69-29.64l-1.26-.22a173.21,173.21,0,0,0-2.67,22.71h0l-.75-.08a34.77,34.77,0,0,0,.14,7.5c-5.41-5.41-8.28-13.46-10.62-20l-1.21.41c2.55,7.14,5.71,16,12.09,21.59h0a82.18,82.18,0,0,0,2.1,9.53h0l-1.9-1.38c-7-5.06-12.45-9-16.21-16.08l-1.13.58c3.9,7.29,9.5,11.36,16.58,16.51,1,.76,2.13,1.54,3.23,2.36h0c.43,1.41.88,2.83,1.37,4.29h0c-7.64-3.14-14.27-5.91-20.38-10.91l-.82,1c6.36,5.21,13.17,8,21.07,11.26l.69.28h0c.65,1.85,1.35,3.73,2.1,5.62-6.9-.94-14.7-4.35-21.15-9.28l-.79,1A51.6,51.6,0,0,0,488.94,172a38.39,38.39,0,0,0,8.33,2q1.38,3.4,3,6.86h0c-7.9-2.29-16.31-5-26.3-8.49l-.43,1.19.22.07c10.36,3.62,19,6.4,27.21,8.74q1.29,2.78,2.69,5.55l-3.5-1.3c-7.4-2.8-16.61-6.28-24.15-5.12l.19,1.25c7.21-1.12,16.24,2.3,23.5,5,1.69.64,3.29,1.24,4.79,1.76h0q1.49,2.88,3.07,5.72c-1.89.07-3.77.11-5.63.16-3.72.1-7.57.2-11.34.41-.94.06-1.75.17-2.47.27a11,11,0,0,1-4.54,0l-.29,1.22a12.14,12.14,0,0,0,5,.07c.73-.11,1.48-.21,2.37-.26,3.75-.22,7.58-.32,11.3-.41,2.06-.06,4.17-.11,6.28-.19l.09.15c.27.49.55,1,.83,1.46.92,1.58,1.85,3.15,2.81,4.69a48.54,48.54,0,0,0-16.61,2.08,21.49,21.49,0,0,0-2.65,1.06,10.21,10.21,0,0,1-4.49,1.24v1.25a11.39,11.39,0,0,0,5-1.35,21.34,21.34,0,0,1,2.5-1,47.23,47.23,0,0,1,16-2l1,0,.2.31q1.61,2.53,3.26,5c-7.27.79-15,1.75-24.37,3l.17,1.24c9.62-1.32,17.45-2.3,24.86-3.1l.15,0,.82,1.18q2,2.76,4,5.33c-7.42,2.21-18.82,3.73-25.44,3.19l-.11,1.26c6.73.54,18.27-1,25.86-3.23l.52-.16.63.77c1.38,1.71,2.77,3.34,4.17,4.87l.84.91-1.35.47c-7.06,2.42-14.56,4.23-22.37,3.48l-.13,1.26c7.71.73,15.08-.93,22-3.24l1.47-.51c.45-.15.89-.31,1.32-.47h0c.59.61,1.17,1.2,1.76,1.77.16.16.32.32.49.47.34.33.68.65,1,1,.69.64,1.37,1.24,2,1.81l-3,.94-1.19.35c-6.42,1.87-13,3.27-19.6,2l-.26,1.23c8.46,1.68,16.69-.86,24.64-3.32l.63-.2a42,42,0,0,0,5.12,3.55,127.36,127.36,0,0,0-18.32,3l.27,1.22a117.61,117.61,0,0,1,20.19-3,26.91,26.91,0,0,0,2.72,1.15,16.83,16.83,0,0,0,7.6,1Z"/><path class="cls-4" d="M394.15,49.87c.38-5.66,1-11.37,1.64-16.7L394.22,33c-.63,5.35-1.27,11.08-1.65,16.78Z"/><path class="cls-4" d="M399.93,68.31c.31-3.41.69-6.88,1.06-10.23.74-6.74,1.51-13.7,1.67-20.6l-1.58,0c-.16,6.83-.92,13.76-1.66,20.46-.37,3.36-.76,6.84-1.06,10.26Z"/><path class="cls-4" d="M406.91,89.23a357.37,357.37,0,0,1,3.7-49.12L409,39.9a358.81,358.81,0,0,0-3.71,49.33Z"/><path class="cls-4" d="M412,108.64a379.17,379.17,0,0,1,4.07-57.41L414.54,51a381.07,381.07,0,0,0-4.09,57.66Z"/><path class="cls-4" d="M418,131.57c-2.92-14.55.21-32.44,3-48.22.65-3.67,1.25-7.13,1.77-10.45l-1.57-.24c-.51,3.31-1.11,6.76-1.75,10.42-2.79,15.92-5.94,34-3,48.8Z"/><path class="cls-4" d="M422.69,155.82l.65-1.42c-.93-.42-2.87-3.55-.84-23.65,1.24-12.35,3.49-26.26,4.7-33.73.45-2.78.74-4.62.81-5.26l-1.57-.15c-.06.59-.37,2.51-.8,5.17C419.26,136.24,418.38,153.89,422.69,155.82Z"/><path class="cls-4" d="M428.87,179.66a1.63,1.63,0,0,0,.79-.91,1.62,1.62,0,0,1,.51-.74l-.72-1.39a2.08,2.08,0,0,0-.66.54c.82-10.33,3.17-20.94,5.44-31.21,1.93-8.72,3.92-17.74,5-26.59l-1.57-.19c-1.06,8.78-3,17.76-5,26.45-2.36,10.69-4.8,21.75-5.55,32.54l0,.22.11.19c.29.56.66,1.16,1.32,1.15A.88.88,0,0,0,428.87,179.66Z"/><path class="cls-4" d="M436,198.84c-1.2-12.59,3.19-25,7.44-37.06,1.43-4,2.9-8.21,4.13-12.3L446,149c-1.22,4.05-2.69,8.21-4.11,12.22-4.3,12.2-8.76,24.8-7.52,37.72Z"/><path class="cls-4" d="M442.43,213.93c.95-4.74,2.12-9.52,3.26-14.14a215.84,215.84,0,0,0,4.85-23.73l-1.57-.19a209.92,209.92,0,0,1-4.82,23.55c-1.14,4.64-2.31,9.44-3.27,14.21Z"/><path class="cls-4" d="M449,228.17c.39-3.22.93-6.65,1.72-10.79.95-5,2.19-10.11,3.39-15,1.34-5.47,2.73-11.13,3.72-16.78l-1.55-.26c-1,5.59-2.37,11.23-3.7,16.68-1.21,4.93-2.45,10-3.41,15.09-.8,4.18-1.35,7.64-1.74,10.89Z"/><path class="cls-4" d="M454.83,248.31c2.75-14.82,6.3-29.43,9.73-43l-1.53-.38c-3.44,13.61-7,28.24-9.76,43.11Z"/><path class="cls-4" d="M461,264.66c.7-3.59,1.36-7.13,2.15-11.33l.55-3c2.27-12.21,4.63-24.84,7.67-37.09l-1.53-.38c-3.06,12.3-5.42,25-7.69,37.19l-.56,3c-.78,4.2-1.44,7.73-2.14,11.31Z"/><path class="cls-4" d="M465.18,275.51c.59-2.71,1.32-5.63,2.24-8.93s2.05-6.88,3.12-10.23a174.74,174.74,0,0,0,4.86-17.3l-1.55-.31A175.4,175.4,0,0,1,469,255.88c-1.07,3.37-2.18,6.84-3.14,10.29s-1.66,6.28-2.26,9Z"/><path class="cls-4" d="M470.91,294.86c.54-3.13,1.23-6.51,2.09-10.33,1-4.3,2.09-8.67,3.16-12.88,1.91-7.55,3.89-15.36,5.22-23.17l-1.56-.26c-1.32,7.76-3.29,15.53-5.2,23-1.07,4.23-2.18,8.6-3.16,12.92-.87,3.85-1.56,7.25-2.11,10.41Z"/><path class="cls-4" d="M476.75,307.13c.49-3.13,1.14-6.44,2-10.11,1.32-5.73,2.95-11.5,4.52-17.07s3.28-11.61,4.63-17.5l-1.55-.34c-1.33,5.85-3,11.73-4.6,17.42s-3.21,11.38-4.54,17.14c-.85,3.72-1.51,7.06-2,10.22Z"/><path class="cls-4" d="M484.22,327.9c.63-7.12,1.93-14.23,3.18-21.1,1-5.51,2-11.2,2.76-17l-1.57-.19c-.71,5.72-1.74,11.39-2.74,16.87-1.26,6.91-2.57,14.06-3.2,21.24Z"/><path class="cls-4" d="M491.39,347.15c.28-3.42.65-6.88,1.15-10.6a256.82,256.82,0,0,1,8-37.87l-1.52-.43a258.52,258.52,0,0,0-8,38.09c-.5,3.75-.88,7.24-1.15,10.68Z"/><path class="cls-4" d="M494.5,357.52c1.46-8.55,3.67-17.11,5.81-25.39,1.26-4.89,2.57-10,3.71-15l-1.54-.34c-1.14,5-2.44,10.05-3.71,14.94-2.14,8.3-4.36,16.89-5.83,25.51Z"/><path class="cls-4" d="M498.15,366.18c3.34-12.94,6.39-24.59,9.94-36.18l-1.52-.45c-3.56,11.62-6.61,23.29-9.95,36.24Z"/><path class="cls-4" d="M502.63,377.57c.61-2.31,1.4-4.81,2.4-7.63s2.24-5.87,3.4-8.73a119.22,119.22,0,0,0,5.76-16.5l-1.54-.36A118.57,118.57,0,0,1,507,360.64c-1.16,2.86-2.37,5.83-3.42,8.79s-1.82,5.39-2.44,7.74Z"/><path class="cls-4" d="M508.91,391.59c1.64-7.58,3.65-15.21,5.59-22.59,1.32-5,2.68-10.19,3.92-15.31l-1.54-.36c-1.23,5.11-2.59,10.28-3.91,15.28-1.94,7.4-4,15.05-5.6,22.66Z"/><path class="cls-4" d="M570.15,545.14l1.92-.84c-42.76-94.54-79.41-194.12-114.85-290.42C450.73,236.26,444,218,437.4,200.18c-8.93-24.09-15-49.24-20.85-73.57-3.63-15.06-7.38-30.63-11.78-45.84-1.46-5-3.61-10.37-5.68-15.52-3.88-9.61-7.89-19.56-7.38-27.72l-2.1-.12c-.54,8.62,3.56,18.78,7.52,28.61,2.06,5.1,4.18,10.37,5.61,15.32,4.39,15.16,8.14,30.71,11.76,45.75,5.88,24.38,11.95,49.6,20.92,73.8,6.63,17.86,13.33,36.08,19.81,53.7C490.69,350.93,527.35,450.54,570.15,545.14Z"/><path class="cls-4" d="M401.7,76.7a1.32,1.32,0,0,0,.7-.66L401,75.37a.37.37,0,0,1,.32-.15c-.84-.17-3.57-3.66-5.2-5.75-.81-1-1.56-2-2.25-2.82-12.06-14.42-19.49-27.2-22.7-39.06l-1.53.41c3.27,12.07,10.8,25,23,39.64.67.81,1.42,1.77,2.21,2.78,3.53,4.52,5.22,6.48,6.57,6.34A1.59,1.59,0,0,0,401.7,76.7Z"/><path class="cls-4" d="M404.41,86.45l.92-1.27c-13.5-9.51-23.59-23.41-33.35-36.86-1.69-2.32-3.44-4.73-5.17-7.08l-1.28.92c1.73,2.34,3.48,4.74,5.17,7.07C380.53,62.78,390.7,76.79,404.41,86.45Z"/><path class="cls-4" d="M406.8,97.41l1.14-1.07c-2.23-2.31-4.78-4.72-7.79-7.36-2.81-2.46-5.75-4.87-8.59-7.21C384.8,76.19,377.8,70.43,372,63.69l-1.2,1c5.88,6.84,12.93,12.65,19.75,18.26,2.83,2.33,5.76,4.74,8.55,7.19C402.08,92.76,404.6,95.13,406.8,97.41Z"/><path class="cls-4" d="M409,105.83l1-1.22c-3.73-2.91-7.41-6-10.51-8.56-6-5-12.23-10.38-20.28-17.43-4.06-3.56-7.47-6.56-10.92-9.64l-1.06,1.15c3.45,3.09,6.86,6.09,10.93,9.65,8.06,7.06,14.32,12.44,20.3,17.45C401.53,99.84,405.22,102.91,409,105.83Z"/><path class="cls-4" d="M411.59,116.68l1-1.23a5.71,5.71,0,0,1-.89-.88,10.88,10.88,0,0,0-.93-1l-.06,0c-8-6-15.44-12.35-22.63-18.51-4.85-4.14-9.86-8.43-15-12.6l-1,1.21c5.15,4.15,10.15,8.43,15,12.57,7.2,6.17,14.65,12.54,22.68,18.55a9.31,9.31,0,0,1,.78.82A6.28,6.28,0,0,0,411.59,116.68Z"/><path class="cls-4" d="M413.94,127.92l1.12-1.1c-6.75-6.64-13.93-12.84-20.87-18.83-3.89-3.37-7.92-6.85-11.79-10.34l-1.07,1.15c3.89,3.5,7.92,7,11.82,10.36C400.07,115.14,407.23,121.32,413.94,127.92Z"/><path class="cls-4" d="M418.69,143.55l1-1.21c-2.9-2.32-5.69-4.63-8.31-6.85a244.93,244.93,0,0,1-26.89-26.17l-1.21,1a245.49,245.49,0,0,0,27.07,26.34C413,138.9,415.78,141.22,418.69,143.55Z"/><path class="cls-4" d="M421.88,154.68l1.12-1.1c-7.36-7.28-15.49-14-23.34-20.52-5.34-4.42-10.86-9-16.13-13.73l-1.06,1.16c5.29,4.75,10.82,9.33,16.17,13.76C406.47,140.74,414.57,147.45,421.88,154.68Z"/><path class="cls-4" d="M423.45,163.8l1-1.2c-2.41-2-5-4.06-8.14-6.53l-6.88-5.36c-7.28-5.64-14.8-11.48-21.82-17.65l-1.05,1.16c7.05,6.2,14.59,12.05,21.89,17.71,2.29,1.79,4.59,3.57,6.87,5.36C418.47,159.75,421.05,161.82,423.45,163.8Z"/><path class="cls-4" d="M424.29,170.52l.85-1.31c-15.84-10-27.88-18.83-37.9-27.84l-1.06,1.15C396.26,151.59,408.37,160.48,424.29,170.52Z"/><path class="cls-4" d="M426.59,179.87a.53.53,0,0,0,.21-.11.82.82,0,0,0,.31-1,2.69,2.69,0,0,0-1.72-1.24c-.25-.22-.55-.5-.92-.85-6.29-6.07-18-13.26-27.43-19-3.87-2.38-7.21-4.43-9.48-6l-.9,1.28c2.3,1.58,5.66,3.64,9.55,6,9.35,5.73,21,12.87,27.16,18.82.35.34.66.63.94.88l.06.33a1.62,1.62,0,0,1,.31,0C425.78,179.89,426.25,180,426.59,179.87Z"/><path class="cls-4" d="M431,188.57l.85-1.31c-5.33-3.39-10.76-6.47-16-9.44-6.92-3.92-13.45-7.62-19.75-11.95l-.91,1.27c6.36,4.38,12.93,8.1,19.87,12C420.28,182.13,425.7,185.2,431,188.57Z"/><path class="cls-4" d="M434.83,200.36l.77-1.36c-10.64-5.81-20.73-12.81-31-20.07l-.93,1.27C414,187.49,424.12,194.51,434.83,200.36Z"/><path class="cls-4" d="M438.06,208.11l.63-1.43a192.9,192.9,0,0,1-34.83-19.45l-.92,1.27A194.54,194.54,0,0,0,438.06,208.11Z"/><path class="cls-4" d="M440.93,216.19l.68-1.41c-2.44-1.16-4.95-2.31-7.37-3.41-9.44-4.32-19.21-8.79-27.38-15.45l-1,1.2c8.33,6.79,18.19,11.3,27.73,15.66C436,213.88,438.49,215,440.93,216.19Z"/><path class="cls-4" d="M446.77,231.67l.77-1.36c-2.47-1.37-5-2.64-7.52-3.93l-.58-.3c-8.56-4.32-17.41-8.8-24-15.89l-1.16,1.05c6.75,7.3,15.73,11.84,24.41,16.23l.58.29C441.84,229.05,444.32,230.31,446.77,231.67Z"/><polygon class="cls-4" points="460.5 269.66 461.22 268.27 430.46 252.83 429.75 254.22 460.5 269.66"/><path class="cls-4" d="M465.65,283.13l.59-1.44c-9.26-3.67-18.19-8.46-26.82-13.08l-5.87-3.13-.75,1.37,5.86,3.13C447.34,274.62,456.31,279.43,465.65,283.13Z"/><path class="cls-4" d="M468.77,292l.34-1.52c-13.8-3-23.71-6.7-32.13-12l-.85,1.31C444.71,285.19,454.78,289,468.77,292Z"/><path class="cls-4" d="M474.77,305.87l.23-1.54a122.89,122.89,0,0,1-16.82-4.14c-6.36-1.89-12.94-3.85-19.67-4.52l-.16,1.55c6.58.66,13.08,2.59,19.38,4.46A123.22,123.22,0,0,0,474.77,305.87Z"/><path class="cls-4" d="M478.34,316.7l-.11-1.55c-10.9.75-23.21,1-31.42-6.09l-1,1.17C454.44,317.68,467.12,317.48,478.34,316.7Z"/><path class="cls-4" d="M482.6,326.44l-.05-1.56c-8.56.28-17.19-.73-26-1.88l-.21,1.54C465.22,325.7,473.93,326.72,482.6,326.44Z"/><path class="cls-4" d="M486.54,337.66l0-1.56a50.08,50.08,0,0,1-26-6.54l-.8,1.35A51.68,51.68,0,0,0,486.54,337.66Z"/><polygon class="cls-4" points="490.84 348.2 491.3 346.71 469.58 340.29 469.12 341.79 490.84 348.2"/><path class="cls-4" d="M491.23,353.56l-.05-1.56A61.65,61.65,0,0,1,477,350.92c-3.7-.76-8.24-2.06-10.54-5.32l-1.3.89c2.62,3.71,7.53,5.13,11.51,6A63.84,63.84,0,0,0,491.23,353.56Z"/><path class="cls-4" d="M498.54,368.76l.3-1.53c-2.59-.5-5.26-1.17-7.85-1.82-5.46-1.36-11.12-2.78-16.77-2.87l0,1.56c5.46.09,11,1.48,16.41,2.82C493.21,367.57,495.91,368.25,498.54,368.76Z"/><path class="cls-4" d="M501,378.21l0-1.56c-7.43-.08-16.68-.19-24.37-3.71l-.67,1.41C484,378,493.44,378.12,501,378.21Z"/><path class="cls-4" d="M505.15,388.09l-.31-1.53c-7.7,1.52-15.76.71-23.32-.39l-.23,1.54C489,388.83,497.21,389.66,505.15,388.09Z"/><path class="cls-4" d="M429.59,179.35a17.37,17.37,0,0,0,6.67-.7,26.49,26.49,0,0,0,4.27-1.65,39.2,39.2,0,0,0,4.17-2.38l-.54-.08c.51-3.47-.36-11.37-1.13-18.34-.3-2.68-.58-5.22-.76-7.31l1.58-.13c.17,2.07.45,4.6.75,7.27.72,6.54,1.53,13.87,1.22,17.84h0c.89-.61,1.78-1.27,2.69-2,.49-.38,1-.78,1.48-1.2,1.35-1.14,2.73-2.38,4.12-3.74-1.79-4.9-3.4-9.88-5-14.74-.74-2.26-1.47-4.53-2.23-6.79l1.5-.49c.75,2.27,1.5,4.54,2.23,6.8,1.51,4.62,3.05,9.34,4.73,14,.45-.46.91-.93,1.36-1.41s.77-.83,1.16-1.25l1.17-1.28h0c-1.68-4.64-3-9.44-4.24-14.13-1.91-7.07-3.89-14.38-7.13-21.08l1.42-.67c3.31,6.83,5.31,14.21,7.23,21.35,1.19,4.36,2.39,8.84,3.91,13.17q2.25-2.61,4.49-5.51c.19-.25.39-.5.58-.76-.08-.25-.16-.51-.25-.77-4-12.3-7.18-24.86-9.8-35.69l1.53-.36c2.6,10.71,5.75,23.11,9.69,35.28q2.41-3.24,4.77-6.74l.55-.81-.24-.74c-2.71-8.36-6.51-21.37-8.45-29.54l1.54-.36c1.44,6.09,3.92,14.88,6.21,22.41.16.52.31,1,.47,1.53.55,1.78,1.08,3.47,1.58,5q1.69-2.58,3.33-5.28c.33-.53.66-1.07,1-1.62.19-.3.37-.6.55-.92a327.87,327.87,0,0,0-11.25-32.72l1.46-.58c2.79,6.81,6.14,16,8.83,24.5.16.52.33,1,.48,1.55.58,1.84,1.11,3.64,1.6,5.35,1-1.71,2-3.46,2.94-5.21.09-.16.18-.32.26-.48l-.41-1.08L469.11,94l1.48-.55,12.48,32.69q2.51-4.7,4.79-9.46l-.32.32c-4.88-4.69-8.29-14.8-11.3-23.72-1.31-3.88-2.54-7.55-3.75-10.3l1.45-.62c1.24,2.82,2.48,6.51,3.8,10.43,2.89,8.58,6.17,18.26,10.63,22.81q2.38-5,4.46-10a.74.74,0,0,1-.93-.51h0l-.05-.14c0-.09-.07-.18-.1-.27l-.88-2.34c-.8-2.13-1.6-4.32-2.37-6.43-2.87-7.92-5.84-16.11-10-23.48l1.38-.76c4.25,7.48,7.25,15.74,10.14,23.71.77,2.11,1.56,4.29,2.36,6.42l.51,1.36.05.14h0l.37,1a1.21,1.21,0,0,0,.05.14h0c.95-2.31,1.85-4.59,2.69-6.86h0c-.08-.27-.16-.6-.25-1-.17-.74-.39-1.72-.6-2.7-.32-1.43-.64-2.9-.79-3.46a301.39,301.39,0,0,0-10-29.17l1.47-.55A298.89,298.89,0,0,1,495.89,90c.16.6.48,2,.81,3.54l.29,1.31c1.09-3.06,2.06-6.07,2.92-9l-14.11-37,1.48-.55L500.62,83.3h0c.62-2.25,1.15-4.45,1.6-6.57h0l-.31-.9c-1.94-5.58-3.63-11.64-5.27-17.5-1.47-5.27-3-10.71-4.69-15.84l1.5-.49c1.71,5.17,3.24,10.63,4.72,15.92,1.4,5,2.85,10.21,4.45,15.09h.32c.33-2,.59-3.9.75-5.72h-.24c.21-9.33-1.27-22.68-4.07-36.63l1.55-.3a215.22,215.22,0,0,1,3.87,28.06h0l.93-.11a42.87,42.87,0,0,1,0,9.29c6.56-6.83,9.92-16.86,12.66-25l1.5.49c-3,8.9-6.67,19.94-14.43,27h0a100.43,100.43,0,0,1-2.37,11.85h0l2.32-1.76c8.49-6.42,15.19-11.5,19.68-20.29l1.41.7c-4.65,9.11-11.48,14.28-20.13,20.83l-3.93,3h0q-.75,2.63-1.6,5.34h0c9.39-4.07,17.53-7.65,25-14l1,1.18c-7.74,6.6-16.11,10.23-25.81,14.44l-.84.36h0q-1.14,3.46-2.47,7c8.53-1.33,18.1-5.73,26-12l1,1.21a63.87,63.87,0,0,1-17.32,9.83,47.94,47.94,0,0,1-10.26,2.62q-1.62,4.25-3.49,8.56h0c9.73-3,20.07-6.59,32.36-11.15l.55,1.46-.27.1c-12.73,4.72-23.39,8.38-33.46,11.47q-1.53,3.47-3.2,6.93c1.38-.53,2.81-1.1,4.31-1.7,9.09-3.64,20.4-8.17,29.77-6.9l-.22,1.54c-8.94-1.21-20,3.24-29,6.81-2.07.83-4,1.61-5.88,2.29h0c-1.17,2.39-2.39,4.78-3.65,7.14,2.34,0,4.67,0,7,.07,4.62,0,9.38.06,14.05.24,1.17,0,2.18.16,3.07.27a13.3,13.3,0,0,0,5.62-.17l.39,1.52a14.78,14.78,0,0,1-6.2.19c-.91-.1-1.84-.21-2.94-.26-4.64-.18-9.39-.21-14-.24-2.56,0-5.17,0-7.79-.07,0,.06-.07.12-.1.19-.33.61-.66,1.21-1,1.81q-1.64,3-3.35,5.88a60.23,60.23,0,0,1,20.6,2.18,24.68,24.68,0,0,1,3.31,1.25,12.71,12.71,0,0,0,5.59,1.42l0,1.55A14.06,14.06,0,0,1,503,141.2a25.71,25.71,0,0,0-3.12-1.18A58.37,58.37,0,0,0,480,137.9l-1.29.06c-.08.12-.16.25-.23.38-1.28,2.12-2.59,4.21-3.92,6.24,9,.81,18.58,1.82,30.25,3.19l-.19,1.55c-11.93-1.41-21.65-2.43-30.85-3.24l-.19,0c-.33.49-.65,1-1,1.47-1.57,2.31-3.16,4.55-4.77,6.69,9.24,2.56,23.39,4.17,31.58,3.35l.15,1.55c-8.3.83-22.63-.79-32.08-3.38l-.66-.18c-.24.33-.5.65-.74,1-1.68,2.15-3.36,4.2-5.06,6.12-.33.39-.67.77-1,1.15l1.68.55c8.8,2.83,18.13,4.88,27.78,3.78l.19,1.55c-9.52,1.09-18.68-.79-27.32-3.49l-1.84-.59-1.65-.55h0q-1.06,1.16-2.13,2.22-.3.32-.6.6c-.42.41-.83.82-1.24,1.2-.84.81-1.67,1.57-2.5,2.29l3.8,1.09,1.49.4c8,2.16,16.16,3.74,24.31,2l.34,1.52c-10.42,2.28-20.67-.67-30.57-3.53l-.79-.23a51.53,51.53,0,0,1-6.25,4.52,159.94,159.94,0,0,1,22.75,3.22l-.31,1.53c-8.32-1.64-16.54-3.11-25.06-3.28a32,32,0,0,1-3.34,1.48,21,21,0,0,1-9.39,1.37Z"/><path class="cls-4" d="M234.38,100c22.13,2.36,36.71,19.18,50.81,35.44,3.52,4.05,6.84,7.88,10.27,11.49,22.86,24,46.81,42.53,82.66,63.92,25.92,15.45,51.75,29.84,78.1,44.11q.43,1.43.9,2.85c-27-14.62-53.51-29.34-80.09-45.19-36-21.49-60.11-40.11-83.1-64.27-3.47-3.64-6.81-7.49-10.34-11.56-13.84-16-28.14-32.45-49.44-34.72Z"/><path class="cls-4" d="M265.24,115c-10.5-1.59-21.61-3.44-32-7.06l-.53,1.47c10.49,3.67,21.69,5.53,32.26,7.13Z"/><path class="cls-4" d="M269.64,119.08c-3.91-.42-7.88-1-11.73-1.55-4.94-.71-10-1.45-15.19-1.88l-.14,1.55c5.1.43,10.19,1.16,15.1,1.87,3.86.56,7.86,1.14,11.79,1.55Z"/><path class="cls-4" d="M276.29,125.63c-5.31-1.19-10.86-1.31-16.24-1.43a101.14,101.14,0,0,1-12.83-.84L247,124.9a99.5,99.5,0,0,0,13,.85c5.29.12,10.77.25,15.92,1.4Z"/><path class="cls-4" d="M283.23,132.68c-5.84-.5-11.79-.88-17.55-1.25-4.39-.29-8.94-.58-13.41-.92l-.12,1.55c4.48.35,9,.64,13.43.92,5.75.37,11.69.75,17.51,1.25Z"/><path class="cls-4" d="M286.34,138.51l.06-1.56c-2.94-.11-5.94-.1-8.83-.09-6.37,0-12.95,0-19.25-1.19l-.31,1.52c6.46,1.26,13.12,1.24,19.56,1.23C280.45,138.41,283.43,138.4,286.34,138.51Z"/><polygon class="cls-4" points="293.58 148.21 293.7 146.66 264.08 144.38 263.96 145.93 293.58 148.21"/><path class="cls-4" d="M294.87,153.58l.07-1.56-1.52-.06c-9.47-.39-19.26-.79-28.71-2.54l-.29,1.53c9.56,1.77,19.41,2.17,28.94,2.56Z"/><path class="cls-4" d="M306,158.14l.09-1.56c-6.48-.36-13.06-.63-19.43-.89-4-.17-8-.33-12.05-.52l-.07,1.55q6,.28,12.06.52C292.91,157.51,299.48,157.78,306,158.14Z"/><path class="cls-4" d="M312.45,165.16l.08-1.56c-10.84-.56-21.42-1.21-31.67-3.07l-.29,1.53C290.92,163.94,301.56,164.6,312.45,165.16Z"/><path class="cls-4" d="M333,183.63l.09-1.56c-5.08-.28-10.25-.48-15.26-.66-7.69-.3-15.65-.6-23.44-1.22l-.13,1.56c7.83.62,15.8.92,23.51,1.21C322.81,183.15,328,183.35,333,183.63Z"/><path class="cls-4" d="M343.74,191.16l-.05-1.55c-10.13.34-20.44.41-30.41.48-5.37,0-10.93.08-16.39.16l0,1.56c5.46-.09,11-.12,16.39-.16C323.27,191.58,333.59,191.5,343.74,191.16Z"/><path class="cls-4" d="M355.39,198.92l-.11-1.56-1.38.11c-1,.08-2.11.16-3.16.21l.07,1.56c1.08-.05,2.16-.14,3.21-.22Z"/><path class="cls-4" d="M354.75,198.46l.05-1.56a150.19,150.19,0,0,0-17.93.81c-7.46.63-15.16,1.29-22.72.44l-.18,1.54c7.72.87,15.5.21,23-.43A147.66,147.66,0,0,1,354.75,198.46Z"/><path class="cls-4" d="M361.85,203.39l-.08-1.56c-4.85.24-9.77.64-14.53,1-9.92.81-20.16,1.64-30.25,1l-.1,1.56c10.2.65,20.51-.18,30.48-1C352.11,204,357,203.62,361.85,203.39Z"/><path class="cls-4" d="M371.16,209.35l-.09-1.56c-4.87.26-9.79.78-14.56,1.27-8.38.88-17.05,1.78-25.59,1.33l-.09,1.56c8.67.46,17.4-.46,25.85-1.34C361.42,210.12,366.33,209.61,371.16,209.35Z"/><path class="cls-4" d="M382.15,216.57,382,215c-14.67,1.46-29.48,1.43-43.81,1.41V218C352.54,218,367.4,218,382.15,216.57Z"/><path class="cls-4" d="M401.73,225.64l-.06-1.55c-16.33.61-32.49-.15-46.14-1l-.1,1.55C369.13,225.5,385.33,226.26,401.73,225.64Z"/><path class="cls-4" d="M414.25,233l-.55-1.46c-12.35,4.5-25.64,4.56-39.52.19l-.48,1.49C387.92,237.67,401.56,237.6,414.25,233Z"/><path class="cls-4" d="M426.85,240.84l-.1-1.55c-3.58.22-7.22.51-10.74.78-10.78.83-21.93,1.69-32.9,1.13l-.08,1.55c11.07.58,22.28-.29,33.11-1.13C419.65,241.35,423.28,241.07,426.85,240.84Z"/><path class="cls-4" d="M439.1,247l-.22-1.54c-14.66,2.07-29.59,3.46-42.44,4.6l.14,1.55C409.45,250.5,424.41,249.11,439.1,247Z"/><path class="cls-4" d="M256,108v-.06A71.4,71.4,0,0,0,251.46,94l-1.42.67a70.87,70.87,0,0,1,4.41,13.63l0,.06Z"/><path class="cls-4" d="M265.54,115.08c-.58-2.59-1-5.27-1.48-7.86-.47-2.76-1-5.62-1.6-8.4l-1.55.34c.64,2.75,1.12,5.58,1.59,8.32s.91,5.3,1.5,7.94Z"/><path class="cls-4" d="M275.62,124.86c-1.43-4.37-2.79-8.84-4.11-13.16-1-3.17-2-6.44-3-9.65l-1.51.46c1,3.2,2,6.47,3,9.64,1.32,4.33,2.68,8.81,4.12,13.19Z"/><path class="cls-4" d="M289.24,139.51c-5.27-3.4-6.82-15.78-7.84-24-.21-1.72-.41-3.34-.62-4.66l-1.56.24c.2,1.29.4,2.9.61,4.61,1.13,9,2.66,21.29,8.54,25.08Z"/><path class="cls-4" d="M297.18,148.5c-4.1-1.59-4.06-14.76-4-24.37a92,92,0,0,0-.36-11.55l-1.57.22a91.51,91.51,0,0,1,.35,11.33c0,11.17-.08,23.84,5,25.82Z"/><path class="cls-4" d="M304.85,155.47c-4.39-5.48-5-15.32-5.52-24.83-.37-6.32-.72-12.3-2.11-17.13l-1.52.42c1.34,4.67,1.69,10.56,2.05,16.8.57,9.75,1.16,19.84,5.86,25.71Z"/><path class="cls-4" d="M315.41,166.08c-6.64-3.75-8.41-20.13-9.47-29.91-.23-2.1-.43-3.9-.64-5.39l-1.56.22c.21,1.46.4,3.25.63,5.33,1.16,10.74,2.92,27,10.25,31.1Z"/><path class="cls-4" d="M321.54,171c-4.38-12.33-5.66-25.63-6.9-38.48l-1.57.14.79-.08-.79.09c1.25,12.94,2.54,26.33,7,38.85Z"/><path class="cls-4" d="M327.12,175.32c-3.53-8.84-3.2-18.25-2.84-28.22,0-1.07.07-2.15.11-3.23v-.11c-.1-.81-.14-1.67-.19-2.57a19.54,19.54,0,0,0-.93-6l-1.48.54a18.5,18.5,0,0,1,.83,5.55c.05.91.09,1.77.19,2.61,0,1.06-.07,2.11-.1,3.17-.35,9.69-.7,19.7,2.95,28.84Z"/><path class="cls-4" d="M336.87,183c-3.95-2.53-4.73-14.79-2.31-36.45.17-1.53.25-2.22.25-2.52h-1.58c0,.23-.11,1.17-.24,2.36-1.61,14.42-3.05,34,3,37.93Z"/><path class="cls-4" d="M344.93,163.2a95.11,95.11,0,0,0,.29-9.65l-1.58,0c.22,10.34-1.32,21.21-4.72,33.2l1.53.42A124.07,124.07,0,0,0,344.93,163.2Z"/><path class="cls-4" d="M352.32,162.82c.08-1.06.15-2.12.2-3.17l-1.58-.08A124.31,124.31,0,0,1,347.87,181v.11c-.33,4.07-.66,8.28-1,12.19l1.58.13c.33-3.9.67-8.09,1-12.15A129.78,129.78,0,0,0,352.32,162.82Z"/><path class="cls-4" d="M359.3,172.29l-1.56-.21c-.56,4-1.4,8.09-2.22,12-.48,2.37-1,4.82-1.43,7.23s-.78,4.43-1.06,6.26l1.56.23c.28-1.81.6-3.73,1.06-6.21s.94-4.84,1.42-7.2C357.89,180.45,358.74,176.36,359.3,172.29Z"/><path class="cls-4" d="M367.6,187a94.76,94.76,0,0,0,.29-10.92l-1.58.06c.28,7.28-.61,14.65-1.47,21.79-.22,1.83-.44,3.66-.64,5.49l1.57.17c.2-1.82.42-3.65.64-5.48C366.85,194.48,367.3,190.76,367.6,187Z"/><path class="cls-4" d="M376.88,189l-1.57-.2c-.88,6.64-1.7,13.39-2.43,20l1.57.16C375.18,202.35,376,195.61,376.88,189Z"/><path class="cls-4" d="M384.22,205.92a76,76,0,0,0,0-12.15l-1.58.12a84.71,84.71,0,0,1-1.13,20.69l1.56.25C383.63,211.73,384,208.77,384.22,205.92Z"/><path class="cls-4" d="M390.59,212.53q.3-3.9.61-7.82c.21-2.68.42-5.35.63-8.05l-1.58-.12-.63,8.05q-.54,7-1.1,13.92l1.57.13C390.26,216.6,390.42,214.57,390.59,212.53Z"/><path class="cls-4" d="M397.69,222.3c.43-8.41,1.08-17.06,2-27.21l-1.57-.14c-1,10.17-1.61,18.84-2.05,27.27Z"/><path class="cls-4" d="M406.48,227a138.57,138.57,0,0,0-1.66-26.23l-1.56.24A136.34,136.34,0,0,1,404.9,227Z"/><path class="cls-4" d="M415.58,232.37c-.09-2.58,0-5.22.15-8a72,72,0,0,0-.18-12.55L414,212a70.92,70.92,0,0,1,.16,12.29c-.12,2.69-.24,5.48-.15,8.12Z"/><path class="cls-4" d="M424.69,237.41a89.55,89.55,0,0,1-1.8-15.61c-.2-3.55-.4-7.22-.9-10.81l-1.57.21c.49,3.53.7,7.17.89,10.69a90.44,90.44,0,0,0,1.84,15.87Z"/><path class="cls-4" d="M433,241.53c-.62-5.22-1-10.56-1.4-15.72-.21-2.75-.42-5.59-.66-8.39l-1.58.14c.24,2.78.46,5.62.66,8.36.39,5.18.78,10.54,1.41,15.8Z"/><path class="cls-4" d="M206.16,190.48c5.41,0,10.52.07,15.54-.12,32.25-1.26,61.24-6.63,99.15-18.46.19.67.37,1.34.56,2-38.06,11.87-67.2,17.26-99.63,18.52-5.07.2-10.2.17-15.64.13-21.29-.15-43.3-.3-59,14.08l-1.44-1.52C162,190.18,184.46,190.33,206.16,190.48Z"/><path class="cls-4" d="M177.47,192c-8.09,6.78-16.79,13.85-26.35,19.19l.78,1.36c9.68-5.41,18.45-12.53,26.59-19.36Z"/><path class="cls-4" d="M183.47,191.38c-2.88,2.64-5.92,5.22-8.87,7.73-3.78,3.2-7.69,6.52-11.4,10.08l1.11,1.12c3.67-3.53,7.56-6.83,11.32-10,3-2.52,6-5.11,8.91-7.77Z"/><path class="cls-4" d="M192.85,190.72c-4.39,3.17-8.12,7.23-11.74,11.15a97.4,97.4,0,0,1-9,9l1,1.19a102,102,0,0,0,9.2-9.16c3.56-3.87,7.24-7.86,11.49-10.95Z"/><path class="cls-4" d="M202.8,190.17c-4.21,4-8.4,8.2-12.46,12.25-3.09,3.09-6.3,6.28-9.48,9.39l1.11,1.1c3.19-3.11,6.4-6.3,9.5-9.4,4-4,8.23-8.21,12.43-12.22Z"/><path class="cls-4" d="M209.3,191.67l-1.15-1.06c-2,2.11-4,4.35-5.86,6.51-4.16,4.75-8.46,9.66-13.52,13.56l1,1.23c5.19-4,9.54-9,13.75-13.77C205.37,196,207.32,193.76,209.3,191.67Z"/><polygon class="cls-4" points="221.48 192.63 220.37 191.52 199.23 212.09 200.34 213.2 221.48 192.63"/><path class="cls-4" d="M237.19,189.92l-1.13-1.08c-4.52,4.58-9,9.31-13.41,13.88-2.76,2.88-5.52,5.77-8.29,8.63l1.14,1.08c2.78-2.87,5.54-5.76,8.3-8.64C228.17,199.22,232.68,194.5,237.19,189.92Z"/><path class="cls-4" d="M246.84,189.68l-1.14-1.08c-7.53,7.7-15,15.16-23.11,21.57l1,1.22C231.79,204.91,239.27,197.42,246.84,189.68Z"/><path class="cls-4" d="M255.69,190.22l-1.14-1.08c-7.5,7.71-14.33,14.58-22,20.57l1,1.22C241.28,204.89,248.15,198,255.69,190.22Z"/><path class="cls-4" d="M265.43,188.29l-1.17-1-3.06,3.3c-7.3,7.9-14.85,16.06-23.23,23.09l1,1.18c8.46-7.09,16-15.29,23.38-23.22Z"/><path class="cls-4" d="M274.48,186.43l-1.13-1.08c-3.55,3.6-7.09,7.33-10.51,10.93-5.26,5.54-10.71,11.27-16.29,16.67l1.11,1.11c5.6-5.42,11.06-11.17,16.33-16.72C267.41,193.75,270.94,190,274.48,186.43Z"/><path class="cls-4" d="M287.26,183.4l-1.23-1c-6.37,7.77-13.06,15.49-19.54,23-3.49,4-7.1,8.2-10.62,12.32l1.21,1c3.52-4.12,7.12-8.28,10.61-12.3C274.17,198.92,280.88,191.19,287.26,183.4Z"/><path class="cls-4" d="M300.84,179.8l-1.27-.93-.82,1.1c-.62.82-1.26,1.67-1.91,2.49l1.24,1c.67-.83,1.32-1.69,1.94-2.53Z"/><path class="cls-4" d="M300.06,180l-1.15-1.06a146,146,0,0,0-11.14,13.89c-4.39,6-8.93,12.14-14.54,17.21l1.07,1.15c5.72-5.18,10.31-11.42,14.75-17.45A146.53,146.53,0,0,1,300.06,180Z"/><path class="cls-4" d="M308.5,177.92l-1.25-1c-3,3.77-5.92,7.7-8.74,11.5-5.87,7.91-11.95,16.08-19.05,23.17l1.13,1.1c7.18-7.17,13.29-15.4,19.2-23.35C302.6,185.59,305.51,181.67,308.5,177.92Z"/><path class="cls-4" d="M166,194.25l-.06,0a74.59,74.59,0,0,0-13.63-5.75l-.42,1.5a73.33,73.33,0,0,1,13.33,5.64l.06,0Z"/><path class="cls-4" d="M177.72,191.81c-2.37-1.26-4.72-2.67-7-4-2.43-1.46-4.94-3-7.5-4.31l-.74,1.37c2.51,1.33,5,2.83,7.41,4.27s4.66,2.8,7.07,4.08Z"/><path class="cls-4" d="M191.82,190.71c-4.29-1.79-8.61-3.7-12.78-5.56-3.06-1.35-6.22-2.76-9.35-4.1l-.63,1.43c3.12,1.34,6.28,2.74,9.33,4.09,4.18,1.86,8.51,3.78,12.81,5.57Z"/><path class="cls-4" d="M212,190.17c-6.06,1.69-16.56-5.26-23.51-9.87-1.46-1-2.83-1.88-4-2.59l-.84,1.32c1.13.7,2.49,1.6,3.94,2.56,7.62,5,18.06,12,24.82,10.08Z"/><path class="cls-4" d="M224.06,190.13c-3.91,2-14-6.63-21.32-12.95a93,93,0,0,0-9.09-7.3l-.85,1.31a95.55,95.55,0,0,1,8.91,7.16c8.54,7.35,18.22,15.68,23.08,13.17Z"/><path class="cls-4" d="M264.23,185.4c-9.09-3.15-16.08-9.57-23.49-16.36l-2.4-2.2-.1-.07c-.68-.45-1.36-1-2.09-1.54a20.15,20.15,0,0,0-5.21-3.24l-.56,1.45a19.05,19.05,0,0,1,4.8,3c.73.56,1.42,1.09,2.13,1.57.79.71,1.57,1.43,2.35,2.15,7.2,6.6,14.65,13.43,24,16.69Z"/><path class="cls-4" d="M276.53,183.2C272,184.48,262.09,177,247.07,161c-1.06-1.13-1.54-1.64-1.76-1.83l-1.05,1.16c.18.16.83.85,1.65,1.73,10,10.64,24.1,24.57,31.06,22.59Z"/><path class="cls-4" d="M266.61,164.2a97.27,97.27,0,0,0-7.21-6.53l-1,1.19a114.65,114.65,0,0,1,22.37,25.27l1.32-.86A126.65,126.65,0,0,0,266.61,164.2Z"/><path class="cls-4" d="M271.15,158.45c-.76-.76-1.52-1.5-2.29-2.23l-1.1,1.13a126.44,126.44,0,0,1,14.44,16.34l.07.08c2.91,2.91,5.92,5.91,8.7,8.72l1.13-1.08c-2.77-2.81-5.76-5.8-8.66-8.7A133.73,133.73,0,0,0,271.15,158.45Z"/><path class="cls-4" d="M283,159.45l-1.19,1c2.72,3.05,5.28,6.34,7.77,9.52,1.49,1.91,3,3.89,4.6,5.8s2.89,3.49,4.1,4.89l1.21-1c-1.21-1.39-2.47-2.89-4.08-4.85s-3.09-3.87-4.58-5.78C288.32,165.85,285.74,162.54,283,159.45Z"/><path class="cls-4" d="M299.71,162.92a93.81,93.81,0,0,0-8.18-7.37l-1,1.22c5.76,4.55,10.83,10,15.73,15.36,1.26,1.36,2.52,2.73,3.8,4.08l1.15-1.06-3.78-4.07C304.94,168.36,302.38,165.59,299.71,162.92Z"/><path class="cls-4" d="M177.15,152.07l-.71.06c-8.15.68-15.19,1.28-22.92-.38l.26-1.17c7.43,1.59,14.29,1,22.19.38h0q-1.59-1.53-3.08-3h0l-3.8-.6c-8.32-1.29-14.89-2.3-21.47-6.78l.69-1c6.35,4.32,12.8,5.32,21,6.58l2.23.35h0a79.34,79.34,0,0,1-6-7.17h0c-7.92-2-14.57-8.1-19.93-13.05l.84-.88c4.93,4.56,11,10.13,18,12.37a33.88,33.88,0,0,1-3.48-6.3l.67-.26h0a169.6,169.6,0,0,1-7.91-20.44l1.17-.36c3.34,10.48,7.34,20.07,11,26.32l-.16.09q1.19,1.77,2.66,3.61h0l.21-.11c-.74-3.9-1.7-7.94-2.64-11.87-1-4.12-2-8.38-2.78-12.51l1.21-.22c.76,4.1,1.78,8.35,2.76,12.46,1.09,4.57,2.21,9.29,3,13.79l.12.72h0c1.1,1.28,2.29,2.57,3.55,3.87h0L169.66,118l1.21-.17L175.18,148c1.67,1.67,3.46,3.35,5.35,5-.1-.33-.2-.68-.3-1-.34-1.15-.66-2.23-.78-2.7a231.58,231.58,0,0,1-4.17-23.55l1.21-.16a228.72,228.72,0,0,0,4.15,23.43c.11.44.44,1.56.76,2.64.22.74.45,1.49.61,2.05.09.3.16.55.2.76h0c1.42,1.22,2.89,2.45,4.4,3.66h0s0-.07,0-.1l-.12-.81h0l0-.11-.17-1.11c-.25-1.73-.53-3.5-.81-5.21-1-6.47-2.09-13.16-2-19.79l1.22,0c-.07,6.53,1,13.16,2,19.58.27,1.72.56,3.49.81,5.22l.29,1.92,0,.22a.66.66,0,0,1,0,.11h0c0,.31-.06.61-.45.69q3.28,2.63,6.78,5.16c1.32-4.72-.1-12.48-1.35-19.35-.58-3.14-1.12-6.1-1.34-8.46l1.22-.11c.21,2.31.75,5.24,1.32,8.35,1.31,7.15,2.79,15.25,1.24,20.21l-.34-.1q3.34,2.4,6.8,4.67l-3.81-26.72,1.21-.17L203,169.17l.12.88.35.23q2,1.26,4,2.46c-.31-1.34-.63-2.75-.93-4.21-.09-.41-.17-.82-.25-1.23-1.36-6.73-2.54-14.2-3.21-19.83l1.21-.14a253.4,253.4,0,0,0,4.65,26.3l.72.42,1.27.74c1.42.82,2.83,1.6,4.25,2.36-.24-1.22-.52-2.56-.81-4-.09-.4-.17-.8-.26-1.21-1.28-5.95-2.9-12.81-4.21-17.47l1.18-.31c1.75,6.25,4.07,16.46,5.37,23.12,0,.19.08.39.11.58l.68.35q2.91,1.51,5.77,2.83c-1.9-9.68-4.42-19.25-6.68-27.46l1.17-.31c2.29,8.3,4.84,18,6.75,27.78.05.21.09.41.12.61l.68.31c1.74.76,3.44,1.46,5.12,2.1-.6-3.5-1.46-7-2.3-10.37-1.37-5.54-2.79-11.27-3.11-17.11l1.22-.07c.32,5.73,1.72,11.41,3.08,16.9.9,3.64,1.82,7.37,2.43,11.14h0l1.27.44,1.26.42c.49.16,1,.32,1.45.46-.61-3.77-1.34-7.53-2-11.21q-.53-2.72-1-5.43l1.2-.22q.51,2.72,1,5.43c.75,3.87,1.52,7.83,2.15,11.81,1.45.41,2.85.75,4.2,1,.49.11,1,.2,1.46.28.88.15,1.73.27,2.56.37h0c-1.7-2.58-3.9-7.85-5.86-12.55-.81-1.92-1.57-3.73-2.22-5.2l1.11-.49c.67,1.48,1.43,3.3,2.23,5.23,2.1,5,4.47,10.68,6.12,12.85l-.34.25,1.32.09a18.15,18.15,0,0,0-1.76,1.51,43.19,43.19,0,0,1-4.58-.69l0,0a3.62,3.62,0,0,0-1.49-.24.94.94,0,0,0,.1-.1c-.83-.19-1.68-.4-2.55-.64l-1.29-.36-.63-.19c-.75-.23-1.51-.47-2.29-.73h0c-.3.32-.6.65-.91,1s-.68.72-1,1.07c-4.84,5-10.35,9.6-17.21,12.33l-.46-1.12c7-2.77,12.52-7.57,17.42-12.7.32-.32.63-.65.94-1l-1.12-.41c-1.88-.68-3.79-1.46-5.73-2.31l-.87-.38-.38.36c-5.43,5.2-14.54,11.53-20.49,14l-.47-1.11c5.86-2.43,14.85-8.69,20.16-13.79-1.9-.87-3.82-1.81-5.75-2.8l-1.22-.64-.12.08c-5.93,3.91-12.14,8.15-19.71,13.45l-.7-1c7.39-5.19,13.5-9.36,19.31-13.2-1.66-.89-3.33-1.83-5-2.8l-.3-.18-.89.44a44.65,44.65,0,0,0-12.66,8.67,19.22,19.22,0,0,0-1.67,1.94,10.68,10.68,0,0,1-3.65,3.33l-.57-1.06a9.54,9.54,0,0,0,3.25-3,20,20,0,0,1,1.78-2,45.66,45.66,0,0,1,13.16-9c-1.5-.9-3-1.82-4.48-2.77-.46-.28-.91-.57-1.36-.87l-.14-.09c-1.76,1-3.52,1.95-5.25,2.9-3.11,1.69-6.32,3.45-9.4,5.26-.74.43-1.33.85-1.9,1.25a11.37,11.37,0,0,1-4.28,2.13l-.3-1.17a10.21,10.21,0,0,0,3.87-1.94c.57-.4,1.2-.85,2-1.3,3.1-1.82,6.32-3.58,9.44-5.29q2.33-1.26,4.7-2.58-2.62-1.72-5.17-3.52h0c-1.5.21-3.13.4-4.85.59-7.39.83-16.59,1.87-22.2,6l-.72-1c5.87-4.27,15.25-5.33,22.78-6.17l3.56-.42q-2.43-1.74-4.77-3.54c-8,1.58-16.6,3-27,4.43l-.23,0L162,165.6c10-1.39,18.4-2.74,26.13-4.25h0c-1.92-1.49-3.79-3-5.58-4.53a36.71,36.71,0,0,1-7.95,2,49.79,49.79,0,0,1-15.43-.34l.22-1.18c7.68,1.38,15.83.87,22.11-1.34q-2.24-1.92-4.31-3.85Z"/><path class="cls-4" d="M257.33,321.1c3.4,3.81,7.89,5.46,12.33,4.54a12.49,12.49,0,0,0,9.22-8.74l.65.2h0c1.17-2,2.2-4.14,3.26-6.3,3.25-6.66,6.59-13.51,14.4-18a86.31,86.31,0,0,0-23.71,1.88l-.23.06-.19-.14c-2.49-1.68-2-3.15-1.65-4.22a2.48,2.48,0,0,0,.19-1.21l1-.21a3.3,3.3,0,0,1-.22,1.73c-.32,1-.58,1.76,1.06,2.93A89.31,89.31,0,0,1,299,291.9l2.23.16q5.67.44,11.79,1.4c-5.76-5.33-8.92-15.94-12-26.22-.36-1.22-.73-2.43-1.09-3.63h0c-4.18-.06-8.42-1.16-12.55-2.24a58.5,58.5,0,0,0-12.09-2.26l0-1a58.94,58.94,0,0,1,12.31,2.28,54,54,0,0,0,12,2.21c-3.72-12.12-7.79-22.51-16.41-22.24l0-1c9.47-.3,13.69,10.64,17.55,23.28.1.34.21.68.32,1l1,3.35c3.21,10.81,6.54,22,12.79,26.67l-.09.12q21.56,3.61,48.5,13.6c4.27,1.58,8.6,3.09,12.9,4.55a3.36,3.36,0,0,0,.3-.74c2.12-7.21-8.45-34-14.95-42.81-.76-1-1.56-2-2.39-3l0,0a18.06,18.06,0,0,1-5.24-5h0a72.55,72.55,0,0,0-8.06-5.65h0c-2.81,3.81-7.95,6-14.18,6h-.26c-7.85-.11-15.35-3.52-18.73-8.53l.88-.58c3.15,4.67,10.47,8,17.87,8.07h.25c5.84,0,10.64-2,13.26-5.45-2.16-1.3-4.34-2.53-6.51-3.75-7.43-4.17-15.12-8.49-21-15.27l.8-.67c5.73,6.63,13.34,10.91,20.69,15a119.19,119.19,0,0,1,13.79,8.59h0C350,251.4,354.19,244,358,237.19c3.06-5.41,5.94-10.51,5.72-15.08l1.06-.05c.23,4.87-2.73,10.1-5.86,15.63-4.25,7.53-8.62,15.26-4.3,22a46.08,46.08,0,0,1,5.12,4.88l.68.45-.12.19c.7.81,1.38,1.66,2,2.55,6.11,8.33,17.47,35.66,15.11,43.71a5.2,5.2,0,0,1-.31.79l6.58,2.21c13.95,4.66,28.32,9.47,41.74,16.17-.34-3,.16-6.9.68-10.95.57-4.43,1.15-9,.78-13-1-10.86-5.12-21.69-9.07-32.16-.79-2.13-1.62-4.32-2.4-6.45-.59-1.64-1.13-3.19-1.6-4.66-.11-.37-.23-.73-.34-1.09a54.38,54.38,0,0,1-2.65-14.53c-12.6-1.3-26.46-25.66-27.65-35.62l1-.12c1.27,10.56,15.24,33.32,26.6,34.7,0-7.58,2.48-13.65,5.9-22.13,1.61-4,3.42-8.49,5.3-13.94l1,.33c-1.88,5.48-3.71,10-5.31,14-3.37,8.37-5.78,14.35-5.81,21.82,0,.34,0,.68,0,1a52.3,52.3,0,0,0,2.46,13.72c1.69-1.41,3.89-3.1,6.33-5,10.24-7.87,25.72-19.76,24.16-27.7l1-.19c1.68,8.56-13.48,20.2-24.55,28.71-2.61,2-4.94,3.79-6.65,5.24.5,1.6,1.07,3.28,1.72,5.07.78,2.13,1.6,4.32,2.4,6.44,4,10.53,8.08,21.43,9.13,32.42.38,4.1-.21,8.74-.78,13.21s-1.09,8.48-.59,11.41q2.19,1.11,4.33,2.29c6.77,3.73,13.26,8.13,19.55,12.38,2.52,1.71,5.14,3.48,7.73,5.18,6.32,4.14,12.26,9.81,18,15.3,6.91,6.6,14,13.43,21.66,17.31l-.48.93c-7.75-4-15-10.84-21.91-17.49-5.72-5.46-11.63-11.1-17.87-15.18-2.59-1.71-5.21-3.48-7.74-5.2-6.26-4.23-12.73-8.61-19.46-12.32-1.15-.64-2.31-1.26-3.47-1.86l-1.27-.64a209.17,209.17,0,0,0-21.84-9.37h0c-8.6,13.77-24.22,24.25-41.84,28.06-6.89,1.49-13.87,1.21-20.62.94l-2.2-.08c0,1.11.07,2.21.1,3.27.28,8.73.51,16.27-4.45,24.46l-.35.55c1.07,5.06,4.78,10.94,10.28,16.16l-.73.75c-5.33-5.05-9-10.75-10.37-15.81-2.37,3-6.06,5.76-9.38,8.28s-6.24,4.74-7,6.44l-1-.42c.86-1.94,3.85-4.21,7.32-6.84s7.49-5.7,9.72-8.79c.2-.28.39-.57.56-.85l.31-.52c4.49-7.74,4.26-15,4-23.37,0-1.09-.07-2.21-.1-3.35-5.72-.18-11.54-.18-17.19,1.11a52.23,52.23,0,0,0-10.6,4.21c-4.11,2-8,3.85-11.61,4.16l-.08-1c3.42-.28,7.21-2.11,11.22-4a52.72,52.72,0,0,1,10.83-4.29c5.76-1.31,11.64-1.33,17.41-1.14h0v-.1l1.05,0c0,.05,0,.11,0,.16h0l2.25.09c4.2.16,8.49.33,12.77.07-21.61-14.52-31.69-21.12-57.58-15.13l-.24-1c26.54-6.14,36.68.68,58.92,15.62l.59.4a49.67,49.67,0,0,0,5.9-.87c17.27-3.73,32.58-14,41-27.42-6.48-2.39-13-4.57-19.45-6.73l-6.88-2.31-1.19-.4c-4.15-1.41-8.33-2.87-12.45-4.4C338.26,299.19,317,294.05,299.2,293c-8.61,4.26-12.09,11.39-15.46,18.3-3.47,7.11-7.06,14.46-16.19,18.28l-.41-1a23.91,23.91,0,0,0,4.41-2.39h0a13.3,13.3,0,0,1-1.67.47,12.76,12.76,0,0,1-2.75.27,14.57,14.57,0,0,1-10.59-5.14Z"/><path class="cls-4" d="M382,209c6.78-9.31,16.35,10.46,6.46,12.71C379.7,223.68,379.85,211.89,382,209Z"/><path class="cls-4" d="M426.66,212.29c.06,5.92-5.14,11-10,9.48a5.75,5.75,0,0,1-2.16-9.68c1.21-1.15,2.43-2.28,3.56-3.31C421.3,205.87,426.61,208,426.66,212.29Z"/><path class="cls-4" d="M445.87,222.37c4.94-2.55,9.55,4.09,11.48,9.62C445.79,251.22,432.33,229.37,445.87,222.37Z"/><path class="cls-4" d="M299.92,332.87c7,9.15-7.41,14.07-10.45,10C282.78,333.94,294.17,325.35,299.92,332.87Z"/><path class="cls-4" d="M305.66,354.4s.36.62,1.2,2.17a7.29,7.29,0,0,1-3.47,10.15C290,372.58,289.15,344.47,305.66,354.4Z"/><path class="cls-4" d="M349.38,393.62h0c16.61,17.37-20.2,10.91-5.05.82A6.24,6.24,0,0,1,349.38,393.62Z"/><path class="cls-4" d="M322,392.27l.44.74a5.6,5.6,0,0,1-2.12,7.77l-.15.08a5.8,5.8,0,0,1-8.63-5.79c.07-.41.14-.82.23-1.23A5.58,5.58,0,0,1,322,392.27Z"/><path class="cls-4" d="M259.33,320.9l.05.1a4.71,4.71,0,0,1-3.26,6.9,7.31,7.31,0,0,1-7.56-3.22,4.56,4.56,0,0,1,2.32-7l.13,0A7.08,7.08,0,0,1,259.33,320.9Z"/><path class="cls-4" d="M271.19,265.33c-8-5.28-3.31-16.33,5-13.14C285.13,255.66,281.51,272.14,271.19,265.33Z"/><path class="cls-4" d="M273.84,298.85c-5.21.53-9-3.68-7.58-7.78s6.66-4.94,9.68-1.95c.45.45.89.92,1.3,1.41A5.09,5.09,0,0,1,273.84,298.85Z"/><path class="cls-4" d="M307.67,228.73s12.73-8.89,12.17,6.61C311,244.41,300.36,235.22,307.67,228.73Z"/><path class="cls-4" d="M310.46,252.52l.08-.08a4.93,4.93,0,0,1,7.13.38,13.2,13.2,0,0,1,2.58,4.86c-3.55,2.35-6.1,3.22-8.35,2.4A4.53,4.53,0,0,1,310.46,252.52Z"/><path class="cls-4" d="M355.29,218.91c4.65-4.53,12.1,1.64,8.17,6.79-1.62,2.14-4.49,2.81-8.79.2C351.52,224,352.82,221.31,355.29,218.91Z"/><path class="cls-3" d="M656.54,431.59c43.91-33.91,122.78,8.52,110.7,66.4-11.21,53.69-95.14,57.74-90.1,121.43a40.28,40.28,0,0,1-17.55,0c-10.14-63.67,38.92-73.15,69.22-112.85,39.34-51.55-49.56-97.77-84.65-50.69Z"/><path class="cls-3" d="M421.1,760.79C318.14,736.6,351.5,581.63,276,531.3c6.11,3,13.34,4.33,19.7,8.12-1.73-5.26-1.18-13.27-2.48-17.52,41.38,44.21,87,105.17,156.71,98.66Z"/><path class="cls-4" d="M425.65,776.94c23.47,16.24,68.55,24.79,134.28,23.68,62.25-1,119.42-9.77,121.5-52.86,1.51-31.11-5.63-65.76-7.36-97.2-1.91-34.56-2.74-68.58-4.72-103.24l0-.55c-.27-4.71-.55-9.74-.83-15q-.16-3-.33-6c-.22-4.27-.45-8.66-.68-13.12-2.64-51.8-5.3-113.25-5.3-113.25-5.36-3.48-16.18-3.75-23.26-4.46-14.76-1.47-29.58-3.7-44.38-4.53-39.46-2.22-80.7-1.18-119.45,8.41a76.6,76.6,0,0,1-30.82.73s-9.08,54.57-11,72.76c-.05.44-.09.86-.13,1.25q-1,10.24-1.72,20.54-.26,3.39-.47,6.79c-.66,9.78-1.19,19.58-1.67,29.39-2,40-3.12,80.21-8.24,119.68C417.6,676.42,401.48,760.22,425.65,776.94Z"/><path class="cls-3" d="M616.24,765.67c-5.77-13.76-5.17-35.68-7.32-47.63l9.2,15.2c1.09,10.94,3.33,21.84,4.6,32.58Q619.48,765.69,616.24,765.67Z"/><path class="cls-2" d="M590.2,687.26c-12.59,11-33.28,33-35,50.24,36.35.73,76-2.73,112.89-2.08-13.89-12.11-40.27-38.22-48.09-43.78,10.67.06,25.51,1,29.93,1-2.61-3-18.62-22.06-35.86-36,2.81.51,16.77-.55,19.38-.63-11.14-18.57-22.37-37.91-32.1-57.53-12,22.53-22,40.16-38.6,58.33,6.25-4.74,18.38-1.44,23.7-1.62-1.41,2.07-21.46,27-25.09,32.31C563.71,686.94,579.86,686.5,590.2,687.26Z"/><path class="cls-3" d="M488,769.74l-3.46-.07c-7-12.51-4.79-27-8.46-40l12.32,0C485.52,739.23,488.58,755.82,488,769.74Z"/><path class="cls-2" d="M471,687.63c-9.25,1.11-24,1-33,3.15,5.75-15.68,21.68-23.59,28.92-38.14-2.91,1.18-20.79,1-23.3,2.32,9.44-17.88,24.46-39.48,37.91-55.74.35.16,27.69,39.11,36.53,54.06-5.35-.69-15.11,0-20.5-.86,2.84,1.69,32,30.58,34.35,36.82-.81-.3-17.71,3.59-24.69-1.66,11.22,17.95,24.38,30.92,35.21,48.91-9.64.27-79.94,2.53-111.68.8C436.58,718.38,470.39,688.59,471,687.63Z"/><path class="cls-3" d="M641.23,398.15c-1.11-11.44.65-22.93,2.69-32.94-29.6-4.32-61.37,3.61-91.93,2.35-30.35-1.26-57.91-7.27-88.84-5.84.89,15.56-2.33,29.91-3.27,44.61,55.1.26,134.15-22.51,184.43-8.17Z"/><path class="cls-5" d="M428.68,515c3.45-3.16,6.6-6,9-8,3.88,6.49,15.44,19,35.74,40.47,14.57,15.38,29.62,31.3,31.75,35.92l2,4.25,2.28-4.09c2.47-4.43,42.06-50.61,50.41-58,11,8.59,57.91,45.68,58.41,46.08l2.15,1.69,1.38-2.34c.17-.28,16-27,24.83-38.53,4.73,2.33,9.11,5.61,13.72,9.07,2,1.46,3.93,2.94,6,4.37q-.15-3-.32-6c-.93-.68-1.85-1.37-2.77-2.06C658,534,652.69,530,646.8,527.4l-1.67-.72-1.14,1.4c-7.42,9.13-20.64,31-25,38.21-9.93-7.85-51.32-40.53-57.72-45.52l-1.21-.95-1.37.71c-5.12,2.64-41.62,45.2-51.27,57.67-4.95-6.85-17-19.57-30.59-33.94-8.7-9.2-17.7-18.71-24.53-26.41C442.09,506.3,441,503.5,440.89,502.92l-.53-4.07-3.28,2.53c-1.81,1.4-4.63,3.84-7.93,6.8Q428.91,511.59,428.68,515Z"/><path class="cls-5" d="M430,533.54c3.53-2.41,6.55-4.39,8.48-5.52l3.49-2,.41,3.53c.07.5,1.12,3,11.33,13.35,6.82,6.92,15.82,15.5,24.52,23.8,13.61,13,25.65,24.44,30.54,30.55,10.49-10.32,49.93-45.38,55.35-47.43l1.44-.55,1.22.87c6.47,4.58,48.28,34.51,58.31,41.7,4.77-6,19.29-24.28,27.33-31.82l1.23-1.16,1.71.7c5.64,2.3,10.71,5.66,15.6,9a24.79,24.79,0,0,0-.25,5l-1.87-1.26A97.07,97.07,0,0,0,655,563.86c-9.62,9.54-27,31.87-27.18,32.1l-1.52,2-2.17-1.55c-.51-.36-48-34.34-59-42.21-8.93,6-51.73,44-54.45,47.73l-2.52,3.43-1.88-3.75c-2-4.07-17.1-18.43-31.67-32.31-20.31-19.35-31.87-30.63-35.66-36.39-2.52,1.62-5.9,3.92-9.6,6.49Q429.66,536.45,430,533.54Z"/><path class="cls-5" d="M443.54,402.44l.23-.18.54,4.07c.09.58,1.19,3.38,11.43,14.93,6.83,7.7,15.83,17.21,24.53,26.41,13.59,14.37,25.63,27.09,30.58,33.94,9.66-12.47,46.15-55,51.28-57.67l1.36-.71,1.21.95c6.41,5,47.79,37.67,57.73,45.52,4.33-7.24,17.56-29.08,25-38.21l1.14-1.41,1.67.73c5.18,2.25,9.91,5.6,14.46,9,.06,1.19.16,2.38.28,3.57a2.29,2.29,0,0,0-.93,1.8l-.34-.25c-4.61-3.46-9-6.74-13.72-9.07-8.86,11.52-24.66,38.25-24.83,38.53l-1.39,2.34L621.61,475c-.5-.4-47.47-37.49-58.42-46.08-8.34,7.37-47.94,53.55-50.4,58L510.51,491l-2-4.25c-2.13-4.62-17.18-20.54-31.75-35.92-18.1-19.14-29.25-31.16-34.2-38.14A95.76,95.76,0,0,0,443.54,402.44Z"/><path class="cls-5" d="M439.07,433.21c1.1-.71,2.08-1.32,2.86-1.78l3.5-2,.41,3.53c.07.5,1.12,3,11.33,13.35,6.82,6.92,15.82,15.5,24.52,23.8,13.6,13,25.65,24.44,30.54,30.55,10.48-10.32,49.93-45.38,55.35-47.43l1.44-.55,1.22.87c6.47,4.58,48.27,34.51,58.31,41.7,4.76-6.05,19.29-24.28,27.32-31.82l1.24-1.16,1.71.7a55.89,55.89,0,0,1,6.63,3.27c0,1.66,0,3.33.07,5a64.66,64.66,0,0,0-7.15-3.92c-9.61,9.54-27,31.87-27.17,32.1l-1.53,2-2.16-1.55c-.51-.37-48-34.34-59-42.21-8.93,6-51.73,44-54.45,47.73l-2.52,3.43L509.65,505c-2-4.07-17.1-18.43-31.68-32.31-20.3-19.35-31.86-30.63-35.65-36.39-1.18.76-2.55,1.67-4.05,2.68C438.54,437.05,438.8,435.13,439.07,433.21Z"/><path class="cls-5" d="M571.22,602.64v.7a2.4,2.4,0,0,1-.7,1.65,2.44,2.44,0,0,1-1.68.68,2.36,2.36,0,0,1-2.36-2.35v-.7a2.4,2.4,0,0,1,.7-1.65,2.48,2.48,0,0,1,1.68-.68,2.36,2.36,0,0,1,2.36,2.35Z"/><path class="cls-5" d="M561,632.66a2.8,2.8,0,0,1-1.28,1.7,3.21,3.21,0,0,1-1.63.44,3.11,3.11,0,0,1-1.61-.43,2.75,2.75,0,0,1-1.3-1.72,2.45,2.45,0,0,1,.24-1.8,2.39,2.39,0,0,1,3.25-.83,2.3,2.3,0,0,1,1.08,1.4l0,.09-.24-.56a.47.47,0,0,0,.07.12l-.37-.47.1.09-.48-.36.12.06-.56-.23.19.05-.63-.09h.24l-.63.08a.59.59,0,0,0,.19-.05l-.57.24.13-.07-.49.36.1-.09-.37.47a.75.75,0,0,0,.07-.12l-.24.56a.36.36,0,0,0,0-.1,2.38,2.38,0,0,1,1.1-1.39,2.42,2.42,0,0,1,1.82-.23,2.35,2.35,0,0,1,1.42,1.08,2.49,2.49,0,0,1,.23,1.8Z"/><path class="cls-5" d="M532.09,616.1l-.71.7a2.39,2.39,0,0,1-1.68.68,2.44,2.44,0,0,1-1.68-.68,2.37,2.37,0,0,1-.69-1.66,2.45,2.45,0,0,1,.7-1.65l.72-.7a2.48,2.48,0,0,1,1.67-.68,2.43,2.43,0,0,1,1.68.69,2.35,2.35,0,0,1,.69,1.65,2.43,2.43,0,0,1-.7,1.65Z"/><path class="cls-5" d="M527.75,645.54l-.72.69a2.35,2.35,0,1,1-3.34-3.31l.71-.7a2.48,2.48,0,0,1,1.68-.68,2.42,2.42,0,0,1,1.67.69,2.31,2.31,0,0,1,.69,1.65,2.46,2.46,0,0,1-.69,1.66Z"/><path class="cls-5" d="M633.74,623.83v.7a2.38,2.38,0,0,1-.7,1.65,2.39,2.39,0,0,1-3.35,0,2.44,2.44,0,0,1-.69-1.65v-.71a2.42,2.42,0,0,1,.7-1.65,2.48,2.48,0,0,1,1.68-.68,2.4,2.4,0,0,1,1.67.69,2.36,2.36,0,0,1,.69,1.66Z"/><path class="cls-5" d="M652.16,649.81v.7a2.36,2.36,0,0,1-2.37,2.33,2.36,2.36,0,0,1-2.37-2.34v-.7a2.38,2.38,0,0,1,4.05-1.64,2.35,2.35,0,0,1,.69,1.65Z"/><path class="cls-5" d="M655.59,608c-3.05,0-3-4.68,0-4.67s3,4.68,0,4.67Z"/><path class="cls-5" d="M658.5,682.32l-.72.7a2.44,2.44,0,0,1-1.68.68,2.38,2.38,0,0,1-1.67-.69,2.33,2.33,0,0,1-.69-1.65,2.4,2.4,0,0,1,.7-1.65l.71-.7a2.48,2.48,0,0,1,1.68-.68,2.42,2.42,0,0,1,1.67.69,2.31,2.31,0,0,1,.69,1.65,2.42,2.42,0,0,1-.69,1.65Z"/><path class="cls-5" d="M559.34,703.08h-.71a2.45,2.45,0,0,1-1.68-.69,2.31,2.31,0,0,1,0-3.3,2.45,2.45,0,0,1,1.68-.68h.71a2.45,2.45,0,0,1,1.68.69,2.31,2.31,0,0,1,0,3.3,2.5,2.5,0,0,1-1.68.68Z"/><path class="cls-5" d="M538.8,671.48h-.71a2.45,2.45,0,0,1-1.68-.69,2.31,2.31,0,0,1,0-3.3,2.5,2.5,0,0,1,1.68-.68h.71a2.45,2.45,0,0,1,1.68.69,2.35,2.35,0,0,1,.69,1.65,2.32,2.32,0,0,1-.7,1.65,2.45,2.45,0,0,1-1.68.68Z"/><path class="cls-5" d="M491.8,695.2c-3.05,0-3-4.68,0-4.68s3,4.68,0,4.68Z"/><path class="cls-5" d="M480.06,659.43c-.23.24-.47.47-.71.7a2.48,2.48,0,0,1-1.68.68,2.42,2.42,0,0,1-1.67-.69,2.29,2.29,0,0,1-.69-1.65,2.38,2.38,0,0,1,.7-1.65l.71-.7a2.48,2.48,0,0,1,1.68-.68,2.42,2.42,0,0,1,1.67.69,2.29,2.29,0,0,1,.69,1.65,2.38,2.38,0,0,1-.7,1.65Z"/><path class="cls-5" d="M452.22,605.37h-.71a2.54,2.54,0,0,1-1.68-.69,2.37,2.37,0,0,1-.69-1.66,2.34,2.34,0,0,1,.7-1.65,2.5,2.5,0,0,1,1.68-.68h.71a2.5,2.5,0,0,1,1.67.69,2.33,2.33,0,0,1,0,3.31,2.5,2.5,0,0,1-1.68.68Z"/><path class="cls-5" d="M444.05,564l-.71.7a2.45,2.45,0,0,1-1.68.68,2.4,2.4,0,0,1-1.68-.69,2.33,2.33,0,0,1-.69-1.65,2.45,2.45,0,0,1,.7-1.65l.71-.7a2.5,2.5,0,0,1,1.68-.68,2.45,2.45,0,0,1,1.68.69,2.35,2.35,0,0,1,.69,1.65,2.43,2.43,0,0,1-.7,1.65Z"/><path class="cls-5" d="M463,581.56h-.71a2.45,2.45,0,0,1-1.68-.69,2.35,2.35,0,0,1-.69-1.65,2.32,2.32,0,0,1,.7-1.65,2.45,2.45,0,0,1,1.68-.68H463a2.4,2.4,0,0,1,1.67.69,2.29,2.29,0,0,1,.69,1.65,2.33,2.33,0,0,1-.69,1.65,2.5,2.5,0,0,1-1.68.68Z"/><path class="cls-5" d="M435.71,662.81H435a2.48,2.48,0,0,1-1.68-.68,2.42,2.42,0,0,1-.69-1.66,2.38,2.38,0,0,1,.7-1.65,2.5,2.5,0,0,1,1.68-.68h.71a2.49,2.49,0,0,1,1.68.69,2.32,2.32,0,0,1,0,3.31,2.5,2.5,0,0,1-1.68.68Z"/><path class="cls-5" d="M430.88,703.47c-.24.23-.48.46-.71.7a2.5,2.5,0,0,1-1.68.68,2.45,2.45,0,0,1-1.68-.69,2.36,2.36,0,0,1-.69-1.66,2.47,2.47,0,0,1,.7-1.65l.71-.69a2.41,2.41,0,0,1,1.68-.68,2.44,2.44,0,0,1,1.68.68,2.37,2.37,0,0,1,.69,1.66,2.45,2.45,0,0,1-.7,1.65Z"/><path class="cls-5" d="M455.38,753.29c-3.05,0-3-4.69,0-4.68s3.05,4.68,0,4.68Z"/><path class="cls-5" d="M529.57,761.91l-.71.69a2.39,2.39,0,0,1-1.68.68,2.44,2.44,0,0,1-1.68-.68,2.37,2.37,0,0,1-.69-1.66,2.45,2.45,0,0,1,.7-1.65l.72-.7a2.48,2.48,0,0,1,1.67-.68,2.43,2.43,0,0,1,1.68.69,2.36,2.36,0,0,1,.69,1.66,2.42,2.42,0,0,1-.7,1.65Z"/><path class="cls-5" d="M571.94,776.72c-3.05,0-3-4.68,0-4.67s3,4.68,0,4.67Z"/><path class="cls-5" d="M572.28,746.09l.71.71a2.37,2.37,0,0,1,.69,1.65,2.34,2.34,0,0,1-.7,1.65,2.39,2.39,0,0,1-1.68.68,2.47,2.47,0,0,1-1.67-.69l-.71-.7a2.42,2.42,0,0,1-.69-1.66,2.36,2.36,0,0,1,.7-1.65,2.42,2.42,0,0,1,1.68-.68,2.49,2.49,0,0,1,1.67.69Z"/><path class="cls-5" d="M660.44,752.43l-.71.7a2.48,2.48,0,0,1-1.68.68,2.42,2.42,0,0,1-1.67-.69,2.31,2.31,0,0,1-.69-1.65,2.43,2.43,0,0,1,.7-1.66l.71-.69a2.4,2.4,0,0,1,3.35,0,2.33,2.33,0,0,1,.69,1.66,2.4,2.4,0,0,1-.7,1.65Z"/><path class="cls-5" d="M671.68,709.68c-3,0-3-4.68,0-4.67s3,4.68,0,4.67Z"/><path class="cls-5" d="M634.08,719.89a2.5,2.5,0,0,1-1.24,2.18,2.78,2.78,0,0,1-3.34-.38,2.75,2.75,0,0,1-.66-1.1,2.61,2.61,0,0,1,0-1.36,2.33,2.33,0,0,1,1.09-1.39,2.43,2.43,0,0,1,1.83-.23,2.35,2.35,0,0,1,1.41,1.07l.24.56a2.41,2.41,0,0,1,0,1.25v0l.09-.62v0l-.08-.63v0l-.24-.56v0l-.37-.47,0,0-.47-.37.06,0-.56-.24.08,0-.63-.09h.12l-.63.08.12,0-.57.23.07,0-.48.37,0,0-.37.47,0,0-.24.56v0l-.09.63a.14.14,0,0,0,0-.09,2.4,2.4,0,0,1,.7-1.65,2.48,2.48,0,0,1,1.68-.68,2.45,2.45,0,0,1,1.68.69,2.67,2.67,0,0,1,.69,1.66Z"/><path class="cls-5" d="M597,708.86l-2.14.7a2.34,2.34,0,1,1-1.25-4.51l2.14-.7a2.34,2.34,0,1,1,1.25,4.51Z"/><path class="cls-5" d="M603.52,670.48h.71a2.54,2.54,0,0,1,1.67.69,2.32,2.32,0,0,1,0,3.31,2.46,2.46,0,0,1-1.68.68h-.71a2.54,2.54,0,0,1-1.67-.69,2.37,2.37,0,0,1-.69-1.66,2.34,2.34,0,0,1,.7-1.65,2.46,2.46,0,0,1,1.68-.68Z"/><path class="cls-5" d="M602.9,633.8h-.71a2.42,2.42,0,0,1-1.67-.69,2.31,2.31,0,0,1,0-3.3,2.46,2.46,0,0,1,1.67-.68h.71a2.49,2.49,0,0,1,1.68.69,2.32,2.32,0,0,1,0,3.31,2.53,2.53,0,0,1-1.68.68Z"/><path class="cls-5" d="M656.37,584.86c-3,0-3-4.68,0-4.67s3,4.68,0,4.67Z"/><path class="cls-5" d="M573.89,578.34h-.71a2.42,2.42,0,0,1-1.67-.69,2.35,2.35,0,0,1-.69-1.65,2.32,2.32,0,0,1,.7-1.65,2.41,2.41,0,0,1,1.67-.68h.72a2.44,2.44,0,0,1,1.67.69,2.31,2.31,0,0,1,0,3.3,2.48,2.48,0,0,1-1.68.68Z"/><path class="cls-5" d="M504.59,624.15l0,0,.48-.36-.13.12c.13-.15.25-.31.37-.47l-.09.15.24-.55a.86.86,0,0,0-.06.23l.08-.62a1,1,0,0,0,0,.24l-.08-.62a1,1,0,0,0,.06.23l-.24-.56.09.15-.36-.47a.74.74,0,0,0,.12.13l-.48-.37,0,0a2.46,2.46,0,0,1,1.09,1.4,2.41,2.41,0,0,1-.24,1.8,2.47,2.47,0,0,1-1.42,1.07,2.43,2.43,0,0,1-1.83-.24,3.17,3.17,0,0,1-1.51-2.69,3.38,3.38,0,0,1,.4-1.53,3.19,3.19,0,0,1,1.13-1.15,2.41,2.41,0,0,1,1.82-.24,2.49,2.49,0,0,1,1.42,1.08,2.32,2.32,0,0,1,.23,1.8,2.61,2.61,0,0,1-1.09,1.4Z"/><path class="cls-5" d="M469.24,719.69l-.72.7a2.48,2.48,0,0,1-1.67.68,2.43,2.43,0,0,1-1.68-.69,2.35,2.35,0,0,1-.69-1.65,2.38,2.38,0,0,1,.7-1.65l.71-.7a2.44,2.44,0,0,1,1.68-.68,2.36,2.36,0,0,1,1.67.69,2.29,2.29,0,0,1,.69,1.65,2.39,2.39,0,0,1-.69,1.65Z"/><path class="cls-5" d="M517.57,721v.7a2.38,2.38,0,0,1-.7,1.65,2.37,2.37,0,0,1-4-1.66V721a2.42,2.42,0,0,1,.7-1.65,2.48,2.48,0,0,1,1.68-.68,2.36,2.36,0,0,1,2.36,2.35Z"/><path class="cls-5" d="M482,625.77h-.71a2.4,2.4,0,0,1-1.67-.69,2.32,2.32,0,0,1,0-3.3,2.5,2.5,0,0,1,1.68-.68H482a2.45,2.45,0,0,1,1.68.69,2.31,2.31,0,0,1,0,3.3,2.5,2.5,0,0,1-1.68.68Z"/><path class="cls-5" d="M430.46,765.37h.71a2.54,2.54,0,0,1,1.68.69,2.32,2.32,0,0,1,0,3.31,2.5,2.5,0,0,1-1.68.68h-.71a2.54,2.54,0,0,1-1.68-.69,2.42,2.42,0,0,1-.69-1.66,2.38,2.38,0,0,1,.7-1.65,2.5,2.5,0,0,1,1.68-.68Z"/><path class="cls-5" d="M520.26,787.12c-.24.23-.48.46-.71.7a2.5,2.5,0,0,1-1.68.68,2.45,2.45,0,0,1-1.68-.69,2.36,2.36,0,0,1-.69-1.66,2.45,2.45,0,0,1,.7-1.65c.24-.23.48-.46.71-.7a2.52,2.52,0,0,1,1.68-.68,2.49,2.49,0,0,1,1.68.69,2.36,2.36,0,0,1,.69,1.66,2.45,2.45,0,0,1-.7,1.65Z"/><path class="cls-5" d="M140.5,359.75q19.65,2.24,28.4,7.19Q193,379.07,193,409.89q0,27.09-22.7,59.72-6.86,9.42-20.84,25a266.8,266.8,0,0,1-25.75,25.48Q112,530,97.17,547.17q41.85-3.87,70.24-3.88,12.54,0,12.55,5.78,0,4.63,3.88,50.14-2.47,2.4-4.38,2.4-40.69-7.27-85.75-3.64t-47.54,3.64a11.4,11.4,0,0,1-3.88-9.17l3.88-43.86q4.13-4.3,14-10.49t18.9-12.64a156.87,156.87,0,0,0,20.51-18.26q5.94-4.69,16.34-20.23,8.58-10.9,19.23-35.32a121.64,121.64,0,0,0,10.65-49q-2-20-24.1-17.84-17.18,4.71-33.18,34.69,22.93,4.38,23.48,20.82T102.29,468q-13,15.62-27.9,15.94-18.81-.33-27.32-14.79-9.24-18.9-.49-43.36Q57,396.35,92.39,372.31,112.45,359.76,140.5,359.75Z"/><path class="cls-5" d="M213.08,470.24a1.68,1.68,0,0,0-1.55-1.55c-6.75,0-7.53,0-7.53-1.82v-53a2.29,2.29,0,0,1,2.33-2.08h56.84a2.24,2.24,0,0,1,2.08,2.08v188a2,2,0,0,1-1.82,2.07H214.9a1.94,1.94,0,0,1-1.82-1.81Z"/></g></g></svg>