<svg xmlns="http://www.w3.org/2000/svg" viewBox="0 0 832.5 832.5"><defs><style>.cls-1{fill:#76b099;}.cls-2{fill:#e55747;}.cls-3{fill:#ffffc5;}.cls-4{fill:#deaa7c;}.cls-5{fill:#5e4440;}</style></defs><g id="Layer_2" data-name="Layer 2"><g id="Layer_1-2" data-name="Layer 1"><rect class="cls-1" width="832.5" height="832.5"/><path class="cls-2" d="M123.61,333.43c-.19.11-12.62.41-14.39-16C107,296.28,97.32,262.91,108,243c22.8-42.66,73.21-49.89,116.83-52.6,79.06-4.92,230-25.68,235.47,123-60.2-22.06-168.82-35.12-236.54-22-27.7,5.38-56.81-55.57-73.83-33.48-10.71,13.9-12.83,26.56-16.39,42.62-1.16,5.23-2.59,37.68-1.7,22.3Z"/><path class="cls-2" d="M166.56,175.47c8.1,13.58,10.24,24,11.34,36.55A102.44,102.44,0,0,1,200,200.92c-10.85-39,8.86-48.3,25.14-62.46,9.68-8.43-2.26-25.79-12.08-17.53-37.63,31.64-20.9-45.86-25.83-58.61-4.11-10.65-19.77-6.86-18.75,4.53.59,6.51.44,12.33-4.05,15.93-5.82,4.66-19.33,4.39-32.13,4.49-8.12.06-9.89,11.65-2.17,14.22,21.86,7.26,41.58,13,35.29,42.82C158.1,140.57,106,112,106,135.82,106,148.39,159.82,164.17,166.56,175.47Z"/><path class="cls-2" d="M385.63,135.13c-6.72-29.68,12.91-35.77,34.66-43.36C428,89.08,426,77.52,417.9,77.58c-12.79.1-26.3.58-32.19-4-4.54-3.53-4.78-9.35-4.29-15.87.85-11.4-14.86-14.95-18.82-4.24-4.73,12.83,13.15,90.06-24.94,59-10-8.1-21.63,9.44-11.82,17.72,17.34,14.63,38.4,23.78,24.22,68.41l.23.44a62.36,62.36,0,0,1,23.4,11.86c.82-16.34,1.76-28.14,11.25-44.61,6.57-11.4,60.2-28,60-40.58C444.54,101.93,392.88,131.28,385.63,135.13Z"/><path class="cls-3" d="M474.53,297.52c-33.74-70.3-176.84-67.09-293.29-59.44a139.14,139.14,0,0,0-130,137.67C50.79,432.93,53,489.83,49,531.85c-13.53,138.92,62.33,128.73,178.7,111.3,68.78-10.3,208,23.31,260.12-32.28C532.35,563.35,502.59,356,474.53,297.52Z"/><path class="cls-4" d="M468.23,288.37l-2.46-.42,2-.21c-.65-.78-1.3-1.57-1.94-2.36-2.4.22-4.85.38-7.37.44q3.64-.22,7.21-.64l-1.89-2.36c-10.69,1.13-21.79.86-32.89.13-22-3.11-44.29-6.19-66.72-9,8.65.23,17.33.5,26,.81.49,0,1.74,0,3.6,0h.09c23.25,2.23,46.4,4.89,69.75,7.77-2.22-2.81-4.37-5.68-6.41-8.62l-.21,0c-3.19-.76-6.71-1.4-10.42-1.94-3-.54-5.94-1.07-8.9-1.58l6.82,1L456.47,273c-.64-.94-1.26-1.88-1.87-2.83l-9.82-1.37C435,267.45,424.84,266,415.12,265q-7.12-.75-14.28-1.44,15,.68,29.67,1.52c4.45.25,9.32.43,14.48.62l7,.27c-.5-.87-1-1.74-1.46-2.61l-5.48-.21c-5.15-.19-10-.37-14.44-.62-23.45-1.35-47.51-2.37-72.61-3.09a1178.51,1178.51,0,0,0-128.77-6c-35.84.27-73.11,1-110.54,3.39-.45,1-1,2-1.47,3,34.37-1.64,70.34-2.09,109.81-2.06q19.4,0,38.75.43h-.49c-22.64,0-46.29.2-71.13.59-25.12.39-50.25,1.93-75.11,4l-3.63.14a53.89,53.89,0,0,1-9.38,11c39.78-.9,80-1.37,120-1.37,14,0,28.77,0,44,.1,32.57,1.82,65.05,4.71,96.75,7.53,12.95,1.15,26.31,2.34,39.53,3.44l.72.11c13.57,2,29.19,4.35,43.86,4.73l10.2,1.44c2.38.33,4.93.77,7.63,1.23l2,.34Zm-27.42-14.52q-7.56-.62-16.72-1c-2.38-.3-4.78-.59-7.16-.87C426.43,272.45,434.3,273.09,440.81,273.85ZM225.68,262l-7.23,0q-6.09,0-12.18.06-14.19-.3-28.42-.33,8.19-.27,16.39-.41c55.9-.88,105.66-.78,151.81.35q13.69.88,27.29,2,21.11,2.44,42.12,5.68c-1.32-.06-2.26-.11-2.73-.15C347.7,263.22,282.08,262.36,225.68,262Zm44.45,8q-17.74-1-35.49-1.5l-4.68-.12c11.42.07,23.22.19,35.31.4q9,.59,17.93,1.31Zm43.1,2.95,1.83,0,5.67.58Zm74.31-1.48-9.48-.66c-14.41-1.26-28.89-2.33-43.53-3.19C352.1,268.57,369.79,269.82,387.54,271.47Z"/><path class="cls-4" d="M493.06,364.61c-4.73-1-9.45-1.94-14.2-2.87,4.4.42,9.18.94,13.91,1.63-.21-.89-.41-1.78-.61-2.68-7.76-1.08-15.65-1.75-21.93-2.28-3.32-.28-6.2-.52-8.1-.76-4.27-.52-8.55-1-12.84-1.53-31.15-5.63-62.71-10.34-94.58-12.89q12.06.33,24.46.81c20.75,1.41,41.51,3.32,61.91,5.89,5.56.7,11.84,1.26,18.48,1.86,10,.9,21,1.9,31.55,3.58-.15-.88-.3-1.77-.44-2.65-10.39-1.62-21.14-2.59-30.88-3.47-6.62-.59-12.87-1.16-18.39-1.85-1.68-.22-3.37-.42-5.06-.63,22.44,1.12,40.12,2.5,54.05,4-.13-.94-.26-1.89-.37-2.83-17-2.64-34.16-4.27-51.5-5.73a1649.59,1649.59,0,0,0-197-4.74l-8.67,0c-30.15-.58-61-.32-91.43,1.42C113.25,340.49,85,343.62,57.18,347c-.32,2.77-.67,5.55-1,8.32l5.74.68-3.05.14L56,356.3c-.22,1.64-.45,3.28-.68,4.92,8.87-.15,18.1-1.39,27.07-2.61l3.19-.43,1-.14,21.78-.17c35.56-.29,72.33-.59,108.49-.27,29.9.27,61.15.76,94.18,1.46,16.55.95,33.21,2,49.42,3.06,31.72,2,64.24,4.13,96.69,5.4,9.5,1.25,19.18,2.51,28.76,3.66,2.27.28,4.76.67,7.39,1.1l1.86.29C494.43,369.93,493.71,367.28,493.06,364.61Zm-409-15.11c-5,.25-10,.56-15,.86l14.37-1.6q5.63-.4,11.29-.77Q89.39,348.68,84.07,349.5Zm337.12-6.09q-21.43-1.14-41.88-1.92-16.57-1.14-33.08-1.87C371.21,340.33,396.33,341.59,421.19,343.41Zm-79.37,1.46c22,1.36,44,3.82,65.72,7-53.05-4.75-107.92-7.15-164-7.15l-9.25,0-14.13-.57.81,0c24.77-1.15,50.52-1.67,77.55-1.7C313.4,343.17,327.87,344,341.82,344.87Zm-103-4.74c4.15.1,8.27.21,12.39.33q-15.42.41-30.31,1.1-14.2.66-28.42,1.79l-5.94-.09,5.1-.41C206.91,341.68,222.68,340.78,238.81,340.13Zm-46.3.09-1.07.08c-9.85.76-19.72,1.75-29.54,2.86q-13.83.09-27.49.47C153.66,342,173.06,340.71,192.51,340.22Zm-41.76,10.64q17.38.18,34.43.74-24-.24-47.83.41Q144,351.43,150.75,350.86Zm-3.47-3.39c3.52-.44,7.06-.86,10.61-1.28l4.44-.07q-5.81.61-11.59,1.26Zm-20.53,0-7.16.9-5.75.1Q120.26,347.91,126.75,347.48ZM118.86,351,121,351h-.09l-5.71.53Zm98.07,4c-32.31-.29-65.09-.08-97.06.17,17.23-.79,34.53-1.13,51.93-1.13,19.3,0,38.7.42,58.21,1.09Zm111.49,1.84-24.74-1.53-36.5-2.26c-22.28-1.36-46-2.72-70.58-3.65,35.72.11,72.6,1.33,110.87,3.66q10.83.66,21.67,1.45c11.93,1,23.81,2.13,35.53,3.23Q346.19,357.29,328.42,356.89Zm95.78,2.64-12.31-.38c-40.33-4.81-81.1-8.6-121.89-11.34,54.49,1.31,107.68,4.93,158.91,10.83l9.15,1.69c-6.92-.31-13.85-.42-20.45-.52C432.9,359.73,428.46,359.66,424.2,359.53Zm31.43,3.72c-2.3-.24-4.53-.47-6.73-.68a250.29,250.29,0,0,1,31.84,2.4A227.65,227.65,0,0,1,455.63,363.25Z"/><path class="cls-4" d="M508.48,452l-3.79-.54c1.24.06,2.48.09,3.72.13-.3-1.64-.58-3.27-.86-4.91q-4.1-1.26-8.42-2.28,4.11.48,8.21,1c-.15-.88-.29-1.76-.43-2.64l-1.76-.23a3.14,3.14,0,0,0,.07-.91l1.57.37c-.21-1.31-.41-2.62-.6-3.94-4.2-1.17-8.41-2.3-12.62-3.32-4.34-1.25-9.79-2.45-16.1-3.62a616.43,616.43,0,0,0-65.77-9.47c-67.2-11.54-135.54-20.94-203.27-20.5-35.14.23-78.86.51-120.66,2.23-4.51.19-9,.42-13.53.68l.06-2.51A12.61,12.61,0,0,0,66.17,404l-.82.62c-3.8.26-7.59.56-11.38.86.09.85.18,1.69.26,2.54q6.87-.56,13.76-1a44,44,0,0,0,8.87,3.16l-5.26.19L54.5,411c.07.85.13,1.7.2,2.55l17-.61,14.69-.52-4.33.21c-9.27.48-18.39,1-27.26,2.16.18,2.58.33,5.17.43,7.76,1.78.14,3.58.25,5.39.33H55.22c0,.85.05,1.7.07,2.55,21.9-.06,43.78-.54,65.22-1,33.07-.74,67.26-1.5,100.8-.66q26.77.69,53.77,2l7.74.81c3.4.35,12.49,1.53,25.08,3.17,32.42,4.21,86.67,11.25,133.77,16C453.4,447,464,448,473.44,448.72c3.08.53,6.23,1.09,9.44,1.66,8.66,1.54,17.45,3.1,26.09,4.27C508.8,453.77,508.64,452.88,508.48,452Zm-82.41-25.24,13.7,2.44q-4.27-.49-8.41-1c-48.9-6-97.81-9.11-142.93-10.92l-5.38-.51q29.15.93,58,2.51C368.85,421.32,399.22,423.88,426.07,426.76Zm-311-7.06L96,419.86c-3.65,0-7.41.14-11.1.25,11.69-.53,23.33-1.26,34.81-2l9.61-.59c23.53,0,47.06.74,70.82,2.1C171.55,419.2,143,419.46,115.06,419.7Zm-17.19-5.24q30.88-1.23,62.15-1.09-8,.31-15.89.75c-4.14,0-8.27.07-12.41.15-7.52,0-15.08,0-22.63.16C105.52,414.5,101.79,414.49,97.87,414.46Zm-6.24-4.78a68.74,68.74,0,0,1-17.79-3q7-.42,14-.71c41.76-1.72,85.46-2,120.58-2.23,57.54-.37,115.59,6.39,173,15.52q-20.62-1.46-41.46-2.58c-44.19-3.16-80.17-5-81.08-5-16-.64-32.24-1.14-48.87-1.51C170.19,407.53,130.44,408.36,91.63,409.68Zm167,11.84-2.39-.21c-14.46-1.39-29.47-2.7-44.88-3.8l14.35.37,9.49.24c9.21.23,18.69.5,28.38.81q25.43,2,50.5,4.69L324,425C303.1,423.64,281.36,422.5,258.63,421.52Zm148,16.19c-22.62-2.7-45.53-5.44-68.59-8q22.74,1.72,45.47,3.88l23.23,3.51,4.52.69c4,.61,8.06,1.26,12.15,2Zm-13.65-7.52c-21.78-3.1-42.5-5.89-62.57-8.32,32.72,1.9,66.71,4.67,100.69,8.85,4.2.52,8.53,1,12.94,1.55,18.82,2.2,39,4.57,58.09,8.68a1.88,1.88,0,0,1,.3.34q-3.94.07-7.89,0l-5.18-.56c-5.47-.58-10.62-1.13-15.71-1.79C447.6,435.62,420.89,432.7,392.93,430.19ZM502.9,448c-12-1.55-24.06-3.55-36-5.66q5.24.48,10.49.83A192.84,192.84,0,0,1,503.12,448Z"/><path class="cls-4" d="M73.52,404.13c-.27,0-.53,0-.79,0Z"/><path class="cls-4" d="M495,521.38c-22.24-4.16-45.89-5.45-67.74-6.64-4.72-.26-9.35-.51-13.88-.79q-40.5-2.48-82.06-3.41c-24.49-1-49-1.43-73.41-1.05-37.59.6-76,2.15-117.51,4.74-4.47.28-9,.59-13.49.92l-11.47.51c-14.83-.45-29.53-.67-44.35-.63-5.27,0-10.61-.09-16.26-.21l-4.47-.09c.19,3.45.27,6.92.21,10.39,13.57.06,27.24.21,41.09.45q-13.09.28-26.21.83c-3.43.15-6.94.35-10.36.55-1.54-.11-3.06-.27-4.56-.45,0,1.19-.06,2.38-.12,3.56q5.34-.1,10.68-.28c9,.22,18.35-.4,26.61-.95,3.15-.2,6.18-.4,9-.55l7.28-.39c26.11-.38,52-.12,77.2.36q29.64,1.25,60.58,3,22.18,1.25,44.38,2.57c40.72,2.39,82.43,4.84,124.1,6.51q16.09,1.09,32.16,1.94c2,.1,5.52.44,10,.86,14.5,1.38,29.54,2.64,41.85,2.64a107.33,107.33,0,0,0,13.7-.74c.13-.85.27-1.69.39-2.54,0-.5,0-1,.05-1.49-13.23.7-28.79-.42-37.85-1.07-3.92-.28-7-.5-8.94-.55q-25.52-.54-51.19-1.6-13.85-.94-27.7-2c38.12,1.33,76.41,2.21,114.49,2.13a99.57,99.57,0,0,0,11.33,0q.15-3,.42-6a35.87,35.87,0,0,0-8.09-4.25l2.12.24h.14a34.68,34.68,0,0,1,6.19.55c.07-.62.13-1.25.21-1.87a16.7,16.7,0,0,1,1.05-4Q502.73,521.93,495,521.38ZM59,517.8l0-.34c2.95,0,5.83.1,8.68.11C64.8,517.66,61.9,517.73,59,517.8Zm272.19-4.71q20,.79,39.86,2C332.54,513.66,291.3,513,245.31,513H234.23Q283.13,512,331.19,513.09ZM114.6,521,98,521.38l-10.65-.24q5.69-.36,11.36-.77,27.21-.55,52.64-.64l6.38.34C143.25,520.35,128.82,520.68,114.6,521Zm36.85-3.83L146,516.9c12.38-.48,24.81-.86,37.08-1,44.94-.52,85.42-.51,122.88.06q-43.57.07-88.29,1.83-27.27-.63-56.58-.63Zm101.92,10.35c-28.07-1.35-56.46-2.69-85-3.84q11.8-.77,23.72-1.44c14.58,1,29.6,2.18,45.24,3.46,8.2.66,16.46,1.36,24.71,2.08Zm65.72,5.65,6.36.28,2.44.22Zm81.42-1.08c-28.75-.78-58-1.73-86.24-2.65l-7.65-.25-2.25-.2c-21.9-2-44.56-4-66.84-5.84L222.47,522l10.64,0q14.89,0,29.94-.05,7.72.35,15.31.76c42.39,2.3,85.48,5,127.14,7.54l47.18,2.9q3.6.23,7.27.5C440.13,533.17,420.23,532.67,400.51,532.1ZM472,532c-6.67-.57-13-1.1-19.18-1.48q-23.58-1.42-47.17-2.9c-30.16-1.86-61.06-3.78-91.91-5.56,35.76.34,71.73,1.24,107.28,3.44,5.18.32,10.53.57,16.19.83,21.61,1,45.47,2.1,65.87,7.75C492.79,533.78,482.32,532.89,472,532Zm31.77-.38c-20.67-5.73-44.69-6.84-66.45-7.84-5.65-.26-11-.51-16.15-.83-43.92-2.71-88.46-3.45-132.46-3.6,41.13-.52,79.07-.11,114.77,1.21l6.15.22q7.37.35,14.69.75c1.43.08,3.32.13,5.6.19,18.32,1,36.66,2.38,54.87,4.16C492.17,527.27,498.83,529.12,503.78,531.64Z"/><path class="cls-4" d="M52.93,600.7c6.66-6.66,20.43-10.55,32.29-11.49L85,586.66c-11.12.89-25.41,4.42-33.15,11.5C52.22,599,52.58,599.85,52.93,600.7Z"/><path class="cls-4" d="M182.53,599.12l-9.89.44c-39.46-1.41-80.59-1.94-119.55,1.55a122.85,122.85,0,0,1,5,14.76c9.63-.33,19.24-1,28.64-1.75,7.21-.54,14.66-1.09,22-1.46a1544.5,1544.5,0,0,1,173,1.16c27.17,1.68,55.49,3.31,85.92,4.95l33.26,2.76Q418,623,435.14,624.37c4.79.4,10.84,1.18,17.84,2.1s14.47,1.88,22.23,2.67l3.32-2.7q-6.57-.81-13.11-1.66c-4.52-.58-8.95-1.15-13.27-1.68q14.07.69,28.79,1.38l3-2.4-2.68-.14-2.55-.12c1.85,0,3.7,0,5.55,0l1.47-1.2c1.44-4.59,3-9.18,4.54-13.77C423.8,589,193.39,598.65,182.53,599.12Zm-73.92,11c-7.35.37-14.81.93-22,1.47-6.79.5-13.71,1-20.65,1.39q4.29-.56,8.63-1c6.56-.54,13.1-1.14,19.6-1.75,1-.08,2-.15,3.07-.21l.75,0c2,0,4-.06,6-.07q5.88,0,11.79-.12Zm6.21-7.29c-18.4.18-36.74.8-54.75,2.27a54.43,54.43,0,0,1-5.32-1.57c28.19-2.45,57.51-2.81,86.49-2.28C132.37,601.75,123.54,602.29,114.82,602.82Zm301.24,1.51q11.81,1,23.48,2.29l-10.07-.28C425,605.59,420.57,604.92,416.06,604.33Zm9.53,6.66q-9.42.51-18.9.63-28.41-1.53-56.21-2.62-10.91-.6-21.53-1.16l-2.73-.2L302,605.9q27.19.3,54.22,1C378.74,607.81,402.05,609.13,425.59,611Zm-20.09-5.34-2.52-.07c-27.32-1.31-54.75-2.06-82.37-2.44l-2.66-.06C347.64,602.39,377.2,602.66,405.5,605.65Zm-153.43-3.51L232,602l-9.4-.39c36-1.29,73-2,110.16-1.38-21.32.23-42.81,1.11-64,2Zm138.28,15.29c-32.65-2.69-66.3-5.18-100.57-7.1q-7-.48-14.07-.91,21.29.38,43.05,1c10.3.76,20.67,1.5,31.07,2.12l7.42.61c17.09,1.42,34.76,2.88,52.17,4.19,5.66.43,11.34.9,17,1.37s11.14.93,16.76,1.36C424.82,619.2,407.25,618.31,390.35,617.43Zm69.7-2.58q-13.73-.93-27.34-1.74c3.05-.22,6.08-.47,9.11-.75q17,1.53,34.06,3.48C470.57,615.52,465.29,615.2,460.05,614.85Zm.34-5.13,4.91.13q7.27,1,14.48,2.18Q470.11,610.77,460.39,609.72Zm17.72-2.12c-14.48-2.8-29.5-4.33-44.21-5.83l-1.19-.12c20.31,1.41,37.7,3.38,50.43,6.06Z"/><path class="cls-5" d="M458.61,484.3c-4.7,17-47.49,39.27-85.25,58.91-15.28,7.95-30,15.63-42.59,23-1-11.28-1.93-21.91-2.75-31.55,22-26.19,30.31-71.07,37.09-107.68,3.51-18.93,6.53-35.27,10.72-45.26l-7.05-3c-4.51,10.74-7.6,27.46-11.19,46.82-6.06,32.74-13.39,72.29-30.5,97.61-.24-3.19-.45-6.24-.63-9.11-7.17.22-14.34,0-21.24-.33q-5.28-.27-10.61-.69c6.67-21.38,10.1-59.49,8.79-99-.72-21.42-4-72.3-19-82.09l-4.18,6.42c6.62,4.31,14,29.46,15.53,75.92,1.31,39.14-2.28,78.07-8.95,98-6.7-.71-13.4-1.67-20-3q-.27,4.5-.59,9c-12.78-12.44-29.94-32.81-47.88-54.11-28.74-34.12-58.46-69.39-76.62-79.8l-3.8,6.65c17,9.73,47.58,46,74.57,78.09,20.18,23.95,39.38,46.75,53,58.94q-.92,11.07-2,22.16c-13.15,3.11-75.81.71-103.52-.35-12.74-.49-22.81-.87-27.6-.87v7.65c4.65,0,14.65.39,27.31.87,30.58,1.17,54.91,1.91,72.92,1.91,13.73,0,23.76-.43,30.08-1.43-7.61,71.8-20.08,144-17,220.2,20.26-1.92,41.11.35,61.18,1.56,35.69-33,30.86-130.8,24.67-205.11,13-7.82,28.88-16.09,45.4-24.68,42.94-22.35,83.51-43.45,89.09-63.67Z"/><path class="cls-5" d="M746.24,207.16a112.61,112.61,0,0,1,12.63,33.72,115.89,115.89,0,0,1,1.41,37.47,141.54,141.54,0,0,1-9.83,36.76,133,133,0,0,1-19.65,33,147.7,147.7,0,0,1-28.31,27.39A136.35,136.35,0,0,1,668.56,394a116.09,116.09,0,0,1-23.63,6.32,157.15,157.15,0,0,1-25.51,2.11,104.4,104.4,0,0,1-25.26-2.81A100.43,100.43,0,0,1,564,387.46a104.16,104.16,0,0,1-24.1-20.13Q517.42,340.17,519.75,305q2.34-31.37,17.32-52.45,20.1-28.09,55.21-28.1,16.38,0,26.44,5.38t15.21,11q15.45,15.93,14.51,40.74,0,6.57-7.49,10.31a38.44,38.44,0,0,1-16.38,4,42.78,42.78,0,0,1-16.38-2.58q-7.49-2.81-7.48-9.83,0-20.61-8.19-25.06t-18.25,1.17q-10.07,5.63-18.25,19a53.31,53.31,0,0,0-8.19,28.33,67.93,67.93,0,0,0,5.38,26.46,66.61,66.61,0,0,0,14.27,21.78A52.75,52.75,0,0,0,588.07,368a35.77,35.77,0,0,0,23.87-.24,117.71,117.71,0,0,0,50.07-37,121.75,121.75,0,0,0,15.44-26.46,109.08,109.08,0,0,0,8-29.27,86.38,86.38,0,0,0-.94-28.34,87.68,87.68,0,0,0-9.36-25.52,76.66,76.66,0,0,0-16.85-20.61,82.42,82.42,0,0,0-22.93-14,26.45,26.45,0,0,0-15-2.11,51.1,51.1,0,0,0-15,4.91,76.32,76.32,0,0,0-14.74,9.84q-7.27,6.09-13.81,12.18-7,7-16.38,1.87-8.41-4.68-7-15l29-150.33a13.09,13.09,0,0,1,5.61-8.9,13.5,13.5,0,0,1,10.3-2.34q9.82,1.41,17.78,2.34t18.25,1.64q10.29.7,21.06,1.17a273.84,273.84,0,0,0,29.24-.46A108.89,108.89,0,0,0,702,38.8a37,37,0,0,0,8.65-3,19.24,19.24,0,0,0,2.81-1.88,15.59,15.59,0,0,1,5.15-9.36,13.31,13.31,0,0,1,10.3-3.28,16.7,16.7,0,0,1,9.59,5.15,11.7,11.7,0,0,1,3,10.3q-.46,11.72-11.23,20.14Q718.15,66.21,692.89,69q-8.42.94-18.25,1.17t-21.06-.24l-15.91,82q30-2.34,55.22,8.43A108.55,108.55,0,0,1,746.24,207.16Z"/><path class="cls-3" d="M356.11,15.58v1.16a2.29,2.29,0,1,0,4.57,0V15.62a2.29,2.29,0,1,0-4.57,0Z"/><path class="cls-3" d="M531.21,15h1.15a2.29,2.29,0,1,0,0-4.57h-1.16a2.29,2.29,0,0,0,0,4.57Z"/><path class="cls-3" d="M148.17,21.77v1.16a2.29,2.29,0,1,0,4.57,0V21.8a2.29,2.29,0,0,0-4.57,0Z"/><path class="cls-3" d="M260,40.18v.51a2.29,2.29,0,1,0,4.57,0v-.52a2.29,2.29,0,1,0-4.57,0v.51a2.29,2.29,0,1,0,4.57,0v-.52a2.29,2.29,0,1,0-4.57,0Z"/><path class="cls-3" d="M114.86,77.26a2.29,2.29,0,1,0-2.27-2.3,2.31,2.31,0,0,0,2.27,2.3Z"/><path class="cls-3" d="M64,74.21a2.29,2.29,0,1,0-2.27-2.3A2.31,2.31,0,0,0,64,74.21Z"/><path class="cls-3" d="M61.83,103.87V105a2.29,2.29,0,0,0,4.57,0V103.9a2.29,2.29,0,1,0-4.57,0Z"/><path class="cls-3" d="M39.11,33.37v1.15a4.23,4.23,0,1,0,8.45.06V33.43a4.23,4.23,0,1,0-8.45-.06Z"/><path class="cls-3" d="M28.35,268.35a4.23,4.23,0,1,0-4.2-4.26,4.26,4.26,0,0,0,4.2,4.26Z"/><path class="cls-3" d="M105.65,126.61a4.23,4.23,0,1,0-4.19-4.26,4.27,4.27,0,0,0,4.19,4.26Z"/><path class="cls-3" d="M29.22,108.49v1.16a2.57,2.57,0,0,0,5.13,0v-1.15a2.57,2.57,0,1,0-5.13,0Z"/><path class="cls-3" d="M34.85,144.86a1.18,1.18,0,0,0,0-2.36,1.18,1.18,0,0,0,0,2.36Z"/><path class="cls-3" d="M24.85,136.06H26a1,1,0,0,0,0-1.94H24.87a1,1,0,0,0,0,1.94Z"/><path class="cls-3" d="M64.3,39.17a5.28,5.28,0,0,0,.23,2,2,2,0,0,0,1.89,1.31,1,1,0,0,0,0-1.94h-.09c.13,0-.11-.11,0,0s0,.08,0,0c.09.15,0-.11,0-.14a4.9,4.9,0,0,1-.07-1.18,1,1,0,0,0-1.94,0Z"/><path class="cls-3" d="M84.89,103.7a1,1,0,0,0,0-1.94,1,1,0,0,0,0,1.94Z"/><path class="cls-3" d="M137.64,48.21a1,1,0,0,0,0-1.94,1,1,0,0,0,0,1.94Z"/><path class="cls-3" d="M436.92,118.54l-.21,0L435,119a1,1,0,0,0,.27.63l1.16,1.15a1,1,0,0,0,1.37,0,1,1,0,0,0,0-1.38Z"/><path class="cls-3" d="M168,57.48c.13-.63.25-1.26.39-1.88a1,1,0,0,0-.35-.06A1,1,0,0,0,168,57.48Z"/><path class="cls-3" d="M263.29,66.14a1,1,0,0,0,0-1.94,1,1,0,0,0,0,1.94Z"/><path class="cls-3" d="M72.63,153.07a1,1,0,0,0,0-1.94,1,1,0,0,0,0,1.94Z"/><path class="cls-3" d="M148.59,93.58l-1.16,1.15a1,1,0,0,0,0,1.38,1,1,0,0,0,1.37,0L150,94.94a1,1,0,1,0-1.38-1.36Z"/><path class="cls-3" d="M552.52,189.63h-1.16a2.29,2.29,0,0,1,0-4.58h1.15a2.29,2.29,0,1,1,0,4.58Z"/><path class="cls-3" d="M311.74,204.12a2.29,2.29,0,1,1,2.27-2.3,2.29,2.29,0,0,1-2.27,2.3Z"/><path class="cls-3" d="M241.25,190.5a2.29,2.29,0,1,1,2.27-2.3,2.32,2.32,0,0,1-2.27,2.3Z"/><path class="cls-3" d="M89.61,205.33H88.45a2.29,2.29,0,0,1,0-4.58h1.15a2.29,2.29,0,0,1,0,4.58Z"/><path class="cls-3" d="M47.94,185.61v1.16a2.29,2.29,0,0,1-4.58,0v-1.16a2.29,2.29,0,0,1,4.58,0Z"/><path class="cls-3" d="M23,236.51v1.15a2.29,2.29,0,1,1-4.57,0v-1.16a2.29,2.29,0,0,1,4.57,0Z"/><path class="cls-3" d="M47.28,216.86a2.29,2.29,0,1,1,2.27-2.31,2.32,2.32,0,0,1-2.27,2.31Z"/><path class="cls-3" d="M140.28,169.33a2.29,2.29,0,1,1,2.27-2.3,2.31,2.31,0,0,1-2.27,2.3Z"/><path class="cls-3" d="M476.63,343.31a4.23,4.23,0,1,1,4.2-4.26,4.26,4.26,0,0,1-4.2,4.26Z"/><path class="cls-3" d="M360.57,165.44a.89.89,0,0,0-.21.6,4.86,4.86,0,0,1-.07,1.18.79.79,0,0,1-.05.13s0,0,0,0h-.06c-1.25,0-1.24,2,0,1.94a2,2,0,0,0,1.89-1.3,3,3,0,0,0,.18-.77C361.67,166.68,361.11,166.07,360.57,165.44Zm-.33,1.93Zm0,0h0C360.31,167.37,360.31,167.37,360.25,167.38Z"/><path class="cls-3" d="M289,175.07a1,1,0,0,1,0-1.94,1,1,0,0,1,0,1.94Z"/><path class="cls-3" d="M140.8,240.39a1,1,0,0,1,0-1.95,1,1,0,0,1,0,1.95Z"/><path class="cls-3" d="M167.34,198.79v-1.15a1,1,0,0,1,1.95,0v1.16a1,1,0,0,1-1.95,0Z"/><path class="cls-3" d="M109.62,219a1,1,0,0,1,0-1.94,1,1,0,0,1,0,1.94Z"/><path class="cls-3" d="M66.9,209.76a1,1,0,0,1,0-1.94,1,1,0,0,1,0,1.94Z"/><path class="cls-3" d="M92.11,238.83a2.35,2.35,0,0,1-.43,1.71A2.24,2.24,0,0,1,90,241,1,1,0,1,1,90,239h.61c.22,0-.26.06,0,0s-.25.11-.14.05-.21.19-.12.1-.17.24-.1.12-.1.28-.06.15a.29.29,0,0,0,0-.09c0-.15,0,.28,0,.12s0-.41,0-.62a1,1,0,0,1,1.94,0Z"/><path class="cls-3" d="M50.8,270.54a1,1,0,0,1,0-1.94,1,1,0,0,1,0,1.94Z"/><path class="cls-3" d="M321,324.75l1.15,1.15a1,1,0,0,1-1.38,1.37l-1.15-1.16a1,1,0,0,1,1.38-1.36Z"/><path class="cls-3" d="M127.46,321.9a2.28,2.28,0,1,0,4.16,1.63C130.22,323.05,128.83,322.51,127.46,321.9Z"/><path class="cls-3" d="M78.47,322.38a2.29,2.29,0,1,0-2.27-2.3,2.31,2.31,0,0,0,2.27,2.3Z"/><path class="cls-3" d="M76.33,352v1.16a2.29,2.29,0,0,0,4.57,0v-1.16a2.29,2.29,0,0,0-4.57,0Z"/><path class="cls-3" d="M418.11,357.82V359a2.29,2.29,0,1,0,4.57,0v-1.16a2.29,2.29,0,0,0-4.57,0Z"/><path class="cls-3" d="M393.82,338.17a2.29,2.29,0,1,0-2.27-2.31,2.31,2.31,0,0,0,2.27,2.31Z"/><path class="cls-3" d="M240,346.18a2.29,2.29,0,1,0-2.27-2.3,2.32,2.32,0,0,0,2.27,2.3Z"/><path class="cls-3" d="M151,387.49v1.15a4.23,4.23,0,1,0,8.45.06v-1.15a4.23,4.23,0,1,0-8.45-.06Z"/><path class="cls-3" d="M375.33,372.47a4.23,4.23,0,1,0-4.2-4.26,4.28,4.28,0,0,0,4.2,4.26Z"/><path class="cls-3" d="M75.08,401.44a4.23,4.23,0,1,0-4.2-4.26,4.26,4.26,0,0,0,4.2,4.26Z"/><path class="cls-3" d="M120.15,374.78a4.23,4.23,0,1,0-4.19-4.26,4.28,4.28,0,0,0,4.19,4.26Z"/><path class="cls-3" d="M26.31,367.35v1.15a2.57,2.57,0,1,0,5.13,0v-1.16a2.57,2.57,0,1,0-5.13,0Z"/><path class="cls-3" d="M49.35,393a1.18,1.18,0,0,0,0-2.35,1.18,1.18,0,0,0,0,2.35Z"/><path class="cls-3" d="M39.35,384.23H40.5a1,1,0,1,0,0-1.94H39.36a1,1,0,0,0,0,1.94Z"/><path class="cls-3" d="M78.8,287.34a5.36,5.36,0,0,0,.23,2,2,2,0,0,0,1.89,1.3c1.25.05,1.26-1.9,0-1.94-.13,0-.16,0-.09,0s-.11-.1,0,0,.06.08,0,0c.09.16,0-.11,0-.14a4.86,4.86,0,0,1-.07-1.18,1,1,0,0,0-1.94,0Z"/><path class="cls-3" d="M99.39,351.87a1,1,0,0,0,0-1.94,1,1,0,0,0,0,1.94Z"/><path class="cls-3" d="M173,347.14l1.16,1.15a1,1,0,0,0,1.37,0,1,1,0,0,0,0-1.37l-1.15-1.15a1,1,0,1,0-1.37,1.38Z"/><path class="cls-3" d="M300.3,361.7a1,1,0,0,0,0-1.95,1,1,0,0,0,0,1.95Z"/><path class="cls-3" d="M273.75,320.1V319a1,1,0,0,0-1.94,0v1.16a1,1,0,0,0,1.94,0Z"/><path class="cls-3" d="M331.48,340.32a1,1,0,0,0,0-1.94,1,1,0,0,0,0,1.94Z"/><path class="cls-3" d="M349,360.14a2.35,2.35,0,0,0,.43,1.71,2.23,2.23,0,0,0,1.69.42,1,1,0,0,0,0-1.94h-.61c-.23,0,.26.06,0,0s.25.11.13.05.22.19.13.1.16.24.09.12.11.28.07.15a.29.29,0,0,1,0-.09c0-.15,0,.28,0,.12s0-.41,0-.62a1,1,0,0,0-1.94,0Z"/><path class="cls-3" d="M449.73,367.77l1.16,1.16a1,1,0,1,0,1.36-1.38l-1.15-1.16a1,1,0,1,0-1.37,1.38Z"/><path class="cls-3" d="M443.38,325a1,1,0,0,0,0-1.94,1,1,0,0,0,0,1.94Z"/><path class="cls-3" d="M390.29,391.85a1,1,0,0,0,0-1.94,1,1,0,0,0,0,1.94Z"/><path class="cls-3" d="M186.93,399.15a1,1,0,0,0,0-1.94,1,1,0,0,0,0,1.94Z"/><path class="cls-3" d="M205.82,366a1,1,0,0,0,0-1.94,1,1,0,0,0,0,1.94Z"/><path class="cls-3" d="M100.55,424.67a1,1,0,0,0,0-1.94,1,1,0,0,0,0,1.94Z"/><path class="cls-3" d="M52.05,435.07a1,1,0,0,0,0-1.94,1,1,0,0,0,0,1.94Z"/><path class="cls-3" d="M120.07,446.06l-1.15,1.15a1,1,0,0,0,1.37,1.37l1.16-1.16a1,1,0,1,0-1.38-1.36Z"/><path class="cls-3" d="M468.55,415v1.16a2.29,2.29,0,0,1-4.58,0v-1.16a2.29,2.29,0,0,1,4.58,0Z"/><path class="cls-3" d="M293.27,502.53h-1.16a2.29,2.29,0,1,1,0-4.57h1.16a2.29,2.29,0,0,1,0,4.57Z"/><path class="cls-3" d="M259.62,378.87V380a2.29,2.29,0,0,1-4.58,0V378.9a2.29,2.29,0,0,1,4.58,0Z"/><path class="cls-3" d="M225,376.56v.51a2.29,2.29,0,0,1-4.58,0v-.51a2.29,2.29,0,1,1,4.58,0v.51a2.29,2.29,0,0,1-4.58,0v-.51a2.29,2.29,0,1,1,4.58,0Z"/><path class="cls-3" d="M343.64,452.24a2.29,2.29,0,1,1,2.27-2.31,2.32,2.32,0,0,1-2.27,2.31Z"/><path class="cls-3" d="M377.13,449.24a2.29,2.29,0,1,1,2.27-2.3,2.3,2.3,0,0,1-2.27,2.3Z"/><path class="cls-3" d="M379.27,478.9v1.16a2.29,2.29,0,0,1-4.58,0v-1.15a2.29,2.29,0,1,1,4.58,0Z"/><path class="cls-3" d="M240.84,448.65v1.16a2.29,2.29,0,1,1-4.57,0v-1.16a2.29,2.29,0,1,1,4.57,0Z"/><path class="cls-3" d="M104.11,453.5H103a2.29,2.29,0,0,1,0-4.58h1.15a2.29,2.29,0,0,1,0,4.58Z"/><path class="cls-3" d="M62.43,433.78v1.16a2.29,2.29,0,0,1-4.57,0v-1.16a2.29,2.29,0,1,1,4.57,0Z"/><path class="cls-3" d="M37.49,484.68v1.16a2.29,2.29,0,0,1-4.57,0v-1.16a2.29,2.29,0,1,1,4.57,0Z"/><path class="cls-3" d="M61.78,465a2.29,2.29,0,1,1,2.27-2.31A2.32,2.32,0,0,1,61.78,465Z"/><path class="cls-3" d="M402,408.4v1.15a4.23,4.23,0,1,1-8.45.07v-1.16a4.23,4.23,0,1,1,8.45-.06Z"/><path class="cls-3" d="M300.44,408.71a4.23,4.23,0,1,1,4.2-4.26,4.28,4.28,0,0,1-4.2,4.26Z"/><path class="cls-3" d="M80.26,499.33a4.23,4.23,0,1,1,4.2-4.26,4.27,4.27,0,0,1-4.2,4.26Z"/><path class="cls-3" d="M257.61,470.81a4.23,4.23,0,1,1,4.2-4.26,4.26,4.26,0,0,1-4.2,4.26Z"/><path class="cls-3" d="M322.45,383.27a5.34,5.34,0,0,1-.23,2,2,2,0,0,1-1.89,1.3c-1.25.05-1.26-1.89,0-1.94.13,0,.16,0,.09,0s.11-.1,0,0-.05.07,0,0c-.09.16,0-.1,0-.13a4.9,4.9,0,0,0,.07-1.18,1,1,0,0,1,1.94,0Z"/><path class="cls-3" d="M426.16,438,425,439.16a1,1,0,0,1-1.37,0,1,1,0,0,1,0-1.38l1.15-1.15a1,1,0,1,1,1.37,1.38Z"/><path class="cls-3" d="M303.46,423.24a1,1,0,0,1,0-1.94,1,1,0,0,1,0,1.94Z"/><path class="cls-3" d="M181.84,447v-1.15a1,1,0,0,1,1-1,1,1,0,0,1,1,1V447a1,1,0,1,1-1.94,0Z"/><path class="cls-3" d="M144.67,470.21a1,1,0,0,1,0-1.94,1,1,0,0,1,0,1.94Z"/><path class="cls-3" d="M81.4,457.93a1,1,0,0,1,0-1.94,1,1,0,0,1,0,1.94Z"/><path class="cls-3" d="M106.61,487a2.31,2.31,0,0,1-.44,1.71,2.21,2.21,0,0,1-1.68.42,1,1,0,0,1-1-1,1,1,0,0,1,1-1c.21,0,.41,0,.62,0s-.26.06,0,0-.26.11-.14.05-.21.19-.12.1-.17.24-.1.12-.1.28-.06.15,0-.06,0-.09,0,.28,0,.12,0-.41,0-.61a1,1,0,1,1,1.94,0Z"/><path class="cls-3" d="M21.36,458.91a1,1,0,0,1,0-2,1,1,0,0,1,0,2Z"/><path class="cls-3" d="M65.3,518.72a1,1,0,0,1,0-2,1,1,0,0,1,0,2Z"/><path class="cls-3" d="M268.67,526a1,1,0,0,1,0-1.95,1,1,0,0,1,0,1.95Z"/><path class="cls-3" d="M249.77,492.81a1,1,0,0,1,0-1.94,1,1,0,0,1,0,1.94Z"/><path class="cls-3" d="M273.07,432.51a1,1,0,0,1,0-1.94,1,1,0,0,1,0,1.94Z"/><path class="cls-3" d="M261.91,583.6l-1.15.07a2.29,2.29,0,1,0,.25,4.57l1.15-.07a2.29,2.29,0,0,0-.25-4.57Z"/><path class="cls-3" d="M351.26,403.89a4.23,4.23,0,1,0,4-4.45,4.27,4.27,0,0,0-4,4.45Z"/><path class="cls-3" d="M143.4,789.55a4.23,4.23,0,1,0,4-4.46,4.27,4.27,0,0,0-4,4.46Z"/><path class="cls-3" d="M255.29,551.31l-1.16.07a2.57,2.57,0,0,0,.28,5.13l1.16-.08a2.56,2.56,0,1,0-.28-5.12Z"/><path class="cls-3" d="M227.52,548.65c0,.38,0,.77.07,1.15a1,1,0,0,0,1,.92,1,1,0,0,0,.91-1c0-.39-.05-.77-.07-1.16a1,1,0,0,0-1.94.11Z"/><path class="cls-3" d="M265.43,643a1,1,0,0,0,1.93-.11,1,1,0,0,0-1.93.11Z"/><path class="cls-3" d="M299.79,534.23l-1.08,1.22a1,1,0,0,0,1.46,1.28l1.08-1.23a1,1,0,1,0-1.46-1.27Z"/><path class="cls-3" d="M107.86,579.48a1,1,0,0,1,1.93-.14,1,1,0,0,1-1.93.14Z"/><path class="cls-3" d="M79.09,535.79l-1.15.07a4.23,4.23,0,0,0,.46,8.45l1.15-.07a4.23,4.23,0,0,0-.46-8.45Z"/><path class="cls-3" d="M23.17,603.67a5.25,5.25,0,0,0-2,.35A2,2,0,0,0,20,606a1,1,0,0,0,1.94-.1c0-.14,0-.17,0-.1s.09-.11,0,0-.07.06,0,0c-.15.11.1,0,.13,0a5.77,5.77,0,0,1,1.17-.14,1,1,0,0,0-.1-1.93Z"/><path class="cls-3" d="M53.19,564.06l-1.08,1.23a1,1,0,1,0,1.46,1.28l1.08-1.23a1,1,0,0,0-1.46-1.28Z"/><path class="cls-3" d="M464.38,2.87V4a2.29,2.29,0,1,0,4.57,0V2.9a2.29,2.29,0,1,0-4.57,0Z"/><path class="cls-3" d="M472,167.46a1,1,0,0,0,0-1.94,1,1,0,0,0,0,1.94Z"/><path class="cls-3" d="M523.26,203.9v1.16a2.29,2.29,0,0,1-4.58,0v-1.15a2.29,2.29,0,0,1,4.58,0Z"/><path class="cls-3" d="M539.77,322.86a2.25,2.25,0,0,0,1.57.66,2.32,2.32,0,0,0,2.31-2.27v-.51a1.94,1.94,0,0,0,0-.24C542.32,321.23,541,322,539.77,322.86Z"/><path class="cls-3" d="M428.88,341.91a2.29,2.29,0,1,0-2.27-2.31,2.3,2.3,0,0,0,2.27,2.31Z"/><path class="cls-3" d="M514.28,338.26v1.16a2.29,2.29,0,1,0,4.57,0V338.3a2.29,2.29,0,1,0-4.57,0Z"/><path class="cls-3" d="M419.68,391.25a4.23,4.23,0,1,0-4.2-4.26,4.26,4.26,0,0,0,4.2,4.26Z"/><path class="cls-3" d="M486.45,415.63a1,1,0,0,0,0-1.94,1,1,0,0,0,0,1.94Z"/><path class="cls-3" d="M505.35,382.42a1,1,0,0,0,0-1.94,1,1,0,0,0,0,1.94Z"/><path class="cls-3" d="M482.05,322.13a1,1,0,0,0,0-1.95,1,1,0,0,0,0,1.95Z"/><path class="cls-3" d="M589.07,447.37v1.16a2.29,2.29,0,0,1-4.57,0v-1.15a2.29,2.29,0,1,1,4.57,0Z"/><path class="cls-3" d="M454.83,481.5a2.29,2.29,0,1,1,2.27-2.3,2.32,2.32,0,0,1-2.27,2.3Z"/><path class="cls-3" d="M454.82,505a1,1,0,0,1,0-1.94,1,1,0,0,1,0,1.94Z"/><path class="cls-3" d="M481.37,463.44v-1.16a1,1,0,1,1,1.94,0v1.15a1,1,0,0,1-1,1,1,1,0,0,1-1-1Z"/><path class="cls-3" d="M695.4,541.55a2.29,2.29,0,1,0-2.27-2.31,2.32,2.32,0,0,0,2.27,2.31Z"/><path class="cls-3" d="M619.22,747.86V749a2.29,2.29,0,0,0,4.57,0V747.9a2.29,2.29,0,1,0-4.57,0Z"/><path class="cls-3" d="M662,547.72a4.23,4.23,0,1,0-4.2-4.26,4.27,4.27,0,0,0,4.2,4.26Z"/><path class="cls-3" d="M349.11,798.84a4.23,4.23,0,1,0-4.2-4.26,4.26,4.26,0,0,0,4.2,4.26Z"/><path class="cls-3" d="M660.66,575.82V577a2.57,2.57,0,0,0,5.13,0v-1.16a2.57,2.57,0,0,0-5.13,0Z"/><path class="cls-3" d="M666.29,612.2a1.18,1.18,0,0,0,0-2.36,1.18,1.18,0,0,0,0,2.36Z"/><path class="cls-3" d="M656.29,603.39h1.15a1,1,0,1,0,0-1.94H656.3a1,1,0,1,0,0,1.94Z"/><path class="cls-3" d="M716.33,571a1,1,0,0,0,0-1.95,1,1,0,0,0,0,1.95Z"/><path class="cls-3" d="M717.48,643.84a1,1,0,0,0,0-2,1,1,0,0,0,0,2Z"/><path class="cls-3" d="M669,654.24a1,1,0,0,0,0-2,1,1,0,0,0,0,2Z"/><path class="cls-3" d="M737,665.22l-1.16,1.15a1,1,0,0,0,0,1.38,1,1,0,0,0,1.37,0l1.16-1.16a1,1,0,0,0-1.38-1.36Z"/><path class="cls-3" d="M679.37,652.94v1.16a2.29,2.29,0,0,1-4.57,0V653a2.29,2.29,0,1,1,4.57,0Z"/><path class="cls-3" d="M654.43,703.84V705a2.29,2.29,0,0,1-4.58,0v-1.15a2.29,2.29,0,1,1,4.58,0Z"/><path class="cls-3" d="M678.71,684.19a2.29,2.29,0,1,1,2.27-2.3,2.31,2.31,0,0,1-2.27,2.3Z"/><path class="cls-3" d="M714.57,795.62a4.23,4.23,0,1,1,4.2-4.26,4.28,4.28,0,0,1-4.2,4.26Z"/><path class="cls-3" d="M698.33,677.1a1,1,0,0,1,0-1.94,1,1,0,0,1,0,1.94Z"/><path class="cls-3" d="M723.54,706.16a2.33,2.33,0,0,1-.43,1.71,2.18,2.18,0,0,1-1.68.43,1,1,0,0,1-1-1,1,1,0,0,1,1-1c.21,0,.41,0,.61,0s-.26.06,0,0-.25.12-.13.06-.22.18-.12.09-.17.24-.1.13-.11.28-.06.14,0-.06,0-.09,0,.29,0,.12,0-.41,0-.61a1,1,0,0,1,1.94,0Z"/><path class="cls-3" d="M622.8,713.79,621.65,715a1,1,0,1,1-1.37-1.38l1.16-1.16a1,1,0,1,1,1.36,1.38Z"/><path class="cls-3" d="M638.3,678.07a1,1,0,0,1,0-1.94,1,1,0,0,1,0,1.94Z"/><path class="cls-3" d="M682.24,737.88a1,1,0,0,1,0-1.94,1,1,0,0,1,0,1.94Z"/><path class="cls-3" d="M715,41.48v-.06l.06,0Z"/><path class="cls-3" d="M628.54,53.37h1.15a2.29,2.29,0,0,0,0-4.58h-1.15a2.29,2.29,0,0,0,0,4.58Z"/><path class="cls-3" d="M670.21,33.65v1.16a2.29,2.29,0,1,0,4.57,0V33.69a2.29,2.29,0,1,0-4.57,0Z"/><path class="cls-3" d="M695.15,84.55v1.16a2.29,2.29,0,0,0,4.58,0V84.59a2.29,2.29,0,0,0-4.58,0Z"/><path class="cls-3" d="M670.87,64.9a2.29,2.29,0,1,0-2.27-2.3,2.31,2.31,0,0,0,2.27,2.3Z"/><path class="cls-3" d="M652.38,99.2a4.23,4.23,0,1,0-4.2-4.26,4.26,4.26,0,0,0,4.2,4.26Z"/><path class="cls-3" d="M608.52,67.05a1,1,0,0,0,0-1.94,1,1,0,0,0,0,1.94Z"/><path class="cls-3" d="M625.56,8.9a1,1,0,0,0,0-1.95,1,1,0,0,0,0,2Z"/><path class="cls-3" d="M626,86.87a2.33,2.33,0,0,0,.43,1.71,2.18,2.18,0,0,0,1.68.43,1,1,0,0,0,0-1.94c-.21,0-.41,0-.61,0s.25.07,0,0,.25.12.13.06.22.18.12.09.17.24.1.13.11.28.06.14,0-.06,0-.09,0,.29,0,.12,0-.41,0-.61a1,1,0,0,0-1.94,0Z"/><path class="cls-3" d="M280.16,18.52l1.15,1.16a1,1,0,0,0,1.38,0,1,1,0,0,0,0-1.37c-.39-.39-.77-.78-1.16-1.16a1,1,0,1,0-1.36,1.38Z"/><path class="cls-3" d="M711.28,58.78a1,1,0,0,0,0-1.94,1,1,0,0,0,0,1.94Z"/><path class="cls-3" d="M667.34,118.59a1,1,0,0,0,0-1.94,1,1,0,0,0,0,1.94Z"/><path class="cls-3" d="M568.37,27.1v1.15a2.29,2.29,0,1,1-4.57,0V27.13a2.29,2.29,0,1,1,4.57,0Z"/><path class="cls-3" d="M603.53,138.25h-1.15a2.29,2.29,0,0,1,0-4.58h1.15a2.29,2.29,0,0,1,0,4.58Z"/><path class="cls-3" d="M600.67,166a2.29,2.29,0,1,1,2.27-2.3,2.3,2.3,0,0,1-2.27,2.3Z"/><path class="cls-3" d="M651.56,162.93a2.29,2.29,0,1,1,2.27-2.31,2.31,2.31,0,0,1-2.27,2.31Z"/><path class="cls-3" d="M653.7,192.59v1.15a2.29,2.29,0,1,1-4.57,0v-1.16a2.29,2.29,0,1,1,4.57,0Z"/><path class="cls-3" d="M676.42,122.08v1.16a4.23,4.23,0,1,1-8.45.06v-1.16a4.23,4.23,0,1,1,8.45-.06Z"/><path class="cls-3" d="M684.93,169.1a4.23,4.23,0,1,1,4.2-4.26,4.28,4.28,0,0,1-4.2,4.26Z"/><path class="cls-3" d="M609.88,215.32a4.12,4.12,0,0,0,1.27-.2c.68-.54,1.37-1,2.06-1.51a4.17,4.17,0,0,0,.86-2.55,4.23,4.23,0,1,0-4.19,4.26Z"/><path class="cls-3" d="M686.31,197.21v1.15a2.57,2.57,0,1,1-5.13,0v-1.16a2.57,2.57,0,1,1,5.13,0Z"/><path class="cls-3" d="M680.68,233.58a1.18,1.18,0,0,1,0-2.36,1.18,1.18,0,0,1,0,2.36Z"/><path class="cls-3" d="M690.68,224.77h-1.16a1,1,0,0,1,0-1.94h1.15a1,1,0,0,1,1,1,1,1,0,0,1-1,1Z"/><path class="cls-3" d="M565,6.94a5.34,5.34,0,0,1-.23,2,2,2,0,0,1-1.89,1.3c-1.25,0-1.26-1.89,0-1.94.13,0,.16,0,.09,0s.11-.1,0,0-.05.08,0,0c-.09.16,0-.11,0-.13A5,5,0,0,0,563.08,7a1,1,0,0,1,1.94,0Z"/><path class="cls-3" d="M630.64,192.42a1,1,0,0,1,0-1.94,1,1,0,0,1,0,1.94Z"/><path class="cls-3" d="M700.59,151.69l-1.15,1.16a1,1,0,1,1-1.37-1.38l1.16-1.16a1,1,0,0,1,1.36,1.38Z"/><path class="cls-3" d="M678,275.62a1,1,0,0,1,0-1.94,1,1,0,0,1,0,1.94Z"/><path class="cls-3" d="M684.7,281.83V283a2.29,2.29,0,1,0,4.58,0v-1.15a2.29,2.29,0,1,0-4.58,0Z"/><path class="cls-3" d="M709.65,332.73v1.15a2.29,2.29,0,1,0,4.57,0v-1.15a2.29,2.29,0,1,0-4.57,0Z"/><path class="cls-3" d="M685.36,313.07a2.29,2.29,0,1,0-2.27-2.3,2.31,2.31,0,0,0,2.27,2.3Z"/><path class="cls-3" d="M666.88,347.37a4.23,4.23,0,1,0-4.2-4.26,4.26,4.26,0,0,0,4.2,4.26Z"/><path class="cls-3" d="M591.85,336.6a1,1,0,0,0,0-1.94,1,1,0,0,0,0,1.94Z"/><path class="cls-3" d="M665.74,306a1,1,0,0,0,0-1.94,1,1,0,0,0,0,1.94Z"/><path class="cls-3" d="M640.53,335.05a2.27,2.27,0,0,0,.44,1.7,2.17,2.17,0,0,0,1.68.43,1,1,0,1,0,0-1.94c-.2,0-.4,0-.61,0s.26.07,0,0,.26.12.14.06.21.18.12.09.17.24.1.13.1.28.06.14,0-.06,0-.09,0,.29,0,.12,0-.41,0-.61a1,1,0,1,0-1.94,0Z"/><path class="cls-3" d="M725.78,307a1,1,0,0,0,0-1.94,1,1,0,0,0,0,1.94Z"/><path class="cls-3" d="M681.84,366.76a1,1,0,0,0,0-1.94,1,1,0,0,0,0,1.94Z"/><path class="cls-3" d="M624.63,369.45v1.16a2.29,2.29,0,0,1-4.58,0v-1.15a2.29,2.29,0,0,1,4.58,0Z"/><path class="cls-3" d="M608.75,387.86H607.6a2.29,2.29,0,1,1,0-4.57h1.15a2.29,2.29,0,0,1,0,4.57Z"/><path class="cls-3" d="M565.53,343v1.16a2.29,2.29,0,0,1-4.57,0V343a2.29,2.29,0,0,1,4.57,0Z"/><path class="cls-3" d="M546.47,366.84v.51a2.29,2.29,0,0,1-4.58,0v-.52a2.29,2.29,0,0,1,4.58,0v.51a2.29,2.29,0,0,1-4.58,0v-.52a2.29,2.29,0,0,1,4.58,0Z"/><path class="cls-3" d="M617.78,427.2a2.29,2.29,0,1,1,2.27-2.3,2.31,2.31,0,0,1-2.27,2.3Z"/><path class="cls-3" d="M668.67,424.15a2.29,2.29,0,1,1,2.27-2.31,2.31,2.31,0,0,1-2.27,2.31Z"/><path class="cls-3" d="M670.81,453.81V455a2.29,2.29,0,1,1-4.57,0v-1.16a2.29,2.29,0,1,1,4.57,0Z"/><path class="cls-3" d="M693.54,383.31v1.15a4.23,4.23,0,0,1-8.46.06v-1.15a4.23,4.23,0,0,1,8.46-.06Z"/><path class="cls-3" d="M702,430.32a4.23,4.23,0,1,1,4.2-4.26,4.28,4.28,0,0,1-4.2,4.26Z"/><path class="cls-3" d="M672.06,503.21a4.23,4.23,0,1,1,4.2-4.26,4.26,4.26,0,0,1-4.2,4.26Z"/><path class="cls-3" d="M703.42,458.43v1.15a2.57,2.57,0,1,1-5.13,0v-1.15a2.57,2.57,0,1,1,5.13,0Z"/><path class="cls-3" d="M697.79,494.8a1.18,1.18,0,0,1,0-2.36,1.18,1.18,0,0,1,0,2.36Z"/><path class="cls-3" d="M707.79,486h-1.15a1,1,0,0,1,0-1.95h1.16a1,1,0,0,1,0,1.95Z"/><path class="cls-3" d="M668.34,389.11a5.28,5.28,0,0,1-.23,2,2,2,0,0,1-1.89,1.31c-1.25,0-1.26-1.9,0-1.95h.09c-.13,0,.11-.11,0,0s-.06.07,0,0c-.09.15,0-.11,0-.14a4.9,4.9,0,0,0,.07-1.18,1,1,0,0,1,1.94,0Z"/><path class="cls-3" d="M717.7,412.91l-1.15,1.16a1,1,0,0,1-1.37-1.38c.39-.38.77-.77,1.16-1.16a1,1,0,1,1,1.36,1.38Z"/><path class="cls-3" d="M595,398.15a1,1,0,0,1,0-1.94,1,1,0,0,1,0,1.94Z"/><path class="cls-3" d="M541.32,467.71a1,1,0,0,1,0-1.94,1,1,0,0,1,0,1.94Z"/><path class="cls-3" d="M564.61,407.42a1,1,0,0,1,0-1.94,1,1,0,0,1,0,1.94Z"/><path class="cls-3" d="M489.2,501.78a1,1,0,0,0,0-1.94,1,1,0,0,0,0,1.94Z"/><path class="cls-3" d="M479.06,635.37a1.06,1.06,0,0,0-.37.07l-.56.73a.94.94,0,0,0,.92,1.14A1,1,0,0,0,479.06,635.37Z"/><path class="cls-3" d="M430.55,647.71a1,1,0,0,0,0-1.94,1,1,0,0,0,0,1.94Z"/><path class="cls-3" d="M508,615.45l-1.16,1.15a1,1,0,1,0,1.38,1.37l1.15-1.16a1,1,0,1,0-1.37-1.36Z"/><path class="cls-3" d="M482.61,666.14h-1.16a2.29,2.29,0,0,1,0-4.58h1.16a2.29,2.29,0,0,1,0,4.58Z"/><path class="cls-3" d="M440.94,646.42v1.16a2.29,2.29,0,0,1-4.57,0v-1.16a2.29,2.29,0,1,1,4.57,0Z"/><path class="cls-3" d="M416,697.32v1.16a2.29,2.29,0,0,1-4.57,0v-1.16a2.29,2.29,0,1,1,4.57,0Z"/><path class="cls-3" d="M440.28,677.67a2.29,2.29,0,1,1,2.27-2.3,2.3,2.3,0,0,1-2.27,2.3Z"/><path class="cls-3" d="M485.39,391.59a4.23,4.23,0,1,1,4.19-4.26,4.26,4.26,0,0,1-4.19,4.26Z"/><path class="cls-3" d="M459.9,670.58a1,1,0,0,1,0-2,1,1,0,0,1,0,2Z"/><path class="cls-3" d="M505.7,577.27a2.35,2.35,0,0,1-.43,1.71,2.24,2.24,0,0,1-1.69.42,1,1,0,1,1,0-1.94h.61c.22,0-.26.06,0,0s-.25.11-.13,0-.22.19-.13.1-.16.24-.1.12-.1.28-.06.15a.29.29,0,0,0,0-.09c0-.15,0,.28,0,.12s0-.41,0-.62a1,1,0,0,1,1.94,0Z"/><path class="cls-3" d="M384.37,707.27l-1.16,1.16a1,1,0,1,1-1.36-1.38l1.15-1.16a1,1,0,0,1,1.37,1.38Z"/><path class="cls-3" d="M399.87,671.55a1,1,0,0,1,0-1.95,1,1,0,0,1,0,1.95Z"/><path class="cls-3" d="M443.81,731.36a1,1,0,0,1,0-2,1,1,0,0,1,0,2Z"/><path class="cls-3" d="M94.67,603a2.29,2.29,0,1,0-2.27-2.31A2.32,2.32,0,0,0,94.67,603Z"/><path class="cls-3" d="M16.82,526.4v1.15a2.29,2.29,0,1,0,4.57,0v-1.16a2.29,2.29,0,1,0-4.57,0Z"/><path class="cls-3" d="M61.3,609.12a4.23,4.23,0,1,0-4.2-4.26,4.28,4.28,0,0,0,4.2,4.26Z"/><path class="cls-3" d="M91.28,682a4.23,4.23,0,1,0-4.2-4.26,4.27,4.27,0,0,0,4.2,4.26Z"/><path class="cls-3" d="M59.92,637.23v1.15a2.57,2.57,0,1,0,5.13,0v-1.16a2.57,2.57,0,1,0-5.13,0Z"/><path class="cls-3" d="M65.55,673.6a1.18,1.18,0,0,0,0-2.36,1.18,1.18,0,0,0,0,2.36Z"/><path class="cls-3" d="M55.55,664.79H56.7a1,1,0,1,0,0-1.94H55.56a1,1,0,0,0,0,1.94Z"/><path class="cls-3" d="M115.59,632.44a1,1,0,0,0,0-1.94,1,1,0,0,0,0,1.94Z"/><path class="cls-3" d="M116.75,705.24a1,1,0,0,0,0-1.94,1,1,0,0,0,0,1.94Z"/><path class="cls-3" d="M68.25,715.64a1,1,0,0,0,0-1.94,1,1,0,0,0,0,1.94Z"/><path class="cls-3" d="M136.27,726.62l-1.15,1.16a1,1,0,1,0,1.37,1.36l1.16-1.16a1,1,0,0,0-1.38-1.36Z"/><path class="cls-3" d="M120.31,734.06h-1.16a2.29,2.29,0,0,1,0-4.58h1.15a2.29,2.29,0,0,1,0,4.58Z"/><path class="cls-3" d="M393.6,753.26v1.16a2.29,2.29,0,0,1-4.58,0v-1.16a2.29,2.29,0,0,1,4.58,0Z"/><path class="cls-3" d="M53.69,765.24v1.16a2.29,2.29,0,1,1-4.57,0v-1.15a2.29,2.29,0,1,1,4.57,0Z"/><path class="cls-3" d="M66.29,791.42a2.29,2.29,0,1,1,2.27-2.3,2.32,2.32,0,0,1-2.27,2.3Z"/><path class="cls-3" d="M96.46,779.89a4.23,4.23,0,1,1,4.2-4.26,4.26,4.26,0,0,1-4.2,4.26Z"/><path class="cls-3" d="M97.6,738.5a1,1,0,0,1,0-1.94,1,1,0,0,1,0,1.94Z"/><path class="cls-3" d="M118.11,796.61a2.3,2.3,0,0,1-.44,1.71,2.18,2.18,0,0,1-1.68.43,1,1,0,0,1,0-1.94c.21,0,.41,0,.62,0s-.26.06,0,0-.26.12-.14.06-.22.18-.12.09-.17.24-.1.13-.11.28-.06.14,0-.06,0-.09,0,.29,0,.12,0-.41,0-.61a1,1,0,0,1,1-1,1,1,0,0,1,1,1Z"/><path class="cls-3" d="M22.06,775.2l-1.15,1.15A1,1,0,0,1,19.54,775l1.16-1.15a1,1,0,0,1,1.37,0,1,1,0,0,1,0,1.38Z"/><path class="cls-3" d="M37.56,739.47a1,1,0,0,1,0-1.94,1,1,0,0,1,0,1.94Z"/><path class="cls-3" d="M81.5,799.28a1,1,0,0,1,0-1.94,1,1,0,0,1,0,1.94Z"/><path class="cls-3" d="M361.8,694.06a2.29,2.29,0,1,0,1.8-2.69,2.3,2.3,0,0,0-1.8,2.69Z"/><path class="cls-3" d="M332.35,698l-1.14.23a2.29,2.29,0,0,0,.9,4.49l1.13-.23a2.29,2.29,0,0,0-.89-4.49Z"/><path class="cls-3" d="M308.71,750.81a4.23,4.23,0,1,0,3.32-5,4.28,4.28,0,0,0-3.32,5Z"/><path class="cls-3" d="M283.75,706.72a4.23,4.23,0,1,0,3.32-5,4.26,4.26,0,0,0-3.32,5Z"/><path class="cls-3" d="M321.23,666.93l-1.13.24a2.56,2.56,0,0,0,1,5l1.13-.23a2.57,2.57,0,0,0-1-5Z"/><path class="cls-3" d="M286.78,679.8a1.18,1.18,0,0,0,2.31-.46,1.18,1.18,0,0,0-2.31.46Z"/><path class="cls-3" d="M293.37,668.22c.08.38.16.76.23,1.13a1,1,0,0,0,1.14.77,1,1,0,0,0,.77-1.15l-.24-1.13a1,1,0,0,0-1.9.38Z"/><path class="cls-3" d="M337.17,720.53a1,1,0,0,0,1.91-.38,1,1,0,0,0-1.91.38Z"/><path class="cls-3" d="M266.17,736.38a1,1,0,0,0,1.9-.38,1,1,0,0,0-1.9.38Z"/><path class="cls-3" d="M246.18,691a1,1,0,0,0,1.91-.38,1,1,0,0,0-1.91.38Z"/><path class="cls-3" d="M249.19,759.84l-1.36-.9a1,1,0,1,0-1.06,1.63l1.36.9a1,1,0,1,0,1.06-1.63Z"/><path class="cls-3" d="M238.68,745.7l-.23-1.14a2.28,2.28,0,1,1,4.47-.95c.08.37.15.75.23,1.13a2.29,2.29,0,1,1-4.47,1Z"/><path class="cls-3" d="M249.55,700.87l-1.13.23a2.29,2.29,0,1,1-1-4.47l1.13-.24a2.29,2.29,0,1,1,1,4.48Z"/><path class="cls-3" d="M37.33,677.72,36.2,678a2.29,2.29,0,0,1-1-4.48l1.13-.23a2.29,2.29,0,1,1,1,4.48Z"/><path class="cls-3" d="M218.84,706.54a2.29,2.29,0,1,1,2.71,1.76,2.31,2.31,0,0,1-2.71-1.76Z"/><path class="cls-3" d="M189,731.6a4.23,4.23,0,1,1,5,3.25,4.29,4.29,0,0,1-5-3.25Z"/><path class="cls-3" d="M229.75,724.34a1,1,0,0,1,1.89-.41,1,1,0,0,1-1.89.41Z"/><path class="cls-3" d="M206.4,754.92a2.28,2.28,0,0,1-1.76-.08c-.53-.32-.64-1-.76-1.56a1,1,0,0,1,1.9-.41c0,.2.08.4.14.6s-.12-.24,0,0-.17-.22-.09-.12-.22-.18-.11-.1-.27-.12-.15-.07-.29,0-.15,0h0l.6-.12a1,1,0,0,1,1.15.75,1,1,0,0,1-.74,1.15Z"/><path class="cls-3" d="M216.66,665.69a1,1,0,0,1,1.89-.4,1,1,0,0,1-1.89.4Z"/><path class="cls-3" d="M167,720.85a1,1,0,0,1,1.9-.4,1,1,0,0,1-1.9.4Z"/><path class="cls-3" d="M553.36,656.06a1,1,0,0,0,0-1.94,1,1,0,0,0,0,1.94Z"/><path class="cls-3" d="M621.38,667l-1.16,1.16a1,1,0,1,0,1.38,1.36l1.16-1.15a1,1,0,0,0,0-1.38,1,1,0,0,0-1.37,0Z"/><path class="cls-3" d="M605.41,674.48h-1.15a2.29,2.29,0,0,1,0-4.58h1.15a2.29,2.29,0,0,1,0,4.58Z"/><path class="cls-3" d="M563.74,654.77v1.15a2.29,2.29,0,1,1-4.57,0V654.8a2.29,2.29,0,1,1,4.57,0Z"/><path class="cls-3" d="M651,764.83V766a2.29,2.29,0,1,1-4.58,0v-1.15a2.29,2.29,0,1,1,4.58,0Z"/><path class="cls-3" d="M563.08,686a2.29,2.29,0,1,1,2.27-2.31,2.32,2.32,0,0,1-2.27,2.31Z"/><path class="cls-3" d="M581.57,720.31a4.23,4.23,0,1,1,4.2-4.26,4.26,4.26,0,0,1-4.2,4.26Z"/><path class="cls-3" d="M582.7,678.92a1,1,0,0,1,0-1.94,1,1,0,0,1,0,1.94Z"/><path class="cls-3" d="M607.91,708a2.31,2.31,0,0,1-.43,1.7,2.18,2.18,0,0,1-1.68.43,1,1,0,1,1,0-1.94h.61c.23,0-.26.06,0,0s-.25.12-.13.06-.22.18-.12.09-.17.24-.1.13-.11.28-.06.14,0-.06,0-.08,0,.28,0,.11,0-.41,0-.61a1,1,0,1,1,1.94,0Z"/><path class="cls-3" d="M507.17,715.62,506,716.77a1,1,0,1,1-1.37-1.38l1.16-1.15a1,1,0,0,1,1.37,0,1,1,0,0,1,0,1.38Z"/><path class="cls-3" d="M522.67,679.89a1,1,0,0,1,0-1.94,1,1,0,0,1,0,1.94Z"/><path class="cls-3" d="M566.61,739.7a1,1,0,0,1,0-1.94,1,1,0,0,1,0,1.94Z"/><path class="cls-3" d="M308,27.28a2.29,2.29,0,1,0-2.27-2.3,2.31,2.31,0,0,0,2.27,2.3Z"/><path class="cls-3" d="M195.26,13.88a4.22,4.22,0,0,0-1.82-8,4.3,4.3,0,0,0-4.18,3.42C191.35,10.7,193.34,12.3,195.26,13.88Z"/><path class="cls-3" d="M321.45,149.58c-.94.39-1.89.72-2.86,1a1,1,0,0,0,.27.51,1,1,0,0,0,1.37,0l1.16-1.15a1,1,0,0,0,.24-.44Z"/><path class="cls-3" d="M127.87,161.31a2.27,2.27,0,0,0,1.88,3.6h1.15a2.31,2.31,0,0,0,2.27-2.31,2.22,2.22,0,0,0-.39-1.24A44.76,44.76,0,0,1,127.87,161.31Z"/><path class="cls-3" d="M183.88,796.68a4.23,4.23,0,1,1,4.2-4.26,4.26,4.26,0,0,1-4.2,4.26Z"/><path class="cls-3" d="M306.54,189.53a2.35,2.35,0,0,1-.43,1.71,2.21,2.21,0,0,1-1.68.42,1,1,0,1,1,0-1.94H305c.23,0-.26.06,0,0s-.25.12-.13.06-.22.18-.12.1-.17.23-.1.12-.11.28-.06.14,0-.05,0-.08,0,.28,0,.11,0-.4,0-.61a1,1,0,1,1,1.94,0Z"/><path class="cls-3" d="M487.87,744.78a2.29,2.29,0,1,0-2.27-2.31,2.31,2.31,0,0,0,2.27,2.31Z"/><path class="cls-3" d="M643.74,486.31v1.16a2.29,2.29,0,0,0,4.58,0v-1.16a2.29,2.29,0,0,0-4.58,0Z"/><path class="cls-3" d="M421.15,687.19a4.23,4.23,0,1,0-4.19-4.26,4.28,4.28,0,0,0,4.19,4.26Z"/><path class="cls-3" d="M451.13,760.08a4.23,4.23,0,1,0-4.2-4.26,4.28,4.28,0,0,0,4.2,4.26Z"/><path class="cls-3" d="M349.28,743.59v1.15a2.56,2.56,0,1,0,5.12,0v-1.16a2.56,2.56,0,1,0-5.12,0Z"/><path class="cls-3" d="M425.4,751.67a1.18,1.18,0,0,0,0-2.36,1.18,1.18,0,0,0,0,2.36Z"/><path class="cls-3" d="M415.4,742.86h1.16a1,1,0,0,0,0-1.94h-1.15a1,1,0,0,0,0,1.94Z"/><path class="cls-3" d="M475.45,710.51a1,1,0,0,0,0-1.94,1,1,0,0,0,0,1.94Z"/><path class="cls-3" d="M476.6,783.31a1,1,0,0,0,0-1.94,1,1,0,0,0,0,1.94Z"/><path class="cls-3" d="M428.1,793.71a1,1,0,0,0,0-1.94,1,1,0,0,0,0,1.94Z"/><path class="cls-3" d="M496.12,804.69,495,805.85a1,1,0,1,0,1.38,1.36l1.15-1.16a1,1,0,0,0,0-1.37,1,1,0,0,0-1.38,0Z"/><path class="cls-3" d="M480.16,812.13H479a2.29,2.29,0,0,1,0-4.58h1.16a2.29,2.29,0,0,1,0,4.58Z"/><path class="cls-3" d="M438.49,792.42v1.15a2.29,2.29,0,1,1-4.57,0v-1.15a2.29,2.29,0,1,1,4.57,0Z"/><path class="cls-3" d="M437.83,823.66a2.29,2.29,0,1,1,2.27-2.3,2.3,2.3,0,0,1-2.27,2.3Z"/><path class="cls-3" d="M457.45,816.57a1,1,0,0,1,0-1.94,1,1,0,0,1,0,1.94Z"/><path class="cls-3" d="M397.42,817.54a1,1,0,0,1,0-1.94,1,1,0,0,1,0,1.94Z"/></g></g></svg>