<svg xmlns="http://www.w3.org/2000/svg" viewBox="0 0 832.5 835.96"><defs><style>.cls-1{fill:#deaa7c;}.cls-2{fill:#ffffc5;}.cls-3{fill:#5e4440;}.cls-4{fill:#e55747;}</style></defs><g id="Layer_2" data-name="Layer 2"><g id="Layer_1-2" data-name="Layer 1"><rect class="cls-1" width="832.5" height="832.5"/><path class="cls-2" d="M284.44,407.73c-15.86-28.53-32.25-44.36-67.32-52.61-16.86-4-38.63-1.85-51.19.61-77.52,15.19-64.82,170.49-9.47,209.89,38,27.07,114.7,15.43,148.59-16.55C352.84,504,307.77,449.72,284.44,407.73Z"/><path class="cls-3" d="M350.68,470.21c-6.75-18.87-15.94-37.33-24.76-54.61-13-25.47-38.63-49.91-68.55-65.4A149.64,149.64,0,0,0,211,334.69c-16.57-2.49-32.06-1.44-46,3.12-37.41,12.2-65.57,35.37-81.45,67-15.49,30.84-18.54,68-8.84,107.46a158.58,158.58,0,0,0,14.13,36.92A129.46,129.46,0,0,0,120.25,588c24.12,19.86,55.1,29.84,92.47,29.84A240.7,240.7,0,0,0,244,615.7q8.22-1.08,16.78-2.7l.43-.08c25.86-4.93,50.34-16.2,68.92-31.74,18.86-15.76,29.78-34.42,30.77-52.54C361.88,511.26,358.53,492.14,350.68,470.21Zm8.38,58.32c-2,36.18-45.1,72.43-98.17,82.55l-.38.07q-8.59,1.64-16.69,2.68a238.21,238.21,0,0,1-31,2.12c-98.87,0-128.07-70.46-136.35-104.13C56.66,431.3,91.62,363.69,165.51,339.59a91.94,91.94,0,0,1,28.57-4.36,124.12,124.12,0,0,1,38.72,6.59l1.83.62a163.34,163.34,0,0,1,21.88,9.43c4.72,2.44,9.33,5.11,13.8,8l.19.12h0c23.46,15,43,35.42,53.75,56.48C343.74,454.61,361.07,491.9,359.06,528.53Z"/><path class="cls-3" d="M246.22,719.93c.93,20,3.65,39.26,5.92,58.76,3.72-.76,7.45-1.48,11.2-2.13,5.3-.93,10.64-1.77,16-2.43-4.95-24.22-9.72-48.56-14.09-73.18-4.79-27-.2-60.23-4.44-88-.09-.62-.19-1.24-.29-1.85q-8.61,1.64-16.7,2.68l.21,1.87C247.64,649.66,244.66,686.45,246.22,719.93Z"/><path class="cls-3" d="M146.17,466l.54,9.29c6.82-1,7.38-1.69,8.28-8.3C151.76,465.53,147.28,465.88,146.17,466Z"/><path class="cls-3" d="M226.7,483.8c2.78-.47,5.54-1.16,8.33-1.85l2.63-.65c-1.59-17.41-10-53.75-15.42-51.24v5.3C222.29,444.46,219.78,472.46,226.7,483.8Z"/><path class="cls-4" d="M151.93,476a15.53,15.53,0,0,0-10.35,9.67,8.66,8.66,0,0,0,8.92,11.66c9-.79,16.22-5.44,12.75-17.49a6,6,0,0,1-2.5-1.33A9.28,9.28,0,0,0,151.93,476Z"/><path class="cls-4" d="M293.75,457.35c-19.9-4.36-13.61,26.29,4.43,16.86C315.68,465.06,293.75,457.35,293.75,457.35Z"/><path class="cls-3" d="M230.57,498.37c-5.3,0-10.63-1.64-13.93-4.39l1.2-1.44c3.55,3,9.78,4.49,15.5,3.78,3.64-.44,6.5-1.76,7.85-3.62l1.52,1.11c-1.69,2.3-4.93,3.86-9.14,4.37A23.13,23.13,0,0,1,230.57,498.37Z"/><path class="cls-3" d="M197.89,370.81c.54-12.28-1.57-27.66-14.72-29.21-.48,9.8-1.76,21.56,2.46,30.15A122,122,0,0,1,197.89,370.81Z"/><path class="cls-3" d="M157.47,380.74a62.2,62.2,0,0,1,5.57-2.85c-6.22-8.38-12-14.83-23.56-17.65-1.44,9,3.48,18.15,10.2,25.06C152.27,383.75,154.88,382.24,157.47,380.74Z"/><path class="cls-3" d="M131.81,398.18c-9.86-6.07-20-9.31-31.9-8.65,2.36,9.68,12,16.43,21.55,21.28A54.75,54.75,0,0,1,131.81,398.18Z"/><path class="cls-3" d="M100.35,445.72a46.91,46.91,0,0,1,4.6-13.09c-10-.64-21.1-1.47-26.43,6.61C84,444.25,92.34,445.78,100.35,445.72Z"/><path class="cls-3" d="M100,483.88c-5.92,1.3-11.59,3.44-15.78,7.31,5.08,5.11,11.64,4,18.81,4.85A80.35,80.35,0,0,1,100,483.88Z"/><path class="cls-3" d="M124.16,534.23A24.8,24.8,0,0,0,110.24,545a34.67,34.67,0,0,0,20.25-2.5Q127.22,538.42,124.16,534.23Z"/><path class="cls-3" d="M144.93,558.12c-5.37,4.73-8.79,11.08-6.78,18.83a31,31,0,0,0,18.9-9A90.8,90.8,0,0,1,144.93,558.12Z"/><path class="cls-3" d="M179.63,577.61a21.74,21.74,0,0,0-.16,11.18c7,.49,12.26-3.16,15.78-8.44A109.28,109.28,0,0,1,179.63,577.61Z"/><path class="cls-3" d="M227.8,580.29q-4.37.39-8.82.6a30.31,30.31,0,0,0-2.53,16.22c8.35-.41,12.05-8.35,12.19-16.9Z"/><path class="cls-3" d="M262.93,579.15a34.43,34.43,0,0,1-9.38,1.1c1.16,7.55,2.92,14.76,10.6,18A55.46,55.46,0,0,0,266.91,578C265.59,578.43,264.25,578.82,262.93,579.15Z"/><path class="cls-3" d="M295,576.68a19,19,0,0,0,13.85,8,39.94,39.94,0,0,0-.38-15.84A89.85,89.85,0,0,1,295,576.68Z"/><path class="cls-3" d="M329.59,547l-.35.13a49.54,49.54,0,0,1-7.38,10.29,23.9,23.9,0,0,0,12.82,1.32C337,551.1,334.35,549.46,329.59,547Z"/><path class="cls-3" d="M336.11,513.18c0,1.72,0,3.44-.08,5.16s-.07,3.26-.12,4.93c6.7,2.44,14.41,1.47,19.57-2.4C350.58,520.39,342.27,514.81,336.11,513.18Z"/><path class="cls-3" d="M264.48,385.64a33.22,33.22,0,0,1,3.68,3.73c5.87-9.57,9.64-22.34,2.19-29.56-6.83,4.45-10.16,12.82-12.59,21A43,43,0,0,1,264.48,385.64Z"/><path class="cls-3" d="M228.75,372.18l4-12.12c1.19-2.44,2.49-12.15,1.76-18.42-11.45.15-12.26,18.31-10,30.08C225.92,371.85,227.34,372,228.75,372.18Z"/><path class="cls-3" d="M335.48,497.93c5.48-1.41,10.56-3,14.26-6.37-4.76-.31-10.1-.82-15.2-.73C334.93,493.19,335.24,495.55,335.48,497.93Z"/><path class="cls-3" d="M277.74,445.2l.54,9.29c6.82-1,7.38-1.69,8.28-8.29C283.33,444.72,278.85,445.06,277.74,445.2Z"/><path class="cls-3" d="M580.48,467.25a200.91,200.91,0,0,1-61.94.28c-29.2-4.39-51.74-21.18-67-49.89-17.09-32.18-24.69-80.11-21.39-135,2.7-45,12.86-91.7,25.87-119,7-14.74,21.78-27.24,42.72-36.17,19.36-8.25,43.38-13.31,69.49-14.63,31.82-1.61,64.32,2.51,91.52,11.61,30.13,10.07,52.27,25.63,64,45,15.19,25,18.85,60.62,10.89,105.79-7.56,42.9-23.55,82.49-32.41,102.27-15,33.52-41,59.67-75.21,75.61A178,178,0,0,1,580.48,467.25Zm-61.65-1.65c79.5,12,152.5-23.76,181.66-88.89,8.82-19.7,24.74-59.12,32.26-101.81,7.88-44.69,4.3-79.82-10.63-104.44-11.5-19-33.28-34.24-63-44.17-27-9-59.22-13.1-90.8-11.5-54.93,2.78-97.29,21.82-110.55,49.68-26.06,54.75-41.16,183.28-4.53,252.25C468.22,444.86,490.28,461.31,518.83,465.6Z"/><path class="cls-3" d="M568.69,468.71q-.41,4-.75,8.05-.9,10.37-1.4,20.8-.49,9.49-.68,19.05-.12,6.06-.14,12.16,0,9.27.17,18.58.15,7.2.42,14.39.32,8.53.78,17.06.36,6.35.77,12.68c.47,7.15,1,14.32,1.61,21.47q.64,7.72,1.36,15.45,1,11.26,2.24,22.5.36,3.58.75,7.14,1.13,10.55,2.32,21,.81,7,1.63,14.09.87,7.56,1.75,15.09.48,4.1,1,8.24.69,5.91,1.38,11.86c.61,5.32,1.22,10.66,1.81,16,.41,3.65.82,7.29,1.2,10.92.32,2.87.62,5.72.92,8.58l.1.93-.93.13c-7.72,1.14-24.35,2.18-33.87,1.3l-.63-.06-.2-.61c-.49-1.47-.95-3-1.38-4.49a138.11,138.11,0,0,1-3.3-14.73c-.82-4.8-1.44-9.73-1.9-14.75q-.59-6.51-.82-13.18c-.27-6.72-.3-13.54-.18-20.38.08-5.08.25-10.18.47-15.24.32-7.3.74-14.54,1.17-21.62.08-1.36.16-2.73.25-4.09.06-1.06.13-2.12.19-3.17.49-8.13.94-15.94,1.23-23.43.08-2.22.16-4.4.21-6.56q.1-4.64.09-9.36c0-6.22-.13-12.56-.33-19-.14-4.83-.32-9.75-.51-14.75,0-.42,0-.85,0-1.27-.2-5.27-.4-10.56-.55-15.86q-.21-6.33-.31-12.65c-.12-7.86-.12-15.69.14-23.45.13-4.11.32-8.19.61-12.25.37-5.24.88-10.43,1.58-15.56A178.7,178.7,0,0,1,551.62,476q.92-3.36,2-6.66c.66.08,1.32.14,2,.2q-1.05,3.19-2,6.45a177.77,177.77,0,0,0-4.76,23.63c-.71,5.17-1.23,10.41-1.6,15.7-.3,4.1-.5,8.24-.63,12.4-.25,7.58-.26,15.22-.13,22.88.06,4.31.17,8.62.3,12.93.16,5.31.36,10.62.55,15.9,0,.37,0,.74,0,1.1.19,5,.36,9.87.51,14.68.2,6.52.34,12.9.34,19.16,0,3.23,0,6.43-.1,9.6q-.07,3.16-.2,6.41c-.28,7.45-.73,15.22-1.22,23.31-.07,1.16-.14,2.34-.21,3.52s-.16,2.52-.24,3.8h0c-.42,7-.84,14.26-1.16,21.52-.22,5.07-.39,10.17-.48,15.27-.12,6.87-.09,13.73.17,20.48.16,4.46.43,8.88.83,13.21.46,5,1.08,9.93,1.89,14.72a133.52,133.52,0,0,0,3.29,14.54c.34,1.22.72,2.42,1.1,3.6,9.08.74,24.07-.16,31.85-1.21-.27-2.54-.55-5.09-.82-7.65-.4-3.66-.81-7.34-1.21-11-.6-5.29-1.2-10.6-1.81-15.88-.47-4-.93-8-1.4-12-.31-2.71-.63-5.4-.94-8.08q-.87-7.5-1.75-15-.83-7.1-1.64-14.23-1.19-10.46-2.31-20.94c-.26-2.39-.52-4.77-.77-7.16q-1.17-11.24-2.22-22.5-.74-7.8-1.38-15.62c-.58-7-1.12-14.09-1.58-21.14q-.45-6.48-.8-13c-.3-5.64-.57-11.28-.78-16.93q-.27-7.19-.42-14.38-.2-9.44-.16-18.86,0-6.19.14-12.37.2-9.25.64-18.47.53-10.69,1.43-21.34c.22-2.49.45-5,.7-7.48C567.36,469,568,468.84,568.69,468.71Z"/><path class="cls-3" d="M545.34,535.73l-.84.92-.47.52c-11.29-10.24-23.9-20.75-37.26-31.69L495.1,496,494,495l-6.49-5.3q-5.14-4.19-10.29-8.44-4.9-4-9.75-8.08-2.2-1.83-4.38-3.68c-4.86-4.1-9.65-8.21-14.32-12.32a162.35,162.35,0,0,0,12.75,16.41c1.35,1.57,2.76,3.18,4.22,4.81,2.82,3.16,5.82,6.42,8.93,9.75s6.51,6.9,9.9,10.44l5.71,6,.75.78c3.9,4.06,7.82,8.14,11.66,12.19,19.08,20.1,36.58,39.75,42.48,54.42a26.59,26.59,0,0,1,2.09,8.55,13.7,13.7,0,0,1,0,1.57l-1.72-.09h-.22c.73-14-20-37.8-43.41-62.45-4.05-4.27-8.18-8.57-12.28-12.84l-.13-.13-5.65-5.89c-3.38-3.54-6.72-7-9.93-10.46-3.06-3.27-6-6.47-8.8-9.59-1.52-1.68-3-3.34-4.4-5-7.44-8.58-13.43-16.38-16.85-22.9L441.35,448l4,3.59c6,5.33,12.14,10.68,18.43,16l4.41,3.71q4.83,4,9.69,8.05,5.13,4.22,10.25,8.39,3.28,2.7,6.56,5.36l1.64,1.34,10,8.11h0c13.69,11.2,26.63,21.94,38.22,32.42Z"/><path class="cls-3" d="M676.05,426.21,671.66,434c-6.91,12.28-15.12,24.88-23.84,37.49-3.29,4.78-6.67,9.55-10.07,14.32-.78,1.1-1.56,2.2-2.35,3.29-3.24,4.52-6.5,9-9.73,13.5l-.86,1.19c-4.78,6.61-9.58,13.27-14.31,19.94q-3.3,4.66-6.54,9.34c-14.59,21.1-27.76,42.13-35.86,61.93-.14.35-.28.69-.41,1l-1.5-.61-.31-.12c.08-.21.17-.41.25-.63h0c.41-1,.85-2.07,1.3-3.12.12-.28.25-.56.37-.85h0c8.39-19.29,21.26-39.6,35.38-60q3.22-4.63,6.52-9.26c4.74-6.69,9.56-13.38,14.36-20v0c3.5-4.84,7-9.72,10.53-14.61l2.26-3.17c3.52-4.93,7-9.87,10.38-14.81,6.35-9.21,12.39-18.4,17.84-27.46-6.18,6.95-12.63,14.22-19.22,21.73q-5.67,6.48-11.49,13.17l-2.63,3c-3.51,4.05-7,8.16-10.58,12.3-5.26,6.16-10.54,12.38-15.77,18.63l-6,7.21c-11.42,13.81-22.5,27.62-32.65,40.93l-.59-.45-.95-.73.89-1.17c10.18-13.31,21.27-27.1,32.68-40.87q2.9-3.5,5.79-7c5.28-6.31,10.61-12.59,15.93-18.81,3.48-4.08,7-8.11,10.43-12.12l2.82-3.25q5.82-6.69,11.53-13.2c8.62-9.81,17-19.21,24.79-28Z"/><path class="cls-2" d="M437,378.19l-4.51,6.26A17.29,17.29,0,0,0,437,378.19Z"/><path class="cls-2" d="M441.28,206c.85-2.59,1.71-5.17,2.53-7.76.57-1.82,1.09-3.65,1.59-5.48,0-.06,0-.12,0-.2.14-1,.38-1.92.54-2.88a13.6,13.6,0,0,1,5.15-8.73c-14.8-12.94-16.22-50.18-45.37-26.67.59,21.49,17.43,42.31,35.2,52.18Z"/><path class="cls-2" d="M438.83,379c-19.07,9.45-52,10.22-49.53,41.33,21.44-.21,43.18-12.54,48.52-34.63l1.94-2.7C439.44,381.62,439.13,380.29,438.83,379Z"/><path class="cls-2" d="M432.94,282.11c-22,.45-39.85-14.54-62.39-8.36,2.74,30.15,45.27,26.47,61.72,14Q432.51,284.9,432.94,282.11Z"/><path class="cls-2" d="M507.17,124.53l.06,0q3.11-1.58,6.36-2.87a103.18,103.18,0,0,1,14.46-4.47c-9.84-11-8-28.82-16.23-43.47-48.65-4.24-31.12,34.66-13,55.05A64.75,64.75,0,0,1,507.17,124.53Z"/><path class="cls-2" d="M624,116.34c.79.07,1.58.13,2.37.22a158.68,158.68,0,0,1,15.82,2.49c4.54-21.29,0-43.83-4.77-65.75-6.43.08-19.44,4.16-24.85,7.92C613.28,80.11,624.54,99.17,624,116.34Z"/><path class="cls-2" d="M736.49,105.73c-7.7,14.42-20.47,34.23-35.74,37a105.09,105.09,0,0,1,16.49,20.7C749.81,156.73,756,136.88,736.49,105.73Z"/><path class="cls-2" d="M738.86,219.43,736.51,230c.36,3.67.6,7.36.71,11,15.63,5.85,52.09,2.12,56.91-16.71C803.2,188.88,751.66,217.89,738.86,219.43Z"/><path class="cls-2" d="M772.51,310.18c-15.6,4.56-34.17,5.41-42.34-8.41-1.74,7.26-3.74,14.45-5.94,21.53q-.88,2.82-1.83,5.63C745.55,349.87,792.25,352.74,772.51,310.18Z"/><path class="cls-2" d="M699.05,380.5a208.47,208.47,0,0,1-17.46,25.56c12.4,7,41.39,46.18,53.15,19.37C743.5,405.45,706.46,394.23,699.05,380.5Z"/><path class="cls-2" d="M652.31,435.17a110.21,110.21,0,0,1-17.81,11.2c17,24.28,28.38,50.57,63.1,34.94C695.75,459,668.13,445.71,652.31,435.17Z"/><path class="cls-3" d="M587.89,303.22a196.61,196.61,0,0,0-13-32.09c-8.41,10.84-14,23.56-22.5,30.75C564.11,300.51,576.21,301.4,587.89,303.22Z"/><path class="cls-4" d="M461.17,301.66c-6.92,4.22-13.1,9.65-18.67,14.64l1.23,7.61c-3.69,23.16,46.12,25.67,50.22-1C496.71,304.86,476.73,292.19,461.17,301.66Z"/><path class="cls-4" d="M663.23,313c-10,.23-12.54,13.72-6.8,27.76C700.91,354.5,712.19,311.88,663.23,313Z"/><path class="cls-3" d="M466.14,285.76a27.68,27.68,0,0,1-8.76-.36l-.53-.09-.21-.48a19.86,19.86,0,0,1-1.23-5.68,16.7,16.7,0,0,0-1.09-5l1.76-.82a18.25,18.25,0,0,1,1.26,5.64,20.07,20.07,0,0,0,.9,4.65c10.84,1.7,12.15-1.32,14.69-7.26.32-.74.65-1.51,1-2.31l1.76.81c-.35.79-.68,1.55-1,2.27C472.81,281.53,471.36,284.91,466.14,285.76Z"/><path class="cls-3" d="M677.75,301.47a25.07,25.07,0,0,1-7.07,0l-.89-.1,0-.89c.09-3.32-1.45-8.13-2-9.94l-.17-.52,1.87-.58c0,.13.09.3.15.5a40.87,40.87,0,0,1,2.12,9.69c10.16.94,13.89-3.61,19.47-10.42l1.51,1.23C688.34,295.86,684.66,300.35,677.75,301.47Z"/><path class="cls-3" d="M573.38,341c-3.77.61-7.82.92-11.59,1.22-2.33.18-4.53.35-6.45.58l-.68.08-.3-.61a23.25,23.25,0,0,1-2.49-11.51l2,.07a21.23,21.23,0,0,0,2,9.95c1.78-.19,3.76-.34,5.84-.5,6.66-.52,14.21-1.11,19.29-3.29l.77,1.79A36.43,36.43,0,0,1,573.38,341Z"/><path class="cls-3" d="M583.68,744.35c.41,3.65.82,7.29,1.2,10.92l-1.93.19-1.25.12c-8.46.86-19.35,3.13-30.88,5.14l-1.93.33a138.11,138.11,0,0,1-3.3-14.73l1.94-.14c9.89-.73,19.72-1.42,29.32-1.57,1.43,0,3.08-.08,4.89-.16Z"/><path class="cls-3" d="M580.49,716.5q.69,5.91,1.38,11.86c-.65.07-1.29.15-1.94.21-11.43,1.23-22.9,2.24-34.29,2.89l-1.95.11q-.59-6.51-.82-13.18l1.94-.14c11.24-.79,22.51-1.27,33.72-1.68Z"/><path class="cls-3" d="M576.14,679.08q.81,7,1.63,14.09l-1.93.29q-15.57,2.35-31.2,4.31l-1.95.24c.08-5.08.25-10.18.47-15.24.65-.1,1.31-.18,2-.27,9.67-1.3,19.36-2.43,29.08-3.27C574.85,679.18,575.49,679.12,576.14,679.08Z"/><path class="cls-3" d="M573.07,650.9q.36,3.58.75,7.14l-1.93.25c-8.52,1-17.06,1.91-25.61,2.69h0l-1.95.17c.08-1.36.16-2.73.25-4.09.06-1.06.13-2.12.19-3.17l2-.23q10.88-1.32,21.85-2.28l2.54-.25C571.76,651.06,572.41,651,573.07,650.9Z"/><path class="cls-3" d="M569.47,613q.64,7.72,1.36,15.45l-1.93.23c-6.92.79-14,1.33-20.95,1.72l-2,.11c.08-2.22.16-4.4.21-6.56q.1-4.64.09-9.36l2-.2c6.4-.62,12.82-1.08,19.27-1.33Z"/><path class="cls-3" d="M567.09,578.8q.36,6.35.77,12.68l-1.92.39q-9,1.83-18,3.31l-1.94.32c-.14-4.83-.32-9.75-.51-14.75l1.94-.25c5.84-.71,11.83-1.28,17.74-1.6Z"/><path class="cls-3" d="M565.89,547.35q.15,7.2.42,14.39l-1.95.23c-6,.67-12.13,1.17-17.55,1.53l-1.94.12q-.21-6.33-.31-12.65l2-.4c5.61-1.13,11.63-2.22,17.43-3Z"/><path class="cls-3" d="M565.86,516.61q-.12,6.06-.14,12.16l-1.94,0c-5.77-.16-11.83-.57-17.14-1l-1.94-.17c.13-4.11.32-8.19.61-12.25.66,0,1.31,0,2,0a152.76,152.76,0,0,1,16.65,1.07Z"/><path class="cls-3" d="M567.94,476.76q-.9,10.37-1.4,20.8l-2,.33c-5.33.85-10.88,1.38-15.69,1.7l-2,.12A178.7,178.7,0,0,1,551.62,476h2c4,0,8.24.2,12.36.59Z"/><path class="cls-3" d="M468.19,471.32c-.27.62-.51,1.25-.75,1.9-.64,1.69-1.2,3.44-1.73,5.22-.21.73-.42,1.47-.62,2.21-1.52-1.68-3-3.34-4.4-5,.26-.69.53-1.38.8-2.06.53-1.37,1.05-2.73,1.57-4.09.24-.65.49-1.29.72-1.93Z"/><path class="cls-3" d="M488.13,487.76c-.22.66-.43,1.32-.65,2-1,3-1.94,5.93-2.94,8.89-.24.69-.47,1.38-.72,2.07-3.38-3.54-6.72-7-9.93-10.46.24-.69.5-1.37.75-2.05.85-2.29,1.71-4.59,2.55-6.89l.69-1.93Q483,483.59,488.13,487.76Z"/><path class="cls-3" d="M507,504.74c-.07.24-.13.48-.2.74-.87,3.11-2.28,7.41-4.11,12.08-.25.66-.51,1.33-.78,2-4.05-4.27-8.18-8.57-12.28-12.84l-.13-.13.78-2c1.25-3.17,2.52-6.34,3.72-9.55.25-.64.49-1.27.72-1.92l1.64,1.34,10,8.11h0Z"/><path class="cls-3" d="M610.5,523.75q-3.3,4.66-6.54,9.34c-.25-.77-.5-1.55-.76-2.33-1.4-4.45-2.63-9-3.79-13.26-.21-.77-.42-1.54-.62-2.29q2.9-3.5,5.79-7c.28.67.56,1.35.83,2,1.52,3.75,3,7.47,4.31,11.21C610,522.25,610.25,523,610.5,523.75Z"/><path class="cls-3" d="M635.4,489.12c-3.24,4.52-6.5,9-9.73,13.5l-.86,1.19c-.25-.77-.49-1.54-.73-2.32-1-3.27-1.93-6.59-2.9-9.83-.22-.74-.44-1.47-.67-2.21,3.48-4.08,7-8.11,10.43-12.12.28.67.55,1.35.82,2,1,2.45,2,5,2.86,7.5C634.88,487.61,635.15,488.37,635.4,489.12Z"/><path class="cls-3" d="M647.82,471.51c-3.29,4.78-6.67,9.55-10.07,14.32-.3-.7-.59-1.42-.87-2.14-.93-2.38-1.76-4.87-2.49-7.37-.22-.74-.43-1.49-.63-2.24q5.82-6.69,11.53-13.2c.2.75.4,1.51.59,2.27.5,1.9,1,3.82,1.38,5.73C647.46,469.76,647.64,470.64,647.82,471.51Z"/><path class="cls-4" d="M168.13,46.32q5.16,1.73,5.16,6.89,0,62,1.72,123.65T173.29,301.2q-.34,4.83-7.57,7.41a34.93,34.93,0,0,1-16,1.55,32.63,32.63,0,0,1-16.34-6.89q-7.58-5.85-8.26-17.91.67-40.64.69-80.43t-.69-80.42L121,129q-15.15,15.15-26.85,15.15a6.89,6.89,0,0,1,0-13.78q5.85,0,12.56-5.16a86,86,0,0,0,13.43-13.26A192.9,192.9,0,0,0,133.2,94q6.36-9.82,11.87-18.77t9.46-15.85a106.22,106.22,0,0,1,6-9.64,13.11,13.11,0,0,1,3.27-2.93A5.07,5.07,0,0,1,168.13,46.32Z"/><path class="cls-4" d="M282.73,46.32q5.16,1.73,5.16,6.89,0,62,1.72,123.65T287.89,301.2q-.34,4.83-7.57,7.41a34.9,34.9,0,0,1-16,1.55A32.66,32.66,0,0,1,248,303.27q-7.58-5.85-8.26-17.91.69-40.64.69-80.43t-.69-80.42L235.58,129q-15.15,15.15-26.84,15.15a6.89,6.89,0,0,1,0-13.78q5.83,0,12.56-5.16a86,86,0,0,0,13.42-13.26A192.9,192.9,0,0,0,247.8,94q6.36-9.82,11.87-18.77t9.47-15.85a104.46,104.46,0,0,1,6-9.64,13.29,13.29,0,0,1,3.27-2.93A5.07,5.07,0,0,1,282.73,46.32Z"/><path class="cls-2" d="M386,27.88V29a2.29,2.29,0,0,0,4.57,0V27.91a2.29,2.29,0,1,0-4.57,0Z"/><path class="cls-2" d="M561.05,27.27h1.15a2.29,2.29,0,1,0,0-4.58h-1.16a2.29,2.29,0,0,0,0,4.58Z"/><path class="cls-2" d="M178,34.07v1.15a2.29,2.29,0,1,0,4.57,0V34.1a2.29,2.29,0,1,0-4.57,0Z"/><path class="cls-2" d="M289.82,52.48V53a2.29,2.29,0,1,0,4.57,0v-.51a2.29,2.29,0,1,0-4.57,0V53a2.29,2.29,0,1,0,4.57,0v-.51a2.29,2.29,0,1,0-4.57,0Z"/><path class="cls-2" d="M144.7,89.56a2.29,2.29,0,1,0-2.27-2.31,2.3,2.3,0,0,0,2.27,2.31Z"/><path class="cls-2" d="M93.81,86.51a2.29,2.29,0,1,0-2.27-2.31,2.32,2.32,0,0,0,2.27,2.31Z"/><path class="cls-2" d="M91.67,116.17v1.15a2.29,2.29,0,1,0,4.57,0V116.2a2.29,2.29,0,1,0-4.57,0Z"/><path class="cls-2" d="M69,45.66v1.16a4.23,4.23,0,1,0,8.45.06V45.72A4.23,4.23,0,1,0,69,45.66Z"/><path class="cls-2" d="M58.19,280.65a4.23,4.23,0,1,0-4.2-4.26,4.27,4.27,0,0,0,4.2,4.26Z"/><path class="cls-2" d="M135.49,138.9a4.23,4.23,0,1,0-4.19-4.26,4.26,4.26,0,0,0,4.19,4.26Z"/><path class="cls-2" d="M59.06,120.79v1.15a2.57,2.57,0,1,0,5.13,0v-1.16a2.57,2.57,0,1,0-5.13,0Z"/><path class="cls-2" d="M64.69,157.16a1.18,1.18,0,0,0,0-2.36,1.18,1.18,0,0,0,0,2.36Z"/><path class="cls-2" d="M54.69,148.35h1.16a1,1,0,0,0,0-1.94H54.71a1,1,0,0,0-1,1,1,1,0,0,0,1,1Z"/><path class="cls-2" d="M94.14,51.46a5.34,5.34,0,0,0,.23,2,2,2,0,0,0,1.89,1.3c1.25,0,1.26-1.89,0-1.94-.13,0-.16,0-.09,0s-.11-.1,0,0,0,.07,0,0c.09.16,0-.1,0-.13a4.9,4.9,0,0,1-.07-1.18,1,1,0,0,0-1.94,0Z"/><path class="cls-2" d="M114.73,116a1,1,0,0,0,0-1.94,1,1,0,0,0,0,1.94Z"/><path class="cls-2" d="M167.48,60.51a1,1,0,0,0,0-1.94,1,1,0,0,0,0,1.94Z"/><path class="cls-2" d="M466.76,130.84l-.21,0-1.75.37a1,1,0,0,0,.27.63l1.16,1.16a1,1,0,0,0,1.36-1.38C467.32,131.39,467,131.12,466.76,130.84Z"/><path class="cls-2" d="M197.85,69.77c.12-.63.24-1.25.38-1.88a1.28,1.28,0,0,0-.35-.06A1,1,0,0,0,197.85,69.77Z"/><path class="cls-2" d="M293.13,78.44a1,1,0,0,0,0-2,1,1,0,0,0,0,2Z"/><path class="cls-2" d="M102.47,165.36a1,1,0,0,0,0-1.94,1,1,0,0,0,0,1.94Z"/><path class="cls-2" d="M178.43,105.87,177.27,107a1,1,0,0,0,1.38,1.36l1.16-1.15a1,1,0,0,0,0-1.38,1,1,0,0,0-1.37,0Z"/><path class="cls-2" d="M582.36,201.92H581.2a2.29,2.29,0,0,1,0-4.57h1.15a2.29,2.29,0,1,1,0,4.57Z"/><path class="cls-2" d="M341.58,216.42a2.29,2.29,0,1,1,2.27-2.3,2.3,2.3,0,0,1-2.27,2.3Z"/><path class="cls-2" d="M271.09,202.8a2.29,2.29,0,1,1,2.27-2.31,2.32,2.32,0,0,1-2.27,2.31Z"/><path class="cls-2" d="M119.45,217.62h-1.16a2.29,2.29,0,0,1,0-4.58h1.15a2.29,2.29,0,0,1,0,4.58Z"/><path class="cls-2" d="M77.78,197.91v1.15a2.29,2.29,0,1,1-4.58,0v-1.15a2.29,2.29,0,1,1,4.58,0Z"/><path class="cls-2" d="M52.83,248.8V250a2.29,2.29,0,1,1-4.57,0v-1.15a2.29,2.29,0,1,1,4.57,0Z"/><path class="cls-2" d="M77.12,229.15a2.29,2.29,0,1,1,2.27-2.3,2.32,2.32,0,0,1-2.27,2.3Z"/><path class="cls-2" d="M170.12,181.63a2.29,2.29,0,1,1,2.27-2.31,2.31,2.31,0,0,1-2.27,2.31Z"/><path class="cls-2" d="M506.47,355.61a4.23,4.23,0,1,1,4.2-4.26,4.27,4.27,0,0,1-4.2,4.26Z"/><path class="cls-2" d="M390.41,177.73a.9.9,0,0,0-.21.61,4.9,4.9,0,0,1-.07,1.18l-.05.13s0,0,0,0H390c-1.25.05-1.24,2,0,1.94a2,2,0,0,0,1.89-1.3,2.81,2.81,0,0,0,.18-.76C391.51,179,391,178.37,390.41,177.73Zm-.33,1.94Zm0,0h0S390.15,179.67,390.09,179.67Z"/><path class="cls-2" d="M318.8,187.37a1,1,0,0,1,0-1.94,1,1,0,0,1,0,1.94Z"/><path class="cls-2" d="M170.64,252.68a1,1,0,0,1,0-1.94,1,1,0,0,1,0,1.94Z"/><path class="cls-2" d="M197.19,211.09v-1.16a1,1,0,1,1,1.94,0v1.15a1,1,0,0,1-1,1,1,1,0,0,1-1-1Z"/><path class="cls-2" d="M139.46,231.3a1,1,0,0,1,0-1.94,1,1,0,0,1,0,1.94Z"/><path class="cls-2" d="M96.74,222.06a1,1,0,0,1,0-1.94,1,1,0,0,1,0,1.94Z"/><path class="cls-2" d="M122,251.13a2.32,2.32,0,0,1-.43,1.7,2.2,2.2,0,0,1-1.69.43,1,1,0,1,1,0-1.94c.2,0,.4,0,.61,0s-.26.07,0,0-.25.12-.14.06-.21.18-.12.09-.16.24-.1.13-.1.28-.06.14a.29.29,0,0,0,0-.09c0-.15,0,.29,0,.12s0-.41,0-.61a1,1,0,1,1,1.94,0Z"/><path class="cls-2" d="M80.64,282.84a1,1,0,0,1,0-1.94,1,1,0,0,1,0,1.94Z"/><path class="cls-2" d="M350.87,337,352,338.2a1,1,0,0,1-1.38,1.36l-1.15-1.15a1,1,0,1,1,1.38-1.37Z"/><path class="cls-2" d="M157.3,334.2a2.22,2.22,0,0,0-.37,1.22,2.3,2.3,0,0,0,2.27,2.31,2.33,2.33,0,0,0,2.27-1.9C160.06,335.35,158.67,334.81,157.3,334.2Z"/><path class="cls-2" d="M108.31,334.68a2.29,2.29,0,1,0-2.27-2.31,2.31,2.31,0,0,0,2.27,2.31Z"/><path class="cls-2" d="M106.17,364.34v1.15a2.29,2.29,0,1,0,4.57,0v-1.16a2.29,2.29,0,1,0-4.57,0Z"/><path class="cls-2" d="M448,370.11v1.16a2.29,2.29,0,1,0,4.57,0v-1.15a2.29,2.29,0,1,0-4.57,0Z"/><path class="cls-2" d="M423.66,350.46a2.29,2.29,0,1,0-2.27-2.3,2.31,2.31,0,0,0,2.27,2.3Z"/><path class="cls-2" d="M269.84,358.48a2.29,2.29,0,1,0-2.27-2.31,2.32,2.32,0,0,0,2.27,2.31Z"/><path class="cls-2" d="M180.85,399.78v1.16a4.23,4.23,0,1,0,8.45.06v-1.16a4.23,4.23,0,1,0-8.45-.06Z"/><path class="cls-2" d="M405.17,384.76a4.23,4.23,0,1,0-4.2-4.26,4.28,4.28,0,0,0,4.2,4.26Z"/><path class="cls-2" d="M104.92,413.74a4.23,4.23,0,1,0-4.2-4.26,4.27,4.27,0,0,0,4.2,4.26Z"/><path class="cls-2" d="M150,387.07a4.23,4.23,0,1,0-4.19-4.26,4.28,4.28,0,0,0,4.19,4.26Z"/><path class="cls-2" d="M56.15,379.64v1.16a2.57,2.57,0,1,0,5.13,0v-1.15a2.57,2.57,0,1,0-5.13,0Z"/><path class="cls-2" d="M79.19,405.33a1.18,1.18,0,0,0,0-2.36,1.18,1.18,0,0,0,0,2.36Z"/><path class="cls-2" d="M69.19,396.52h1.15a1,1,0,1,0,0-1.94H69.2a1,1,0,0,0,0,1.94Z"/><path class="cls-2" d="M108.64,299.63a5.34,5.34,0,0,0,.23,2,2,2,0,0,0,1.89,1.3c1.25.05,1.26-1.89,0-1.94-.13,0-.16,0-.09,0s-.11-.1,0,0,.06.07,0,0c.09.16,0-.1,0-.13a4.9,4.9,0,0,1-.07-1.18,1,1,0,0,0-1.94,0Z"/><path class="cls-2" d="M129.23,364.17a1,1,0,0,0,0-1.94,1,1,0,0,0,0,1.94Z"/><path class="cls-2" d="M202.84,359.43l1.16,1.16a1,1,0,1,0,1.36-1.38l-1.15-1.16a1,1,0,1,0-1.37,1.38Z"/><path class="cls-2" d="M330.14,374a1,1,0,0,0,0-1.94,1,1,0,0,0,0,1.94Z"/><path class="cls-2" d="M303.59,332.4v-1.16a1,1,0,1,0-1.94,0v1.15a1,1,0,1,0,1.94,0Z"/><path class="cls-2" d="M361.32,352.61a1,1,0,0,0,0-1.94,1,1,0,0,0,0,1.94Z"/><path class="cls-2" d="M378.83,372.43a2.33,2.33,0,0,0,.43,1.71,2.19,2.19,0,0,0,1.69.43,1,1,0,0,0,0-1.94c-.2,0-.41,0-.61,0s.26.07,0,0,.25.12.13.06.22.18.13.09.16.24.09.13.11.28.07.14a.29.29,0,0,1,0-.09c0-.15,0,.29,0,.12s0-.41,0-.61a1,1,0,0,0-1.94,0Z"/><path class="cls-2" d="M479.57,380.07l1.16,1.15a1,1,0,1,0,1.36-1.38l-1.15-1.15a1,1,0,1,0-1.37,1.38Z"/><path class="cls-2" d="M473.22,337.28a1,1,0,0,0,0-1.94,1,1,0,0,0,0,1.94Z"/><path class="cls-2" d="M420.13,404.15a1,1,0,0,0,0-1.94,1,1,0,0,0,0,1.94Z"/><path class="cls-2" d="M216.77,411.45a1,1,0,0,0,0-1.94,1,1,0,0,0,0,1.94Z"/><path class="cls-2" d="M235.66,378.24a1,1,0,0,0,0-1.94,1,1,0,0,0,0,1.94Z"/><path class="cls-2" d="M130.39,437a1,1,0,0,0,0-1.94,1,1,0,0,0,0,1.94Z"/><path class="cls-2" d="M81.89,447.37a1,1,0,0,0,0-1.94,1,1,0,0,0,0,1.94Z"/><path class="cls-2" d="M149.91,458.35l-1.15,1.16a1,1,0,1,0,1.37,1.36l1.16-1.15a1,1,0,1,0-1.38-1.37Z"/><path class="cls-2" d="M498.39,427.32v1.15a2.29,2.29,0,0,1-4.58,0v-1.16a2.29,2.29,0,1,1,4.58,0Z"/><path class="cls-2" d="M323.11,514.83H322a2.29,2.29,0,0,1,0-4.58h1.16a2.29,2.29,0,0,1,0,4.58Z"/><path class="cls-2" d="M289.46,391.16v1.16a2.29,2.29,0,0,1-4.58,0V391.2a2.29,2.29,0,0,1,4.58,0Z"/><path class="cls-2" d="M254.88,388.86v.51a2.29,2.29,0,1,1-4.58,0v-.51a2.29,2.29,0,0,1,4.58,0v.51a2.29,2.29,0,1,1-4.58,0v-.51a2.29,2.29,0,0,1,4.58,0Z"/><path class="cls-2" d="M373.48,464.53a2.29,2.29,0,1,1,2.27-2.3,2.32,2.32,0,0,1-2.27,2.3Z"/><path class="cls-2" d="M407,461.54a2.29,2.29,0,1,1,2.27-2.31,2.3,2.3,0,0,1-2.27,2.31Z"/><path class="cls-2" d="M409.11,491.2v1.15a2.29,2.29,0,1,1-4.58,0v-1.16a2.29,2.29,0,0,1,4.58,0Z"/><path class="cls-2" d="M270.68,460.94v1.16a2.29,2.29,0,1,1-4.57,0V461a2.29,2.29,0,1,1,4.57,0Z"/><path class="cls-2" d="M134,465.79h-1.16a2.29,2.29,0,0,1,0-4.58h1.15a2.29,2.29,0,0,1,0,4.58Z"/><path class="cls-2" d="M92.28,446.08v1.15a2.29,2.29,0,1,1-4.58,0v-1.16a2.29,2.29,0,1,1,4.58,0Z"/><path class="cls-2" d="M67.33,497v1.15a2.29,2.29,0,1,1-4.57,0V497a2.29,2.29,0,1,1,4.57,0Z"/><path class="cls-2" d="M91.62,477.33A2.29,2.29,0,1,1,93.89,475a2.32,2.32,0,0,1-2.27,2.31Z"/><path class="cls-2" d="M431.83,420.69v1.16a4.23,4.23,0,1,1-8.45.06v-1.15a4.23,4.23,0,1,1,8.45-.07Z"/><path class="cls-2" d="M330.28,421a4.23,4.23,0,1,1,4.2-4.26,4.28,4.28,0,0,1-4.2,4.26Z"/><path class="cls-2" d="M110.1,511.62a4.23,4.23,0,1,1,4.2-4.26,4.26,4.26,0,0,1-4.2,4.26Z"/><path class="cls-2" d="M287.45,483.11a4.23,4.23,0,1,1,4.2-4.26,4.27,4.27,0,0,1-4.2,4.26Z"/><path class="cls-2" d="M352.29,395.57a5.28,5.28,0,0,1-.23,2,2,2,0,0,1-1.89,1.31c-1.25.05-1.26-1.9,0-1.94.13,0,.16,0,.09,0s.11-.11,0,0-.05.08,0,0c-.09.16,0-.11,0-.14a4.9,4.9,0,0,0,.07-1.18,1,1,0,0,1,1.94,0Z"/><path class="cls-2" d="M456,450.3l-1.16,1.16a1,1,0,0,1-1.36-1.38l1.15-1.16a1,1,0,0,1,1.38,0,1,1,0,0,1,0,1.37Z"/><path class="cls-2" d="M333.3,435.54a1,1,0,0,1,0-1.94,1,1,0,0,1,0,1.94Z"/><path class="cls-2" d="M211.68,459.26V458.1a1,1,0,1,1,1.94,0v1.15a1,1,0,1,1-1.94,0Z"/><path class="cls-2" d="M174.51,482.51a1,1,0,0,1,0-1.94,1,1,0,0,1,0,1.94Z"/><path class="cls-2" d="M111.24,470.23a1,1,0,0,1,0-1.94,1,1,0,0,1,0,1.94Z"/><path class="cls-2" d="M136.45,499.3A2.27,2.27,0,0,1,136,501a2.18,2.18,0,0,1-1.68.43,1,1,0,1,1,0-1.94h.62c.22,0-.26.06,0,0s-.26.12-.14.06-.21.18-.12.09-.17.24-.1.13-.1.28-.06.14,0-.06,0-.08,0,.28,0,.11,0-.41,0-.61a1,1,0,1,1,1.94,0Z"/><path class="cls-2" d="M51.2,471.2a1,1,0,0,1,0-1.94,1,1,0,0,1,0,1.94Z"/><path class="cls-2" d="M95.14,531a1,1,0,0,1,0-1.94,1,1,0,0,1,0,1.94Z"/><path class="cls-2" d="M298.51,538.31a1,1,0,0,1,0-1.94,1,1,0,0,1,0,1.94Z"/><path class="cls-2" d="M279.61,505.1a1,1,0,0,1,0-1.94,1,1,0,0,1,0,1.94Z"/><path class="cls-2" d="M302.91,444.81a1,1,0,0,1,0-1.94,1,1,0,0,1,0,1.94Z"/><path class="cls-2" d="M291.75,595.89l-1.15.07a2.29,2.29,0,0,0,.25,4.57l1.15-.07a2.29,2.29,0,1,0-.25-4.57Z"/><path class="cls-2" d="M381.1,416.19a4.23,4.23,0,1,0,4-4.46,4.27,4.27,0,0,0-4,4.46Z"/><path class="cls-2" d="M173.24,801.85a4.23,4.23,0,1,0,4-4.46,4.27,4.27,0,0,0-4,4.46Z"/><path class="cls-2" d="M285.13,563.61l-1.16.07a2.56,2.56,0,1,0,.28,5.12l1.16-.07a2.56,2.56,0,0,0-.28-5.12Z"/><path class="cls-2" d="M257.36,561l.07,1.15a1,1,0,0,0,1,.91,1,1,0,0,0,.91-1l-.07-1.15a1,1,0,1,0-1.94.11Z"/><path class="cls-2" d="M295.27,655.3a1,1,0,0,0,1.93-.1,1,1,0,0,0-1.93.1Z"/><path class="cls-2" d="M329.63,546.52l-1.08,1.23A1,1,0,1,0,330,549l1.08-1.22a1,1,0,0,0-1.46-1.28Z"/><path class="cls-2" d="M137.7,591.77a1,1,0,0,1,1.93-.13,1,1,0,0,1-1.93.13Z"/><path class="cls-2" d="M108.93,548.08l-1.15.08a4.23,4.23,0,1,0,.46,8.44l1.15-.07a4.23,4.23,0,0,0-.46-8.45Z"/><path class="cls-2" d="M83,576.36,82,577.58a1,1,0,1,0,1.46,1.28l1.08-1.22A1,1,0,0,0,83,576.36Z"/><path class="cls-2" d="M494.22,15.16v1.16a2.29,2.29,0,0,0,4.57,0V15.19a2.29,2.29,0,1,0-4.57,0Z"/><path class="cls-2" d="M501.8,179.75a1,1,0,0,0,0-1.94,1,1,0,0,0,0,1.94Z"/><path class="cls-2" d="M553.1,216.2v1.15a2.29,2.29,0,0,1-4.58,0v-1.16a2.29,2.29,0,0,1,4.58,0Z"/><path class="cls-2" d="M569.61,335.16a2.26,2.26,0,0,0,1.57.65,2.31,2.31,0,0,0,2.31-2.27V333a1.94,1.94,0,0,0,0-.24Q571.5,333.9,569.61,335.16Z"/><path class="cls-2" d="M458.72,354.2a2.29,2.29,0,1,0-2.27-2.3,2.32,2.32,0,0,0,2.27,2.3Z"/><path class="cls-2" d="M544.12,350.56v1.15a2.29,2.29,0,1,0,4.57,0v-1.16a2.29,2.29,0,1,0-4.57,0Z"/><path class="cls-2" d="M449.52,403.55a4.23,4.23,0,1,0-4.2-4.26,4.27,4.27,0,0,0,4.2,4.26Z"/><path class="cls-2" d="M516.29,427.92a1,1,0,0,0,0-1.94,1,1,0,0,0,0,1.94Z"/><path class="cls-2" d="M535.19,394.72a1,1,0,0,0,0-1.94,1,1,0,0,0,0,1.94Z"/><path class="cls-2" d="M511.89,334.42a1,1,0,0,0,0-1.94,1,1,0,0,0,0,1.94Z"/><path class="cls-2" d="M618.91,459.67v1.15a2.29,2.29,0,1,1-4.57,0V459.7a2.29,2.29,0,1,1,4.57,0Z"/><path class="cls-2" d="M484.67,493.8a2.29,2.29,0,1,1,2.27-2.31,2.32,2.32,0,0,1-2.27,2.31Z"/><path class="cls-2" d="M484.66,517.33a1,1,0,0,1,0-1.94,1,1,0,0,1,0,1.94Z"/><path class="cls-2" d="M511.21,475.73v-1.15a1,1,0,0,1,1.94,0v1.16a1,1,0,1,1-1.94,0Z"/><path class="cls-2" d="M725.24,553.84a2.29,2.29,0,1,0-2.27-2.3,2.32,2.32,0,0,0,2.27,2.3Z"/><path class="cls-2" d="M649.06,760.16v1.15a2.29,2.29,0,1,0,4.57,0v-1.16a2.29,2.29,0,1,0-4.57,0Z"/><path class="cls-2" d="M691.88,560a4.23,4.23,0,1,0-4.2-4.26,4.26,4.26,0,0,0,4.2,4.26Z"/><path class="cls-2" d="M379,811.14a4.23,4.23,0,1,0-4.2-4.26,4.27,4.27,0,0,0,4.2,4.26Z"/><path class="cls-2" d="M690.5,588.12v1.16a2.57,2.57,0,1,0,5.13,0v-1.15a2.57,2.57,0,1,0-5.13,0Z"/><path class="cls-2" d="M696.13,624.49a1.18,1.18,0,0,0,0-2.36,1.18,1.18,0,0,0,0,2.36Z"/><path class="cls-2" d="M686.13,615.69h1.15a1,1,0,0,0,0-1.94h-1.16a1,1,0,1,0,0,1.94Z"/><path class="cls-2" d="M746.17,583.33a1,1,0,0,0,0-1.94,1,1,0,0,0,0,1.94Z"/><path class="cls-2" d="M747.32,656.13a1,1,0,0,0,0-1.94,1,1,0,0,0,0,1.94Z"/><path class="cls-2" d="M698.83,666.53a1,1,0,0,0,0-1.94,1,1,0,0,0,0,1.94Z"/><path class="cls-2" d="M766.85,677.51l-1.16,1.16a1,1,0,1,0,1.38,1.36l1.16-1.15a1,1,0,0,0-1.38-1.37Z"/><path class="cls-2" d="M750.88,685h-1.15a2.29,2.29,0,1,1,0-4.57h1.15a2.29,2.29,0,0,1,0,4.57Z"/><path class="cls-2" d="M709.21,665.24v1.15a2.29,2.29,0,1,1-4.57,0v-1.16a2.29,2.29,0,1,1,4.57,0Z"/><path class="cls-2" d="M684.27,716.14v1.15a2.29,2.29,0,0,1-4.58,0v-1.16a2.29,2.29,0,0,1,4.58,0Z"/><path class="cls-2" d="M708.55,696.49a2.29,2.29,0,1,1,2.27-2.31,2.31,2.31,0,0,1-2.27,2.31Z"/><path class="cls-2" d="M744.41,807.92a4.23,4.23,0,1,1,4.2-4.26,4.28,4.28,0,0,1-4.2,4.26Z"/><path class="cls-2" d="M728.17,689.39a1,1,0,0,1,0-1.94,1,1,0,0,1,0,1.94Z"/><path class="cls-2" d="M753.38,718.46a2.35,2.35,0,0,1-.43,1.71,2.21,2.21,0,0,1-1.68.42,1,1,0,0,1,0-1.94h.61c.23,0-.26.06,0,0s-.25.12-.13.06-.22.18-.12.1-.17.24-.1.12-.11.28-.06.15,0-.06,0-.09,0,.28,0,.12,0-.41,0-.62a1,1,0,0,1,1.94,0Z"/><path class="cls-2" d="M652.64,726.09l-1.15,1.16a1,1,0,1,1-1.37-1.39l1.16-1.15a1,1,0,0,1,1.36,1.38Z"/><path class="cls-2" d="M668.14,690.36a1,1,0,0,1,0-1.94,1,1,0,0,1,0,1.94Z"/><path class="cls-2" d="M712.08,750.17a1,1,0,0,1,0-1.94,1,1,0,0,1,0,1.94Z"/><path class="cls-2" d="M744.79,53.77v-.05l.06,0A.11.11,0,0,1,744.79,53.77Z"/><path class="cls-2" d="M658.38,65.67h1.15a2.29,2.29,0,0,0,0-4.58h-1.15a2.29,2.29,0,0,0,0,4.58Z"/><path class="cls-2" d="M700.05,46v1.16a2.29,2.29,0,0,0,4.57,0V46a2.29,2.29,0,0,0-4.57,0Z"/><path class="cls-2" d="M725,96.85V98a2.29,2.29,0,1,0,4.58,0V96.88a2.29,2.29,0,0,0-4.58,0Z"/><path class="cls-2" d="M700.71,77.2a2.29,2.29,0,1,0-2.27-2.31,2.31,2.31,0,0,0,2.27,2.31Z"/><path class="cls-2" d="M682.22,111.5a4.23,4.23,0,1,0-4.2-4.26,4.27,4.27,0,0,0,4.2,4.26Z"/><path class="cls-2" d="M638.36,79.35a1,1,0,0,0,0-1.94,1,1,0,0,0,0,1.94Z"/><path class="cls-2" d="M655.4,21.19a1,1,0,0,0,0-1.94,1,1,0,0,0,0,1.94Z"/><path class="cls-2" d="M655.88,99.17a2.35,2.35,0,0,0,.43,1.71,2.21,2.21,0,0,0,1.68.42,1,1,0,1,0,0-1.94h-.61c-.23,0,.25.06,0,0s.25.11.13.05.22.19.12.1.17.24.1.12.11.28.06.15,0-.06,0-.09,0,.28,0,.12,0-.41,0-.62a1,1,0,0,0-1.94,0Z"/><path class="cls-2" d="M310,30.82,311.15,32a1,1,0,1,0,1.37-1.38l-1.16-1.15a1,1,0,0,0-1.37,0,1,1,0,0,0,0,1.38Z"/><path class="cls-2" d="M741.12,71.07a1,1,0,0,0,0-1.94,1,1,0,0,0,0,1.94Z"/><path class="cls-2" d="M697.18,130.88a1,1,0,0,0,0-1.94,1,1,0,0,0,0,1.94Z"/><path class="cls-2" d="M598.21,39.39v1.16a2.29,2.29,0,0,1-4.57,0V39.42a2.29,2.29,0,1,1,4.57,0Z"/><path class="cls-2" d="M633.37,150.54h-1.15a2.29,2.29,0,0,1,0-4.58h1.15a2.29,2.29,0,0,1,0,4.58Z"/><path class="cls-2" d="M630.51,178.28a2.29,2.29,0,1,1,2.27-2.31,2.31,2.31,0,0,1-2.27,2.31Z"/><path class="cls-2" d="M681.4,175.22a2.29,2.29,0,1,1,2.27-2.3,2.31,2.31,0,0,1-2.27,2.3Z"/><path class="cls-2" d="M683.54,204.88V206a2.29,2.29,0,1,1-4.57,0v-1.15a2.29,2.29,0,1,1,4.57,0Z"/><path class="cls-2" d="M706.26,134.38v1.15a4.23,4.23,0,1,1-8.45.07v-1.16a4.23,4.23,0,1,1,8.45-.06Z"/><path class="cls-2" d="M714.77,181.4a4.24,4.24,0,1,1,4.2-4.27,4.28,4.28,0,0,1-4.2,4.27Z"/><path class="cls-2" d="M639.72,227.62a4.12,4.12,0,0,0,1.27-.21c.68-.53,1.37-1,2.06-1.5a4.19,4.19,0,0,0,.86-2.55,4.23,4.23,0,1,0-4.19,4.26Z"/><path class="cls-2" d="M716.15,209.5v1.16a2.57,2.57,0,1,1-5.13,0v-1.15a2.57,2.57,0,1,1,5.13,0Z"/><path class="cls-2" d="M710.52,245.87a1.18,1.18,0,0,1,0-2.35,1.18,1.18,0,0,1,0,2.35Z"/><path class="cls-2" d="M720.52,237.07h-1.16a1,1,0,0,1,0-1.94h1.15a1,1,0,0,1,0,1.94Z"/><path class="cls-2" d="M594.86,19.24a5.28,5.28,0,0,1-.23,2,2,2,0,0,1-1.89,1.3c-1.25.05-1.26-1.89,0-1.94h.09c-.13,0,.11-.11,0,0s0,.07,0,0c-.09.15,0-.11,0-.14a4.9,4.9,0,0,0,.07-1.18,1,1,0,0,1,1.94,0Z"/><path class="cls-2" d="M660.48,204.71a1,1,0,0,1,0-1.94,1,1,0,0,1,0,1.94Z"/><path class="cls-2" d="M730.43,164l-1.15,1.15a1,1,0,1,1-1.37-1.38l1.16-1.15a1,1,0,0,1,1.36,1.38Z"/><path class="cls-2" d="M707.82,287.91a1,1,0,0,1,0-1.94,1,1,0,0,1,0,1.94Z"/><path class="cls-2" d="M714.54,294.12v1.16a2.29,2.29,0,0,0,4.58,0v-1.16a2.29,2.29,0,0,0-4.58,0Z"/><path class="cls-2" d="M739.49,345v1.16a2.29,2.29,0,1,0,4.57,0v-1.16a2.29,2.29,0,0,0-4.57,0Z"/><path class="cls-2" d="M715.2,325.37a2.29,2.29,0,1,0-2.27-2.31,2.32,2.32,0,0,0,2.27,2.31Z"/><path class="cls-2" d="M696.72,359.67a4.23,4.23,0,1,0-4.2-4.26,4.27,4.27,0,0,0,4.2,4.26Z"/><path class="cls-2" d="M621.69,348.9a1,1,0,0,0,0-1.95,1,1,0,0,0,0,1.95Z"/><path class="cls-2" d="M695.58,318.27a1,1,0,0,0,0-1.94,1,1,0,0,0,0,1.94Z"/><path class="cls-2" d="M670.37,347.34a2.31,2.31,0,0,0,.44,1.71,2.2,2.2,0,0,0,1.68.42,1,1,0,1,0,0-1.94h-.61c-.22,0,.26.06,0,0s.26.11.14.05.21.19.12.1.17.24.1.12.1.28.06.15,0-.06,0-.09,0,.28,0,.12,0-.41,0-.61a1,1,0,0,0-1.94,0Z"/><path class="cls-2" d="M755.62,319.25a1,1,0,0,0,0-1.95,1,1,0,0,0,0,1.95Z"/><path class="cls-2" d="M711.68,379.06a1,1,0,0,0,0-1.95,1,1,0,0,0,0,1.95Z"/><path class="cls-2" d="M654.47,381.75v1.15a2.29,2.29,0,0,1-4.58,0v-1.16a2.29,2.29,0,0,1,4.58,0Z"/><path class="cls-2" d="M638.59,400.16h-1.15a2.29,2.29,0,0,1,0-4.58h1.15a2.29,2.29,0,0,1,0,4.58Z"/><path class="cls-2" d="M595.37,355.27v1.15a2.29,2.29,0,1,1-4.57,0V355.3a2.29,2.29,0,1,1,4.57,0Z"/><path class="cls-2" d="M576.31,379.14v.51a2.29,2.29,0,0,1-4.58,0v-.51a2.29,2.29,0,1,1,4.58,0v.51a2.29,2.29,0,0,1-4.58,0v-.51a2.29,2.29,0,1,1,4.58,0Z"/><path class="cls-2" d="M647.62,439.5a2.29,2.29,0,1,1,2.27-2.31,2.31,2.31,0,0,1-2.27,2.31Z"/><path class="cls-2" d="M698.51,436.45a2.29,2.29,0,1,1,2.27-2.31,2.32,2.32,0,0,1-2.27,2.31Z"/><path class="cls-2" d="M700.65,466.1v1.16a2.29,2.29,0,0,1-4.57,0v-1.15a2.29,2.29,0,1,1,4.57,0Z"/><path class="cls-2" d="M723.38,395.6v1.16a4.23,4.23,0,0,1-8.46.06v-1.16a4.23,4.23,0,1,1,8.46-.06Z"/><path class="cls-2" d="M731.88,442.62a4.23,4.23,0,1,1,4.2-4.26,4.28,4.28,0,0,1-4.2,4.26Z"/><path class="cls-2" d="M701.9,515.51a4.24,4.24,0,1,1,4.2-4.26,4.27,4.27,0,0,1-4.2,4.26Z"/><path class="cls-2" d="M733.26,470.72v1.16a2.57,2.57,0,0,1-5.13,0v-1.16a2.57,2.57,0,0,1,5.13,0Z"/><path class="cls-2" d="M727.63,507.1a1.18,1.18,0,0,1,0-2.36,1.18,1.18,0,0,1,0,2.36Z"/><path class="cls-2" d="M737.63,498.29h-1.15a1,1,0,0,1,0-1.94h1.16a1,1,0,0,1,0,1.94Z"/><path class="cls-2" d="M698.18,401.4a5.34,5.34,0,0,1-.23,2,2,2,0,0,1-1.89,1.3c-1.25.05-1.26-1.89,0-1.94.13,0,.16,0,.09,0s.11-.1,0,0-.06.07,0,0c-.09.16,0-.1,0-.13a4.93,4.93,0,0,0,.07-1.18,1,1,0,0,1,1.94,0Z"/><path class="cls-2" d="M747.54,425.21l-1.15,1.16A1,1,0,0,1,745,425l1.16-1.16a1,1,0,0,1,1.36,1.38Z"/><path class="cls-2" d="M624.85,410.45a1,1,0,0,1,0-1.95,1,1,0,0,1,0,1.95Z"/><path class="cls-2" d="M571.16,480a1,1,0,0,1,0-1.94,1,1,0,0,1,0,1.94Z"/><path class="cls-2" d="M594.45,419.71a1,1,0,0,1,0-1.94,1,1,0,0,1,0,1.94Z"/><path class="cls-2" d="M519.05,514.07a1,1,0,0,0,0-1.94,1,1,0,0,0,0,1.94Z"/><path class="cls-2" d="M508.9,647.67a1.06,1.06,0,0,0-.37.07l-.56.72a.94.94,0,0,0,.92,1.15A1,1,0,0,0,508.9,647.67Z"/><path class="cls-2" d="M460.39,660a1,1,0,0,0,0-1.94,1,1,0,0,0,0,1.94Z"/><path class="cls-2" d="M537.84,627.74l-1.16,1.16a1,1,0,1,0,1.38,1.36c.39-.38.77-.77,1.15-1.15a1,1,0,1,0-1.37-1.37Z"/><path class="cls-2" d="M512.45,678.43h-1.16a2.29,2.29,0,1,1,0-4.57h1.16a2.29,2.29,0,1,1,0,4.57Z"/><path class="cls-2" d="M470.78,658.72v1.15a2.29,2.29,0,1,1-4.57,0v-1.16a2.29,2.29,0,1,1,4.57,0Z"/><path class="cls-2" d="M445.83,709.62v1.15a2.29,2.29,0,1,1-4.57,0v-1.15a2.29,2.29,0,1,1,4.57,0Z"/><path class="cls-2" d="M470.12,690a2.29,2.29,0,1,1,2.27-2.31,2.31,2.31,0,0,1-2.27,2.31Z"/><path class="cls-2" d="M515.23,403.89a4.23,4.23,0,1,1,4.19-4.26,4.27,4.27,0,0,1-4.19,4.26Z"/><path class="cls-2" d="M489.74,682.87a1,1,0,0,1,0-1.94,1,1,0,0,1,0,1.94Z"/><path class="cls-2" d="M535.54,589.56a2.33,2.33,0,0,1-.43,1.71,2.2,2.2,0,0,1-1.69.43,1,1,0,1,1,0-1.94c.2,0,.41,0,.61,0s-.26.07,0,0-.25.12-.13.06-.22.18-.13.09-.16.24-.1.13-.1.28-.06.14a.29.29,0,0,0,0-.09c0-.15,0,.29,0,.12s0-.41,0-.61a1,1,0,1,1,1.94,0Z"/><path class="cls-2" d="M414.21,719.57l-1.16,1.15a1,1,0,0,1-1.37,0,1,1,0,0,1,0-1.38l1.15-1.15a1,1,0,0,1,1.37,0,1,1,0,0,1,0,1.38Z"/><path class="cls-2" d="M429.71,683.84a1,1,0,0,1,0-1.94,1,1,0,0,1,0,1.94Z"/><path class="cls-2" d="M473.65,743.65a1,1,0,0,1,0-1.94,1,1,0,0,1,0,1.94Z"/><path class="cls-2" d="M124.51,615.24a2.29,2.29,0,1,0-2.27-2.3,2.31,2.31,0,0,0,2.27,2.3Z"/><path class="cls-2" d="M46.66,538.69v1.16a2.29,2.29,0,1,0,4.57,0v-1.16a2.29,2.29,0,0,0-4.57,0Z"/><path class="cls-2" d="M91.14,621.41a4.23,4.23,0,1,0-4.2-4.26,4.28,4.28,0,0,0,4.2,4.26Z"/><path class="cls-2" d="M121.12,694.3a4.23,4.23,0,1,0-4.2-4.26,4.26,4.26,0,0,0,4.2,4.26Z"/><path class="cls-2" d="M89.76,649.52v1.16a2.57,2.57,0,0,0,5.13,0v-1.15a2.57,2.57,0,1,0-5.13,0Z"/><path class="cls-2" d="M95.39,685.89a1.18,1.18,0,0,0,0-2.36,1.18,1.18,0,0,0,0,2.36Z"/><path class="cls-2" d="M85.39,677.09h1.15a1,1,0,0,0,0-1.94H85.4a1,1,0,0,0,0,1.94Z"/><path class="cls-2" d="M145.43,644.73a1,1,0,0,0,0-1.94,1,1,0,0,0,0,1.94Z"/><path class="cls-2" d="M146.59,717.53a1,1,0,0,0,0-1.94,1,1,0,0,0,0,1.94Z"/><path class="cls-2" d="M98.09,727.93a1,1,0,0,0,0-1.94,1,1,0,0,0,0,1.94Z"/><path class="cls-2" d="M166.11,738.91,165,740.07a1,1,0,1,0,1.37,1.37l1.16-1.16a1,1,0,0,0-1.38-1.37Z"/><path class="cls-2" d="M150.15,746.36H149a2.29,2.29,0,0,1,0-4.58h1.15a2.29,2.29,0,1,1,0,4.58Z"/><path class="cls-2" d="M423.44,765.55v1.16a2.29,2.29,0,1,1-4.58,0v-1.15a2.29,2.29,0,1,1,4.58,0Z"/><path class="cls-2" d="M83.53,777.54v1.16a2.29,2.29,0,0,1-4.57,0v-1.16a2.29,2.29,0,1,1,4.57,0Z"/><path class="cls-2" d="M96.13,803.72a2.29,2.29,0,1,1,2.27-2.31,2.32,2.32,0,0,1-2.27,2.31Z"/><path class="cls-2" d="M126.3,792.19a4.23,4.23,0,1,1,4.2-4.26,4.27,4.27,0,0,1-4.2,4.26Z"/><path class="cls-2" d="M127.44,750.79a1,1,0,0,1,0-1.94,1,1,0,0,1,0,1.94Z"/><path class="cls-2" d="M148,808.91a2.31,2.31,0,0,1-.44,1.71,2.21,2.21,0,0,1-1.68.42,1,1,0,1,1,0-1.94h.62c.22,0-.26.06,0,0s-.26.12-.14.06-.21.18-.12.1-.17.23-.1.12-.1.28-.06.15,0-.06,0-.09,0,.28,0,.11,0-.4,0-.61a1,1,0,1,1,1.94,0Z"/><path class="cls-2" d="M51.9,787.49l-1.15,1.16a1,1,0,0,1-1.37-1.38l1.16-1.16a1,1,0,1,1,1.36,1.38Z"/><path class="cls-2" d="M67.4,751.76a1,1,0,0,1,0-1.94,1,1,0,0,1,0,1.94Z"/><path class="cls-2" d="M111.34,811.57a1,1,0,0,1,0-1.94,1,1,0,0,1,0,1.94Z"/><path class="cls-2" d="M391.64,706.35a2.29,2.29,0,1,0,1.8-2.69,2.32,2.32,0,0,0-1.8,2.69Z"/><path class="cls-2" d="M362.19,710.25l-1.14.24A2.29,2.29,0,0,0,362,715l1.13-.24a2.29,2.29,0,0,0-.89-4.49Z"/><path class="cls-2" d="M338.55,763.11a4.23,4.23,0,1,0,3.32-5,4.26,4.26,0,0,0-3.32,5Z"/><path class="cls-2" d="M313.59,719a4.23,4.23,0,1,0,3.32-5,4.27,4.27,0,0,0-3.32,5Z"/><path class="cls-2" d="M351.07,679.23l-1.13.23a2.56,2.56,0,0,0,1,5l1.13-.23a2.56,2.56,0,1,0-1-5Z"/><path class="cls-2" d="M316.62,692.1a1.18,1.18,0,0,0,2.31-.46,1.18,1.18,0,0,0-2.31.46Z"/><path class="cls-2" d="M323.21,680.52c.08.37.16.75.23,1.13a1,1,0,0,0,1.91-.38l-.24-1.13a1,1,0,0,0-1.9.38Z"/><path class="cls-2" d="M367,732.82a1,1,0,0,0,1.91-.38,1,1,0,0,0-1.91.38Z"/><path class="cls-2" d="M296,748.68a1,1,0,0,0,1.9-.38,1,1,0,0,0-1.9.38Z"/><path class="cls-2" d="M276,703.25a1,1,0,0,0,1.91-.38,1,1,0,0,0-1.91.38Z"/><path class="cls-2" d="M279,772.13l-1.36-.89a1,1,0,1,0-1.06,1.62l1.36.9a1,1,0,0,0,1.35-.28,1,1,0,0,0-.29-1.35Z"/><path class="cls-2" d="M268.52,758c-.08-.38-.16-.75-.23-1.13a2.29,2.29,0,1,1,4.47-1c.08.38.16.76.23,1.13a2.29,2.29,0,1,1-4.47,1Z"/><path class="cls-2" d="M279.39,713.16l-1.13.24a2.29,2.29,0,0,1-1-4.48l1.13-.23a2.29,2.29,0,1,1,1,4.47Z"/><path class="cls-2" d="M67.17,690l-1.13.23a2.29,2.29,0,1,1-1-4.47l1.13-.24a2.29,2.29,0,1,1,1,4.48Z"/><path class="cls-2" d="M248.68,718.84a2.29,2.29,0,1,1,2.71,1.75,2.31,2.31,0,0,1-2.71-1.75Z"/><path class="cls-2" d="M218.85,743.89a4.23,4.23,0,1,1,5,3.25,4.28,4.28,0,0,1-5-3.25Z"/><path class="cls-2" d="M259.59,736.63a1,1,0,0,1,1.89-.41,1,1,0,0,1-1.89.41Z"/><path class="cls-2" d="M236.24,767.22a2.33,2.33,0,0,1-1.76-.08c-.53-.32-.64-1-.76-1.57a1,1,0,1,1,1.9-.4,5.63,5.63,0,0,0,.14.59c.06.22-.12-.24,0,0s-.17-.22-.09-.12-.22-.17-.11-.1-.27-.11-.15-.07-.29-.05-.15,0h.09c.16,0-.28,0-.12,0s.4-.07.6-.11a1,1,0,1,1,.41,1.9Z"/><path class="cls-2" d="M246.5,678a1,1,0,0,1,1.89-.41,1,1,0,0,1-1.89.41Z"/><path class="cls-2" d="M196.85,733.15a1,1,0,0,1,1.9-.41,1,1,0,0,1-1.9.41Z"/><path class="cls-2" d="M583.2,668.35a1,1,0,0,0,0-1.94,1,1,0,0,0,0,1.94Z"/><path class="cls-2" d="M651.22,679.34l-1.16,1.15a1,1,0,0,0,1.38,1.37l1.16-1.16a1,1,0,0,0-1.38-1.36Z"/><path class="cls-2" d="M635.25,686.78H634.1a2.29,2.29,0,0,1,0-4.58h1.15a2.29,2.29,0,0,1,0,4.58Z"/><path class="cls-2" d="M593.58,667.06v1.16a2.29,2.29,0,0,1-4.57,0v-1.16a2.29,2.29,0,1,1,4.57,0Z"/><path class="cls-2" d="M680.84,777.12v1.16a2.29,2.29,0,0,1-4.58,0v-1.16a2.29,2.29,0,0,1,4.58,0Z"/><path class="cls-2" d="M592.92,698.31a2.29,2.29,0,1,1,2.27-2.3,2.31,2.31,0,0,1-2.27,2.3Z"/><path class="cls-2" d="M611.41,732.61a4.23,4.23,0,1,1,4.2-4.26,4.27,4.27,0,0,1-4.2,4.26Z"/><path class="cls-2" d="M612.54,691.21a1,1,0,0,1,0-1.94,1,1,0,0,1,0,1.94Z"/><path class="cls-2" d="M637.75,720.28a2.35,2.35,0,0,1-.43,1.71,2.26,2.26,0,0,1-1.68.43,1,1,0,0,1,0-1.95c.21,0,.41,0,.61,0s-.25.06,0,0-.25.11-.13,0-.22.19-.12.1-.17.24-.1.12-.11.28-.06.15,0-.06,0-.09,0,.28,0,.12,0-.41,0-.61a1,1,0,0,1,1-1,1,1,0,0,1,1,1Z"/><path class="cls-2" d="M537,727.91l-1.15,1.16a1,1,0,0,1-1.37-1.38l1.16-1.16a1,1,0,0,1,1.36,1.38Z"/><path class="cls-2" d="M552.51,692.19a1,1,0,0,1,0-2,1,1,0,0,1,0,2Z"/><path class="cls-2" d="M596.45,752a1,1,0,0,1,0-2,1,1,0,0,1,0,2Z"/><path class="cls-2" d="M337.79,39.58a2.29,2.29,0,1,0-2.27-2.31,2.32,2.32,0,0,0,2.27,2.31Z"/><path class="cls-2" d="M225.1,26.18a4.22,4.22,0,0,0-1.82-8,4.29,4.29,0,0,0-4.18,3.41C221.19,23,223.18,24.59,225.1,26.18Z"/><path class="cls-2" d="M351.29,161.88c-.94.38-1.89.72-2.86,1a1.09,1.09,0,0,0,.27.52,1,1,0,0,0,1.37,0l1.16-1.16a.92.92,0,0,0,.24-.43Z"/><path class="cls-2" d="M157.71,173.6a2.27,2.27,0,0,0,1.88,3.6h1.15a2.3,2.3,0,0,0,2.27-2.3,2.26,2.26,0,0,0-.39-1.25A40.3,40.3,0,0,1,157.71,173.6Z"/><path class="cls-2" d="M213.72,809a4.23,4.23,0,1,1,4.2-4.26,4.27,4.27,0,0,1-4.2,4.26Z"/><path class="cls-2" d="M336.38,201.82a2.33,2.33,0,0,1-.43,1.71,2.18,2.18,0,0,1-1.68.43,1,1,0,0,1,0-2c.21,0,.41,0,.61,0s-.26.06,0,0-.25.12-.13.06-.22.18-.12.09-.17.24-.1.13-.11.28-.06.14,0-.06,0-.09,0,.28,0,.12,0-.41,0-.61a1,1,0,0,1,1-1,1,1,0,0,1,1,1Z"/><path class="cls-2" d="M517.71,757.07a2.29,2.29,0,1,0-2.27-2.3,2.31,2.31,0,0,0,2.27,2.3Z"/><path class="cls-2" d="M673.58,498.61v1.15a2.29,2.29,0,1,0,4.58,0v-1.15a2.29,2.29,0,1,0-4.58,0Z"/><path class="cls-2" d="M451,699.48a4.23,4.23,0,1,0-4.19-4.26,4.26,4.26,0,0,0,4.19,4.26Z"/><path class="cls-2" d="M481,772.37a4.23,4.23,0,1,0-4.2-4.26,4.28,4.28,0,0,0,4.2,4.26Z"/><path class="cls-2" d="M379.12,755.88V757a2.56,2.56,0,1,0,5.12,0v-1.15a2.56,2.56,0,1,0-5.12,0Z"/><path class="cls-2" d="M455.24,764a1.18,1.18,0,0,0,0-2.36,1.18,1.18,0,0,0,0,2.36Z"/><path class="cls-2" d="M445.24,755.16h1.16a1,1,0,0,0,0-1.94h-1.15a1,1,0,0,0,0,1.94Z"/><path class="cls-2" d="M505.29,722.8a1,1,0,0,0,0-1.94,1,1,0,0,0,0,1.94Z"/><path class="cls-2" d="M506.44,795.6a1,1,0,0,0,0-1.94,1,1,0,0,0,0,1.94Z"/><path class="cls-2" d="M457.94,806a1,1,0,0,0,0-1.94,1,1,0,0,0,0,1.94Z"/><path class="cls-2" d="M526,817l-1.15,1.16a1,1,0,0,0,1.38,1.37l1.15-1.16a1,1,0,0,0,0-1.37,1,1,0,0,0-1.38,0Z"/><path class="cls-2" d="M510,824.43h-1.16a2.29,2.29,0,0,1,0-4.58H510a2.29,2.29,0,0,1,0,4.58Z"/><path class="cls-2" d="M468.33,804.71v1.16a2.29,2.29,0,0,1-4.57,0v-1.16a2.29,2.29,0,1,1,4.57,0Z"/><path class="cls-2" d="M467.67,836a2.29,2.29,0,1,1,2.27-2.31,2.31,2.31,0,0,1-2.27,2.31Z"/><path class="cls-2" d="M487.29,828.86a1,1,0,0,1,0-1.94,1,1,0,0,1,0,1.94Z"/><path class="cls-2" d="M427.26,829.83a1,1,0,0,1,0-1.94,1,1,0,0,1,0,1.94Z"/></g></g></svg>