<?xml version="1.0" encoding="utf-8"?>
<!-- Generator: Adobe Illustrator 25.0.1, SVG Export Plug-In . SVG Version: 6.00 Build 0)  -->
<svg version="1.1" id="Layer_1" xmlns="http://www.w3.org/2000/svg" xmlns:xlink="http://www.w3.org/1999/xlink" x="0px" y="0px"
	 viewBox="0 0 400 400" style="enable-background:new 0 0 461.2 570.7;" xml:space="preserve">
<style type="text/css">
	.st0{font-family:'Poppins';}
	.st1{font-size:95px;}
	.st2{fill:#5B4993;}
	.st3{fill:#5C91CD;}
	.st4{fill:#B5398A;}
	.st5{fill:#D16C3B;}
	.st6{fill:#6BA943;}
	.st7{fill:#C2081A;}
	.st8{fill:#F9EC3F;}
	.st9{fill:#1D1917;}
	.st10{fill:#D05E68;}
	.st11{fill:#B32329;}
	.st12{fill:#FEFEFE;}
	.st13{fill:#F1F2F1;}
</style>
<g>
	<path class="st2" d="M264.1,245.1c0-33.6,0-67.1,0-100.7c0-2.2,0.5-2.9,2.7-2.8c5,0.2,10.1,0.1,15.1,0c1.7,0,2.2,0.5,2.1,2.2
		c-0.1,2,0,4,0,6c0,65.4,0,130.9,0,196.3c0,2.1-0.5,2.9-2.7,2.8c-4.9-0.2-9.8-0.2-14.6,0c-2.2,0.1-2.6-0.7-2.6-2.7
		c0.1-32.8,0-65.7,0-98.5C264.1,246.9,264.1,246,264.1,245.1z"/>
	<path class="st3" d="M363.6,245.4c0,33.5,0,67,0,100.4c0,3.1,0,3.1-3.1,3.1c-4.6,0-9.3-0.1-13.9,0.1c-2.2,0.1-3-0.4-3-2.8
		c0.1-18.8,0.1-37.6,0.1-56.3c0-48.4,0-96.8-0.1-145.3c0-2.3,0.6-3,2.9-2.9c4.9,0.2,9.8,0.2,14.6,0c2-0.1,2.5,0.6,2.5,2.5
		C363.6,177.9,363.6,211.7,363.6,245.4z"/>
	<path class="st4" d="M204.6,187.1c0,1.1-0.1,2.2-0.1,3.4c0,51.9,0,103.7,0.1,155.6c0,2.5-0.7,3.1-3.1,3c-4.7-0.2-9.4-0.1-14.1,0
		c-2.1,0.1-2.8-0.4-2.8-2.7c0.1-19.7,0.1-39.3,0.1-59c0-30.7,0-61.4,0-92.1c0-1-0.1-2.1-0.1-3.1c3.3-1.7,6.7-3.4,10.4-4.1
		C198,187.4,201.3,187.4,204.6,187.1z"/>
	<path class="st5" d="M303.9,244.7c0-25.2,0-50.3-0.1-75.5c0-2.3,0.7-2.8,2.9-2.8c4.6,0.2,9.3,0.1,13.9,0c3.2,0,3.2,0,3.2,3.1
		c0,18.1,0,36.1,0,54.2c0,32,0,64.1,0,96.1c0,3.1,0,3.1-3.2,3.1c-4.6,0-9.1,0-13.7,0c-3.1,0-3.1,0-3.1-3.2
		C303.9,294.7,303.9,269.7,303.9,244.7L303.9,244.7z"/>
	<path class="st6" d="M244.4,176.4c0,1.1-0.1,2.2-0.1,3.4c0,46.7,0,93.4,0,140.2c0,2.3-0.5,3.1-2.9,3c-4.7-0.2-9.4-0.2-14.1,0
		c-2.5,0.1-2.8-0.8-2.8-3c0.1-32.6,0-65.2,0-97.8c0-13.5,0-27,0-40.5C230.9,179.1,237.6,177.5,244.4,176.4z"/>
	<path class="st7" d="M124.4,348.8c-6.2,0-12.4,0-18.6,0c0-0.5-0.1-1-0.1-1.4c0-47.4,0-94.8,0-142.3c2-0.3,4-0.7,6-0.9
		c4.2-0.5,8.3-1.9,12.6-1.5c0,47.3,0,94.6,0,142C124.4,346.1,124.4,347.5,124.4,348.8z"/>
	<path class="st8" d="M164.7,194.7c0,41.7,0,83.4,0,125.1c0,3.1,0,3.1-3.1,3.2c-4.7,0-9.4-0.1-14.1,0c-2,0.1-2.5-0.6-2.5-2.6
		c0.1-32.5,0-65,0-97.5c0-7.8,0-15.7-0.1-23.5c0.2-0.2,0.3-0.4,0.5-0.5C151.4,195.8,158,195.2,164.7,194.7z"/>
	<path class="st9" d="M164.7,194.7c-6.6,0.5-13.2,1.1-19.3,4.2c-0.2,0.1-0.3,0.3-0.5,0.5c-1.6,0.3-2.9,1.3-4.4,1.9
		c-4,1.8-8.2,1.3-12.3,1.3c-1,0-1.9,0-2.9,0.1c-0.3,0-0.6,0-0.9,0c-4.3-0.5-8.4,1-12.6,1.5c-2,0.2-4,0.6-6,0.9
		c-0.2-0.1-0.5-0.1-0.7-0.2c-4.6-0.6-6.2-4.4-8.4-7.6c-1.5-2.1-2.1-4.5-2.5-7.1c-2.4,0.7-4.1,2.4-5.8,3.9
		c-5.6,4.7-11.2,9.5-15.9,15.2c-1.2,1.5-2.9,2.6-4.5,3.7c-0.9,0.6-1.1,0.9-0.6,1.8c0.6,1.2,1.1,2.4,1.6,3.6
		c2.3,5.4,0.8,10.7-4.4,14.2c-4,2.7-8.1,5.2-12.8,6.7c-5.6,1.7-9.5,0.3-12.1-5c-1.4-2.9-2.8-5.7-4.1-8.6c-1.2-2.7-1.3-5.5,0.3-8.2
		c1.3-2.3,2.1-4.8,2.4-7.3c0.8-6.7,6.9-10.1,11.9-10.5c2-0.2,4.5,1,5.7-0.4c1.1-1.2,0.8-3.6,1.1-5.5c1-7,2-14,3-21
		c0.9-6.3,1.9-12.6,2.8-18.9c0.8-5.9,1.3-11.9,2-17.9c0.7-6.3,1.7-12.5,2.3-18.8c0.5-5.1,1.1-10.2,2-15.2c1.6-9,5-17,12.8-22.5
		c5.3-3.8,11-7,16.6-10.2c9.6-5.5,19.7-10,30-14c15.3-6,31-10.9,47.2-14.2c4.7-1,9.4-1.7,14.2-1.4c6.6,0.3,12.9,1.8,18.4,5.6
		c3.2,2.2,4.9,5.5,6.3,9c2.8,7,4,14.4,6.2,21.5c2.4,7.9,6.2,15.2,10.4,22.2c5.2,8.8,10.7,17.4,13.7,27.2c0,0.2,0.1,0.3,0.1,0.4
		c0.6,5,2.7,8.9,7.4,11.4c2.8,1.5,3.5,4.2,2.2,7.2c-2.1,4.9-0.6,8.3,3.5,11.6c4.9,3.9,4.6,9.5,0.4,14.3c-3.7,4.2-8.9,5.2-14,6.3
		c-6.8,1-13.4,2.7-19.8,5.2c-4.5,1-8.5,3.4-13.1,4.4c-2.3,0.5-4.6,0.7-7,1c-3.3,0.3-6.6,0.4-9.8,0.9c-3.7,0.7-7,2.4-10.4,4.1
		C178,194.1,171.3,194.3,164.7,194.7z M36.1,220.4c-0.8,1-0.4,2-0.1,3c1.2,3.9,3.3,7.4,5.1,11c2,4,4.3,4.7,8.7,3.8
		c6.1-1.2,11.1-4.5,15.8-8.4c3-2.5,4.2-6.6,2.3-9.5c-2-4.4-3.1-9.1-3.9-13.9c-0.3-1.6-1.3-3.2-3-3.6c-3.6-0.9-7.2-1.9-10.9-1.7
		c-4.6,0.3-9.2,3.1-10.1,7.3C38.9,212.6,37.8,216.6,36.1,220.4z M156.6,158.8c-0.8-0.2-1.6-0.3-2.3,0.2c-1.6,0.4-3.4,0.7-4.9,1.4
		c-3.7,1.5-7.5,3-11.5,3.4c-2.8,0.2-5.7,0.3-8.5,0.8c-4.1,0.8-7.8,2.5-11.5,4.2c-4.9,2.3-10.4,3.4-14.8,6.8
		c-0.5,0.4-1.1,0.7-1.5,0.1c-0.4-0.5,0.1-0.9,0.5-1.2c1.5-0.9,1.4-2,0.6-3.4c-0.6-1-0.9-2.1-1.4-3.3c-3,1.9-5.3,4.4-7.3,7.2
		c-0.7,1.1-1,2.1,0.1,3.4c1.7,2.1,2.5,4.6,2.2,7.4c-0.1,1.3-0.9,2.5-0.4,3.9c-0.5,2.5,0.6,4.6,1.8,6.6c3.6,6.3,6.3,7.8,12.1,6.7
		c7-1.4,14-2.4,21.2-1.8c4.7,0.4,9-0.8,13.1-3.2c2-1.1,4.1-2,6.2-2.6c8.2-2.5,16.7-2,25-2.9c3.1-0.4,6.2-0.8,9-2.1
		c5.2-2.5,10.5-4.5,16.4-4.6c6.2,0,12.1-1.3,17.9-3.6c8.7-3.5,17.6-6.2,27-7.5c4.4-0.6,8.7-2,11.9-5.6c2.6-2.9,3.3-6.4,1.8-9.2
		c-0.6-1.8-1.9-3.1-3.3-4.2c-3.6-2.8-4.9-6.1-3.3-10.5c1.8-4.8-0.3-8.3-5.4-9.6c0,1.1-0.3,2.3,0.1,3.3c0.5,1.4-0.4,3.8,2.4,3.9
		c0.1,0,0.4,0.6,0.3,0.8c-0.3,0.8-0.9,0.5-1.4,0.3c-3.5-1.1-6.9-0.6-10.4,0.1c-6.3,1.2-12.5,2.7-19,2.7c-3.9,0-7.8,0.6-11.2,2.8
		c-3.3,2.1-7,2.6-10.8,2.9c-4.5,0.3-9,0.6-13.4,1.8c-6.4,1.7-12.5,4.4-19.2,4.6c-2.2-0.3-4.5-0.4-6.7-0.1
		C157.5,158.7,157.1,158.7,156.6,158.8z M100.8,132.9c0.1-1.5,0-2.3-0.2-3c-1-4.7-2.5-9.2-4.9-13.3c-0.3-0.6-1.1-1.4-0.3-1.9
		c0.9-0.5,1.1,0.6,1.4,1.1c4.9,8.7,7,17.9,5.2,27.9c-0.7,3.7-1.5,7.4-2.1,11.2c-1,6.2,2.2,11.4,4.3,16.9c0.4,0.9,0.8,0.7,1.5,0.4
		c4.6-1.9,9.2-3.9,13.8-5.7c4-1.6,8-3.3,12.5-3.7c4.5-0.4,9.1-0.3,13.2-2.3c5.5-2.7,11.2-3.3,17.2-2.9c4.2,0.3,8.2-0.9,12.1-2
		c6.5-1.9,12.9-4.3,19.9-4.3c5.6,0,11-1.4,15.9-4.3c1.5-0.9,3.2-1.3,5-1.3c6.9-0.1,13.8-0.9,20.5-2.6c2.9-0.7,5.8-1.4,8.9-0.9
		c1.4,0.3,1.5-0.9,1.3-1.9c-0.5-3.4-0.9-6.8-1.6-10.2c-2.3-10.1-7.3-19-12.6-27.8c-5.6-9.3-10.9-18.8-13.6-29.5
		c-1.4-5.5-3.1-10.9-4.5-16.4c-1.9-7.1-6.7-11.3-13.6-13.6c-7.7-2.6-15.5-2.3-23.2-0.6c-32.1,6.8-62.3,18.2-90.3,35.5
		c-5.6,3.5-10.5,7.6-13.3,13.9c-4.5,10.2-4.5,21.1-6,31.8c-0.7,4.8-1,9.7-1.6,14.6c-0.7,5.7-1.5,11.4-2.2,17.1
		c-0.9,6.5-1.7,13-2.6,19.5c-1.2,8-2.3,15.9-3.7,23.9c-0.3,1.8,0.3,2.3,1.9,2.5c3.8,0.6,5.9,2.7,6.4,6.6c0.1,0.9,0.3,1.7,0.4,2.6
		c0.1,1.5,0.9,2,2.1,1c1.4-1.1,3-2.2,4.1-3.6c5.4-6.3,11.6-11.7,18.2-16.8c1.9-1.5,4.7-2.3,4.5-5.8c-0.1-2-0.6-3.7-1.8-5.2
		c-1.6-2-1.6-3.9-0.1-6.1c1.7-2.3,3.7-4.4,6-6.1c1.1-0.9,1.6-1.6,0.9-3c-1-2.1-1.4-4.3-1.4-6.7c-0.2-4.8,1.5-9.2,2.1-13.8
		c0.9-6.7,0.1-12.8-7.6-15.1c-1.7-0.5-3-1.7-4.2-3.1c-0.3-0.4-0.6-0.9-0.2-1.3c0.5-0.5,0.8,0.1,1.2,0.4c1.1,0.8,2,2,3.2,2.5
		C95.8,128.8,98.5,130,100.8,132.9z"/>
	<path class="st5" d="M313.8,160c-2.6,0-5.3-0.1-7.9,0c-1.4,0-2-0.4-2-1.9c0.1-4.9-0.1-9.7,0-14.6c0.1-4.9,3.9-8.3,8.8-8.5
		c4.5-0.2,8.2,0.8,10.3,5.2c0.5,1.2,0.8,2.4,0.8,3.7c0,4.7,0,9.4,0,14.1c0,1.5-0.5,2-1.9,1.9C319.2,159.9,316.5,160,313.8,160z"/>
	<path class="st2" d="M274,135.1c-2.7,0-5.4-0.1-8.1,0c-1.3,0-1.9-0.2-1.8-1.7c0.1-4.9-0.1-9.7,0.1-14.6c0.1-4.6,4.3-8.5,8.9-8.5
		c5.8-0.1,9.1,1.9,10.6,6.1c0.2,0.7,0.4,1.6,0.4,2.3c0,4.8,0,9.6,0,14.4c0,1.6-0.4,2.1-2,2C279.3,135,276.7,135.1,274,135.1z"/>
	<path class="st3" d="M353.5,135.1c-2.7,0-5.4,0-8.2,0c-1.2,0-1.7-0.4-1.7-1.6c0.1-5.1,0-10.2,0-15.3c0.1-3.7,4.1-7.7,8-7.8
		c1.7-0.1,3.5-0.4,5.2,0.2c4.8,1.9,6.6,4.6,6.7,9.8c0,4.2,0,8.5,0,12.7c0,1.5-0.4,2.1-2,2.1C358.9,135,356.2,135.1,353.5,135.1z"/>
	<path class="st10" d="M124.4,202.8c0.3,0,0.6,0,0.9,0c0,15.6,0,31.2,0,46.7c0,32.2,0,64.4,0,96.6c0,0.9,0.8,2.3-0.9,2.7
		c0-1.4,0.1-2.7,0.1-4.1C124.4,297.4,124.4,250.1,124.4,202.8z"/>
	<path class="st10" d="M105,204.9c0.2,0.1,0.5,0.1,0.7,0.2c0,47.4,0,94.8,0,142.3c0,0.5,0,1,0.1,1.4c-0.6,0.1-0.8-0.3-0.9-0.9
		c0-0.6,0-1.3,0-1.9c0-46.2,0-92.3,0-138.5C104.9,206.6,105,205.8,105,204.9z"/>
	<path class="st11" d="M100.8,132.9c-2.3-2.9-5-4.1-7.8-5.3c-1.2-0.5-2.1-1.6-3.2-2.5c-0.3-0.3-0.7-0.9-1.2-0.4
		c-0.4,0.4-0.1,0.9,0.2,1.3c1.1,1.4,2.5,2.6,4.2,3.1c7.7,2.3,8.5,8.4,7.6,15.1c-0.6,4.6-2.3,9.1-2.1,13.8c0.1,2.3,0.4,4.6,1.4,6.7
		c0.7,1.4,0.3,2.1-0.9,3c-2.3,1.7-4.3,3.8-6,6.1c-1.5,2.1-1.5,4,0.1,6.1c1.2,1.5,1.7,3.1,1.8,5.2c0.2,3.5-2.6,4.3-4.5,5.8
		c-6.6,5-12.8,10.4-18.2,16.8c-1.2,1.4-2.7,2.5-4.1,3.6c-1.3,1-2,0.4-2.1-1c-0.1-0.9-0.3-1.7-0.4-2.6c-0.5-3.8-2.7-6-6.4-6.6
		c-1.6-0.2-2.2-0.7-1.9-2.5c1.3-7.9,2.5-15.9,3.7-23.9c0.9-6.5,1.7-13,2.6-19.5c0.8-5.7,1.5-11.4,2.2-17.1c0.6-4.9,0.9-9.8,1.6-14.6
		c1.5-10.7,1.5-21.7,6-31.8c2.8-6.3,7.6-10.4,13.3-13.9c28-17.3,58.2-28.7,90.3-35.5c7.7-1.6,15.5-2,23.2,0.6
		c6.8,2.3,11.6,6.5,13.6,13.6c1.5,5.5,3.1,10.9,4.5,16.4c2.7,10.7,8,20.1,13.6,29.5c5.3,8.8,10.4,17.6,12.6,27.8
		c0.8,3.4,1.1,6.8,1.6,10.2c0.2,1,0.1,2.2-1.3,1.9c-3.1-0.6-6,0.1-8.9,0.9c-6.7,1.7-13.6,2.5-20.5,2.6c-1.8,0-3.5,0.4-5,1.3
		c-4.9,3-10.3,4.4-15.9,4.3c-7,0-13.4,2.4-19.9,4.3c-4,1.1-7.9,2.3-12.1,2c-5.9-0.4-11.7,0.2-17.2,2.9c-4.1,2.1-8.8,1.9-13.2,2.3
		c-4.5,0.4-8.4,2.1-12.5,3.7c-4.6,1.9-9.2,3.8-13.8,5.7c-0.6,0.3-1.1,0.5-1.5-0.4c-2-5.5-5.3-10.6-4.3-16.9
		c0.6-3.7,1.4-7.4,2.1-11.2c1.8-9.9-0.3-19.2-5.2-27.9c-0.3-0.6-0.6-1.7-1.4-1.1c-0.8,0.5,0,1.3,0.3,1.9c2.5,4.1,3.9,8.6,4.9,13.3
		C100.9,130.7,101,131.5,100.8,132.9z"/>
	<path class="st12" d="M95.8,189.7c-0.5-1.4,0.3-2.6,0.4-3.9c0.3-2.8-0.5-5.3-2.2-7.4c-1.1-1.3-0.8-2.3-0.1-3.4
		c1.9-2.8,4.3-5.2,7.3-7.2c0.5,1.1,0.8,2.3,1.4,3.3c0.8,1.4,0.9,2.5-0.6,3.4c-0.4,0.2-0.9,0.7-0.5,1.2s1,0.2,1.5-0.1
		c4.5-3.3,9.9-4.5,14.8-6.8c3.7-1.7,7.4-3.4,11.5-4.2c2.8-0.5,5.7-0.6,8.5-0.8c4-0.3,7.8-1.9,11.5-3.4c1.6-0.6,3.3-0.9,4.9-1.4
		c0.8,0.1,1.6,0.2,2.3-0.2c0.5,0,1,0,1.4,0c2.2,0.4,4.5,0.5,6.7,0.1c6.7-0.3,12.8-2.9,19.2-4.6c4.4-1.2,8.9-1.5,13.4-1.8
		c3.8-0.2,7.5-0.8,10.8-2.9c3.5-2.2,7.3-2.8,11.2-2.8c6.5,0,12.7-1.5,19-2.7c3.4-0.7,6.9-1.2,10.4-0.1c0.5,0.2,1.1,0.4,1.4-0.3
		c0.1-0.2-0.2-0.8-0.3-0.8c-2.8-0.1-1.9-2.5-2.4-3.9c-0.3-1-0.1-2.2-0.1-3.3c5.1,1.3,7.1,4.8,5.4,9.6c-1.6,4.4-0.3,7.7,3.3,10.5
		c1.4,1.1,2.7,2.4,3.3,4.2c-1,0.8-0.4,1.9-0.7,2.9c-1.8,5.6-6.4,7.6-11.4,8.6c-8.8,1.7-17.6,3.5-26,6.9c-7,2.9-14.2,4.6-21.8,4.7
		c-3.3,0.1-6.6,0.8-9.7,2c-3.2,1.2-6.1,3-9.5,3.7c-6,1.3-12.1,1.3-18.2,1.8c-7,0.5-13.7,2-19.8,5.4c-3.2,1.7-6.5,2.5-10.1,2.4
		c-4.9-0.1-9.9-0.5-14.8,0.4c-4,0.7-7.9,1.6-12,1.5c-1.7-0.1-2.9-0.6-3.9-1.9c-1-1.3-1.8-2.9-2.9-4.1
		C97.1,193,97.3,190.9,95.8,189.7z"/>
	<path class="st12" d="M36.1,220.4c1.7-3.8,2.7-7.8,3.7-11.9c1-4.2,5.5-7,10.1-7.3c3.8-0.2,7.3,0.8,10.9,1.7c1.8,0.4,2.8,2,3,3.6
		c0.8,4.8,2,9.5,3.9,13.9c-0.9,2.3-0.9,4.9-3.1,6.7c-4.1,3.6-8.8,6.3-13.9,8.1c-4.8,1.6-7.9,0.2-9.7-3.8
		C39.5,227.7,37.8,224.1,36.1,220.4z"/>
	<path class="st13" d="M95.8,189.7c1.5,1.2,1.3,3.3,2.6,4.7c1.1,1.2,1.9,2.7,2.9,4.1c0.9,1.3,2.2,1.8,3.9,1.9
		c4.1,0.1,8.1-0.7,12-1.5c4.9-0.9,9.9-0.5,14.8-0.4c3.6,0.1,6.9-0.7,10.1-2.4c6.2-3.4,12.8-4.9,19.8-5.4c6.1-0.5,12.2-0.4,18.2-1.8
		c3.4-0.8,6.4-2.5,9.5-3.7c3.2-1.2,6.4-2,9.7-2c7.6-0.2,14.8-1.9,21.8-4.7c8.3-3.5,17.1-5.2,26-6.9c5-1,9.6-2.9,11.4-8.6
		c0.3-1-0.3-2.1,0.7-2.9c1.5,2.8,0.8,6.3-1.8,9.2c-3.2,3.6-7.5,4.9-11.9,5.6c-9.4,1.3-18.3,4-27,7.5c-5.8,2.3-11.7,3.6-17.9,3.6
		c-5.9,0-11.2,2.1-16.4,4.6c-2.9,1.4-5.9,1.8-9,2.1c-8.3,0.9-16.8,0.5-25,2.9c-2.2,0.7-4.3,1.5-6.2,2.6c-4.1,2.4-8.4,3.6-13.1,3.2
		c-7.2-0.6-14.2,0.4-21.2,1.8c-5.8,1.1-8.5-0.4-12.1-6.7C96.4,194.3,95.4,192.2,95.8,189.7z"/>
	<path class="st13" d="M36.1,220.4c1.7,3.7,3.4,7.3,5,11c1.8,4,4.9,5.4,9.7,3.8c5.2-1.7,9.8-4.4,13.9-8.1c2.1-1.9,2.2-4.4,3.1-6.7
		c1.9,2.8,0.7,7-2.3,9.5c-4.6,3.8-9.7,7.2-15.8,8.4c-4.5,0.9-6.8,0.1-8.7-3.8c-1.8-3.6-3.9-7.1-5.1-11
		C35.7,222.4,35.3,221.4,36.1,220.4z"/>
	<path class="st6" d="M164.7,158.8c-2.2,0.4-4.5,0.3-6.7-0.1C160.3,158.5,162.5,158.5,164.7,158.8z"/>
	<path class="st6" d="M156.6,158.8c-0.7,0.4-1.5,0.3-2.3,0.2C155,158.5,155.8,158.5,156.6,158.8z"/>
</g>
</svg>
