<svg xmlns="http://www.w3.org/2000/svg" viewBox="0 0 832.5 832.5"><defs><style>.cls-1{fill:#deaa7c;}.cls-2{fill:#ffffc5;}.cls-3{fill:#e55747;}.cls-4{fill:#76b099;}.cls-5{fill:#5e4440;}</style></defs><g id="Layer_2" data-name="Layer 2"><g id="Layer_1-2" data-name="Layer 1"><rect class="cls-1" width="832.5" height="832.5"/><path class="cls-2" d="M376.33,110.57c20.59-48,84.87-17.61,26.81,16.14Z"/><path class="cls-1" d="M402.81,107.75a38.55,38.55,0,0,0-8.12,4.43,56.72,56.72,0,0,1,5.42,14.38c4.88.67,9.18-1.73,11.24-6.85C414,113,408.55,105.43,402.81,107.75Z"/><path class="cls-3" d="M478.14,164.57c-11.26-11-31.76-15.23-45.36-22.93-15.09-8.55-41.72-27.72-56.13-43.4.37,1.41-.7,23-.54,24.43l30.51,26.87L457.07,214C490.71,216.36,503.19,189,478.14,164.57Z"/><path class="cls-2" d="M510.17,675.88c-5.61-11.67-44.9,5.33-55,.19-18.56-9.48-23.32-54.63-27.81-72.62-8.65-34.62-9.77-71.71-16.18-107-5-27.78-18.61-65.12-11.69-93l11.12-3.92c26.17-7.57,61.65-18.72,82.27-35.41,20.82-16.84,18.36-59,11.6-81.91-10.56-35.75-33-69.86-56.57-101.93l-2.51-1.58a263,263,0,0,1-45.64-36.89q-5.61-5.72-10.86-11.81c-8.91-6.7-17-14.4-23.11-23.67-18.51-2.21-38.77.61-56.83,3.78-41.8,7.36-90.14,17.44-129.9,32.68-52.31,20-57.6,74.54-70.75,123.85-7,26.33-19.29,48.09-22.35,76.18-2.95,27.05-.44,54.28-3.29,81.36-3.08,29.16-11.06,57.56-10.81,86.63.24,28.9.09,57.89.32,86.92.12,14.22-.71,24.46,3.92,37.57,3.73,10.58,8.73,18.21,9.84,29.68.82,8.49,1.8,24.06-2.52,31.52-5.25,9-18.35,9.44-20.13,23.61C59.43,751,84,739.15,98.05,733.42c5.57,19.71,17.77,21.48,31.33,32.11,15.46,12.13,10.51,28.63,18.88,45.1,4,7.8,4.91,11.15,15.2,9.62,14.2-2.12,9.43-13,15.42-23.54,11.13-19.62,41.47-15,61.88-16.84,45.88-4.23,92.34-19.7,135.3-35.88,30.51-11.49,55.75-34.56,86.58-41.21C470.42,701.1,518.14,692.46,510.17,675.88Z"/><path class="cls-4" d="M244.28,504.13c8.66,38.53,28,80.74,29,120.27,21.39,3.79,48.25-14.95,70.46-16.94,26.58-2.37,52.58-3.07,79.28-5.72,27.12-2.69,56.24-9.43,81.28-17.29C538,573.87,526,551.35,512.69,525c-15-29.86-14.1-62.91-23.67-93.6Z"/><path class="cls-5" d="M289.56,332.51c-.65.14-4.31,6.56-1.22,14.19a41.64,41.64,0,0,0,6.45-.95c0-4.7-1-9.86-3.48-13.5Z"/><path class="cls-5" d="M460.33,285.46a11.89,11.89,0,0,0-7.75,1.6c.83,2.56,1.65,5.13,2.44,7.71C459.52,294.85,461.88,291.85,460.33,285.46Z"/><path class="cls-3" d="M276.7,355.59c-15.56,1.86-17.06,28.1,5.32,24.22S300.61,352.74,276.7,355.59Z"/><path class="cls-3" d="M492.42,302c-6.67-16.11-31.25-8.74-28,8.39,1.65,8.78,8.47,14.62,20.89,7.9C493.93,313.56,494.76,307.59,492.42,302Z"/><path class="cls-1" d="M417.53,273.77c-17.89-32.53-74.23,4.68-74.23,4.68-40.25,32.17,2.94,83.15,34.71,97.07,29.63,13,43,1.24,47.19-26C428.07,331.06,426.73,290.47,417.53,273.77Z"/><path class="cls-5" d="M400,361.45c-3.12-14-8.14-26.41-13.47-39.51-3-7.49-6.18-15.23-8.9-23.24l1.59-.55c2.71,8,5.84,15.69,8.87,23.15,5.12,12.59,10.4,25.62,13.55,39.78Z"/><path class="cls-5" d="M364.87,301.1c3.36,5.87,16.33,3.2,22.22-4.11a4.63,4.63,0,0,0-4.2-7.48l-12.35,1.6A6.76,6.76,0,0,0,364.87,301.1Z"/><path class="cls-5" d="M192.25,357.79c14.66,20,38.44,29.63,65.25,26.28,1.5-.19,3-.39,4.43-.62,22.52-3.49,40.41-11.68,51.93-23.82a52.44,52.44,0,0,0,14.36-41.92c-.18-1.78-.45-3.55-.79-5.31,18.92-29.48,56.87-32.31,79.36-31.06a67.68,67.68,0,0,0,6.48,10.89c14.66,20,38.45,29.62,65.26,26.27,1.49-.19,3-.39,4.43-.62,22.52-3.49,40.4-11.68,51.92-23.82a52.37,52.37,0,0,0,14.36-41.92c-1.7-16.94-11-33.37-25.51-45.08-15.8-12.75-36.51-18.85-58.33-17.18-28.8,2.22-50,15.16-59.83,36.45-7.16,15.56-7.2,34.08-.72,50.55-22.79-.94-58.76,2.52-78.81,29.85a69.92,69.92,0,0,0-23.33-34.1c-15.8-12.75-36.52-18.85-58.33-17.18-28.8,2.22-50,15.16-59.84,36.45C175.05,312.55,178.07,338.41,192.25,357.79ZM409.52,228.15c8.21-17.88,25.3-29.43,48.54-33q3.74-.59,7.68-.88c44.93-3.46,76.08,27.59,79.18,58.35,2.48,24.69-12.77,53.26-62.43,61q-2.21.34-4.5.63c-25.2,3.14-47.51-5.8-61.2-24.53C403.53,271.53,400.68,247.38,409.52,228.15Zm-221,65.57c9.1-19.79,29.07-31.84,56.22-33.92,44.94-3.46,76.09,27.59,79.18,58.35,2.56,25.42-13.68,55-66.93,61.6-25.19,3.14-47.5-5.8-61.2-24.53C182.5,337.1,179.65,313,188.49,293.72Z"/><path class="cls-5" d="M381.59,424.49c.19-11.06-1-24.43,2.43-35a136.76,136.76,0,0,1,16.23,10.67,5.35,5.35,0,0,1,6-1.66c.15.47.3,1,.43,1.61l.89-.79-.9-.65a6.82,6.82,0,0,1,1,.54c5.21-4.69,11.61-10.94,16.84-14,1.94,7.66.34,23.95-3.72,30.27-4.56-3.09-9-6.49-13.43-9.9.09,4.31-1.22,7.84-6.16,4.12-.14-.1-.27-.21-.4-.32A59.16,59.16,0,0,1,381.59,424.49Z"/><path class="cls-1" d="M406.21,398.28l.48.35-.42-.17Z"/><path class="cls-5" d="M529.35,545.19l-1.07-3.65c-4.44-15.18-9-30.88-12.8-46.28-4.35-17.77-9.08-35-13.65-51.69-.2-.75-.41-1.5-.62-2.25l-1.42.34c.21.78.43,1.55.64,2.33,4.57,16.66,9.29,33.89,13.63,51.63,3.78,15.45,8.38,31.17,12.82,46.36l1.07,3.65c.6,2.06,1.6,4.79,2.74,8,3.27,9,7.75,21.28,6.35,27.31-3.07,13.31-28.9,16.36-47.76,18.58-5.43.64-10.12,1.2-13.7,1.91-41.25,8.27-76.81,13.46-111.9,16.34A134.73,134.73,0,0,0,348.29,620c-8.47,1.7-17.37,4-26.58,6.49-23.62,6.24-48,12.7-67.85,8.33-4.64-18.37-7.47-37.41-10.2-55.82-.74-5-1.51-10.15-2.3-15.2-1.05-6.72-1.94-14.7-2.88-23.16-1.11-9.89-2.27-20.27-3.82-30.24-.48.12-1,.22-1.45.32,1.58,10.12,2.75,20.53,3.81,30.05.95,8.48,1.84,16.48,2.89,23.23.79,5,1.56,10.21,2.3,15.2,2.77,18.63,5.63,37.89,10.36,56.52l.13.51.47.1c20.22,4.65,45-1.9,68.94-8.24,14.93-4,29-7.68,41.75-8.72,35.14-2.88,70.74-8.08,112-16.35,3.54-.71,8.2-1.26,13.6-1.9,6.71-.79,14.29-1.68,21.45-3.12,13.4-2.68,25.36-7.26,27.52-16.62,1.51-6.55-3.07-19.15-6.42-28.35C530.91,549.89,529.93,547.19,529.35,545.19Z"/><path class="cls-3" d="M378.52,535.06c-4.56-16.22-8.89-33.13-12.42-49.61,0-.17-.07-.35-.11-.52a44.45,44.45,0,0,1-7.63,2.24c9,44.21,18.93,88.48,30.81,130.83,3-2.47,7.34-3.82,11.5-4.38C396.74,588,385.58,560.21,378.52,535.06Z"/><path class="cls-3" d="M239.92,555.82c-1,.75-1.7.06-2.5,1.53,15.24,3.7,35.89-5.15,50.27-9.05,26.77-7.26,54-12.61,80.9-19.5,23.92-6.14,48.15-8.4,72.32-13.24,16.19-3.25,31.28-5.87,45.87-14.06,8-4.47,14.61-7.68,23.63-8.93,1.09,4.39,2,9,2.74,13.48-19,4.91-39.25,6-58.61,9.85-24.9,4.94-50.68,10.87-75,18.35-25.83,8-50.47,17-77.06,22.35-13.89,2.78-45.6,3-54.9,15.1Z"/><path class="cls-3" d="M503,432.7c-2.16-6.54-2.31-13.9-4.81-20.24-.69-1.76-3.58-8.82-5.16-9.59-2.06-1-11.17,5.59-13.11,6.48-10.83,5-22.58,7.88-34,11.13-23.62,6.73-48.07,9.6-71.66,16.52-22.69,6.64-46.05,11.49-68.94,17.38-16.9,4.36-33.8,8.56-50.47,13.73-6.73,2.09-13.56,3.83-20.26,5.95-3.51,1.11-9,1.73-12.1,3.74-2,1.29-1.92-.21-2.35,2.57-.77,4.92,3.5,13.62,4.89,18.47,1.2,4.16,2,8.35,2.86,12.6.14.71.81,4.05,1,5l.29-.49c10-2,19.19-6.34,29.12-8.43,8-1.69,15.91-3,24-4a435.36,435.36,0,0,0,60.48-11.33c19.08-5.06,37.89-10.86,56.92-16.18,23.74-6.65,47.88-10.84,71.86-16.45,12.1-2.83,24.1-6.12,35.94-9.45A110.55,110.55,0,0,0,503,432.7Z"/><path class="cls-5" d="M282.82,564.87c17.55,9.74,41.06,15.13,60.95,17.74-8.6-3.19-18.5-7.78-25.9-13.39,9.56-3.88,20.14-2.69,30.09-3.31-9-8.61-25.89-9.45-36.1-13.63,14.37-1.75,33.05-4,45.42-10.11-11.33-6.4-30.23-5.31-43.19-8.18-9.49-2.1-26-5-32.4-5.56Z"/><path class="cls-2" d="M168.61,510.55c-1.22,5-2.74,10-4,14.94-3,11.44-4.73,23.21-6.36,34.92A270.16,270.16,0,0,0,156,594.16c0,1.08,0,2.17-.06,3.27,45.57-6.08,114.29,8.3,144.27-33.59C338.74,510,217.11,502.64,168.61,510.55Z"/><path class="cls-5" d="M488.27,484.16c-6.23,6.72-20.88,11.39-29.19,15.78s-16.67,9.73-25.49,13.36c6.24-.36,15.18-1.75,21,1-5.29,7.1-12,12.87-15.56,20.74,9.26-3.63,18-8.88,27.3-12.46-3.1,8.61-8.87,17.33-12.81,25.64,11.91-3.66,22.16-14.91,33.68-20.21-2.31-10.38-10.13-27.79-4.93-37.64Z"/><path class="cls-2" d="M551.38,482.36c-8.22-13.68-17.2-27-24.69-41.06-22.05,11.91-76,61.6-56.89,83.49,14.65,16.81,63.61-6.34,92.36-25.34C558.38,493.88,554.85,488.14,551.38,482.36Z"/><path class="cls-2" d="M150.16,171.22c-10.94-2.25-35.17-22.86-49.82-5.73-19.31,22.59,12.93,39.17,30.74,27.27Z"/><path class="cls-1" d="M138.31,184.42c1.21-2.63,2.53-5.21,3.92-7.75-28.41-15.82-57.52,29.84-7.78,14.44C135.67,188.85,137,186.62,138.31,184.42Z"/><path class="cls-3" d="M292,36.56c-17.92,2.69-39.26,11.91-54.89,19.22-13.56,6.35-102.07,48.43-79.49,72.65l9.81-6.84c9.94-16.63,48.77-24.37,66.39-31.76C257.43,80,305.23,76.54,325.63,61,347.85,44.14,309.65,33.91,292,36.56Z"/><path class="cls-3" d="M157.84,135c-34.64,16-44.3,74.34-48.92,90.06-5.76,19.57-8.32,29.82-17.48,48.09-6.64,13.24-23.47,37.4-.17,41.09,20.35,3.22,46.53-20.35,56.59-35.13,17.26-25.35,22.51-49.29,30.94-77.07Z"/><path class="cls-4" d="M360.87,46.07c-11.29-13.42-24.49-4.71-40-.09-34.48,10.26-63.3,24.81-95.74,40-24.07,11.25-55.34,19.9-72.32,40a7.31,7.31,0,0,0,0,9.38c16,18.94,12.29,68,40.79,74.54,39.26,9,87.89-28.72,120.88-43.94,31.15-14.38,77.65-19.65,65.6-61.61C375.41,88.09,371.47,58.65,360.87,46.07Z"/><path class="cls-2" d="M175.16,156c-.94-3.12-1.66-6.34-2.37-9.46-1.35-6-2.74-12.13-5.64-17.58l1.61-.86c3,5.67,4.44,12,5.81,18,.7,3.08,1.42,6.27,2.34,9.34Z"/><rect class="cls-2" x="182.16" y="128.61" width="1.82" height="16.22" transform="translate(-31.38 57.87) rotate(-16.57)"/><rect class="cls-2" x="189.75" y="162.28" width="1.82" height="14.2" transform="translate(-40.38 61.4) rotate(-16.57)"/><rect class="cls-2" x="209.3" y="145.75" width="1.82" height="8.11" transform="translate(-33.99 66.15) rotate(-16.57)"/><path class="cls-2" d="M218.44,130.72a47.76,47.76,0,0,1-4.93-9.32l1.7-.67a45.81,45.81,0,0,0,4.74,9Z"/><path class="cls-2" d="M201.29,116.55l-1.78.42a105.13,105.13,0,0,0-3.43-11.55l1.71-.65A108,108,0,0,1,201.29,116.55Z"/><rect class="cls-2" x="197.02" y="128.19" width="1.82" height="10.34" transform="translate(-39.37 107.89) rotate(-27.85)"/><path class="cls-2" d="M241,157.59l-1.75.51a27.7,27.7,0,0,0-7.67-12l1.23-1.35A29.5,29.5,0,0,1,241,157.59Z"/><path class="cls-2" d="M252.2,138.51l-1.79.35a21.25,21.25,0,0,0-5.7-12.26l1.5-.95A22.4,22.4,0,0,1,252.2,138.51Z"/><rect class="cls-2" x="249.31" y="95.83" width="1.82" height="14.34" transform="translate(-20.15 113.83) rotate(-24.67)"/><path class="cls-2" d="M228,113.11a91.72,91.72,0,0,1-8-12.58l1.62-.85A89.48,89.48,0,0,0,229.47,112Z"/><path class="cls-2" d="M228.46,193.07a63.87,63.87,0,0,0-9.53-18l1.46-1.1a65.89,65.89,0,0,1,9.8,18.55Z"/><path class="cls-2" d="M211.18,198.61A21.63,21.63,0,0,1,205.53,187l1.8-.29a19.77,19.77,0,0,0,5.17,10.6Z"/><path class="cls-2" d="M180.72,196.8l-1.81.26a29.14,29.14,0,0,0-6.36-14.52l1.41-1.16A31,31,0,0,1,180.72,196.8Z"/><path class="cls-2" d="M269.36,159.91a16.72,16.72,0,0,0-5.87-6.28l1-1.55a18.49,18.49,0,0,1,6.52,7Z"/><path class="cls-2" d="M290.34,139l-1.82-.09c.19-4.11-1.21-6.81-4.31-8.27L285,129C288.77,130.75,290.57,134.12,290.34,139Z"/><path class="cls-2" d="M286.31,95.8a64.31,64.31,0,0,1-8-12.63l1.64-.8a62.45,62.45,0,0,0,7.82,12.28Z"/><path class="cls-2" d="M272,118.93a118.71,118.71,0,0,1-6-13.13l1.7-.66a117.73,117.73,0,0,0,5.93,12.93Z"/><path class="cls-2" d="M329.39,120.82l-1.8.3a32.49,32.49,0,0,0-6.38-14.56l1.44-1.13A34.31,34.31,0,0,1,329.39,120.82Z"/><rect class="cls-2" x="329.65" y="61.29" width="1.82" height="12.33" transform="translate(3.88 151.73) rotate(-26)"/><rect class="cls-2" x="354.22" y="54.11" width="1.82" height="14.2" transform="translate(-2.71 103.8) rotate(-16.57)"/><rect class="cls-2" x="355.14" y="113.12" width="1.82" height="16.22" transform="translate(-19.79 106.54) rotate(-16.57)"/><rect class="cls-2" x="304.59" y="71.04" width="1.82" height="16.22" transform="translate(-9.89 90.4) rotate(-16.57)"/><path class="cls-2" d="M309.53,139.36l-1.77.42a15.92,15.92,0,0,0-6.95-9.95l1-1.55A17.73,17.73,0,0,1,309.53,139.36Z"/><path class="cls-2" d="M287.48,186.11l-1.77.43a15.92,15.92,0,0,0-6.95-9.95l1-1.55A17.71,17.71,0,0,1,287.48,186.11Z"/><path class="cls-2" d="M259.89,192.16a89.62,89.62,0,0,0-7.06-16.75l1.6-.87a92.25,92.25,0,0,1,7.21,17.08Z"/><path class="cls-2" d="M330.08,158.81l-1.82.07c-.12-3-1.45-5.27-3.74-6.41l.8-1.64A8.88,8.88,0,0,1,330.08,158.81Z"/><rect class="cls-2" x="296.6" y="160.07" width="1.82" height="12.17" transform="translate(-35.02 91.72) rotate(-16.57)"/><path class="cls-2" d="M347.27,102.71l-1.76.48a32.85,32.85,0,0,0-5.26-10.78l1.47-1.09A35,35,0,0,1,347.27,102.71Z"/><rect class="cls-2" x="368.87" y="97.94" width="1.82" height="10.92" transform="translate(15.59 251.64) rotate(-38.33)"/><path class="cls-2" d="M376.57,139.29l-1.14-1.43c2.32-1.85.94-5.91-1.14-9.09l1.53-1C379.07,132.76,379.35,137.07,376.57,139.29Z"/><path class="cls-2" d="M341.51,161.61l-1.79.36a55.59,55.59,0,0,0-8.15-20.47l1.51-1A57.7,57.7,0,0,1,341.51,161.61Z"/><path class="cls-2" d="M307.86,112.36l-1.78.41a34.71,34.71,0,0,0-5.83-12.7L301.72,99A36.57,36.57,0,0,1,307.86,112.36Z"/><path class="cls-2" d="M354.13,90.28l-1.82.12c-.26-4-1.91-7.25-4.31-8.38l.78-1.65C351.82,81.8,353.82,85.51,354.13,90.28Z"/><path class="cls-2" d="M333.41,62.44a61.62,61.62,0,0,0-5.32-10.92l1.55-1a62.93,62.93,0,0,1,5.48,11.25Z"/><path class="cls-2" d="M286.6,76.4l-1.79.35c-1.12-5.78-4.56-10-9.2-11.17l.46-1.77C281.4,65.21,285.34,69.92,286.6,76.4Z"/><path class="cls-2" d="M259,97.34l-1.8.28a41.82,41.82,0,0,0-7.54-18.45l1.45-1.1A43.57,43.57,0,0,1,259,97.34Z"/><path class="cls-2" d="M206.74,212.42c-3.46-6-6.63-12-9.69-18.35l1.65-.79c3,6.29,6.18,12.25,9.62,18.22Z"/><path class="cls-2" d="M160.48,135a22.65,22.65,0,0,0-7.07-10.1l1.16-1.41a24.45,24.45,0,0,1,7.63,10.92Z"/><path class="cls-2" d="M238.12,97.35a138,138,0,0,0-13.45-17L226,79.1a140.06,140.06,0,0,1,13.63,17.24Z"/><path class="cls-2" d="M356.45,155l-1.75.51a27.67,27.67,0,0,0-7.66-12l1.23-1.35A29.56,29.56,0,0,1,356.45,155Z"/><path class="cls-2" d="M324.83,84.16l-1.81.17C322.59,80,320.66,76,318,73.88l1.11-1.45C322.2,74.83,324.35,79.22,324.83,84.16Z"/><path class="cls-2" d="M250.37,203.54l-1.79.35a23,23,0,0,0-5.2-10.67l1.38-1.19A24.85,24.85,0,0,1,250.37,203.54Z"/><path class="cls-5" d="M614.23,689.32a3.2,3.2,0,0,1,2.21-.56,37,37,0,0,0,6.08-.55l17.68-1.11,17.68-1.65v-2.77a23.23,23.23,0,0,1,.55-3.87q.55-26,1.66-47,0-9.39.55-15.48v-125a38.55,38.55,0,0,0,.55-7.18l.56-23.23V458.2l-3.32,2.21-16.57,10.51c-2.21,1.47-4.06,2.76-5.53,3.87a5.56,5.56,0,0,1-2.21,1.1l-21,5h-1.66a12.48,12.48,0,0,0-3.86-.55q-5.54-.56-12.16-1.39c-4.42-.55-8.48-1-12.15-1.38a12.17,12.17,0,0,1-3.87-.55h-1.66L585,411.2h1.66a16.68,16.68,0,0,1,3.87.55h2.76l.55.56h5l.56.55h3.31a36.94,36.94,0,0,0,6.08.55l14.36-8.84q8.29-5.52,16.58-10.51l8.29-17.69,8.83-17.69q1.66-3.87,2.77-6.09a5.71,5.71,0,0,0,1.1-2.21l63,11.61v2.77q.54,3.32,1.1,7.19l1.66,22.11L728,416.18a17.15,17.15,0,0,1,.56,4.14,16.66,16.66,0,0,0,.27,3.32,12.59,12.59,0,0,1,.28,1.94v14.93L728,463.18l-.55,23.22a38.66,38.66,0,0,1-.55,7.19v125q-.56,6.65-.55,15.49-1.12,21.56-2.21,47v2.21H741.3l.56-.55h19.33a16.68,16.68,0,0,0,5-.55h2.22L770,748.48h-2.21l-5,.55H743l-.55.55h-21a37,37,0,0,0-6.07.56H696.55l-18.78.55h-8.29l-6.08.55-17.67,1.66-17.68,1.66h-3.87l-.55.55h-3.32Z"/></g></g></svg>