<svg xmlns="http://www.w3.org/2000/svg" viewBox="0 0 832.5 832.5"><defs><style>.cls-1{fill:#e55747;}.cls-2{fill:#5e4440;}.cls-3{fill:#deaa7c;}.cls-4{fill:#76b099;}.cls-5{fill:#ffffc5;}</style></defs><g id="Layer_2" data-name="Layer 2"><g id="Layer_1-2" data-name="Layer 1"><rect class="cls-1" width="832.5" height="832.5"/><path class="cls-2" d="M94.93,545.89c15.2,12,37.09,17.41,53.68,11.18a33.9,33.9,0,0,0,10.61-6.35,19.65,19.65,0,0,0,3.55-1c.56-.21,1.12-.46,1.67-.73h0c13.14,23.85,23.54,52.62,32.65,81.18l.78,2.49c2.17,6.85,4.26,13.67,6.3,20.39l.63,2.09q1.62,5.37,3.2,10.65c2,6.62,3.87,12.87,5.76,19,4.2,13.73,7.31,29.52,10.6,46.25,2.61,13.26,5.24,26.68,8.51,39.62.23.88.45,1.76.69,2.63,5.71,21.86,13.36,42.18,25.89,57.77l1.61-1.37c-12-14.9-19.45-34.34-25.06-55.34l-.69-2.65c-3.44-13.37-6.19-27.31-8.89-41.08-3.3-16.78-6.42-32.62-10.66-46.46-1.88-6.14-3.76-12.38-5.74-19q-1.65-5.48-3.34-11.08c-.21-.7-.42-1.41-.64-2.12q-2.79-9.24-5.74-18.65l-.78-2.43c-9.07-28.6-19.45-57.52-32.55-81.66l0,0a35.54,35.54,0,0,0,16-2.34c8.69-3.27,17.67-9.65,26.22-18.89a111.68,111.68,0,0,0,22.71-37.16,64.21,64.21,0,0,0,3.87-18.63c.24-6.2-.8-11.63-3.13-16l-.63.35-1.21.68a2,2,0,0,1,.1.21,28.47,28.47,0,0,1,2.8,14.39c-.6,17.36-12.08,39.55-26,54.63-13.76,14.88-28.56,22.1-41.18,20.52,10.42-11.2,33.05-40.59,32-63.74a25.17,25.17,0,0,0-8.8-18.65l-1.35,1.65a23.08,23.08,0,0,1,8,17.09c1,22.28-21.73,51.71-31.46,62.2-.14.15-.27.3-.41.43a17.43,17.43,0,0,1-2.55-1.34c-7-4.41-14.28-14.62-18.67-26.72-5-13.75-4.93-26.15.14-34l-1.76-1.2c-5.44,8.47-5.57,21.58-.35,36,4.46,12.31,11.9,22.78,19.26,27.6-.71.8-1.43,1.59-2.2,2.31-10.58,1.43-23-6.31-31.75-16.05-10.65-11.8-18.76-29.63-11.4-40.87l-1.75-1.22c-8,12.22.41,31.15,11.62,43.56,7.83,8.69,19.36,16.87,30.32,17-16.08,11.62-42.06,6.77-59.22-6.83-16.95-13.43-20.63-30.82-9.83-46.51l-1.72-1.26C71.09,516.14,81.06,534.9,94.93,545.89Z"/><path class="cls-2" d="M162.27,547.61l.18-.21h0l.15.08h0Z"/><path class="cls-2" d="M139.6,752.62c1.51.42,3.08.78,4.71,1.11,7.2,1.43,15.38,2,23.33,2.61,6.34.47,12.9.95,18.8,1.85,18.3,2.77,31.74,8.5,47.12,15.15l.94.41,1.5.65-.69-2.65-2.44-1c-14.36-6.21-28.21-11.94-46.14-14.66-6-.91-12.58-1.4-18.95-1.86l-6.24-.48-1-.08h0a139.5,139.5,0,0,1-16.79-2.23c-1.24-.26-2.43-.55-3.59-.87Z"/><path class="cls-2" d="M161.4,754.33l-.18.08h0l-5.33-6.09c-.24-.66-16.63-44.65,2.7-35.09,12.1,6,3.91,28,2.91,41.08Z"/><path class="cls-2" d="M104.15,752.09c.39-19.51,36.31-8.62,40.6,1a3.94,3.94,0,0,0-.14.49C131.2,761.81,103.82,769,104.15,752.09Z"/><path class="cls-2" d="M142,771l11.24-15.85a12.12,12.12,0,0,0,3.37.6,3.52,3.52,0,0,0,.95-.14c3.43,17.56,3.85,41.17-20.6,34.83C137.5,778.36,130.49,775.25,142,771Z"/><path class="cls-2" d="M63,632.58c14.51,14,36.69,14.56,52.25,8.86l.38-.15c12.42-4.66,20.5-13.08,21.64-22.57a20.63,20.63,0,0,0-.51-7.57l2,.18a85.61,85.61,0,0,1,13.42,2c8.09,2.09,16,6.07,23.69,9.92,7.14,3.59,14.47,7.27,22,9.47.81.24,1.61.45,2.43.65l-.78-2.43c-.81-.21-1.62-.45-2.43-.71-6.92-2.18-13.71-5.6-20.33-8.92-7.76-3.91-15.79-7.93-24.11-10.08a85.15,85.15,0,0,0-13.73-2l-2.86-.27c-.78-.09-1.56-.17-2.33-.27-1.3-.15-2.58-.34-3.8-.58-.66-.12-1.3-.27-1.92-.42l1-.52a12,12,0,0,0-1-1.58c-7.71-10.65-36.78-15.83-52.49-13.4l.33,2.14c15.11-2.35,44.31,2.78,50.78,13,.17.27.33.55.47.83l.72-.38a9.54,9.54,0,0,1-.63,2c-2.81,6.36-12,10.15-15.37,11.38-16.21,5.78-37.21,4.58-41.44-6.41l-2,.79c2.25,5.84,8.63,9.68,18,10.8a60.15,60.15,0,0,0,26.13-3.14l.85-.31c8.41-3.16,13.9-7.61,15.9-12.64,1.66.33,3.4.57,5.2.77a18.83,18.83,0,0,1,.64,7.53c-1.05,8.76-8.74,16.59-20.64,20.95-15,5.49-36.25,5-50.11-8.39Z"/><path class="cls-3" d="M64.06,583.93c3.64,6.34,7.64,12.23,13.59,17-5.78,4.52-14.37,3.36-22.72,3.5Z"/><path class="cls-3" d="M87.72,601.9c2,1,7,6.66,11.49,8-5.17,1.73-10.64,4.74-15.94,5.81Z"/><path class="cls-3" d="M43.75,602.65c4.8,3.25,10.44,9.89,16.3,12.84-5.66,2.67-12.28,5.93-18.44,7.42Z"/><path class="cls-3" d="M45.07,627.71a20.81,20.81,0,0,0,12.86,6.69.74.74,0,0,1,.21,1.4,76.3,76.3,0,0,1-14,5.48l-1-12.75A1.06,1.06,0,0,1,45.07,627.71Z"/><path class="cls-3" d="M75.54,662.76c1.31-.92.93-9,2.23-16.1a124.14,124.14,0,0,1-20.36.46Z"/><path class="cls-3" d="M84.66,562.55c3.13,5.89,9.31,14,12.18,21.58-6.82-2.82-13-2.82-20-4Z"/><path class="cls-3" d="M233.74,455.42c3.17,6.24,8.09,12.41,11.18,18.29L222.37,470A27.84,27.84,0,0,1,233.74,455.42Z"/><path class="cls-3" d="M216.75,457.6l-16.08,1.18c1.27-5.76,4.48-13.67,6.57-19.72C209,445.5,214.47,452.42,216.75,457.6Z"/><path class="cls-3" d="M208.92,426.76l-21.31,12.86c2.21-8.55,2.64-17.79,5.07-25.55C196.84,418.86,204.94,423.33,208.92,426.76Z"/><path class="cls-3" d="M166.52,440.17c1.28,4.4,15.93,14.36,16.16,14.95l-23.51,9.49C159.87,455.91,161.68,446.74,166.52,440.17Z"/><path class="cls-3" d="M171,472.49c1.81,3.91,7,6.88,8.33,8.85l-17.16,11.3A24.35,24.35,0,0,1,171,472.49Z"/><path class="cls-3" d="M101.74,449.76c4,7.47,8.76,15.36,13.45,22.92L99.88,476A119.56,119.56,0,0,0,101.74,449.76Z"/><path class="cls-3" d="M72.37,450.27c3.12,5.09,16.09,15.22,18.85,18.56l-18.75,13C71.63,471.62,72.44,460.12,72.37,450.27Z"/><path class="cls-3" d="M137.58,434.41c3.61,3.69,10.15,20.15,12.33,23.73l-21.61,1.58C133,455.75,133.94,442.53,137.58,434.41Z"/><path class="cls-3" d="M112.67,428.71c2.26,3.11,12.62,13.17,12.93,13.78l-18.86,7.71C107.32,442.49,109.55,434.31,112.67,428.71Z"/><path class="cls-3" d="M99.92,504.18c-5.86-6-10.11-14.4-16.22-20.59l27.1.25C109.26,490.77,101.68,497.33,99.92,504.18Z"/><path class="cls-3" d="M233.63,429.29l14.54-5.46c-2.21,4.17-5.35,16-8,22.39C237.85,441.05,235,435,233.63,429.29Z"/><path class="cls-3" d="M162.78,409.19c-1.54,9-4.46,17.07-10.22,23-2.15-4.92-5.59-11.35-6.4-16.8Z"/><path class="cls-4" d="M251.57,299l-.47,2.67c10.67-10.44,29.82,32.45,16.47,37.72-13.12,5.19-23.29-27.27-18.78-39.86Z"/><path class="cls-4" d="M302.85,264.13c5.12,13.33-22.08,21-34.83,14a5.66,5.66,0,0,0-.48-1.3,25.87,25.87,0,0,1-1.55-3.6c2.69-6.33,6.82-11,13.88-13.38C285.36,258,300,256.69,302.85,264.13Z"/><path class="cls-4" d="M281.72,115.38c9.41,5.49-.42,18.24-5.3,22.62-13,11.66-28.52,11.53-44.74,9.81a39.74,39.74,0,0,0-3-4.27c2.67-5.83,10.28-14.27,12.45-15.93C249.35,121.32,271,109.09,281.72,115.38Z"/><path class="cls-4" d="M240.18,86.06c-4.29,9.79-12.65,17-21.65,22.59-10,6.21-20.36,7.72-30.91,11.83l-1-.43c6.08-22.77,16.07-58,40.94-59.08C242.55,60.31,245,75.05,240.18,86.06Z"/><path class="cls-4" d="M316.87,165.32c9.51-12.19,32.32-23.46,48.41-17.14,7.38,2.89,13.9,10.3,8.65,17.41-7.53,10.19-28.7,9-40,10.15-9,.89-11.6.33-16.19-4.11A38.43,38.43,0,0,1,316.87,165.32Z"/><path class="cls-4" d="M126.12,132.75c9.92,17-8,41.08-15.55,56.13a32.54,32.54,0,0,0-7.67.89c-4.29-8-8.29-19.71-9.41-26.76-1.56-9.84-.29-25.81,6-33.92C106,120.82,121.12,124.16,126.12,132.75Z"/><path class="cls-4" d="M50.64,182.16c12.25,3.53,20.29,28.62,20.7,39.86l-1.55,3.21-.61.58C54.61,220.32,43.83,207,40.21,192,38.4,184.45,41.62,179.57,50.64,182.16Z"/><path class="cls-2" d="M237.67,212.31a230.72,230.72,0,0,1,32.15-23.82c1.09-.67,2.19-1.33,3.29-2,22.57-13.21,46.25-21.29,69.81-23.35l-.3-2.79c-22.69,2-45.95,9.62-68.36,22.33C281.9,161.39,310,135.84,329.91,135l-.18-2.79c-11.66.51-26.44,8.74-39.54,22-9.86,10-16.84,21.08-19.52,30.6a220.3,220.3,0,0,0-18.42,12.25c-6.39,4.72-12.64,9.85-18.73,15.33l-3.28,3a288.85,288.85,0,0,0-36.55,41.52c-1.21-7.57-3-16.22-4.91-25.26-2.92-14-6.16-29.5-8.09-45a51,51,0,0,1,3.45-5.94c16.59-24.76,56.79-45,77.16-48.09l-.46-2.77c-20.89,3.15-62.08,23.92-79.1,49.3-.57.86-1.11,1.71-1.62,2.56-3.58-33.89,0-66.67,28.22-81.16L207,98.12c-30.81,15.84-33.66,51.82-29.23,88.08q.36,2.94.78,5.88c.74,5.19,1.6,10.35,2.53,15.44,1.55,8.52,3.29,16.83,4.93,24.65,2.13,10.2,4.16,19.91,5.34,28.06q-3.24,4.54-6.28,9.25c-.79,1.19-1.56,2.4-2.32,3.61-.49.75-1,1.51-1.44,2.27a301.79,301.79,0,0,0-25.16,50.39c-12.63-22-26.74-51.64-36.31-80.66-.33-1-.64-1.93-.94-2.89-8.89-27.76-13.41-54.7-8.32-73.59l-2.76-.76c-3.22,12-2.69,27,.3,43.46a253.29,253.29,0,0,0,7.75,30.53,108.81,108.81,0,0,1-23.12-5.61c-.22-.66-.44-1.34-.67-2-5.74-17.06-12.86-38.31-5.47-52.09l-2.52-1.34c-4.17,7.78-4.14,17.49-2.31,27.5,1.64,9,4.74,18.29,7.53,26.59-14-5.92-25.89-15.71-26.1-31H60.34a30.38,30.38,0,0,0,.49,5.14c2.63,14.43,15.36,23.67,29.6,29.23,1.12.44,2.26.86,3.4,1.24a113,113,0,0,0,23,5.23c9.93,30.55,24.9,61.8,38.05,84.41a258.16,258.16,0,0,0-12.34,45.05,198.42,198.42,0,0,0-2.13,56.87,11.72,11.72,0,0,1,2.86-.58c-3.35-30.4,1.35-64.29,13.52-98.12l.07.13,2.46-1.39c-.43-.71-.85-1.44-1.28-2.17a296.48,296.48,0,0,1,25.74-52.12q1.53-2.46,3.1-4.88c9-1.79,20.35.27,32.15,5.84q2,.94,4,2l.22.13c18.34,9.88,32.64,25.44,35.66,38.79l2.79-.57c-3-13.33-16.5-28.65-34-38.94l56.09-9-.5-2.76L223.72,277c-12.47-6.55-24.72-9.41-34.82-8.24,1.1-1.65,2.2-3.28,3.32-4.89l2.43-.25c-.1-.88-.22-1.79-.35-2.73a283.08,283.08,0,0,1,40.22-45.8,131.06,131.06,0,0,1,36.88,4.51c21.2,5.62,36.05,14.85,40.72,25.34l2.62-1.08C305.86,224,266.22,212.27,237.67,212.31Z"/><path class="cls-5" d="M515.36,769.56c-4.11-7-8-14.16-11.52-20.91l-2,1c3.57,6.77,7.45,14,11.58,21Z"/><path class="cls-5" d="M537.08,786.79c-2.39-4.24-4.73-8.61-7-12.84-4.55-8.49-9.26-17.28-14.63-25.51l-1.9,1.17c5.32,8.16,10,16.9,14.54,25.35,2.27,4.24,4.62,8.62,7,12.88Z"/><path class="cls-5" d="M562.22,806A511.65,511.65,0,0,1,527,745.41l-2,1a514,514,0,0,0,35.38,60.9Z"/><path class="cls-5" d="M583.93,824.94c-16.17-23.49-31.29-49.25-41.48-70.68l-2,.92c10.23,21.53,25.41,47.4,41.65,71Z"/><path class="cls-5" d="M565.74,775.58l2-.92c2.07,4.29,4.14,8.83,6.34,13.64,6.24,13.65,13,28.5,21.28,41.29l-2.58.1c-8-12.67-14.66-27.15-20.76-40.5C569.87,784.39,567.8,779.86,565.74,775.58Z"/><path class="cls-5" d="M587.25,793.82l2-1c.43.8,1.56,3.2,3.28,6.82,3.27,6.92,8.55,18.08,14.39,29.53l-2.43.1c-4.2-8.28-8.85-17.82-14-28.72C588.84,797.06,587.66,794.56,587.25,793.82Z"/><path class="cls-5" d="M550.92,800c-5.69-4.73-12.46-9.3-19-13.71-12.62-8.52-25.66-17.32-32-27.88l2.59-1.47c6,10,18.74,18.61,31.09,26.94,6.6,4.46,13.43,9.07,19.24,13.89,12.52,10.39,24.8,21.26,36.8,32.08l-4.24.16C574.15,819.84,562.64,809.69,550.92,800Z"/><path class="cls-5" d="M545.93,795.3a1.67,1.67,0,0,0,.3-1.3l-2.23.3a.5.5,0,0,1,.26-.42c-1.13.45-7.18-1.56-10.79-2.76-1.78-.59-3.46-1.15-4.94-1.59-25.91-7.69-45-17-58.38-28.49l-1.48,1.65c13.62,11.69,33,21.16,59.21,28.95,1.45.42,3.11,1,4.87,1.56,7.82,2.6,11.4,3.62,12.88,2.42A1.5,1.5,0,0,0,545.93,795.3Z"/><path class="cls-5" d="M557,804.69l.07-2.2c-23.65-.81-46.81-9.4-69.2-17.71-3.88-1.44-7.89-2.93-11.84-4.35l-.77,2.06c3.94,1.42,7.94,2.91,11.82,4.35C509.65,795.21,533,803.87,557,804.69Z"/><path class="cls-5" d="M568.68,815.75l.49-2.14c-4.51-1-9.47-1.88-15.16-2.66-5.31-.73-10.73-1.32-16-1.89-12.51-1.35-25.44-2.75-37.74-6.22l-.61,2.11c12.48,3.53,25.51,4.94,38.11,6.3,5.23.57,10.64,1.15,15.92,1.88C559.34,813.9,564.23,814.76,568.68,815.75Z"/><path class="cls-5" d="M578,824l.17-2.19c-6.76-.56-13.57-1.32-19.35-2-11.1-1.3-22.84-2.81-38.06-4.91-7.68-1.06-14.13-2-20.69-2.94l-.33,2.17c6.57,1,13,1.88,20.72,3,15.24,2.1,27,3.61,38.11,4.91C564.4,822.66,571.24,823.43,578,824Z"/><path class="cls-5" d="M684,823.18c0-.45,0-.92,0-1.38l-.87-.67c-9.95-7.75-24.94-20.15-33.83-28.27l1.53-1.6c6.63,6.06,16.64,14.49,25.42,21.59l1.8,1.44c2.09,1.67,4.08,3.25,5.91,4.68q-.09-4.35-.31-8.78c0-.88-.09-1.77-.14-2.66l-.09-1.5a483.22,483.22,0,0,0-39.72-29.84l1.27-1.81c8.79,5.87,20.18,14.13,30.2,22l1.83,1.45c2.16,1.73,4.24,3.43,6.2,5.08-.2-2.79-.44-5.6-.71-8.4l-.09-.76-1.36-1-41.39-29L641,762l41.14,28.86c-.55-5-1.2-9.91-2-14.82l-.12.63c-9.56-1.76-21.75-11-32.5-19.21-4.68-3.56-9.1-6.93-12.76-9.23l1.22-1.85c3.74,2.36,8.2,5.75,12.92,9.35,10.34,7.86,22,16.74,31,18.65-.82-5.14-1.75-10.22-2.79-15.18a1.09,1.09,0,0,1-1.52.11h0l-.18-.12-.34-.24-2.93-2.08c-2.67-1.89-5.37-3.85-8-5.75-9.79-7.1-19.91-14.45-30.82-19.9l1-2c11.07,5.54,21.27,12.94,31.14,20.1,2.6,1.89,5.3,3.85,8,5.73l1.7,1.21.18.13v0l1.24.9.16.12h0c-.73-3.44-1.51-6.83-2.34-10.14h0c-.31-.25-.67-.58-1.09-1-.8-.74-1.85-1.73-2.89-2.72-1.52-1.44-3.1-2.92-3.73-3.46C656,731,644.78,722.9,631.31,713.54l1.3-1.78c13.52,9.38,24.75,17.52,35.56,26.74.67.58,2.19,2,3.81,3.53l1.4,1.33q-1.77-6.66-3.79-12.82l-46.5-32.62,1.3-1.78,44,30.85h0c-1.09-3.12-2.23-6.12-3.41-9h0l-1.09-.81c-6.8-5.08-13.69-10.91-20.35-16.54-6-5.07-12.19-10.31-18.34-15l1.39-1.72c6.19,4.75,12.41,10,18.42,15.09,5.72,4.84,11.61,9.82,17.45,14.33l.37-.24h0q-1.82-3.9-3.72-7.31l-.3.18c-7.27-11.14-19.79-25.7-34.35-40l1.59-1.55a314,314,0,0,1,27.21,30h0l1-.85a60.75,60.75,0,0,1,7.5,10.92c2.27-13.08-1.84-27.46-5.2-39.2l2.17-.58c3.65,12.76,8.17,28.58,4.69,42.88h0a142.4,142.4,0,0,1,6.76,15.75h0c.45-1.31.89-2.6,1.33-3.86,4.86-14.08,8.7-25.2,6.92-39l2.24-.26c1.84,14.3-2.07,25.63-7,40-.73,2.12-1.48,4.3-2.24,6.56h0q1.25,3.66,2.42,7.51h0c7.83-12,14.58-22.48,18.27-35.67l2.18.59c-3.84,13.72-10.82,24.43-18.91,36.83l-.7,1.08h0c1,3.29,1.87,6.68,2.73,10.14,9-8.12,16.8-20.66,21.05-34.08l2.16.66A87.11,87.11,0,0,1,688,738.76a65.8,65.8,0,0,1-10,11q1.5,6.24,2.78,12.76h0c9.08-11,18.45-23.19,29.31-38l1.84,1.28-.24.33c-11.26,15.34-20.94,27.84-30.37,39.23.66,3.5,1.26,7,1.81,10.61q1.8-2.52,3.72-5.31c7.83-11.27,17.57-25.31,29.68-31l1,2c-11.56,5.46-21.12,19.22-28.8,30.29-1.79,2.57-3.48,5-5.11,7.22h0c.53,3.72,1,7.47,1.44,11.22,2.79-1.76,5.56-3.54,8.29-5.29,5.49-3.5,11.15-7.14,16.83-10.52,1.41-.85,2.7-1.48,3.84-2a18.59,18.59,0,0,0,6.52-4.51l1.69,1.47a20.74,20.74,0,0,1-7.18,5c-1.16.56-2.35,1.15-3.7,1.95-5.63,3.36-11.28,7-16.75,10.48-3.05,2-6.14,3.94-9.28,5.9l0,.3c.1,1,.2,1.94.29,2.9.3,3.18.56,6.35.76,9.5,8-5.63,15.2-10,26.15-13.29a40.19,40.19,0,0,1,4.93-1.08c2.78-.47,5.17-.87,7.76-2.62l1.29,1.81c-3,2-5.74,2.48-8.65,3a38.29,38.29,0,0,0-4.65,1c-10.48,3.19-17.52,7.36-25.18,12.76l-1.49,1c0,.21,0,.43,0,.63.19,3.49.32,7,.39,10.36,11.33-6,23.46-12.15,38.39-19.51l1,2c-15.26,7.53-27.59,13.8-39.13,19.92l-.24.12c0,.83,0,1.67,0,2.49,0,.64,0,1.27,0,1.91l-3,.11C684.05,825.14,684.05,824.16,684,823.18Z"/><path class="cls-5" d="M642.38,802.33l1.53-1.6c8.9,8,19,17,29.63,25.8l-3.32.13C660.22,818.34,650.78,809.93,642.38,802.33Z"/><path class="cls-5" d="M366.91,457.19c-2-7.67-4.33-15.34-6.56-22.49l2-.67c2.24,7.17,4.58,14.87,6.59,22.59Z"/><path class="cls-5" d="M364.34,484.07c-1.3-4.6-2.72-9.26-4.09-13.76-2.75-9.05-5.59-18.4-7.63-27.83l2-.47c2,9.33,4.85,18.64,7.59,27.64,1.37,4.52,2.79,9.19,4.1,13.81Z"/><path class="cls-5" d="M360.89,514.69A528.58,528.58,0,0,0,343,448.25l2-.72a529.35,529.35,0,0,1,17.93,66.73Z"/><path class="cls-5" d="M359.44,542.73c-5.27-27.46-12.76-55.79-20.55-77.73l1.95-.75c7.83,22,15.36,50.49,20.64,78.06Z"/><path class="cls-5" d="M357.83,575.84c-.11-20.78-8.92-44.49-16.69-65.42-1.8-4.86-3.51-9.45-5.05-13.86l2-.75c1.54,4.4,3.24,9,5,13.83,7.83,21.1,16.71,45,16.82,66.19Z"/><path class="cls-5" d="M358.21,610.39,357,608.62c1.09-.82,2.77-5.65-5.2-32.7-4.9-16.61-11.5-35.1-15.05-45-1.32-3.7-2.2-6.14-2.45-7l2-.64c.24.8,1.15,3.35,2.41,6.88C357.43,582.58,363.27,606.59,358.21,610.39Z"/><path class="cls-5" d="M356.57,644.81a2.15,2.15,0,0,1-1.26-1c-.26-.35-.57-.78-.86-.87l.55-2.1a2.63,2.63,0,0,1,1,.55c-3.81-14-9.66-27.88-15.33-41.38-4.81-11.45-9.79-23.29-13.53-35.16l2-.68c3.71,11.77,8.66,23.56,13.46,35,5.9,14,12,28.57,15.84,43.17l.07.3-.08.3c-.23.85-.55,1.77-1.41,1.93A1.25,1.25,0,0,1,356.57,644.81Z"/><path class="cls-5" d="M352.48,673.07c-1.8-17.6-10.79-33.5-19.49-48.87-2.91-5.15-5.93-10.48-8.6-15.76l1.84-1c2.65,5.24,5.65,10.54,8.56,15.67,8.81,15.58,17.92,31.68,19.76,49.75Z"/><path class="cls-5" d="M348.15,695.54c-2.49-6.24-5.27-12.49-8-18.54-4.49-10.07-9.13-20.5-12.58-31.26l2-.69c3.41,10.65,8,21,12.49,31,2.71,6.06,5.5,12.33,8,18.62Z"/><path class="cls-5" d="M343.51,716.86c-1.36-4.31-3-8.87-5.1-14.35-2.57-6.65-5.52-13.28-8.38-19.69-3.19-7.16-6.49-14.55-9.28-22l1.95-.79c2.76,7.41,6,14.78,9.22,21.9,2.87,6.44,5.83,13.1,8.42,19.8,2.14,5.52,3.77,10.12,5.15,14.48Z"/><path class="cls-5" d="M341.28,746.12c-7.5-19.62-16-38.71-24-56.43l1.89-.93c8.06,17.75,16.55,36.88,24.08,56.55Z"/><path class="cls-5" d="M337.67,770.23c-1.86-4.74-3.66-9.42-5.8-15l-1.5-3.93c-6.19-16.15-12.59-32.86-19.79-48.85l1.88-.93c7.23,16.06,13.64,32.79,19.84,49l1.51,3.93c2.13,5.55,3.93,10.22,5.78,14.95Z"/><path class="cls-5" d="M335.14,786.27c-1.48-3.56-3.21-7.37-5.27-11.65-2.14-4.44-4.49-8.9-6.76-13.21-3.8-7.23-7.74-14.71-10.89-22.43l1.92-.86c3.1,7.62,7,15.06,10.8,22.24,2.27,4.33,4.63,8.8,6.79,13.28,2.08,4.31,3.82,8.16,5.32,11.76Z"/><path class="cls-5" d="M332.88,814.38c-1.53-4.15-3.32-8.6-5.46-13.61-2.41-5.64-5-11.33-7.5-16.83-4.48-9.85-9.12-20-12.92-30.4l1.94-.78c3.78,10.3,8.4,20.44,12.86,30.24,2.51,5.52,5.11,11.22,7.53,16.89,2.15,5,3.95,9.53,5.5,13.71Z"/><path class="cls-5" d="M323.34,819.47c1.67,3.88,3.1,7.46,4.36,10.88l2.25,0c-1.35-3.71-2.89-7.59-4.71-11.81-3.25-7.56-6.9-15.05-10.43-22.3s-7.3-15-10.58-22.68l-1.91.88c3.31,7.73,7,15.38,10.64,22.78C316.47,804.49,320.11,812,323.34,819.47Z"/><path class="cls-5" d="M315,830.14c-2.22-5.91-4.44-12-6.4-18.11l-2,.69c1.88,5.91,4,11.72,6.13,17.39Z"/><path class="cls-5" d="M331.61,830.42q5.49-38,10.81-75.58c3.7-26,7.52-52.78,11.32-79.1,5.16-35.66,6.3-71.93,7.41-107,.68-21.63,1.39-44,3-66,.54-7.19,1.88-15,3.18-22.56,2.51-14.57,5.1-29.64,2.11-41.33l-2.68.74c2.82,11.07.29,25.81-2.16,40.07-1.31,7.62-2.67,15.51-3.22,22.85-1.64,22.07-2.35,44.46-3,66.12-1.1,35-2.24,71.19-7.38,106.68-3.8,26.32-7.62,53.15-11.32,79.11q-5.37,37.77-10.86,76Z"/><path class="cls-5" d="M364.29,496.06a1.69,1.69,0,0,1-1.08-.7l1.67-1.32a.48.48,0,0,0-.45-.12c1-.45,3.64-6,5.19-9.29.76-1.63,1.49-3.17,2.16-4.49,11.75-23.07,18-42.63,19-59.78l2.08.14c-1,17.47-7.3,37.32-19.19,60.67-.66,1.29-1.37,2.81-2.13,4.42-3.36,7.16-5,10.31-6.79,10.49A1.4,1.4,0,0,1,364.29,496.06Z"/><path class="cls-5" d="M363.38,510.19l-1.53-1.49c14.92-16.72,24.26-38.54,33.3-59.65,1.56-3.65,3.18-7.43,4.8-11.12l1.9.91c-1.62,3.68-3.24,7.46-4.8,11.11C388,471.22,378.53,493.21,363.38,510.19Z"/><path class="cls-5" d="M363.21,525.9l-1.76-1.17c2.26-3.78,4.92-7.78,8.11-12.21,3-4.14,6.13-8.26,9.18-12.24,7.26-9.49,14.78-19.3,20.47-30.12l1.83,1c-5.78,11-13.35,20.88-20.67,30.44-3,4-6.18,8.07-9.14,12.18C368.07,518.22,365.45,522.17,363.21,525.9Z"/><path class="cls-5" d="M362.65,538l-1.59-1.41c4-5,8-10.19,11.3-14.61,6.39-8.48,13-17.56,21.57-29.43,4.31-6,7.92-11,11.55-16.19l1.68,1.29c-3.64,5.18-7.25,10.23-11.56,16.22-8.54,11.88-15.2,21-21.6,29.46C370.67,527.8,366.71,533,362.65,538Z"/><path class="cls-5" d="M362.15,553.65l-1.58-1.43a7.22,7.22,0,0,0,.91-1.45,15.23,15.23,0,0,1,.95-1.61l.07-.08c8.74-10.39,16.67-21.15,24.33-31.55,5.16-7,10.49-14.26,16.07-21.38l1.61,1.38c-5.56,7.1-10.88,14.34-16,21.33-7.67,10.42-15.6,21.2-24.38,31.62a13.44,13.44,0,0,0-.79,1.34A9.63,9.63,0,0,1,362.15,553.65Z"/><path class="cls-5" d="M362.09,569.72l-1.73-1.21c7-10.94,14.58-21.4,22-31.52,4.14-5.67,8.42-11.54,12.49-17.38l1.69,1.29c-4.09,5.86-8.38,11.74-12.52,17.42C376.62,548.41,369,558.84,362.09,569.72Z"/><path class="cls-5" d="M360.12,592.47l-1.61-1.39c3.12-4,6.12-7.9,8.91-11.65a341.6,341.6,0,0,0,27.8-43.23l1.82,1.06a342.38,342.38,0,0,1-28,43.51C366.26,584.54,363.25,588.47,360.12,592.47Z"/><path class="cls-5" d="M359,608.62l-1.74-1.21c7.58-12,16.29-23.43,24.72-34.5,5.72-7.52,11.64-15.3,17.19-23.23l1.68,1.3c-5.57,8-11.5,15.75-17.24,23.29C375.16,585.3,366.48,596.71,359,608.62Z"/><path class="cls-5" d="M359.35,621.56l-1.62-1.37c2.58-3.38,5.38-6.93,8.79-11.17,2.47-3.09,5-6.16,7.46-9.23,7.9-9.72,16.07-19.78,23.51-30.15l1.67,1.31c-7.48,10.43-15.67,20.51-23.59,30.26-2.49,3.07-5,6.13-7.46,9.21C364.71,614.66,361.93,618.2,359.35,621.56Z"/><path class="cls-5" d="M360.05,631l-1.45-1.57c17.82-18,31-33.42,41.58-48.5l1.69,1.3C391.24,597.42,378,612.92,360.05,631Z"/><path class="cls-5" d="M359.56,644.49a1.76,1.76,0,0,1-.3-.1,1.18,1.18,0,0,1-.66-1.3,3.7,3.7,0,0,1,1.89-2.16c.27-.37.59-.84,1-1.42,6.52-10,19.76-23.09,30.4-33.57,4.37-4.31,8.14-8,10.66-10.77l1.5,1.51c-2.55,2.79-6.34,6.52-10.73,10.85-10.57,10.41-23.71,23.37-30.1,33.21-.37.56-.69,1-1,1.46l0,.46a1.85,1.85,0,0,0-.41.07C360.63,644.29,360,644.57,359.56,644.49Z"/><path class="cls-5" d="M356.18,657.62l-1.45-1.57c6-6.1,12.2-11.8,18.2-17.31,7.9-7.25,15.36-14.09,22.35-21.76l1.51,1.51c-7.06,7.73-14.55,14.61-22.48,21.9C368.33,645.88,362.14,651.56,356.18,657.62Z"/><path class="cls-5" d="M354.37,674.85,353,673.19c12.21-10.86,23.38-23.2,34.7-36l1.53,1.49C377.88,651.52,366.66,663.91,354.37,674.85Z"/><path class="cls-5" d="M352.25,686.37l-1.19-1.79a256.47,256.47,0,0,0,39.85-36.16l1.52,1.5A258.73,258.73,0,0,1,352.25,686.37Z"/><path class="cls-5" d="M350.7,698.23l-1.26-1.74c2.85-2.26,5.78-4.51,8.61-6.69,11.06-8.49,22.5-17.27,31.29-28.63l1.62,1.38c-9,11.57-20.5,20.44-31.67,29C356.46,693.73,353.54,696,350.7,698.23Z"/><path class="cls-5" d="M347.26,721.07l-1.36-1.65c2.84-2.55,5.73-5,8.69-7.44l.66-.56c9.92-8.26,20.17-16.8,26.75-28.33l1.79,1.13c-6.78,11.86-17.18,20.53-27.23,28.91l-.67.55C353,716.14,350.07,718.55,347.26,721.07Z"/><polygon class="cls-5" points="339.62 776.96 338.33 775.25 373.98 745.72 375.27 747.43 339.62 776.96"/><path class="cls-5" d="M336.56,796.86,335.42,795c11-7.55,21.25-16.53,31.18-25.22q3.38-3,6.76-5.89l1.33,1.68c-2.26,1.95-4.5,3.92-6.75,5.88C358,780.21,347.65,789.24,336.56,796.86Z"/><path class="cls-5" d="M334.88,809.88l-.84-2c17-7.87,28.86-15.63,38.33-25.17l1.45,1.57C364.17,794,352.16,801.9,334.88,809.88Z"/><path class="cls-5" d="M331.18,830.41c7.14-2.73,14-6.54,20.55-10.23,7.64-4.28,15.54-8.69,23.87-11.38l-.62-2.08c-8.52,2.74-16.51,7.21-24.23,11.53-6.65,3.72-13.51,7.56-20.64,10.25l.66,1.9Z"/><path class="cls-5" d="M355.55,644.59a21.83,21.83,0,0,1-8.81.84,34.89,34.89,0,0,1-5.95-1.11,48.23,48.23,0,0,1-6-2.14l.68-.25c-1.59-4.64-2.56-15.72-3.42-25.49-.33-3.77-.64-7.32-1-10.24l-2.07.25c.32,2.89.63,6.43,1,10.18.8,9.17,1.71,19.46,3.16,24.83h0c-1.31-.6-2.64-1.27-4-2-.74-.4-1.49-.82-2.23-1.25-2.06-1.2-4.17-2.53-6.33-4,1-7.22,1.77-14.49,2.53-21.59.35-3.31.7-6.62,1.08-9.93l-2.07-.27q-.55,5-1.08,10c-.72,6.75-1.45,13.65-2.38,20.5-.71-.51-1.42-1-2.14-1.57l-1.83-1.39-1.85-1.46h0c.93-6.83,1.33-13.78,1.72-20.55.59-10.23,1.2-20.8,3.6-30.88l-2-.53c-2.47,10.27-3.08,20.94-3.67,31.26-.37,6.32-.74,12.79-1.54,19.16-2.41-2-4.84-4.12-7.27-6.35l-1-.89.12-1.12c1.88-18,2.67-36.09,3.18-51.67l-2.08-.08c-.51,15.41-1.28,33.3-3.13,51.07q-4-3.79-8-8l-.92-1c0-.35.08-.71.11-1.07,1.29-12.21,2.72-31.11,3.06-42.86l-2.09-.08c-.24,8.76-1.1,21.5-2.06,32.46-.06.75-.13,1.5-.19,2.23-.24,2.6-.48,5.06-.71,7.31q-2.88-3.1-5.72-6.35c-.57-.64-1.14-1.3-1.7-1.95-.31-.37-.64-.74-.95-1.12.88-14.44,3.43-34.3,5.84-48l-2.05-.4c-1.79,10.11-3.67,23.66-4.89,36-.08.76-.15,1.51-.22,2.26-.25,2.68-.46,5.3-.63,7.79-1.75-2.09-3.49-4.22-5.2-6.37l-.45-.58.24-1.6,7.48-48.57-2.06-.35L272.26,586q-4.49-5.76-8.71-11.69l.5.36c5.06-7.77,6.78-22.57,8.29-35.64.66-5.68,1.28-11,2.12-15.16l-2-.46c-.86,4.2-1.48,9.62-2.15,15.36-1.45,12.56-3.11,26.74-7.67,34.2-2.93-4.15-5.75-8.34-8.42-12.52.68.06.94-.42,1.07-1h0a1.88,1.88,0,0,1,0-.2l.06-.4.51-3.46c.47-3.14.92-6.36,1.35-9.47,1.61-11.65,3.27-23.7,6.72-35l-2-.67c-3.51,11.43-5.19,23.57-6.81,35.31-.43,3.11-.87,6.32-1.34,9.45l-.3,2,0,.21h0l-.21,1.47a1.12,1.12,0,0,0,0,.2h0q-2.78-4.37-5.31-8.69h0c0-.39,0-.87.06-1.42,0-1.07,0-2.48.06-3.88,0-2.05.06-4.15.1-5,.85-13.74,2.69-27,5.19-42.77l-2.05-.36c-2.51,15.8-4.37,29.16-5.22,43,0,.86-.07,2.91-.1,5.07,0,.59,0,1.25,0,1.89q-3.33-5.88-6.16-11.55l8.4-54.57-2.06-.35L238.18,532h0q-2.1-4.4-3.81-8.59h0l.16-1.32c1-8.19,1.59-17,2.15-25.46.5-7.63,1-15.52,1.85-23l-2.07-.26c-.84,7.55-1.36,15.47-1.86,23.13-.48,7.29-1,14.79-1.74,21.93l-.41.09h0c-1-2.64-1.81-5.2-2.5-7.65l.31-.07c-2.76-12.76-4.39-31.49-4.49-51.4h-2.08a320.5,320.5,0,0,0,2.46,39.57h0l-1.22.09a63.3,63.3,0,0,0,2.46,12.75c-10.3-7.59-17.31-20.45-23-30.95l-1.81,1.08c6.21,11.41,13.93,25.56,25.84,33.17h0a146.19,146.19,0,0,0,6.21,15.63h0l-3.46-1.79c-12.68-6.52-22.69-11.67-30.84-22.52l-1.64,1.34c8.44,11.25,18.64,16.5,31.56,23.14,1.9,1,3.87,2,5.89,3h0q1.65,3.42,3.48,6.91h0c-13.22-3-24.69-5.75-36-12.45l-1,1.9c11.76,7,23.54,9.68,37.19,12.82l1.19.27h0q2.38,4.42,5.06,8.95c-11.38.48-24.92-3-36.75-9.44l-1,1.94a81.67,81.67,0,0,0,25,8.79,60.42,60.42,0,0,0,14,.82q3.22,5.39,6.79,10.81h0c-13.38-1.51-27.7-3.6-44.79-6.53l-.33,2.16.38.06c17.71,3,32.46,5.16,46.31,6.68,1.93,2.89,3.93,5.78,6,8.65q-2.88-.54-6-1.17c-12.72-2.53-28.56-5.68-40.32-1.41l.68,2.07c11.24-4.09,26.77-1,39.25,1.49,2.9.57,5.66,1.12,8.22,1.55h0c2.16,3,4.37,5.92,6.63,8.82-3,.69-6,1.33-9,2-5.95,1.29-12.1,2.62-18.1,4.13-1.49.38-2.76.82-3.88,1.21a17,17,0,0,1-7.31,1.3l-.11,2.18a18.68,18.68,0,0,0,8.08-1.41c1.13-.4,2.31-.8,3.72-1.16,6-1.5,12.09-2.83,18-4.12,3.3-.71,6.67-1.44,10-2.21l.18.23,1.77,2.22c1.95,2.43,3.91,4.82,5.91,7.16-9,1.51-16.66,3.43-26.06,8.57a35.15,35.15,0,0,0-4,2.62c-2.13,1.56-4,2.92-6.84,3.47l.38,2.14c3.32-.64,5.43-2.19,7.66-3.82a33.35,33.35,0,0,1,3.72-2.47c9-4.93,16.41-6.83,25.07-8.29l1.68-.27.4.46q3.33,3.86,6.73,7.51c-11.45,3.55-23.53,7.53-38.25,12.58l.65,2.07c15.05-5.16,27.34-9.2,39-12.81l.24-.08c.56.59,1.11,1.18,1.67,1.75,2.64,2.75,5.29,5.4,7.94,7.9-11.26,6-29.12,12.06-39.92,13.16l.2,2.17c11-1.11,29.05-7.22,40.58-13.34l.8-.43c.4.39.81.76,1.22,1.13,2.74,2.5,5.46,4.86,8.16,7,.54.45,1.08.88,1.62,1.3-.68.41-1.35.82-2,1.21-10.62,6.27-22.14,11.63-34.9,12.72l.17,2.18c12.6-1.08,23.93-6.15,34.38-12.19l2.22-1.31c.67-.4,1.33-.79,2-1.2h0c1.13.87,2.24,1.69,3.35,2.48q.47.35.93.66c.65.45,1.29.9,1.92,1.31q1.95,1.32,3.84,2.47c-1.53.84-3.07,1.69-4.62,2.52l-1.81,1c-9.76,5.13-19.9,9.52-30.91,9.28l0,2.18c14.09.31,26.54-6.53,38.59-13.13l1-.53a68.2,68.2,0,0,0,9.28,4.51c-9.88,2.62-19.19,6.5-28.56,10.59l.8,2c10.33-4.5,20.56-8.75,31.53-11.3a38.61,38.61,0,0,0,4.71,1.13,25.94,25.94,0,0,0,12.5-.66Z"/><path class="cls-5" d="M586.75,482.63c-28,9.25-42.35,36.28-56.24,62.43-3.47,6.52-6.74,12.68-10.23,18.57-23.15,39.17-49.18,71.08-89.84,110.17-29.38,28.25-58.94,55-89.21,81.74-.12,1.39-.26,2.78-.4,4.17,31.06-27.4,61.36-54.79,91.5-83.76,40.86-39.28,67-71.38,90.32-110.78,3.51-5.95,6.8-12.14,10.28-18.69,13.64-25.65,27.74-52.18,54.67-61.07Z"/><path class="cls-5" d="M550.87,511.68c13.14-5,27-10.58,39.45-18.37l1.07,1.88c-12.59,7.88-26.56,13.48-39.8,18.54Z"/><path class="cls-5" d="M546.27,518.45c4.93-1.62,9.92-3.49,14.75-5.3,6.19-2.32,12.59-4.72,19.13-6.71l.59,2.1c-6.48,2-12.85,4.35-19,6.66-4.84,1.82-9.85,3.69-14.82,5.33Z"/><path class="cls-5" d="M539.41,529.25c6.54-3.06,13.69-4.74,20.61-6.37a125.41,125.41,0,0,0,16.36-4.62l.73,2a128,128,0,0,1-16.63,4.7c-6.82,1.6-13.86,3.26-20.22,6.23Z"/><path class="cls-5" d="M532.32,540.82c7.42-2.28,15-4.41,22.34-6.48,5.61-1.58,11.41-3.22,17.1-4.9l.57,2.1c-5.7,1.69-11.5,3.32-17.12,4.9-7.33,2.07-14.9,4.2-22.3,6.47Z"/><path class="cls-5" d="M529.85,549.66l-.49-2.12c3.77-.94,7.64-1.75,11.39-2.52,8.23-1.71,16.74-3.47,24.56-6.86l.8,2c-8,3.47-16.62,5.25-25,7C537.43,547.93,533.58,548.73,529.85,549.66Z"/><polygon class="cls-5" points="523.07 564.95 522.5 562.85 560.18 551.69 560.75 553.79 523.07 564.95"/><path class="cls-5" d="M522.83,572.66l-.5-2.12,1.94-.49c12.14-3.1,24.69-6.3,36.44-11.27l.79,2c-11.89,5-24.52,8.24-36.73,11.36Z"/><path class="cls-5" d="M509.73,581.93l-.53-2.11c8.27-2.25,16.71-4.41,24.87-6.5q7.73-2,15.44-4l.51,2.12c-5.15,1.35-10.3,2.66-15.45,4C526.42,577.53,518,579.69,509.73,581.93Z"/><path class="cls-5" d="M503.19,593.34l-.52-2.12c13.86-3.71,27.36-7.48,40.12-12.81l.78,2C530.7,585.82,517.12,589.61,503.19,593.34Z"/><path class="cls-5" d="M481.48,624.28l-.52-2.12c6.49-1.76,13.13-3.43,19.54-5,9.87-2.48,20.07-5.06,30-8l.58,2.1c-10,3-20.19,5.55-30.08,8C494.59,620.85,488,622.52,481.48,624.28Z"/><path class="cls-5" d="M469.67,637.52l-.35-2.15c13.18-2.28,26.52-5,39.43-7.58,7-1.4,14.14-2.86,21.23-4.23l.39,2.15c-7.08,1.37-14.27,2.82-21.23,4.22C496.23,632.54,482.87,635.24,469.67,637.52Z"/><path class="cls-5" d="M456.67,651.33l-.27-2.16,1.81-.23c1.36-.17,2.77-.35,4.14-.57l.32,2.16c-1.4.22-2.83.4-4.2.57Z"/><path class="cls-5" d="M457.38,650.52l-.49-2.12a187.94,187.94,0,0,1,23.4-3.76c9.8-1.14,19.94-2.33,29.48-5.55l.65,2.08c-9.75,3.28-20,4.48-29.89,5.64A187.39,187.39,0,0,0,457.38,650.52Z"/><path class="cls-5" d="M449.51,659.22l-.31-2.15c6.33-1,12.8-1.79,19.06-2.55,13-1.58,26.49-3.21,39.35-6.84l.55,2.11c-13,3.66-26.56,5.31-39.66,6.9C462.26,657.45,455.81,658.23,449.51,659.22Z"/><path class="cls-5" d="M439.07,669.92l-.31-2.16c6.36-1,12.87-1.58,19.16-2.19,11.07-1.08,22.51-2.18,33.44-5.12l.52,2.12c-11.09,3-22.61,4.09-33.76,5.17C451.85,668.35,445.37,669,439.07,669.92Z"/><path class="cls-5" d="M426.78,682.83l-.21-2.18c19.35-2,38.49-6,57-9.94l.42,2.14C465.43,676.78,446.23,680.83,426.78,682.83Z"/><path class="cls-5" d="M403.88,700.59l-.34-2.15c21.28-3.59,42-9,59.39-13.83l.54,2.11C446,691.55,425.24,697,403.88,700.59Z"/><path class="cls-5" d="M389.66,714.06l.31-2.16c17.16,2.83,34.36-.68,51.14-10.45l1,1.91C424.93,713.36,407.28,717,389.66,714.06Z"/><path class="cls-5" d="M375.45,728.27l-.28-2.16c4.69-.66,9.47-1.26,14.09-1.84,14.16-1.78,28.8-3.62,42.83-7.37l.52,2.11c-14.16,3.79-28.87,5.64-43.1,7.43C384.9,727,380.13,727.61,375.45,728.27Z"/><path class="cls-5" d="M361.27,740.09l-.12-2.18c19.49-1.12,39.16-3.27,56.08-5.19l.23,2.17C400.52,736.81,380.81,739,361.27,740.09Z"/><path class="cls-5" d="M560.93,499.48v-.09c.27-6.72.55-13.67,2.14-20.34l2,.53c-1.54,6.46-1.82,13.3-2.08,19.91v.09Z"/><path class="cls-5" d="M550.5,511.86c.06-3.73-.06-7.52-.18-11.2-.12-3.92-.25-8-.16-12l2.08.06c-.08,3.94,0,8,.17,11.86.11,3.7.23,7.52.17,11.3Z"/><path class="cls-5" d="M540.07,528c.69-6.38,1.26-12.89,1.81-19.18.41-4.61.82-9.38,1.29-14.06l2.07.23c-.46,4.67-.88,9.43-1.28,14-.55,6.31-1.12,12.83-1.82,19.23Z"/><path class="cls-5" d="M526.37,551.82c5.91-6.09,4.61-23.51,3.75-35-.18-2.41-.35-4.7-.44-6.57l2.09-.09c.08,1.83.25,4.1.43,6.5.94,12.64,2.23,30-4.36,36.76Z"/><path class="cls-5" d="M518.49,566.32c4.89-3.3,1.33-21.36-1.27-34.55-1.29-6.55-2.41-12.2-2.61-16l2.08-.11c.19,3.61,1.35,9.45,2.57,15.64,3,15.34,6.45,32.71.36,36.82Z"/><path class="cls-5" d="M510.44,578c4.21-8.72,2.33-22.38.52-35.59-1.2-8.79-2.34-17.08-1.82-24.1l2.08.18c-.5,6.77.62,14.95,1.81,23.61,1.85,13.55,3.77,27.56-.73,36.89Z"/><path class="cls-5" d="M499.61,595.4c7.58-6.94,5.52-29.92,4.28-43.64-.26-2.94-.49-5.47-.61-7.57l2.08-.13c.12,2.07.35,4.58.61,7.5,1.35,15.05,3.39,37.81-5,45.49Z"/><path class="cls-5" d="M493,603.83c2.37-18.12.49-36.72-1.33-54.7l2.07-.24-1,.11,1-.1c1.84,18.12,3.73,36.85,1.33,55.24Z"/><path class="cls-5" d="M486.93,611.26c2.22-13.09-.72-25.92-3.83-39.51-.34-1.47-.67-2.94-1-4.41l0-.16c-.08-1.13-.26-2.32-.44-3.57a29.59,29.59,0,0,1-.4-8.51l2.06.34a27.73,27.73,0,0,0,.4,7.84c.19,1.27.36,2.46.46,3.65.32,1.44.65,2.88,1,4.32,3,13.2,6.14,26.86,3.85,40.4Z"/><path class="cls-5" d="M476.39,624.5c4.42-4.55,2.17-21.6-6.72-50.69-.63-2-.91-3-1-3.38l2-.45c.06.32.45,1.58.93,3.17,5.92,19.37,13,45.93,6.2,52.91Z"/><path class="cls-5" d="M460.68,599.45q-1.8-6.63-2.94-13.16l2.05-.39c2.47,14.27,7.36,28.76,14.94,44.32l-1.86,1A181.64,181.64,0,0,1,460.68,599.45Z"/><path class="cls-5" d="M451,600.93c-.39-1.44-.76-2.87-1.11-4.3l2-.53a182.38,182.38,0,0,0,9.68,28.63l.05.14c1.5,5.51,3.05,11.2,4.52,16.47l-2,.61c-1.47-5.26-3-10.93-4.51-16.41A190.78,190.78,0,0,1,451,600.93Z"/><path class="cls-5" d="M444.53,615.83l2-.71c1.79,5.36,3.95,10.72,6.05,15.9,1.26,3.12,2.57,6.34,3.78,9.54s2.19,5.88,3,8.31l-2,.74c-.84-2.41-1.77-5-3-8.25s-2.5-6.39-3.76-9.49C448.52,626.65,446.34,621.26,444.53,615.83Z"/><path class="cls-5" d="M437.72,638.3a139.46,139.46,0,0,1-3.28-14.91l2.06-.34c1.57,10.07,4.68,20,7.69,29.51.78,2.46,1.55,4.91,2.3,7.37l-2,.66c-.74-2.45-1.52-4.9-2.29-7.35C440.67,648.34,439.1,643.36,437.72,638.3Z"/><path class="cls-5" d="M426.25,643.51l2-.7c2.91,8.89,5.76,17.92,8.48,26.85l-2,.66C432,661.4,429.15,652.38,426.25,643.51Z"/><path class="cls-5" d="M421.26,668.76A112.17,112.17,0,0,1,418,652.09l2.07-.26a125.49,125.49,0,0,0,7,28.1l-1.95.76C423.57,676.57,422.31,672.61,421.26,668.76Z"/><path class="cls-5" d="M414.8,679.57q-1.44-5.3-2.87-10.57c-1-3.63-2-7.24-3-10.89l2-.59q1.48,5.44,3,10.89,2.55,9.4,5.13,18.81l-2,.6Q415.92,683.7,414.8,679.57Z"/><path class="cls-5" d="M408.22,694.91c-2.81-11.44-5.94-23.13-9.89-36.81l2-.63c3.95,13.71,7.1,25.44,9.9,36.9Z"/><path class="cls-5" d="M398.11,703.74a205.14,205.14,0,0,1-4.84-36.47l2.08-.09a201.47,201.47,0,0,0,4.79,36.06Z"/><path class="cls-5" d="M387.76,713.58c-.57-3.57-1.42-7.15-2.32-11a107.36,107.36,0,0,1-3.11-17.29l2.08-.15a105.7,105.7,0,0,0,3.06,16.92c.87,3.67,1.77,7.46,2.35,11.11Z"/><path class="cls-5" d="M377.34,723c.2-7.34-.83-14.75-1.83-21.91-.69-4.93-1.4-10-1.71-15.1l2.08-.13c.3,5,1,10,1.69,14.92,1,7.25,2.06,14.76,1.85,22.29Z"/><path class="cls-5" d="M367.68,730.89c-.59-7.34-1.49-14.78-2.37-22-.47-3.83-.95-7.79-1.38-11.69L366,697c.43,3.89.91,7.85,1.38,11.67.88,7.21,1.79,14.68,2.38,22.07Z"/><path class="cls-5" d="M647.32,599.28c-7,1.52-13.58,3-20.11,4.05-42,7-80.94,7.5-133.09,1.55-.05,1-.12,1.93-.18,2.9,52.36,6,91.45,5.48,133.71-1.58,6.6-1.1,13.23-2.54,20.25-4.07,27.47-6,55.89-12.14,80,3.34l1.45-2.48C704.3,586.9,675.33,593.2,647.32,599.28Z"/><path class="cls-5" d="M684.8,593.58C697.07,600.7,710.19,608,724,612.79l-.65,2.07c-14-4.81-27.18-12.2-39.53-19.37Z"/><path class="cls-5" d="M676.89,594.37c4.42,2.84,9,5.56,13.52,8.2,5.74,3.38,11.68,6.88,17.41,10.76l-1.13,1.83c-5.68-3.84-11.59-7.33-17.3-10.69-4.49-2.65-9.14-5.38-13.59-8.25Z"/><path class="cls-5" d="M664.59,596c6.51,3.17,12.42,7.73,18.13,12.14a132.39,132.39,0,0,0,14.09,9.92l-1,1.91a132.91,132.91,0,0,1-14.32-10.08c-5.63-4.34-11.45-8.83-17.78-11.92Z"/><path class="cls-5" d="M651.58,597.94c6.52,4.39,13,9,19.36,13.44,4.82,3.41,9.81,6.93,14.76,10.32l-1.14,1.83c-5-3.41-9.95-6.93-14.78-10.34-6.31-4.44-12.83-9-19.32-13.41Z"/><path class="cls-5" d="M643.58,601.77l1.21-1.77c3.15,2.36,6.28,4.9,9.3,7.35,6.63,5.4,13.5,11,21.08,14.95l-.93,2c-7.76-4.07-14.71-9.72-21.43-15.18C649.81,606.63,646.7,604.11,643.58,601.77Z"/><polygon class="cls-5" points="628.09 606.39 629.22 604.57 662.03 627.08 660.89 628.9 628.09 606.39"/><path class="cls-5" d="M607.06,606.93l1.17-1.79c7.06,5.07,14.16,10.33,21,15.42q6.5,4.82,13,9.61L641.09,632c-4.36-3.19-8.69-6.4-13-9.61C621.2,617.25,614.1,612,607.06,606.93Z"/><path class="cls-5" d="M594.53,609.21l1.18-1.8c11.79,8.55,23.38,16.76,35.61,23.37l-1,1.94C618,626.05,606.37,617.79,594.53,609.21Z"/><path class="cls-5" d="M583.22,612.36l1.19-1.79c11.74,8.55,22.4,16.13,33.94,22.27l-.94,1.94C605.75,628.59,595,621,583.22,612.36Z"/><path class="cls-5" d="M570.13,612.35l1.23-1.76,4.83,3.7c11.54,8.86,23.47,18,36.17,25.4l-1,1.91c-12.81-7.45-24.8-16.65-36.39-25.55Z"/><path class="cls-5" d="M557.93,612.25l1.18-1.8c5.54,4,11.11,8.14,16.49,12.16,8.27,6.18,16.83,12.57,25.49,18.48L600,642.91c-8.69-5.93-17.27-12.33-25.56-18.52C569,620.37,563.46,616.23,557.93,612.25Z"/><path class="cls-5" d="M540.6,611.56l1.33-1.68c10.3,8.93,21,17.72,31.37,26.23,5.59,4.58,11.36,9.32,17,14l-1.29,1.7c-5.64-4.7-11.41-9.44-17-14C561.65,629.31,550.93,620.51,540.6,611.56Z"/><path class="cls-5" d="M522.1,610.29l1.39-1.62,1.35,1.28c1,1,2.07,2,3.13,2.91l-1.35,1.66c-1.08-1-2.15-2-3.18-2.95Z"/><path class="cls-5" d="M523.15,610.33l1.21-1.77a197.84,197.84,0,0,1,18.08,16.05c7.27,7,14.79,14.24,23.38,19.69l-1.08,1.86C556,640.6,548.38,633.29,541,626.21A197,197,0,0,0,523.15,610.33Z"/><path class="cls-5" d="M511.7,609.79l1.35-1.66c4.88,4.36,9.7,9,14.36,13.41,9.69,9.27,19.72,18.85,30.79,26.66L557,650c-11.19-7.9-21.27-17.54-31-26.86C521.36,618.71,516.55,614.12,511.7,609.79Z"/><path class="cls-5" d="M700.22,593.58l.07-.06c5-4.18,10.23-8.49,16.09-11.59l1,2c-5.68,3-10.79,7.24-15.74,11.35l-.07.06Z"/><path class="cls-5" d="M684.43,593.41c2.73-2.39,5.39-5,8-7.45,2.75-2.66,5.59-5.41,8.54-8l1.33,1.69c-2.9,2.5-5.73,5.23-8.45,7.87s-5.28,5.1-8.05,7.52Z"/><path class="cls-5" d="M665.92,595.71c5.06-3.62,10.13-7.42,15-11.09,3.59-2.7,7.3-5.48,11-8.17l1.2,1.79c-3.68,2.68-7.39,5.46-11,8.15-4.91,3.68-10,7.49-15.07,11.12Z"/><path class="cls-5" d="M639.73,600.43c8.28.69,20-11.72,27.76-19.92,1.62-1.73,3.16-3.35,4.46-4.64l1.43,1.59c-1.27,1.26-2.8,2.87-4.41,4.58-8.51,9-20.16,21.33-29.4,20.56Z"/><path class="cls-5" d="M624.09,603.66c5.59,1.71,16.29-12.9,24.1-23.57,3.88-5.29,7.23-9.87,9.82-12.49l1.45,1.58c-2.48,2.5-5.94,7.23-9.61,12.24-9.09,12.41-19.38,26.47-26.34,24.34Z"/><path class="cls-5" d="M570.91,608.06c10.9-6.8,18.24-17.5,26-28.84.84-1.22,1.67-2.45,2.52-3.67l.1-.12c.76-.81,1.51-1.72,2.29-2.69a27.73,27.73,0,0,1,5.88-5.87l1.11,1.86a25.52,25.52,0,0,0-5.4,5.43c-.79,1-1.54,1.89-2.34,2.74l-2.47,3.6c-7.55,11-15.36,22.4-26.63,29.43Z"/><path class="cls-5" d="M554.42,608.36c6.19.54,17-12.39,32.18-38.41,1.07-1.84,1.55-2.66,1.8-3l1.66,1.32c-.19.27-.85,1.39-1.68,2.82-10.1,17.33-24.62,40.27-34.12,39.45Z"/><path class="cls-5" d="M562.19,579.59c2.4-3.85,4.92-7.48,7.58-10.93l1.62,1.37c-8.68,11.28-15.94,24.61-22.19,40.76l-1.93-.83A178.57,178.57,0,0,1,562.19,579.59Z"/><path class="cls-5" d="M554.79,572.92q1.17-1.86,2.37-3.68l1.71,1.25a179.62,179.62,0,0,0-14.31,26.35l-.07.14c-3,4.78-6.08,9.72-8.92,14.33l-1.75-1.18c2.83-4.6,5.91-9.52,8.88-14.29A186.77,186.77,0,0,1,554.79,572.92Z"/><path class="cls-5" d="M539.75,577.51l1.81,1.09c-2.7,4.92-5.14,10.13-7.5,15.18-1.43,3-2.9,6.17-4.41,9.21s-2.8,5.57-4,7.83l-1.82-1.06c1.19-2.24,2.41-4.64,4-7.78s3-6.15,4.38-9.17C534.56,587.74,537,582.49,539.75,577.51Z"/><path class="cls-5" d="M519.06,586.8a132,132,0,0,1,8.61-12.33l1.6,1.4c-6.24,7.82-11.33,16.74-16.25,25.36q-1.9,3.33-3.82,6.63l-1.78-1.14c1.28-2.19,2.54-4.4,3.81-6.61C513.75,595.69,516.32,591.2,519.06,586.8Z"/><path class="cls-5" d="M674.59,538.68l.94-.11c10.72-1.27,20-2.37,29.52-6.73l-.65-1.55c-9.18,4.2-18.19,5.31-28.58,6.55h0c1.11-1.69,2.17-3.35,3.18-5h0c1.63-.65,3.22-1.26,4.75-1.85,10.41-4,18.64-7.2,26-15.13l-1.16-1.18c-7.06,7.66-15.13,10.78-25.35,14.73l-2.79,1.08h0A112.72,112.72,0,0,0,686.31,518h0C696,513.13,703,502.9,708.6,494.65l-1.32-1c-5.16,7.59-11.48,16.89-20,21.86a48,48,0,0,0,2.82-9.6l-.93-.17h0A245.89,245.89,0,0,0,694,475.55l-1.6-.18c-1.53,15.29-4.15,29.56-7.21,39.13l.24.08c-.71,1.83-1.55,3.72-2.48,5.67h0l-.31-.1c-.07-5.55.1-11.36.26-17,.18-5.93.36-12.06.26-17.94l-1.61,0c.1,5.83-.08,11.95-.26,17.85-.19,6.57-.39,13.37-.2,19.75l0,1h0c-1.09,2-2.28,4.15-3.56,6.28h0l-2.34-40.34-1.61.1,2.47,42.65c-1.72,2.74-3.58,5.54-5.58,8.36,0-.49.09-1,.12-1.45.14-1.67.27-3.24.29-3.91.36-10.7-.09-21.12-.86-33.47l-1.61.1c.77,12.31,1.22,22.68.86,33.31,0,.62-.15,2.25-.28,3.82-.09,1.08-.18,2.17-.24,3,0,.43,0,.79-.06,1.09h0q-2.26,3.11-4.71,6.23h0v-.16l-.06-1.14h0v-.17l-.08-1.57c-.13-2.44-.23-4.94-.34-7.37-.39-9.16-.79-18.63-2.65-27.71l-1.57.35c1.83,8.94,2.23,18.34,2.61,27.44.11,2.42.21,4.93.35,7.38l.14,2.71c0,.1,0,.2,0,.31v.16h0c.06.43.23.82.75.83-2.36,3-4.83,6-7.39,8.91-3-6.11-3.19-17.16-3.4-26.93-.09-4.47-.17-8.68-.52-12l-1.6.18c.34,3.22.42,7.4.51,11.83.21,10.17.45,21.69,3.78,28.08l.41-.23c-2.45,2.8-5,5.56-7.55,8.26l-2.19-37.73-1.61.1,2.2,37.95.07,1.26-.39.41q-2.21,2.27-4.46,4.45c.05-1.93.08-4,.08-6,0-.58,0-1.16,0-1.75,0-9.61-.49-20.19-1.13-28.11l-1.6.14c.86,10.72,1.36,26.2,1,37.37-.27.27-.55.52-.82.78L637.09,579q-2.42,2.25-4.86,4.4c0-1.75,0-3.67,0-5.68,0-.57,0-1.15,0-1.74.07-8.5.34-18.36.79-25.12l-1.61-.11c-.6,9.06-.87,23.7-.78,33.2,0,.28,0,.56,0,.83l-.78.67q-3.36,2.87-6.7,5.45c-.13-13.82.59-27.63,1.32-39.52l-1.6-.11c-.75,12-1.47,26-1.33,40v.87c-.26.2-.53.41-.8.6-2,1.52-4,2.95-6,4.27-.15-5,0-10,.22-14.85.3-8,.6-16.24-.54-24.34l-1.59.24c1.11,8,.81,16.13.52,24-.2,5.24-.4,10.61-.18,15.94h0c-.51.33-1,.65-1.52,1l-1.51.92-1.76,1c-.21-5.35-.27-10.71-.33-16,0-2.58-.06-5.16-.11-7.74l-1.6,0c0,2.58.07,5.15.1,7.73.06,5.52.12,11.17.37,16.81-1.77,1-3.49,1.8-5.16,2.55-.61.28-1.21.53-1.81.78-1.1.45-2.17.84-3.22,1.19h0c1.51-4,3-11.83,4.25-18.81.52-2.86,1-5.55,1.48-7.75l-1.57-.36c-.47,2.21-1,4.92-1.49,7.79-1.38,7.44-2.94,15.87-4.49,19.3l.5.25c-.57.18-1.13.33-1.68.47a22.59,22.59,0,0,1,2.68,1.6,54.32,54.32,0,0,0,5.73-2.18l.06,0a4.38,4.38,0,0,1,1.86-.73l-.16-.11c1-.48,2.07-1,3.13-1.57.52-.27,1-.56,1.57-.85l.77-.43c.91-.51,1.82-1,2.75-1.62h0l1.43,1.09,1.62,1.19c7.58,5.52,15.93,10.37,25.53,12.26l.29-1.66c-9.73-1.92-18.19-7-25.89-12.71-.5-.36-1-.73-1.48-1.1.45-.28.9-.57,1.34-.87,2.24-1.44,4.5-3,6.79-4.72.34-.25.68-.5,1-.77.19.14.39.27.59.4,8.41,5.67,21.87,11.89,30.21,13.66l.32-1.65c-8.23-1.75-21.51-7.9-29.73-13.47,2.22-1.7,4.45-3.51,6.68-5.4.47-.39.94-.8,1.41-1.21l.18.08c8.71,3.76,17.86,7.89,29.05,13.13l.65-1.54C651,593,642,588.89,633.5,585.2q2.87-2.52,5.72-5.21l.34-.32,1.27.35a57.48,57.48,0,0,1,18.67,8.48,27.68,27.68,0,0,1,2.68,2.21,14.13,14.13,0,0,0,5.6,3.58l.45-1.61a12.62,12.62,0,0,1-5-3.25,28.56,28.56,0,0,0-2.85-2.34,59.59,59.59,0,0,0-19.4-8.78q2.55-2.44,5.06-5l1.53-1.57.15-.16c2.54.88,5.07,1.72,7.56,2.55,4.47,1.49,9.09,3,13.55,4.68,1.06.4,1.94.81,2.78,1.2a14.65,14.65,0,0,0,6.11,1.77l.07-1.69a13.17,13.17,0,0,1-5.52-1.61c-.83-.4-1.78-.84-2.9-1.26-4.49-1.66-9.13-3.2-13.61-4.7-2.23-.74-4.49-1.49-6.76-2.27q2.93-3.06,5.74-6.23h0c2-.12,4.16-.3,6.43-.5,9.77-.87,21.94-1.94,30.28,2.15l.68-1.53c-8.74-4.28-21.14-3.18-31.1-2.3-1.64.14-3.21.28-4.7.39,1.77-2,3.52-4.09,5.22-6.15,10.75,0,22.24-.4,36.08-1.24l.29,0-.1-1.68c-13.34.81-24.5,1.22-34.9,1.25h0c2.09-2.57,4.1-5.16,6-7.73a46.46,46.46,0,0,0,10.79.53,62.18,62.18,0,0,0,19.86-4.65L699,541c-9.57,4-20.23,5.5-28.94,4.17,1.59-2.16,3.1-4.32,4.54-6.46Z"/><path class="cls-5" d="M717.33,230.24q.38-9.09,5.11-15.15A31.73,31.73,0,0,1,734,205.81a38.71,38.71,0,0,1,14.76-3.6,45.42,45.42,0,0,1,14.57,1.52,25.87,25.87,0,0,1,11,6.06,13.21,13.21,0,0,1,4.36,9.85q-.76,19.31-1.52,34.84t-1.51,29.16q10.21,2.66,16.65,7.95a20.85,20.85,0,0,1,6.43,17.8,12.24,12.24,0,0,1-4.35,7.57,10.16,10.16,0,0,1-8.51,2.28,11.94,11.94,0,0,1-7-4,10.78,10.78,0,0,1-2.84-7.38,6.33,6.33,0,0,1-1.89-.76q-.76,11.75-1.71,23.1t-2.08,23.67q-1.14,12.32-2.46,26.32t-2.46,31.06a11.54,11.54,0,0,1-5.3,9.08,28.63,28.63,0,0,1-11.92,4.55,48,48,0,0,1-14.75,0A45.4,45.4,0,0,1,719,420.35a30.3,30.3,0,0,1-10.79-9.08A18.55,18.55,0,0,1,704.84,398q2.65-29.53,4.55-52.45t3.4-42.23q-7.57.76-16.27,1.33t-18.92,1.7q-17,1.9-33.3,4.17t-28.95,4.35q-12.69,2.08-28.19,4.74h-1.9c-4,0-6.94-1.26-8.7-3.79a11.05,11.05,0,0,1-1.89-11.36q.38-.77,4-9.28t10.41-21.59q6.81-13.07,16.84-29.35a339,339,0,0,1,23.27-32.95q31.41-39.37,67.74-59.46,46.54-24.6,95.74-15.14a10.87,10.87,0,0,1,6.81,4.16,10.46,10.46,0,0,1,2.27,7.58,11.73,11.73,0,0,1-3.22,7.19,12.27,12.27,0,0,1-7,3.79A120.84,120.84,0,0,0,740,177a207.42,207.42,0,0,0-41.82,34.08,272.24,272.24,0,0,0-31.6,40.34q-13.25,20.83-21.19,36l28.76-3.4q22.34-2.28,40.12-3.41.75-13.26,1.51-25.57T717.33,230.24Z"/><path class="cls-5" d="M409.63,133.43c3.94-20.24,11.8-38.8,25.29-54Q457.67,55,490.54,62.58c7.31,1.69,15.18,3.37,22.48,5.06,16.29,3.37,27,13.5,33.71,27.55a130,130,0,0,1,11.8,39.93c5.06,33.74,1.69,67.48-8.43,99.53-10.11,37.11-22.47,72.54-35.39,108.53-5.06,14.62-11.8,28.68-17.42,43.86-2.81,6.75-5.06,13.5-7.87,21.37,8.43,3.94,15.17,5.62,23,5.62,9,0,18.54-.56,27-.56h20.79c1.68,3.94,3.37,7.31,5.06,10.68-3.38,6.19-7.31,7.88-13.49,6.19-5.06-1.12-10.68-2.81-15.73-2.81H433.23c-2.81,0-5.05,0-6.74-.56-1.69-1.13-3.37-3.38-3.37-5.06a86.17,86.17,0,0,1,3.93-16.31c24.72-49.49,43.27-101.78,58.44-155.2,7.3-27,13.48-54.55,16.85-82.67a196.85,196.85,0,0,0,0-63c0-2.81-1.12-4.5-1.12-6.75-3.37-12.93-10.68-18.55-24.16-19.68-12.92,0-23,4.5-31.47,13.5-5.62,7.87-11.8,15.18-14,24.74-1.69,6.75-2.81,13.5-5.06,19.12-3.37,6.75-7.87,10.12-16.29,6.75C410.2,140.18,409.63,136.81,409.63,133.43Z"/></g></g></svg>