<svg xmlns="http://www.w3.org/2000/svg" viewBox="0 0 832.5 832.5"><defs><style>.cls-1{fill:#ffffc5;}.cls-2{fill:#5e4440;}.cls-3{fill:#e55747;}.cls-4{fill:#deaa7c;}.cls-5{fill:#76b099;}</style></defs><g id="Layer_2" data-name="Layer 2"><g id="Layer_1-2" data-name="Layer 1"><rect class="cls-1" width="832.5" height="832.5"/><path class="cls-2" d="M426.16,434.25c25.65-1,47.15-11,65.19-18.53,26.21-10.94,51.94-18.05,78.28-26.89,23.27-7.8,48.23-15,71.53-21.83,14.24-4.16,49.42-7.2,56.85-21.06-14.92-9.09-32.52-22.81-51.27-24.56Z"/><path class="cls-2" d="M438.67,617.6c-6.32,29.17,12.76,72.35,31.27,88.6-23,7.63-44.56-57.39-48.76-76.41Z"/><path class="cls-2" d="M302.32,665.18c-21.92,20.25-31.07,66.57-25.24,90.51-23.2-7-3.55-72.6,3.92-90.58Z"/><path class="cls-3" d="M417.36,439.22c27.83-1.39,62.12-30.54,89-42.92s53.65-25.05,80.05-38.21c47-23.42,112.94-55.74,147.12-95.87-27.17-19.21-60.8-27.68-90.91-41.65-35.67-16.55-71.8-37-109-49.31-39.8-13.1-85.17-13.8-126.35-21.3-48.22-8.79-95.33-21.54-144.1-26.84C175.37,113.6,188,331,190.6,382.59c3.74,74.41,19.77,146.54,26.83,220.7,1.64,17.15,3.48,47.23,14.4,62,16.42,22.13,48.37,8.76,75,2.41,46-10.94,91.37-24.79,136.94-36,26.62-6.56,25.93-7.71,17.47-37.18-15.43-53.79-45.62-98.25-48.43-155Z"/><path class="cls-2" d="M172.86,98.18c5.74,2.34,13.64,6.84,22,11.61,14.86,8.46,31.35,17.85,42.9,19.48a5.49,5.49,0,0,1,1.95-1.52l.34-.2c-11.14-.6-29.3-10.94-44.23-19.45-8.43-4.8-16.38-9.33-22.24-11.72C148,86,118.21,74,89.79,64.44L89,64.16l-.36.81c-11,25.07,22.74,76.8,38.92,101.66.78,1.2,1.52,2.32,2.19,3.37,19.73,30.44,41.82,49.09,69.51,58.7l.63-1.84c-27.26-9.45-49-27.86-68.51-57.92l-2.19-3.37c-14.59-22.4-48.52-74.52-39.11-99C118.14,76.09,147.5,87.87,172.86,98.18Z"/><path class="cls-3" d="M195.12,337.12C184,350.79,82.31,214.49,69.18,192.88c-8.5-14-33.57-59.76-1.86-60,9.79-.08,23.33,14.57,31.49,19.12,14.53,8.1,29.53,13.29,45.61,17.89,24.31,6.95,44.64,16.79,70,15C206.5,237.52,196,287.67,195,341.46c-6.1-.83-2.86-4.1-4.57-8.64Z"/><path class="cls-1" d="M201.55,260.21c0-.31.08-.62.13-.92,1.51-9.74,3.43-20.72,8-30C185.57,225.94,155,205,129.9,202.57c-6.41,37.39,54.94,57.11,65.85,81.25A238.35,238.35,0,0,1,201.55,260.21Z"/><path class="cls-4" d="M512,357.93a15.35,15.35,0,0,0-16.47-12.63c-21.6,2.29-27.9,49.11-1.15,50.86C516.6,397.62,514.55,371.51,512,357.93Z"/><path class="cls-4" d="M503.29,167.77c-13.64,3-20.76,18.53-13.62,30.54,9.57,16.11,36.91,10.68,39.84-11.7C532.28,165.45,516.21,165,503.29,167.77Z"/><path class="cls-2" d="M474.61,187.84c2.59-3.73,2.72-3.89,2.26-12-9.22-1.65-10.6,2.22-10.87,9.79A21.1,21.1,0,0,0,474.61,187.84Z"/><path class="cls-2" d="M452.71,376.77c0-.35,0-.7,0-1-.07-.53-.13-1.07-.17-1.65Z"/><path class="cls-2" d="M466.5,363.2c-3.59.48-7.17.93-10.79,1.07a14.28,14.28,0,0,0-1.19,4.9c1.53,11.47,10.87,11.73,13.08,1.88C467.24,368.44,466.93,365.82,466.5,363.2Z"/><path class="cls-2" d="M722,254.41c13.13-13.59,81.72-28.11,57.91,8.51-10.14,15.61-51.06,15.59-57.46.53Z"/><path class="cls-2" d="M728.79,254.29c-6.76-18.58-5.85-49.59-1.56-69.34l1.26.28c-4.24,19.56-5.16,50.27,1.52,68.62Z"/><path class="cls-2" d="M719.77,258.79c-1.29-9.47-6.59-19.84-12.2-30.83-6.54-12.82-13.3-26.07-14.09-38.89l1.29-.08c.77,12.55,7.47,25.68,14,38.38,5.66,11.09,11,21.56,12.32,31.24Z"/><path class="cls-2" d="M723.21,258.06c-.38-4.72-.72-10-1.08-15.64-1.64-25.25-3.67-56.67-11-74.2l1.19-.51c7.47,17.74,9.51,49.28,11.15,74.63.36,5.61.71,10.91,1.08,15.61Z"/><path class="cls-2" d="M726.55,350.8c-8.09-9.61-8.11-36.12-8.13-57.41,0-6.42,0-12.49-.24-17.27l1.29-.06c.24,4.81.24,10.89.25,17.33,0,21.08,0,47.32,7.82,56.58Z"/><path class="cls-2" d="M745.76,329.34c-5.75-11.7-8.72-24.68-11.59-37.24-2.09-9.18-4.26-18.66-7.49-27.53l1.21-.44c3.26,8.94,5.44,18.47,7.55,27.68,2.85,12.49,5.8,25.4,11.48,36.95Z"/><path class="cls-2" d="M755.68,321.8l-1.3.05c-.87-20.56-6.16-44.15-14.49-64.71l1.2-.48C749.48,277.35,754.79,301.09,755.68,321.8Z"/><path class="cls-2" d="M25.09,358.42c1.83-4.38,6.74-7.8,15.46-10.76,20.05-6.81,49-2,73,3.06,3.69.77,7.26,1.55,10.66,2.29,3.07.67,6,1.31,8.72,1.88,14.39,3,34.24,7.18,54.4,13.78a13.44,13.44,0,0,0-.44,1.9c-20.12-6.6-40-10.77-54.36-13.78-2.73-.57-5.66-1.21-8.74-1.88s-6.21-1.35-9.47-2c-24-5.08-53.27-10.12-73.18-3.37-8.15,2.76-12.69,5.84-14.29,9.67-2.18,5.28,1.11,12,5.69,21.37,1,2,2,4,3,6.17a301.41,301.41,0,0,0,14.86,27.7c21.09,35,47.43,64.07,67.71,83.8,9.12,8.87,18.84,18.73,29.14,29.17,22.82,23.14,46.41,47.07,65.47,62.25l-1.21,1.52c-19.15-15.26-42.79-39.22-65.64-62.41-10.29-10.43-20-20.28-29.11-29.14C95.61,479,67.88,448.3,46.29,411.28c-4.47-7.65-8.67-15.58-12.5-23.74-1-2.16-2-4.19-3-6.15C26,371.59,22.56,364.52,25.09,358.42Z"/><path class="cls-4" d="M112.17,370c-4.2-2-10.08-2-14.1-4.64,7.91,6,8.05,16.29,2.59,24.59-4.08-2.09-12.19-1.77-15.1-3.1,4.51,8.09,3.41,17-3.68,23-3.16-3.05-11.7-5.86-14.63-9.1.21,7-3.65,12.5-5.3,19a47.41,47.41,0,0,1-11.54-5.4,33.85,33.85,0,0,1-4.12-3.13c-4.47-7.65-8.67-15.58-12.5-23.74-1-2.16-2-4.19-3-6.15-4.8-9.8-8.27-16.87-5.74-23,1.83-4.38,6.74-7.8,15.46-10.76,20.05-6.81,49-2,73,3.06a16.17,16.17,0,0,1,.77,2.15C115.75,357.78,115.22,363.46,112.17,370Z"/><path class="cls-2" d="M213.5,552.74c.57-1.29,1.11-2.58,1.65-3.88A62.64,62.64,0,0,1,217.64,537c-40.34,29.66-112.53,65.17-149.52,32A66.59,66.59,0,0,0,61,579.84c43.39,38.31,111.52,13.69,152.53-27.05C213.49,552.78,213.49,552.76,213.5,552.74Z"/><path class="cls-2" d="M465.49,491.94c-23.67,7.44-37.75,6.75-57.77,3,.83,1.1,1.65,2.21,2.46,3.32a166.58,166.58,0,0,1,11.92,13.84c16,.51,35.31-2.24,48.42-7.93,13.46-5.83,56.46-16.57,59.24-28.67C517.56,468.08,480.1,487.35,465.49,491.94Z"/><path class="cls-1" d="M557.59,371.56c1.9,1,10.51,3.27,14.67,7.63,1.08-6.61,2.69-9.18,2.2-16Z"/><path class="cls-1" d="M609.74,346.66a35.07,35.07,0,0,0,9,9.89c.68-5.44,1.08-10.9,1.87-16.2C617.32,343.2,613.58,345,609.74,346.66Z"/><path class="cls-1" d="M647.64,325.28l-.67.62c1.68,3.74,5,8.38,9.08,10.68q1.73-8.9,3.11-17.6C655.36,321.15,651.5,323.23,647.64,325.28Z"/><path class="cls-1" d="M589.47,379.05c-.15-2,2.09-9.14,1.08-13.5,2.88,2,8.58,2.9,12.25,7,7.13-5.23,14.15-13,21.9-17.84,2.45,3.1,8,4.93,10,7.29.78-6.28,5.74-9.72,7.83-14.58a20.36,20.36,0,0,1,12.89,12.42Z"/><path class="cls-5" d="M325.91,98.36c-49.27-25.16-81-21.78-127.73,2.57-12,6.27-23.78,5.52-29.91,15.87-6.63,11.19-3.12,31.43-2.59,43.56,2.27,51.7,18.78,97.38,19.66,149.07,13.22-17.9,14.56-39,18.21-60.83,2.37-14.16,4.71-38.83,19.49-45.69-4.12-14.59-1.49-17.21,10.24-27.11,14.06-11.85,26.66-25.68,41-37.26,15.22-12.3,24.69-15.1,41.35-21.58,8.11-3.15,15.75-1.57,13.61-14.95Z"/><path class="cls-4" d="M378.24,140.94c22.73,34.28-76.09,17.28-92.41,28.53-19.94,13.74-62.76,44.65-71.61,38.06,5.7-11.4,4.91-33.77,10.61-45.23,6.17-12.41,10.28-25,21.9-30.23,20.57-9.3,67.47-16.76,74.6-40.64,7.4.88,13.47,5.69,18.33,11.08Z"/><path class="cls-4" d="M186.09,307.61c9.13.57,21.19,3.81,23.13,17.35-1.44-.45-2.94,0-4.53-.73.09,1.47-.76,3.66-.54,5.1-1-.93-2.57-1.7-3.38-2.63,0,2-.87,4.54-.71,6.54-.63.43-.93-1.36-1.5-.85-.07,2.95-1.48,4-2.4,6.46-.58-.85-2.8-2.22-3.53-3.66-.64,4.79-3,6-5.27,1.48-.14.08-2,1.59-2,1.59-.59.27-.76-.8-1.41-.75-5.29,5.64-9.6-3.61-16.46-.07.41-1.74.16-2.86.94-4.48-1.66.71-2.79.05-4.59,1.48.22-1.84-.41-4.09.09-6,.6-1.12-.77,1.62-.86,1.91.78-1.76.57-5.35,1-7.34-7.57-4,8.55-9-3.81-12.65,4.7-.38,6.16-2.4,2.2-4.89,2.93.13,4.83-.3,7.49,0,.22-.32,0-1.89.19-2.38,1.84.71,3.48.73,5.37,1.95.13-.55.27-1.1.41-1.65,4.37.14,8.44.82,11.18,4.23Z"/><path class="cls-4" d="M32,635.69c2,18,16.47,30.9,35,31.17a66.78,66.78,0,0,0,8-.36l.76-.83c-7.49-2.73-15.53-5.94-21.25-11.63,4.62-3.22,12.8-13.21,16.45-16.48-14.15-2.82-29.63-8.46-10.27-20.46-3.53-1.63-14.71-3.84-17.61-6.66C35.55,615.6,30.49,622.28,32,635.69Z"/><path class="cls-2" d="M123.67,546.83c16.17-1.89,24.81,8,34,19.53,3.81,14.19,10.91,27,16.92,40.33-10,9-21.27,19-33.32,28.18-11.91-7.19-38.69-56.15-43-84C107.81,548.93,116.84,547.63,123.67,546.83Z"/><path class="cls-5" d="M82.32,554.87c4.21-1.24,8.51-2.32,12.75-3.26a41.4,41.4,0,0,0,3.09,5.55,13.21,13.21,0,0,0,1.43,1.76q3,6.51,5.74,13.13t5.14,13.24c.57,1.56,1.15,3.11,1.72,4.67.13.37.27.75.4,1.13,0,.09.13.36.32.92,2.19,6.53,4.27,13.09,6.54,19.59a144,144,0,0,0,7.46,18.25,48.41,48.41,0,0,0,6.9,10.51q-3.67,2.63-7.42,5.1c-13.49,8.9-27.66,16.09-41.9,19.42A77.3,77.3,0,0,1,75,666.5l.76-.83c-7.49-2.73-15.53-5.94-21.25-11.63,4.62-3.22,6.5-9.71,10.15-13-6-5.69-21.06-12.58-1.7-24.57-3.53-1.63-17-3.23-19.88-6,2.7-1.85,5.7-3.51,8.83-5.22,5.16-2.8,10.65-5.74,15.63-9.89a42.35,42.35,0,0,1-6.67-4.74c-.66-.57-1.3-1.16-1.93-1.78A45.09,45.09,0,0,1,55,584.54a13.36,13.36,0,0,1,3.45-19.75C65.15,560.71,73.54,557.46,82.32,554.87Z"/><path class="cls-3" d="M52.62,617.28a18.88,18.88,0,0,0-8.44,12.06s11.6,10,20.45,11.72c-3.65,3.27-5.53,9.76-10.15,13,5.72,5.69,13.76,8.9,21.25,11.63l-.76.83a77.3,77.3,0,0,0,9.52-1.62c1.57-4.21,3-8.68,3.28-12.14-5.92-.68-13.16-3.29-19.46-3.08,3.49-6.13,8.87-13.26,10.12-20.36-4.83.66-11.65-2.32-16.27-2,3.65-4.27,5.9-12.8,8.32-16.65-6.67-1.37-13.85-3.19-21-1.51q1.18-2,2.39-3.94c-3.13,1.71-6.13,3.37-8.83,5.22A34.81,34.81,0,0,0,52.62,617.28Z"/><path class="cls-4" d="M98.27,550.92c3.44,11.61,15.22,26.43,22.41,44.7,5,12.6,13.86,26.08,20.54,39.23h0c-3.09,2.39-6.15,4.8-9.14,7.29l-1.47,1q-2,1.3-4,2.58l-.17-.24c-9.13-13.41-16.47-34.49-20.91-45.82-6.35-16.19-16.7-29.83-23.16-44.77Z"/><path class="cls-3" d="M126.38,546.08c.2,1,.42,2.1.66,3.14,0,.25.11.51.17.76q.9,3.84,2.08,7.68c.08.25.16.49.23.74.37,1.16.75,2.31,1.15,3.47.09.24.17.49.26.73.84,2.38,1.75,4.76,2.73,7.12l.3.73q1.14,2.73,2.39,5.46h0c.12.24.23.48.34.72q1.23,2.65,2.56,5.3l.34.7q1.2,2.36,2.44,4.68c.12.23.24.46.37.69,1,1.91,2.07,3.79,3.14,5.67l.4.7c.58,1,1.17,2,1.77,3,.13.23.26.46.4.68q1.53,2.61,3.11,5.17l.42.68c.86,1.38,1.72,2.76,2.58,4.12l.43.68c.6,1,1.2,1.88,1.81,2.82.15.24.3.47.46.7,1.27,2,2.54,3.92,3.81,5.83l.44.67,1.91,2.86q3.22-1.61,6.47-3.16c4.68-2.25,9.38-4.48,14-6.82l3.88-2c-.3-.56-.59-1.13-.88-1.7-.11-.23-.23-.45-.34-.69l-.75-1.5c-.11-.23-.22-.46-.34-.69-.61-1.28-1.2-2.55-1.78-3.84-.11-.24-.22-.48-.32-.72-.84-1.86-1.64-3.73-2.42-5.61l-.3-.71q-1.25-3-2.47-6.07l-.28-.72c-.13-.31-.25-.63-.38-.94-.37-.92-.73-1.83-1.11-2.74-.09-.24-.19-.48-.29-.72-.78-1.91-1.58-3.82-2.38-5.72l-.3-.72c-.85-2-1.7-4-2.56-5.95-.1-.24-.2-.47-.31-.71-.74-1.71-1.49-3.42-2.23-5.14l-.31-.7-2.29-5.25c-.1-.23-.2-.47-.31-.7q-1.63-3.76-3.24-7.53c-.11-.24-.21-.47-.31-.71l-1.17-2.77c-.1-.25-.2-.49-.31-.74s-.19-.47-.29-.71c-1-2.49-2-5-2.89-7.51l-.27-.73,0-.1C147.8,536.16,137.79,542.06,126.38,546.08Z"/><path class="cls-2" d="M156.46,611.56c.15.24.3.47.46.7,1.83-.32,3.73-.63,5.68-1,8-1.3,16.23-2.64,22.89-5.55-.11-.23-.22-.46-.34-.69-6.57,2.85-14.73,4.18-22.68,5.47C160.41,610.88,158.4,611.21,156.46,611.56Z"/><path class="cls-2" d="M154.22,608.06l.43.68c1.86-.53,3.71-1.14,5.52-1.73,1.26-.41,2.55-.84,3.82-1.23,3.15-1,6.63-1.68,10-2.37,3.14-.65,6.34-1.3,9.4-2.18-.11-.24-.22-.48-.32-.72-3,.86-6.15,1.51-9.23,2.14-3.38.7-6.87,1.42-10.06,2.4-1.27.39-2.57.81-3.82,1.22C158.05,606.89,156.15,607.52,154.22,608.06Z"/><path class="cls-2" d="M151.22,603.26l.42.68c9.61-2.75,19.4-5.61,29-9l-.3-.71C170.7,597.63,160.86,600.5,151.22,603.26Z"/><path class="cls-2" d="M147.71,597.41c.13.23.26.46.4.68,1.12-.35,2.1-.67,2.73-.85a254.16,254.16,0,0,0,27-9.12l-.28-.72a255.19,255.19,0,0,1-27,9.1c-.65.18-1.64.5-2.79.87Z"/><path class="cls-2" d="M145.54,593.67l.4.7a211.8,211.8,0,0,0,30.15-10.65c-.09-.24-.19-.48-.29-.72A208.41,208.41,0,0,1,145.54,593.67Z"/><path class="cls-2" d="M142,587.31c.12.23.24.46.37.69.63-.21,1.18-.4,1.58-.52,10.56-3.16,20.31-6.21,29.44-10.2l-.3-.72c-9.1,4-18.82,7-29.36,10.18C143.32,586.87,142.72,587.08,142,587.31Z"/><path class="cls-2" d="M139.25,581.93l.34.7c1.51-.53,3-1.16,4.42-1.76,1-.42,2-.81,2.84-1.16,2.7-1,5.38-2.09,8.23-3.22,5.1-2,10.31-4.09,15.48-5.88-.1-.24-.2-.47-.31-.71-5.17,1.79-10.36,3.85-15.46,5.88-2.84,1.12-5.53,2.19-8.21,3.22-.91.34-1.86.74-2.87,1.16C142.27,580.77,140.76,581.4,139.25,581.93Z"/><path class="cls-2" d="M136.35,575.91c.12.24.23.48.34.72,7.58-2.27,18.57-6.65,30.7-11.61l.63-.26-.31-.7-.61.25c-7.67,3.13-17.22,7-25.1,9.77C139.82,574.83,138,575.44,136.35,575.91Z"/><path class="cls-2" d="M133.66,569.72l.3.73c9.92-1.82,21.79-6.87,31.46-11.64-.1-.23-.2-.47-.31-.7C155.42,562.88,143.52,568,133.66,569.72Z"/><path class="cls-2" d="M130.67,561.87c.09.24.17.49.26.73,7-1.7,14.08-4.8,21-7.82,3.28-1.44,6.61-2.89,10-4.2-.11-.24-.21-.47-.31-.71-3.33,1.31-6.66,2.76-9.95,4.2C144.71,557.09,137.63,560.18,130.67,561.87Z"/><path class="cls-2" d="M129.29,557.66c.08.25.16.49.23.74,7.58-1.57,16-5.44,23.76-9,2.34-1.06,4.62-2.11,6.8-3.06-.09-.24-.19-.47-.29-.71-2.2,1-4.49,2-6.83,3.07C145.24,552.25,136.79,556.12,129.29,557.66Z"/><path class="cls-2" d="M127,549.22c0,.25.11.51.17.76l1.61-.65c3.72-1.39,7.41-3,11.33-4.63,5.49-2.34,11.11-4.73,16.75-6.56l-.27-.73c-5.65,1.84-11.27,4.23-16.78,6.58-3.91,1.66-7.6,3.24-11.3,4.62Z"/><path class="cls-2" d="M160.73,618.09l.44.67c6.29-2.18,12.56-5,18.72-7.81,2.3-1,4.52-2,6.69-3-.11-.23-.23-.45-.34-.69-2.17,1-4.38,2-6.66,3C173.37,613.05,167.06,615.91,160.73,618.09Z"/><path class="cls-1" d="M106.2,648.43c3.26-1.34-1.49-8.15-5.21-4.47s3.49,9.89,5.67,4.06Z"/><path class="cls-1" d="M91.92,623.19c.09.19-1,.46.37,1.21,4.66-2.28,1.78-8.69-2.67-7-4.24,1.59-1.75,7.47,2.26,6.7Z"/><path class="cls-1" d="M82,598.2c.45-1.17.69-4.84-1.35-6.91-7.61,2-3.21,12.63.94,6.45Z"/><path class="cls-1" d="M73,571.52c3.22,1,.13-8.88-4.14-3.73-2.85,3.44,3.12,8.15,5.47,3.37Z"/><path class="cls-1" d="M85,553.79c2.81-.37,12.71,2.36,15,4.45a6.22,6.22,0,0,1,2.15,3.53c.45,2.92-2.21,5.39-4.79,7.77-.85.79-1.68,1.55-2.35,2.3L96,572c5.17,1.12,11,2.38,15.68,4.77l.86.44-.4.69a33.88,33.88,0,0,1-8.37,9.05,46.79,46.79,0,0,0,7.13,2.92,38.55,38.55,0,0,1,9.25,4.16l.74.51-.4.59a53.31,53.31,0,0,1-9.18,10.33,89.77,89.77,0,0,1,9,3.44c2.31,1,4.5,1.88,6.47,2.56l1.24.43-.74.82c-1.24,1.38-2.35,2.88-3.53,4.47a47.84,47.84,0,0,1-5.21,6.22,25,25,0,0,0,7.37,1.85,24,24,0,0,1,8.77,2.5l.61.35-.13.61c-1.07,4.9-4.75,12-7,15.79l-1.21.84-.72-.64c2.36-3.56,6.28-11.13,7.54-16.05a24.3,24.3,0,0,0-7.62-2,23.56,23.56,0,0,1-8.95-2.59l-1-.6.71-.62a41.94,41.94,0,0,0,5.8-6.76c.93-1.24,1.88-2.52,2.89-3.72-1.68-.62-3.47-1.37-5.35-2.16a68,68,0,0,0-10.41-3.77l-1.69-.37,1.15-1a52.15,52.15,0,0,0,9.67-10.43,41.27,41.27,0,0,0-8.1-3.47,42.26,42.26,0,0,1-8.52-3.7l-1-.65.76-.58a34.8,34.8,0,0,0,8.5-8.69c-4.33-2-9.67-3.18-14.42-4.2l-2.28-.5-1.29-.29.68-.94a25,25,0,0,1,3.23-3.37c2.27-2.09,4.84-4.47,4.49-6.73a4.26,4.26,0,0,0-1.51-2.38c-.9-.82-4.08-2.09-7.57-3-4.09-1.1-6.36-1.17-6.66-.87a.14.14,0,0,0,0-.06l-1.28-.74C84,554.12,84.38,553.87,85,553.79Z"/><path class="cls-1" d="M46.32,616.42l.63.36-.32.65a54,54,0,0,1-9,13.35c5,2.48,16.95,11.11,17.5,11.5l.52.38-.29.59c0,.11-5.4,10.9-7.51,14.87a79.5,79.5,0,0,0,15.77,9.49,33,33,0,0,1-3.86-.17,73.2,73.2,0,0,1-13.39-8.53l-.49-.41.31-.56c1.59-2.91,6.28-12.34,7.5-14.79C51,641.27,39.43,633,36,631.76l-1.19-.43.92-.86c4.4-4.13,7.73-10.11,9.22-13.06-1.46-.8-3.35-1.74-5.38-2.65a9,9,0,0,0,1.13-1.18C42.87,614.58,44.87,615.59,46.32,616.42Z"/><path class="cls-2" d="M53.85,604.63a36.21,36.21,0,0,1-1.69,4.8c3.31-.35,6.77.38,10.12,1.09a40.7,40.7,0,0,0,8.09,1.17h.26l-.07.24c-1,3.49-3.3,11.5-7.38,14.62,4.63.61,12.42,2.88,15.93,5.82l.13.11-.09.14a54.68,54.68,0,0,0-3,6c-1.59,3.58-3.24,7.28-6.22,10.25a22.29,22.29,0,0,1,5,1.48c.74.28,1.51.58,2.26.83a45.14,45.14,0,0,0,4.52,1.08,25.28,25.28,0,0,1,6.66,2l.16.09-.08.17A38.11,38.11,0,0,0,85.63,665l-.41.12A39.8,39.8,0,0,1,88,654.45a26.53,26.53,0,0,0-6.38-1.82,45.21,45.21,0,0,1-4.57-1.1c-.76-.25-1.53-.54-2.28-.83a20.8,20.8,0,0,0-5.26-1.51l-.42,0,.31-.29c3.12-3,4.8-6.75,6.43-10.41a56.46,56.46,0,0,1,2.91-5.89c-3.65-2.95-11.65-5.19-16.09-5.69l-.53,0,.44-.3c4.12-2.74,6.5-10.77,7.56-14.45a41.74,41.74,0,0,1-7.92-1.17c-3.43-.73-7-1.48-10.33-1l-.34,0,.14-.32a36,36,0,0,0,1.77-4.93Z"/><path class="cls-2" d="M94.63,650.53a6.51,6.51,0,0,1-.23-6.89,13.7,13.7,0,0,1,10.62-7,6.09,6.09,0,0,1,5.79,2.86l.17.26c1.71,2.74,4.59,7.32-.38,12.82a9,9,0,0,1-7.38,2.62,11.79,11.79,0,0,1-7.83-3.69A8.12,8.12,0,0,1,94.63,650.53Zm10.43-13.11a12.87,12.87,0,0,0-10,6.57,5.83,5.83,0,0,0,.18,6.11,10.58,10.58,0,0,0,8,4.34,8.15,8.15,0,0,0,6.76-2.37h0c4.58-5.06,2-9.17.29-11.89l-.16-.27a6.73,6.73,0,0,0-.58-.77A5.54,5.54,0,0,0,105.06,637.42Z"/><path class="cls-2" d="M85,618.81c1.26-5,5.56-5.91,8.86-5.22,3.74.79,7.23,3.84,6.61,7.58-.21,1.27-1.5,7.68-6.15,8.39h0a8,8,0,0,1-7-2.82l0-.06A8.85,8.85,0,0,1,85,618.81Zm9.21,10c4.12-.63,5.31-6.58,5.5-7.76.55-3.28-2.63-6-6-6.69-3.11-.65-6.83.22-8,4.65a8.12,8.12,0,0,0,2.11,7.17l.05.05a7.24,7.24,0,0,0,6.31,2.58Z"/><path class="cls-2" d="M71.72,598A6.35,6.35,0,0,1,73,591.43c2.23-2.77,6.12-4.46,9.05-3.94A4.89,4.89,0,0,1,86,591c.5,1.46,1.62,6.57-4.93,10.75a5.73,5.73,0,0,1-4.88.69,6.64,6.64,0,0,1-2.92-1.95A8.36,8.36,0,0,1,71.72,598Zm10.18-9.73c-2.67-.47-6.24,1.1-8.31,3.66a5.65,5.65,0,0,0-1.16,5.78,6.65,6.65,0,0,0,4,4,5,5,0,0,0,4.23-.6h0c5.91-3.77,5.19-8.15,4.61-9.85a4.87,4.87,0,0,0-.94-1.66A4.08,4.08,0,0,0,81.9,588.25Z"/><path class="cls-2" d="M63.65,570.36h0a9.29,9.29,0,0,1,8.54-6.72,6.49,6.49,0,0,1,6.62,4.46c1.35,3.95.49,7.47-2.37,9.64-3.06,2.33-7.72,2.59-10.62.6a5.8,5.8,0,0,1-1.1-1C63.58,576.11,62.62,573.92,63.65,570.36Zm8.55-6a8.49,8.49,0,0,0-7.81,6.17h0c-.91,3.14-.25,5.68,1.86,7.12,2.65,1.82,6.91,1.56,9.72-.57,1.52-1.15,3.8-3.82,2.11-8.78a6.11,6.11,0,0,0-1.19-2.05A6,6,0,0,0,72.2,564.41Z"/><path class="cls-4" d="M649.89,460.89c9.6,15.4,6.21,34.47-8.16,46.18a68.3,68.3,0,0,1-6.48,4.67l-1.11-.18c4.18-6.79,8.5-14.29,9.46-22.31-5.62.34-18.22-2.42-23.12-2.72,9.37-11,18-25-4.61-22.42,1.76-3.47,9.16-12.14,9.69-16.16C634.64,447.35,642.75,449.44,649.89,460.89Z"/><path class="cls-2" d="M522.9,448.06c-13.86,8.55-14.51,21.67-14.55,36.4,5.8,13.49,8.18,28,11.71,42.14,13.41.84,28.43,1.68,43.6,1.43,4.89-13-4.42-68.06-18.31-92.52C536.65,439.86,528.76,444.45,522.9,448.06Z"/><path class="cls-5" d="M560.32,428.72c-4.07,1.64-8.11,3.46-12,5.35a41,41,0,0,1,1,6.27,13.17,13.17,0,0,1,0,2.27c1.12,4.64,2.32,9.26,3.63,13.86s2.68,9.08,4.17,13.58c.52,1.57,1,3.15,1.54,4.72l.39,1.14c0,.1.13.37.32.93,2.33,6.48,4.76,12.92,7,19.43a143.16,143.16,0,0,1,5.44,18.94,48.68,48.68,0,0,1,1.11,12.53c3-.15,6-.35,9-.61,16.09-1.38,31.66-4.53,44.9-10.75a79.54,79.54,0,0,0,8.48-4.64l-1.11-.18c4.18-6.79,8.5-14.29,9.46-22.31-5.62.34-11.11-3.58-16-3.88,1.18-8.18,8.74-22.94-13.88-20.34C615.47,461.56,625,452,625.56,448a102.21,102.21,0,0,0-10.16,1.38c-5.78,1-11.92,2.1-18.39,1.94a42.37,42.37,0,0,0,2.29-7.86c.17-.85.3-1.72.42-2.59a48.07,48.07,0,0,0,.41-5.77,13.35,13.35,0,0,0-15-13.35C577.41,422.65,568.81,425.3,560.32,428.72Z"/><path class="cls-3" d="M622.29,459.26a18.83,18.83,0,0,1,14.09,4.22s-2.93,15-8.79,21.89c4.9.3,10.39,4.22,16,3.88-1,8-5.28,15.52-9.46,22.31l1.11.18a79.54,79.54,0,0,1-8.48,4.64c-3.84-2.33-7.75-4.93-10.1-7.49,4.23-4.21,8.3-10.75,13.37-14.49-6.54-2.65-15.18-4.9-20.55-9.7,4.19-2.48,7.7-9.05,11.53-11.64-5.51-1.1-12.56-6.39-16.84-7.91,4.39-5.21,8.89-11.1,15.53-14.21l-4.31-1.61A102.21,102.21,0,0,1,625.56,448,34.87,34.87,0,0,1,622.29,459.26Z"/><path class="cls-4" d="M545.35,435.51c4.5,11.24,4.44,30.18,10.12,49,3.91,13,5.29,29.06,8.19,43.52h0c3.91,0,7.8,0,11.69,0l1.75-.15c1.59-.14,3.19-.31,4.77-.48,0-.1,0-.2,0-.3-1.15-16.18-8.45-37.27-12-48.92-5-16.64-5.38-33.76-9.57-49.49Z"/><path class="cls-3" d="M520.31,449.16c.49.94,1,1.9,1.43,2.87l.33.7q1.68,3.57,3.12,7.32c.1.24.19.48.28.72.43,1.14.85,2.28,1.25,3.44.09.24.17.48.25.73.82,2.39,1.57,4.82,2.27,7.28.08.25.14.5.22.75q.79,2.86,1.5,5.77h0l.18.77q.69,2.85,1.28,5.75c.06.25.11.51.16.76q.52,2.58,1,5.19c0,.26.09.51.14.77.38,2.13.72,4.26,1,6.4,0,.26.09.52.13.79.17,1.16.34,2.32.5,3.48,0,.27.07.53.1.79.27,2,.52,4,.76,6l.09.8c.18,1.62.36,3.22.53,4.83,0,.26,0,.53.08.8.12,1.11.23,2.23.33,3.33,0,.28.06.56.08.84.22,2.33.42,4.65.61,6.94,0,.27,0,.54.07.8.09,1.15.19,2.29.28,3.42-2.35.5-4.69,1-7,1.54-5.08,1.14-10.14,2.3-15.24,3.35-1.43.3-2.85.58-4.28.85-.11-.62-.23-1.25-.36-1.87,0-.26-.1-.51-.16-.76-.11-.54-.22-1.09-.34-1.64-.06-.25-.11-.5-.17-.75-.31-1.38-.63-2.75-1-4.12-.07-.26-.13-.51-.19-.77-.5-2-1-3.94-1.58-5.9l-.21-.74c-.59-2.11-1.21-4.2-1.82-6.3l-.22-.73c-.1-.33-.2-.65-.29-1-.28-.95-.56-1.89-.83-2.84l-.21-.74q-.86-3-1.68-6l-.21-.75q-.86-3.12-1.68-6.26c-.07-.24-.13-.49-.2-.74l-1.43-5.42c-.06-.25-.13-.5-.19-.75-.49-1.84-1-3.69-1.46-5.53-.06-.25-.13-.5-.19-.74-.7-2.65-1.4-5.29-2.12-7.93-.06-.25-.13-.49-.2-.74-.26-1-.53-1.93-.8-2.9-.07-.26-.14-.52-.22-.77s-.13-.5-.2-.74c-.74-2.59-1.54-5.15-2.38-7.69-.08-.25-.17-.49-.25-.74l0-.1C497.36,454.66,508.86,453.08,520.31,449.16Z"/><path class="cls-2" d="M537.27,519.19c0,.28.06.56.08.84-1.65.88-3.33,1.82-5.05,2.77-7.09,4-14.37,8-21.4,9.86-.06-.25-.11-.5-.17-.75,6.93-1.84,14.16-5.87,21.2-9.78C533.75,521.11,535.53,520.12,537.27,519.19Z"/><path class="cls-2" d="M536.86,515.06c0,.26,0,.53.08.8-1.79.74-3.61,1.41-5.4,2.07-1.24.45-2.52.92-3.76,1.41-3.07,1.19-6.24,2.79-9.3,4.33-2.86,1.44-5.78,2.9-8.72,4.12-.07-.26-.13-.51-.19-.77,2.89-1.19,5.75-2.63,8.56-4,3.08-1.55,6.27-3.15,9.37-4.36,1.24-.48,2.53-1,3.77-1.41C533.13,516.52,535,515.83,536.86,515.06Z"/><path class="cls-2" d="M536.24,509.43l.09.8c-9.24,3.8-18.69,7.63-28.34,10.89l-.21-.74C517.47,517.1,527,513.25,536.24,509.43Z"/><path class="cls-2" d="M535.38,502.66c0,.27.07.53.1.79-1.1.42-2.07.77-2.67,1a256.27,256.27,0,0,1-26.85,9.6l-.22-.73a255.38,255.38,0,0,0,26.77-9.59c.63-.26,1.61-.62,2.74-1.05Z"/><path class="cls-2" d="M534.75,498.39c0,.26.09.52.13.79a211,211,0,0,1-30.26,10.35l-.21-.74A209.7,209.7,0,0,0,534.75,498.39Z"/><path class="cls-2" d="M533.57,491.22c0,.26.09.51.14.77-.63.22-1.17.41-1.56.57-10.25,4.07-19.79,7.72-29.42,10.26l-.21-.75c9.6-2.52,19.11-6.17,29.34-10.23C532.29,491.67,532.88,491.46,533.57,491.22Z"/><path class="cls-2" d="M532.42,485.27c.06.25.11.51.16.76-1.51.52-3.07,1-4.55,1.36-1,.3-2,.57-2.95.86-2.75.86-5.52,1.69-8.45,2.57-5.26,1.58-10.62,3.19-15.79,5-.07-.24-.13-.49-.2-.74,5.17-1.81,10.52-3.41,15.77-5,2.93-.88,5.7-1.7,8.44-2.57.92-.29,1.92-.56,3-.86C529.33,486.24,530.9,485.8,532.42,485.27Z"/><path class="cls-2" d="M531,478.75l.18.77c-7.35,2.93-18.69,6.31-31.28,9.94l-.65.19c-.06-.25-.13-.5-.19-.75l.63-.18c8-2.3,17.87-5.16,25.74-7.91C527.57,480.06,529.41,479.37,531,478.75Z"/><path class="cls-2" d="M529.24,472.22c.08.25.14.5.22.75-8.91,4.73-21.36,8.13-31.9,10.4-.06-.25-.13-.5-.19-.74C507.93,480.36,520.41,477,529.24,472.22Z"/><path class="cls-2" d="M526.72,464.21c.09.24.17.48.25.73-6.54,3-14,5-21.31,6.89-3.47.91-7,1.83-10.41,2.87-.06-.25-.13-.49-.2-.74,3.43-1,6.94-2,10.41-2.88C512.75,469.17,520.22,467.2,526.72,464.21Z"/><path class="cls-2" d="M525.19,460.05c.1.24.19.48.28.72-6.91,3.47-15.94,5.68-24.2,7.7-2.49.61-4.93,1.2-7.24,1.82-.06-.25-.13-.5-.2-.74,2.31-.62,4.76-1.22,7.25-1.83C509.33,465.7,518.36,463.49,525.19,460.05Z"/><path class="cls-2" d="M521.74,452l.33.7-1.66.49c-3.78,1.22-7.66,2.27-11.76,3.4-5.76,1.57-11.65,3.17-17.2,5.24-.08-.25-.17-.49-.25-.74,5.58-2.07,11.47-3.67,17.25-5.25,4.09-1.12,8-2.18,11.72-3.38C520.55,452.37,521.09,452.21,521.74,452Z"/><path class="cls-2" d="M538,527c0,.27,0,.54.07.8-6.29,2.19-13,3.85-19.52,5.48-2.45.61-4.81,1.2-7.11,1.81,0-.26-.1-.51-.16-.76,2.29-.6,4.65-1.19,7.08-1.79C524.93,530.86,531.65,529.19,538,527Z"/><path class="cls-1" d="M599.54,516.94c-3.39,1-3.87-7.32,1.32-6.74s3.4,9.93-1.93,6.7Z"/><path class="cls-1" d="M595.11,488.28c0,.2,1.08-.26.47,1.18-5.08,1.1-6.79-5.72-2.27-7.18,4.31-1.39,6,4.77,2.38,6.65Z"/><path class="cls-1" d="M587.42,462.51c-1.08-.64-3.55-3.37-3.23-6.26,7.22-3.14,10.35,7.92,3.27,5.65Z"/><path class="cls-1" d="M577.92,436c-1.88,2.8-5.6-6.89,1-5.5,4.36.92,2.59,8.33-2.21,6Z"/><path class="cls-1" d="M557.52,429.55c-2.43,1.46-8.51,9.75-9,12.81a6.12,6.12,0,0,0,.5,4.1c1.46,2.58,5.07,2.86,8.57,3.13,1.16.09,2.28.18,3.27.34l-.58.71c-3.36,4.08-7.17,8.7-9.35,13.47l-.4.88.74.29a34.08,34.08,0,0,0,12.18,1.91,47.84,47.84,0,0,1-3.79,6.71,38.53,38.53,0,0,0-4.68,9l-.27.86.68.21A53.18,53.18,0,0,0,569,486.39a88.57,88.57,0,0,0-5,8.31c-1.21,2.2-2.36,4.27-3.48,6l-.71,1.1,1.09.19c1.82.31,3.63.79,5.54,1.31a47.49,47.49,0,0,0,7.93,1.65,25,25,0,0,1-4.63,6,24,24,0,0,0-5.33,7.41l-.27.65.48.4c3.88,3.18,11.17,6.48,15.32,8l1.47-.08.17-1c-4.06-1.33-11.82-4.83-15.86-7.91a24.3,24.3,0,0,1,4.75-6.28c2-2.15,4.13-4.37,5.42-7.59l.45-1.12-1,0a42.49,42.49,0,0,1-8.74-1.7c-1.5-.4-3-.82-4.56-1.13.92-1.53,1.86-3.23,2.85-5a69.2,69.2,0,0,1,5.83-9.41l1.1-1.34-1.49,0a52,52,0,0,1-14-2.19,41.74,41.74,0,0,1,4.2-7.74,41.43,41.43,0,0,0,4.4-8.2l.41-1.15-1,0a35.17,35.17,0,0,1-12.06-1.54c2.15-4.29,5.62-8.5,8.72-12.25.5-.62,1-1.22,1.48-1.8l.83-1-1.12-.32a24.87,24.87,0,0,0-4.62-.64c-3.08-.23-6.57-.5-7.69-2.49a4.25,4.25,0,0,1-.29-2.81c.2-1.2,1.91-4.17,4.06-7.07,2.53-3.4,4.27-4.87,4.69-4.82a.09.09,0,0,1-.06,0l.55-1.37C558.53,429.17,558.09,429.21,557.52,429.55Z"/><path class="cls-1" d="M626.7,454.67l-.27.68.65.31a54.18,54.18,0,0,0,15.37,4.86c-2.42,5.07-6.43,19.23-6.61,19.88l-.18.63.59.28c.12.05,11,5.2,15.12,7a80,80,0,0,1-6.5,17.24,35.3,35.3,0,0,0,2.92-2.53A73.47,73.47,0,0,0,653,488l.14-.63-.59-.24c-3.06-1.3-12.58-5.79-15-7,.89-3.1,4.87-16.78,6.81-19.91l.67-1.07-1.26-.11c-6-.51-12.32-3.13-15.32-4.52.65-1.54,1.55-3.44,2.58-5.42a8.21,8.21,0,0,1-1.62-.23C628.26,451.09,627.32,453.12,626.7,454.67Z"/><path class="cls-2" d="M613.49,450.09a36.14,36.14,0,0,0,4.3,2.72c-2.82,1.78-5.08,4.5-7.26,7.13a40.37,40.37,0,0,1-5.64,5.94l-.2.16.21.15c2.94,2.11,9.71,7,14.84,6.89-3.25,3.35-8,10-8.89,14.45l0,.17.16.06a53.52,53.52,0,0,1,6,2.85c3.47,1.82,7,3.7,11.24,4.18a22.62,22.62,0,0,0-3,4.23c-.41.69-.83,1.4-1.26,2.06a45,45,0,0,1-2.88,3.65,25.46,25.46,0,0,0-4,5.66l-.06.17.16.08a38.25,38.25,0,0,1,8.74,6.54l.39-.15a39.34,39.34,0,0,0-8.8-6.66,26.39,26.39,0,0,1,3.89-5.39,44.59,44.59,0,0,0,2.9-3.69c.44-.67.86-1.38,1.27-2.07a20.93,20.93,0,0,1,3.2-4.45l.3-.29-.42,0c-4.28-.39-8-2.31-11.5-4.17a55.33,55.33,0,0,0-5.92-2.82c1-4.58,5.92-11.3,9.1-14.45l.37-.37-.52,0c-4.94.41-11.78-4.41-14.89-6.65a41.71,41.71,0,0,0,5.49-5.83c2.24-2.7,4.56-5.48,7.46-7.23l.29-.17-.3-.16a34.54,34.54,0,0,1-4.45-2.78Z"/><path class="cls-2" d="M609.94,512.66a11.78,11.78,0,0,1-3.86,7.75,8.94,8.94,0,0,1-7.41,2.53c-7.3-1.23-7.89-6.62-8.24-9.83l0-.31a6.1,6.1,0,0,1,2.77-5.83,13.72,13.72,0,0,1,12.67-1.11,6.51,6.51,0,0,1,4.09,5.55A8.68,8.68,0,0,1,609.94,512.66Zm-18.8-.91a5.19,5.19,0,0,0,0,1l0,.31c.35,3.2.87,8,7.6,9.15h0a8.16,8.16,0,0,0,6.76-2.33,10.65,10.65,0,0,0,3.6-8.37,5.84,5.84,0,0,0-3.65-4.91,12.86,12.86,0,0,0-11.89,1A5.5,5.5,0,0,0,591.14,511.75Z"/><path class="cls-2" d="M600.9,488.15v.08a8,8,0,0,1-3.74,6.56h0c-4.08,2.32-9.07-1.9-10-2.78-2.81-2.54-2-7.11.5-10,2.16-2.59,6.12-4.52,10.18-1.41A8.91,8.91,0,0,1,600.9,488.15Zm-4.13,6a7.26,7.26,0,0,0,3.35-5.94v-.07a8.1,8.1,0,0,0-2.79-6.93c-3.62-2.78-7.09-1.16-9.12,1.28-2.22,2.66-3,6.75-.58,9,.89.81,5.51,4.74,9.13,2.68Z"/><path class="cls-2" d="M595.68,458.84a6.6,6.6,0,0,1-1.09,3.34,5.76,5.76,0,0,1-4.25,2.49c-7.73.78-10-3.93-10.53-5.39a4.9,4.9,0,0,1,.94-5.15c2-2.22,6.08-3.31,9.54-2.52a6.37,6.37,0,0,1,5.06,4.35A8.49,8.49,0,0,1,595.68,458.84Zm-15.43-1.69a4.7,4.7,0,0,0,.29,1.88c.6,1.7,2.75,5.57,9.72,4.87h0a5,5,0,0,0,3.69-2.16,6.62,6.62,0,0,0,.65-5.57,5.61,5.61,0,0,0-4.48-3.81c-3.21-.73-7,.25-8.79,2.28A4.14,4.14,0,0,0,580.25,457.15Z"/><path class="cls-2" d="M588.08,435.45a6.06,6.06,0,0,1-.27,1.44c-1,3.36-4.86,6.05-8.7,6.12-3.59.07-6.45-2.15-7.83-6.09a6.49,6.49,0,0,1,2.43-7.61,9.27,9.27,0,0,1,10.86,0h0C587.58,431.44,588.18,433.75,588.08,435.45Zm-16.42-1.13a6,6,0,0,0,.35,2.34c1.73,4.94,5.18,5.62,7.08,5.58,3.53-.07,7-2.52,8-5.58.76-2.44-.28-4.84-3-6.75h0a8.5,8.5,0,0,0-10,0A5.93,5.93,0,0,0,571.66,434.32Z"/><path class="cls-5" d="M733.49,718.31c0,55.42-33.65,91.64-75.64,91.64-46,0-78.53-30.43-78.53-83.31,0-1.81,1.08-3.26,2.53-3.26l62.61-2.53a3.19,3.19,0,0,1,2.9,3.26l1.08,17.74c.37,3.26,2.54,4.71,4.71,4.71,3.62,0,5.79-2.17,5.79-6.88V679.19c0-2.9-1.09-4.71-2.17-4.71s-2.17.73-4.34,2.9c-5.43,5.43-12.67,11.23-26.79,11.23-26.78,0-47.77-24.27-47.77-67.73,0-46.73,35.11-79,75.64-79,55.37,0,80,47.08,80,104Zm-85.77-85.12c0,4.71,2.17,7.25,5.79,7.25,3.26,0,5.43-2.54,5.43-7.25V620.52c0-3.26-2.17-5.44-5.79-5.44a5.24,5.24,0,0,0-5.43,5.07Z"/></g></g></svg>