<svg xmlns="http://www.w3.org/2000/svg" viewBox="0 0 832.5 832.5"><defs><style>.cls-1{fill:#ffffc5;}.cls-2{fill:#5e4440;}.cls-3{fill:#e55747;}.cls-4{fill:#deaa7c;}.cls-5{fill:#76b099;}</style></defs><g id="Layer_2" data-name="Layer 2"><g id="Layer_1-2" data-name="Layer 1"><rect class="cls-1" width="832.5" height="832.5"/><path class="cls-2" d="M604,131.61a5,5,0,0,1-1.36.76,23,23,0,0,1-.09,11c-3,13.09-8.59,25.41-15.6,34.71C572,198,547.3,202,513.67,190.15c-13.22-4.68-18.56-9.51-23.81-21.54a129,129,0,0,0-6.32-12.13c-2.94-5.19-6-10.55-7.81-16.09-5-15.17-2-32.33,8.44-47.08a30.18,30.18,0,0,1,17.14-11.85c9.71-2.49,26.44-6,38-4.42a26.33,26.33,0,0,1,4.64,1,75.05,75.05,0,0,1,13.78,6,4.08,4.08,0,0,1,1.55-.76,74.58,74.58,0,0,0-14.88-6.63C532.8,72.88,512.2,77.15,501,80a31.65,31.65,0,0,0-18,12.43c-10.66,15.13-13.81,32.76-8.63,48.38,1.88,5.68,5,11.1,7.93,16.35a132.38,132.38,0,0,1,6.25,12c5.38,12.34,11.14,17.56,24.66,22.34a119.2,119.2,0,0,0,23.2,5.86,75,75,0,0,0,16.78.55c14.68-1.29,26.44-7.67,35-19,7.13-9.45,12.76-22,15.85-35.26A24.34,24.34,0,0,0,604,131.61Z"/><path class="cls-2" d="M474.92,139.64c-1.38,10-3.1,20.07-4,30.08,10.43-1.38,19.76-19.25,28.95-24.91Z"/><path class="cls-3" d="M472.39,138.23c15.87,15.69,29.22,12.28,45.72-2.32,11.62-10.28,18.48-19.89,18.8-35.87.71-34.94-41.61-27-57.65-6C474.65,100.12,464.45,130.38,472.39,138.23Z"/><path class="cls-3" d="M523.91,154.72c-8.09-8.83,4.43-21.62,13.19-13.45,4,3.73,5.4,9.77-.15,15.78C532.58,161.78,527.72,158.87,523.91,154.72Z"/><path class="cls-2" d="M535,128.14a9.11,9.11,0,0,1,6.75.1c2.08,6.41-5.44,8.43-7.29,3.79Z"/><path class="cls-2" d="M608.87,121.83a12.54,12.54,0,0,0-7.79-6.14,9.29,9.29,0,0,0,4.92-9.48l-.07-.52-.51-.1c-2.89-.59-5.77-1-8.59-1.34a36,36,0,0,1,3.69-2.47c3.89-2.37,7.55-4.61,6.72-11.26l-.07-.55-.54-.09c-.84-.14-1.7-.31-2.6-.49-1.25-.24-2.51-.49-3.78-.67l.36-.15c6.57-2.69,15.56-6.37,15.85-13.67a6.31,6.31,0,0,0-1.63-5c-2.42-2.4-7-2.19-11.32-2-1,0-2,.1-3,.11-24.93.28-45.28,12.38-59.34,35.1.42.24.84.5,1.26.75,13.79-22.26,33.71-34.11,58.09-34.39,1,0,2-.06,3.06-.1,4.06-.19,8.26-.39,10.22,1.56a4.87,4.87,0,0,1,1.2,3.87c-.25,6.35-8.74,9.83-14.94,12.36-1.16.48-2.25.93-3.19,1.35L593.74,90l3.44,0a34.05,34.05,0,0,1,6.56.87c.7.14,1.41.28,2.11.4.46,5.3-2.44,7.07-6.09,9.3a28.81,28.81,0,0,0-5.2,3.75l-1.18,1.11,1.62.15a92.08,92.08,0,0,1,9.6,1.38c.26,3.7-2.06,6.88-6.14,8.38l-3.07,1.12,3.26.29a11.29,11.29,0,0,1,8.9,5.76,6.72,6.72,0,0,1-.58,6.92c-4.37,6.68-20.75,5.13-29.9,3.88.4.54.79,1.08,1.18,1.64,9.9,1.29,25.3,2.39,29.94-4.72A8.25,8.25,0,0,0,608.87,121.83Z"/><path class="cls-2" d="M549.64,108.57c.39.27.77.55,1.15.83a24.09,24.09,0,0,1,5.73-6.74c6.92-5.88,16.4-9.43,22-8.32-.53,7.52-3,11.65-8.06,17.4l-2.88,3.32,3.8-2.2a29.8,29.8,0,0,1,12.08-3.79c-.31,3.66-3.27,6.57-5.78,8.42l-1.33,1,1.61.34c9.06,1.89,9.53,4.12,9.46,4.76-.25,2.25-6.24,4.83-13.72,5.5.39.44.77.88,1.15,1.34,7.1-.83,13.66-3.37,14-6.68.28-2.49-2.78-4.51-9.09-6,2.63-2.2,5.24-5.41,5.17-9.43v-.75l-.76,0A30.89,30.89,0,0,0,573.79,110a25.67,25.67,0,0,0,6.2-16.2l0-.59-.57-.16c-6.84-1.86-17.41,3-23.89,8.48a25.83,25.83,0,0,0-6,7Z"/><path class="cls-2" d="M629.73,156.78l-.07-.52-.51-.09c-5.08-1-10.23-1.66-15.48-2.31l1.89-.48c4.86-1.23,10.37-2.62,13.49-6l.82-.89-1.16-.32c-6.83-1.89-18.63-.73-26.94,2.26-.09.57-.21,1.13-.35,1.68,7.56-2.95,18.63-4.26,25.6-2.83-2.92,2.41-7.44,3.55-11.82,4.66-1.92.48-3.75.94-5.39,1.5l-3,1,3.19.38c6.27.75,12.4,1.52,18.39,2.63a6.68,6.68,0,0,1-2,6c-4.92,4.63-18.44,4.19-31,2a12.5,12.5,0,0,1-.71,1.36c1.42.25,3,.51,4.73.75,9.55,1.32,22.59,2,27.94-3A8.34,8.34,0,0,0,629.73,156.78Z"/><path class="cls-2" d="M438.43,321.1c36.42,11.12,63.67,18.31,91.48,41.67,33.22,27.9,51.41,46.08,94.2,61.19,45.85,16.2,74,29.19,96.74-15.49,10.8-21.18,18.09-47.61,24.33-73.29a48.22,48.22,0,0,0-29.48-56.45c-32.93-12.66-70.43-20.35-100.07-21.54-25.2-1-133,6.78-146.1-15.53Z"/><path class="cls-2" d="M584.08,396.63c-37.71-16.95-128.34,14.08-170.91,34.13,2.67-5.54,3.67-12.81,7.73-19-6.36.43-14.47-.18-21.23,1.69,44.83-20.37,99.48-38.75,148.64-50.85Z"/><path class="cls-2" d="M584.32,261.05a2.72,2.72,0,0,1-1.25.31c-4.94,0-9.88-.23-14.8-.58h0a2.63,2.63,0,0,1-2.42-2.89c5.43-57.45-14.78-50.69-22.21-1.95a2.63,2.63,0,0,1-2.85,2.22l-3.37-.3a2.67,2.67,0,0,1-2-1.23c-11.77-18.28-5.86-47,3.89-68.23A2.64,2.64,0,0,1,542,186.9c38.11,5.34,45.14,32.53,44.2,71.6a2.65,2.65,0,0,1-1.4,2.27Z"/><path class="cls-3" d="M415.56,260c-.83-3.75-1.42-11.25-18.07-14.07.06-.33-3.93,11.91-3.45,11.32,12.86,12.6,24.27,15,34.18,6.61Z"/><path class="cls-3" d="M473.81,235.13c5.72-5.75,13.06-9,13.66,2.87.58,11.37-6.56,25.24-9.9,36.2-2.06,6.76-4.32,13.36-6.75,20-2.56,7-15.12,59.26-30.42,52.66-5.27-2.28.84-17.66,2.12-21.93Z"/><path class="cls-2" d="M482.34,237.57C401,207.05,374.57,284.93,446.72,337c11.66-33.39,25.67-65.24,35.62-99.44Z"/><path class="cls-4" d="M666.77,336c14.68,12.83,35.46,21.33,55.46,26.11-.31.59-3.1,9.84-3.22,10.58-20.72-5.22-41.5-12-62.11-18.33Z"/><path class="cls-5" d="M615.89,350.84c-1,7.18-8,21.13-9.38,28.39-18.75-15.23-37.11-37.9-56-52.65,1.65,6.25-7.7,15.92-4.51,23.06-11.39-19.65-30.68-40.86-51.57-50,20.3-4.9,54.34-17.59,76.34-16.29-.57,4.21-4,11.3-7,17.22,26.6.56,53.26.27,79.51-1.26-2.41,3.85-4.75,9.61-7.66,14a681.76,681.76,0,0,0,66.93-13c-14.93,31.37-36.51,73-45.23,109.43C642.44,399,627,364.11,615.89,350.84Z"/><path class="cls-1" d="M515,271.24a4,4,0,0,1,2.76.61c0,2.53-1.44,2.67-3.68,2.38Z"/><path class="cls-1" d="M522,276.05a5,5,0,0,1-2.36,3.78L517,277.72C517.1,276.3,519.18,274.63,522,276.05Z"/><path class="cls-1" d="M492.37,296.38c.5,1.15-.05,1.43-.14,2.54l-2.57-.14c.15.05.44,1.16-.64.38C489.71,296.86,490.05,296.55,492.37,296.38Z"/><path class="cls-1" d="M504.62,324h0a6.1,6.1,0,0,0,.6-3.07,6,6,0,0,1,4.43-.33,6.66,6.66,0,0,1-.55,4.34l-4.47-.93C504.7,323.89,504.72,323.83,504.62,324Z"/><path class="cls-1" d="M531,330.47a4.4,4.4,0,0,1,2.21.67c-.1.8-.51,1.53-.61,2.33l-2.39-.73C530.61,332,530.67,331.19,531,330.47Z"/><path class="cls-1" d="M542.47,301.19,538,303.08C537.19,299,543.27,295.85,542.47,301.19Z"/><path class="cls-1" d="M575.13,282.17c.64-2.69,3.1-5.61,7-4.11a12.92,12.92,0,0,1-.62,2.35l-4.42,2.7Z"/><path class="cls-1" d="M610,276.72l-6-1.83c.35-.94,1.7-2.3,2.23-3.25C609.8,271.15,611.52,273.26,610,276.72Z"/><path class="cls-1" d="M589.47,320.31c2-2.93,6.88-2.06,5.13,2.67l-3.08.08A15.86,15.86,0,0,0,589.47,320.31Z"/><path class="cls-1" d="M590.86,360.63c-.12,2.92-1.36,5.27-4.24,5.66l-2.44-2.7C584.9,360.22,587.47,358.41,590.86,360.63Z"/><path class="cls-1" d="M603.56,391.79a14.59,14.59,0,0,1-1.17,4.15l-5.32.34C597.3,393.15,599.55,389.65,603.56,391.79Z"/><path class="cls-1" d="M642.25,393.73l-3-.91c-.17,0,0,1.11-1.27.18C638.07,385.22,649.7,391.43,642.25,393.73Z"/><path class="cls-1" d="M661.22,340.06l-4.78-1.46C651.7,331.84,668.75,332.89,661.22,340.06Z"/><path class="cls-1" d="M678,289.06c-.3,1.38-.57,3.51-1.34,4.73l-4.36-.68C670.57,289.64,673.54,286.64,678,289.06Z"/><path class="cls-1" d="M719,311.29,713.87,313C709.34,300.91,727.69,310.26,719,311.29Z"/><path class="cls-1" d="M651.47,275.65l-4,.1C644,266.41,658.54,272.35,651.47,275.65Z"/><path class="cls-1" d="M543.06,269.12c.46-7.4,11.06-4,7.1.43l-6.84-.2Z"/><path class="cls-1" d="M493.45,262.54c2.75-3,9.86-5.57,6.6,2.17l-4.56,1.22C494.85,264.78,494.18,263.65,493.45,262.54Z"/><path class="cls-1" d="M480.21,323.35l-4.67,2.49C470.07,319.22,481.9,318,480.21,323.35Z"/><path class="cls-1" d="M556.25,360.94c.68-11.11,12-1,3.41,1.69Z"/><path class="cls-1" d="M637.76,419.16c2.3-4.8,9.92-1.77,5,2.83Z"/><path class="cls-1" d="M682.94,402a8.45,8.45,0,0,1,7.43.62c-.3,2.64-.88,5.46-3.5,5.38l-4.37-2.63C682.68,404.27,682.83,403.14,682.94,402Z"/><path class="cls-1" d="M715,384c0,2.35-1.11,3.68-3.13,4.17l-1.07-2.94C710.77,383,712.52,382.85,715,384Z"/><path class="cls-1" d="M714.93,343.49c-.12,2.45-1.43,3.6-3.73,4L710,345.14C711.26,343.13,712.7,342.28,714.93,343.49Z"/><path class="cls-2" d="M413.2,722.87l1,.06c3-105,4.54-207.41,4.65-304.5l-6.08,0c-.11,96.79-1.67,198.88-4.63,303.57C409.82,722.19,411.51,722.49,413.2,722.87Z"/><path class="cls-3" d="M486.7,560.41c-11.66-1-31.07-5.23-42.76-5.78-16.22-.76-32.46-1.13-48.7-1.28-12-.1-24-.07-36-.7-11.08-.58-22.15-1.27-33.25-1.48a226.94,226.94,0,0,0-32,1.29,94.51,94.51,0,0,0-20.46,5.26,55.37,55.37,0,0,0-8.68,5.06c-.9.78-1.77,1.59-2.61,2.44a15,15,0,0,1-1.65,1.45,26.52,26.52,0,0,0-1.06,6.34c-1.29,27.82-3.09,80.4.19,104.43,3.71,27.22,2.62,57,11.14,82.87,18.64,56.45,76.43,59.53,143.91,53.81,22.22-1.88,46.81-5.8,60.72-25C490,769,498.49,592.34,486.7,560.41Z"/><path class="cls-3" d="M266.58,755c-11.09-11.93-20.85-24.43-28.47-38.85C222.74,687.08,207,652,205,618.76c12.77-2.47,26.87-2,39.89-2,7.47,0,15-.26,22.46.15,2.76.16,12.89,1.51,11.48.45l4.94-27.27c-9.62.71-19.14,3.1-29,2.95-8.84-.13-17.72-1.58-26.49-1.3-11,.35-23.09.56-33.15,3.9-15.76,5.22-22.29,10.8-15.12,28.87,14.74,37.2,29.13,71,50.4,105.08,10,16,31.06,41.22,50.71,44.26C280,765.45,272.13,761,266.58,755Z"/><path class="cls-2" d="M477.46,574.19c-7,5-20.19,3.78-28.8,4.32-25.17,1.59-50.32,2.51-75.43.82q-4.8-.32-9.59-.77c-8.85-.85-17.77-1.1-26.71-1.15-3.93,0-7.86,0-11.79,0l-7.68,0h-1.22c-3.88,0-8.18,0-12.68.07-7.41,0-15.34.09-22.73-.11-2.89-.08-5.69-.19-8.36-.36-9.23-.56-12.47-2.09-7.74-9.14,1.81-2.7,6.37-4.6,11-5.94,4.16-1.19,8.41-1.94,10.86-2.41,14.54-2.81,30.11-2.1,45.36-2,1.83,0,3.66,0,5.48,0,3.32,0,6.62-.07,9.89-.23,7.95-.38,15.86-.47,23.74-.37,32,.43,63.64,4,95.93,4.17C477.35,561.2,490.75,564.7,477.46,574.19Z"/><path class="cls-4" d="M388.84,572.06c10.46-1.85,20.14.32,30.7-.85-.84-17.07-7.38-41.55-29.39-35h0A12.3,12.3,0,0,0,385,551C387.15,557.07,388.09,565,388.84,572.06Z"/><path class="cls-4" d="M378.92,576.14c-.84,1.47-2.91,2.48-5.69,3.19q-4.8-.32-9.59-.77c-8.85-.85-17.77-1.1-26.71-1.15a41.52,41.52,0,0,1-.56-6.57c-.67,2.09-2.35,3.9-5.34,5.28a18,18,0,0,1-5.89,1.29,67.67,67.67,0,0,1-7.68,0h0c-4.48-.19-8.94-.54-12.13-.18-.58.07-1.16.15-1.75.25-7.41,0-15.34.09-22.73-.11l-1.64-2A33.85,33.85,0,0,1,275.77,562c-.4-7.77,1.74-15.87,8.44-19.73,9.11-5.25,19.52-8,28.61-2.26,4.11,2.62,13.46,10,19.17,17.62a24.24,24.24,0,0,1,4.46,8.62,61.63,61.63,0,0,1,1-8.6c.87-4.39,2.29-8.12,4.38-9.73,8.41-6.48,19.78.53,25.87,5.72A38.94,38.94,0,0,1,371.1,557C375.79,562.29,381.78,571.18,378.92,576.14Z"/><path class="cls-4" d="M463.38,563.19c-3.89-6.43-15.57-10.19-22.48-10a15.26,15.26,0,0,0-6.14,1.76,95.42,95.42,0,0,0-2.36,11.36c-.26,2.1-.47,4.2-.66,6.3-.05.62-.1,1.25-.16,1.87C446.14,575,473.1,579.28,463.38,563.19Z"/><path class="cls-5" d="M115.65,189c4.08-21,12.23-40.23,26.21-56q23.59-25.35,57.68-17.49c7.57,1.75,15.72,3.5,23.3,5.25,16.89,3.5,28,14,35,28.57A134.58,134.58,0,0,1,270,190.7c5.25,35,1.75,70-8.73,103.19C250.8,332.37,238,369.1,224.58,406.41c-5.24,15.16-12.23,29.74-18.05,45.48-2.92,7-5.25,14-8.16,22.15,8.74,4.08,15.73,5.83,23.88,5.83,9.33,0,19.23-.58,28-.58h21.55c1.75,4.08,3.5,7.58,5.24,11.08-3.49,6.41-7.57,8.16-14,6.41-5.24-1.17-11.07-2.92-16.31-2.92H140.12c-2.92,0-5.25,0-7-.58-1.74-1.16-3.49-3.5-3.49-5.25a88.79,88.79,0,0,1,4.08-16.9c25.63-51.31,44.85-105.53,60.58-160.91,7.58-28,14-56.55,17.48-85.71a204.88,204.88,0,0,0,0-65.29c0-2.92-1.17-4.67-1.17-7-3.49-13.41-11.06-19.24-25-20.4-13.39,0-23.88,4.66-32.62,14-5.82,8.16-12.23,15.74-14.56,25.65-1.75,7-2.91,14-5.25,19.82-3.49,7-8.15,10.5-16.89,7C116.23,196,115.65,192.45,115.65,189Z"/></g></g></svg>