<svg xmlns="http://www.w3.org/2000/svg" viewBox="0 0 832.5 832.5"><defs><style>.cls-1{fill:#ffffc5;}.cls-2{fill:#e55747;}.cls-3{fill:#5e4440;}.cls-4{fill:#76b099;}.cls-5{fill:#deaa7c;}</style></defs><g id="Layer_2" data-name="Layer 2"><g id="Layer_1-2" data-name="Layer 1"><rect class="cls-1" width="832.5" height="832.5"/><path class="cls-2" d="M204.26,390.85c-25.94,9-74.31,12.73-89.5,18.12,14.89,2.84,57.69,52.24,82.72,64.06Z"/><path class="cls-2" d="M522.81,446.48c21.67.12,126.49-13.16,138,8.36,18.13,33.88-76.36,23.59-92,23.52,33.81.53,87.5,8.8,91.66,43.87-41,10-99.4,15.06-131.67-12.47Z"/><path class="cls-3" d="M189.91,457.27c-3.5,65.43-42.62,174.4,15.92,234.43,50.24,51.53,171.88,52.06,233.87,24.87,74.5-32.66,99.23-104.93,103.66-178.27,5.71-94.43-5.29-122.29-96.66-137C370.09,388.87,277,385,197.56,388.7,194.42,422.79,189.91,457.27,189.91,457.27Z"/><path class="cls-4" d="M208.56,614.15c-19.38,71.09,26.26,64.93,54.33,7.7-41.07,53.8,4.52,79.13,43.51,26.06-23.29,33.68-6.94,70.3,29.66,45.37-2.21,20.79,8.27,22.52,11.4,34.65,36.09-26.88,100.94-115.23,78.79-165.58-19.2-43.64-54.36-83.72-120.37-65.76C305.88,496.59,218,579.38,208.56,614.15Z"/><path class="cls-5" d="M245.83,458.17a44.31,44.31,0,0,1-4.55-.26l-1.07-.11-.1-1.08c-.57-6.42-1.86-28.57,5.74-44l2.36,1.17c-6.92,14-6.14,34.12-5.57,41.49,21.32,1.74,36.61-13.9,41-42.07l2.6.41c-2.11,13.5-6.85,24.72-13.71,32.47A34,34,0,0,1,245.83,458.17Z"/><path class="cls-3" d="M331.18,797c-.32-13.12.54-27,1.38-40.35,1.37-22,2.66-42.69-.79-60.62l2.58-.5c3.52,18.26,2.22,39.16.83,61.28-.83,13.33-1.69,27.12-1.37,40.13Z"/><rect class="cls-3" x="348.45" y="761.26" width="94.87" height="2.63" transform="translate(-368.91 1154.17) rotate(-89.68)"/><path class="cls-3" d="M293.64,807.51c8.83,12,41.05-.76,40.2-11.52L330,795.9C329.24,796.5,280.39,789.54,293.64,807.51Z"/><path class="cls-3" d="M394.3,808.34c-5.68-10.59-49.36,1.48-47.44,12.64,4.66,10.18,43.05-2.8,50.27-11.37Z"/><path class="cls-3" d="M425.25,611.85c-10.6-3.49-20.58-13.72-20.21-26.36l.31-10.47-4.78,9.31c-7,13.67-17.73,16.63-25.24,13.5s-13.29-13.07-8.56-27.65l-4.4-1.73c-3,6.46-7.31,10-12.42,10.34-6.92.41-15.26-5.26-20.75-14.1-6.56-10.56-7.42-22.22-2.31-31.18L335.15,519l-12,11.63c-11.09,10.77-20.05,14.93-26.62,12.36-6.17-2.41-10.73-11-13.29-24.64-1.2,1.68-2.45,3.33-3.77,4.94,2.64,11.26,7.28,21,15.34,24.12,6.82,2.67,15.06.25,24.58-7.18-1.67,8.6.29,18.16,5.75,27,6.48,10.44,16.32,16.85,25.07,16.33a16.66,16.66,0,0,0,10.09-4.22c-.33,10.43,4.52,18,10.76,21.69a17.69,17.69,0,0,0,2.42,1.22c8.2,3.42,19.26,1.42,27.53-9.66,2.76,11.66,12.77,20.66,23.19,24Q424.7,614.16,425.25,611.85Z"/><path class="cls-3" d="M377.75,654.83l5.6-19.38L373.41,653c-7.68,13.58-16.45,18.61-24.67,14.14l-.55-.31c-12.11-7.2-18.71-32.43-8.89-51.4l-4.14-2.31c-8.7,14.6-19.29,20.3-28.32,15.23-10.72-6-16.21-25-8-42l.63-1.25L295.24,583c-.22.42-.44.85-.64,1.27-4.83,9.4-12.46,20.55-22.29,23-5.49,1.39-11.33,0-17.37-4.3-13.6-9.57-13.76-30-11.42-48.47-1.83,2.43-3.68,4.85-5.52,7.27-1.36,17.52.62,35.5,14.22,45.08,7.22,5.07,14.37,6.76,21.25,5,6-1.52,11.59-5.54,16.81-12a42.12,42.12,0,0,0,.8,12.37c1.94,9,6.66,16.22,13,20l.46.26c3.49,2,14.11,6.22,26-5.49-3.14,18.29,4,37.25,15.27,43.94l.68.38c4.29,2.33,14.39,5.51,25.18-7.35.07,10.78,5.65,19.73,16.16,25.49q1.23-2,2.49-4C382.9,681.39,372.66,672.44,377.75,654.83Z"/><path class="cls-3" d="M595.67,526.42c7.4-6.12,7.28-12.15,6.24-15.69-3-10.14-18.64-18.4-33.78-18.7a123.69,123.69,0,0,0,17.52-24.86c3.75-7.2,7.47-16.72,6.5-24.84-1.58.19-3.17.3-4.75.35.75,5.61-1.27,13.32-5.95,22.3a119.51,119.51,0,0,1-20.86,28l-5.1,5,7.08-1c14.21-1.93,32.09,5.79,34.79,15,2.06,7-5.89,12.4-12.93,15.69l1.57,4.45c5-1.24,11.23-1.89,15.47.75l6.55-.23C605.87,529.69,602.14,526.84,595.67,526.42Z"/><path class="cls-4" d="M213.3,175.56c2.62-1.13-7.66,1.94-13,2a39.53,39.53,0,0,0,5.75-6.11c-13.2,5.8-26.75-1.73-31.5-14.84,2.22-1.39,4.66-1.07,7-2.27-3-3.59-5-10.52-9.55-14.17,2.83-.37,4.29,1.22,6.77,1.35-.33-1-3-9.77-3-10.26a18.28,18.28,0,0,0,1.91,1.61c.06-3.06-1.29-8.3-1.87-11.25,1.45-1.49,4.59,2.52,5.64,2.41-2-5.27-1.58-11.52-3-16.64,2.62,1.82,6.39,4.19,8.21,5.46.25-3.52-1.83-6.61-1.08-10.07,2.76-3.47,5.37,2.28,7.18.65.66-3-.5-7.14,1.34-9.89,2.3,2.3,4.69,4.42,6.61,6.25.58-3.55,4.6-11.41,4.66-14.69,1.32,3.16,4.06,6.66,5,8.87.87-3.74,4.2-9,5-13.09,8.13.49,2.46.88,13.18-2.52,2.09,1.09.12,5,2.1,6.46,4.11-2,8-4,12-6.51,1.09.53-.43,5.56,1.51,6.5,2.47-.21,7.55-2.32,9.82-1.37-.62,4.22,1.94,11,.94,15.82,3.33-2.22,9.37-3.06,12.23-4.9,0,4.47-.11,9-1.51,13.38,1.63-.58,4.45-3.25,5.94-3.34-1.92,4.63-1.72,10.84-6.22,16.93.08.3,4.58-.36,5.46,1.73-2.64,3.37-4.79,9-8,12.87,4.28-1.08,9.73.35,12.61-.22.42,5-.85,6.09-2.81,11,3.27,4.22,4.45,4.31,6.89,9.53a57.8,57.8,0,0,0-9.09,5.09c9.08.11,13.14,3.17,19.95,6.35-19.64,7.13-42.92-.52-60.8,9.66-.22-.44-3.68-5.84-4.28-6.53-5.31-.95-6,3.57-9.54,4.22Z"/><path class="cls-3" d="M191.67,162.51l-.15-.11a24.19,24.19,0,0,1-5-4.64l1.06-.78a23.58,23.58,0,0,0,4.71,4.37l.14.12Z"/><rect class="cls-3" x="191.68" y="150.08" width="1.32" height="3.72" transform="translate(-52.66 159.49) rotate(-40.07)"/><path class="cls-3" d="M190.94,139.79a9.5,9.5,0,0,1-2.28-2.07l1-.82a8.11,8.11,0,0,0,1.94,1.77Z"/><path class="cls-3" d="M187,127.85l-1.3.21a8.54,8.54,0,0,0-1.62-3.78l1.05-.8A9.83,9.83,0,0,1,187,127.85Z"/><path class="cls-3" d="M185.73,140.92c-1.59-.75-2.53-2.55-3.44-4.3l-.3-.57,1.17-.62.3.58c.81,1.55,1.65,3.16,2.83,3.71Z"/><path class="cls-3" d="M201,134.51a20.85,20.85,0,0,1-3.21-5.36l1.22-.5a19.35,19.35,0,0,0,3,5Z"/><path class="cls-3" d="M208.69,119.45a26.91,26.91,0,0,1-4.29-5.51l1.14-.68a25.22,25.22,0,0,0,4.07,5.24Z"/><path class="cls-3" d="M217,108.44a10,10,0,0,0-2.65-4l.89-1a11.29,11.29,0,0,1,3,4.51Z"/><path class="cls-3" d="M231.5,110.72c-.76-1.81-1.5-3.66-2.18-5.5l1.24-.46c.67,1.82,1.4,3.66,2.16,5.45Z"/><path class="cls-3" d="M229.7,132.44l-1.31-.17a7.06,7.06,0,0,0-1-4.85l1.11-.71A8.36,8.36,0,0,1,229.7,132.44Z"/><path class="cls-3" d="M219.23,136.5l-1.31.11c-.17-2-.42-3.91-.76-5.84l1.3-.23C218.81,132.51,219.07,134.51,219.23,136.5Z"/><rect class="cls-3" x="209.4" y="142.84" width="1.32" height="5.38" transform="translate(-33.24 67.36) rotate(-16.9)"/><rect class="cls-3" x="203.97" y="149.06" width="1.32" height="5.97" transform="translate(-41.33 219.09) rotate(-51.86)"/><rect class="cls-3" x="232.24" y="142" width="1.32" height="4.43" transform="translate(-22.5 45.16) rotate(-10.57)"/><rect class="cls-3" x="241.81" y="140.15" width="4.64" height="1.32" transform="translate(96.82 381.07) rotate(-88.46)"/><rect class="cls-3" x="253.73" y="139.24" width="5.27" height="1.32" transform="translate(95.02 383.34) rotate(-85.09)"/><path class="cls-3" d="M256,118.51l-1.17-.6a17.87,17.87,0,0,0,1.78-5.48l1.31.21A19.27,19.27,0,0,1,256,118.51Z"/><path class="cls-3" d="M241.87,122.16l-1.28-.3a31,31,0,0,1,2.89-7.67l1.16.62A29.71,29.71,0,0,0,241.87,122.16Z"/><path class="cls-3" d="M243.4,100l-1.3.23a10.49,10.49,0,0,0-1.77-4.27l1.07-.77A11.71,11.71,0,0,1,243.4,100Z"/><path class="cls-3" d="M235.7,97.07l-1.18-.59c.78-1.58,1-5.42.48-7.91l1.29-.28C236.9,91.11,236.62,95.21,235.7,97.07Z"/><path class="cls-3" d="M221.86,96.49l-1.31-.18a10.15,10.15,0,0,0-.85-6l1.19-.58A11.5,11.5,0,0,1,221.86,96.49Z"/><path class="cls-3" d="M203.34,105.45c-1-2.58-2-5.22-2.88-7.83l1.24-.44c.92,2.6,1.89,5.23,2.88,7.8Z"/><path class="cls-3" d="M197,113.51l-1.28.34-.21-.83A20.39,20.39,0,0,0,193,106.7l1.09-.74a21,21,0,0,1,2.61,6.73Z"/><path class="cls-3" d="M192.11,118.45a17.69,17.69,0,0,1-4.68-4.94l1.09-.74a16.58,16.58,0,0,0,4.34,4.59Z"/><path class="cls-3" d="M262.73,147.71l-1.07-.76a21.6,21.6,0,0,0,2.52-4.74l1.24.47A22.8,22.8,0,0,1,262.73,147.71Z"/><path class="cls-3" d="M266.55,156.48a8.42,8.42,0,0,1-1.08.25l-.22-1.3a6.88,6.88,0,0,0,4-2.14l1,.86A8,8,0,0,1,266.55,156.48Z"/><rect class="cls-3" x="236.19" y="147.28" width="5.91" height="1.32" transform="translate(61.02 365.54) rotate(-82.44)"/><path class="cls-3" d="M220.64,153.07l-1.31-.14a7.81,7.81,0,0,0-1-4.89l1.14-.67A9.16,9.16,0,0,1,220.64,153.07Z"/><path class="cls-3" d="M212.15,158c-.64-1.35-1.23-2.73-1.76-4.12l1.23-.47c.52,1.35,1.1,2.71,1.72,4Z"/><path class="cls-3" d="M198.37,166.41a30.81,30.81,0,0,0-4-4.8l.93-.94a32.45,32.45,0,0,1,4.13,5Z"/><path class="cls-3" d="M187.7,167.85a40.22,40.22,0,0,1-5.89-5.3l-1.3-1.32.93-.93c.41.4.85.85,1.31,1.32a39.3,39.3,0,0,0,5.67,5.13Z"/><path class="cls-3" d="M253.5,112.16l-1.11-.72a10.76,10.76,0,0,0,1.79-6.81l1.32-.1A12.09,12.09,0,0,1,253.5,112.16Z"/><rect class="cls-3" x="222.65" y="116.3" width="1.32" height="4.4" transform="translate(-24.81 70.05) rotate(-16.9)"/><path class="cls-3" d="M285.31,272.05c.12.41.23.81.34,1.2l.09.31c0,.16.09.32.13.47.11.39.22.76.32,1.15s.16.55.23.82.17.62.26.93.19.71.28,1.07.24.9.35,1.35c.05.2.11.4.16.61s.15.56.22.85c.14.58.29,1.16.43,1.74l.3,1.2c1.88,7.77,3.49,15.68,5.05,23.63.08.43.17.86.25,1.3.19,1,.39,2,.58,2.95l.17.9s0,0,0,0l.18.91c.11.6.23,1.21.35,1.81s.29,1.5.44,2.25c0,.18.07.37.11.56l.18.92.06.31c.06.29.12.58.17.87l.09.43c.1.5.19,1,.29,1.5l.15.72c.06.29.12.59.17.88,1.41,7,2.89,13.89,4.6,20.68.07.3.15.59.22.88.17.68.34,1.34.52,2,.1.38.2.76.31,1.14a1.8,1.8,0,0,0,.06.22c.26,1,.53,2,.81,2.93.05.21.11.41.17.62s.17.57.25.86c3.44,11.81,2.24,24.2,8.39,34.44-27.11,7-80.32,12.84-110.79,7.93,1.68-5.41.75-18.49.54-31.48,0-.3,0-.59,0-.88,0-.73,0-1.45,0-2.16,0-.54,0-1.07,0-1.6,0-.14,0-.28,0-.42,0-.31,0-.63,0-.94,0-.74,0-1.48,0-2.21l0-1.21c0-1,.06-1.93.11-2.87,0-.59.06-1.18.1-1.75,0-.21,0-.42,0-.64s0-.6.07-.9a52.54,52.54,0,0,1,1.35-8.66c1.47-5.6,4.3-7.82,6.48-11.31.21-.33.42-.68.62-1.05.1-.17.19-.35.28-.54s.33-.68.48-1.05.33-.83.47-1.28c.09-.27.18-.55.26-.84a23.24,23.24,0,0,0,.54-2.6c0-.27.08-.55.11-.83s.06-.59.08-.89,0-.55,0-.83,0-.58,0-.89v-.14c0-.6,0-1.21-.05-1.83s-.08-1.27-.13-1.92c-.05-.48-.1-1-.16-1.46-.82-7.33-2.89-15.69-3-21.67q-.08-3.25-.06-6.55c0-.59,0-1.19,0-1.79a.25.25,0,0,1,0-.08c0-.31,0-.63,0-.95s0-.71,0-1.06,0-.61,0-.91c0-.92.05-1.85.08-2.77,0-.5,0-1,0-1.49l.06-1.4c0-.1,0-.21,0-.31,0-.3,0-.6,0-.89s0-.6.05-.9c0-.12,0-.22,0-.34,0-.3,0-.6.05-.9.58-10.43,1.72-21,3.17-31.7l.12-.86.15-1.08c0-.3.08-.61.13-.92.09-.69.19-1.39.3-2.08l.12-.88.15-1c0-.3.08-.6.13-.9,0,0,0-.08,0-.13.06-.43.13-.86.2-1.3l.15-1c.05-.3.09-.6.14-.9l0-.22.15-.94c0-.28.09-.56.13-.84l.15-.92c1.62-10.29,3.46-20.57,5.29-30.72.1-.56.2-1.12.31-1.68.06-.39.13-.77.2-1.15l.18-1c0-.18.06-.36.1-.55.14-.79.28-1.58.43-2.37v0l.3-1.67c0-.08,0-.16,0-.24l.33-1.82c.12-.65.24-1.3.35-1.95.06-.3.11-.6.16-.9,1.34-7.46,2.63-14.83,3.78-22,9.53.88,11,11.28,12.61,21.42,0,.29.1.58.14.87a.52.52,0,0,1,0,.11l.15.91v0c0,.27.08.54.13.8a.68.68,0,0,1,0,.14c.09.56.19,1.13.29,1.68,0,.09,0,.18,0,.26l0,.11a14,14,0,0,1,1.62.54,11.64,11.64,0,0,1,1.09.48,17.42,17.42,0,0,1,1.59.84c.53.32,1.07.67,1.6,1.05s1,.72,1.44,1.12l.51.42c.34.29.66.58,1,.89l.37.36c.47.45.93.92,1.39,1.41,6.71,7.14,12.8,18.54,18,30.85.13.29.25.58.37.88s.18.41.26.61l.38.9.31.77.44,1.07.62,1.56c.12.29.23.58.34.86.36.91.71,1.82,1.06,2.73l.6,1.58.63,1.69.32.89c.18.47.35.95.52,1.42.11.29.21.58.31.86C279.43,251.62,283,264.05,285.31,272.05Z"/><path class="cls-1" d="M293.79,345.39c2.57-.07,5.14-.11,7.7-.1-.07-.29-.15-.58-.22-.88-1.26,0-2.51,0-3.77,0l-.18-.77-3.64.85c-11.44.33-22.89,1.42-34.08,2.78-13.55-.28-28.13-.41-42.4.34-1.54.08-3.17.12-4.89.16a92,92,0,0,0-10.2.59c0,.3-.05.6-.07.9a90.6,90.6,0,0,1,10.29-.61c1.72,0,3.36-.08,4.92-.16,12.13-.64,24.5-.64,36.27-.45l-2.53.33c-5.26.7-10.39,1.59-15.35,2.59-1.29.12-2.59.26-3.88.41-10.48-.09-20.29-.58-29.77-1.47,0,.57-.07,1.16-.1,1.75l2.31.57c1.41.36,2.86.72,4.29,1q-3.44.54-6.71,1.33c-.73.18-1.45.37-2.17.57l.17.87,2-.23q5.81-.69,11.65-1.19a121,121,0,0,0-11.68,3.4c0,.31,0,.63,0,.94a122,122,0,0,1,15.87-4.37l1.37.17c-2.7.62-5.36,1.31-8,2.11-.8.24-1.6.5-2.39.75l-.8.27-1.62.38c-1.45.33-3,.68-4.46,1.11,0,.53,0,1.06,0,1.6,14,.67,28.53-1.37,42.66-3.35,3.43-.49,6.92-1,10.39-1.42,6.67-.45,13.65-1.35,21-2.31,6-.78,12.1-1.57,18.14-2.12,2.63,0,5.27,0,7.84-.15l1.46,0c-.28-1-.55-1.95-.81-2.93l-1.3-.1,1.24-.12c-.11-.38-.21-.76-.31-1.14-4.87.13-9.81.34-14.85.62l-3.54-.1,2.64-.63Zm-42.68,3.87c2.82-.37,5.67-.74,8.54-1.09,3.44.07,6.83.16,10.12.24l7,.15-.24.05-3.63.28c-3.85.31-7.72.57-11.82.84l-2.26.15c-5,.05-10,.19-14.95.48Q247.42,349.76,251.11,349.26Zm9.63,1.49c-1.72.09-3.42.16-5.1.23l3.15-.22Zm-28.33,2.45c5.05-.3,10.09-.54,15.1-.76,4.52,0,8.87-.09,13.05-.32-4.08.82-8.17,1.57-12.26,2.2-2.07.33-4.43.76-6.94,1.22-5.31-.11-10.89-.47-16.81-1.08C227.14,354,229.77,353.56,232.41,353.2Zm-24.45,1c1.16-.19,2.33-.37,3.51-.52l.73.11C210.78,353.91,209.37,354,208,354.19Zm3.52-1.41-2.58-.39c-1.47-.24-3-.63-4.49-1l-2.27-.56c5.83.54,11.79.93,18,1.17C217.18,352.17,214.3,352.43,211.48,352.78Zm4.61.66-1.16-.16c2.38-.23,4.8-.4,7.24-.52l-2,.36Zm7.11.35-.6.14-1,.21-1.23-.15ZM221.78,355c5.42.62,10.57,1,15.48,1.25-9.09,1.63-19.31,3.15-26.62,1.71C214.17,357,217.89,356,221.78,355Zm22.48,1.65c-13.9,1.95-28.24,4-41.95,3.37,1.35-.37,2.74-.69,4.06-1,.86-.2,1.69-.39,2.48-.59,8.57,2.36,21.83-.08,32.51-2l.07,0c1.53,0,3,.05,4.5,0Zm18.12-2.33c-2.53.27-5.11.57-7.7.91-1,.07-2.06.13-3.09.17-1.78.08-3.61.12-5.46.14l2.3-.39c6.13-.95,12.25-2.15,18.32-3.47l2.4-.18c4.27-.13,9.09,0,14.17,0l1.79,0C277.63,352.59,269.92,353.57,262.38,354.36Zm33.13-5.24q3.27.15,6.54.39l-5.16.63q-4.68.15-9.38.19c-1.1,0-2.21-.07-3.32-.09L295,349.17Zm-8.34-.32,2,.06q-6.24.61-12.55,1.18l-2.24,0,2.2-.52Q282,349.09,287.17,348.8Zm-7-1.06-3.19-.06-7.17-.15c-1.25,0-2.52-.07-3.79-.09,7.69-.86,15.49-1.54,23.3-1.89l-3.24.78C284.1,346.8,282.13,347.28,280.15,347.74Zm-16.9,8.89-9.37,1.09c-12,1.4-24.43,2.85-36.68,3.93-1.49.13-3.09.34-4.8.57a68.53,68.53,0,0,1-10.67.86c0,.29,0,.58,0,.88a69.29,69.29,0,0,0,10.76-.86c1.7-.23,3.3-.45,4.77-.57C229.55,361.45,242,360,254,358.6l9.37-1.09c5-.57,10.12-1.09,15.08-1.59,8.29-.83,16.79-1.68,25.18-2.85-.08-.29-.17-.58-.25-.86-8.33,1.16-16.78,2-25,2.84C273.38,355.54,268.25,356.06,263.25,356.63Z"/><path class="cls-1" d="M293.72,308.68c-.08-.44-.17-.87-.25-1.3l-1.78.21c-5.9-.56-11.85-.94-17.79-.94-17.46,0-37.32.69-56.49,5-1.64.17-3.29.37-4.92.6.06.49.11,1,.16,1.46,1.62-.43,3.26-.83,4.9-1.2,3.33-.35,6.68-.6,10-.77a73.29,73.29,0,0,0-14.8,3.89c0,.62.05,1.23.05,1.83l.07,0,.32.21-.39-.05c0,.31,0,.6,0,.89.79.1,1.61.18,2.44.24a23.11,23.11,0,0,0,5.82,1.61l-1.63.46a44,44,0,0,1-6.67-1.48c0,.3-.05.59-.08.89a43.46,43.46,0,0,0,4.84,1.15c-1.27.39-2.53.81-3.79,1.25l-.72.26.58.49a7.66,7.66,0,0,0,1,.72c-.87-.12-1.73-.27-2.56-.44-.08.29-.17.57-.26.84.82.16,1.66.31,2.51.44l-3,.84c-.15.37-.31.71-.48,1.05l4.29-1.21,1.38-.39,1,.1a24.77,24.77,0,0,0,4.59.82q-5.46.53-10.86,1.22h-.63c-.2.37-.41.72-.62,1.05l1.31-.17a168.48,168.48,0,0,0,20.11-1.45c12.78.64,25.79-.48,38.41-1.55,2.92-.26,5.94-.52,8.89-.74,4.53-.36,9.33-.5,14.41-.66l3.6-.11c-.05-.29-.11-.59-.17-.88-1.15,0-2.3.08-3.45.11l-3.26.1c2.23-.24,4.42-.54,6.56-.93-.1-.5-.19-1-.29-1.5-3.21.28-6.41.59-9.58.9-4.51.45-9.18.91-13.65,1.26l-5.28.39h-.79c-4.61.05-9,.1-13.07.31l-2.39.15,8.2-1.51c2.3-.42,4.56-.85,6.79-1.25l7.72-.14c7.24-.13,14.59-.26,22-.54-.05-.29-.11-.58-.17-.87-7.32.27-14.61.4-21.8.53l-2.16,0q4.25-.73,8.35-1.34l.65-.06c2.61-.2,5.29-.39,8-.56,2.27.33,4.58.7,6.94,1.08l-.18-.92-2.6-.41,2.49-.15c-.15-.75-.29-1.5-.44-2.25a170.84,170.84,0,0,0-20.4-1.9c-2.59,0-5.25-.07-8-.11l-3.07,0q3.07-.63,6.16-1.2c.17,0,.34,0,.51,0,7.63.1,16.35.22,24.41,1.45l-.18-.91-.74-.12.73.08-.17-.9c-5.43-.54-11-.88-16.65-1,4.4-.76,9.15-1.52,14.05-2.13Zm-7.15,13.73,6.12-.59c-3,.41-6,.69-9.08.88Zm-68.26-3.54c9.3.18,19.79-1.6,24.71-3.54l-.33-.82c-5.22,2.06-17.47,4-27.24,3.35q-.67-.32-1.32-.69c13.19-2.86,27.71-3.26,41.62-3.16-3.1.69-6.19,1.43-9.26,2.19a143.57,143.57,0,0,0-23.08,3.55A30.53,30.53,0,0,1,218.31,318.87Zm8.1,1.09A138.55,138.55,0,0,1,241,317.6c-3.16.82-6.31,1.66-9.43,2.51h-.24l-1.32,0C228.81,320,227.61,320,226.41,320Zm2.2,1-2,.56c-1.66-.09-3.28-.21-4.86-.38l1.76-.46C225.19,320.8,226.92,320.87,228.61,320.92Zm-11.74,3.28a9.34,9.34,0,0,1-2.05-1q2.34-.8,4.73-1.49c1.45.21,2.95.37,4.48.5Zm50.72-.15q3.41,0,6.92-.1l-4.81.41c-10.89.93-22.07,1.89-33.12,1.72l2.17-.33c4.15-.26,8.3-.49,12.41-.72C256.58,324.73,262.13,324.43,267.59,324.05Zm-8.25-2.79c-5.65,1.05-11.34,2.1-17,3a162.08,162.08,0,0,1-23.49.27l7.87-2.21c9.17.47,19.25-.26,27.3-.85,2.32-.16,4.44-.31,6.32-.42ZM266.2,320l-2.43.05c-2.56.06-5.94.3-9.84.59-7.23.52-16.11,1.16-24.45.95l2.17-.59c12.53.32,25.25-.56,37.68-1.56Zm16.24-2.65-2.35.33-5.6.46c-13.06,1.07-26.52,2.18-39.79,2,4-1.06,7.93-2.1,11.93-3.09a272.38,272.38,0,0,1,28.83-.44c2.57.07,5.2.28,7.87.58Zm-15.8-3.2c2.71.05,5.36.1,8,.13a157.57,157.57,0,0,1,19,1.7c-2.22.26-4.48.52-6.72.8a105.76,105.76,0,0,0-11.35-1c-7.61-.22-15.7-.3-23.93.12,2.69-.64,5.38-1.25,8.09-1.83Zm-7.07-1c-15.39-.19-31.77,0-46.49,3.34l0,0c7.59-3,16.09-4.39,24.83-5,7.9-.07,15.8.17,23.6.4l1.58,0c.76,0,1.54,0,2.33.06Q262.47,312.55,259.57,313.16Zm13.5-2.63c-2.07,0-4.18-.1-6.38-.16-9.28-.24-19.2-.5-28.86.2-4.23,0-8.46.17-12.68.43,16.69-2.95,33.62-3.46,48.75-3.46,4.6,0,9.2.22,13.77.59C282.49,308.86,277.55,309.72,273.07,310.53Z"/><path class="cls-1" d="M258.88,272c-2.18,0-4.23.08-6.09.07-2.61,0-5.3-.06-8.15-.12-8.94-.21-18.67-.43-27.57,1.16-1.91,0-3.82,0-5.71.08l-1.68.08-1,0,.94.27,1.59.47c.23.08.46.14.7.21-.79.22-1.58.46-2.35.72,0,.5,0,1,0,1.49,1.2-.33,3.06-.75,6-1.3,1.2.27,2.42.52,3.66.74a67.28,67.28,0,0,0-6.53,2l-.1,0-1.07.13.32.25.05.28a3.94,3.94,0,0,0,.54,1.48c-1-.25-2-.51-2.91-.81,0,.3,0,.6,0,.91,1.22.38,2.5.71,3.8,1a11.84,11.84,0,0,0,4.37,2.43l-.63,0a28.93,28.93,0,0,1-7.56-2.35c0,.32,0,.64,0,.95.27.14.56.27.86.4-.3-.1-.59-.21-.87-.32,0,.6,0,1.2,0,1.79l.73,0c1.27.09,2.54.17,3.81.23,1.51.25,3,.42,4.34.57l1.62.19c12,1.57,24.36,1.56,37,.86,9.19,0,18.86-.13,27.87-1.71,1.23-.14,2.46-.3,3.68-.48l-.3-1.2-3.88.33-4.74.4c-5,.46-9.89.9-14.78,1.27l-2.61.07-2.89.08c-.61,0-1.53.06-2.71.12l-4.81.2-5,0c-.74,0-1.71,0-2.88,0-2.9,0-7.2.1-11.9,0l-1-.06c-1.28-.09-2.49-.19-3.64-.32,5.89,0,11.76-.18,17.54-.35l2.17-.06c13.53-.39,27.44-.78,40.71-3.38-.07-.29-.14-.57-.22-.85-13.19,2.57-27,3-40.52,3.35l-2.17.06c-7.7.22-15.57.45-23.42.31a21.27,21.27,0,0,1-6.07-2.11c9.4,1.73,20.18,1.49,28.46,1.3,1.71,0,3.33-.07,4.77-.08l3.6,0c8.94,0,18.72-.1,27.75-1.93a56.61,56.61,0,0,0,7.44-1.48c-.11-.45-.23-.9-.35-1.35A106.19,106.19,0,0,0,272,276c1.81-.09,3.59-.17,5.33-.23,3.14.29,6.26.67,9.34,1.16-.09-.31-.17-.62-.26-.93-1.35-.21-2.7-.4-4.06-.57v-.55c-3.22-.08-6.52-.26-9.85-.48,4.49.14,9.1.35,13.67.78-.1-.39-.21-.76-.32-1.15,0-.15-.09-.31-.13-.47C277.11,271.68,267,271.86,258.88,272Zm-3.95,1.91,3.37.26c-5,.05-10,.26-14.9.59-2.43-.17-4.87-.37-7.26-.57C242.35,273.77,248.66,273.78,254.93,273.92Zm-11.53,1.73,3.3.21c2.47.15,5,.24,7.48.32-6.93.37-14.07.6-21.07.3Q238.23,276,243.4,275.65Zm-15.69.48c-1.26-.11-2.51-.24-3.76-.39,2.32-.44,4.65-.79,7-1.06l5.07.4,1.52.12C234.24,275.47,231,275.79,227.71,276.13Zm24-.91c6-.22,12-.24,17.9,0q-2.79.15-5.7.35l-5.71-.18C256.09,275.36,253.91,275.3,251.74,275.22Zm-12-2.08c-2.87.13-5.75.34-8.6.66l-4.2-.29C231.11,273.16,235.39,273.07,239.7,273.14Zm-22,1.6q1.89-.36,3.81-.63c1.76.06,3.51.16,5.26.27-1.81.28-3.6.61-5.37,1C220.15,275.2,218.92,275,217.7,274.74Zm3.68,1.54c.73.11,1.47.21,2.21.3q-3.18.36-6.31.75C218.64,276.94,220,276.59,221.38,276.28Zm-7.66,4.08a3.89,3.89,0,0,1-.83-1.25,15.69,15.69,0,0,0,4.54,1.93C216.17,280.85,214.93,280.62,213.72,280.36Zm38.39,1.52c-1.21,0-2.41,0-3.6,0-1.44,0-3.06,0-4.78.08-2.24.05-4.67.11-7.21.12,1.9-.09,3.75-.2,5.49-.31,2.41-.14,4.49-.27,6.14-.3,3.18-.06,6.4,0,9.82.05,2.4,0,4.81.07,7.22.07C260.76,281.84,256.34,281.86,252.11,281.88Zm33.17-3.33a54.46,54.46,0,0,1-5.56,1.41c-7,.93-14.47.82-21.74.71-3.42-.06-6.65-.11-9.84-.05-1.67,0-3.76.16-6.19.3-8.84.54-22,1.35-28.14-2.28,4.54-.57,9.19-1.12,13.91-1.62,11.71,1,24,.23,35.35-.49l.88,0A135,135,0,0,1,285.28,278.55Zm-17.87-5.17-3.7-.11-1.35,0c-2.41-.07-4.86-.15-7.35-.2L254,273c1.55,0,3.21,0,4.94-.07,7.57-.14,16.93-.31,25.09,1.21C278.37,273.66,272.75,273.52,267.41,273.38Zm17.4-1.4c-9.85-3.78-27-3.23-37.35-2.89-1.91.06-3.61.11-5,.13-10.63-.69-22.23-1-32.65,1,0,.3,0,.6-.05.9a95.32,95.32,0,0,1,17.73-1.57,167.93,167.93,0,0,0-17.74,1.91c0,.3,0,.6-.05.9a189.68,189.68,0,0,1,31.77-2.28h1c2.59.17,5.13.36,7.58.55l3.32.24c2.68.2,5.89.3,9.29.42a214.11,214.11,0,0,1,22.06,1.54c.32.13.64.26.94.4-.11-.39-.22-.79-.34-1.2Zm-22.13-1.55c-3.39-.11-6.6-.22-9.25-.41l-2.19-.17c8.57-.23,20-.32,28.45,1.52C273.82,270.81,267.89,270.61,262.68,270.43Z"/><path class="cls-1" d="M274.46,237.75c-7.58.51-15.43.24-22.81,0-3.92-.14-7.61-.26-11.09-.27-2.26,0-5,.1-7.86.21a177.53,177.53,0,0,1-19.58,0l-.12.86a173.2,173.2,0,0,0,19.73,0c2.88-.11,5.59-.21,7.82-.2,3.48,0,7.16.13,11.06.26a226.51,226.51,0,0,0,23.16,0C274.67,238.33,274.57,238,274.46,237.75Zm-.84-2.31c-2.72-.08-5.43-.2-8.12-.31l-2.14-.1c3.23-.31,6.45-.71,9.63-1.28l-.6-1.58c-2.89,0-5.79-.06-8.67-.12-4.32-.08-8.4-.16-12.38-.1-3.51.05-7.43.29-11.57.54-5.89.35-12.13.73-18.16.65a38.62,38.62,0,0,1-7.51-2.29c0,.3-.09.6-.13.9A34.83,34.83,0,0,0,217.5,233c-1.24-.06-2.47-.15-3.68-.28l-.12.88c2.54.25,5.17.37,7.84.41a97.07,97.07,0,0,0,16.72,1.67c-6.28.4-16.07,1-24.86,0-.05.31-.09.62-.13.92,9,1,18.94.35,25.64-.08l1.13-.07c2.64-.16,5.38-.3,8-.43,2-.1,4-.2,6.05-.32,2.18,0,4.23,0,6,.07l5.33.22c2.77.12,5.61.24,8.49.33Zm-19.54-.61-3.64,0c-7.21.06-15.84.14-23.69-.87,4.4-.1,8.83-.37,13.07-.62s8-.49,11.53-.54c4-.06,8,0,12.35.1,2.71.06,5.43.11,8.14.12A161.58,161.58,0,0,1,254.08,234.83ZM271,228.58c-11.77.72-23.61.94-35.29,1.06l0-.58c7.35-.4,14.71-.73,22-1v-.51l2.71-.08c2.62-.09,5.62-.28,8.8-.49h.15l1,.05-.44-1.07h-.69a124,124,0,0,0-13.48-.27h-.27c-2.21-.11-4.53-.26-7-.42l-1.56-.1c1.8-.24,3.63-.45,5.47-.64l2.38.11,3.08.15c2.45.11,5,.19,7.76.27l4,.13-.38-.9-3.58-.11-6.11-.2c1.16-.07,2.32-.13,3.48-.17,1.76,0,3.69-.06,5.72-.13H269c-.12-.3-.24-.59-.37-.88-1.86,0-3.71.06-5.55.13h-3.42c-8.48-.07-17.16-.13-25.8.29a131.46,131.46,0,0,0-18.77,1.38l-.15.92c1.24-.19,2.48-.37,3.73-.52l0,.43h.89c-1.63.25-3.23.55-4.78.94l-.15.94a66.08,66.08,0,0,1,14.15-1.77c3,.08,5.92.19,8.86.32l-1.83.38c-7.08.18-14.22.48-21.21,1.29-.05.3-.09.6-.14.9,5.65-.66,11.41-1,17.15-1.19-1.12.3-2.21.6-3.28.93l-.17.05c-4.57.34-9.2.75-13.85,1.24-.07.44-.14.87-.2,1.3,4.45-.06,8.92-.1,13.28-.13,14.47-.11,29.24-.24,43.93-1.15C271.22,229.16,271.11,228.87,271,228.58Zm-42.2-4-2.45-.05c2.5-.22,5-.38,7.51-.5,4.4,0,8.76.06,13,.22-1.4.18-2.79.39-4.15.61C238.17,224.65,233.45,224.48,228.79,224.62Zm14.12,1.43h-.15l-1.83,0,.59-.1Zm-7,1c2.29-.06,4.58-.1,6.86-.14l2.51-.05c1.58,0,3.27-.09,5.06-.16,1.55,0,3.18-.11,4.86-.15l2.6.09c-7.84.26-16.37.61-25.23,1.2C233.67,227.59,234.79,227.33,235.92,227.08Zm-8.52,2.63-3.25,0,7.11-.42c1.37.14,2.73.25,4.09.33Z"/><path class="cls-1" d="M222.76,180.53c0,.3-.1.6-.16.9,5.69-.54,11.58-.62,16.69-.63,0-.29-.09-.58-.14-.87C234.13,179.93,228.37,180,222.76,180.53Zm26.43,10-1.27.07c-1.84-.09-3.69-.21-5.53-.34,1.35-.06,2.66-.09,3.89-.1h2.54c-.34-.31-.66-.6-1-.89h-1.54c-3,0-6.35.2-9.93.4l-.7,0-1.18-.1,1.29-.08,3.16-.18c2.73-.14,5.54-.29,8.39-.5-.47-.4-1-.77-1.44-1.12l-5,0c-4.34.05-8.73.09-13.14.17,2-.42,3.93-.84,5.93-1.23,3.69.07,7.24.05,10.64,0a17.42,17.42,0,0,0-1.59-.84c-1.45,0-2.92,0-4.42,0,1.11-.19,2.22-.36,3.33-.52a14,14,0,0,0-1.62-.54l0-.11c-2.14.33-4.28.72-6.4,1.13l-3.93-.09.82-.23c3.13-.46,6.3-.82,9.46-1.07-.1-.55-.2-1.12-.29-1.68l-.55.06.4-.15.13-.05,1.87-.68-2-.12h0l-.15-.91a151.12,151.12,0,0,0-17.06,2.47l-.33,1.82c.65-.2,1.29-.38,1.93-.55,2.21-.14,4.39-.26,6.46-.36l1.52-.08-1.62.47c-1.82.27-3.63.57-5.41.9l-2.92-.14-.3,1.67.15,0-.15,0c-.15.79-.29,1.58-.43,2.37,1.15.06,2.31.14,3.48.22-1.18.12-2.38.24-3.58.33l-.18,1c4.89.11,9.95-.15,14.77-.42l4.43.37c-.93.05-1.81.11-2.59.18l-1.29.13-4,.27c-3.72.25-7.61.51-11.5.62-.11.56-.21,1.12-.31,1.68,3.47-.27,6.91-.67,10.21-1.06,2-.22,3.86-.44,5.7-.63s3.81-.22,5.64-.28c2.32-.08,5.21,0,8.27.05h.4C250.12,191.45,249.66,191,249.19,190.53Zm-18.92-7.12-1.2.06a47.9,47.9,0,0,1,7.77-.8l-1.42.46C233.8,183.23,232.07,183.32,230.27,183.41Zm-6.39,4.47-.75.16-1.68,0c1.79-.53,3.59-1,5.36-1.53l2.83.09Zm1.39,1c3-.06,6.08-.1,9.09-.14-1.56.12-3.19.28-4.88.46Z"/><path class="cls-4" d="M203.5,374.49l-.34.35A40.13,40.13,0,0,1,202,386.06a74.94,74.94,0,0,1-3.72,11c19.75,12.55,103.69-4.31,116.67-7.64-1.78-11.86-4.23-24.09-7.17-35.73C274.85,356,238.19,378.22,203.5,374.49Z"/><path class="cls-3" d="M210.34,401.58l1.32,0c.47-4.71.5-9.73.51-14.63a131.49,131.49,0,0,1,.51-13.76,9.15,9.15,0,0,1-1.36.29c-.43,4.07-.45,8.67-.47,13.46S210.82,396.9,210.34,401.58Z"/><path class="cls-3" d="M208.47,401.53c-1.61-8.53-.56-19.13.34-28a11.57,11.57,0,0,1-1.3-.28c-.9,8.95-2,19.57-.38,28.29Z"/><path class="cls-3" d="M228.23,401.6c1.75-6.43.86-14.08,0-21.53-.33-2.78-.64-5.49-.82-8.08l-1.3.25c.18,2.57.49,5.24.81,8,.87,7.47,1.75,15.14-.07,21.41Z"/><path class="cls-3" d="M224.35,401.66c-2.24-8.77-1.71-19.88-1.1-29l-1.33.16c-.61,9-1.1,20,1.07,28.81Z"/><path class="cls-3" d="M245,400.88c1.38-8.95,2.64-21.34,1.66-33.17l-1.31.21c1,11.8-.32,24.17-1.7,33.05Z"/><path class="cls-3" d="M242.29,401.05c-2.16-9-.82-21.17.21-30.47.08-.76.16-1.49.24-2.21-.46.1-.91.19-1.36.3-.07.57-.13,1.16-.2,1.76-1,9.32-2.36,21.48-.23,30.69Z"/><path class="cls-3" d="M261.41,399.44a85.47,85.47,0,0,0-.6-14.56c-.14-1.49-.28-2.88-.36-4-.14-2.11-.31-4.26-.47-6.34-.24-3.06-.48-6.17-.65-9.28l-.42.1-.88.2c.17,3,.4,6.08.63,9.08.17,2.08.33,4.23.47,6.32.08,1.16.22,2.57.37,4.07a84.83,84.83,0,0,1,.57,14.57Z"/><path class="cls-3" d="M255.59,400l1.1-.11a109.21,109.21,0,0,1-1.77-17.27,119.06,119.06,0,0,0-1.53-16.15l-1.29.26a117.09,117.09,0,0,1,1.5,16,111.76,111.76,0,0,0,1.76,17.34Z"/><path class="cls-3" d="M277,397.3l.94-.17c2.22-10.67.24-22.36-1.69-33.7-.15-.91-.3-1.8-.45-2.69l-1.28.38c.14.84.29,1.68.43,2.53,1.94,11.4,3.92,23.17,1.58,33.73Z"/><path class="cls-3" d="M276,397.46c-2.39-7.1-2.8-14.95-3.19-22.58-.22-4.29-.45-8.67-1-12.95l-1.28.38c.55,4.16.77,8.44,1,12.63.39,7.65.8,15.52,3.18,22.73Z"/><path class="cls-3" d="M293.35,393.92c2.06-8.8.58-21.34-.66-31.89-.26-2.22-.51-4.37-.71-6.37l-1.29.41c.2,1.93.44,4,.69,6.12,1.26,10.72,2.77,23.54.54,32.07Z"/><path class="cls-3" d="M289.05,394.92c-2.12-7.47-2.54-15.36-2.94-23-.24-4.62-.49-9.35-1.11-14l-1.28.41c.59,4.53.83,9.15,1.07,13.66.41,7.73.83,15.67,3,23.25Z"/><path class="cls-3" d="M307.81,390.19c2.77-11.27,1.17-26.06-.86-39l-1.28.33c2,13.11,3.63,28,.68,39.09Z"/><path class="cls-3" d="M302.82,391.5c-3.57-6.57-4.73-18.67-5.61-28-.34-3.56-.65-6.77-1-9.19l-1.27.4c.37,2.35.66,5.46,1,8.91.89,9.28,2,21.27,5.64,28.2Z"/><path class="cls-5" d="M552.19,109.08c-8.76,0-18.06.84-27.9,1.26-10.39,0-21.33.84-32.82,1.26-.55,0-3.28,0-3.83-.42a10.15,10.15,0,0,1-4.92-4.62c-1.64-3,.55-5,3.83-6.31,2.73-.42,4.92-1.26,8.2-1.26a336,336,0,0,0,50.32-1.68c8.76-.84,18-.84,24.62-5.88,9.84,3.36,19.69,2.52,29.54,2.1,7.11,0,9.84,1.26,10.39,6.72a40.54,40.54,0,0,1,1.09,13.87c-4.92,22.26-6.56,44.11-8.2,66.38-2.74,25.62-6,50.83-8.21,76a90.27,90.27,0,0,0-1.64,16.38c-1.09,12.61-1.64,25.21-2.73,37.81-.55,8.83-.55,17.65-3.29,26.47-1.64,6.3-.54,12.6-.54,18.91,0,7.56-4.93,12.6-14.22,15.12-5.47,1.26-11.49,2.52-18,.84-3.83-1.26-8.76,0-13.13,1.68-5.47,2.52-11.49-1.26-11.49-5.46V367c6.57-31.09,4.92-61.34,9.3-92,2.19-23.94,7.11-47.89,10.39-72.68,1.64-12.6,3.29-25.21,4.93-37q2.46-22.68,4.92-44.11c1.09-3.78,0-7.56,0-11.34C556.56,109.08,554.92,109.08,552.19,109.08Z"/></g></g></svg>