<svg xmlns="http://www.w3.org/2000/svg" viewBox="0 0 832.5 832.5"><defs><style>.cls-1{fill:#5e4440;}.cls-2{fill:#e55747;}.cls-3{fill:#ed4f44;}.cls-4{fill:#deaa7c;}.cls-5{fill:#ffffc5;}.cls-6{fill:#76b099;}.cls-7{fill:#070707;}</style></defs><g id="Layer_2" data-name="Layer 2"><g id="Layer_1-2" data-name="Layer 1"><rect class="cls-1" width="832.5" height="832.5"/><path class="cls-2" d="M631.7,469.29c-44.92-1.76-88.45-13.7-134-17.75-29.31-2.6-58.21-5.47-87.49-5.59-21.77-.09-44.73,5.51-65.69,4.09-5.44-18.43-10.33-35.49-14.93-53.72q-1.69-6.76-3.35-13.79c-.4-1.68-.82-3.49-1.27-5.4-2.37-10.27-5.13-23.44-5.05-34.39a40.74,40.74,0,0,1,1.25-10.43,24.73,24.73,0,0,1,6.94-11.93h0c4.64-4.39,10.84-7.32,18.11-13.66,14.77-12.88,17.05-28.52,18-45.72.35-6.42.52-13.05,1.09-19.83,0-.41.06-.82.1-1.23,1.18-13.1,1.73-23,3.68-31.82,2.5-11.38,7.32-20.84,18.82-32.8.86-.91,1.78-1.83,2.73-2.77q2.4-2.35,4.8-4.76c13.94-13.92,27.92-28.59,41.21-43.64h0C446.53,112.91,456.07,101.5,465,90c3.28-4.24,6.48-8.51,9.58-12.76q5-6.92,9.67-13.81l22.13-6.32c2.32-5.37,7.11-11.88,10.49-15.55-.16,13.88-.83,27.8-1.81,41.74q-.63,9-1.44,18T511.92,119c-1.36,13.58-2.89,27.16-4.41,40.71q-.84,7.5-1.67,15-1.51,13.59-2.88,27.12c-.52,5.21-1,10.39-1.47,15.58-1.34,15.17,4,25.34,12.12,34.76,7.11,8.26,16.36,15.95,25.12,25.95,2.17,2.47,4.3,5.07,6.37,7.86,5.65,7.65,12.93,14.57,20.82,21.19,6.93,5.82,14.32,11.42,21.48,17.07,16.35,12.95,31.47,26.24,37,43.38.48,1.5,1,3.11,1.5,4.84a319,319,0,0,1,7.58,31.43C638.12,428.46,640.15,456,631.7,469.29Z"/><path class="cls-3" d="M541,48.75c-5.68,18-22,18.6-33.67,10.19-14.24-10.25-9.51-32.66,7.58-36.74C531.32,18.29,550.47,18.74,541,48.75Z"/><path class="cls-2" d="M299.18,576.44c-7.79,12.52,19.14,36.56,25.1,39.44L347.17,598C338.48,590,307.49,563.06,299.18,576.44Z"/><path class="cls-2" d="M641.42,553.58l7.47,36.14c12.27-4.6,44.34-47.77,33.36-61.45C671.1,514.38,646.47,543.56,641.42,553.58Z"/><path class="cls-4" d="M347.19,419.54c-.64,33.29-16.71,68.32-19.6,102.41-2.09,24.64-.57,49.88-1.43,74.29-1.13,31.85-10.58,79.31,3.18,110,11.88,26.45,46.14,65.76,72.46,78.62,44.2,21.6,103.71-9,148.45-19.35,26.68-6.19,46.4-7.85,72.86-5,19.84,2.12,37,7.23,56.6-.75.85-62.56-21.92-122.1-31.22-183.18-7.11-46.75-13.66-100-30.42-144.52-9.1-24.16-5.53-22.15-30.89-25.69-27.52-3.85-61-2.43-88.81-2.31-53.29.24-108.7,1.46-160.31,12.92Z"/><path class="cls-5" d="M337,548.58c40.9-1.87,71.85-8.13,101-37.29-22.13-21.94-90.73,12.76-107.14,34.54Z"/><path class="cls-5" d="M542.26,507.16c14.19,8,89.24,23.32,89.54-3.3-29.79-7.25-57.34-13.85-87.33-8.64a6.48,6.48,0,0,0-2.53,11.72Z"/><path class="cls-5" d="M702.29,826.88H300.15c-20.28-44-7.4-115.84-.42-181.56,9.57,1.46,28.41,1.44,43.28,2.91a49.48,49.48,0,0,0,24.52-4.89,48.63,48.63,0,0,0,16.26-8.29c.4-.15.8-.26,1.19-.4,9.43-3.6,18.62-7.76,27.93-11.65s18.6-7.52,28.4-9.49c17.66-2.72,35.51-4.75,53.36-3.4a126.9,126.9,0,0,1,27.57,6.66c23,9,45.9,18.92,71.07,18.79,18.58-.11,37.65-2.93,54.13-11.91a52.22,52.22,0,0,0,8.38-5.73c12.08.58,13.22.75,28.79-5.29C700.68,682.4,732.6,774.88,702.29,826.88Z"/><rect class="cls-4" x="390.26" y="672.85" width="35.25" height="1.78" transform="translate(-289.73 1039.29) rotate(-86.46)"/><path class="cls-4" d="M365.09,708l-1.78,0c.05-1.93.12-3.88.19-5.82.33-9.07.68-18.45-1.28-27.37l1.74-.38c2,9.14,1.66,18.63,1.32,27.81C365.21,704.17,365.14,706.11,365.09,708Z"/><rect class="cls-4" x="380.16" y="697.95" width="1.78" height="31.75" transform="matrix(1, -0.03, 0.03, 1, -23.5, 13.05)"/><path class="cls-4" d="M370.61,756.79l-1.72-.44a60.92,60.92,0,0,0,.71-28l1.75-.37A62.62,62.62,0,0,1,370.61,756.79Z"/><path class="cls-4" d="M339.31,729.54c-.76-.29-.61-.94-.39-1.93.13-.56.33-1.38.57-2.39,1.45-6,4.85-20.15,4.94-26.84l1.78,0c-.09,6.89-3.4,20.63-5,27.23-.38,1.54-.7,2.88-.73,3.11a.87.87,0,0,0-.61-.9l-.26.82.8.43Z"/><path class="cls-4" d="M323.3,759.13l-1.78,0a188.7,188.7,0,0,1,2.51-23c1.27-8.39,2.58-17.06,2.55-25.66h1.79c0,8.74-1.3,17.48-2.58,25.93A188.83,188.83,0,0,0,323.3,759.13Z"/><path class="cls-4" d="M302.2,731.67l-1.78-.09c.23-4.47.66-9,1.07-13.45.86-9.29,1.75-18.9.89-28.29l1.77-.16c.88,9.55,0,19.25-.89,28.62C302.85,722.7,302.43,727.24,302.2,731.67Z"/><path class="cls-4" d="M306.46,799.12c-4.65-5.62-7.88-15.29-10.74-23.83-.73-2.17-1.41-4.21-2.09-6.11l1.68-.61c.68,1.92,1.37,4,2.1,6.16,2.81,8.38,6,17.89,10.42,23.25Z"/><path class="cls-4" d="M382.4,823.31c-5-2.92-7.94-12.71-11-23.06-1.23-4.16-2.5-8.46-3.88-12l1.67-.64c1.4,3.63,2.68,8,3.92,12.15,2.84,9.57,5.78,19.46,10.21,22Z"/><path class="cls-4" d="M406.37,802a188.05,188.05,0,0,1-4.81-18.32,184.16,184.16,0,0,0-4.75-18.14l1.69-.57a188,188,0,0,1,4.8,18.32,187.06,187.06,0,0,0,4.76,18.14Z"/><path class="cls-4" d="M341.53,812.29c-1.25-10.5-2.73-21.13-4.39-31.59l1.76-.28c1.67,10.48,3.14,21.13,4.4,31.66Z"/><path class="cls-4" d="M431.37,801c-1.24-5.93-2.25-12-3.22-17.95-1.75-10.57-3.56-21.5-6.76-31.79l1.7-.53c3.24,10.41,5.06,21.4,6.81,32,1,5.89,2,12,3.22,17.87Z"/><path class="cls-4" d="M448.89,779.16,447.54,778a.76.76,0,0,0-.2.45c0-.9-1.48-9.88-2.95-18.56-2.27-13.41-5.09-30.11-5.57-36.13l1.78-.14c.47,5.94,3.28,22.6,5.55,36C449.36,778.6,449.33,778.65,448.89,779.16Z"/><path class="cls-4" d="M475.51,771.22c-.5-1.6-4.12-17.25-7.79-33.16-.9-3.91-1.65-7.16-1.94-8.4h0l-.09-.45s0-.07,0-.08h0c-.06-.5,0-1,.65-1.12s.9.21,1.07.72h0a.84.84,0,0,0,0,.1c0,.16.08.33.13.51l.43,1.86c.37,1.58.88,3.83,1.49,6.45,2.7,11.73,7.22,31.36,7.75,33Z"/><path class="cls-4" d="M493.12,748.81c-3.5-17.14-6.33-34.51-8.4-51.63l1.77-.21c2.06,17.07,4.88,34.39,8.38,51.48Z"/><path class="cls-4" d="M532.81,822.25c-.53-10.57-1.42-21.47-2.28-32-.26-3.24-.52-6.47-.77-9.66l1.77-.14c.25,3.19.52,6.42.78,9.65.86,10.56,1.75,21.47,2.28,32.07Z"/><path class="cls-4" d="M514.32,814.53l-1.71-.52a65.17,65.17,0,0,0,2.47-24.82l1.78-.16A67.12,67.12,0,0,1,514.32,814.53Z"/><path class="cls-4" d="M492.64,809l-1.64-.71c3-7,1.61-23.88-1.27-36.18l1.74-.41C493.91,782.12,496.24,800.66,492.64,809Z"/><path class="cls-4" d="M447.79,816.41c-1.16-11.63-3.61-20.73-7.51-27.83l1.56-.86c4,7.31,6.54,16.64,7.73,28.51Z"/><path class="cls-4" d="M568.94,752.52l-1.75-.37a84,84,0,0,0,.56-33.11l1.75-.32A85.75,85.75,0,0,1,568.94,752.52Z"/><path class="cls-4" d="M565.76,821.76l-1.7-.51c3.46-11.79,3.62-25.58,3.75-36.66l1.78,0C569.46,795.8,569.3,809.72,565.76,821.76Z"/><path class="cls-4" d="M535.27,760.65c-1-16.06-2.06-32.33-3.28-48.36l1.78-.13c1.22,16,2.32,32.31,3.28,48.39Z"/><path class="cls-4" d="M520.93,731.14c-1.17-6.47-2.6-13.35-4-20-.7-3.34-1.38-6.66-2-9.87l1.75-.35c.64,3.21,1.33,6.52,2,9.86,1.38,6.67,2.81,13.56,4,20.05Z"/><path class="cls-4" d="M612.44,741.79l-1.77-.2c1.94-17.25-3.32-38.47-6.64-49.58l1.71-.51C609.09,702.74,614.42,724.23,612.44,741.79Z"/><path class="cls-4" d="M619.91,692.79c-1.44-5.95-2.71-12.06-3.93-18-2.18-10.51-4.43-21.38-7.73-31.73l1.7-.55c3.32,10.44,5.58,21.36,7.77,31.92,1.23,5.9,2.49,12,3.92,17.91Z"/><path class="cls-4" d="M642.59,670.44a357.48,357.48,0,0,1-14.83-43.09l1.72-.47a355.62,355.62,0,0,0,14.76,42.87Z"/><path class="cls-4" d="M668.11,682.74l-1.78-.12c.9-13.16-4.81-29.44-9.85-43.81-1.31-3.73-2.55-7.26-3.62-10.58l1.7-.55c1.06,3.3,2.29,6.82,3.6,10.54C663.26,652.75,669,669.21,668.11,682.74Z"/><path class="cls-4" d="M693.53,693.57l-1.78-.06c.49-16.94-3.12-36.89-10.17-56.17l1.67-.61C690.38,656.21,694,676.4,693.53,693.57Z"/><path class="cls-4" d="M698.12,735.65l-1.52-.94c4.66-7.61,4.48-25.19,1.95-37.88l1.75-.35C703,709.82,703.07,727.56,698.12,735.65Z"/><path class="cls-4" d="M675,800.18l-1.1-1.41c5.7-4.49,6.6-13.91,7.54-23.88.29-3,.59-6.17,1-9.27l1.76.25c-.43,3.06-.73,6.17-1,9.19C682.22,785.42,681.29,795.21,675,800.18Z"/><path class="cls-4" d="M643.16,804.7l-.63-1.67c12.23-4.58,11.35-39.16,11-52.18l0-.84,1.78,0,0,.85C655.7,765.43,656.57,799.67,643.16,804.7Z"/><path class="cls-4" d="M612.09,817.3,611,815.92c3.34-2.74,4.74-15.59,6-26.94.3-2.74.58-5.33.89-7.83l1.77.22c-.31,2.49-.59,5.07-.89,7.81C617.37,801.43,616,814.1,612.09,817.3Z"/><path class="cls-4" d="M588.46,801l-1.71-.52c3.21-10.66,4-21.82,2.26-31.42l1.76-.32C592.56,778.56,591.74,790,588.46,801Z"/><path class="cls-4" d="M591.08,752.76l-1.6-.78c2.94-6,4.75-12.67,5.87-21.65l1.76.22C596,739.74,594.11,746.59,591.08,752.76Z"/><path class="cls-4" d="M680.94,818.75l-1.21-1.32c8-7.38,13.81-17.39,15.53-26.78L697,791C695.23,800.73,689.22,811.11,680.94,818.75Z"/><path class="cls-4" d="M642.93,730.1c-.81-14.69-2.77-26.24-6.18-36.34l1.69-.57c3.46,10.26,5.46,22,6.27,36.81Z"/><path class="cls-4" d="M664.38,724.61c-.57-7.84-2.06-17.06-3.37-25.19-.35-2.2-.7-4.33-1-6.36l1.76-.27c.31,2,.66,4.15,1,6.34,1.32,8.17,2.81,17.43,3.39,25.35Z"/><path class="cls-4" d="M681.12,738.21l-.77-1.61c4.55-2.18,2.85-13.16,1.35-22.85-.54-3.5-1.06-6.81-1.3-9.73l1.78-.15c.23,2.86.74,6.14,1.28,9.61C685.13,724.28,686.87,735.46,681.12,738.21Z"/><path class="cls-4" d="M424.37,739.54l-1.7-.55c2.63-8.1,1.84-17.49,1.08-26.57-.28-3.29-.56-6.69-.67-9.92l1.78-.06c.11,3.19.38,6.42.67,9.84C426.3,721.53,427.11,731.1,424.37,739.54Z"/><rect class="cls-4" x="387.91" y="723.26" width="25.12" height="1.78" transform="translate(-336.6 1100.31) rotate(-88.09)"/><path class="cls-4" d="M563.43,659.89c-3-.52-5.95-1.14-8.9-1.84-3.61-.59-7.22-1.23-10.84-1.77-5.45-.8-10.92-1.32-16.37-2.06a87.34,87.34,0,0,1-18.73-4.47c-4.82,1.3-9.69,2.43-14.61,3.35l0,0c-5.63,2.48-11.43,4.64-17.18,6.81a271.59,271.59,0,0,1-26.42,8.48c-4.48,1.2-9,2.23-13.5,3.27-3.07.7-6.11,1.6-9.14,2.47,4.65,23.55,20.48,26.21,51.58,24.86,27.53-1.19,85.4.56,88.91-29.32a35.16,35.16,0,0,0-.05-9.07C566.56,660.41,565,660.16,563.43,659.89Z"/><path class="cls-2" d="M483.76,586.22a9.15,9.15,0,0,1-1.72.19c-8.32,17.3-70.23,44.09-26.43,62.39,27,11.28,74.29-11.41,101.1-16.11C563.69,606.34,509.32,602.64,483.76,586.22Z"/><path class="cls-2" d="M356.18,648.83c50.22-10.84-11.91-63.32-26.87-25.22C326.82,630,314.88,657.75,356.18,648.83Z"/><path class="cls-2" d="M620.72,628.28c50.22-10.85-11.92-63.32-26.87-25.23C591.36,609.39,579.42,637.2,620.72,628.28Z"/><path class="cls-3" d="M705.35,650.18l.42.16-.53,0A1.74,1.74,0,0,1,705.35,650.18Z"/><path class="cls-4" d="M488,731.7l-.39,0C484.9,727.65,489.81,729.08,488,731.7Z"/><path class="cls-6" d="M695.88,505.27c-21.68-19.75-52.49-24.27-86.77-12.73-26,8.74-46.85,25.9-58.83,48.33-8.6,16.1-12.13,34-10.24,50.72-36.45-21.7-79.61-8.09-105.41,4.14-.58-22.15-9.67-43.48-25.51-57.91-21.68-19.75-52.49-24.27-86.77-12.73-26,8.74-46.85,25.9-58.83,48.32-11,20.6-13.7,44.09-7.39,64.44a65.56,65.56,0,0,0,37,41.29c19.2,8.35,43.82,9,71.47,2.06,1.79-.46,3.6-.94,5.41-1.46,32.54-9.26,55.27-31.93,62.38-62.2a85.25,85.25,0,0,0,2.15-15.73c25.31-12.43,70.43-27.73,106.64-3q.69,3.3,1.68,6.5a65.6,65.6,0,0,0,37,41.3c19.2,8.34,43.82,9,71.48,2,1.78-.45,3.59-.94,5.4-1.46,32.54-9.26,55.27-31.93,62.38-62.2C726.05,555.72,716.9,524.43,695.88,505.27Zm-268.77,111c-6.64,28.29-28,49.51-58.56,58.21q-2.78.79-5.49,1.47c-61,15.41-92.53-10.06-101.73-39.73-11.45-37,9.28-88,62.76-106q4.7-1.57,9.28-2.73c28.55-7.22,53.88-2.25,72.08,14.33C425,559.69,433.54,588.91,427.11,616.29Zm286.77-32.55c-6.64,28.29-28,49.51-58.57,58.21-64.6,18.39-97.75-7.71-107.22-38.26-11.45-37,9.29-88,62.76-106,32.31-10.88,61.21-6.77,81.36,11.59C711.8,527.15,720.3,556.37,713.88,583.74Z"/><path class="cls-5" d="M503.75,452.78c31.07.43,86.47,18.39,115.86,15.36,32.7-3.37,9.22-39.72,30.17-60.92C625.5,390,578.17,386.6,549.45,382.28c-41.22-6.2-82.76-1.72-124.42-3.53-19.67-.85-54.91-1.21-72.9,7.06-25,11.5-20.52,67.19-19.44,92.05C332.69,477.86,477,452.41,503.75,452.78Z"/><path class="cls-1" d="M500.76,679.81c-6.64,0-13.44-1.75-18.09-4.53-4.08-2.45-6.26-5.58-6.14-8.81l3.54.14c-.1,2.54,2.73,4.62,4.42,5.63,7.11,4.26,20.41,5.84,28.14,1.29,4.24-2.49,6.3-6.5,6.14-11.9l3.53-.12c.21,6.71-2.52,11.92-7.88,15.07A27.22,27.22,0,0,1,500.76,679.81Z"/><path class="cls-7" d="M353.64,599.13c-4.42,12.79,10.9,11.56,8.67-.72-7.46-3.73-11,3.73-7.87,9.13Z"/><path class="cls-7" d="M602.26,578.61c-4.42,12.78,10.9,11.55,8.67-.73-7.46-3.73-11,3.74-7.87,9.14Z"/><path class="cls-5" d="M253.34,507.53c7.67-3.27,14.93-6.37,21.8-8.61q7.33-2.39,14.73-4.83c17.34-5.7,35-11.5,52.74-16.65a77.1,77.1,0,0,1-16.1-1.11l-8,2.65c-6.51,2.15-13.25,4.38-19.78,6.47l-12.78,4.07c-19.46,6.17-39.59,12.55-59,19.92-1.26.48-2.55.95-3.86,1.43-6.68,2.46-13.58,5-19.14,9l-2.7,2,3.32,0C220.33,521.61,237.11,514.45,253.34,507.53Zm-29.49,5.32c1.31-.48,2.61-1,3.87-1.44,8.42-3.2,17-6.22,25.58-9.12a145.29,145.29,0,0,0-22.44,10.59L225.72,516a83,83,0,0,1-17.26,3.56A98.82,98.82,0,0,1,223.85,512.85Z"/><path class="cls-5" d="M461.45,462.07q-5.25.75-10.51,1.55c-4.9,1.47-9.94,2.8-14.91,4.11l-2.27.59.46-.16-5-.3.2-.07q2.34-.77,4.84-1.67c-9.78,1.42-19.58,2.72-29.42,3.48-2.88.23-5.75.43-8.61.7l-2.35.56,1.45-.48c-1.29.12-2.57.25-3.86.41l-.13,0h0l-1.08.15-3.59.53-2.95.46q-8.12,2.63-16.15,5.18c-17.55,5.6-35.69,11.39-53.21,17.69-7,2.54-14.14,5.31-21,8,10.38-4.72,21.09-9.58,31.8-13.58,7-2.6,14.06-5.12,21.12-7.58,7.81-2.38,15.7-4.83,23.52-7.45-4.89.83-9.87,1.64-14.86,2.24l-9.31,3.21-5.77,1.75c-13.76,4.18-28,8.5-41.59,13.51-7.19,2.64-14.45,5.13-22.14,7.77-28.45,9.74-57.86,19.82-81.32,37.48l-1.54,1.16L195,542c6.13,2.27,14.12-1.58,20.55-4.68,1.11-.54,2.17-1.05,3.15-1.49l1.89-.85a92.58,92.58,0,0,0-15.87,12.4l-2,2,2.85-.21c1.07-.08,2.14-.2,3.2-.36a42.59,42.59,0,0,0-6,5.64l-1,1.12,1.38.55c7.89,3.1,19.88-3.8,28.63-8.84l1.58-.91L233,547h1.87a25.52,25.52,0,0,0,7.84-1.29A170.4,170.4,0,0,0,226,558.86l-2.8,2.51,3.7-.69.56-.12-.25.32-2.06,2.75,3.24-1.12c7.1-2.44,13.71-6.7,20.1-10.82,1.3-.84,2.59-1.67,3.87-2.47,16.85-10.62,34.82-21.76,53.73-31.68-16.41,9.29-33.65,19.84-52.41,32.06-1.83,1.2-3.77,2.38-5.81,3.62-7.33,4.45-15.64,9.49-20.37,16.56l-1,1.41,1.69.22a5.69,5.69,0,0,0,.72,0c4.1,0,9.78-4.05,14.07-7.32l.67,1c5.27-3,10.12-6.85,14.82-10.62,1.25-1,2.54-2,3.82-3,22.68-15.16,48.37-27.9,69.95-38.6,7-3.47,14.06-7.29,21.52-11.33,5.89-3.19,11.82-6.4,17.81-9.48q7.84-3.56,15.78-6.82c11.36-3.86,22.26-7.44,32.43-10.74,5.14-1.67,10.77-3.15,16.74-4.72,8.8-2.32,17.8-4.69,25.95-7.85Zm-243.6,71.86c-1,.45-2.08,1-3.21,1.51-5.3,2.56-11.74,5.67-16.81,5.09,22.89-16.63,51.36-26.38,78.91-35.82,7.7-2.64,15-5.13,22.18-7.79,3.9-1.43,7.85-2.81,11.82-4.14-6.36,2.71-12.66,5.58-18.84,8.39C278,507.5,263.59,514.05,249,518.65l.46,1.57C239.17,524.48,228.68,529,217.85,533.93Zm-9.39,12.83c19-17.3,48.21-26.83,74.1-35.27,6.87-2.24,13.35-4.35,19.48-6.55,12.34-4.41,24.83-8.64,37.33-12.74l-5,2q-11.47,3.88-22.72,8.05l-4.86,1.81C284.42,512.42,261.27,521,240,531.48c-1.56.77-3.23,1.57-5,2.4-7.12,3.41-15.35,7.36-22.3,12C211.34,546.26,209.91,546.55,208.46,546.76Zm146.64-57.1q-12.24,4.8-24.45,9.84-8.26,2.72-16.45,5.56,10.1-4.4,20.91-8.85Q345,492.87,355.1,489.66Zm-67.57,25.25c-14.25,5.52-28.76,11.55-43.85,18.23-2.63,1.16-5.24,2.41-8,3.72-4.81,2.3-9.69,4.63-14.66,6.49,5-2.79,10.22-5.3,14.95-7.57,1.75-.84,3.43-1.64,5-2.41,19.63-9.66,40.93-17.76,61.75-25.51Q294.92,511.39,287.53,514.91Zm14.36-3.18c-19.41,8.51-39.35,17.8-59.54,27.71,6.58-5.18,15.69-9,24-12.4,4-1.65,7.71-3.2,10.93-4.81q5.45-2.7,11.08-5.39Q295.15,514.22,301.89,511.73Zm-71.13,33.76c-7.36,4.23-18.21,10.49-25.29,9.13a50.5,50.5,0,0,1,8.16-6.74c7.9-1.94,15.52-5.57,23-9.12,2.75-1.31,5.35-2.55,7.95-3.7l1.23-.54a39.63,39.63,0,0,0-9.68,8C234.61,543.27,232.83,544.3,230.76,545.49Zm18.31-.8c-1.31.83-2.73,1.68-4.23,2.58s-3,1.82-4.57,2.79c5.46-4,11.24-7.74,17.24-11.29l3.45-2,.91-.53q3.79-2.15,7.68-4.22c4.22-2,8.53-4.08,13-6.11C271.14,531.68,259.89,537.85,249.07,544.69Zm19.51-14.53-.12.06c-2.34,1.13-4.88,2.59-7.58,4.16q-2.25,1.27-4.46,2.59c-6.42,3.67-13.27,7.2-19.45,7.83.14-.2.3-.39.45-.58C264.91,530.59,292,518.09,318,507.08q6.67-2.83,13.4-5.6l6.31-2.06-6.9,2.83C310.54,510.53,288.76,519.44,268.58,530.16Zm-3.27,16.38q-9.47,6-19.46,12.83c-.69.47-1.64,1.2-2.73,2-3.19,2.45-8.65,6.65-12.53,7.7,4.58-5.72,11.58-10,18.36-14.09,2.06-1.25,4-2.44,5.87-3.65,16.5-10.75,31.82-20.21,46.43-28.64A388.15,388.15,0,0,0,265.31,546.54Zm47-27.26-3,1.57q-4,2.08-8,4.29Q311.71,519,323.1,513q2.63-1.38,5.26-2.75l.28.53Q320.44,515,312.32,519.28Zm9.8-8.16-3,1.58,11-6.08,3.88-2.15,4-1.52Q330,507,322.12,511.12Zm32.71-14-3.61,1.57c2-1,4-1.94,5.94-2.91l4.48-1.61C359.36,495.21,357.08,496.19,354.83,497.16Zm16.66-14.85-3.64,1.13c1.75-.65,3.53-1.29,5.33-1.94Zm3.71-3.78c-24.51,7.7-49.49,15.7-73.87,24.43-4.44,1.59-9.06,3.14-13.89,4.72,29.64-11,62-22.79,94.91-31.68Zm22.12-4.69q-4.65,1.65-9.29,3.35l-1.3.42c1.47-.63,2.94-1.26,4.41-1.86l.14-.05,6.19-1.94Zm20.49-2.08-1.12.25c1.88-.63,3.76-1.27,5.67-1.9l.27,0Z"/><path class="cls-5" d="M683.35,472a17.93,17.93,0,0,0,3.66-.32l4.78-.94c4.78.24,9.57.36,14.32.36h.11v-.37a134.17,134.17,0,0,0,17.78-.67l7.88-.88L724.06,468c-20-3.08-41.08-6.33-62.5-8.73a11.72,11.72,0,0,1-4.22.81h-8.48c22.34,2.11,44.44,5.34,65.54,8.57-14.56.45-29.81-1.46-44.63-3.31-7.84-1-15.25-1.91-22.57-2.51-7-.57-14-1.08-21.11-1.52-9.34-1.09-18.77-2.13-28.26-2.95l-2.61-.61h1l-1.46-.16c-3.77-.45-7.52-1-11.27-1.52l-.69-.08-2.27-.26c-1.34-.14-2.69-.27-4-.39a273.07,273.07,0,0,0-28-.95v.05l8.3,2-1.76,0-.1,2.1,1.29.17-1.4.18,5.84,1.29,1,.21q-5.1-.18-10.17-.28l-1.83-.6c-2.58-1.05-5.16-2.09-7.73-3.1a25.53,25.53,0,0,1-3.07-1.78q-3.3.13-6.6.31,4.37,1.65,8.76,3.38a61.68,61.68,0,0,0,7.16,2.92v.17q-2.77-.4-5.54-.76l-3.44-1.36-1-.42c-3.13-1.24-6.41-2.53-9.77-3.7q-6.83.43-13.61,1c4.19,1.34,8.41,2.66,12.63,4l-.12,1q3.51.54,7,1.13,8.35,2.58,16.65,5.09c5,2.1,10,4.26,14.9,6.4,7.92,3.44,16,7,24.11,10.16-6.31-2.15-12.75-4.25-19.42-6.43-19.44-6.35-39.28-12.83-57.74-21.13l-3.1.27-5.2.5.08,0,4.19,1.72c24.59,10.05,50,20.44,74.68,31.76,35.45,16.28,71,30.65,104,43.76l.81-1.94c-4-1.74-8.33-5-12.58-8.1-2-1.47-3.86-2.85-5.7-4.09-6.5-4.39-13.3-8.46-20.23-12.34A296.59,296.59,0,0,0,688,518.46l.44-2.06a247,247,0,0,1-27-8,208.54,208.54,0,0,0,22.87,4.94l7.67,1.17-7.08-3.17c-.7-.32-1.41-.63-2.11-.93,1.32.38,2.63.76,4,1.12l.64-2c-13.72-4.95-27.41-11.72-40.72-18.42,17.42,5.32,35.23,10.33,52.63,11.68l.33-2.07c-22.11-5.24-43.84-10.42-65.5-15.91-3.24-1.62-6.49-3.21-9.7-4.73-1.41-.67-2.84-1.37-4.29-2.08,4.06.88,8.13,1.74,12.14,2.57,5.84,1.19,11.71,2.27,17.92,3.41l1.09.2c18.27,5.91,37.12,11.93,55.73,14.24l7.77,1-7.24-3c-17.28-7.12-36.8-10.78-55.75-14.26l-1.18-.39c-7-2.27-14.3-4.63-21.32-6.68-5.53-1.62-11.11-3.31-16.6-5l5.11.85,9.21,2.18H627c7,1.68,14.26,3.42,21.32,5L652,479l5.89,1.74c17.6,5.2,35.78,10.59,52.63,11.34,1.88.4,3.75.79,5.63,1.16l.2-1,4.48.14-4.27-1.15v-.08l-1.54-.33-3-.8c-10.07-2.69-20.52-5-30.83-7.09l-4.28-1.09c13.66,2.52,27.39,4.3,40.47,3.11l5.79-.53-5.61-1.54c-7.74-2.12-15.65-3.93-23.6-5.55a218.57,218.57,0,0,0,31.59,2.58l.14-2.09L712.52,476Q698,474,683.35,472Zm13.18,22.57a279.63,279.63,0,0,1-27.58-7A253.56,253.56,0,0,1,696.53,494.59ZM559.85,454.92q3.78.48,7.56,1.16l1.79.59-2.39-.05-4-1ZM594,467.13c3.52,1.72,7,3.48,10.43,5.23-13.79-3.05-27.83-6.13-41.89-8.63l-1.84-.64C571.79,464.09,582.91,465.5,594,467.13Zm-30.09,2-5.49-2h0q4.14.93,8.26,1.91l6.52,2.91ZM668.74,522c1.8,1.21,3.66,2.58,5.63,4l2.71,2c-29.84-11.9-61.37-24.86-92.85-39.31-14.72-6.76-29.7-13.18-44.61-19.4,10,3.58,20.14,6.89,30.16,10.16,11.14,3.64,21.66,7.07,31.91,10.82,5.4,2,11,4.07,16.33,6.1,6.27,2.36,12.59,4.75,19,7.06A331.7,331.7,0,0,1,668.74,522Zm-66-38.36-2.31-1.15q9.66,3,19.26,6.15c6.66,2.17,13.39,4.56,20,7l-1-.3c-7.34-2.19-14.94-4.46-22.28-6.9C611.86,486.9,607.29,485.3,602.73,483.65Zm17.09,11,1.16.58-2.22-.83-6.69-2.52Zm9.49,1.16-2.93-1.22q-4.32-1.78-8.72-3.58c6.78,2.21,13.72,4.28,20.45,6.29,12.29,3.67,24.91,7.44,37,12.19C659.62,506.29,644.3,501.16,629.31,495.84Zm-.57-10.25,5.8,1.77c2.7,1.34,5.38,2.7,8,4,7.48,3.77,15.09,7.61,22.77,11.18-6.26-2.16-12.48-4.43-18.6-6.65-8.64-3.15-17.58-6.41-26.41-9.29-10.75-3.5-21.64-6.91-32.47-10.24q-4.92-2.34-9.8-4.57,6,1.53,12,3.13c8.75,2.65,17.6,5.15,26.64,7.52Q622.73,484.05,628.74,485.59Zm-5.88-3.93q-3.42-1-6.82-1.91l-9-2.43q-8.25-2.22-16.35-4.39c-4.56-1.38-9.08-2.81-13.6-4.28,9.77,2,19.49,4.13,29.09,6.25l5.66,1.26C615.62,478.1,619.28,480,622.86,481.66Zm5.8-4.6q3,.88,6.14,1.85l-2.14-.44c-6.64-1.36-13.43-2.84-20.12-4.31l-3.39-1.74-5.9-3,4.2,1.28C614.39,472.8,621.57,475,628.66,477.06Zm52.86-6.3-.13,1q-11.46-1.51-23-3A204.71,204.71,0,0,1,681.52,470.76ZM625.9,463.4l1.13.13c-3.13-.14-6.31-.27-9.46-.38l-1.23-.29C619.55,463,622.73,463.21,625.9,463.4Zm84.57,19.8c-15.58.26-32-3.11-48-6.37-6.27-1.29-12.19-2.5-18-3.49l-6.08-1c-6.79-1.56-13.64-3.39-20.88-5.32l-3.78-1q6,.56,12,1.19c1.69.36,3.38.71,5.06,1,9.52,1.85,19.33,3.5,28.82,5.09C676.45,476.12,693.79,479,710.47,483.2Z"/><path class="cls-2" d="M790,826.88H716.72c5.51-16-10-68.69,6.6-91.22,10.32,7.87,14.74,24.76,14.62,35.88,7.18-26.62,23.55-76.48,58.83-69.84C811.42,742.74,796.82,786.88,790,826.88Z"/><path class="cls-2" d="M288.51,826.88H219c-19.75-27-20.34-65.7-18.57-98.92,35.83-9.72,40.46,37.51,53.09,57.85-3.57-24.52,5.59-47.52,24.4-29.35C285.61,763.93,288.78,813.88,288.51,826.88Z"/><path class="cls-6" d="M59.81,600.55c-.82-.89-1.56-1.68-2.23-2.39a17.09,17.09,0,0,1-1.93-2.46,4.36,4.36,0,0,1-1-3.44,9.1,9.1,0,0,1,1.48-3.63,3.46,3.46,0,0,0,.53-3.59q-3.42-13.56-7-27.25t-6.39-27.38q-1.06-5.16-2.33-9.82t-2.63-9.76L37,504.44c-.3-3.53.86-5.57,3.5-6.11a3.79,3.79,0,0,1,3.44.57,8,8,0,0,1,3,2.88,8.1,8.1,0,0,0,3.86,4.91,4.26,4.26,0,0,1,1.84,2.79A64.32,64.32,0,0,0,56.94,523q2.91,6.54,5.2,13,1.66,5.06,3.21,10.28c1,3.49,2.09,6.91,3.21,10.28,1.15,3.56,2.22,7.26,3.21,11.07s2.1,7.7,3.34,11.67a29.53,29.53,0,0,0,3-.77,30.91,30.91,0,0,1,3-.78q2.91-1.23,6-2.34c2.07-.74,4.07-1.51,6-2.34a37.37,37.37,0,0,0,4.13-2.27,39.92,39.92,0,0,1,4.13-2.27c2.1-1.07,4.09-2.16,6-3.29s3.87-2.22,6-3.28a2.72,2.72,0,0,1,1.15-.55,2.8,2.8,0,0,0,1.15-.56,21,21,0,0,0-.71-2.7c-.27-.79-.61-1.67-1-2.65a158.81,158.81,0,0,1-5.78-18.94q-2.27-9.52-3.89-19a48.4,48.4,0,0,1-.84-5.69c-.16-1.77-.32-3.59-.48-5.45a9.15,9.15,0,0,1-.14-2.19,4.07,4.07,0,0,1,.54-2,5,5,0,0,0,.33-2.28,20.68,20.68,0,0,0-.35-2.47.88.88,0,0,1-.43-.54c-.78-3.85.17-6.38,2.89-7.57q5-1.67,7.62,3.2a3,3,0,0,1,1,.91,7.49,7.49,0,0,0,.67,1,17.69,17.69,0,0,1,7.78,11.72q3.09,10.45,5.63,20.55t5.26,20.32q2,6.87,3.81,14t3.8,14q1.54,6,2.67,12.28t2.68,12.29c.33,1.63.66,3,1,4.23s.79,2.59,1.33,4.17q1,5.17,2.11,10.34t2.42,10.28c.7,2.39,1.34,4.75,1.92,7.06s1.09,4.58,1.55,6.81c.21,1,.47,2.07.8,3.16a14.09,14.09,0,0,1,.57,3.53,6.85,6.85,0,0,1-1.56,4.76,7.42,7.42,0,0,1-4.49,2.82q-6.69,1.37-9-5.14-2-5-3.7-10.33a97.19,97.19,0,0,1-2.78-10.53,15.28,15.28,0,0,0-1-3.13,6.38,6.38,0,0,0-2.42-2.51,6.67,6.67,0,0,1-1.34-2l-1.11-2.3-1.94-6.42c-.64-2.09-1.19-4.24-1.65-6.48l-5.59-27.38a14.73,14.73,0,0,0-1-3.58,62.11,62.11,0,0,0-15.24,7.55,72.35,72.35,0,0,1-13.78,7,10.86,10.86,0,0,0-4.19,2.76,26.53,26.53,0,0,0-4.37,2.63c-1.37,1-2.79,2.11-4.24,3.25,1,4,2,8.2,2.88,12.56s2,8.63,3.25,12.81l.19.91a12.53,12.53,0,0,0,.69,5.72q1,2.49,2.16,5.11,1.35,3.52,2.89,7.17c1,2.43,2.09,4.8,3.19,7.11q2.89,6.38-2.57,9.08a6,6,0,0,1-4.74.82,7.46,7.46,0,0,1-4.21-2.79,12.42,12.42,0,0,1-2.89-4.79,50.05,50.05,0,0,0-2-5.29q-2-5-4-9.48a95.36,95.36,0,0,1-3.7-9.55q-1.72-5.36-3.52-11t-3.82-11a7.59,7.59,0,0,0-.43-1.34,6.57,6.57,0,0,1-.43-1.33q-.55-1.15-1.08-2.16C60.53,602,60.18,601.32,59.81,600.55Z"/><path class="cls-6" d="M239.44,548.23q6,29.5-7.66,57a66.1,66.1,0,0,1-7.64,11.39,45.75,45.75,0,0,1-10,9,44.91,44.91,0,0,1-9.41,5.1A21.92,21.92,0,0,1,193.87,632a22.3,22.3,0,0,1-7.82-1.88,24.82,24.82,0,0,1-6.44-4.39,60.66,60.66,0,0,1-13.21-15,76.65,76.65,0,0,1-8.18-18.29A69.41,69.41,0,0,1,155,562.68a64.42,64.42,0,0,1,2.44-12.07q1.8-5.91,3.11-11.89a43.47,43.47,0,0,1,7.89-17.15,29,29,0,0,1,10.79-10,34.72,34.72,0,0,1,14.59-3.78A29.08,29.08,0,0,1,206,509.13,46.77,46.77,0,0,1,217,514.47a15,15,0,0,1,3.18,3.15c1.78,1.54,3.49,3.15,5.1,4.82s3.23,3.41,4.86,5.19a23.32,23.32,0,0,1,4.93,7.07c1.17,2.61,2.24,5.3,3.23,8ZM218,550.4a13.85,13.85,0,0,0-1.61-6.33,50.17,50.17,0,0,0-3.31-5.34,19.48,19.48,0,0,0-14.83-9,31.43,31.43,0,0,0-12.15,2.49,12.06,12.06,0,0,0-6.3,6.36q-1,2.74-2.11,5.19a46.64,46.64,0,0,0-1.86,4.82A105.59,105.59,0,0,0,173,563.26a39.91,39.91,0,0,0,.92,14.55q1.41,5.41,3.18,10.92a48.68,48.68,0,0,0,4.64,10.3,38.33,38.33,0,0,0,2.79,5.13c1.08,1.68,2.34,3.44,3.77,5.26q4.51,5.08,13.16,4a5.76,5.76,0,0,0,4.79-2.1,29.48,29.48,0,0,0,2.79-4.21,87.58,87.58,0,0,0,6-12.63,63,63,0,0,0,3.47-14A118.39,118.39,0,0,0,218,550.4Z"/><path class="cls-6" d="M209.29,422c1.83-.88,3.58-1.69,5.23-2.43s3.31-1.53,4.95-2.37a22.2,22.2,0,0,1,4.3-1.79,3.39,3.39,0,0,1,4.24.79,1.07,1.07,0,0,0,.46.06,7.59,7.59,0,0,0,1.66-.72,2.69,2.69,0,0,0,.83-.77,1.69,1.69,0,0,0,.22-1.1c0-.45-.14-1-.29-1.83-.23-2.06-.52-4.12-.89-6.15s-.71-4.08-1-6.13l-.27-1.3a4.24,4.24,0,0,1,1.26-2.68,4.08,4.08,0,0,1,3.51-.56,4.47,4.47,0,0,1,3,1.95,11.3,11.3,0,0,1,2.23,5.73c.23,1.67.55,3.34,1,5s.75,3.34,1.09,5c.43,2.12.86,4.2,1.27,6.23s.79,4.11,1.13,6.25a53.17,53.17,0,0,0,1.33,6.14q.83,2.92,1.91,6a15.12,15.12,0,0,1,.53,1.48,13.35,13.35,0,0,1,.38,1.51,3.21,3.21,0,0,1,.1,1.18,4.83,4.83,0,0,0-.17,1.77c.06.55.14,1.06.24,1.54a3.4,3.4,0,0,1-1.2,3.72,1.8,1.8,0,0,0-.78.61c-.15.23-.31.46-.46.7a3.18,3.18,0,0,1-3.17,1.1,3.22,3.22,0,0,1-2.48-2.21,18.72,18.72,0,0,1-.93-2.3,18.69,18.69,0,0,0-.92-2.3,42.93,42.93,0,0,1-2.57-7q-.94-3.57-1.55-7.23c-.28-1.35-.54-2.65-.8-3.91s-.46-2.52-.62-3.79q-.27.21-.6.42l-.59.42q-1.81,1.44-3.8,2.82c-1.31.92-2.65,1.78-4,2.55a12.45,12.45,0,0,1-5.29,2.14,20.67,20.67,0,0,1-5.88,0,.62.62,0,0,1-.46-.05c0,.09,0,.15-.12.17l-.11.17q.56,3.51,1,7c.32,2.3.67,4.61,1.05,6.95.12.58.26,1.18.44,1.8a13.72,13.72,0,0,0,.56,1.62,4.73,4.73,0,0,1,.39,3.39,4.83,4.83,0,0,0-.17,1.77q.09.81.24,1.53l.27,1.31a3.29,3.29,0,0,1-.45,2.58,4.1,4.1,0,0,1-4.75,1.5,3.24,3.24,0,0,1-1.89-1.88q-.35-1-.63-2c-.19-.67-.35-1.34-.49-2l-3-14.49c-.1-1-.23-2-.39-3a19.66,19.66,0,0,1-.24-3,3,3,0,0,0-.79-1.65,3.46,3.46,0,0,1-.63-3,4.13,4.13,0,0,0,.39-2.19c-.09-.69-.15-1.33-.17-1.93q-1.26-8.34-2.42-16.25a14.68,14.68,0,0,0-.11-2.4c-.11-.78-.2-1.56-.26-2.36a3,3,0,0,1-.09-1.19,2.65,2.65,0,0,1,2.28-2.12,2.55,2.55,0,0,1,1.55.21,2.09,2.09,0,0,1,1.15,1.2,6.19,6.19,0,0,0,1.75,2.66,5.6,5.6,0,0,1,.64,1.67c.24,1.67.5,3.3.78,4.9s.58,3.23.92,4.87Z"/><path class="cls-6" d="M251.51,424.26c0-1.1-.1-2.22-.23-3.35s-.22-2.29-.27-3.49a12.4,12.4,0,0,0-.38-2.26c-.2-.72-.42-1.4-.65-2.06a29.84,29.84,0,0,1-1.19-6.17,16.92,16.92,0,0,1,.64-6.09,28.15,28.15,0,0,1,3.33-7.7,19.16,19.16,0,0,1,6.08-6,12.14,12.14,0,0,1,2-1.08c.69-.29,1.41-.61,2.14-1l3.38-1.15a13.49,13.49,0,0,1,12.34-.11,18.64,18.64,0,0,1,4.91,3.37,31.4,31.4,0,0,1,3.76,4.36,50.78,50.78,0,0,1,3,4.51,46.78,46.78,0,0,1,2.46,4.62,31.94,31.94,0,0,1,2,5.4,37.24,37.24,0,0,1,1,5.61q.15.72.24,1.53c.06.55.14,1.06.24,1.54a38.32,38.32,0,0,1,.49,8.65,87.14,87.14,0,0,1-1,8.8,14.55,14.55,0,0,1-1.32,4.27,32.84,32.84,0,0,1-2.27,4,6.76,6.76,0,0,1-1.41,1.57c-.56.47-1.13,1-1.73,1.49a11.58,11.58,0,0,1-4,2.32c-1.46.51-2.94,1-4.44,1.52a7.48,7.48,0,0,1-2,.41,18.79,18.79,0,0,1-2.26,0,19.48,19.48,0,0,1-8.28-1.4,26.3,26.3,0,0,1-7.07-4.36,22.62,22.62,0,0,1-5.68-7.89,42.66,42.66,0,0,1-2.18-4.76A44.54,44.54,0,0,1,251.51,424.26Zm9.84-7.9a19.3,19.3,0,0,1,.65,2.81,9.84,9.84,0,0,0,.77,2.63,38.83,38.83,0,0,0,2.71,7,40.16,40.16,0,0,0,3.92,6.29,7.46,7.46,0,0,0,3,2.48A16.93,16.93,0,0,0,276,438.7l.73-.15a16.54,16.54,0,0,0,3.05-.92,7.82,7.82,0,0,0,2.7-1.92c.32-.36.65-.75,1-1.17s.59-.8.82-1.15a15.82,15.82,0,0,0,1.6-2.52,13.07,13.07,0,0,0,1-2.54,25.23,25.23,0,0,0,1.35-5.18,43.22,43.22,0,0,0,.43-5.29c-.09-1.39-.22-2.77-.4-4.15a19.31,19.31,0,0,0-1-4,22.6,22.6,0,0,0-2.82-5.31c-1.2-1.66-2.46-3.27-3.78-4.81a9,9,0,0,0-3-2.48c-1.18-.61-2.38-1.2-3.6-1.75a1.22,1.22,0,0,0-.93-.11,10.78,10.78,0,0,0-6,2.28,21.19,21.19,0,0,0-6.73,11.34c-.08.62-.15,1.26-.21,1.93a2.93,2.93,0,0,0,.37,1.81Z"/><path class="cls-6" d="M42.43,419.41l-.84-2.06a11.69,11.69,0,0,1-.64-2,3,3,0,0,1,.18-2.42,6.31,6.31,0,0,1,1.8-2,2.33,2.33,0,0,0,1.2-2.15q1.08-9.4,2.09-18.94T48.72,371q.57-3.54.88-6.79t.67-6.81L51,353c.65-2.3,1.88-3.32,3.68-3a2.57,2.57,0,0,1,2,1.19,5.39,5.39,0,0,1,1.19,2.53,5.5,5.5,0,0,0,1.27,4,2.89,2.89,0,0,1,.5,2.21,43.63,43.63,0,0,0-.49,9.62c.19,3.22.25,6.4.18,9.51q-.15,3.6-.43,7.28t-.42,7.28q-.2,3.81-.61,7.79c-.29,2.65-.52,5.39-.68,8.2a20.55,20.55,0,0,0,2.09.23,20.86,20.86,0,0,1,2.09.23c1.43-.05,2.89-.07,4.37,0s3,0,4.37-.05a23.09,23.09,0,0,0,3.16-.45,27,27,0,0,1,3.16-.45c1.59-.17,3.12-.38,4.58-.64s3-.48,4.57-.65a2,2,0,0,1,.87-.08,1.83,1.83,0,0,0,.86-.07,15.64,15.64,0,0,0,.2-1.89c0-.56,0-1.2,0-1.92a107.55,107.55,0,0,1,.87-13.39q.84-6.57,2.09-13a32.9,32.9,0,0,1,.82-3.81c.33-1.15.66-2.34,1-3.56a6.11,6.11,0,0,1,.44-1.42,2.64,2.64,0,0,1,.83-1.15,3.44,3.44,0,0,0,.75-1.37,13.13,13.13,0,0,0,.37-1.65.58.58,0,0,1-.14-.44q.63-3.94,3.64-4.11c2.39.11,3.75,1.39,4.06,3.85a2.34,2.34,0,0,1,.41.81,4.35,4.35,0,0,0,.19.78,12.06,12.06,0,0,1,2.13,9.29q-.56,7.38-1.36,14.38c-.53,4.67-1,9.39-1.52,14.14q-.36,4.84-.93,9.76c-.39,3.27-.7,6.53-.93,9.75q-.47,4.2-1.25,8.43c-.53,2.83-.94,5.64-1.25,8.43-.18,1.11-.3,2.08-.36,2.93s-.12,1.82-.16,3c-.38,2.36-.75,4.71-1.13,7.07s-.69,4.72-.93,7.09c-.13,1.68-.29,3.33-.47,4.93s-.41,3.17-.65,4.69c-.11.7-.2,1.43-.25,2.2a9.88,9.88,0,0,1-.48,2.37,4.56,4.56,0,0,1-2.13,2.64,5,5,0,0,1-3.52.71c-3.05-.49-4.53-2.29-4.46-5.4q0-3.63.13-7.44a67.77,67.77,0,0,1,.76-7.33,10.4,10.4,0,0,0,.14-2.22,4.32,4.32,0,0,0-.93-2.17,4.7,4.7,0,0,1-.39-1.56l-.15-1.72c.11-1.55.21-3.06.31-4.54a44.93,44.93,0,0,1,.51-4.5l3-18.69a9.66,9.66,0,0,0,.19-2.52,42.13,42.13,0,0,0-11.46,1.13,48.57,48.57,0,0,1-10.4,1.1,7.47,7.47,0,0,0-3.31.74,18.53,18.53,0,0,0-3.4.63c-1.12.32-2.27.67-3.47,1-.31,2.79-.7,5.68-1.18,8.65s-.81,5.94-1,8.9l-.1.62a8.35,8.35,0,0,0-.93,3.79c0,1.21.06,2.46.14,3.75,0,1.71.05,3.46.12,5.24s.17,3.55.32,5.27c.2,3.16-1.07,4.87-3.8,5.15a4.08,4.08,0,0,1-3.2-.63,5.07,5.07,0,0,1-2-2.77A8.52,8.52,0,0,1,42.4,458a32.82,32.82,0,0,0,0-3.84q0-3.63-.26-7a66.3,66.3,0,0,1-.06-6.93c.12-2.54.26-5.14.41-7.82s.21-5.29.19-7.85a4.7,4.7,0,0,0,.05-.95,4,4,0,0,1,0-.95c0-.58-.11-1.12-.17-1.63S42.48,420,42.43,419.41Z"/><path class="cls-6" d="M168.79,429.31a58.33,58.33,0,0,1-18.5,34.31,45.26,45.26,0,0,1-7.57,5.38,30.82,30.82,0,0,1-8.52,3.32,30.2,30.2,0,0,1-7.18,1,14.76,14.76,0,0,1-7.16-1.79,15.15,15.15,0,0,1-4.51-3.07,16.88,16.88,0,0,1-3-4.32,41.41,41.41,0,0,1-4.78-12.7,52.2,52.2,0,0,1-.8-13.55,46.94,46.94,0,0,1,5.07-19.64,43.94,43.94,0,0,1,4.44-7.07c1.7-2.21,3.31-4.47,4.81-6.79a29.51,29.51,0,0,1,9.11-9,19.7,19.7,0,0,1,9.22-3.74,23.67,23.67,0,0,1,10.15,1.1,19.91,19.91,0,0,1,7.39,3.75,31.5,31.5,0,0,1,5.73,6,9.69,9.69,0,0,1,1.26,2.76c.77,1.4,1.46,2.83,2.08,4.27s1.23,2.94,1.84,4.45a15.7,15.7,0,0,1,1.43,5.67q.18,2.9.12,5.88Zm-14.08-3.76a9.43,9.43,0,0,0,.49-4.4,34,34,0,0,0-.82-4.18,13.21,13.21,0,0,0-7.24-9.26,21.45,21.45,0,0,0-8.3-1.34,8.22,8.22,0,0,0-5.52,2.52c-.87,1-1.73,1.93-2.57,2.79a32.87,32.87,0,0,0-2.34,2.6,72.43,72.43,0,0,0-5.32,8.63,26.94,26.94,0,0,0-2.9,9.44q-.41,3.76-.6,7.68a32.33,32.33,0,0,0,.48,7.64,24.44,24.44,0,0,0,.54,3.92c.28,1.33.66,2.74,1.13,4.23q1.65,4.32,7.39,5.67a3.89,3.89,0,0,0,3.54-.18,19.45,19.45,0,0,0,2.77-2,58.84,58.84,0,0,0,6.81-6.58,42.75,42.75,0,0,0,5.55-8.05A80.2,80.2,0,0,0,154.71,425.55Z"/><path class="cls-5" d="M75,261.17l-1.9-8,30.5-5.72L97.87,116.55a408,408,0,0,1-39.65,18.32l-3.44-8.4a285.93,285.93,0,0,0,68.64-40.83l21.35-18.31L150.11,65l8,4.58v1.52q0,8-3.81,21-5.34,17.55-5.72,21.37-2.28,14.5-3.43,31.67T144,177.61a123.62,123.62,0,0,0,.76,14.69q.75,6.28,1.33,15.64t1.72,23.85q2.66,11.07,17.54,11.07a72.38,72.38,0,0,0,11.44-1.15l.38,8.4a419.42,419.42,0,0,0-51.09,3.43Q113.88,255.07,75,261.17Z"/><path class="cls-5" d="M302,154.85A60.8,60.8,0,0,1,308.82,173a62.73,62.73,0,0,1,.76,20.18,76.26,76.26,0,0,1-5.3,19.8,71.59,71.59,0,0,1-10.59,17.79,79.38,79.38,0,0,1-15.25,14.76,73.21,73.21,0,0,1-18.27,10,62.49,62.49,0,0,1-12.73,3.41,84.62,84.62,0,0,1-13.74,1.14,56.1,56.1,0,0,1-13.61-1.52A54,54,0,0,1,203.83,252a55.8,55.8,0,0,1-13-10.85A46.08,46.08,0,0,1,180,207.58q1.26-16.9,9.33-28.26,10.83-15.13,29.75-15.13,8.82,0,14.24,2.9a31,31,0,0,1,8.19,5.93q8.33,8.58,7.82,21.95,0,3.53-4,5.55a20.7,20.7,0,0,1-8.82,2.14,23,23,0,0,1-8.82-1.39q-4-1.52-4-5.29,0-11.1-4.41-13.5t-9.83.63q-5.42,3-9.83,10.22a28.7,28.7,0,0,0-4.41,15.26,36.46,36.46,0,0,0,2.9,14.25,35.74,35.74,0,0,0,7.69,11.73,28.28,28.28,0,0,0,11.09,6.94,19.28,19.28,0,0,0,12.85-.12,63.48,63.48,0,0,0,27-19.93A65.69,65.69,0,0,0,265,207.2a58.63,58.63,0,0,0,4.28-15.77,46.37,46.37,0,0,0-.5-15.26,47.42,47.42,0,0,0-5-13.75,41.35,41.35,0,0,0-9.08-11.1,44.76,44.76,0,0,0-12.35-7.57,14.35,14.35,0,0,0-8.07-1.13,27.21,27.21,0,0,0-8.06,2.65,41.44,41.44,0,0,0-7.95,5.29q-3.9,3.28-7.43,6.56-3.78,3.8-8.82,1-4.55-2.52-3.79-8.07l15.63-81a7.09,7.09,0,0,1,3-4.8A7.29,7.29,0,0,1,222.35,63q5.29.76,9.58,1.26c2.86.34,6.14.63,9.83.89s7.48.46,11.35.63a150.6,150.6,0,0,0,15.75-.25,59,59,0,0,0,9.33-1.39,20,20,0,0,0,4.66-1.64,11.5,11.5,0,0,0,1.52-1,8.4,8.4,0,0,1,2.77-5,7.17,7.17,0,0,1,5.55-1.76,9,9,0,0,1,5.16,2.77A6.28,6.28,0,0,1,299.49,63q-.25,6.32-6.05,10.85-6.56,5.05-20.16,6.56-4.54.51-9.84.63c-3.53.09-7.31,0-11.34-.13l-8.57,44.15a62.4,62.4,0,0,1,29.75,4.55A58.46,58.46,0,0,1,302,154.85Z"/></g></g></svg>