<svg xmlns="http://www.w3.org/2000/svg" viewBox="0 0 832.5 832.5"><defs><style>.cls-1{fill:#5e4440;}.cls-2{fill:#deaa7c;}.cls-3{fill:#ffffc5;}.cls-4{fill:#e55747;}.cls-5{fill:#76b099;}</style></defs><g id="Layer_2" data-name="Layer 2"><g id="Layer_1-2" data-name="Layer 1"><rect class="cls-1" width="832.5" height="832.5"/><path class="cls-2" d="M654.29,710.67c-7.15,40.12-26.27,83.13-51.5,119.23,25.71-4.72,51.62-5.66,77.59-5.6,11.35-26.84,6.68-63.67,11.66-85.84,14.65-65.19,5-203.54-26.95-260.34l-14.69,1c9.62,32.1,34.1,98.09,5.44,124.87-8-24.64-40.32-96.3-70.57-67.91C635.58,591.28,667.68,635.46,654.29,710.67Z"/><path class="cls-2" d="M687.62,646.44c87.81-1.64,107.11-158.71,88.54-217,5.19,36.77-1.36,88.42-14.65,123.38-17.54,46.14-46.57,56.62-82,83.14Z"/><path class="cls-2" d="M650.56,589.89c-47.83,27-197.22-.49-243.84-34.38,40.53,29.56,62.09,34,107.72,50.92,34,12.64,94.86,14,133.35,9.87Z"/><path class="cls-3" d="M597,624.3c-3.45.23-6.94.38-10.5.44C496,626.21,437,602.71,411.19,554.9l1.65-.89c25.43,47.14,83.84,70.31,173.6,68.85,76.31-1.24,118.71-43.41,158.91-106.36,11.77-18.43,16.64-37.73,21.35-56.39,3.17-12.57,6.45-25.57,11.8-38.15l1.73.73c-5.3,12.46-8.56,25.38-11.71,37.88-4.75,18.81-9.66,38.26-21.59,56.95-23.34,36.54-43.81,60.27-66.37,76.91C656.35,612.3,628.91,622.12,597,624.3Z"/><path class="cls-1" d="M626.09,502.07c-2-.23-4.23-.5-6.73-.83a38.51,38.51,0,0,1,1.93-6.09Z"/><path class="cls-3" d="M422.52,450.92C458.39,522.26,556,561,642.11,533.11,735.19,503,713.93,390,701,319.28c-7.6-41.58-3-201.3-44.66-240.87-15.83-15.06-56.54-40-74.71-46.52-36.45-13-91.88-12.91-131-4.86-58.86,12.14-61.9,62.33-80,111.85C333.57,240.68,376.69,359.76,422.52,450.92Z"/><path class="cls-4" d="M692.24,367.85c6.34,3.83,11.45,12.53,13.87,22.56a19.27,19.27,0,0,1-16.72,23.72c-34.36,3.56-46.23-49,2.34-45.65C693.12,372.27,692.24,367.85,692.24,367.85Z"/><path class="cls-4" d="M423.15,408.41c9.85-25.16,48.22-12.38,40.34,13.46-2.91,9.57-11.34,17.18-26,16.86C416.35,438.26,417.59,422.63,423.15,408.41Z"/><path class="cls-1" d="M632.93,393.46l-.38-1.41c-57.31,14.84-108.77,26.15-158.21,14.08l-.34,1.42c23.3,5.69,49.28,6.58,79.41,2.73C580,406.88,606.2,400.39,632.93,393.46Z"/><path class="cls-1" d="M417.57,377.4a3.07,3.07,0,0,1,4.75.69l-.12-.9c2.38.29,7.69,15.62,4.1,17.71C422.38,397.19,417.8,380.33,417.57,377.4Z"/><path class="cls-1" d="M680.5,343.77l-1.7-2.08c2.78,3.24,4.07,9.56,3.34,13.75-.8,4.59-4,10-6.32,3.46-1-2.78-2.59-10.89-1.82-13.85C674.84,341.85,680.41,337.92,680.5,343.77Z"/><path class="cls-2" d="M533.85,93.53c-5.06-2.18-6.54-25.4-6.07-28l.09-.53.53.15c9.68,2.81,9.08,21,8.88,27h-.46l.23.18a4,4,0,0,1-1.69,1.3A2.07,2.07,0,0,1,533.85,93.53Z"/><path class="cls-2" d="M475.06,107c-7.23-3.19-9.24-13.92-11-23.38a66.33,66.33,0,0,0-2.58-10.72,6.5,6.5,0,0,1-.27-.66l.91-.34c.09.21.18.41.26.63a13,13,0,0,0,.73,1.24c.22.35.44.7.65,1.09l-.28.14a56.61,56.61,0,0,0,7.5,7c4.63,3.81,9.41,7.75,11.75,14.1,1.29,3.51,1.15,8.45-1.33,10.64a4.21,4.21,0,0,1-1.45.85A6.61,6.61,0,0,1,475.06,107Z"/><path class="cls-2" d="M451,166.45c2.08,7.07,4.67,15.87,9.79,19.79,2.11,1.61,4.16,2.2,5.77,1.64h.05c1-.35,2.22-1.3,2.74-3.83,2.16-10.5-9.67-17.32-18.56-21.68l-.15-.45a8,8,0,0,1-1.13.89l.46.23C450.34,164.11,450.68,165.26,451,166.45Z"/><path class="cls-2" d="M394,149.09c.71,2.1,1.45,4.27,2.32,6.35,3.75,9,7.92,13.38,12.06,12.65a6.54,6.54,0,0,0,1.1-.28,3.8,3.8,0,0,0,2.78-4.33c-.68-6.26-11.55-17-18.84-19.55H393l-.06.17a9.56,9.56,0,0,1-.35.94l.25.69C393.23,146.85,393.61,148,394,149.09Z"/><path class="cls-2" d="M600.08,128.35c-1.88-.55-3.37-2.55-4.2-5.64-2.32-8.73,5.65-17.07,11.48-23.15l.94-1h1c0,1.5.14,3.37.28,5.34.55,7.59,1.3,18-4.19,22.72a8.23,8.23,0,0,1-2.66,1.62A4.28,4.28,0,0,1,600.08,128.35Z"/><path class="cls-2" d="M565.5,155.57l-.36,0-.13-.33c-3.89-9.59-2.78-20.05,3-28l.1-.14.17,0c.85-.23,1.2,0,1.49.43a.75.75,0,0,0,.27.29l-.09.15.16,0c.84,2.91,4.13,19-.32,25.18a5.74,5.74,0,0,1-2.81,2.15A6.78,6.78,0,0,1,565.5,155.57Z"/><path class="cls-2" d="M638,192.59c-1.17-.65-1.73-2.25-1.81-5.2-.12-4.37,10.52-20.69,16-23.3l.2-.09c.06-.13.13-.26.19-.38l.39.19a1.86,1.86,0,0,1,1.71.28l-.62.73a1,1,0,0,0-.95-.07,56,56,0,0,0-2.44,8.65c-1.75,7.52-3.72,16-8.8,18.7a9.32,9.32,0,0,1-1.21.53A3.15,3.15,0,0,1,638,192.59Z"/><path class="cls-2" d="M647,214.41l.25-.06c2.23.59,4.59,1.3,6.53,1.88s3.69,1.11,4.64,1.31A41.54,41.54,0,0,1,664,219.6c5,2,11,4.51,14.59,3.27a4.35,4.35,0,0,0,1.21-.63,3.27,3.27,0,0,0,1.51-3.21c-.42-2.73-4.2-5.31-6.62-6.2-8.12-3-19-1.49-27.5.55l-.23-.06C647,213.69,647,214.05,647,214.41Z"/><path class="cls-2" d="M569.56,219.42h0v0l-.16-.45.19-.06c.37-4.17,4.76-14,9.62-16.69a4.83,4.83,0,0,1,5-.16c2.35,1.32,3.45,2.91,3.27,4.74-.58,5.91-14.92,12.09-17.72,13.06Z"/><path class="cls-2" d="M485,225.32c1.31,1.39,2.65,2,4,1.73a4.6,4.6,0,0,0,.5-.13c1.47-.51,2.76-2,3.77-4.47,2.34-5.7-.87-12.38-3.71-18.27l-.36-.74c0-.06.05-.13.08-.19a4.62,4.62,0,0,1-1.14.23c-.39.94-.83,1.94-1.29,3C484,212.75,480.51,220.58,485,225.32Z"/><path class="cls-2" d="M393.4,203.52c4.67,7.51,14.34,21.64,23.86,22.07a8.75,8.75,0,0,0,3.32-.43,5.54,5.54,0,0,0,3-2.29c1.12-1.83.93-4.21-.53-6.51-4.62-7.29-14.53-10-23.27-12.32-2-.52-3.84-1-5.63-1.58a11.43,11.43,0,0,1-.66.94Z"/><path class="cls-2" d="M423.16,309c-8.65-1.53-13.26-9.24-17.31-16.05l-.46-.76c-.31-.52-1-1.46-1.91-2.64-4.16-5.52-8.14-11.15-7.2-14a2.11,2.11,0,0,1,1-1.23l.36-.44a88.52,88.52,0,0,0,11.9,7.08c7.62,4,15.51,8.19,20,15.57,3,4.85,3.75,8.7,2.2,10.86a4.34,4.34,0,0,1-2.18,1.53A13.27,13.27,0,0,1,423.16,309Z"/><path class="cls-2" d="M469.44,306.47c-10.75-2.88-15.79-25-13.9-35l-.07-.07.1-.09c.06-.28.12-.56.19-.83l.34-1.32.58,1.24a5.4,5.4,0,0,0,.73,1.08c.11.14.23.28.34.43l-.26.18c1.12,1.1,2.4,2.29,3.74,3.53,7.34,6.82,16.49,15.31,16.2,24.57a6.92,6.92,0,0,1-2.63,5.57,5.31,5.31,0,0,1-1.4.72A6.65,6.65,0,0,1,469.44,306.47Z"/><path class="cls-2" d="M624.1,283.47a10.65,10.65,0,0,1-6.05-6.06c-3-7.83,6.15-16.93,12.84-23.57,1.75-1.74,3.27-3.24,4.3-4.47l.4.31.42,0a68.68,68.68,0,0,0,.22,8.72c.59,9.67,1.32,21.72-4.84,24.7a10.33,10.33,0,0,1-1.11.45A8.94,8.94,0,0,1,624.1,283.47Z"/><path class="cls-2" d="M663.12,277.39c-3.63,0-5.78-.73-6.56-2.22-1.15-2.18.93-5.47,3.35-8.71,2.6-3.48,4.71-5.6,9-7.54,4.49-2,9.53-2.38,14.41-2.73a49.12,49.12,0,0,0,11-1.6l0,.06.2-.15.58.76c-2.29,1.64-5.44,5.11-8.63,9.51a30.57,30.57,0,0,1-14.7,11.16A26.72,26.72,0,0,1,663.12,277.39Z"/><path class="cls-2" d="M517.6,160.73a5.87,5.87,0,0,1-3.82-5c-.68-3.91,2.37-7.87,5.07-11.36a35,35,0,0,0,3.17-4.57c.59-1.12,1.08-2.21,1.55-3.25a21.79,21.79,0,0,1,4.5-7.24l.7.66c-.08.08-.15.16-.23.23,3.15,7.93,7.07,21.68-.4,27.77a14.91,14.91,0,0,1-4.47,2.46A9.41,9.41,0,0,1,517.6,160.73Z"/><path class="cls-2" d="M545.84,276.26c1.26,4.65,4,7.46,8.07,8.11a7.3,7.3,0,0,0,3.61-.14,3.79,3.79,0,0,0,2.5-2.79c1.51-5.88-5.77-18.29-10.94-22.83l.09-.14a13.27,13.27,0,0,1-1.39.31l.09.06A26.15,26.15,0,0,0,545.84,276.26Z"/><path class="cls-2" d="M421.82,136.23c-4.19-3.77-6.12-13.1-5-18.79h0l0,0a11.87,11.87,0,0,1,.5-1.79l.92.32a9.1,9.1,0,0,0-.36,1.18c3.27,2.93,11.82,11.14,12,16.67.06,2.21-.66,3.77-2,4.38l-.24.09C426,138.8,423.84,138.05,421.82,136.23Z"/><path class="cls-5" d="M467.61,653.52c11.82-10,21.09-29.79,26.49-45.82l-49-15.12C446.71,607.86,453.87,637,467.61,653.52Z"/><path class="cls-3" d="M533.45,668.32c11.55-13.7,20.28-36.2,22.25-53.74l-44.07,3C517.41,634.35,524.73,654.49,533.45,668.32Z"/><path class="cls-4" d="M609.6,686.19c8.77-22.24,16-51.37,14.28-74.53L584,621.76C586.92,642.61,595.51,672.08,609.6,686.19Z"/><path class="cls-5" d="M680,662c6.41-21.54,2.5-52.45,2.13-75.82L646.69,607C654.22,627.31,667,646.26,680,662Z"/><path class="cls-4" d="M748.67,513.41l-41.32,43.44c18.27,14.85,31,37,50.87,50.79C757.87,577.93,758.8,541.34,748.67,513.41Z"/><path class="cls-2" d="M72,821.3a284,284,0,0,1,30.56-3.19c24.66-1.38,49.34,0,74,.66,1.44,0,2.89.05,4.34.07,1.61-63,2-126.88,9.48-189.12,4-33.31-4.83-28.45-38.77-31.23-23.56-1.94-52.09-6.9-75.12.49l-2,4.39C78.82,675.08,67.59,748.11,72,821.3Z"/><path class="cls-3" d="M184.49,602.51c6,39.16-4.1,84.67-4.9,124.49-.61,30.64-2.72,61-1.57,91.79,24.92.59,49.84-.78,74.78,0a547.84,547.84,0,0,1,63,5.18c-3.24-61.14-10.41-192.09-19.82-198.74,13-2.44,25.83-5.2,36.45-5.5,26.1-.73,51.91-3.15,77.53-4.75-7-30.12-33-58.17-52-82.29a803.87,803.87,0,0,1-59.78-87.57c-21.44-35.93-57.8-61.92-76.84-97.27-18,47-27.5,97.11-46.22,144.32-14.49,36.51-30.54,73.12-43.63,109.75C149.4,600.93,167,604.38,184.49,602.51Z"/><path class="cls-4" d="M412.74,620.18c6.35-4.15,12.57-8.49,18.72-12.92l-207-278.95c-17.24.51-47.69.28-69.17,4.23-15.34,2.83-15.49.77-25.46,13.64-11.88,15.33-20.38,37.32-27.67,55.18C85.54,442,65.47,479.59,50.44,520.82c-8.74,24-30.06,63.32-32.37,81.1,28.07-.29,114.31,11.55,114.31,11.55s21.08-63.46,28.72-86.3c12.17-36.34,48.84-149.58,54.89-169.9,40,56.36,81.15,111.49,123.42,167,20,26.27,40.67,49.78,57.52,78.22C400.52,608.53,406.31,615.6,412.74,620.18Z"/><path class="cls-1" d="M252.35,695.85c-3.73-9.81-4.55-21.75-4.49-34.1,0-.79,0-1.58,0-2.37.06-4.44.21-8.93.35-13.38.32-9.4.6-18.29,0-26.43l-.09-1.28-1.3.19c-3.55.55-7.23,1.37-10.81,2.15-2.13.48-4.28,1-6.44,1.38-.79.16-1.57.31-2.37.45a72.82,72.82,0,0,1-8.19,1l-.8,0-.26.74c-3.24,9-5.77,24.63-7.07,39.25-.07.78-.14,1.56-.19,2.34-.94,11.51-1.09,22.16-.18,28.16l.15.9.93.09c.74.08,11.28,1.12,21.6,1.84.81.06,1.62.12,2.43.16,5.34.35,10.4.56,13.76.48.7,0,1.33,0,1.87-.09l1.58-.14Zm-3-.68c-3.3.08-8.36-.15-13.72-.5l-2.42-.16c-8.69-.6-17.54-1.44-20.39-1.72-.73-5.94-.53-16,.36-26.9.06-.78.13-1.56.19-2.34,1.27-14,3.66-29,6.64-37.75a77.09,77.09,0,0,0,7.65-1l2.37-.45c2.2-.44,4.38-.93,6.55-1.41,3.24-.7,6.31-1.39,9.34-1.9.44,7.68.17,16.06-.12,24.91-.15,4.57-.31,9.17-.35,13.74,0,.79,0,1.57,0,2.36,0,11.86.74,23.38,4.1,33.14Z"/><path class="cls-1" d="M235.65,694.67c0,.79,0,1.58,0,2.37-.81,0-1.62-.1-2.43-.16,0-.78,0-1.57,0-2.37-.16-10-.48-20.26-1.12-30.56,0-.79-.08-1.57-.14-2.36a335.54,335.54,0,0,0-4.29-36.81l-.42-2.32c.8-.14,1.58-.29,2.37-.45.14.78.29,1.55.42,2.32a337.9,337.9,0,0,1,4.32,36.91c0,.78.09,1.57.15,2.36C235.18,674.08,235.5,684.56,235.65,694.67Z"/><path class="cls-1" d="M247.88,659.38c0,.79,0,1.58,0,2.37l-2.42.28c-3.23.41-6.63.92-10.13,1.44l-.79.13-2.41.35a157.92,157.92,0,0,1-18.48,1.94h-.43c-.84,0-1.66,0-2.45,0,.05-.78.12-1.56.19-2.34.8,0,1.62,0,2.45,0a156,156,0,0,0,18.58-2l2.4-.35.58-.09c3.63-.55,7.16-1.07,10.52-1.48C246.29,659.56,247.09,659.46,247.88,659.38Z"/><path class="cls-1" d="M234,785.7a59.31,59.31,0,0,1-3.12-15.35c-.05-.47-.09-.94-.14-1.41-.07-.74-.13-1.47-.2-2.21-.76-8.49-1.55-17.26-6.25-24.74l-.36-.56-1,.16c-2.67.45-5.53.76-8.47,1-.74.06-1.49.11-2.23.15-3.83.24-7.8.35-11.69.46l-3.18.09-1,0,0,.65a273.6,273.6,0,0,0,.17,28.78c0,.46,0,.92.06,1.38l.12,2.55c.16,3.45.33,6.89.44,10.31l0,.69,14.09-.43,2.22-.07,20.88-.63Zm-20.58.08-2.22.07-11.89.36c-.11-3.2-.26-6.41-.42-9.62,0-.89-.07-1.78-.12-2.67l-.07-1.39a276.45,276.45,0,0,1-.19-27.91l2.13-.06c3.85-.11,7.78-.21,11.61-.45l2.24-.14c2.78-.21,5.49-.49,8.06-.89,4.27,7.16,5,15.6,5.76,23.76.08.81.15,1.63.23,2.46,0,.47.09.94.14,1.41a61.23,61.23,0,0,0,2.84,14.52Z"/><path class="cls-1" d="M214.52,742.57c0,.46,0,.92,0,1.4-.06,4.93-.28,10.47-.51,16.23-.14,3.64-.29,7.31-.39,11,0,.47,0,.94-.05,1.41-.12,4.49-.18,8.94-.12,13.21,0,.46,0,.93,0,1.38l-2.22.07c0-.46,0-.92,0-1.38-.06-4.24,0-8.66.12-13.06l0-1.4c.12-3.8.26-7.57.41-11.19.23-5.71.44-11.19.49-16.09,0-.47,0-.93,0-1.39C213,742.68,213.78,742.63,214.52,742.57Z"/><path class="cls-1" d="M230.9,770.35l-2.2.36c-4.7.72-9.83,1.33-15.14,1.86l-2.22.22c-4.14.4-8.37.76-12.55,1.13l-.58.05-1.65.14c0-.46,0-.92-.06-1.38l1.45-.13.77-.07c4.13-.35,8.4-.73,12.65-1.14l2.24-.23c5.21-.53,10.32-1.13,14.95-1.86.75-.11,1.48-.24,2.2-.36C230.81,769.41,230.85,769.88,230.9,770.35Z"/><path class="cls-1" d="M141.53,670.89l-.08-1.11-1.15,0c-5-.1-9.91-.1-14.67,0l-2.53,0q-8.77.23-16.91.85l-1.14.09,0,1.11c-.37,12.15-.17,24.54.2,36.79,0,.83,0,1.65.07,2.47.16,4.8.34,9.56.5,14.29.28,7.48.57,15.21.76,22.78l0,1,20.8,3.52,2.54.44L144,755.52l0-1.5c-.21-8.35-.31-16.88-.41-25.14C143.3,709.78,143.07,690,141.53,670.89Zm-.53,58c.09,7.77.19,15.78.37,23.67l-11.55-2-2.54-.43-18.22-3.09c-.19-7.25-.46-14.64-.73-21.8-.16-4.71-.34-9.48-.5-14.27,0-.83,0-1.64-.07-2.46-.36-11.85-.55-23.82-.24-35.55,5-.37,10.25-.62,15.65-.75l2.53,0c4.36-.09,8.84-.09,13.4,0,1,12.37,1.39,25,1.62,37.56,0,.85,0,1.7.05,2.55C140.87,717.89,140.93,723.43,141,728.91Z"/><path class="cls-1" d="M129.92,753.15l-2.54-.44c0-.83,0-1.68-.1-2.52-.48-11.3-1.18-22.58-1.87-33.63-.12-2-.25-3.92-.37-5.91l-.14-2.47c-.73-11.88-1.41-23.95-1.73-35.91,0-.83,0-1.64-.07-2.47l2.53,0c0,.82,0,1.64.07,2.47.32,12,1,24.11,1.74,36,0,.83.1,1.65.14,2.48.13,1.89.24,3.79.36,5.67.7,11.25,1.41,22.72,1.88,34.22C129.87,751.46,129.9,752.31,129.92,753.15Z"/><path class="cls-1" d="M141.92,710l-.59,2.41-.56-.13a75.23,75.23,0,0,0-13.19-1.59c-.84,0-1.69-.06-2.54-.08-4.9-.1-9.83.1-14.68.28l-2.53.1-2.53.08c0-.82,0-1.64-.07-2.47l2.53-.07,2.5-.1c4.84-.18,9.74-.37,14.64-.29l2.54.07a81.11,81.11,0,0,1,13.28,1.52Z"/><path class="cls-2" d="M314.27,559.84c-2.29-6.4-4.87-13.84-7.08-20.44l-.27-.78h-.83c-7.27-.17-14.61-.19-22-.12-.79,0-1.58,0-2.37,0-9,.09-18.09.33-27.09.63l-2.36.07-15.92.56-5.19.19-2.39.08c-7.58.28-15.27.54-22.76.72l-1.19,0,.19,7.54c.24,8.94-1.68,17.63-3.49,25.07l-.41,1.68,1.75-.26c17-2.51,34.88-4.43,52.2-6.28,19.22-2,39.1-4.18,58.26-7.17l1.42-.22Z"/><path class="cls-1" d="M284.19,540.81c-.79,0-1.58,0-2.36,0,0-.74-.05-1.52-.1-2.31a87.65,87.65,0,0,0-2.77-17.1c-.2-.76-.41-1.51-.64-2.26a76.44,76.44,0,0,0-4.8-12.48c-.34-.71-.71-1.39-1.08-2.07-4.93-9.05-11.88-16.2-21.1-18a35,35,0,0,0-5.9-.68c-.61,0-1.2,0-1.79,0h0a15,15,0,0,0-9.71,3.64c-4.12,3.78-5.66,10.19-5.93,17.3q-.06,1.15-.06,2.34a106,106,0,0,0,.77,12.07c.1.81.19,1.61.29,2.41.33,2.6.7,5.07,1,7.37.51,3.45,1,6.52,1.14,8.9,0,.47.06.91.07,1.33l-2.39.07c0-.4,0-.85-.07-1.32-.18-2.28-.62-5.26-1.11-8.65-.37-2.5-.76-5.22-1.11-8.07-.11-.79-.2-1.6-.28-2.41a100.28,100.28,0,0,1-.7-12c0-.78,0-1.56,0-2.33.34-7.55,2.08-14.45,6.67-18.69,4.39-4,11-5.25,19.52-3.57,10.22,2,17.7,9.68,22.87,19.27.36.69.73,1.38,1.07,2.08a78.61,78.61,0,0,1,4.94,13c.22.75.43,1.51.61,2.26a91.16,91.16,0,0,1,2.79,17.58C284.14,539.29,284.17,540.05,284.19,540.81Z"/><path class="cls-1" d="M254.64,539.14c0,.83,0,1.61,0,2.33l-2.37.07c0-.69,0-1.47,0-2.33a134.7,134.7,0,0,0-1.1-14.61c-.09-.77-.19-1.57-.3-2.38-.2-1.6-.44-3.29-.71-5.07-.34-2.27-.69-4.53-1.07-6.73-.14-.79-.28-1.56-.43-2.33-2-10.91-4.27-19.87-5.67-21.67l.64-.49h0l1.24-.92a5.29,5.29,0,0,1,.55.9c1.68,3.31,3.83,12.16,5.63,22.15.14.76.28,1.52.4,2.3.67,3.89,1.28,7.88,1.77,11.77.12.8.21,1.58.3,2.37A138.32,138.32,0,0,1,254.64,539.14Z"/><path class="cls-1" d="M275.76,505.66c-.71.35-1.45.7-2.24,1-5.89,2.36-13.75,3.45-22,3.69l-.72,0-1.65,0a164.46,164.46,0,0,1-21.16-1.21l-2.36-.31c0-.78,0-1.56,0-2.33q1.17.17,2.37.3a158.16,158.16,0,0,0,20.67,1.22c.8,0,1.6,0,2.4,0,8.14-.23,15.79-1.25,21.37-3.46a22.17,22.17,0,0,0,2.25-1C275.05,504.27,275.42,505,275.76,505.66Z"/><path class="cls-1" d="M281.31,520.91c-.77.18-1.55.34-2.35.5a167.88,167.88,0,0,1-25.42,3.09c-.79,0-1.57.08-2.36.1l-1.55,0a134.52,134.52,0,0,1-20.63-.95c-.83-.11-1.64-.23-2.44-.37-.11-.79-.2-1.6-.28-2.41.79.13,1.61.26,2.43.37a132.13,132.13,0,0,0,22.17.94c.79,0,1.58-.05,2.36-.09a172.67,172.67,0,0,0,25.08-3l2.38-.5C280.92,519.4,281.13,520.16,281.31,520.91Z"/><path class="cls-5" d="M203.19,200.59q4.26-.17,7.3-.16a42.31,42.31,0,0,1,6.31.49q5.89,0,11.8.25t11.64.57a31.55,31.55,0,0,1,4.1,1c1.42.43,2.84.93,4.26,1.47a10.08,10.08,0,0,1,4.92,3.86,6.49,6.49,0,0,1,.82,5.49,9.59,9.59,0,0,1-3.2,4.76,7.88,7.88,0,0,1-6,1.64,65.88,65.88,0,0,1-7.38-1.06,22.55,22.55,0,0,0-6.88-.41q-7.38.17-14.43.65t-14.26,1.31a3.72,3.72,0,0,0-3.53,1.07,6.53,6.53,0,0,0-1.55,3.36q-.82,3.62-1.31,7.39c-.33,2.51-.77,5-1.32,7.54q-1.31,7.72-2.78,15.1T188.93,270a43.25,43.25,0,0,0-.49,11.32,12.91,12.91,0,0,1-2.3,8.7,12.57,12.57,0,0,1-7.7,4.76q-3.45.32-6.64.9t-6.48,1.23a7.73,7.73,0,0,1-6-1,6.73,6.73,0,0,1-2.71-5.25c.22-1.1.44-2.28.66-3.53s.44-2.49.66-3.69q3.11-10.83,6.39-21.5t6.39-21.65c.88-2.52,1.64-5.14,2.3-7.88s1.42-5.68,2.29-8.86h-5.16c-1.48,0-2.87.06-4.18.17q-14.92.81-29.51,1.64t-29.34,1.47a33.43,33.43,0,0,1-8.12-.32,17.4,17.4,0,0,1-7.13-3A11.44,11.44,0,0,1,88,219.3a12,12,0,0,1-1.48-5.25,10.07,10.07,0,0,1,1.07-4.93,8.21,8.21,0,0,1,3.6-3.61,35.82,35.82,0,0,0,6.64-4.26q3-2.46,5.82-5.17t5.41-5.58q2.63-2.87,5.58-5.66,16.38-15.26,32.29-30.92t32.3-31.42a72.76,72.76,0,0,0,12.46-15.67q5.07-8.61,10.33-17.31c1.31-2.19,2.67-4.48,4.09-6.89s2.9-4.7,4.43-6.89a13.35,13.35,0,0,1,5.33-4.68c2-.93,4.4-.84,7.13.25a14.73,14.73,0,0,0,2.54.41,13.83,13.83,0,0,1,2.54.41c2.73.55,4.65,1.72,5.74,3.53s1,4.07-.16,6.8a132.32,132.32,0,0,0-5.25,15.26q-2.13,7.71-3.69,15.51T221.88,129q-1.31,8-2.79,15.83-1.14,5.91-2.54,11.65t-3.19,11.48Q211.71,174,209.67,180t-4.35,12.06Z"/><path class="cls-3" d="M397.72,39.85V41a2.29,2.29,0,1,0,4.58,0V39.88a2.29,2.29,0,0,0-4.58,0Z"/><path class="cls-3" d="M572.82,39.24H574a2.29,2.29,0,0,0,0-4.58h-1.15a2.29,2.29,0,1,0,0,4.58Z"/><path class="cls-3" d="M189.78,46v1.15a2.29,2.29,0,1,0,4.58,0V46.07a2.29,2.29,0,1,0-4.58,0Z"/><path class="cls-3" d="M301.59,64.45V65a2.29,2.29,0,0,0,4.58,0v-.51a2.29,2.29,0,1,0-4.58,0V65a2.29,2.29,0,0,0,4.58,0v-.51a2.29,2.29,0,1,0-4.58,0Z"/><path class="cls-3" d="M156.47,101.53a2.29,2.29,0,1,0-2.27-2.31,2.32,2.32,0,0,0,2.27,2.31Z"/><path class="cls-3" d="M105.58,98.48a2.29,2.29,0,1,0-2.27-2.31,2.32,2.32,0,0,0,2.27,2.31Z"/><path class="cls-3" d="M103.44,128.13v1.16a2.29,2.29,0,0,0,4.58,0v-1.15a2.29,2.29,0,1,0-4.58,0Z"/><path class="cls-3" d="M80.72,57.63v1.16a4.23,4.23,0,1,0,8.45.06V57.69a4.23,4.23,0,1,0-8.45-.06Z"/><path class="cls-3" d="M70,292.62a4.24,4.24,0,1,0-4.2-4.26,4.28,4.28,0,0,0,4.2,4.26Z"/><path class="cls-3" d="M147.27,150.87a4.23,4.23,0,1,0-4.2-4.26,4.28,4.28,0,0,0,4.2,4.26Z"/><path class="cls-3" d="M70.84,132.75v1.16A2.56,2.56,0,0,0,76,134v-1.16a2.56,2.56,0,0,0-5.12,0Z"/><path class="cls-3" d="M76.46,169.13a1.18,1.18,0,0,0,0-2.36,1.18,1.18,0,0,0,0,2.36Z"/><path class="cls-3" d="M66.47,160.32h1.15a1,1,0,1,0,0-1.94H66.48a1,1,0,1,0,0,1.94Z"/><path class="cls-3" d="M105.92,63.43a5.34,5.34,0,0,0,.23,2,2,2,0,0,0,1.88,1.3c1.26,0,1.26-1.89,0-1.94-.14,0-.17,0-.1,0s-.11-.1,0,0,0,.07,0,0c.1.16,0-.1,0-.13a5.55,5.55,0,0,1-.06-1.18,1,1,0,0,0-1.94,0Z"/><path class="cls-3" d="M126.51,128a1,1,0,0,0,0-2,1,1,0,0,0,0,2Z"/><path class="cls-3" d="M179.25,72.48a1,1,0,0,0,0-2,1,1,0,0,0,0,2Z"/><path class="cls-3" d="M478.54,142.81l-.22.05-1.75.37a1,1,0,0,0,.28.63L478,145a1,1,0,0,0,1.37-1.38Z"/><path class="cls-3" d="M209.62,81.74c.12-.63.25-1.25.38-1.88a1.15,1.15,0,0,0-.34-.06A1,1,0,0,0,209.62,81.74Z"/><path class="cls-3" d="M304.91,90.41a1,1,0,0,0,0-2,1,1,0,0,0,0,2Z"/><path class="cls-3" d="M114.24,177.33a1,1,0,0,0,0-1.94,1,1,0,0,0,0,1.94Z"/><path class="cls-3" d="M190.2,117.84,189.05,119a1,1,0,0,0,0,1.37,1,1,0,0,0,1.38,0l1.15-1.15a1,1,0,1,0-1.38-1.37Z"/><path class="cls-3" d="M594.13,213.89H593a2.29,2.29,0,1,1,0-4.58h1.16a2.29,2.29,0,0,1,0,4.58Z"/><path class="cls-3" d="M353.35,228.39a2.29,2.29,0,1,1,2.27-2.31,2.31,2.31,0,0,1-2.27,2.31Z"/><path class="cls-3" d="M282.86,214.77a2.29,2.29,0,1,1,2.27-2.31,2.32,2.32,0,0,1-2.27,2.31Z"/><path class="cls-3" d="M131.22,229.59h-1.15a2.29,2.29,0,1,1,0-4.58h1.16a2.29,2.29,0,0,1,0,4.58Z"/><path class="cls-3" d="M89.55,209.87V211a2.29,2.29,0,1,1-4.57,0v-1.15a2.29,2.29,0,1,1,4.57,0Z"/><path class="cls-3" d="M64.61,260.77v1.16A2.29,2.29,0,0,1,60,262v-1.15a2.29,2.29,0,1,1,4.58,0Z"/><path class="cls-3" d="M88.89,241.12a2.29,2.29,0,1,1,2.27-2.3,2.31,2.31,0,0,1-2.27,2.3Z"/><path class="cls-3" d="M181.9,193.6a2.29,2.29,0,1,1,2.27-2.31,2.32,2.32,0,0,1-2.27,2.31Z"/><path class="cls-3" d="M518.25,367.58a4.23,4.23,0,1,1,4.2-4.26,4.28,4.28,0,0,1-4.2,4.26Z"/><path class="cls-3" d="M402.18,189.7a.9.9,0,0,0-.21.61,4.9,4.9,0,0,1-.07,1.18l0,.13s0,0,0,0h-.06a1,1,0,0,0,0,1.94,2,2,0,0,0,1.88-1.3,2.83,2.83,0,0,0,.19-.76C403.28,190.94,402.72,190.33,402.18,189.7Zm-.32,1.94Zm0,0h0C401.93,191.64,401.92,191.64,401.87,191.64Z"/><path class="cls-3" d="M330.58,199.34a1,1,0,0,1,0-1.94,1,1,0,0,1,0,1.94Z"/><path class="cls-3" d="M182.41,264.65a1,1,0,0,1,0-1.94,1,1,0,0,1,0,1.94Z"/><path class="cls-3" d="M209,223.06V221.9a1,1,0,1,1,1.94,0V223a1,1,0,1,1-1.94,0Z"/><path class="cls-3" d="M151.23,243.27a1,1,0,0,1,0-1.94,1,1,0,0,1,0,1.94Z"/><path class="cls-3" d="M108.51,234a1,1,0,0,1,0-1.94,1,1,0,0,1,0,1.94Z"/><path class="cls-3" d="M133.72,263.09a2.33,2.33,0,0,1-.43,1.71,2.18,2.18,0,0,1-1.68.43,1,1,0,0,1-1-1,1,1,0,0,1,1-1c.21,0,.41,0,.61,0s-.26.07,0,0-.25.12-.13.06-.22.18-.12.09-.17.24-.1.13-.11.28-.06.14a.29.29,0,0,1,0-.09c0-.15,0,.29,0,.12s0-.41,0-.61a1,1,0,0,1,1.94,0Z"/><path class="cls-3" d="M92.42,294.81a1,1,0,0,1,0-1.94,1,1,0,0,1,0,1.94Z"/><path class="cls-3" d="M362.64,349l1.16,1.16a1,1,0,0,1-1.38,1.36l-1.16-1.15a1,1,0,0,1,0-1.38,1,1,0,0,1,1.37,0Z"/><path class="cls-3" d="M169.08,346.17a2.23,2.23,0,0,0-.38,1.22,2.29,2.29,0,0,0,4.54.41C171.83,347.32,170.44,346.78,169.08,346.17Z"/><path class="cls-3" d="M120.08,346.65a2.29,2.29,0,1,0-2.27-2.31,2.3,2.3,0,0,0,2.27,2.31Z"/><path class="cls-3" d="M117.94,376.31v1.15a2.29,2.29,0,1,0,4.58,0v-1.15a2.29,2.29,0,1,0-4.58,0Z"/><path class="cls-3" d="M459.72,382.08v1.16a2.29,2.29,0,1,0,4.57,0v-1.15a2.29,2.29,0,1,0-4.57,0Z"/><path class="cls-3" d="M435.43,362.43a2.29,2.29,0,1,0-2.27-2.3,2.32,2.32,0,0,0,2.27,2.3Z"/><path class="cls-3" d="M281.62,370.45a2.29,2.29,0,1,0-2.27-2.31,2.31,2.31,0,0,0,2.27,2.31Z"/><path class="cls-3" d="M192.62,411.75v1.16a4.23,4.23,0,1,0,8.45.06v-1.16a4.23,4.23,0,1,0-8.45-.06Z"/><path class="cls-3" d="M417,396.73a4.23,4.23,0,1,0-4.2-4.26,4.26,4.26,0,0,0,4.2,4.26Z"/><path class="cls-3" d="M116.69,425.71a4.23,4.23,0,1,0-4.2-4.26,4.28,4.28,0,0,0,4.2,4.26Z"/><path class="cls-3" d="M161.77,399a4.23,4.23,0,1,0-4.2-4.26,4.26,4.26,0,0,0,4.2,4.26Z"/><path class="cls-3" d="M67.93,391.61v1.15a2.56,2.56,0,1,0,5.12,0v-1.15a2.56,2.56,0,1,0-5.12,0Z"/><path class="cls-3" d="M91,417.3a1.18,1.18,0,0,0,0-2.36,1.18,1.18,0,0,0,0,2.36Z"/><path class="cls-3" d="M81,408.49h1.16a1,1,0,1,0,0-1.94H81a1,1,0,0,0,0,1.94Z"/><path class="cls-3" d="M120.41,311.6a5.34,5.34,0,0,0,.24,2,2,2,0,0,0,1.88,1.3c1.26.05,1.26-1.89,0-1.94-.14,0-.17,0-.1,0s-.11-.1,0,0,0,.07,0,0c.09.16,0-.1,0-.13a4.9,4.9,0,0,1-.07-1.18,1,1,0,0,0-1.94,0Z"/><path class="cls-3" d="M141,376.14a1,1,0,0,0,0-1.94,1,1,0,0,0,0,1.94Z"/><path class="cls-3" d="M214.62,371.4l1.15,1.16a1,1,0,1,0,1.36-1.38L216,370a1,1,0,0,0-1.36,1.38Z"/><path class="cls-3" d="M341.92,386a1,1,0,0,0,0-1.94,1,1,0,0,0,0,1.94Z"/><path class="cls-3" d="M315.37,344.37v-1.16a1,1,0,1,0-1.94,0v1.15a1,1,0,1,0,1.94,0Z"/><path class="cls-3" d="M373.09,364.58a1,1,0,0,0,0-1.94,1,1,0,0,0,0,1.94Z"/><path class="cls-3" d="M390.6,384.4a2.3,2.3,0,0,0,.44,1.71,2.18,2.18,0,0,0,1.68.43,1,1,0,0,0,1-1,1,1,0,0,0-1-1c-.21,0-.41,0-.62,0s.26.06,0,0,.26.12.14.06.21.18.12.09.17.24.1.13.1.28.06.14,0-.06,0-.09,0,.29,0,.12,0-.41,0-.61a1,1,0,0,0-1-1,1,1,0,0,0-1,1Z"/><path class="cls-3" d="M491.35,392l1.15,1.16a1,1,0,0,0,1.37-1.38l-1.16-1.16a1,1,0,0,0-1.36,1.38Z"/><path class="cls-3" d="M485,349.25a1,1,0,0,0,0-1.95,1,1,0,0,0,0,1.95Z"/><path class="cls-3" d="M431.91,416.12a1,1,0,0,0,0-1.94,1,1,0,0,0,0,1.94Z"/><path class="cls-3" d="M228.54,423.42a1,1,0,0,0,0-1.94,1,1,0,0,0,0,1.94Z"/><path class="cls-3" d="M247.44,390.21a1,1,0,0,0,0-1.94,1,1,0,0,0,0,1.94Z"/><path class="cls-3" d="M142.16,448.94a1,1,0,0,0,0-1.94,1,1,0,0,0,0,1.94Z"/><path class="cls-3" d="M93.67,459.34a1,1,0,0,0,0-1.94,1,1,0,0,0,0,1.94Z"/><path class="cls-3" d="M161.68,470.32l-1.15,1.16a1,1,0,1,0,1.38,1.36l1.15-1.16a1,1,0,0,0,0-1.37,1,1,0,0,0-1.38,0Z"/><path class="cls-3" d="M510.16,439.29v1.15a2.29,2.29,0,1,1-4.57,0v-1.15a2.29,2.29,0,1,1,4.57,0Z"/><path class="cls-3" d="M334.88,526.8h-1.15a2.29,2.29,0,0,1,0-4.58h1.15a2.29,2.29,0,0,1,0,4.58Z"/><path class="cls-3" d="M301.23,403.13v1.16a2.29,2.29,0,0,1-4.57,0v-1.15a2.29,2.29,0,1,1,4.57,0Z"/><path class="cls-3" d="M266.65,400.83v.51a2.29,2.29,0,0,1-4.57,0v-.51a2.29,2.29,0,1,1,4.57,0v.51a2.29,2.29,0,0,1-4.57,0v-.51a2.29,2.29,0,1,1,4.57,0Z"/><path class="cls-3" d="M385.25,476.5a2.29,2.29,0,1,1,2.27-2.3,2.31,2.31,0,0,1-2.27,2.3Z"/><path class="cls-3" d="M418.74,473.51A2.29,2.29,0,1,1,421,471.2a2.31,2.31,0,0,1-2.27,2.31Z"/><path class="cls-3" d="M420.88,503.17v1.15a2.29,2.29,0,1,1-4.57,0V503.2a2.29,2.29,0,1,1,4.57,0Z"/><path class="cls-3" d="M282.46,472.91v1.16a2.29,2.29,0,0,1-4.58,0V473a2.29,2.29,0,0,1,4.58,0Z"/><path class="cls-3" d="M145.72,477.76h-1.15a2.29,2.29,0,1,1,0-4.58h1.16a2.29,2.29,0,0,1,0,4.58Z"/><path class="cls-3" d="M104.05,458.05v1.15a2.29,2.29,0,1,1-4.57,0v-1.15a2.29,2.29,0,1,1,4.57,0Z"/><path class="cls-3" d="M79.1,508.94v1.16a2.29,2.29,0,1,1-4.57,0V509a2.29,2.29,0,1,1,4.57,0Z"/><path class="cls-3" d="M103.39,489.29a2.29,2.29,0,1,1,2.27-2.3,2.31,2.31,0,0,1-2.27,2.3Z"/><path class="cls-3" d="M443.61,432.66v1.16a4.23,4.23,0,0,1-8.46.06v-1.16a4.23,4.23,0,1,1,8.46-.06Z"/><path class="cls-3" d="M342.06,433a4.23,4.23,0,1,1,4.19-4.26,4.26,4.26,0,0,1-4.19,4.26Z"/><path class="cls-3" d="M121.88,523.59a4.23,4.23,0,1,1,4.2-4.26,4.28,4.28,0,0,1-4.2,4.26Z"/><path class="cls-3" d="M299.23,495.08a4.23,4.23,0,1,1,4.19-4.26,4.28,4.28,0,0,1-4.19,4.26Z"/><path class="cls-3" d="M364.06,407.54a5.28,5.28,0,0,1-.23,2,2,2,0,0,1-1.89,1.31c-1.25,0-1.26-1.9,0-1.95H362c-.12,0,.12-.11,0,0s-.06.08,0,0c-.09.15,0-.11,0-.14a4.9,4.9,0,0,0,.07-1.18,1,1,0,0,1,1.94,0Z"/><path class="cls-3" d="M467.77,462.27l-1.15,1.16a1,1,0,0,1-1.37-1.38l1.16-1.16a1,1,0,1,1,1.36,1.38Z"/><path class="cls-3" d="M345.08,447.51a1,1,0,0,1,0-1.94,1,1,0,0,1,0,1.94Z"/><path class="cls-3" d="M223.46,471.23v-1.16a1,1,0,1,1,1.94,0v1.15a1,1,0,0,1-1.94,0Z"/><path class="cls-3" d="M186.28,494.48a1,1,0,0,1,0-1.94,1,1,0,0,1,0,1.94Z"/><path class="cls-3" d="M123,482.2a1,1,0,0,1,0-1.94,1,1,0,0,1,0,1.94Z"/><path class="cls-3" d="M148.22,511.27a2.31,2.31,0,0,1-.43,1.7,2.19,2.19,0,0,1-1.69.43,1,1,0,0,1,0-1.94c.2,0,.41,0,.61,0s-.26.07,0,0-.25.12-.13.06-.22.18-.13.09-.16.24-.09.13-.11.28-.07.14a.29.29,0,0,0,0-.09c0-.15,0,.29,0,.12s0-.41,0-.61a1,1,0,1,1,1.94,0Z"/><path class="cls-3" d="M63,483.17a1,1,0,0,1,0-1.94,1,1,0,0,1,0,1.94Z"/><path class="cls-3" d="M106.92,543a1,1,0,0,1,0-1.94,1,1,0,0,1,0,1.94Z"/><path class="cls-3" d="M310.28,550.28a1,1,0,0,1,0-1.94,1,1,0,0,1,0,1.94Z"/><path class="cls-3" d="M291.39,517.07a1,1,0,0,1,0-1.94,1,1,0,0,1,0,1.94Z"/><path class="cls-3" d="M314.68,456.78a1,1,0,0,1,0-1.95,1,1,0,0,1,0,1.95Z"/><path class="cls-3" d="M303.53,607.86l-1.16.07a2.29,2.29,0,0,0,.25,4.57l1.16-.07a2.29,2.29,0,0,0-.25-4.57Z"/><path class="cls-3" d="M392.87,428.16a4.23,4.23,0,1,0,4-4.46,4.27,4.27,0,0,0-4,4.46Z"/><path class="cls-3" d="M185,813.81a4.23,4.23,0,1,0,4-4.45,4.27,4.27,0,0,0-4,4.45Z"/><path class="cls-3" d="M296.9,575.57l-1.15.08a2.56,2.56,0,1,0,.28,5.12l1.15-.07a2.57,2.57,0,0,0-.28-5.13Z"/><path class="cls-3" d="M269.14,572.91l.07,1.16a1,1,0,0,0,1.94-.11l-.08-1.15a1,1,0,1,0-1.93.1Z"/><path class="cls-3" d="M307,667.27a1,1,0,0,0,1.94-.1,1,1,0,0,0-1.94.1Z"/><path class="cls-3" d="M341.41,558.49l-1.08,1.23a1,1,0,1,0,1.46,1.27l1.08-1.22a1,1,0,1,0-1.46-1.28Z"/><path class="cls-3" d="M149.47,603.74a1,1,0,0,1,1.94-.13,1,1,0,0,1-1.94.13Z"/><path class="cls-3" d="M120.71,560.05l-1.16.08a4.23,4.23,0,1,0,.47,8.44l1.15-.07a4.23,4.23,0,0,0-.46-8.45Z"/><path class="cls-3" d="M64.78,627.93a5.44,5.44,0,0,0-2,.35,2,2,0,0,0-1.19,2c0,1.25,2,1.14,1.94-.11q0-.2,0-.09c0,.13.1-.12,0,0s-.07,0,0,0c-.15.1.11,0,.14,0a4.58,4.58,0,0,1,1.17-.14,1,1,0,0,0-.11-1.94Z"/><path class="cls-3" d="M94.8,588.33l-1.08,1.22a1,1,0,0,0,.1,1.37,1,1,0,0,0,1.36-.09l1.09-1.23a1,1,0,1,0-1.47-1.27Z"/><path class="cls-3" d="M506,27.13v1.16a2.29,2.29,0,0,0,4.57,0V27.16a2.29,2.29,0,1,0-4.57,0Z"/><path class="cls-3" d="M513.57,191.72a1,1,0,0,0,0-1.94,1,1,0,0,0,0,1.94Z"/><path class="cls-3" d="M564.87,228.17v1.15a2.29,2.29,0,1,1-4.57,0V228.2a2.29,2.29,0,1,1,4.57,0Z"/><path class="cls-3" d="M581.39,347.13a2.24,2.24,0,0,0,1.57.65,2.3,2.3,0,0,0,2.3-2.27V345a1.93,1.93,0,0,0,0-.24C583.93,345.5,582.65,346.29,581.39,347.13Z"/><path class="cls-3" d="M470.5,366.17a2.29,2.29,0,1,0-2.27-2.3,2.31,2.31,0,0,0,2.27,2.3Z"/><path class="cls-3" d="M555.89,362.53v1.15a2.29,2.29,0,1,0,4.57,0v-1.16a2.29,2.29,0,0,0-4.57,0Z"/><path class="cls-3" d="M461.29,415.52a4.23,4.23,0,1,0-4.2-4.26,4.28,4.28,0,0,0,4.2,4.26Z"/><path class="cls-3" d="M528.07,439.89a1,1,0,0,0,0-1.94,1,1,0,0,0,0,1.94Z"/><path class="cls-3" d="M547,406.69a1,1,0,0,0,0-1.95,1,1,0,0,0,0,1.95Z"/><path class="cls-3" d="M523.67,346.39a1,1,0,0,0,0-1.94,1,1,0,0,0,0,1.94Z"/><path class="cls-3" d="M630.69,471.64v1.15a2.29,2.29,0,0,1-4.58,0v-1.16a2.29,2.29,0,1,1,4.58,0Z"/><path class="cls-3" d="M496.44,505.77a2.29,2.29,0,1,1,2.27-2.31,2.31,2.31,0,0,1-2.27,2.31Z"/><path class="cls-3" d="M496.43,529.3a1,1,0,0,1,0-1.95,1,1,0,0,1,0,1.95Z"/><path class="cls-3" d="M523,487.7v-1.15a1,1,0,1,1,1.94,0v1.16a1,1,0,1,1-1.94,0Z"/><path class="cls-3" d="M737,565.81a2.29,2.29,0,1,0-2.27-2.31,2.31,2.31,0,0,0,2.27,2.31Z"/><path class="cls-3" d="M660.83,772.13v1.15a2.29,2.29,0,0,0,4.58,0v-1.16a2.29,2.29,0,0,0-4.58,0Z"/><path class="cls-3" d="M703.65,572a4.23,4.23,0,1,0-4.2-4.26,4.28,4.28,0,0,0,4.2,4.26Z"/><path class="cls-3" d="M390.72,823.11a4.23,4.23,0,1,0-4.2-4.26,4.28,4.28,0,0,0,4.2,4.26Z"/><path class="cls-3" d="M702.27,600.09v1.15a2.57,2.57,0,1,0,5.13,0v-1.15a2.57,2.57,0,1,0-5.13,0Z"/><path class="cls-3" d="M707.9,636.46a1.18,1.18,0,0,0,0-2.36,1.18,1.18,0,0,0,0,2.36Z"/><path class="cls-3" d="M697.9,627.66h1.16a1,1,0,0,0,0-1.95h-1.15a1,1,0,0,0,0,1.95Z"/><path class="cls-3" d="M757.94,595.3a1,1,0,0,0,0-1.94,1,1,0,0,0,0,1.94Z"/><path class="cls-3" d="M759.1,668.1a1,1,0,0,0,0-1.94,1,1,0,0,0,0,1.94Z"/><path class="cls-3" d="M710.6,678.5a1,1,0,0,0,0-1.94,1,1,0,0,0,0,1.94Z"/><path class="cls-3" d="M778.62,689.48l-1.15,1.16a1,1,0,1,0,1.38,1.36l1.15-1.15a1,1,0,1,0-1.38-1.37Z"/><path class="cls-3" d="M762.66,696.92H761.5a2.29,2.29,0,1,1,0-4.57h1.15a2.29,2.29,0,1,1,0,4.57Z"/><path class="cls-3" d="M721,677.21v1.15a2.29,2.29,0,0,1-4.58,0v-1.16a2.29,2.29,0,0,1,4.58,0Z"/><path class="cls-3" d="M696,728.11v1.15a2.29,2.29,0,1,1-4.57,0v-1.16a2.29,2.29,0,1,1,4.57,0Z"/><path class="cls-3" d="M720.33,708.46a2.29,2.29,0,1,1,2.27-2.31,2.32,2.32,0,0,1-2.27,2.31Z"/><path class="cls-3" d="M756.19,819.89a4.23,4.23,0,1,1,4.19-4.26,4.27,4.27,0,0,1-4.19,4.26Z"/><path class="cls-3" d="M740,701.36a1,1,0,0,1,0-1.94,1,1,0,0,1,0,1.94Z"/><path class="cls-3" d="M765.16,730.43a2.35,2.35,0,0,1-.43,1.71,2.24,2.24,0,0,1-1.69.42,1,1,0,1,1,0-1.94h.61c.22,0-.26.06,0,0s-.25.12-.13.06-.22.18-.13.1-.16.23-.1.12-.1.28-.06.14a.19.19,0,0,0,0-.08c0-.16,0,.28,0,.11s0-.4,0-.61a1,1,0,1,1,1.94,0Z"/><path class="cls-3" d="M664.42,738.06l-1.16,1.15a1,1,0,0,1-1.37,0,1,1,0,0,1,0-1.38l1.15-1.15a1,1,0,0,1,1.37,1.38Z"/><path class="cls-3" d="M679.91,702.33a1,1,0,0,1,0-1.94,1,1,0,0,1,0,1.94Z"/><path class="cls-3" d="M723.85,762.14a1,1,0,0,1,0-1.94,1,1,0,0,1,0,1.94Z"/><path class="cls-3" d="M756.56,65.74v0l.06,0S756.58,65.74,756.56,65.74Z"/><path class="cls-3" d="M670.15,77.63h1.16a2.29,2.29,0,1,0,0-4.57h-1.16a2.29,2.29,0,0,0,0,4.57Z"/><path class="cls-3" d="M711.82,57.92v1.15a2.29,2.29,0,1,0,4.57,0V58a2.29,2.29,0,1,0-4.57,0Z"/><path class="cls-3" d="M736.77,108.82V110a2.29,2.29,0,1,0,4.57,0v-1.16a2.29,2.29,0,0,0-4.57,0Z"/><path class="cls-3" d="M712.48,89.17a2.29,2.29,0,1,0-2.27-2.31,2.3,2.3,0,0,0,2.27,2.31Z"/><path class="cls-3" d="M694,123.47a4.24,4.24,0,1,0-4.19-4.27,4.28,4.28,0,0,0,4.19,4.27Z"/><path class="cls-3" d="M650.14,91.32a1,1,0,0,0,0-1.95,1,1,0,0,0,0,1.95Z"/><path class="cls-3" d="M667.17,33.16a1,1,0,0,0,0-1.94,1,1,0,0,0,0,1.94Z"/><path class="cls-3" d="M667.65,111.14a2.35,2.35,0,0,0,.43,1.71,2.23,2.23,0,0,0,1.69.42,1,1,0,0,0,0-1.94h-.61c-.22,0,.26.06,0,0s.25.12.13.06.22.18.13.1.16.23.1.12.1.28.06.15a.29.29,0,0,1,0-.09c0-.16,0,.28,0,.11s0-.4,0-.61a1,1,0,1,0-1.94,0Z"/><path class="cls-3" d="M321.77,42.78l1.16,1.16a1,1,0,0,0,1.36-1.38l-1.15-1.16a1,1,0,0,0-1.37,1.38Z"/><path class="cls-3" d="M752.89,83a1,1,0,0,0,0-1.94,1,1,0,0,0,0,1.94Z"/><path class="cls-3" d="M709,142.85a1,1,0,0,0,0-1.94,1,1,0,0,0,0,1.94Z"/><path class="cls-3" d="M610,51.36v1.16a2.29,2.29,0,0,1-4.58,0V51.39a2.29,2.29,0,0,1,4.58,0Z"/><path class="cls-3" d="M645.15,162.51H644a2.29,2.29,0,0,1,0-4.58h1.16a2.29,2.29,0,0,1,0,4.58Z"/><path class="cls-3" d="M642.28,190.24a2.29,2.29,0,1,1,2.28-2.3,2.31,2.31,0,0,1-2.28,2.3Z"/><path class="cls-3" d="M693.18,187.19a2.29,2.29,0,1,1,2.27-2.3,2.32,2.32,0,0,1-2.27,2.3Z"/><path class="cls-3" d="M695.31,216.85V218a2.29,2.29,0,1,1-4.57,0v-1.16a2.29,2.29,0,1,1,4.57,0Z"/><path class="cls-3" d="M718,146.35v1.15a4.23,4.23,0,1,1-8.45.06v-1.15a4.23,4.23,0,1,1,8.45-.06Z"/><path class="cls-3" d="M726.54,193.36a4.23,4.23,0,1,1,4.2-4.26,4.26,4.26,0,0,1-4.2,4.26Z"/><path class="cls-3" d="M651.49,239.59a4.12,4.12,0,0,0,1.27-.21q1-.8,2.07-1.5a4.21,4.21,0,1,0-3.34,1.71Z"/><path class="cls-3" d="M727.92,221.47v1.16a2.57,2.57,0,1,1-5.13,0v-1.15a2.57,2.57,0,1,1,5.13,0Z"/><path class="cls-3" d="M722.29,257.84a1.18,1.18,0,0,1,0-2.35,1.18,1.18,0,0,1,0,2.35Z"/><path class="cls-3" d="M732.29,249h-1.15a1,1,0,0,1,0-1.94h1.16a1,1,0,1,1,0,1.94Z"/><path class="cls-3" d="M606.63,31.2a5.34,5.34,0,0,1-.23,2,2,2,0,0,1-1.89,1.3c-1.25,0-1.26-1.89,0-1.94h.09c-.12,0,.11-.11,0,0s-.06.07,0,0c-.09.16,0-.1,0-.13a4.9,4.9,0,0,0,.07-1.18,1,1,0,0,1,1.94,0Z"/><path class="cls-3" d="M672.25,216.68a1,1,0,0,1,0-1.94,1,1,0,0,1,0,1.94Z"/><path class="cls-3" d="M742.21,176l-1.16,1.15a1,1,0,0,1-1.37,0,1,1,0,0,1,0-1.38l1.15-1.15a1,1,0,0,1,1.37,0,1,1,0,0,1,0,1.38Z"/><path class="cls-3" d="M719.59,299.88a1,1,0,0,1,0-1.94,1,1,0,0,1,0,1.94Z"/><path class="cls-3" d="M726.32,306.09v1.16a2.29,2.29,0,1,0,4.57,0v-1.16a2.29,2.29,0,0,0-4.57,0Z"/><path class="cls-3" d="M751.27,357v1.15a2.29,2.29,0,1,0,4.57,0V357a2.29,2.29,0,0,0-4.57,0Z"/><path class="cls-3" d="M727,337.34a2.29,2.29,0,1,0-2.27-2.31,2.31,2.31,0,0,0,2.27,2.31Z"/><path class="cls-3" d="M708.49,371.64a4.23,4.23,0,1,0-4.2-4.26,4.28,4.28,0,0,0,4.2,4.26Z"/><path class="cls-3" d="M633.46,360.87a1,1,0,0,0,0-1.95,1,1,0,0,0,0,1.95Z"/><path class="cls-3" d="M707.36,330.24a1,1,0,0,0,0-1.94,1,1,0,0,0,0,1.94Z"/><path class="cls-3" d="M682.15,359.31a2.35,2.35,0,0,0,.43,1.71,2.23,2.23,0,0,0,1.69.42,1,1,0,0,0,0-1.94h-.61c-.23,0,.26.06,0,0s.25.11.13.05.22.19.12.1.17.24.1.12.11.28.07.15a.29.29,0,0,1,0-.09c0-.15,0,.28,0,.12s0-.41,0-.62a1,1,0,0,0-1.94,0Z"/><path class="cls-3" d="M767.39,331.21a1,1,0,0,0,0-1.94,1,1,0,0,0,0,1.94Z"/><path class="cls-3" d="M723.45,391a1,1,0,0,0,0-1.94,1,1,0,0,0,0,1.94Z"/><path class="cls-3" d="M666.24,393.72v1.15a2.29,2.29,0,1,1-4.57,0v-1.16a2.29,2.29,0,1,1,4.57,0Z"/><path class="cls-3" d="M650.37,412.13h-1.16a2.29,2.29,0,0,1,0-4.58h1.16a2.29,2.29,0,0,1,0,4.58Z"/><path class="cls-3" d="M607.15,367.23v1.16a2.29,2.29,0,1,1-4.58,0v-1.15a2.29,2.29,0,0,1,4.58,0Z"/><path class="cls-3" d="M588.08,391.11v.51a2.29,2.29,0,1,1-4.57,0v-.51a2.29,2.29,0,1,1,4.57,0v.51a2.29,2.29,0,1,1-4.57,0v-.51a2.29,2.29,0,1,1,4.57,0Z"/><path class="cls-3" d="M659.4,451.47a2.29,2.29,0,1,1,2.27-2.31,2.32,2.32,0,0,1-2.27,2.31Z"/><path class="cls-3" d="M710.29,448.41a2.29,2.29,0,1,1,2.27-2.3,2.32,2.32,0,0,1-2.27,2.3Z"/><path class="cls-3" d="M712.43,478.07v1.16a2.29,2.29,0,0,1-4.58,0v-1.15a2.29,2.29,0,1,1,4.58,0Z"/><path class="cls-3" d="M735.15,407.57v1.15a4.23,4.23,0,1,1-8.45.07v-1.16a4.23,4.23,0,1,1,8.45-.06Z"/><path class="cls-3" d="M743.66,454.59a4.23,4.23,0,1,1,4.19-4.26,4.27,4.27,0,0,1-4.19,4.26Z"/><path class="cls-3" d="M713.68,527.47a4.23,4.23,0,1,1,4.19-4.26,4.28,4.28,0,0,1-4.19,4.26Z"/><path class="cls-3" d="M745,482.69v1.16a2.56,2.56,0,1,1-5.12,0v-1.16a2.56,2.56,0,1,1,5.12,0Z"/><path class="cls-3" d="M739.41,519.06a1.18,1.18,0,0,1,0-2.35,1.18,1.18,0,0,1,0,2.35Z"/><path class="cls-3" d="M749.41,510.26h-1.16a1,1,0,1,1,0-1.94h1.15a1,1,0,0,1,0,1.94Z"/><path class="cls-3" d="M710,413.37a5.34,5.34,0,0,1-.23,2,2,2,0,0,1-1.88,1.3c-1.26,0-1.26-1.89,0-1.94.14,0,.17,0,.1,0s.11-.1,0,0,0,.08,0,0c-.1.16,0-.11,0-.13a6.3,6.3,0,0,0,.07-1.19,1,1,0,0,1,1.93,0Z"/><path class="cls-3" d="M759.32,437.18l-1.16,1.15a1,1,0,0,1-1.37,0,1,1,0,0,1,0-1.38L758,435.8a1,1,0,0,1,1.37,1.38Z"/><path class="cls-3" d="M636.62,422.41a1,1,0,0,1,0-1.94,1,1,0,0,1,0,1.94Z"/><path class="cls-3" d="M582.93,492a1,1,0,0,1,0-1.94,1,1,0,0,1,0,1.94Z"/><path class="cls-3" d="M606.23,431.68a1,1,0,0,1,0-1.94,1,1,0,0,1,0,1.94Z"/><path class="cls-3" d="M530.82,526a1,1,0,0,0,0-1.94,1,1,0,0,0,0,1.94Z"/><path class="cls-3" d="M520.68,659.64a.87.87,0,0,0-.37.07l-.56.72a.93.93,0,0,0,.91,1.15A1,1,0,0,0,520.68,659.64Z"/><path class="cls-3" d="M472.17,672a1,1,0,0,0,0-1.94,1,1,0,0,0,0,1.94Z"/><path class="cls-3" d="M549.61,639.71l-1.15,1.16a1,1,0,1,0,1.37,1.36l1.16-1.15a1,1,0,1,0-1.38-1.37Z"/><path class="cls-3" d="M524.22,690.4h-1.15a2.29,2.29,0,0,1,0-4.58h1.15a2.29,2.29,0,0,1,0,4.58Z"/><path class="cls-3" d="M482.55,670.69v1.15a2.29,2.29,0,1,1-4.57,0v-1.15a2.29,2.29,0,1,1,4.57,0Z"/><path class="cls-3" d="M457.61,721.59v1.15a2.29,2.29,0,1,1-4.58,0v-1.15a2.29,2.29,0,1,1,4.58,0Z"/><path class="cls-3" d="M481.89,701.93a2.29,2.29,0,1,1,2.27-2.3,2.31,2.31,0,0,1-2.27,2.3Z"/><path class="cls-3" d="M527,415.86a4.24,4.24,0,1,1,4.2-4.27,4.28,4.28,0,0,1-4.2,4.27Z"/><path class="cls-3" d="M501.51,694.84a1,1,0,0,1,0-1.94,1,1,0,0,1,0,1.94Z"/><path class="cls-3" d="M547.31,601.53a2.33,2.33,0,0,1-.43,1.71,2.18,2.18,0,0,1-1.68.43,1,1,0,0,1-1-1,1,1,0,0,1,1-1c.21,0,.41,0,.61,0s-.26.06,0,0-.25.12-.13.06-.22.18-.12.09-.17.24-.1.13-.11.28-.06.14,0-.06,0-.09,0,.29,0,.12,0-.41,0-.61a1,1,0,0,1,1.94,0Z"/><path class="cls-3" d="M426,731.54l-1.15,1.15a1,1,0,0,1-1.37-1.38l1.16-1.15a1,1,0,0,1,1.37,0,1,1,0,0,1,0,1.38Z"/><path class="cls-3" d="M441.48,695.81a1,1,0,0,1,0-1.94,1,1,0,0,1,0,1.94Z"/><path class="cls-3" d="M485.42,755.62a1,1,0,0,1,0-1.94,1,1,0,0,1,0,1.94Z"/><path class="cls-3" d="M136.28,627.21a2.29,2.29,0,1,0-2.27-2.3,2.3,2.3,0,0,0,2.27,2.3Z"/><path class="cls-3" d="M58.43,550.66v1.16a2.29,2.29,0,0,0,4.58,0v-1.16a2.29,2.29,0,0,0-4.58,0Z"/><path class="cls-3" d="M102.91,633.38a4.23,4.23,0,1,0-4.19-4.26,4.26,4.26,0,0,0,4.19,4.26Z"/><path class="cls-3" d="M132.89,706.27a4.23,4.23,0,1,0-4.2-4.26,4.28,4.28,0,0,0,4.2,4.26Z"/><path class="cls-3" d="M101.54,661.49v1.16a2.56,2.56,0,1,0,5.12,0v-1.15a2.56,2.56,0,1,0-5.12,0Z"/><path class="cls-3" d="M107.16,697.86a1.18,1.18,0,0,0,0-2.36,1.18,1.18,0,0,0,0,2.36Z"/><path class="cls-3" d="M97.16,689.06h1.16a1,1,0,1,0,0-1.94H97.18a1,1,0,0,0,0,1.94Z"/><path class="cls-3" d="M157.21,656.7a1,1,0,0,0,0-1.94,1,1,0,0,0,0,1.94Z"/><path class="cls-3" d="M158.36,729.5a1,1,0,0,0,0-1.94,1,1,0,0,0,0,1.94Z"/><path class="cls-3" d="M109.87,739.9a1,1,0,0,0,0-1.94,1,1,0,0,0,0,1.94Z"/><path class="cls-3" d="M177.88,750.88,176.73,752a1,1,0,1,0,1.38,1.36l1.15-1.15a1,1,0,0,0,0-1.37,1,1,0,0,0-1.38,0Z"/><path class="cls-3" d="M161.92,758.33h-1.15a2.29,2.29,0,0,1,0-4.58h1.16a2.29,2.29,0,0,1,0,4.58Z"/><path class="cls-3" d="M435.21,777.52v1.16a2.29,2.29,0,0,1-4.57,0v-1.15a2.29,2.29,0,1,1,4.57,0Z"/><path class="cls-3" d="M95.3,789.51v1.15a2.29,2.29,0,1,1-4.57,0v-1.16a2.29,2.29,0,1,1,4.57,0Z"/><path class="cls-3" d="M107.9,815.69a2.29,2.29,0,1,1,2.27-2.31,2.31,2.31,0,0,1-2.27,2.31Z"/><path class="cls-3" d="M138.08,804.16a4.23,4.23,0,1,1,4.2-4.26,4.28,4.28,0,0,1-4.2,4.26Z"/><path class="cls-3" d="M139.21,762.76a1,1,0,0,1,0-1.94,1,1,0,0,1,0,1.94Z"/><path class="cls-3" d="M159.72,820.88a2.35,2.35,0,0,1-.43,1.71,2.23,2.23,0,0,1-1.69.42,1,1,0,0,1,0-1.94h.61c.22,0-.26.06,0,0s-.25.12-.13.06-.22.18-.13.1-.16.23-.1.12-.1.28-.06.14a.19.19,0,0,0,0-.08c0-.16,0,.28,0,.11s0-.4,0-.61a1,1,0,1,1,1.94,0Z"/><path class="cls-3" d="M63.68,799.46l-1.16,1.16a1,1,0,0,1-1.36-1.38l1.15-1.16a1,1,0,1,1,1.37,1.38Z"/><path class="cls-3" d="M79.18,763.73a1,1,0,0,1,0-1.94,1,1,0,0,1,0,1.94Z"/><path class="cls-3" d="M123.12,823.54a1,1,0,0,1,0-1.94,1,1,0,0,1,0,1.94Z"/><path class="cls-3" d="M403.42,718.32a2.28,2.28,0,1,0,1.79-2.69,2.32,2.32,0,0,0-1.79,2.69Z"/><path class="cls-3" d="M374,722.22l-1.13.23a2.33,2.33,0,0,0-1.8,2.7,2.31,2.31,0,0,0,2.69,1.79l1.13-.23a2.29,2.29,0,0,0-.89-4.49Z"/><path class="cls-3" d="M350.33,775.08a4.23,4.23,0,1,0,3.32-5,4.27,4.27,0,0,0-3.32,5Z"/><path class="cls-3" d="M325.36,731a4.23,4.23,0,1,0,3.32-5,4.28,4.28,0,0,0-3.32,5Z"/><path class="cls-3" d="M362.85,691.2l-1.14.23a2.57,2.57,0,1,0,1,5l1.13-.23a2.56,2.56,0,0,0-1-5Z"/><path class="cls-3" d="M328.39,704.07a1.18,1.18,0,0,0,2.31-.46,1.18,1.18,0,0,0-2.31.46Z"/><path class="cls-3" d="M335,692.49l.24,1.13a1,1,0,1,0,1.9-.38c-.08-.38-.15-.76-.23-1.13a1,1,0,0,0-1.14-.77,1,1,0,0,0-.77,1.15Z"/><path class="cls-3" d="M378.79,744.79a1,1,0,0,0,1.9-.38,1,1,0,0,0-1.9.38Z"/><path class="cls-3" d="M307.78,760.64a1,1,0,0,0,1.9-.37,1,1,0,0,0-1.9.37Z"/><path class="cls-3" d="M287.8,715.22a1,1,0,0,0,1.9-.38,1,1,0,0,0-1.9.38Z"/><path class="cls-3" d="M290.81,784.1l-1.37-.89a1,1,0,1,0-1.06,1.62l1.37.9a1,1,0,0,0,1.34-.28,1,1,0,0,0-.28-1.35Z"/><path class="cls-3" d="M280.3,770l-.24-1.13a2.29,2.29,0,1,1,4.47-1l.24,1.13a2.29,2.29,0,1,1-4.47,1Z"/><path class="cls-3" d="M291.16,725.13l-1.13.24a2.29,2.29,0,0,1-1-4.48l1.14-.23a2.28,2.28,0,1,1,1,4.47Z"/><path class="cls-3" d="M78.94,702l-1.13.23a2.28,2.28,0,0,1-1-4.47L78,697.5a2.29,2.29,0,0,1,1,4.48Z"/><path class="cls-3" d="M260.45,730.8a2.28,2.28,0,1,1,2.71,1.76,2.3,2.3,0,0,1-2.71-1.76Z"/><path class="cls-3" d="M230.63,755.86a4.22,4.22,0,1,1,5,3.25,4.26,4.26,0,0,1-5-3.25Z"/><path class="cls-3" d="M271.36,748.6a1,1,0,0,1,1.9-.41,1,1,0,0,1-1.9.41Z"/><path class="cls-3" d="M248,779.19a2.35,2.35,0,0,1-1.75-.08,2.19,2.19,0,0,1-.76-1.57,1,1,0,0,1,.74-1.15,1,1,0,0,1,1.16.75c0,.2.08.4.13.59s-.11-.24,0,0-.16-.22-.08-.12-.22-.17-.12-.1-.27-.11-.14-.07-.3,0-.16,0h.09c.16,0-.28,0-.11,0s.4-.07.6-.11a1,1,0,0,1,1.15.74,1,1,0,0,1-.75,1.16Z"/><path class="cls-3" d="M258.27,690a1,1,0,0,1,1.9-.41,1,1,0,0,1-1.9.41Z"/><path class="cls-3" d="M208.63,745.12a1,1,0,0,1,1.89-.41,1,1,0,0,1-1.89.41Z"/><path class="cls-3" d="M595,680.32a1,1,0,0,0,0-1.94,1,1,0,0,0,0,1.94Z"/><path class="cls-3" d="M663,691.3l-1.15,1.16a1,1,0,0,0,1.38,1.37l1.15-1.16A1,1,0,0,0,663,691.3Z"/><path class="cls-3" d="M647,698.75h-1.16a2.29,2.29,0,0,1,0-4.58H647a2.29,2.29,0,0,1,0,4.58Z"/><path class="cls-3" d="M605.36,679v1.16a2.29,2.29,0,0,1-4.58,0v-1.16a2.29,2.29,0,0,1,4.58,0Z"/><path class="cls-3" d="M692.61,789.09v1.15a2.29,2.29,0,1,1-4.57,0v-1.16a2.29,2.29,0,1,1,4.57,0Z"/><path class="cls-3" d="M604.7,710.28A2.29,2.29,0,1,1,607,708a2.3,2.3,0,0,1-2.27,2.31Z"/><path class="cls-3" d="M623.19,744.58a4.23,4.23,0,1,1,4.19-4.26,4.28,4.28,0,0,1-4.19,4.26Z"/><path class="cls-3" d="M624.32,703.18a1,1,0,0,1,0-1.94,1,1,0,0,1,0,1.94Z"/><path class="cls-3" d="M649.53,732.25a2.35,2.35,0,0,1-.43,1.71,2.23,2.23,0,0,1-1.69.42,1,1,0,1,1,0-1.94H648c.22,0-.26.06,0,0s-.25.11-.13.05-.22.19-.13.1-.16.24-.1.12-.1.28-.06.15a.29.29,0,0,0,0-.09c0-.15,0,.28,0,.12s0-.41,0-.62a1,1,0,0,1,1.94,0Z"/><path class="cls-3" d="M548.79,739.88,547.63,741a1,1,0,1,1-1.36-1.38l1.15-1.16a1,1,0,0,1,1.37,1.38Z"/><path class="cls-3" d="M564.28,704.15a1,1,0,0,1,0-1.94,1,1,0,0,1,0,1.94Z"/><path class="cls-3" d="M608.22,764a1,1,0,0,1,0-2,1,1,0,0,1,0,2Z"/><path class="cls-3" d="M349.56,51.55a2.29,2.29,0,1,0-2.27-2.31,2.32,2.32,0,0,0,2.27,2.31Z"/><path class="cls-3" d="M236.88,38.15a4.22,4.22,0,1,0-6-4.6C233,35,235,36.56,236.88,38.15Z"/><path class="cls-3" d="M363.07,173.85c-.95.38-1.9.72-2.86,1a.88.88,0,0,0,.27.51,1,1,0,0,0,1.37,0l1.15-1.16a.92.92,0,0,0,.24-.43Z"/><path class="cls-3" d="M169.48,185.57a2.22,2.22,0,0,0-.42,1.33,2.31,2.31,0,0,0,2.3,2.27h1.15a2.3,2.3,0,0,0,2.27-2.3,2.25,2.25,0,0,0-.38-1.25A40.45,40.45,0,0,1,169.48,185.57Z"/><path class="cls-3" d="M225.5,821a4.23,4.23,0,1,1,4.19-4.26A4.28,4.28,0,0,1,225.5,821Z"/><path class="cls-3" d="M348.16,213.79a2.35,2.35,0,0,1-.43,1.71,2.24,2.24,0,0,1-1.69.43,1,1,0,0,1,0-2c.2,0,.4,0,.61,0s-.26.06,0,0-.25.11-.13.05-.22.19-.13.1-.16.24-.1.12-.1.28-.06.15a.29.29,0,0,0,0-.09c0-.15,0,.28,0,.12s0-.41,0-.61a1,1,0,0,1,1.94,0Z"/><path class="cls-3" d="M529.48,769a2.29,2.29,0,1,0-2.27-2.3,2.32,2.32,0,0,0,2.27,2.3Z"/><path class="cls-3" d="M685.36,510.57v1.16a2.29,2.29,0,1,0,4.57,0v-1.15a2.29,2.29,0,1,0-4.57,0Z"/><path class="cls-3" d="M462.77,711.45a4.23,4.23,0,1,0-4.2-4.26,4.26,4.26,0,0,0,4.2,4.26Z"/><path class="cls-3" d="M492.75,784.34a4.23,4.23,0,1,0-4.2-4.26,4.26,4.26,0,0,0,4.2,4.26Z"/><path class="cls-3" d="M390.89,767.85V769a2.57,2.57,0,1,0,5.13,0v-1.15a2.57,2.57,0,1,0-5.13,0Z"/><path class="cls-3" d="M467,775.93a1.18,1.18,0,0,0,0-2.36,1.18,1.18,0,0,0,0,2.36Z"/><path class="cls-3" d="M457,767.13h1.15a1,1,0,0,0,0-1.94H457a1,1,0,1,0,0,1.94Z"/><path class="cls-3" d="M517.06,734.77a1,1,0,0,0,0-1.94,1,1,0,0,0,0,1.94Z"/><path class="cls-3" d="M518.21,807.57a1,1,0,0,0,0-1.94,1,1,0,0,0,0,1.94Z"/><path class="cls-3" d="M469.72,818a1,1,0,0,0,0-1.94,1,1,0,0,0,0,1.94Z"/><path class="cls-3" d="M480.1,816.68v1.16a2.29,2.29,0,0,1-4.57,0v-1.16a2.29,2.29,0,1,1,4.57,0Z"/></g></g></svg>