<svg xmlns="http://www.w3.org/2000/svg" viewBox="0 0 832.5 832.5"><defs><style>.cls-1{fill:#5e4440;}.cls-2{fill:#deaa7c;}.cls-3{fill:#ffffc5;}.cls-4{fill:#e55747;}.cls-5{fill:#76b099;}</style></defs><g id="Layer_2" data-name="Layer 2"><g id="Layer_1-2" data-name="Layer 1"><rect class="cls-1" width="832.5" height="832.5"/><path class="cls-2" d="M96.13,431q3,.12,6,.5c5.61,58.36-16.06,124.54-19.3,183.67C80.17,662.81,74,710.59,74,758.56c1.53-.75,3.08-1.49,4.65-2.19C133.38,732,191,736.27,248.34,747.93A358.6,358.6,0,0,1,296,761.09c3,1.06,6,2.17,9,3.29,11.22.16,22.41.23,33.52.12,6.32-65.2.72-130.22-7.47-194.56-5.35-42.1-12.77-78.91-6.17-120.15,29.92-3.21,65.54,4.84,94.26-2.19-4.18-24.14-24.45-46.23-33.81-69.24-11.15-27.38-23-54.35-34-81.69-15.78-39-8.09-73.83-52.37-78.64-39.24-4.27-79.7-3.27-119.19-4.92-31.64-1.31-43.5-6.86-45,24.91-.09,1.76-.14,3.63-.16,5.62,0,.31,0,.62,0,.94l-.12-.55-1-7.89c-2.61,35.49-47,84.8-63.75,119.37-.27.55-.53,1.09-.78,1.63-11.82,25.22-26.78,51-36.16,76l-.26.69C54,437.53,75,430.08,96.13,431Z"/><path class="cls-3" d="M96.13,431C97,539.54,71.25,650.24,73.69,758.7q2.43-1.22,4.92-2.33c35.83-15.91,72.89-19.61,110.28-17C184.72,664,199.89,582,203.15,508c1.93-43.68,10.73-64.09-5.56-103.86-19.45-47.47-60.42-180.63-60.42-180.63-.3,4-52.44,101.49-67.38,132-.27.55-.53,1.09-.78,1.63-11.82,25.22-26.78,51-36.16,76,21-1.26,42.28-5.43,63.26-4.86C96.12,429.16,96.13,430.09,96.13,431Z"/><path class="cls-3" d="M185,295.28c-.22-9.61-2.92-18.73-5.77-28.39-1.63-5.52-3.32-11.23-4.5-17l4.87-1c1.14,5.61,2.79,11.22,4.39,16.64,2.82,9.53,5.73,19.4,6,29.66Z"/><path class="cls-3" d="M206.72,287.2c-.72-10.28-4.26-21.31-10.52-32.76l4.36-2.35c6.61,12.08,10.35,23.78,11.11,34.77Z"/><path class="cls-3" d="M258.78,290.3a187.36,187.36,0,0,1-8.85-21c-1.6-4.3-3.25-8.73-5.09-13l4.57-1.92c1.88,4.41,3.56,8.9,5.18,13.25a179.51,179.51,0,0,0,8.6,20.48Z"/><path class="cls-3" d="M292.33,288.47c-4.65-11.1-10.16-22.88-15.49-34.27l-1.25-2.68,4.5-2.08,1.25,2.69c5.35,11.43,10.88,23.26,15.57,34.45Z"/><path class="cls-3" d="M321.55,286l-4.87-.91c1.79-9.56-.64-17.91-7.44-25.5l3.71-3.28C320.73,265,323.62,275,321.55,286Z"/><path class="cls-3" d="M209.41,372.63A185.4,185.4,0,0,0,193,333.09l4.35-2.39a190.93,190.93,0,0,1,16.87,40.6Z"/><path class="cls-3" d="M252.44,365.34c-2.44-8.26-8.17-23.11-19-29.71l2.59-4.2C247.67,338.52,254,353,257.21,364Z"/><path class="cls-3" d="M283.41,367.52c-6.67-7.66-10.82-18-15.21-29-1.55-3.88-3.16-7.9-4.89-11.81l4.54-2c1.77,4,3.4,8,5,12,4.23,10.58,8.22,20.57,14.34,27.6Z"/><path class="cls-3" d="M319.76,362.21c-4.37-11.82-10.09-25.39-19.4-36.44l3.81-3.15c9.79,11.62,15.73,25.68,20.25,37.9Z"/><path class="cls-3" d="M355.16,359.74l-5-.29c.61-10.46-3.36-19.1-7.58-28.25a148,148,0,0,1-5.77-13.77l4.69-1.6a144.07,144.07,0,0,0,5.6,13.33C351.61,338.87,355.84,348.05,355.16,359.74Z"/><path class="cls-3" d="M238.17,458.23l-4.88-.9c3-16.1-7-27.74-15.87-34.66l3.06-3.88C234.79,429.93,240.91,443.56,238.17,458.23Z"/><path class="cls-3" d="M270.77,442.14c-.57-1.28-1.14-2.56-1.7-3.85-4.66-10.57-9.47-21.5-17.72-29.54l3.47-3.52c8.94,8.71,13.95,20.09,18.79,31.09l1.69,3.82Z"/><path class="cls-3" d="M298.35,433.41c-1-11.12-6.47-22.06-11.78-32.63-.57-1.15-1.14-2.28-1.71-3.41l4.45-2.18,1.7,3.39c5.52,11,11.22,22.35,12.29,34.4Z"/><path class="cls-3" d="M342.51,434.14c-9.26-4.51-14.31-14.05-19.19-23.27-1.59-3-3.23-6.1-5-8.9l4.23-2.57c1.82,2.94,3.5,6.11,5.12,9.18,4.72,8.91,9.18,17.34,17,21.14Z"/><path class="cls-3" d="M371.74,434.06c-5-13.23-10.45-23.13-16.6-30.27l3.78-3.2c6.53,7.59,12.24,18,17.46,31.73Z"/><path class="cls-3" d="M394.25,420.68A47.8,47.8,0,0,1,382.2,401l4.74-1.47a42.94,42.94,0,0,0,10.83,17.65Z"/><path class="cls-1" d="M222.38,263.34c1-24.1,1.52-68.17,4.55-99.33,7.53-.35,19.41,1.15,26.37,4.12.31,31.89-2.18,64.32-3.5,96.34Z"/><path class="cls-3" d="M248.34,747.93q7.49,1.53,14.9,3.37c3.9-41.82,10.21-129-16.07-121.54C215,638.94,221.88,702.85,220.62,743,229.86,744.37,239.11,746.05,248.34,747.93Z"/><path class="cls-1" d="M248.34,747.93q5,1,9.89,2.17c2.72-25.66,6-54,2.8-78.38-2.59-19.9-22.75-46.31-30.09-10.33,0,0-4.51,50-6.19,82.22Q236.56,745.52,248.34,747.93Z"/><path class="cls-4" d="M235.92,696.85l-.83-1-2.26,1.92.84,1a11.25,11.25,0,0,1,2.24,10.86l-.35,1.22,2.87.8.34-1.22A14.06,14.06,0,0,0,235.92,696.85Z"/><path class="cls-2" d="M163.39,477.44c-.48,12.22-2.24,24.39-3.19,32-5.59.25-11.19.17-16.78,0l-2.88-.09c-7.18-.23-14.36-.54-21.54-.38a8.29,8.29,0,0,0-4.78,1.65c.25-10.81.47-25.56,3-39,.18-.94.37-1.88.57-2.81,3.29-15.13,9.82-28.11,23.12-31.18a21.44,21.44,0,0,1,5.42-.61,14.46,14.46,0,0,1,2.86.33c12,2.57,14.66,19.61,14.27,37.29Q163.45,476,163.39,477.44Z"/><path class="cls-3" d="M149.21,437.3c-.59,12.14-1.34,24.13-2.23,35.89-.06.95-.14,1.9-.21,2.85-.42,5.44-.88,10.84-1.36,16.17-.27,3-.73,6.79-1.22,10.79-.26,2.1-.52,4.27-.77,6.42l-2.88-.09c.26-2.23.53-4.49.8-6.67.48-4,.94-7.73,1.21-10.71q.73-8.07,1.37-16.32l.21-2.85c.89-11.73,1.63-23.7,2.22-35.81A14.46,14.46,0,0,1,149.21,437.3Z"/><path class="cls-3" d="M163.39,477.44c-1,0-2,0-3-.07-4.21-.17-8.82-.67-13.61-1.33l-2.85-.41c-3.57-.52-7.2-1.11-10.8-1.69-5.62-.91-11-1.79-15.88-2.37.18-.94.37-1.88.57-2.81,4.84.59,10.21,1.46,15.77,2.36,3.52.57,7.07,1.15,10.55,1.66l2.85.41a122.79,122.79,0,0,0,16.5,1.4Q163.45,476,163.39,477.44Z"/><path class="cls-1" d="M157,619.54c-.19-2.18-.48-4.35-.85-6.46-12.71-.11-25.44-.17-38-1.56-.95,3.25-1.78,6.69-2.51,10.21-.17.83-.34,1.66-.5,2.5a271.55,271.55,0,0,0-3.74,29.3l2.28-.13c5.2-.3,10.39-.52,15.59-.69l2.88-.09c7.11-.21,14.22-.34,21.34-.47.16-.37.31-.76.47-1.17,2.53-6.44,3.93-17.5,3.3-28.55C157.18,621.47,157.11,620.5,157,619.54Z"/><path class="cls-3" d="M132.2,626c0-.79,0-1.58.05-2.37.1-3.68.26-7.34.51-11l-2.87-.14c-.26,3.67-.42,7.37-.52,11.09h0c0,.79,0,1.58-.05,2.37-.12,5.84-.1,11.71-.08,17.51,0,3.16,0,6.24,0,9.27l2.88-.09c0-3,0-6.06,0-9.18C132.1,637.63,132.08,631.78,132.2,626Z"/><path class="cls-3" d="M157.24,622.43c-4.87,2.16-12.91,3-18.15,3.3-2.08.13-4.45.21-6.89.22-.95,0-1.92,0-2.88,0l-2.54-.07c-4.59-.19-8.94-.69-11.66-1.63.16-.84.33-1.67.5-2.5.65.41,2.81,1.1,7.6,1.52,1.88.17,4,.27,6.15.31h0c.95,0,1.91,0,2.88,0,2.15,0,4.34-.09,6.48-.22,8.92-.54,15.74-2,18.29-3.82C157.11,620.5,157.18,621.47,157.24,622.43Z"/><path class="cls-1" d="M278.08,583c-8.72-.79-16.56.18-24.51,1-1,.09-1.91.19-2.87.27a93.47,93.47,0,0,1-17.12.22c-.18-11.18-.69-25.59-1.18-37.7h0c0-1-.08-2-.12-3-.51-12.12-.95-21.27-.95-21.27-1.21-13.15,7.77-20.33,17.82-21.28a25,25,0,0,1,2.87-.1c7.25.16,14.59,3.49,18.74,10.09,4.94,7.86,3.79,21,4.28,31q.07,1.53.21,2.94c0,.32.07.64.1,1C276.81,558.08,280.57,571,278.08,583Z"/><path class="cls-2" d="M253.57,583.92c-1,.09-1.91.19-2.87.27-.2-3.45-.07-7.8.14-12.89.11-2.58.21-5,.21-7,0-5.36-.16-10.75-.37-16.1l-.12-2.85c-.15-3.36-.32-6.7-.48-10-.56-11.16-1.13-22.64-.93-34.18a25,25,0,0,1,2.87-.1c-.2,11.49.37,23,.93,34.14.17,3.32.33,6.68.48,10.06l.12,2.85c.22,5.36.37,10.78.37,16.18,0,2.05-.1,4.52-.21,7.13-.17,4.1-.36,8.75-.15,12.45A.09.09,0,0,0,253.57,583.92Z"/><path class="cls-2" d="M275.25,545.09c-5.39,1.68-13.7,2.62-20.53,3l-1.17.06c-1,0-1.93.07-2.87.08-2.44,0-4.76,0-6.94-.06a56.78,56.78,0,0,1-11.34-1.42h0c0-1-.08-2-.12-3,4.16,1.3,11.06,1.78,18.28,1.63.95,0,1.91,0,2.87-.08,8.45-.35,16.9-1.49,21.61-3.11Q275.11,543.68,275.25,545.09Z"/><path class="cls-3" d="M322.83,553.61c-.07.11-4.79,91-1,135.73,2.41,28.15,6.1,55.75,7.5,83.89,2.21.74,4.42,1.46,6.64,2.14l4.82.81c10.81-2.3,21.48-5.51,32.05-8.3,9.25-2.45,18.68-4.39,28.18-6-1.65-11.33-4.21-22.68-4.83-34-1.45-26.19,1.5-52.63,2.32-78.84,1-30.4-2.61-62.31-3.47-93.38,14.62.14,28.79,0,40-.58,36.27-1.94,79.24,0,116.12-.56-.86-3.23-44.06-95.13-44.06-95.13s-94.17-3.57-110.3,5.25C383,472.2,371,492.78,360.53,503.48c-14.65,14.94-45.22,49.46-45.53,49.75C316.12,553.41,322.76,553.67,322.83,553.61Z"/><path class="cls-2" d="M395.09,689c1.23,24.47,1.18,49.11,1.53,73.65,13.47-2.47,27.12-4.22,40.65-5.77a980,980,0,0,1,101.89-6.37c-.83-30.29-4.52-60.69-4.93-90.84-.5-36.52,6.22-72.7,6.24-108.95-.65-.06-25.89-80-40.6-88.41-8.82,11.84-68.16,71.16-89.17,88.12-6.75.76-13.38,1.68-19.84,2.78,3.66,18.13,0,46.29,1.18,62.51C393.82,640.13,393.85,664.61,395.09,689Z"/><path class="cls-1" d="M437.8,609.86c-.08-.5-.16-1-.25-1.49-1.42-8-3.54-15.9-4.27-23.91-1.81,0-3.62,0-5.43-.08l-.54.28-.26,6.35c-.25,6.1-.61,12.23-.95,18.37Z"/><path class="cls-1" d="M438.22,612.52,426,612c-.52,9.75-.94,19.5-.68,29.16,5,.32,10.12.57,15.2.72,0-.75,0-1.51-.07-2.26A247.15,247.15,0,0,0,438.22,612.52Z"/><path class="cls-1" d="M441.12,610l6,.24c-.54-8.85-1.24-17.7-1.29-26.61l-2.18.22c-2.33.21-4.72.4-7.13.51a103.1,103.1,0,0,0,1.72,11.1C439.24,600.3,440.35,605.13,441.12,610Z"/><path class="cls-1" d="M441.51,612.65c.6,4.46.95,9,1.33,13.41.46,5.3.78,10.61.93,15.92l3.28,0a174.12,174.12,0,0,0,.26-29.14Z"/><path class="cls-4" d="M502.48,751.57q.15-2.93.27-5.86c.54-13,8.24-54-5.19-64.13-19.67-14.85-26,9.77-26.59,20.66-.49,9.32,1.63,32.06,1.35,51.25Q487.41,752.31,502.48,751.57Z"/><path class="cls-1" d="M490.28,606.37c.36-5,.79-10.16.68-15.26-5.7.12-11.22.2-11.22.2s.1,6.81.37,15.34C483.5,606.6,486.89,606.47,490.28,606.37Z"/><path class="cls-1" d="M489.76,621.32c0-4.1.1-8.2.35-12.31-3.3.1-6.61.23-9.92.28.14,4.12.32,8.51.54,12.65C483.73,621.81,486.74,621.58,489.76,621.32Z"/><path class="cls-1" d="M480.87,624.55c.32,5.38.72,10.12,1.22,13l8.18.07c-.27-4.57-.45-9.13-.5-13.69C486.8,624.17,483.83,624.41,480.87,624.55Z"/><path class="cls-1" d="M493.65,606.28h.52c3-.06,6.24-.14,9.53,0-.82-8.25-1.65-14.77-1.79-15.48-1.69.09-4.61.19-7.8.27,0,1,0,1.92,0,2.88C494.09,598.05,493.88,602.16,493.65,606.28Z"/><path class="cls-1" d="M493,623.61c0,.74,0,1.47,0,2.2.08,3.94.3,7.87.57,11.8l11.69.06a135.08,135.08,0,0,0-.22-14.9C501,622.9,497,623.25,493,623.61Z"/><path class="cls-1" d="M504.87,620.2c-.25-3.76-.57-7.6-.91-11.21-3.48-.18-7-.15-10.46-.07-.23,4-.45,8.07-.51,12.11C497,620.68,500.92,620.35,504.87,620.2Z"/><path class="cls-1" d="M531.59,541.43c0-.38.64-.76,1.24-.38.53-.3.06-1.54-.49-2.22,0,.17,0,.32-.54.57.22.2,1.31.43.86.8-.74.22-.64-.11-1-.3.35.46-.91.73-.68,1.42l.64-.27C531.62,541.15,531.4,541.34,531.59,541.43Z"/><path class="cls-1" d="M533.44,538.83l.23-.06a2.11,2.11,0,0,1-.86-.48c-.38.2-.45.35-.46.47h1.16Z"/><path class="cls-1" d="M534.91,539.25c-.12,0-.1,0,0-.09l-.18-.33c-.19.35-.62.55-.27.95.46,0,.51-.19.61-.34Z"/><polygon class="cls-1" points="532.16 538.56 532.25 538.12 531.76 538.76 532.16 538.56"/><polygon class="cls-1" points="530.96 538.66 530.97 538.28 530.67 538.52 530.96 538.66"/><path class="cls-1" d="M463.13,546.1l-.26.11A.81.81,0,0,0,463.13,546.1Z"/><path class="cls-1" d="M465.11,546l0-.19C465.06,546,465,546,465.11,546Z"/><path class="cls-1" d="M501.27,539.89c-.43-.34-.92-.87-.84-.44l.16.41A.92.92,0,0,1,501.27,539.89Z"/><path class="cls-1" d="M481.14,543.19l.13.12.24-.41Z"/><path class="cls-1" d="M481,544.92l-.55-.25A2,2,0,0,0,481,544.92Z"/><path class="cls-1" d="M452.36,547l-.28.43C452.58,547.38,452.34,547.18,452.36,547Z"/><path class="cls-1" d="M518.59,539.31a2.55,2.55,0,0,0-.88-.22C518.14,539.32,518.51,539.66,518.59,539.31Z"/><path class="cls-1" d="M463.53,541.65c-.16.09-.22.17-.21.27C463.49,541.84,463.58,541.75,463.53,541.65Z"/><path class="cls-1" d="M516.72,539.13l.19.1a2.2,2.2,0,0,1,.8-.14A.8.8,0,0,0,516.72,539.13Z"/><path class="cls-1" d="M526.08,538.67c.25,0,0,0,0,0Z"/><path class="cls-1" d="M527.47,540.27a.27.27,0,0,0-.09.2A.27.27,0,0,1,527.47,540.27Z"/><path class="cls-1" d="M514.38,541.82h0C514.45,541.9,514.43,541.89,514.38,541.82Z"/><path class="cls-1" d="M526.48,538.85a1.13,1.13,0,0,0-.34-.11A2.23,2.23,0,0,0,526.48,538.85Z"/><path class="cls-1" d="M526.41,538.65l.23,0C526.67,538.61,526.63,538.57,526.41,538.65Z"/><path class="cls-1" d="M525.72,538.71a1.44,1.44,0,0,1,.42,0s-.07,0-.06-.07Z"/><path class="cls-1" d="M434,546.24l-.06,0C433.74,546.39,433.85,546.35,434,546.24Z"/><path class="cls-1" d="M495,544.48l0,0h0Z"/><path class="cls-1" d="M494.07,544.82c.35-.53.57-.48.88-.38l-.41-1.19Z"/><path class="cls-1" d="M530.42,539c-.38-.57-.16.07-.73-.59.52.83-1.83,0-1.05.9-.58-.77-.93-.3-1.67-.94,0,.19.28.36-.33.29a.66.66,0,0,1-.12.17h0l0,0s0,0,0,0a.78.78,0,0,1,.33.28c-.26.46-1.22.48-1.52.72-.36-.07.13-.22-.08-.42l-.45.36c-.09-.43-1-.68-.19-1h-.76a1.78,1.78,0,0,0-1.45-.1c-.36-.08-.86.51-.57.16l-1.17.32,0-.11c-1.17,0-2.34.81-3.74.09a2.83,2.83,0,0,1-1.45.17l-.16-.36c-.49.15-1.55-.32-1.73.08-.63-1-2.47-.12-3.38-.26v.49a6.14,6.14,0,0,0-1.93.38l.09.43c-.63.37-1.71-.24-2.74-.16.05-.16.32-.13.51,0-1.32-.92-2.55.81-3.73.15a.62.62,0,0,1-.68,0l.07,0h-.11l-.41-.22a1.38,1.38,0,0,0,.34.22,3.33,3.33,0,0,0-.84.2l-.18-.45h-.07c-.33-.15-.24.23,0,.57a1.5,1.5,0,0,0-.4.3c-.32-.74-.82.28-1.23-.5-.17.37-1.39.36-1.65,1a1.14,1.14,0,0,0-1,.09l-.2-.58-.71.82c-.51-.34-.72-.54-.29-1-1.08.74-.9.3-1.81,1l0-.38c-.35,0-.85.56-1.09.26-.83-.69-3.83,0-5.87-.54.48,1.1-1-.46-1,.4-.14-.25-.43-.39-.13-.63-1,.29-1.55-.36-2.19.39-.14-.26.19-.39.07-.54-.08.06-.3.24-.42.08s.13-.22.28-.34c-1,.08-1.07.9-1.08,1.67-.55-.34-.81-.28-1.14.23-.21-.24-.53-.49.1-.6-.36,0-2.24-.28-2.22.33-.13-.15-.51,0-.6.05a10.4,10.4,0,0,0-1.68,0l.23.09c-.25.75-.65.19-1.29.3l0-.07c-1.52-.48-.62.28-2.12-.27l.12.45c0,1-1.34-.53-2.15-.12l.33.25c-.43.36-1.4-1.29-1.88-1.39-.11-.09.15-.15.29-.22-1.26-.53-.11.61-1,.79-.19-.32.14-.84-.47-.87-.32-.25-1.67,1.12-2.55.53.2.24.41.49,0,.69-.63.12-1.81-.87-2.33-.06a.34.34,0,0,1-.13-.19c-.47.22-1.56.4-1.82.84-.59-1.57-3,.89-3.1-.57l-1.5.14,0-.16a1.62,1.62,0,0,0-1.59.68c-.23-.1-.08-.24-.07-.32a2.6,2.6,0,0,0-2.69.61l-.16-.47c-.3.29-2.11-.66-3.44,0a.31.31,0,0,1,.13-.22c-1.51.62-3.83-1.17-4.26.58l-1,.47c1.34.08-.13.76.44,1-.51.12-1.39-.47-.76-.58l.11.08c.16-.91-1.68-.25-1.7-.87-2.61.15-5.2-.24-7.65-.19l.34.69h-.85c-.24-.16-.35-.54.26-.53-.35-.39-1,.37-1,.52-1.21-.23.4-.83,0-.83l-.49.07.12.08c-.38.3-.39.6-1.13.6-.47-.12-.27-.43-.45-.44,0-.06-.07-.08-.29,0l-1.08,0,.48.53c-.45.3-1,0-.46.62-.82-.93-4-.18-4.52-.46a3.38,3.38,0,0,1-2.11.43c.21.11.38.72-.33.67.15-1.29-1.34-.5-2-1.4.56.59-2,.23-1.12,1.07-.6-.08-.08-.48-.55-.77a7.26,7.26,0,0,1-3.29,0q-1.53,1.85-3,3.71a.78.78,0,0,1,.69.62c-.11,0-.29.08-.4.1.55.29,1.43-.11,1.72-.09l-.6-.13c1.78-.34,4-.06,5.7-.7l-.15-.21c1.29-.45,1.08.19,2.52,0l0,0a1.62,1.62,0,0,1,1.05-.34c-.35.27.74.46.28.76,1.4-.48.68-.36,1.56-1.2l.25.35a1.25,1.25,0,0,1,1-.63c-.57.33.51.53-.12,1,1.59.71,2.2-.88,3,.23.62-1-1.37-.49-1-.72-.35-.31.52-.76,1-.68s.94,1.23,2.16,1.16c-.12,0-.12.07-.24.07.48.24.87-.37,1.47,0,.26-.61.73,0,.76-.75l-1.11.22c.62-.23,1.14-1.14,2.23-.75a1.76,1.76,0,0,1-.57.49c.32.21.58-.17.92,0,0,.77-1.36.22-2,.83.35.31,1.24-.6,1,.23.41-1.06,1.22.09,2-.74v.45c.12-.07.38-.3.62-.3l-.39.61c.63-.53,1.34.39,2,.09-1.35.07-.35-.54-1-.85,1.58-.66,1.09,1.07,2.8.87-.3,0-.82-.27-.49-.47a2.51,2.51,0,0,1,1.09.47c1.23-.15-.23-.46.27-.77.47.54.59-.24,1.12-.44l0,.46c1.44.24.29-1,1.59-.67l-.48.66.65-.19-.09.53a1.77,1.77,0,0,1,1.63-.21c-.19-.32,0-.84.65-.88.45.26-.2.45.68.35-.18.29-.37.67-.79.26,0,.15-.17.29-.2.44.49.3,1.16,0,1.48,0a.83.83,0,0,1-.36-.09l1.23-.69c.22.16.07.31-.08.45.26-.06.42-.28.8-.33-.07.38,0,.76-.54,1l1.19-.46c.1.16.67.42.52.56.7.2,1.6-.79,2.52-.54a.57.57,0,0,1,.32-.21c.85.05,1.64.49,2.59-.07l.63.65c.77-.18-.84-.82.44-1.12.91-.25.39.56.73.73.43-.35,1.17-1.08,2.07-.56-.27.13-.5,0-.76.1l.68.35c-.73.65-1.31.46-.66,1,0-1.31,2.51-.23,2.48-1.54l.45.26c-.12,0-.13.07-.25.06.88.59.53-1,1.62-.82.38.08.65.26.41.43l.8-.36c.21,0,.21.17.07.22l1.15-.15v0a4.64,4.64,0,0,1,.73-.68c.34.17-.15.14-.05.3l.67-.34c.31.32-.24.67-.73.64.77,1.28.56-.35,2,.36l-.64.19c.49.72,1,.43,1.77.86-.2-.23-1.6-1.1-.87-1.45a.87.87,0,0,0,.9-.16c0,.47.43.34.93.29l0,.61c.53-.19.46-.5.75-.79.61,0,.78.5.95.9,1,.06-.73-.74.41-.9a3.35,3.35,0,0,0,2.3-.47c.58.18-.07.37.15.54l.45-.51c.13,0,.1.16.09.24.4-.21,0-.62.63-.81.12-.68,1.44.93,2.19.13.22.17-.07.38,0,.62a5.93,5.93,0,0,0,1.79-1.12l.82.37c-.61-.44.08-1,.68-1.48a4.83,4.83,0,0,0-.54-.49l1-.37c.13.09,0,.31-.1.57l.17-.15c.39.21.23.57,0,.92l-.4-.36a1.77,1.77,0,0,0-.34,1.16.69.69,0,0,1,.32-.18c-.06.1-.09.2-.05.26s.13-.08.29-.24l.29.67,0-.27,1.39.37c.9-.73,1.66-1.77,3.16-2.12-.33.52,0,.83,0,1.42-.47-.61-1.16.31-2,.22.42,0,.36.34.26.44l1.37-.63c0,.49.33.35.72.54-.37-1,1-.68,1.55-1,.06.32-.05.65-.76.6.84.7.91-1.16,1.72-.58-.17,0-.27,0-.32.14.37-.31,1.37-.12,1.17.17l-.17,0c1.14.06,3.46-.14,3.56-1a6.18,6.18,0,0,1-.12,1.16l1.8-2.82c-.12.7.71,2.34-.2,2.77a1.38,1.38,0,0,0,1.18-.07c-.2-.1-.55-1-.3-1.07.76.75.51.4,1.42,1-.29-.14-.07-1.25.37-1.23-.05.16.13,1.08,0,1.2l1-1.12c-.26.2,0,.91.3,1.21-.13-.21.94,0,1.22-.14l-.48-.23c1.25.11,1.09-1.57,2.31-1.56-.13.23-.25,1.39.39,1.5.24-.57,1-2.71,2.08-3.18l.23.31.8-.39a19,19,0,0,1-2.48,3.37c.48.23.16.36.85.31.27.28-.34.46-.54.49l1.62.12c-.13-.64,1.17-.69,1.07-1.23l-1.69.74c-.13-.64.85-1.87,2-1.8.31.25-.12,1.16-.08,1.37.13-.23,1.05-.47,1.17-.31l-.46.36c.66.22,1-.9,1.78-.31.26,0,.85.8.87.41a6.24,6.24,0,0,1-.53-3.55,9.49,9.49,0,0,1,1.77,1c.48.56-.54,1.4-.12,1.88,0-.18.22-.4.31-.48.29.14-.07.55.53.45,0-.66,1.22,0,.23-.56.57-.21.64.11,1.32,0-.25-.41.5-1.46,1.07-1.67a.78.78,0,0,0,.2.47c1.21,0,1.88.29,3,.25.12.15.68.32.47.61.15-.12.28-.35.63-.38.72.54-.77.12-.2.78,0-.38.85-.56,1.32-.82-.2-.58-1.14-.07-1.62.19-.07-.81.72-1.69,1.86-2.11.91-.24.45.51.6.39,1.76.07,1.37-1.47,2.87-1,.62.49.12,1,.28,1.39-.75.23-1.2-.28-1.71-.24l.65.22a1.14,1.14,0,0,1-1,.19c.53.45,3,0,4.35.35.23-.19.63-.38.41-.58l-.42.09c-.42-.4.76-.61.2-.78a2.57,2.57,0,0,1,2-.6l.2.58c0-.17-.56-.32-.77-.14.32-.27,1.31.75,1.61,0l-.6-.38C529,539.52,529.69,538.87,530.42,539ZM431,543.24l.18.11C430.84,543.5,430.94,543.38,431,543.24Zm36.33,2.63c.16-.54.35-.29.68-.15C467.86,545.82,467.52,546.14,467.36,545.87ZM482,543.94a.89.89,0,0,1,.6.08C482.52,544.18,482.29,544.11,482,543.94Zm15.16-2.69a1,1,0,0,0,0,.17C497.14,541.32,497.05,541.27,497.2,541.25Zm26.08-2.06c-.43-.17-.28-.1,0,0Z"/><path class="cls-1" d="M481,544.72a.6.6,0,0,1-.1-.25C480.86,544.55,480.87,544.64,481,544.72Z"/><path class="cls-1" d="M452.41,546.89h0a.29.29,0,0,0,0,.09Z"/><path class="cls-1" d="M511.08,543.79a.72.72,0,0,1-.36-.23C510.72,543.67,510.8,543.77,511.08,543.79Z"/><path class="cls-1" d="M528.72,538.36l-.55.14a.78.78,0,0,1,.51.13C528.66,538.53,528.54,538.37,528.72,538.36Z"/><path class="cls-1" d="M533.78,541c.08-.06.17,0,.25-.08l0-.21C533.64,540.77,533.42,541,533.78,541Z"/><path class="cls-1" d="M529.36,539.87c.08.39.42.25.8.16h-.07C530.16,539.48,529.76,539.68,529.36,539.87Z"/><path class="cls-1" d="M530.25,540a1.09,1.09,0,0,1,.36,0C530.63,539.77,530.46,540,530.25,540Z"/><path class="cls-1" d="M525.26,539c.2.09.08-.5.19-.35C525.62,538.18,524.27,539.33,525.26,539Z"/><polygon class="cls-1" points="529.78 541.14 529.61 540.67 529.42 541.06 529.78 541.14"/><path class="cls-1" d="M526.68,540.91l.63.11c0-.08.06-.13.16-.17C527.08,540.85,526.65,540.77,526.68,540.91Z"/><path class="cls-1" d="M527.47,540.85a.85.85,0,0,0,.49-.1A2,2,0,0,0,527.47,540.85Z"/><polygon class="cls-1" points="528.95 541.32 528.75 541.23 528.31 541.21 528.95 541.32"/><path class="cls-1" d="M520,541.09l-.67.16c-.06.17.14.26.39.19S520.1,541.24,520,541.09Z"/><path class="cls-1" d="M522.15,542.32c-.19-.09-.21-.2-.33-.35l0,.59Z"/><path class="cls-1" d="M520.18,542.54c0,.17-.94.51-.08.44C520.15,542.81,520.82,542.65,520.18,542.54Z"/><polygon class="cls-1" points="509.89 542.2 510.06 542.18 509.96 541.21 509.89 542.2"/><path class="cls-1" d="M501.08,544.89c.82.2.14-.61.89-.35.17-.23-.62-.21-.44-.42C501.06,544.39,500.8,544.26,501.08,544.89Z"/><path class="cls-1" d="M501.53,544.12a1.38,1.38,0,0,0,.23-.16A.93.93,0,0,0,501.53,544.12Z"/><path class="cls-1" d="M469.59,546.91l0-.15c-.09-.16-.21-.16-.46-.18Z"/><polygon class="cls-1" points="462.53 546.73 462.65 546.74 462.38 546.18 462.53 546.73"/><path class="cls-1" d="M456.71,547.68c.24,0,.51-.12.75-.11C457,547.7,456.58,547,456.71,547.68Z"/><path class="cls-1" d="M474.81,539.05l-.28.11A1.15,1.15,0,0,0,474.81,539.05Z"/><path class="cls-1" d="M476.83,539l0-.19C476.79,538.94,476.75,539,476.83,539Z"/><path class="cls-1" d="M514.21,534c-.42-.35-.89-.9-.83-.48l.13.42A1,1,0,0,1,514.21,534Z"/><path class="cls-1" d="M493.36,536.54l.13.13c.09-.15.18-.28.26-.4Z"/><path class="cls-1" d="M493.15,538.27l-.55-.26A1.89,1.89,0,0,0,493.15,538.27Z"/><path class="cls-1" d="M463.77,539.79l-.3.43C464,540.2,463.74,540,463.77,539.79Z"/><path class="cls-1" d="M532,534.21a2.64,2.64,0,0,0-.88-.26C531.59,534.2,531.93,534.56,532,534.21Z"/><path class="cls-1" d="M475.34,534.61c-.16.08-.23.17-.22.26C475.29,534.79,475.39,534.71,475.34,534.61Z"/><path class="cls-1" d="M530.14,533.94l.18.1a2.26,2.26,0,0,1,.84-.09A.84.84,0,0,0,530.14,533.94Z"/><path class="cls-1" d="M527.52,536.5h0C527.58,536.58,527.56,536.56,527.52,536.5Z"/><path class="cls-1" d="M445,539l-.06,0C444.71,539.16,444.83,539.12,445,539Z"/><path class="cls-1" d="M507.45,538.28l0,0h0Z"/><path class="cls-1" d="M506.51,538.59c.39-.52.62-.45.93-.34l-.35-1.2Z"/><path class="cls-1" d="M419,540.59l-.64.5.88.08-.2-.45a1.57,1.57,0,0,1,.77.28C420.13,540.46,419.29,540.74,419,540.59Z"/><path class="cls-1" d="M531.16,537.31c0-.72.68-1.45,1.68-1.86l-.57-1.08a2.94,2.94,0,0,1-1.95-.33,3,3,0,0,1-1.5.1l-.13-.37c-.52.12-1.57-.39-1.79,0-.57-1-2.53-.25-3.44-.43l0,.49a7.07,7.07,0,0,0-2,.29l.06.43c-.67.35-1.74-.31-2.8-.28.07-.16.34-.12.53,0-1.29-1-2.68.69-3.84,0a.67.67,0,0,1-.7,0s.05,0,.07,0h-.12c-.13-.08-.26-.16-.4-.23a1.45,1.45,0,0,0,.34.23,3.5,3.5,0,0,0-.89.17l-.15-.46h-.07c-.33-.17-.26.22-.08.57a1.6,1.6,0,0,0-.43.28c-.28-.75-.86.25-1.23-.55-.2.36-1.45.31-1.76.94a1.21,1.21,0,0,0-1.05.05l-.17-.59-.78.79c-.5-.35-.71-.56-.24-1-1.15.69-.94.26-1.91,1l0-.38c-.36,0-.91.53-1.14.21-.81-.71-3.93-.07-6-.73.44,1.12-1-.49-1,.37-.13-.26-.42-.41-.1-.64-1,.27-1.58-.41-2.27.33-.13-.26.21-.39.09-.55-.08.06-.32.24-.43.08s.14-.22.3-.34c-1.06.06-1.14.88-1.18,1.64-.56-.35-.82-.3-1.19.21-.2-.25-.52-.51.13-.61-.37,0-2.28-.33-2.29.28-.13-.16-.53,0-.62,0a11.12,11.12,0,0,0-1.73,0l.23.1c-.29.74-.67.17-1.33.27l0-.08c-1.54-.51-.64.26-2.16-.32l.1.46c-.09,1-1.35-.56-2.2-.16l.33.25c-.46.35-1.39-1.32-1.88-1.43-.11-.08.16-.14.3-.21-1.28-.56-.13.61-1.05.77-.19-.33.18-.84-.45-.88-.33-.26-1.76,1.09-2.64.48.2.25.4.49,0,.69-.65.1-1.84-.91-2.39-.11a.27.27,0,0,1-.13-.19c-.49.22-1.62.38-1.9.82-.56-1.58-3.09.85-3.17-.62l-1.54.12,0-.15a1.71,1.71,0,0,0-1.66.65c-.23-.09-.07-.24-.06-.31a2.69,2.69,0,0,0-2.77.58l-.16-.47c-.31.29-2.15-.68-3.53-.08a.31.31,0,0,1,.14-.22c-1.56.61-3.93-1.2-4.38.56l-1,.46c1.38.09-.14.76.44,1-.52.12-1.42-.47-.77-.58l.11.08c.17-.91-1.72-.26-1.73-.87-2.68.15-5.34-.27-7.86-.19l.35.69h-.88c-.25-.15-.36-.54.27-.53-.37-.39-1,.38-1,.53-1.26-.23.4-.84,0-.84l-.5.07.12.08c-.39.31-.4.61-1.15.61-.49-.12-.29-.42-.48-.44,0-.05-.06-.07-.28,0h-1.12l.5.53c-.47.3-1,0-.48.63-.83-.94-4.15-.17-4.63-.44a3.58,3.58,0,0,1-2.17.46c.22.1.41.72-.32.68.13-1.3-1.38-.49-2.06-1.38.58.58-2,.25-1.13,1.08-.61-.08-.09-.48-.58-.76-1.38.57-3.19-.16-4.95.11,0,.17.32.41,0,.69l-.92-.71-.4.33c-.06.11-.13.2-.25.2q-2,1.62-4,3.19c.89.51,2.9-.26,3.36.67.67,0-.26-.52.42-.55l.21.27.13-.37a.81.81,0,0,1,.75.62c-.11,0-.29.08-.41.11.57.28,1.47-.14,1.76-.12l-.61-.13c1.81-.37,4.09-.12,5.81-.79l-.16-.2c1.32-.47,1.11.18,2.59-.08l-.05,0a1.72,1.72,0,0,1,1.07-.35c-.35.27.76.45.29.75,1.43-.5.7-.37,1.59-1.21l.26.34a1.28,1.28,0,0,1,1.05-.64c-.58.34.53.52-.12,1,1.64.7,2.25-.89,3.08.21.62-1-1.41-.48-1-.71-.36-.31.53-.76,1-.68s1,1.22,2.22,1.14c-.13,0-.13.08-.25.08.49.23.89-.38,1.5,0,.27-.61.75,0,.78-.76l-1.14.22c.64-.22,1.17-1.14,2.29-.75a1.86,1.86,0,0,1-.59.49c.34.21.6-.18.94,0,0,.76-1.38.23-2,.84.36.3,1.27-.61,1,.22.42-1.06,1.25.08,2-.75v.45c.13-.07.39-.3.63-.3l-.39.61c.64-.53,1.36.39,2,.09-1.38.07-.36-.54-1-.85,1.62-.66,1.11,1.07,2.86.87-.31,0-.83-.27-.49-.47a2.56,2.56,0,0,1,1.1.47c1.26-.14-.23-.46.29-.76.47.54.6-.25,1.14-.45l0,.46c1.47.24.31-1,1.64-.67l-.5.67.66-.2-.1.54a1.88,1.88,0,0,1,1.68-.21c-.19-.32,0-.84.67-.88.45.26-.21.45.69.35-.18.3-.38.67-.81.26,0,.15-.18.29-.21.44.5.3,1.19,0,1.52,0a.84.84,0,0,1-.37-.09l1.27-.69c.22.17.06.31-.09.46.26-.06.43-.28.82-.33-.07.38,0,.76-.56,1l1.22-.46c.1.16.68.43.52.57.71.2,1.65-.78,2.59-.52a.49.49,0,0,1,.33-.2c.87,0,1.66.49,2.65-.06l.63.66c.79-.17-.84-.83.48-1.12.93-.24.39.57.73.75.45-.35,1.22-1.06,2.13-.54-.28.14-.51,0-.78.1l.69.36c-.76.63-1.36.43-.7.94,0-1.3,2.56-.19,2.57-1.5l.46.26c-.13,0-.14.07-.27.06.89.6.58-.95,1.68-.8.39.09.67.27.42.44l.83-.35c.2,0,.2.18.06.22l1.18-.12v0a6,6,0,0,1,.78-.67c.34.19-.16.15-.07.31l.7-.33c.31.33-.26.67-.76.63.74,1.29.58-.34,2.06.39l-.66.18c.47.73,1,.45,1.78.9-.2-.24-1.6-1.13-.84-1.47a.93.93,0,0,0,.93-.14c0,.47.43.34.94.31v.61c.54-.19.48-.5.8-.78.62.05.77.52.94.92,1,.08-.73-.75.44-.89a3.44,3.44,0,0,0,2.37-.43c.59.21-.08.38.13.55l.49-.49c.13,0,.09.16.08.24.42-.2,0-.62.67-.79.16-.68,1.44,1,2.25.19.21.17-.09.38,0,.61a6.12,6.12,0,0,0,1.88-1.07l.83.4c-.62-.46.12-1,.76-1.47a5.26,5.26,0,0,0-.53-.5l1.05-.34c.13.09,0,.31-.13.57l.19-.15c.38.22.2.57-.06.92l-.39-.37a1.71,1.71,0,0,0-.41,1.15.73.73,0,0,1,.34-.17c-.06.1-.1.19-.07.25s.15-.07.31-.23l.27.68.05-.27,1.4.41c1-.7,1.78-1.72,3.35-2-.38.5-.06.82-.06,1.41-.45-.62-1.21.28-2,.15.42.07.34.35.24.45l1.43-.58c0,.49.32.36.7.56-.32-1,1.06-.65,1.64-.94,0,.32-.08.65-.8.57.82.72,1-1.13,1.79-.52-.18,0-.27,0-.34.12.4-.29,1.42-.06,1.19.22h-.18c1.18.1,3.56,0,3.71-.84a5.62,5.62,0,0,1-.19,1.15l2-2.74c-.16.7.59,2.37-.37,2.76a1.44,1.44,0,0,0,1.21,0c-.2-.1-.5-1-.25-1.08.74.78.51.42,1.4,1.09-.28-.15,0-1.25.46-1.22-.07.17.06,1.09-.1,1.2l1.09-1.08c-.27.2,0,.92.23,1.22-.12-.21,1,0,1.26-.09l-.48-.25c1.27.17,1.22-1.51,2.48-1.46-.15.23-.35,1.37.29,1.51.28-.55,1.24-2.65,2.35-3.07l.22.32.85-.36a19.71,19.71,0,0,1-2.78,3.25c.47.25.14.37.84.34.26.3-.37.45-.58.47l1.65.2c-.09-.65,1.25-.64,1.18-1.18l-1.78.66c-.09-.64,1-1.82,2.17-1.7.3.26-.2,1.14-.17,1.36.14-.22,1.1-.42,1.21-.26l-.49.34c.65.25,1-.85,1.84-.23.27,0,.81.84.85.46a6,6,0,0,1-.27-3.57,8.85,8.85,0,0,1,1.74,1.08c.45.58-.66,1.37-.27,1.87,0-.18.26-.4.36-.47.28.16-.11.55.5.47.1-.65,1.25.07.29-.55.6-.18.64.15,1.34.12-.22-.42.63-1.43,1.23-1.61a.78.78,0,0,0,.17.49c1.24.07,1.9.38,3.05.4.11.16.67.36.43.63.17-.11.32-.33.67-.34.69.57-.79.08-.26.76,0-.38.92-.51,1.42-.74C532.67,536.62,531.66,537.08,531.16,537.31ZM441.93,536l.19.12C441.74,536.29,441.84,536.16,441.93,536Zm37.21,2.88c.18-.54.37-.29.7-.14C479.66,538.86,479.29,539.17,479.14,538.9Zm15.1-1.58a1,1,0,0,1,.62.09C494.72,537.57,494.5,537.49,494.24,537.32Zm15.65-2c0-.1-.11-.15.05-.16A.75.75,0,0,0,509.89,535.32Z"/><path class="cls-1" d="M493.18,538.07a.66.66,0,0,1-.1-.25C493,537.9,493,538,493.18,538.07Z"/><path class="cls-1" d="M463.82,539.71h0a.29.29,0,0,0,0,.09Z"/><path class="cls-1" d="M524,538.29a.85.85,0,0,1-.35-.24C523.62,538.16,523.7,538.26,524,538.29Z"/><path class="cls-1" d="M533.4,537.52c-.07.16-1,.46-.13.43C533.34,537.79,534,537.66,533.4,537.52Z"/><polygon class="cls-1" points="522.89 536.65 523.07 536.64 523.03 535.66 522.89 536.65"/><path class="cls-1" d="M513.67,538.94c.83.23.19-.6.94-.31.19-.23-.62-.24-.42-.44C513.7,538.43,513.43,538.3,513.67,538.94Z"/><path class="cls-1" d="M514.19,538.19a1.38,1.38,0,0,0,.25-.15A.78.78,0,0,0,514.19,538.19Z"/><path class="cls-1" d="M481.38,540l0-.16c-.09-.16-.21-.17-.46-.19Z"/><polygon class="cls-1" points="474.18 539.67 474.3 539.68 474.03 539.12 474.18 539.67"/><path class="cls-1" d="M468.2,540.54c.24,0,.52-.11.77-.1C468.44,540.56,468.08,539.84,468.2,540.54Z"/><path class="cls-1" d="M465.58,526.44l-.26.1A1.18,1.18,0,0,0,465.58,526.44Z"/><path class="cls-1" d="M467.51,526.46l.05-.19C467.47,526.38,467.44,526.45,467.51,526.46Z"/><path class="cls-1" d="M503.12,521.72c-.4-.35-.85-.9-.79-.47l.13.41A.9.9,0,0,1,503.12,521.72Z"/><path class="cls-1" d="M483.31,524.23l.11.13c.1-.14.18-.28.26-.4Z"/><path class="cls-1" d="M483.08,526l-.52-.26A1.66,1.66,0,0,0,483.08,526Z"/><path class="cls-1" d="M455,526.89l-.3.42C455.21,527.31,455,527.1,455,526.89Z"/><path class="cls-1" d="M520,521.81a2.45,2.45,0,0,0-.85-.25C519.6,521.8,519.94,522.16,520,521.81Z"/><path class="cls-1" d="M466.23,522c-.16.08-.23.16-.22.25C466.17,522.2,466.27,522.12,466.23,522Z"/><path class="cls-1" d="M518.22,521.56a.81.81,0,0,0,.18.1,2.23,2.23,0,0,1,.79-.1A.77.77,0,0,0,518.22,521.56Z"/><path class="cls-1" d="M515.79,524.16h0C515.85,524.24,515.83,524.22,515.79,524.16Z"/><path class="cls-1" d="M437.21,525.45l-.06,0C436.91,525.59,437,525.56,437.21,525.45Z"/><path class="cls-1" d="M496.7,526.05s0,0,0,0h0Z"/><path class="cls-1" d="M495.81,526.36c.37-.52.59-.45.88-.34l-.32-1.2Z"/><path class="cls-1" d="M527.17,524l-.15,0a.21.21,0,0,1,0-.35l-.43-1h0c-.2,0-.14-.12-.07-.2s0-.11-.08-.17l-.37.28c-.06-.43-.94-.71-.13-1h-.74a1.65,1.65,0,0,0-1.4-.16c-.35-.09-.87.48-.58.14l-1.15.27v-.11c-1.14-.05-2.33.72-3.66-.06a2.69,2.69,0,0,1-1.42.12l-.13-.37c-.49.13-1.5-.37-1.7,0-.56-1-2.4-.22-3.27-.39l0,.48a6.42,6.42,0,0,0-1.91.31l.06.43c-.63.35-1.65-.3-2.66-.26.06-.16.32-.12.51,0-1.24-1-2.54.71-3.65,0a.58.58,0,0,1-.66,0l.06,0h-.11l-.38-.23a1.14,1.14,0,0,0,.32.23,3.56,3.56,0,0,0-.84.17l-.14-.46-.07,0c-.31-.17-.24.21-.07.56a1.56,1.56,0,0,0-.41.28c-.27-.74-.81.25-1.18-.54-.18.36-1.36.3-1.65.94a1.12,1.12,0,0,0-1,.05l-.16-.59-.74.79c-.47-.35-.67-.56-.22-1-1.09.69-.9.26-1.82,1l0-.38c-.33,0-.86.52-1.07.21-.77-.72-3.74-.1-5.69-.76.4,1.11-.92-.5-1,.36-.12-.26-.4-.41-.09-.64-1,.26-1.49-.42-2.16.31-.12-.26.2-.38.1-.54-.08.06-.31.23-.42.07s.14-.22.3-.34c-1,.05-1.09.86-1.15,1.63-.52-.36-.77-.31-1.13.19-.18-.25-.49-.51.14-.6-.36,0-2.17-.36-2.19.25-.11-.16-.49,0-.59,0a10,10,0,0,0-1.64,0l.22.1c-.29.74-.64.17-1.27.26l0-.08c-1.45-.53-.62.26-2.05-.35l.09.46c-.11,1-1.27-.58-2.09-.2l.31.26c-.44.34-1.29-1.34-1.75-1.47-.1-.08.15-.13.29-.2-1.2-.58-.14.6-1,.75-.17-.33.19-.83-.4-.89-.3-.26-1.7,1.06-2.52.43.18.25.37.5,0,.69-.62.09-1.72-.94-2.26-.15a.24.24,0,0,1-.12-.2c-.48.21-1.55.34-1.83.77-.48-1.59-3,.78-3-.69l-1.47.08,0-.15a1.6,1.6,0,0,0-1.59.61c-.22-.1-.06-.24-.05-.31a2.51,2.51,0,0,0-2.66.5l-.13-.48c-.3.28-2-.74-3.34-.18a.29.29,0,0,1,.14-.22c-1.51.56-3.67-1.31-4.19.42l-1,.43c1.3.13-.18.75.37,1-.51.1-1.34-.52-.71-.61l.1.08c.21-.9-1.62-.31-1.6-.93a40.3,40.3,0,0,1-4.69-.3c-.94.86-1.89,1.73-2.85,2.58a1,1,0,0,1,.23.08,1.55,1.55,0,0,1-.58.46c.3.23.57-.14.89.09-.07.75-1.33.16-2,.74.33.32,1.25-.55.94.27.46-1,1.18.13,2-.67l0,.46c.13-.07.39-.29.63-.28l-.41.59c.64-.5,1.28.44,1.9.17-1.32,0-.31-.55-.88-.88,1.58-.6,1,1.11,2.68,1-.29,0-.78-.3-.45-.49a2.48,2.48,0,0,1,1,.51c1.2-.1-.2-.47.31-.75.42.56.58-.23,1.11-.4l0,.46c1.38.29.34-1,1.59-.61l-.51.64.64-.16-.12.52a1.72,1.72,0,0,1,1.61-.14c-.17-.32.07-.84.68-.85.42.27-.23.44.64.37-.19.29-.4.65-.78.23,0,.15-.19.29-.22.44.45.31,1.12.07,1.44.06a.68.68,0,0,1-.34-.11l1.23-.64c.2.17,0,.31-.1.45.25-.05.42-.26.8-.3-.09.37-.06.76-.58.94l1.18-.42c.08.16.63.45.47.59.67.22,1.61-.73,2.49-.44a.5.5,0,0,1,.32-.2c.83.08,1.57.54,2.54,0l.57.67c.76-.15-.77-.85.5-1.1.89-.22.35.57.67.76.44-.34,1.2-1,2.05-.49-.28.13-.49,0-.75.08l.64.38c-.74.61-1.3.4-.7.92.06-1.3,2.46-.13,2.51-1.43l.43.27c-.12,0-.14.06-.26,0,.83.62.58-.94,1.63-.76.37.1.62.29.38.45l.8-.33c.2,0,.19.18.05.22l1.14-.1v0a5,5,0,0,1,.75-.65c.32.18-.15.14-.07.3l.68-.32c.29.34-.27.67-.75.62.68,1.3.56-.33,2,.43l-.64.16c.44.74.93.47,1.68.93-.18-.24-1.5-1.15-.76-1.48a.83.83,0,0,0,.88-.12c0,.47.41.35.89.32v.62c.52-.18.47-.49.78-.77.59.06.72.54.87.94.95.09-.67-.77.45-.88a3.18,3.18,0,0,0,2.26-.39c.56.21-.08.38.12.55l.47-.49c.12,0,.09.16.07.24.41-.19,0-.61.66-.78.16-.68,1.35,1,2.13.22.2.17-.08.37,0,.61a5.68,5.68,0,0,0,1.82-1.05l.78.41c-.58-.46.13-1,.75-1.46-.21-.22-.38-.41-.5-.51l1-.33c.12.1,0,.31-.13.57l.18-.15c.36.23.19.58-.06.93l-.38-.38a1.84,1.84,0,0,0-.4,1.14.68.68,0,0,1,.33-.16c-.06.1-.1.19-.07.25s.14-.07.3-.23l.24.69.05-.28,1.33.43c.93-.69,1.72-1.7,3.21-2-.36.5-.06.82-.07,1.42-.42-.63-1.15.26-1.93.14.41.06.33.35.23.44l1.37-.57c0,.49.3.37.67.57-.3-1,1-.65,1.57-.94,0,.32-.09.65-.78.57.78.73.95-1.13,1.71-.51-.16,0-.26,0-.32.12.39-.29,1.88,8.94,1.66,9.22l-.7-9c1.12.11,3.39,0,3.54-.82a6.4,6.4,0,0,1-.19,1.15l1.92-2.74c-.16.7.56,2.36-.36,2.76a1.31,1.31,0,0,0,1.15,0c-.18-.1-.47-1-.23-1.08.7.78.48.42,1.34,1.08-.28-.15,0-1.25.42-1.21-.06.16.07,1.08-.09,1.2l1-1.08c-.26.19,0,.91.22,1.22-.11-.21.93,0,1.21-.09l-.46-.25c1.21.16,1.15-1.52,2.34-1.46-.13.22-.32,1.37.29,1.5.27-.55,1.17-2.66,2.21-3.08l.21.31.8-.36a19.11,19.11,0,0,1-2.61,3.27c.46.25.14.37.81.34.25.29-.36.45-.55.47l1.57.18c-.08-.64,1.19-.64,1.11-1.18l-1.69.67a2,2,0,0,1,2.06-1.72c.29.26-.18,1.15-.16,1.36.14-.22,1-.42,1.16-.26l-.47.34c.63.24,1-.85,1.75-.24.26,0,.79.83.82.45a6.48,6.48,0,0,1-.31-3.57,8.28,8.28,0,0,1,1.67,1.07c.44.57-.6,1.37-.23,1.87a.93.93,0,0,1,.34-.47c.27.16-.1.55.48.47.09-.65,1.2,0,.27-.55.57-.19.61.13,1.28.1-.22-.42.57-1.44,1.14-1.62a.84.84,0,0,0,.17.48c1.18.06,1.82.35,2.91.36.11.15.64.34.42.63.16-.12.3-.34.63-.36.67.57-.75.09-.23.77,0-.38.86-.53,1.34-.76-.17-.59-1.12-.11-1.6.12,0-.81.8-1.65,1.94-2,.9-.2.4.52.56.41,1.71.14,1.42-1.42,2.85-.84.58.52.06,1,.19,1.4-.74.2-1.15-.32-1.65-.3l.63.24a1.12,1.12,0,0,1-1,.15c.48.47,2.89.09,4.22.51l.31-.21C527.27,524.15,527.22,524.05,527.17,524Zm-57.46,2.43c.2-.53.36-.28.68-.13C470.21,526.35,469.85,526.65,469.71,526.38ZM484.13,525a.81.81,0,0,1,.59.1C484.59,525.27,484.38,525.2,484.13,525ZM499,523.09c0-.11-.1-.16.05-.17A1.09,1.09,0,0,0,499,523.09Zm25.6-1.22c-.41-.18-.27-.11,0,0Z"/><path class="cls-1" d="M483.11,525.75a.54.54,0,0,1-.09-.25C483,525.58,483,525.67,483.11,525.75Z"/><path class="cls-1" d="M455.08,526.81h0a.19.19,0,0,0,0,.08Z"/><path class="cls-1" d="M512.46,526a.76.76,0,0,1-.35-.24C512.11,525.86,512.19,526,512.46,526Z"/><path class="cls-1" d="M521.3,523.64l-.66.14c-.07.16.12.26.36.2S521.4,523.8,521.3,523.64Z"/><path class="cls-1" d="M523.34,525c-.19-.09-.2-.2-.31-.36v.6Z"/><path class="cls-1" d="M521.4,525.1c-.06.16-.95.47-.11.43C521.36,525.37,522,525.23,521.4,525.1Z"/><polygon class="cls-1" points="511.39 524.36 511.56 524.35 511.51 523.37 511.39 524.36"/><path class="cls-1" d="M502.64,526.7c.79.24.17-.6.89-.31.18-.23-.59-.24-.4-.44C502.66,526.2,502.4,526.06,502.64,526.7Z"/><path class="cls-1" d="M503.13,526a1.18,1.18,0,0,0,.23-.14A.65.65,0,0,0,503.13,526Z"/><path class="cls-1" d="M471.83,527.5l0-.15c-.08-.16-.2-.17-.44-.2Z"/><polygon class="cls-1" points="464.96 527.05 465.08 527.06 464.84 526.5 464.96 527.05"/><path class="cls-1" d="M459.22,527.77c.24,0,.51-.1.75-.08C459.46,527.8,459.14,527.07,459.22,527.77Z"/><path class="cls-1" d="M472.43,513l-.23.1A.86.86,0,0,0,472.43,513Z"/><path class="cls-1" d="M474.13,513.06l0-.19C474.09,513,474.06,513.05,474.13,513.06Z"/><path class="cls-1" d="M505.6,509.18c-.33-.36-.7-.93-.67-.5l.09.42A.7.7,0,0,1,505.6,509.18Z"/><path class="cls-1" d="M488.07,511.16l.1.13.23-.39Z"/><path class="cls-1" d="M487.8,512.87l-.45-.28A1.52,1.52,0,0,0,487.8,512.87Z"/><path class="cls-1" d="M463.17,513.3l-.28.42C463.32,513.73,463.13,513.51,463.17,513.3Z"/><path class="cls-1" d="M520.48,509.83a2,2,0,0,0-.73-.28C520.1,509.81,520.37,510.18,520.48,509.83Z"/><path class="cls-1" d="M473.12,508.6c-.14.08-.2.16-.2.25C473.07,508.78,473.15,508.71,473.12,508.6Z"/><path class="cls-1" d="M518.9,509.52a1.43,1.43,0,0,0,.15.11,1.61,1.61,0,0,1,.7-.08A.61.61,0,0,0,518.9,509.52Z"/><path class="cls-1" d="M516.61,512h0C516.65,512.1,516.64,512.09,516.61,512Z"/><path class="cls-1" d="M499.75,513.32l0,0,0,0Z"/><path class="cls-1" d="M499,513.6c.35-.51.54-.44.79-.32l-.23-1.21Z"/><path class="cls-1" d="M522.22,509.81c-1-.06-2.07.63-3.17-.18a2.2,2.2,0,0,1-1.26.07l-.09-.38c-.44.11-1.29-.42-1.49,0-.44-1-2.1-.3-2.86-.51l-.05.49a4.91,4.91,0,0,0-1.69.24l0,.44c-.58.33-1.44-.36-2.33-.35.06-.16.29-.11.44,0-1-1-2.26.62-3.2-.12a.49.49,0,0,1-.59,0l.06,0h-.09a4,4,0,0,0-.33-.24,1.1,1.1,0,0,0,.27.24,2.41,2.41,0,0,0-.74.15l-.11-.47H505c-.27-.18-.23.21-.09.57a1.23,1.23,0,0,0-.37.26c-.2-.75-.73.23-1-.57-.18.35-1.22.26-1.51.89a.87.87,0,0,0-.88,0l-.11-.59-.69.76c-.4-.37-.57-.58-.15-1-1,.67-.8.24-1.65.9l.05-.38c-.29,0-.78.51-.95.19-.65-.74-3.28-.19-5-.91.31,1.12-.78-.53-.86.34-.1-.27-.33-.42-.05-.65-.88.24-1.3-.45-1.92.26-.09-.26.2-.38.11-.54-.07.06-.28.23-.37.07s.13-.22.27-.33c-.89,0-1,.83-1.07,1.59-.44-.37-.67-.32-1,.17-.15-.25-.41-.52.14-.6-.31,0-1.89-.41-1.93.2-.09-.16-.43-.06-.52,0a7.72,7.72,0,0,0-1.44-.07l.19.11c-.28.73-.57.15-1.12.23v-.08c-1.26-.56-.55.24-1.79-.39l.07.46c-.13,1-1.1-.61-1.83-.24l.26.27c-.4.33-1.1-1.37-1.49-1.5-.09-.09.14-.14.26-.2-1-.61-.14.6-.92.72-.14-.32.19-.82-.33-.89-.26-.27-1.52,1-2.23.39.16.25.31.5-.05.68-.55.08-1.49-1-2-.19a.28.28,0,0,1-.1-.2c-.42.2-1.37.32-1.63.74-.38-1.59-2.62.73-2.61-.73l-1.3.05,0-.15a1.34,1.34,0,0,0-1.42.59c-.19-.11-.05-.24,0-.32a2,2,0,0,0-2.34.47l-.11-.48c-.27.28-1.76-.77-2.94-.23a.31.31,0,0,1,.13-.21c-1.34.54-3.21-1.36-3.69.37l-.88.42c1.14.14-.17.75.3,1-.44.1-1.16-.53-.61-.62l.09.09c.19-.86-1.28-.38-1.39-.87l-3.38,3.27c.33.35.46,1,1.48.91-.21.06-.81-.28-.48-.49a2,2,0,0,1,.9.52c1.06-.09-.17-.47.28-.75.37.56.52-.22,1-.39v.46c1.21.31.32-1,1.41-.59l-.46.64.57-.17-.12.53a1.38,1.38,0,0,1,1.42-.13.63.63,0,0,1,.61-.85c.36.28-.21.44.55.38-.17.29-.35.65-.68.22,0,.15-.17.29-.21.44.4.32,1,.08,1.27.08a.54.54,0,0,1-.3-.11l1.1-.63c.17.18,0,.32-.1.45.22,0,.37-.26.7-.29-.08.37-.06.76-.52.93l1-.4c.07.16.54.46.41.59.58.23,1.42-.71,2.19-.41a.45.45,0,0,1,.28-.19c.73.09,1.37.56,2.23.06l.48.68c.68-.14-.66-.86.46-1.1.8-.2.3.58.58.78.39-.34,1.08-1,1.8-.46-.24.13-.43,0-.65.07l.55.38c-.67.61-1.15.39-.63.92.08-1.3,2.15-.1,2.23-1.4l.37.28c-.11,0-.12.06-.23,0,.71.64.53-.93,1.45-.73.32.1.54.3.32.45l.71-.31c.18,0,.17.18,0,.22l1-.08v0a5,5,0,0,1,.68-.64c.28.2-.14.14-.07.3l.61-.3c.24.34-.26.66-.68.6.56,1.31.5-.31,1.71.47l-.57.15c.36.75.81.49,1.44,1-.15-.24-1.27-1.18-.62-1.49a.66.66,0,0,0,.78-.11c0,.47.35.36.78.34l0,.62c.47-.17.43-.48.71-.75.52.07.62.54.74,1,.83.11-.57-.78.41-.87.69.25,1.18,0,2-.34.48.22-.09.37.08.55l.43-.48c.11,0,.07.16.06.24.36-.18,0-.62.6-.77.16-.67,1.15,1,1.86.27.18.18-.08.37,0,.61a5.26,5.26,0,0,0,1.63-1l.66.41c-.48-.47.16-1,.72-1.43a4.32,4.32,0,0,0-.42-.52l.89-.31c.11.1,0,.31-.14.57l.17-.15c.31.24.14.59-.09.92-.11-.12-.21-.25-.31-.38a1.92,1.92,0,0,0-.4,1.13.58.58,0,0,1,.29-.16.34.34,0,0,0-.07.25c0,.07.13-.06.27-.22l.19.69.06-.27,1.14.46c.84-.67,1.58-1.66,2.9-1.91-.33.49-.08.82-.11,1.41-.35-.64-1,.24-1.7.09a.27.27,0,0,1,.18.46l1.22-.54c0,.48.25.37.56.58-.22-1,.92-.62,1.42-.9,0,.33-.1.65-.7.56.65.74.88-1.1,1.52-.47-.15,0-.22-.05-.29.11.35-.27,1.19,0,1,.25h-.15c1,.14,3,.09,3.14-.72a7.58,7.58,0,0,1-.22,1.14l1.81-2.68c-.17.69.38,2.38-.44,2.75a1.06,1.06,0,0,0,1,0c-.15-.11-.37-1-.15-1.08.58.79.4.43,1.12,1.11-.24-.15.06-1.24.43-1.2-.06.17,0,1.09-.13,1.2l1-1.05c-.24.19-.07.91.13,1.22-.09-.21.81,0,1.06,0l-.38-.26c1.05.19,1.08-1.48,2.13-1.39-.14.21-.36,1.36.17,1.51.26-.55,1.16-2.62,2.1-3l.17.32.73-.34a19.37,19.37,0,0,1-2.47,3.18c.39.26.1.37.69.37.2.3-.33.43-.51.45l1.37.23c0-.64,1.08-.6,1-1.14l-1.51.61a1.89,1.89,0,0,1,1.89-1.65c.24.27-.22,1.14-.21,1.36.13-.22.94-.39,1-.23l-.43.33c.54.26.91-.82,1.55-.19.22,0,.64.86.7.48a7,7,0,0,1-.08-3.57,7,7,0,0,1,1.41,1.12c.35.59-.61,1.35-.31,1.86a.89.89,0,0,1,.32-.46c.23.16-.12.55.4.48.11-.64,1,.1.26-.54.51-.17.53.15,1.13.15-.18-.43.58-1.42,1.09-1.58a.82.82,0,0,0,.12.48c1,.1,1.57.42,2.54.46.08.17.54.38.33.65.14-.11.28-.33.57-.33.55.58-.66.06-.25.76.05-.38.79-.5,1.22-.72-.11-.59-1-.15-1.41.07a2.45,2.45,0,0,1,1.82-2c.81-.17.33.54.47.43a1.66,1.66,0,0,0,.69-.05C522.46,510.83,522.33,510.32,522.22,509.81ZM476.06,513c.19-.53.32-.27.6-.11C476.5,513,476.17,513.29,476.06,513Zm12.7-1a.61.61,0,0,1,.52.11C489.15,512.23,489,512.15,488.76,512Zm13.17-1.55c0-.1-.08-.15.05-.16A1,1,0,0,0,501.93,510.42Z"/><path class="cls-1" d="M487.84,512.68a.59.59,0,0,1-.07-.26C487.71,512.5,487.7,512.59,487.84,512.68Z"/><path class="cls-1" d="M463.22,513.23h0a.31.31,0,0,0,0,.08Z"/><path class="cls-1" d="M513.58,513.74a.67.67,0,0,1-.29-.25C513.28,513.6,513.35,513.7,513.58,513.74Z"/><path class="cls-1" d="M521.48,511.7l-.59.12c-.07.16.09.27.31.21S521.56,511.87,521.48,511.7Z"/><path class="cls-1" d="M521.48,513.16c-.06.16-.86.44-.12.43C521.42,513.43,522,513.32,521.48,513.16Z"/><polygon class="cls-1" points="512.73 512.07 512.88 512.07 512.89 511.09 512.73 512.07"/><path class="cls-1" d="M504.93,514.14c.68.25.18-.6.79-.29.17-.22-.5-.25-.33-.44C505,513.64,504.76,513.49,504.93,514.14Z"/><path class="cls-1" d="M505.39,513.41l.22-.15A.79.79,0,0,0,505.39,513.41Z"/><path class="cls-1" d="M477.88,514.19l0-.15c-.06-.17-.17-.18-.37-.21Z"/><polygon class="cls-1" points="471.87 513.61 471.97 513.62 471.78 513.05 471.87 513.61"/><path class="cls-1" d="M466.82,514.24c.21,0,.45-.09.66-.07C467,514.27,466.77,513.54,466.82,514.24Z"/><polygon class="cls-1" points="462.12 501.63 462.06 502.07 462.32 501.45 462.12 501.63"/><polygon class="cls-1" points="462.72 501.58 462.7 501.96 462.86 501.73 462.72 501.58"/><path class="cls-1" d="M496.41,496.7l.13-.11A.25.25,0,0,0,496.41,496.7Z"/><path class="cls-1" d="M495.43,496.69l0,.19C495.45,496.77,495.47,496.7,495.43,496.69Z"/><path class="cls-1" d="M477.48,501.56c.21.35.45.9.41.47l-.07-.41A.27.27,0,0,1,477.48,501.56Z"/><path class="cls-1" d="M487.49,499l-.06-.12-.12.4Z"/><path class="cls-1" d="M487.56,497.28l.27.27A.77.77,0,0,0,487.56,497.28Z"/><path class="cls-1" d="M501.73,496.16l.13-.43C501.61,495.74,501.73,496,501.73,496.16Z"/><path class="cls-1" d="M468.87,501.45a.85.85,0,0,0,.43.26C469.09,501.47,468.92,501.11,468.87,501.45Z"/><path class="cls-1" d="M496.24,501.12a.32.32,0,0,0,.1-.25A.23.23,0,0,0,496.24,501.12Z"/><path class="cls-1" d="M469.8,501.71l-.09-.1a.65.65,0,0,1-.41.1C469.46,501.88,469.64,502,469.8,501.71Z"/><path class="cls-1" d="M471,499.12h0C471,499,471,499.05,471,499.12Z"/><path class="cls-1" d="M465,501.78l-.11,0C464.85,501.81,464.86,501.86,465,501.78Z"/><path class="cls-1" d="M465.32,501.76a.5.5,0,0,1-.21-.05s0,.05,0,.07Z"/><path class="cls-1" d="M510.81,497.41l0,0C511,497.27,510.9,497.3,510.81,497.41Z"/><path class="cls-1" d="M480.66,497.22v0l0,0Z"/><path class="cls-1" d="M481.11,496.91c-.18.52-.29.46-.44.35l.19,1.2Z"/><path class="cls-1" d="M521.18,500.52c.07,0,.09-.21.12-.36-.45-1.28-.89-2.57-1.27-3.86a4.26,4.26,0,0,0-2.26.45l.08.21c-.63.41-.55-.22-1.25,0l0-.05a.54.54,0,0,1-.51.31c.16-.25-.38-.47-.16-.76-.68.45-.33.35-.75,1.16l-.13-.36c-.14.33-.14.5-.49.6.27-.31-.27-.53,0-.94-.8-.76-1.07.81-1.49-.31-.28,1,.69.52.51.74.19.32-.23.74-.48.65s-.49-1.25-1.1-1.21c.06,0,.06-.07.12-.07-.24-.25-.42.35-.73-.05-.11.6-.36,0-.36.74l.55-.19c-.3.2-.54,1.1-1.09.68a1.23,1.23,0,0,1,.27-.47c-.17-.22-.28.15-.46-.07,0-.76.67-.19,1-.77-.18-.32-.6.56-.48-.26-.18,1.05-.61-.12-1,.69v-.45c-.06.07-.18.29-.31.28l.18-.6c-.3.51-.66-.42-1-.14.67,0,.19.55.49.87-.79.63-.55-1.18-1.46-.94.13-.06.49.26.31.48a1.24,1.24,0,0,1-.55-.5c-.6.11.12.47-.12.76-.24-.55-.29.23-.54.41l0-.46c-.72-.28-.13,1-.78.62l.23-.64-.32.17,0-.53c-.34.4-.45.3-.81.16.1.33,0,.84-.31.87-.22-.27.1-.45-.34-.37.09-.29.17-.66.39-.24,0-.15.08-.29.09-.44-.25-.31-.57-.06-.73-.05a.32.32,0,0,1,.18.11l-.6.65a.41.41,0,0,1,0-.45c-.13.05-.2.27-.39.31,0-.38,0-.76.25-.95l-.58.43c-.05-.16-.33-.44-.26-.58-.35-.21-.78.75-1.24.46a.31.31,0,0,1-.16.2c-.42-.07-.81-.53-1.28,0l-.32-.67c-.38.16.43.84-.2,1.11-.45.22-.2-.57-.37-.76-.21.35-.57,1-1,.5.13-.13.25,0,.37-.08l-.34-.37c.36-.62.65-.41.32-.93,0,1.3-1.23.15-1.21,1.45l-.23-.27c.06,0,.07-.06.13-.05-.44-.62-.26.94-.79.77-.19-.1-.33-.28-.21-.44l-.4.33c-.1,0-.1-.18,0-.22l-.57.11v0a5,5,0,0,1-.36.66c-.17-.19.08-.14,0-.3l-.33.32c-.16-.34.11-.67.35-.62-.38-1.3-.27.33-1-.42l.31-.17c-.24-.74-.48-.47-.87-.92.09.24.79,1.15.43,1.48-.11-.1-.25-.14-.44.12,0-.46-.22-.34-.47-.31v-.62c-.26.18-.22.49-.37.77-.3-.05-.38-.53-.47-.93-.48-.09.36.76-.2.88-.41-.23-.67,0-1.13.4-.29-.21,0-.37-.08-.55l-.22.49c-.07,0-.05-.16-.05-.23-.2.19,0,.61-.31.78-.06.68-.71-1-1.08-.21-.11-.17,0-.37,0-.61a3.29,3.29,0,0,0-.89,1.05l-.41-.39c.31.45,0,1-.34,1.45.11.22.21.42.27.51l-.5.33a.89.89,0,0,1,.05-.56l-.09.14c-.19-.22-.11-.58,0-.92l.2.38a3.12,3.12,0,0,0,.17-1.15.37.37,0,0,1-.16.17.5.5,0,0,0,0-.26c0-.06-.07.08-.14.23l-.15-.68v.27l-.69-.42c-.45.69-.83,1.71-1.57,2a3.72,3.72,0,0,0,0-1.41c.23.63.58-.27,1-.15-.21-.06-.17-.35-.13-.45l-.68.58c0-.48-.16-.36-.35-.56.18,1-.5.64-.77.94,0-.32,0-.65.38-.58-.41-.72-.46,1.13-.86.52.09,0,.13,0,.16-.12-.19.29-.68.06-.57-.22h.08c-.57-.11-1.72,0-1.77.83,0-.11,0-1,.07-1.15l-.92,2.75c.07-.7-.33-2.37.13-2.77a.4.4,0,0,0-.59,0c.1.1.26,1,.14,1.07a4.58,4.58,0,0,0-.69-1.07c.14.14,0,1.24-.2,1.21a9.42,9.42,0,0,1,0-1.2l-.51,1.08a2.08,2.08,0,0,0-.14-1.22c.07.21-.46,0-.6.09l.23.25c-.61-.16-.56,1.52-1.16,1.47.06-.23.14-1.38-.17-1.51-.13.55-.55,2.66-1.08,3.09l-.11-.32-.4.36a21.06,21.06,0,0,1,1.28-3.26c-.24-.25-.08-.38-.42-.35-.13-.29.18-.45.28-.46l-.8-.19c.05.64-.59.65-.55,1.18l.85-.67c0,.65-.45,1.84-1,1.72-.15-.25.08-1.14.06-1.36-.07.22-.53.42-.58.27l.23-.35c-.32-.24-.49.86-.88.24-.14,0-.41-.83-.43-.45a12.24,12.24,0,0,1,.2,3.57,5.71,5.71,0,0,1-.86-1.07c-.22-.58.29-1.37.1-1.87a.94.94,0,0,1-.17.46c-.14-.15.05-.54-.25-.46,0,.65-.6-.06-.12.55-.29.19-.32-.13-.66-.1a2.2,2.2,0,0,1-.56,1.62,1.52,1.52,0,0,0-.09-.48c-.6-.06-.92-.36-1.48-.37,0-.15-.33-.35-.22-.63-.08.12-.14.34-.32.36-.34-.57.39-.09.12-.77,0,.38-.43.52-.67.76.08.59.56.11.8-.12a2.44,2.44,0,0,1-1,2c-.46.2-.21-.52-.29-.4-.87-.15-.72,1.41-1.45.82-.29-.51,0-1-.1-1.4.37-.19.58.33.84.31l-.32-.24c.12-.17.37-.3.51-.15-.25-.47-1.47-.09-2.15-.53-.12.17-.32.35-.22.56l.21-.07c.21.42-.39.57-.11.77-.28.29-.6.75-1,.51l-.09-.59c0,.17.27.35.38.17-.16.26-.62-.8-.8,0l.29.41c-.28.3-.62.92-1,.73.17.58.08-.06.34.62-.23-.85.91,0,.55-.85.27.79.45.33.8,1,0-.2-.13-.37.17-.28a1.22,1.22,0,0,1,.07-.17l0,0,0,0s0,0,0,0a.71.71,0,0,1-.15-.3c.14-.44.61-.43.77-.66.18.1-.07.23,0,.43l.23-.34c0,.43.48.72.07,1l.38,0c.22.24.53.34.71.16.18.09.44-.48.29-.14l.59-.27v.11c.59.06,1.19-.71,1.87.07a.75.75,0,0,1,.72-.12l.07.37c.25-.12.76.38.86,0,.3,1,1.23.22,1.67.39v-.48a1.82,1.82,0,0,0,1-.31l0-.43c.31-.35.84.31,1.36.26,0,.17-.17.12-.26,0,.64,1,1.28-.71,1.85,0,.14-.16.24-.1.34,0a0,0,0,0,0,0,0h0c.07.07.13.16.2.23a.8.8,0,0,0-.17-.23,1,1,0,0,0,.43-.17l.08.46h0c.17.17.12-.22,0-.57a1,1,0,0,0,.2-.28c.15.75.41-.25.61.54.09-.36.69-.31.83-.94.18.09.35.18.5-.05l.1.58.36-.79a.83.83,0,0,1,.13,1c.54-.7.45-.26.91-1v.38c.17,0,.43-.52.54-.21.41.72,1.9.08,2.91.75-.23-1.12.48.5.48-.37.07.26.21.41.06.64.5-.26.77.41,1.09-.32.07.26-.09.39,0,.54,0-.05.15-.23.21-.07s-.07.22-.14.34c.51,0,.53-.87.54-1.63.27.36.4.31.57-.2.1.25.26.51-.06.6.18,0,1.11.36,1.11-.25.06.15.25,0,.3,0a2.58,2.58,0,0,0,.83,0l-.11-.1c.12-.74.32-.17.63-.26v.08c.75.52.3-.26,1.05.34l-.06-.46c0-1,.66.57,1.06.19l-.16-.26c.21-.34.7,1.33.94,1.45.05.09-.08.14-.14.21.62.57.05-.61.49-.75.1.32-.07.83.23.88.17.26.83-1.06,1.27-.45-.1-.25-.2-.5,0-.69s.9.93,1.15.14a.4.4,0,0,1,.07.2c.23-.21.77-.36.9-.79.3,1.59,1.48-.8,1.54.67l.75-.09v.15c.48.09.63-.27.78-.62.12.09.05.23,0,.31.72.28.78.22,1.33-.53l.09.48c.14-.28,1.05.72,1.71.16a.52.52,0,0,1-.07.21c.74-.57,1.93,1.28,2.11-.46l.48-.44c-.66-.12.06-.75-.23-1,.25-.11.7.5.39.6l-.06-.08c-.06.9.84.3.86.91,1.29-.08,2.59.4,3.81.4l-.19-.7.43,0c.12.16.18.55-.12.53.18.39.48-.35.48-.5.61.26-.18.82,0,.83l.24-.06-.06-.08c.18-.29.18-.59.54-.57s.15.43.24.45,0,.08.14,0l.54.05-.25-.55c.22-.28.51,0,.22-.61.42,1,2,.3,2.25.59a1,1,0,0,1,1-.38c-.11-.11-.21-.73.14-.67,0,1.29.68.54,1,1.46-.29-.61,1-.19.53-1,.29.09,0,.48.29.77.66-.52,1.55.28,2.4.08,0-.17-.16-.42,0-.68Zm-41.66-.17a.78.78,0,0,0,0-.16C479.55,500.29,479.59,500.34,479.52,500.35Zm7.23-2.23c.07-.15.18-.08.3.1A.27.27,0,0,1,486.75,498.12Zm7.23-1.2c.09-.1.26-.4.34-.13C494.24,497.32,494.14,497.07,494,496.92Zm18.39,3.56-.09-.12C512.46,500.23,512.41,500.35,512.37,500.48Z"/><path class="cls-1" d="M487.55,497.48a1,1,0,0,1,.05.25A.21.21,0,0,0,487.55,497.48Z"/><path class="cls-1" d="M501.7,496.24h0s0-.05,0-.08Z"/><path class="cls-1" d="M472.68,497.29a.59.59,0,0,1,.18.24A.22.22,0,0,0,472.68,497.29Z"/><path class="cls-1" d="M463.82,502l.28-.12c-.14,0-.18-.08-.25-.15C463.85,501.82,463.91,502,463.82,502Z"/><path class="cls-1" d="M465.55,501.46c-.09-.1-.05.5-.1.34C465.36,502.29,466.05,501.2,465.55,501.46Z"/><path class="cls-1" d="M464.9,499.52l-.31-.14a.18.18,0,0,1-.08.17C464.7,499.56,464.91,499.66,464.9,499.52Z"/><path class="cls-1" d="M464.51,499.55a.25.25,0,0,0-.25.08A.56.56,0,0,0,464.51,499.55Z"/><path class="cls-1" d="M468.22,499.62l.33-.13c0-.17-.06-.27-.18-.2S468.17,499.46,468.22,499.62Z"/><path class="cls-1" d="M467.18,498.3a.9.9,0,0,1,.15.37v-.6Z"/><path class="cls-1" d="M468.16,498.17c0-.17.47-.48,0-.44C468.18,497.89,467.84,498,468.16,498.17Z"/><polygon class="cls-1" points="473.24 498.93 473.16 498.93 473.19 499.91 473.24 498.93"/><path class="cls-1" d="M477.64,496.58c-.4-.23-.07.6-.44.31-.09.23.3.24.21.44C477.64,497.08,477.77,497.22,477.64,496.58Z"/><path class="cls-1" d="M477.41,497.33a.65.65,0,0,0-.12.15A.45.45,0,0,0,477.41,497.33Z"/><path class="cls-1" d="M493.21,495.67v.15c0,.16.11.18.23.2Z"/><polygon class="cls-1" points="496.7 496.08 496.64 496.07 496.78 496.63 496.7 496.08"/><path class="cls-1" d="M499.57,495.32c-.12,0-.25.1-.37.08C499.45,495.3,499.64,496,499.57,495.32Z"/><path class="cls-1" d="M498.36,487.69s.05-.36.06-.43S498.36,487.8,498.36,487.69Z"/><polygon class="cls-1" points="497.62 488.56 497.64 488.4 497.51 488.79 497.62 488.56"/><path class="cls-1" d="M497,488.51c0,.69.24-.09.34.16v.15l.09-.54C497.27,488.36,497.07,488.71,497,488.51Z"/><path class="cls-1" d="M496.75,487c0,.26-.09.22.07.09a.2.2,0,0,1,0-.07A.1.1,0,0,1,496.75,487Z"/><path class="cls-1" d="M496.81,487c.07,0,0-.23,0,0Z"/><path class="cls-1" d="M496.49,487.17l.11-.23c0-.16-.09-.2-.05-.31C496.45,486.75,496.46,486.91,496.49,487.17Z"/><path class="cls-1" d="M496.37,487.66l.05-.09C496.42,487.5,496.41,487.48,496.37,487.66Z"/><path class="cls-1" d="M496.54,487.36l-.12.21c0,.11,0,.33.05-.08C496.45,487.69,496.49,487.5,496.54,487.36Z"/><path class="cls-1" d="M496.58,487.47a.57.57,0,0,1,0,.48C496.75,487.86,496.76,487.38,496.58,487.47Z"/><path class="cls-1" d="M496.9,489.22l.05.2.07-.22C497,489.31,496.91,489,496.9,489.22Z"/><path class="cls-1" d="M496,486.78c0,.15,0,.39,0,.58l.08-.16A1,1,0,0,1,496,486.78Z"/><path class="cls-1" d="M496,487.36l-.11.24C495.93,487.64,496,487.52,496,487.36Z"/><polygon class="cls-1" points="496.3 488.42 496.5 487.91 496.27 488.43 496.3 488.42"/><polygon class="cls-1" points="495.6 486.74 495.67 486.41 495.54 486.91 495.6 486.74"/><path class="cls-1" d="M495.34,486.79c.06-.28,0-.48,0-.65a1.49,1.49,0,0,0-.22.5C495.23,486.52,495.28,486.55,495.34,486.79Z"/><path class="cls-1" d="M495.06,487a2.28,2.28,0,0,0,.1-.31A1.59,1.59,0,0,0,495.06,487Z"/><path class="cls-1" d="M495.69,487.52a1.55,1.55,0,0,0-.05-.42v.41Z"/><path class="cls-1" d="M495.65,487.53v0l-.08,0Z"/><path class="cls-1" d="M495.7,487.52h0S495.69,487.57,495.7,487.52Z"/><path class="cls-1" d="M496.07,488a1.28,1.28,0,0,0-.12.81A5.48,5.48,0,0,1,496.07,488Z"/><path class="cls-1" d="M495.71,488l.09.1a1.64,1.64,0,0,1,0-.38Z"/><polygon class="cls-1" points="495.65 488.16 495.71 488.04 495.67 488 495.65 488.16"/><path class="cls-1" d="M495.21,487.34c-.06.17-.11.19-.17.21s.11.13.17.13S495.27,487.33,495.21,487.34Z"/><path class="cls-1" d="M495.42,487.47s0,0,0,0S495.41,487.53,495.42,487.47Z"/><path class="cls-1" d="M494.5,487.52v0Z"/><path class="cls-1" d="M495.22,487.76c0,.08.07,0,.1-.14a.14.14,0,0,1-.11.06C495.2,487.74,495.2,487.78,495.22,487.76Z"/><path class="cls-1" d="M494.89,487.13l.06.23C494.94,487.23,494.91,487,494.89,487.13Z"/><path class="cls-1" d="M495.4,487.37h0C495.4,487.27,495.4,487.31,495.4,487.37Z"/><path class="cls-1" d="M495.4,487.37a2.5,2.5,0,0,0-.08.25.48.48,0,0,0,.09-.13A.45.45,0,0,1,495.4,487.37Z"/><path class="cls-1" d="M494.15,490.13c0-.38.17-.72.25-.31a9.15,9.15,0,0,0,.1-2.23,1.11,1.11,0,0,1-.14.54,1.63,1.63,0,0,1,.08.83c-.15.19-.1-.14-.15-.34,0,.47-.22.67-.24,1.37l.13-.24A1.67,1.67,0,0,0,494.15,490.13Z"/><path class="cls-1" d="M494.69,487.64l.05,0a1.9,1.9,0,0,1-.11-.53,1.32,1.32,0,0,0-.12.45l.2.07Z"/><path class="cls-1" d="M494.93,487.61a3.82,3.82,0,0,0-.15,1c.13,0,.11-.34.2-.52-.21.09.07-.22-.05-.47a.32.32,0,0,1,.11-.1,1.72,1.72,0,0,1-.09-.19v0h0c0,.05,0,.08,0,.05h0c0,.06,0,.11,0,.15s0-.1,0-.15a.13.13,0,0,1,0-.06h0l-.21.22C494.78,487.66,494.83,487.65,494.93,487.61Z"/><path class="cls-1" d="M495.78,489.73a.28.28,0,0,1,0-.09C495.77,489.69,495.76,489.72,495.78,489.73Z"/><path class="cls-1" d="M495.72,489.48c0-.06,0-.22.09-.18s0,.2,0,.34a.72.72,0,0,0,0-.5l0,.06a2.45,2.45,0,0,1-.12-.73C495.69,488.85,495.69,489.11,495.72,489.48Z"/><path class="cls-1" d="M495.31,488.65l-.18.19.06.36V489C495.29,489.08,495.29,488.81,495.31,488.65Z"/><polygon class="cls-1" points="494.49 487.31 494.55 486.88 494.41 487.49 494.49 487.31"/><polygon class="cls-1" points="494.27 487.35 494.31 486.97 494.24 487.2 494.27 487.35"/><path class="cls-1" d="M481.74,491.31l-.05.11A.54.54,0,0,0,481.74,491.31Z"/><path class="cls-1" d="M482.1,491.36l0-.19C482.09,491.27,482.08,491.35,482.1,491.36Z"/><path class="cls-1" d="M489,487.07c0-.36-.09-.91-.11-.48V487C488.9,486.93,488.94,487,489,487.07Z"/><path class="cls-1" d="M485.15,489.33v.13c0-.14.06-.27.08-.4Z"/><path class="cls-1" d="M485,491.05l-.08-.28A1.29,1.29,0,0,0,485,491.05Z"/><path class="cls-1" d="M479.78,491.64l-.09.41C479.78,492.06,479.76,491.84,479.78,491.64Z"/><path class="cls-1" d="M492.05,487.37c-.05-.17-.1-.24-.14-.26C492,487.35,492,487.71,492.05,487.37Z"/><path class="cls-1" d="M482.19,486.92a.83.83,0,0,0-.06.25A.49.49,0,0,0,482.19,486.92Z"/><path class="cls-1" d="M491.74,487.1a.36.36,0,0,0,0,.1c.05-.07.1-.12.15-.09C491.87,486.93,491.82,486.81,491.74,487.1Z"/><path class="cls-1" d="M493.42,487.12s0-.05,0,0Z"/><path class="cls-1" d="M493.52,488.77a1.78,1.78,0,0,0,0,.2A1.46,1.46,0,0,1,493.52,488.77Z"/><path class="cls-1" d="M491.1,489.65h0C491.1,489.74,491.1,489.72,491.1,489.65Z"/><path class="cls-1" d="M493.47,487.31a.39.39,0,0,0-.05-.13A.55.55,0,0,0,493.47,487.31Z"/><path class="cls-1" d="M493.48,487.11l0,0C493.52,487.09,493.52,487,493.48,487.11Z"/><path class="cls-1" d="M493.35,487.13s0,0,.07.05,0-.05,0-.06Z"/><path class="cls-1" d="M487.46,491.31v0Z"/><path class="cls-1" d="M487.28,491.61c.1-.51.14-.45.19-.34l0-1.19Z"/><path class="cls-1" d="M494.07,487.07c0,.84-.32-.06-.26.83,0-.79-.14-.34-.21-1,0,.2,0,.38-.09.27a.74.74,0,0,1,0,.17h0v0s0,0,0,0a1.39,1.39,0,0,1,0,.3c-.08.44-.25.41-.33.64-.05-.1.05-.22,0-.43l-.11.34c0-.43-.12-.72,0-1l-.13,0c-.06-.25-.16-.35-.24-.18-.06-.09-.2.47-.12.14l-.23.25v-.11c-.21-.06-.48.69-.67-.1-.08.1-.16.23-.27.1v-.37c-.1.12-.25-.39-.32,0,0-1-.42-.25-.56-.44l0,.49c-.11,0-.23.1-.38.28l0,.43c-.14.35-.28-.32-.47-.29,0-.16.07-.11.1,0-.15-1-.52.67-.67-.05-.06.16-.09.1-.12,0l0,0h0l-.06-.23c0,.11,0,.19,0,.24s-.1.05-.16.16V487l0,0c0-.18-.06.21-.05.56a1.18,1.18,0,0,0-.1.27c0-.74-.17.24-.17-.55-.06.35-.28.29-.38.92-.05-.1-.11-.19-.18,0v-.58l-.19.78a2.09,2.09,0,0,1,0-1c-.25.68-.18.25-.4.93l0-.38c-.06,0-.2.51-.21.2-.09-.73-.68-.15-1-.84,0,1.12-.13-.51-.21.36a1.9,1.9,0,0,1,0-.64c-.19.24-.24-.44-.41.28,0-.26.06-.38.05-.54,0,.06-.07.23-.08.07a.85.85,0,0,1,.08-.34c-.19,0-.26.85-.33,1.61-.07-.37-.12-.32-.22.18,0-.25,0-.52.07-.6-.06,0-.37-.39-.42.22,0-.15-.09-.05-.11,0s-.15-.1-.3,0l0,.1c-.11.73-.13.16-.25.24v-.07c-.22-.55-.13.24-.34-.38l0,.46c-.1,1-.19-.6-.37-.23l0,.27c-.11.33-.14-1.36-.21-1.49s0-.13.07-.19c-.18-.6-.07.59-.25.72,0-.32.1-.82,0-.88,0-.27-.39,1-.5.4a1.36,1.36,0,0,1-.06.68c-.12.09-.24-1-.4-.18a1.28,1.28,0,0,1,0-.19,2,2,0,0,0-.39.74c0-1.59-.6.74-.49-.72l-.28.06,0-.15c-.17-.11-.25.24-.34.59a.84.84,0,0,1,0-.32c-.23-.31-.26-.24-.53.47l0-.47c-.08.27-.32-.77-.6-.23a.78.78,0,0,1,0-.21c-.32.54-.57-1.36-.8.36l-.21.42c.23.14-.09.74,0,1-.1.09-.21-.54-.08-.62v.09c.1-.9-.28-.34-.23-1-.35,0-.68-.29-1-.46l-.32.29v.3l-.15,0s0-.07,0-.1c-1.21,1.11-2.41,2.24-3.6,3.37.29-.05.58.13.87-.33v-.21c.27-.38.18.25.45.08v0c.06-.21.14-.31.21-.29-.08.25.09.5,0,.77.29-.41.16-.33.38-1.11l0,.36c.08-.32.09-.49.23-.57-.13.3.05.54-.1.94.22.79.46-.76.5.38.2-1-.19-.56-.11-.76s.16-.73.23-.63.06,1.27.28,1.26c0,0,0,.07,0,.06.06.26.18-.33.25.09.1-.59.13,0,.2-.72l-.21.17c.12-.19.29-1.07.45-.63a1.91,1.91,0,0,1-.14.46c0,.22.12-.15.16.09-.07.75-.26.15-.42.72,0,.32.27-.54.15.28.16-1,.21.14.41-.64l0,.45c0-.07.09-.28.13-.27l-.12.59c.16-.5.2.45.34.18-.24,0,0-.55-.1-.88.35-.59.09,1.19.44,1-.05.06-.15-.29-.06-.49a1.29,1.29,0,0,1,.15.51c.23-.08,0-.47.11-.74,0,.56.12-.22.23-.39l0,.46c.23.31.14-1,.34-.58l-.14.63.13-.16-.06.53c.15-.39.19-.28.3-.13,0-.32.08-.83.19-.84.06.28-.07.43.09.38-.06.28-.12.64-.16.22,0,.15-.06.28-.07.43,0,.32.2.09.25.08s0,0-.05-.11l.27-.62a1,1,0,0,1-.05.45c.05-.05.1-.26.17-.3a2.71,2.71,0,0,1-.18.93l.25-.4a3.08,3.08,0,0,1,0,.59c.11.23.35-.71.49-.41a.54.54,0,0,1,.08-.19c.14.09.24.56.46.06l.05.68c.15-.15-.08-.86.17-1.1s0,.58.07.77c.11-.33.3-1,.41-.46-.06.13-.09,0-.14.07l.09.38c-.18.61-.27.39-.2.92.11-1.3.46-.11.57-1.4l0,.27s0,.07,0,.05c.11.63.18-.93.36-.73a.55.55,0,0,1,0,.44l.18-.31s0,.18,0,.22l.21-.09v0a5,5,0,0,1,.19-.64c0,.19,0,.13,0,.3l.15-.31c0,.34-.1.66-.19.61,0,1.3.13-.32.33.45l-.13.16c0,.74.14.48.24.94a4.06,4.06,0,0,1,0-1.48c0,.1.08.14.17-.11,0,.46.05.35.14.33l-.05.61a3.65,3.65,0,0,0,.2-.75c.1.06.09.54.09.94.17.11-.07-.77.15-.87.13.24.24,0,.44-.36.09.22,0,.38,0,.55l.12-.48s0,.16,0,.24c.09-.19.05-.61.18-.77.08-.67.17,1,.37.24a3.56,3.56,0,0,1-.05.61,4.21,4.21,0,0,0,.41-1l.11.41a3.27,3.27,0,0,1,.25-1.44c0-.22,0-.42,0-.51l.21-.32a2.49,2.49,0,0,1-.07.56.74.74,0,0,0,0-.14,2.58,2.58,0,0,1-.08.92c0-.12,0-.25,0-.38a9.19,9.19,0,0,0-.16,1.14.54.54,0,0,1,.08-.17,1.57,1.57,0,0,0,0,.25c0,.07,0-.06.08-.22v.69l0-.27.21.44a6.52,6.52,0,0,1,.74-1.95,8.62,8.62,0,0,0-.12,1.41c0-.63-.23.26-.37.12.07.07,0,.35,0,.45l.29-.56c0,.49,0,.37.08.57,0-1,.24-.62.36-.91,0,.32-.06.65-.18.56.09.73.26-1.11.35-.49,0,0-.05,0-.07.12.09-.28.25,0,.19.23h0c.2.12.62,0,.71-.77,0,.11-.1,1-.12,1.14l.55-2.71a17,17,0,0,1-.27,2.75c0,.1.09.22.21,0a5.36,5.36,0,0,1,0-1.07,7.16,7.16,0,0,0,.17,1.09,3.69,3.69,0,0,1,.16-1.21c0,.17-.07,1.09-.1,1.2l.27-1.07a5.84,5.84,0,0,0-.05,1.22c0-.21.17,0,.22-.07l-.06-.26c.21.18.32-1.5.54-1.43a5.58,5.58,0,0,0-.06,1.51,20.79,20.79,0,0,1,.63-3.05l0,.32.17-.35c-.15.82-.53,2.55-.72,3.22.06.25,0,.37.12.35,0,.3-.1.45-.13.46l.27.21c0-.65.26-.63.29-1.17l-.36.65c0-.64.31-1.82.51-1.69,0,.26-.12,1.14-.13,1.36,0-.22.22-.42.23-.26l-.11.34c.09.25.24-.84.33-.22.05,0,.09.84.12.46a35,35,0,0,1,.21-3.56,8.65,8.65,0,0,1,.23,1.08c0,.58-.22,1.37-.18,1.87a2.31,2.31,0,0,1,.09-.46c0,.15-.06.54.06.47.06-.65.21.07.08-.55.12-.18.11.14.23.12a5.12,5.12,0,0,1,.33-1.61,2.53,2.53,0,0,0,0,.48c.21.08.3.38.5.4a1.73,1.73,0,0,1,0,.63c0-.11.08-.33.14-.34.08.57-.14.08-.1.76a2,2,0,0,1,.3-.75c0-.58-.19-.12-.3.11a4.93,4.93,0,0,1,.51-2c.18-.19,0,.52.07.41.31.16.37-1.39.59-.8a9.67,9.67,0,0,1-.07,1.4c-.15.19-.19-.34-.28-.32l.09.25c-.05.17-.15.29-.19.14.05.46.52.12.73.56a1.14,1.14,0,0,0,.12-.55l-.08.06c0-.42.19-.56.1-.76.13-.29.27-.74.4-.49v.58c0-.17-.07-.35-.12-.18.07-.25.16.81.28.05l-.07-.41c.12-.29.29-.91.41-.72C494.13,487.1,494.11,487.75,494.07,487.07ZM482.5,491.3c.08-.52.09-.27.14-.11S482.51,491.58,482.5,491.3Zm2.74-1.17s.07,0,.1.1S485.27,490.31,485.24,490.13Zm2.87-1.75c0-.1,0-.15,0-.16S488.12,488.32,488.11,488.38Z"/><path class="cls-1" d="M492.89,487.46v0C492.82,487.3,492.84,487.37,492.89,487.46Z"/><path class="cls-1" d="M485,490.85v-.25A.7.7,0,0,0,485,490.85Z"/><path class="cls-1" d="M479.8,491.56h0s0,.06,0,.09Z"/><path class="cls-1" d="M490.35,491.44a.64.64,0,0,1,0-.24C490.3,491.31,490.3,491.41,490.35,491.44Z"/><path class="cls-1" d="M493.91,486.94l-.11.11c.05,0,.06.08.08.16C493.88,487.1,493.87,486.94,493.91,486.94Z"/><path class="cls-1" d="M494.57,489.84s0,0,.05-.06v-.21C494.56,489.58,494.51,489.75,494.57,489.84Z"/><path class="cls-1" d="M493.89,488.47c0,.39.05.26.13.2h0C494.06,488.13,494,488.3,493.89,488.47Z"/><path class="cls-1" d="M494,488.65s.05,0,.07,0C494.12,488.43,494.08,488.6,494,488.65Z"/><path class="cls-1" d="M493.24,487.42c0,.11.06-.49.07-.33C493.38,486.6,493,487.67,493.24,487.42Z"/><polygon class="cls-1" points="493.86 489.76 493.87 489.28 493.8 489.66 493.86 489.76"/><path class="cls-1" d="M493.33,489.37l.1.14a.4.4,0,0,1,0-.16C493.41,489.33,493.34,489.23,493.33,489.37Z"/><path class="cls-1" d="M493.47,489.35s.07,0,.1-.07S493.51,489.29,493.47,489.35Z"/><polygon class="cls-1" points="493.69 489.89 493.67 489.79 493.59 489.75 493.69 489.89"/><path class="cls-1" d="M492.14,489.21l-.13.13c0,.16,0,.26.05.2A.64.64,0,0,0,492.14,489.21Z"/><path class="cls-1" d="M492.42,490.54a1.83,1.83,0,0,1,0-.37l-.05.6Z"/><path class="cls-1" d="M492.05,490.66c0,.16-.21.46-.05.43S492.15,490.8,492.05,490.66Z"/><polygon class="cls-1" points="490.28 489.8 490.31 489.79 490.37 488.82 490.28 489.8"/><path class="cls-1" d="M488.5,492c.13.24.08-.6.19-.3.05-.23-.09-.24,0-.44C488.54,491.53,488.51,491.39,488.5,492Z"/><path class="cls-1" d="M488.65,491.29s0-.08.05-.14A.48.48,0,0,0,488.65,491.29Z"/><path class="cls-1" d="M482.81,492.45v-.15c0-.16,0-.17-.06-.2Z"/><polygon class="cls-1" points="481.58 491.91 481.61 491.93 481.61 491.36 481.58 491.91"/><path class="cls-1" d="M480.48,492.56s.1-.09.14-.06S480.52,491.86,480.48,492.56Z"/><path class="cls-1" d="M497.57,476.9a3.93,3.93,0,0,0-.06-.44A2.31,2.31,0,0,0,497.57,476.9Z"/><polygon class="cls-1" points="497.43 477.83 497.41 477.67 497.43 478.07 497.43 477.83"/><path class="cls-1" d="M497.15,477.85c.14.68.09-.12.18.12l0,.15-.07-.55C497.24,477.66,497.23,478,497.15,477.85Z"/><path class="cls-1" d="M496.77,476.39c.05.26,0,.23,0,.08v-.07S496.78,476.41,496.77,476.39Z"/><path class="cls-1" d="M496.8,476.4s-.06-.22,0,0Z"/><path class="cls-1" d="M496.69,476.57v-.24c0-.16-.07-.19-.08-.31A1.62,1.62,0,0,0,496.69,476.57Z"/><path class="cls-1" d="M496.73,477.07V477C496.72,476.9,496.71,476.88,496.73,477.07Z"/><path class="cls-1" d="M496.74,476.75V477c0,.11.05.33,0-.07C496.77,477.09,496.75,476.89,496.74,476.75Z"/><path class="cls-1" d="M496.78,476.85a1.2,1.2,0,0,1,.09.48C496.93,477.23,496.84,476.75,496.78,476.85Z"/><path class="cls-1" d="M497.25,478.55l.07.2,0-.23C497.31,478.63,497.22,478.34,497.25,478.55Z"/><path class="cls-1" d="M496.4,476.23c0,.15.07.39.1.57v-.16A1.86,1.86,0,0,1,496.4,476.23Z"/><path class="cls-1" d="M496.5,476.8v.26S496.53,477,496.5,476.8Z"/><polygon class="cls-1" points="496.85 477.82 496.83 477.29 496.83 477.83 496.85 477.82"/><polygon class="cls-1" points="496.24 476.23 496.21 475.89 496.25 476.4 496.24 476.23"/><path class="cls-1" d="M496.14,476.3c0-.28-.09-.47-.1-.64a2.62,2.62,0,0,0,0,.5C496.05,476,496.08,476.07,496.14,476.3Z"/><path class="cls-1" d="M496.05,476.48c0-.07,0-.19,0-.32C496,476.23,496,476.32,496.05,476.48Z"/><path class="cls-1" d="M496.42,477a3.06,3.06,0,0,0-.1-.41l.08.41Z"/><path class="cls-1" d="M496.4,477h0l0,0Z"/><path class="cls-1" d="M496.42,477h0S496.43,477,496.42,477Z"/><path class="cls-1" d="M496.67,477.46a3.15,3.15,0,0,0,.11.83C496.75,478,496.69,477.81,496.67,477.46Z"/><path class="cls-1" d="M496.52,477.5l.06.09c0-.11-.05-.26-.06-.38Z"/><polygon class="cls-1" points="496.52 477.63 496.52 477.5 496.5 477.47 496.52 477.63"/><path class="cls-1" d="M496.18,476.86c0,.18,0,.19,0,.22s.07.12.1.12S496.21,476.84,496.18,476.86Z"/><path class="cls-1" d="M496.29,477v0S496.31,477,496.29,477Z"/><path class="cls-1" d="M495.92,477.1v0Z"/><path class="cls-1" d="M496.26,477.27c0,.08,0,0,0-.15a.16.16,0,0,1,0,.08C496.25,477.26,496.26,477.29,496.26,477.27Z"/><path class="cls-1" d="M496,476.68c0,.08.05.15.07.22C496.05,476.77,496,476.57,496,476.68Z"/><path class="cls-1" d="M496.27,476.87v0C496.25,476.77,496.26,476.81,496.27,476.87Z"/><path class="cls-1" d="M496.27,476.87c0,.06,0,.16,0,.25a.49.49,0,0,0,0-.14Z"/><path class="cls-1" d="M496.21,479.72c0-.38,0-.73.06-.33a21.6,21.6,0,0,0-.34-2.22,3,3,0,0,1,0,.55,3.26,3.26,0,0,1,.18.82c0,.19-.07-.13-.13-.33.1.47,0,.69.13,1.38l0-.25C496.18,479.45,496.18,479.62,496.21,479.72Z"/><path class="cls-1" d="M496,477.2v0a3.3,3.3,0,0,1-.13-.51,3,3,0,0,0,0,.45l.1,0Z"/><path class="cls-1" d="M496.11,477.15a9.89,9.89,0,0,0,.12,1s0-.35,0-.53c-.08.11,0-.23-.11-.46a.3.3,0,0,1,0-.11,1.71,1.71,0,0,1-.07-.18v0h0c0,.05,0,.08,0,.05h0l0,.16a.34.34,0,0,1,0-.16v-.06h0l-.06.24S496.08,477.2,496.11,477.15Z"/><path class="cls-1" d="M496.87,479.17l0-.09C496.85,479.13,496.85,479.16,496.87,479.17Z"/><path class="cls-1" d="M496.79,478.93c0-.06,0-.22,0-.18a2.88,2.88,0,0,1,.05.33,1.78,1.78,0,0,0-.07-.5v.06a6.47,6.47,0,0,1-.19-.71C496.66,478.3,496.71,478.57,496.79,478.93Z"/><path class="cls-1" d="M496.46,478.14l0,.21.09.35,0-.21C496.53,478.57,496.48,478.31,496.46,478.14Z"/><polygon class="cls-1" points="495.88 476.89 495.83 476.46 495.87 477.07 495.88 476.89"/><polygon class="cls-1" points="495.79 476.95 495.74 476.57 495.75 476.8 495.79 476.95"/><path class="cls-1" d="M490.68,481.88l0,.11A.43.43,0,0,0,490.68,481.88Z"/><path class="cls-1" d="M490.85,481.9v-.18A.45.45,0,0,0,490.85,481.9Z"/><path class="cls-1" d="M493.51,477.13c-.07-.35-.15-.9-.11-.47l.05.41C493.46,477,493.48,477,493.51,477.13Z"/><path class="cls-1" d="M492.09,479.67v0Z"/><path class="cls-1" d="M492.17,481.39l-.06-.26Z"/><path class="cls-1" d="M489.77,482.32l0,.43C489.8,482.74,489.77,482.53,489.77,482.32Z"/><path class="cls-1" d="M494.86,477.17c-.05-.16-.08-.23-.1-.24C494.82,477.16,494.89,477.52,494.86,477.17Z"/><path class="cls-1" d="M494.68,476.93l0,.1c0-.07,0-.13.05-.1C494.72,476.75,494.68,476.64,494.68,476.93Z"/><path class="cls-1" d="M495.39,476.8s0-.05,0,0Z"/><path class="cls-1" d="M495.71,478.43c0,.05,0,.11,0,.2C495.72,478.53,495.71,478.47,495.71,478.43Z"/><path class="cls-1" d="M494.78,479.53h0C494.8,479.61,494.79,479.59,494.78,479.53Z"/><path class="cls-1" d="M495.45,477c0-.05,0-.1,0-.13A.93.93,0,0,0,495.45,477Z"/><path class="cls-1" d="M495.42,476.79l0,0C495.43,476.76,495.43,476.72,495.42,476.79Z"/><path class="cls-1" d="M495.37,476.82l0,0a.21.21,0,0,1,0-.06Z"/><path class="cls-1" d="M493.35,481.47v0h0Z"/><path class="cls-1" d="M493.3,481.78c0-.51,0-.45.05-.34l-.13-1.2Z"/><path class="cls-1" d="M495.74,478c0-.3,0-.92.06-.74-.11-.58,0,.06-.14-.61.15.84-.15,0,0,.86-.15-.79-.12-.33-.26-1,0,.2.07.37,0,.28V477h0v0s0,0,0,0,0,.18.06.29a2.77,2.77,0,0,1,0,.67c0-.09,0-.23-.06-.43v.35a4.71,4.71,0,0,1-.13-1h-.06c-.07-.24-.13-.34-.13-.15,0-.09,0,.48,0,.14l-.06.27v-.11c-.1,0-.1.73-.3,0,0,.11,0,.24-.1.12l-.05-.37c0,.14-.16-.36-.13,0-.16-1-.22-.21-.3-.39l.05.49c-.05,0-.08.12-.12.31l.05.43c0,.36-.17-.3-.24-.25,0-.16,0-.12,0,0-.2-1-.14.71-.29,0,0,.16,0,.11-.06,0s0,0,0,0h0l-.05-.23a1.44,1.44,0,0,0,0,.23.58.58,0,0,0-.05.18l-.05-.47v0c0-.17,0,.22.05.56a2.35,2.35,0,0,0,0,.28c-.09-.74,0,.26-.14-.54,0,.36-.08.31,0,.95,0-.09-.07-.18-.08.05l-.06-.59v.8a5.11,5.11,0,0,1-.1-1c0,.7-.05.26-.07.95l0-.37s0,.52-.07.21c-.11-.72-.31-.09-.51-.76.11,1.12-.11-.49-.05.37a3.66,3.66,0,0,1-.05-.64c-.07.26-.15-.42-.16.31,0-.26,0-.38,0-.54,0,.06,0,.23,0,.07a1.8,1.8,0,0,1,0-.33,6.76,6.76,0,0,0,0,1.62c-.06-.36-.08-.31-.08.19a1.56,1.56,0,0,1,0-.6s-.2-.36-.17.25c0-.15,0,0,0,0s-.08-.09-.14,0l0,.1c0,.74,0,.16-.09.25v-.07c-.14-.53,0,.25-.18-.35l0,.46c0,1-.13-.58-.18-.21l0,.27c0,.34-.16-1.35-.2-1.47a.62.62,0,0,1,0-.2c-.12-.58,0,.6-.05.74a4.91,4.91,0,0,0-.07-.88c0-.27-.09,1.05-.18.43a2.73,2.73,0,0,1,0,.69c0,.09-.17-.95-.18-.16a1.37,1.37,0,0,1,0-.19,3.5,3.5,0,0,0-.12.76c-.09-1.58-.22.78-.26-.69l-.12.08v-.15c-.08-.09-.1.26-.12.61a1.68,1.68,0,0,1,0-.31c-.11-.3-.12-.24-.2.49l0-.47c0,.27-.17-.75-.27-.2a1.62,1.62,0,0,1,0-.21c-.12.56-.31-1.32-.34.41l-.08.43c.11.13,0,.75,0,1,0,.1-.11-.53-.06-.62V479c0-.9-.14-.32-.14-.94-.2,0-.4-.46-.59-.5v.7l-.06,0c0-.16,0-.55,0-.52,0-.4-.09.33-.09.49a2.92,2.92,0,0,1,0-.84l0,.05v.08c0,.29,0,.59-.09.56a3,3,0,0,1,0-.46c0-.05,0-.08,0,0l-.09-.06,0,.55c0,.27-.08,0-.05.6,0-1-.31-.36-.34-.66-.06.4-.12.39-.18.34,0,.12,0,.74-.05.66a3.72,3.72,0,0,0-.1-1.28v0c0,.27-.15.06-.12.8a4.54,4.54,0,0,1,0-.68l-.41.38v0l-1.25,1.15c0,.43,0,.87,0,1.32.11-.81.08,1.21.24.06,0,.19,0,.29,0,.5,0-.39.08-.47.12-.29v.1c.15-.09.19.3.35.57v-.46a1.39,1.39,0,0,1,0,.32c.08-.68-.1,0,0-.8,0,.93.25,0,.24,1.08.05,0,0-.53.06-.52v.28l0-.36a2.91,2.91,0,0,1,0,.66s0,.06,0,.08c0,.32.12,0,.15,0l0-.16c.17-.26.34.12.5-.45v-.22c.12-.39.08.24.21.06v.05c0-.21.07-.32.1-.29,0,.25.05.49,0,.76a4.75,4.75,0,0,0,.17-1.12v.35a1.56,1.56,0,0,1,.1-.58c-.06.31,0,.55,0,.95.11.78.2-.78.24.36.08-1-.1-.55-.06-.76s.06-.74.1-.64.05,1.26.15,1.25,0,.07,0,.06c0,.25.08-.34.12.07,0-.59.06,0,.08-.72l-.1.17c.06-.19.12-1.08.2-.65,0,.15,0,.35-.06.47s0-.15.08.08c0,.76-.12.16-.18.74,0,.32.11-.55.08.27.05-1,.1.14.17-.66v.46c0-.07,0-.29.05-.28l0,.59c.06-.5.11.45.17.17-.12,0,0-.55-.07-.88.14-.61.07,1.19.23,1,0,.06-.08-.28,0-.49a2.39,2.39,0,0,1,.09.51c.1-.09,0-.47,0-.75,0,.56,0-.22.1-.4v.46c.12.3,0-1,.14-.6l0,.64.06-.17v.53c.06-.39.08-.29.14-.14a2.56,2.56,0,0,1,.05-.85c0,.27,0,.44.06.37,0,.29,0,.65-.06.23,0,.15,0,.29,0,.44,0,.31.1.07.12.07a.39.39,0,0,1,0-.11l.11-.64a3.26,3.26,0,0,1,0,.45,2.21,2.21,0,0,1,.07-.3,7.59,7.59,0,0,1,0,.94l.09-.42c0,.16.06.45.05.59s.13-.73.22-.44a.65.65,0,0,1,0-.2c.07.09.15.55.22,0l.07.67c.06-.15-.09-.85,0-1.1s0,.57.08.76c0-.34.08-1,.17-.48,0,.12,0,0-.07.07l.07.38a2.72,2.72,0,0,0,0,.93c0-1.31.22-.14.18-1.44l.05.27s0,.07,0,.05c.09.63,0-.94.12-.75a1.18,1.18,0,0,1,0,.44l.06-.32a.53.53,0,0,1,0,.22l.1-.1v0c0-.21,0-.52,0-.66,0,.19,0,.14,0,.3l.05-.31c0,.34,0,.66,0,.61.11,1.3,0-.32.19.44l0,.16a3.93,3.93,0,0,0,.18.93,8.49,8.49,0,0,1-.13-1.48c0,.09.05.14.08-.12,0,.46.05.35.09.32l0,.61a7.59,7.59,0,0,0,0-.76,4.55,4.55,0,0,1,.11.93c.09.1-.09-.76,0-.88.08.24.12,0,.18-.38a3.65,3.65,0,0,1,0,.55v-.49a.69.69,0,0,1,0,.23c0-.19,0-.61,0-.78,0-.67.17,1,.19.22a5.4,5.4,0,0,1,0,.61,7.61,7.61,0,0,0,.1-1l.09.4a6.49,6.49,0,0,1,0-1.46l-.08-.51.07-.33c0,.1,0,.31,0,.57v-.15a6.19,6.19,0,0,1,.05.93l-.06-.38c0,.37,0,.79,0,1.14a.57.57,0,0,1,0-.16,1.78,1.78,0,0,0,0,.25c0,.07,0-.07,0-.23l.06.69v-.28l.14.43a14.64,14.64,0,0,1,.14-2c0,.5.05.82.09,1.41-.08-.63-.08.27-.15.14a1.3,1.3,0,0,1,0,.45l.08-.57a1.6,1.6,0,0,0,.1.56c-.09-1,0-.64.07-.94,0,.32,0,.65,0,.58.12.72,0-1.13.11-.52,0,0,0,0,0,.12,0-.28.11-.06.12.22h0c.11.11.29,0,.24-.82,0,.1.07,1,.08,1.15l-.07-2.75c.05.7.25,2.36.2,2.76,0,.1.07.22.1,0a8.42,8.42,0,0,1-.11-1.08c.12.78.07.42.2,1.08a8.05,8.05,0,0,1-.06-1.22c0,.17.09,1.09.09,1.2v-1.08a10.19,10.19,0,0,0,.12,1.22c0-.21.08,0,.1-.09l-.06-.25c.11.16,0-1.52.06-1.47a10.89,10.89,0,0,0,.17,1.5c0-.55-.16-2.65-.11-3.08l0,.31,0-.36c.05.83.1,2.58.1,3.27.06.24.05.37.1.34a1,1,0,0,1,0,.46l.15.19c-.07-.64,0-.65,0-1.19l-.08.68a5.47,5.47,0,0,1,0-1.73c.05.26.1,1.15.12,1.37,0-.23.05-.43.08-.28v.35c.08.24,0-.86.13-.25,0,0,.15.83.11.45-.11-.73-.36-3-.39-3.56,0,.05.18.7.25,1.06.09.57.09,1.37.18,1.87,0-.18,0-.4,0-.47,0,.15.05.55.1.47-.07-.66.1,0,0-.56,0-.19.07.13.12.1a11.26,11.26,0,0,1-.09-1.62c0,.16.06.38.07.48s.19.34.29.34a4.64,4.64,0,0,1,.1.63,1.18,1.18,0,0,1,0-.36c.12.56-.06.1.07.77a3.63,3.63,0,0,1,0-.77c-.08-.58-.11-.1-.12.14a10.2,10.2,0,0,1-.08-2c.05-.2.09.52.09.4.16.14-.06-1.41.13-.84s.14,1,.19,1.4c0,.19-.13-.32-.17-.3l.08.24c0,.17,0,.3-.06.16.09.45.25.07.41.49a2.7,2.7,0,0,0,0-.56l0,.07c-.08-.41,0-.58-.08-.77s0-.75.09-.52l.09.58c0-.17-.09-.34-.08-.16,0-.27.21.78.13,0Zm-4.7,3.78c0-.53,0-.28,0-.12S491.06,482.09,491,481.82Zm2.25-3.48a1,1,0,0,0,0,.17C493.29,478.4,493.28,478.35,493.29,478.34Z"/><path class="cls-1" d="M492.26,480.56c0,.15,0,.08-.06-.1S492.23,480.44,492.26,480.56Z"/><path class="cls-1" d="M495.23,477.19v0C495.17,477,495.19,477.11,495.23,477.19Z"/><path class="cls-1" d="M495.32,477.39a1.36,1.36,0,0,0,0-.2c0,.12,0,.13,0,.1S495.31,477.49,495.32,477.39Z"/><path class="cls-1" d="M492.16,481.2l0-.26A1.18,1.18,0,0,0,492.16,481.2Z"/><path class="cls-1" d="M489.78,482.25h0v0Z"/><path class="cls-1" d="M494.7,481.36a1.32,1.32,0,0,1-.05-.23A.49.49,0,0,0,494.7,481.36Z"/><path class="cls-1" d="M495.57,476.58l0,.12s0,.07.06.15C495.59,476.74,495.56,476.58,495.57,476.58Z"/><path class="cls-1" d="M496.35,479.4c0-.06,0,0,0-.07l0-.21S496.31,479.31,496.35,479.4Z"/><path class="cls-1" d="M495.82,478.1c.06.39.07.26.09.18s0,0,0,0C495.84,477.74,495.83,477.92,495.82,478.1Z"/><path class="cls-1" d="M495.91,478.27s0,0,0,0C495.91,478,495.92,478.21,495.91,478.27Z"/><path class="cls-1" d="M495.37,477.12c0,.1-.06-.49,0-.34C495.29,476.29,495.33,477.39,495.37,477.12Z"/><polygon class="cls-1" points="496.02 479.38 495.94 478.9 495.98 479.29 496.02 479.38"/><path class="cls-1" d="M495.73,479.05l.06.13a1.23,1.23,0,0,1,0-.17S495.71,478.9,495.73,479.05Z"/><path class="cls-1" d="M495.78,479s0,0,0-.08A.15.15,0,0,0,495.78,479Z"/><polygon class="cls-1" points="495.97 479.53 495.94 479.43 495.9 479.4 495.97 479.53"/><path class="cls-1" d="M495.18,479l0,.14c0,.16,0,.26.05.2A1.33,1.33,0,0,0,495.18,479Z"/><path class="cls-1" d="M495.51,480.29c0-.1,0-.2-.07-.36l.07.59Z"/><path class="cls-1" d="M495.36,480.44c0,.16,0,.48,0,.44S495.43,480.57,495.36,480.44Z"/><polygon class="cls-1" points="494.44 479.74 494.45 479.73 494.34 478.75 494.44 479.74"/><path class="cls-1" d="M493.92,482.11c.09.23,0-.6.05-.32,0-.23-.07-.23-.07-.43A1.78,1.78,0,0,0,493.92,482.11Z"/><path class="cls-1" d="M493.9,481.36v-.15A.74.74,0,0,0,493.9,481.36Z"/><path class="cls-1" d="M491.27,483v-.15c0-.16,0-.17,0-.2Z"/><polygon class="cls-1" points="490.65 482.49 490.66 482.5 490.62 481.94 490.65 482.49"/><path class="cls-1" d="M490.16,483.21s0-.1.07-.08S490.14,482.51,490.16,483.21Z"/><path class="cls-1" d="M370.32,504.79a.74.74,0,0,0,.07.21A.39.39,0,0,0,370.32,504.79Z"/><path class="cls-1" d="M407.87,469.63l.15.09c.2,0,.24,0,.33-.06Z"/><path class="cls-1" d="M429.1,486.57a1,1,0,0,0-.05-.22A.4.4,0,0,0,429.1,486.57Z"/><path class="cls-1" d="M423.32,517.34c.17-.14.2-.4.37-.54C423.49,517.2,422.57,517,423.32,517.34Z"/><path class="cls-5" d="M749.54,664.8c-2.61-29.11-17.53-55-32-80.09-5-8.64-9.69-16.83-13.94-25.15l2.54.73c18.37,5.29,32.87,9.47,46.94,25.24l3.92,4.4-2.38-5.39C723.41,513.68,670.35,417.82,615.36,347a2.11,2.11,0,0,0,0-.26,12.61,12.61,0,0,1-2.2.44l.41.51c4.29,59.24-29.22,108.62-61.7,156.47C532.64,532.5,514.5,559.24,503.46,588l-.51,1.33,1.42-.07c18.45-.88,37.74-3.78,54.35-18.43-4.6,17.89-13.32,34.6-21.76,50.79-12.06,23.1-24.52,47-25.16,74.58l0,1,1-.08c13.88-1.1,29.05-2,45.11-3,62-3.7,139.18-8.31,191-28.43l.65-.26ZM557.8,692.33c-15.67.93-30.5,1.82-44.11,2.88.91-26.73,13.11-50.11,24.91-72.73,9-17.19,18.24-35,22.65-54.21l.7-3-2.25,2.17c-15.39,14.82-32.76,18.79-54,19.93,11-28.06,28.83-54.32,47.68-82.1,32.16-47.39,65.32-96.27,62.19-154.9,53,68.81,104.08,160.56,135.2,230.06-13.25-13-27-17-44.09-21.89l-4.58-1.33-2.05-.6,1,1.91c4.52,9,9.82,18.25,15,27.16,14.22,24.69,28.91,50.21,31.66,78.63C696,684.07,619.42,688.64,557.8,692.33Z"/><path class="cls-5" d="M583.92,620.05l28.62-5.53c-2.19-13.73-4.5-27.37-13.34-40.43C600.11,590.68,586.33,607.55,583.92,620.05Z"/><path class="cls-5" d="M664.67,599c-1,10.69-18.17,37.51-20.19,40.26l36.49-.45C678.28,627.85,669.14,609.53,664.67,599Z"/><path class="cls-1" d="M644.4,639.22c-.18.32-.14.3.08,0Z"/><path class="cls-5" d="M652.69,506.45c-4.14,11.57-12,26-14.44,37.09l33.35-.92C667.8,528.75,662.14,516.18,652.69,506.45Z"/><path class="cls-5" d="M595.6,486.42c-5,5.64-22.16,37.47-22.61,38.14l33.91.35C603,519.37,603.7,489.2,595.6,486.42Z"/><path class="cls-1" d="M573,524.56Z"/><path class="cls-5" d="M627.71,427.8c-1.06,11.84-14.06,35.91-14.24,36.74l34.29-1.89C642.94,455.52,633.17,434,627.71,427.8Z"/><path class="cls-5" d="M648.52,788.32c2.92.07,5.84.16,8.76.25,2.28-.16,4.57-.3,6.85-.45a97.33,97.33,0,0,0,.45-14.79c-1.19-31.26-8-61.29-7.44-91.3-12.76,2.08-25.45,4.49-38.22,6.24,2.72,31.87-3.41,66.72-8.7,99.75C623,787.89,635.77,788,648.52,788.32Z"/><path class="cls-3" d="M458.15,218.57c-1.19-6,.8-13.57,1.2-22.75,1.2-9.19,1.2-17.57,2.39-26.75l1.6-21.56c.4-.79.4-2.39.4-4.39-.4-2.79-2-3.59-4.39-2.79a17.32,17.32,0,0,0-6.78,2.79l-17.15,8.39c-1.2.39-1.6.79-2,.79q-6,2.4-8.37-3.59l-4.39-12.37c-1.2-4.39-2.39-8.39-4-12.78l-1.6-7.58a7.58,7.58,0,0,1,3.2-8.39l39.88-33.53c2.8-2,4-4,6.78-6a18.5,18.5,0,0,1,6.39-2.79l25.52-1.2a128.73,128.73,0,0,1,17.56.4c5.18,0,7.57,2.4,7.57,7.59a298.74,298.74,0,0,1,1.6,32.73c.4,9.18-.4,16.77-.4,26,0,4.79.4,10,.4,14.77,0,10-.4,19.56-.4,29.54,0,15.57.4,30.34.8,45.9,0,4.4-.4,8-.4,11.58,0,8,.4,15.57,0,23.55,0,6-.4,12-.4,18-.4,5.19,0,10-.4,15.17a106.26,106.26,0,0,1-2,22.35c-1.2,6-2.79,7.59-8.78,8.78l-21.54,3.2c-6,1.2-11.17,1.59-17.15,2.79-4.79,1.2-7.18-2-8.38-5.59s-1.19-7.58-1.59-11.17c-1.2-8.79-2-17.57-2.39-26.75-.4-4.39-.4-8.78-.4-13.17L459,241.32Z"/><path class="cls-3" d="M613.31,121.17c-8.37.4-17.15.4-25.53,1.59h-6c-6,0-7.18-2-7.18-6.78L573,84.44a70.5,70.5,0,0,1-.4-9.18c0-4.39,2-6.79,6-7.59l17.95-3.19c10.77-2,20.34-4.39,30.32-6.39a62.38,62.38,0,0,1,12.36-1.19l15.56-.8c6-1.2,11.56,0,17.55,1.6a51.2,51.2,0,0,0,6,2c9.57,2,16.35,7.59,22.34,15.17a82.37,82.37,0,0,1,14.76,28.74,40.68,40.68,0,0,1,1.19,10c.4,4.39,0,8.78,0,13.18a26.57,26.57,0,0,1-2.39,13.57l-8,17.56c-2.79,5.19-2.39,6.79,2,10a79.5,79.5,0,0,1,11.16,8c7.58,6.38,10.77,14.77,14.36,23.95,3.59,10.78,3.2,20.36,2,31.13-1.2,12.38-5.19,23.56-11.17,34.34-5.19,9.58-11.17,18.76-19.15,26.74-3.59,4.39-6.38,8-10.77,11.58-7.57,6.78-16.35,10.38-25.92,12.37-9.18,2-17.15,3.6-26.33,3.2-4.39-.4-8-.4-11.57-1.6-2,0-3.59-.4-5.58-.4-11.17,1.2-22.34-2-33.11-4-12.76-2.8-24.73-8-36.3-14-1.19-1.2-2.79-1.6-4-2.8-3.59-2.79-4.39-6.38-2.8-10l4-9.58,5.19-13.57a101.85,101.85,0,0,1,4.39-9.58l4-8.78c2-4.39,5.19-5.59,9.58-4,9.17,2.8,17.95,4.79,27.12,7.59a43.35,43.35,0,0,0,10.37,1.2c4.39.4,8.78,0,13.17.4,9.57,0,18.34-2,27.52-4a29.94,29.94,0,0,0,15.55-10c3.59-4.79,5.59-14,1.2-20.75-6-8.39-14-13.58-24.73-13.58-7.58,0-15.16.8-22.74,1.2-.39,0-.39,0-.79.4-6.39.4-8.38-2-8-8.38,1.2-6,.4-11.18.8-17.17,0-3.19-.4-6.38,0-9.58q0-4.78,4.78-6c2.8-1.19,6-1.19,8.78-1.59,8-.4,15.16-3.6,21.54-8,6.38-4.79,8-14,2-20.36-3.59-4.39-8.37-8-14.36-9.18-4.38-1.2-8.77-1.2-13.56-1.59-3.59-.4-7.18,0-11.57,0Z"/></g></g></svg>