<svg xmlns="http://www.w3.org/2000/svg" viewBox="0 0 832.5 832.5"><defs><style>.cls-1{fill:#ffffc5;}.cls-2{fill:#deaa7c;}.cls-3{fill:#5e4440;}.cls-4{fill:#e55747;}.cls-5{fill:#76b099;}</style></defs><g id="Layer_2" data-name="Layer 2"><g id="Layer_1-2" data-name="Layer 1"><rect class="cls-1" width="832.5" height="832.5"/><path class="cls-2" d="M661.16,711.49c26.6,5,67,21.42,67,55.42,0,32.73-51.13,17.54-78.72,23.44Z"/><path class="cls-2" d="M658,446.42c-22.41-13.29-98.83-58.52-122.62-67.74-20-7.74-45.35-23.37-67.12-24.83-26.54-1.77-45.88,16.22-70,23.37-28.05,8.29-57.69,9.87-86.09,17.88-61.28,17.29-136.42,27-178.26,80C84.12,538,78,643.49,85.9,721.91c3.2,31.71,11.24,68.2,43.15,76,66.65,16.36,470.91-8.2,538.63-8.55Z"/><path class="cls-3" d="M714,377.57l-.08-.93-.93,0c-37.15,1-97.27,30.54-121.39,43.2-11.29,5.93-17.22,9.69-20.42,15.05s-3.49,11.73-4.12,23.46c-.11,2-.23,4.2-.37,6.56-.12,2-.21,4.46-.31,7.05-.35,9.39-.86,22.76-3.53,32.54a8.34,8.34,0,0,1,.92.41,9.47,9.47,0,0,1,.93.37c2.79-9.9,3.29-23.16,3.67-33.25.1-2.57.19-5,.31-7,.14-2.37.26-4.55.37-6.58,1.22-22.84,1.35-25.23,23.48-36.85,23.79-12.49,82.77-41.5,119.57-42.94,2.08,26.71-4.42,60.58-17.06,88.67-10.77,23.92-30.88,31-52.17,38.51-10.56,3.73-21.47,7.57-32.05,13.6l1,1.73c10.42-5.94,21.26-9.76,31.73-13.45,21.7-7.65,42.2-14.87,53.32-39.58C709.73,439.46,716.31,404.74,714,377.57Z"/><path class="cls-2" d="M566,518.8c8.43-4.53,8.46-27.53,10.29-36.9,2.05-10.47-.46-24,3.15-33.88,11.44-31.22,60.51-44.68,88.21-55.18,12-4.55,24.35-8.71,37.37-7.93,1.56,31.27-11.06,71.19-33.92,92.56-12.92,12.07-27,18.16-41.51,27.74-12.15,8.05-28.05,14.1-34.17,28.32Z"/><path class="cls-3" d="M606.15,787.21c13.71,16.23,46.45,31.61,66.1,37.6-2.23-2.72-4.67-5.77-6.7-8.61,5.63,2.07,13.25,1,18.38,2.68-8.48-17-24.46-28.9-31.09-46.28Z"/><path class="cls-3" d="M619.63,518.47c3.93,1.72,7.47,3.43,10.66,5.14a16.14,16.14,0,0,1,.09-2.21c-3-1.59-6.33-3.16-10-4.75-14.67-6.43-31.71-8.57-48.19-10.64-18.92-2.37-36.79-4.62-50.94-12.83l-1,1.72c14.51,8.42,32.57,10.69,51.7,13.09C588.33,510,605.23,512.16,619.63,518.47Z"/><path class="cls-3" d="M664.76,616.26c3.57,59.11.7,116-2.42,165.73-17.11,6.91-40.23,7.84-62.59,8.73-12.45.5-24.21,1-34.6,2.44-30.38,4.31-61.72,4-92,3.76-8.32-.07-16.93-.14-25.38-.13-5.85,0-12.21.15-18.94.3C376.51,798.21,304.88,799.75,300,748c-3.77-39.93,8.27-45.12,23.51-51.7,9.44-4.07,20.13-8.69,28.33-22.48,7.1-12,14.22-26.42,21.75-41.72,14.07-28.6,28.63-58.17,45.85-77.53,11.45-12.88,26.5-25.45,43.53-36.37,9.33-6,22.87-9.77,34.81-13.11,9-2.54,16.85-4.73,20.67-7.35l-1.13-1.64c-3.55,2.44-11.2,4.58-20.07,7.07-12.08,3.38-25.78,7.22-35.35,13.36-17.18,11-32.38,23.71-43.95,36.72-17.4,19.56-32,49.25-46.15,78-7.51,15.27-14.61,29.69-21.67,41.58-7.87,13.24-18.25,17.72-27.4,21.67-15.36,6.63-28.62,12.35-24.71,53.72,1.19,12.62,6.36,23,15.38,30.82,7.9,6.87,18.56,11.83,32.59,15.18,17.74,4.24,38.6,5.19,58.28,5.19,8.53,0,16.84-.18,24.58-.34,6.72-.15,13.07-.28,18.9-.3,8.45,0,17.05.06,25.36.13,30.38.27,61.79.55,92.32-3.77,10.29-1.46,22-1.93,34.4-2.43,22.79-.91,46.35-1.85,63.84-9.11l.58-.24,0-.62c3.14-50,6.06-107.26,2.45-166.8A11,11,0,0,1,664.76,616.26Z"/><path class="cls-3" d="M668.32,619.44c-9.54,0-20.53-.67-33.78-1.74l.16-2c57.54,4.65,79,2.54,112.87-40.52,4.27-5.43,11.77-12.89,20.46-21.54,20.73-20.62,49.12-48.86,49.55-66.84.16-6.64-1.63-11.27-5.47-14.16-11.12-8.35-37.46,0-56.7,6.14-7.42,2.36-13.82,4.39-18.47,5.25-7.88,1.47-17.53,2.23-27.76,3-24.3,1.91-51.84,4.08-66.91,16.46-13.83,11.35-15.89,33.13-17.71,52.34-1.2,12.57-2.32,24.45-6.58,32.11l-1.74-1c4.06-7.29,5.16-19,6.34-31.33,1.85-19.6,4-41.81,18.42-53.69,15.56-12.77,43.43-15,68-16.9,10.17-.8,19.77-1.56,27.55-3,4.53-.84,10.88-2.86,18.22-5.2,20.75-6.59,46.57-14.8,58.5-5.83,4.34,3.25,6.45,8.57,6.27,15.8-.45,18.78-28,46.18-50.13,68.2-8.65,8.6-16.11,16-20.31,21.37-17.5,22.24-31.65,33.51-48.84,38.91C690.94,618.28,680.89,619.44,668.32,619.44Z"/><path class="cls-2" d="M801.36,482.81c-27.4-3.22-56.51,10.68-83.52,14.47-24.48,3.44-61.12,3.83-73.48,30.58-4.49,9.7-3.36,21.17-5.67,31.44-1.46,6.5-4.31,13.65-7.08,20.49,4.5,12,8.86,24.06,12.79,36.26,24-.82,50,3.74,68.76-11.49,15.7-12.72,30.67-31.18,44.07-46.4,13.19-15,26.25-29.44,40.46-43.61C806.69,505.59,820.47,485.06,801.36,482.81Z"/><path class="cls-4" d="M626.89,597.42c.17.56.34,1.12.5,1.68,1.16,3.91,2.25,7.85,3.3,11.8,36.57-11,73.58-34.38,92.77-71.2C682,524.84,647.74,564.86,626.89,597.42Z"/><path class="cls-4" d="M516.21,736.58c-3.54,6.11-5.63,13.72-6.38,21.44,11.58,3.11,24.87,4.86,37.06,2.85,4.15-8.07,2.53-16.24-.61-22.89A16.94,16.94,0,0,0,516.21,736.58Z"/><path class="cls-3" d="M526.64,692.64c-3.09,6-3.67,13.33-2.48,20,3.52.07,7.21.07,10.73,0,6-10.33,2.92-12.59-2.41-17.08Z"/><path class="cls-3" d="M348.18,709.66a55,55,0,0,0,0-10.73c-19.68-.92-39.19,3.85-57.93,2.48h-2.92a28,28,0,0,0-2.47,20c6.46-.71,13.84-1.55,21.47-2.62-5.39,14.81-10.76,36.88-3.3,53.54l3.63-1.63c-7.39-16.51-.62-39.89,4.16-52.56C324,716.16,337.5,713.49,348.18,709.66Z"/><path class="cls-1" d="M268.76,422.59C255.57,438,258.88,466,245.14,481.2l40.8-15C277.54,452.86,277.49,433.69,268.76,422.59Z"/><path class="cls-1" d="M372.51,500.39l40.79,4.3c-8.58-12.64-12.54-27.74-18.84-40.8C390.1,477.27,381.38,489.47,372.51,500.39Z"/><path class="cls-1" d="M398.39,397.38c-8.32,13.49-13.58,30.35-19.76,45l42.94-8.59C413.94,422.34,408,407,398.39,397.38Z"/><path class="cls-1" d="M330.44,413.23c-5.84,7.25-7.73,18.39-15,24l32.21-2.15C338.9,431,334.81,421.26,330.44,413.23Z"/><path class="cls-1" d="M526,402.1c-3.43,7.34-8,13.35-15,17.17l32.2,8.59C536.81,420.44,534.38,407.32,526,402.1Z"/><path class="cls-1" d="M468.11,365.63c-6.31,8.49-11.65,19-19.79,25.77l27.91,2.14C476.88,383.53,474.83,372.56,468.11,365.63Z"/><path class="cls-1" d="M232.08,554.29h23.61c-6.07-8.67-11.45-20.51-18.82-27.85C233.59,535.53,233,544.4,232.08,554.29Z"/><path class="cls-1" d="M135.18,516.11a22.94,22.94,0,0,1-9,17l23.61-4.3C146,523.68,139.57,518.68,135.18,516.11Z"/><path class="cls-1" d="M307.62,503.76l32.2-2.15c-4.92-7.1-10.55-17.67-16.8-25.17C320.64,486.71,316.24,497.6,307.62,503.76Z"/><path class="cls-1" d="M206.87,463.36c-4.46,8.91-5.38,20.57-11.06,29.47l40.79,4.29C224.17,488.81,217.33,474.11,206.87,463.36Z"/><path class="cls-1" d="M475.33,449.26,503.24,460c-7.89-8.16-11.18-23.26-15.61-34.41C483.27,432.26,480.48,442.19,475.33,449.26Z"/><path class="cls-1" d="M155.43,601.82,185.49,604a205.63,205.63,0,0,0-19.41-26.24C161.69,584.28,158.29,598,155.43,601.82Z"/><path class="cls-1" d="M410.18,578.17c10.88-2.41,20.06-9.57,29.46-15,2.17,7.06-.39,21.79-3.89,28.18Z"/><path class="cls-1" d="M400,616.64c8-.71,14.35-6.72,22.17-7.84.41,8,.8,16.26-1.35,23.87Z"/><path class="cls-1" d="M476.64,574.07c10.36-2.24,25.88-11.94,35.65-15.54.59,10.58-1.81,28.53-1.81,39.18Z"/><path class="cls-1" d="M464.49,528c6.05-2.57,11.45-7.28,17.34-9.43.34,5,.85,10.72.28,15.84Z"/><path class="cls-1" d="M517.56,531.26c10.64-.49,19.3-9.69,28.58-12.65,1.07,5.33-5.53,22.15-7.5,26.82Z"/><path class="cls-1" d="M378.24,648.43c3.75-2.37,9.95-5.84,14.06-7.8a16.05,16.05,0,0,1,2,11Z"/><path class="cls-1" d="M470.9,621c7-1.23,13.53-5.67,20.53-7.93,2.93,7.65,1.85,15.86,1.89,24Z"/><path class="cls-1" d="M571.8,566.5c7.2-.08,14.54-7.69,22.18-9.53.59,9.49.24,19.2.24,28.76Z"/><path class="cls-3" d="M116.24,784.92l-1.38.88c-10.6,6.78-23.8,15.21-32.1,11.54-4.06-1.79-6.78-6.5-8.08-14l-.49-2.84-1.36,2.54a17.19,17.19,0,0,1-7.85,7.7,27.13,27.13,0,0,0-2.43,1.48c0-1.76-.06-3.55-.12-5.29a74.44,74.44,0,0,1,0-8.71l-2-.26c-.52,2.89-2.12,6.06-3.66,9.14A59.85,59.85,0,0,0,54,793.32c-5.05-.49-8.57-2.64-10.75-6.58-6-10.89-1.42-34.72,13.69-70.83,9.35-22.32,20.83-44.76,29.18-60.5a4.77,4.77,0,0,1-.25-1.11c-.12-.66-.23-1.33-.36-2-19.35,36.29-57.31,111.37-44,135.41,2.6,4.7,7,7.28,13.12,7.66l.77,0,.24-.74a49.67,49.67,0,0,1,3-6.68c.61-1.19,1.22-2.41,1.77-3.62l.09,2.63c.09,2.55.18,5,.06,7.34L60.37,797l1.83-1.86A16.24,16.24,0,0,1,66,792.48a19,19,0,0,0,7.27-6.27c1.59,6.74,4.52,11.1,8.72,12.95A12.92,12.92,0,0,0,87,800.21c8.78.13,19.78-6.89,28.92-12.73l1.2-.77Z"/><path class="cls-2" d="M106.57,761.15c-3.1-9.11-5.65-18.4-8.06-27.71C95.89,723.33,93,713.28,90.6,703.1c-2.3-9.75-4.15-19.52-4.26-29.56l-1.21,1c-14,32.12-33.28,64.59-31.9,100.19,5.26-2.65,8.51-9.44,14.51-9.67.7,5.17-.53,10.51-1,15.54,4.55-1.59,8.79-6,13.7-8.38,4,7.9.92,17.62,12,21.37,8.19,2.77,16.11-5.25,21.87-12.79A207.49,207.49,0,0,1,106.57,761.15Z"/><path class="cls-4" d="M520,239.46c3.77-1.07-10.8,1.29-18.06.49a53,53,0,0,0,8.83-7.14c-19,5.5-36.39-6.71-40.84-24.85,3.26-1.48,6.56-.65,9.94-1.85-3.5-5.25-5.17-14.75-10.87-20.33,4,0,5.69,2.32,9.07,2.9-.29-1.41-2.63-13.44-2.52-14.08a24.69,24.69,0,0,0,2.36,2.44c.57-4-.47-11.21-.8-15.2,2.22-1.73,5.9,4.09,7.36,4.13-2-7.32-.37-15.52-1.49-22.53,3.3,2.84,8.09,6.6,10.39,8.59.9-4.62-1.46-9.06.1-13.52,4.33-4.13,7,3.91,9.74,2.06,1.37-3.91.43-9.54,3.39-12.88,2.78,3.43,5.72,6.63,8.07,9.37,1.35-4.61,8.1-14.34,8.7-18.68,1.31,4.4,4.52,9.49,5.5,12.58,1.79-4.81,7.17-11.23,9-16.5,11.06,2,3.23,1.58,18.45-1.15,2.7,1.79-.63,6.69,1.86,8.89,5.95-2,11.58-4,17.54-6.62,1.41.89-1.47,7.29,1.05,8.86,3.41.13,10.7-1.83,13.67-.2-1.5,5.48.95,14.82-1.2,21.1,4.91-2.38,13.33-2.5,17.53-4.46-.67,5.92-1.56,11.89-4.17,17.47,2.33-.5,6.62-3.56,8.67-3.45-3.35,5.83-4.06,14.08-11.18,21.39.06.42,6.33.28,7.2,3.2-4.14,4-8,11.12-13,15.71,6-.72,13.28,2.08,17.31,1.8-.21,6.68-2.12,7.92-5.57,14.11,3.81,6.12,5.43,6.44,7.94,13.75a80.84,80.84,0,0,0-13.26,5.24c12.43,1.65,17.51,6.37,26.35,11.71-28,6.19-58.74-7.8-84.83,2.73-.23-.62-4.14-8.34-4.85-9.36-7.13-2.13-8.76,3.75-13.73,4Z"/><path class="cls-3" d="M492.37,218.6l-.19-.17a33.66,33.66,0,0,1-6.06-7l1.58-.87a32.28,32.28,0,0,0,5.75,6.58l.19.17Z"/><polygon class="cls-3" points="495.61 207.28 492.77 203.11 494.29 202.15 497.13 206.32 495.61 207.28"/><path class="cls-3" d="M494.94,188.39a12.65,12.65,0,0,1-2.8-3.11l1.55-.91a10.89,10.89,0,0,0,2.39,2.66Z"/><path class="cls-3" d="M491.4,171.93l-1.82.07a11.11,11.11,0,0,0-1.62-5.27l1.56-.89A12.69,12.69,0,0,1,491.4,171.93Z"/><path class="cls-3" d="M487.62,189c-2.06-1.25-3.06-3.8-4-6.25-.1-.28-.21-.55-.32-.81l1.7-.63c.11.27.22.54.32.82.87,2.19,1.76,4.45,3.29,5.38Z"/><path class="cls-3" d="M509.52,183.06a26.88,26.88,0,0,1-3.56-7.63l1.75-.46a25.19,25.19,0,0,0,3.33,7.14Z"/><path class="cls-3" d="M522.46,164.4a35.72,35.72,0,0,1-5-8l1.67-.71a33.73,33.73,0,0,0,4.76,7.61Z"/><path class="cls-3" d="M535.59,151.21a13.2,13.2,0,0,0-3-5.72l1.37-1.15a15.13,15.13,0,0,1,3.41,6.48Z"/><path class="cls-3" d="M555.09,156.62c-.77-2.52-1.49-5.09-2.13-7.64l1.77-.4c.64,2.52,1.34,5.07,2.1,7.56Z"/><path class="cls-3" d="M549.21,185.08l-1.77-.45a9.15,9.15,0,0,0-.6-6.59l1.64-.74A10.93,10.93,0,0,1,549.21,185.08Z"/><path class="cls-3" d="M534.23,188.72l-1.82-.07c.08-2.6,0-5.25-.13-7.85l1.82-.09C534.27,183.37,534.31,186.06,534.23,188.72Z"/><polygon class="cls-3" points="521.8 202.55 520.01 202.85 518.68 195.78 520.47 195.48 521.8 202.55"/><polygon class="cls-3" points="514.06 210.33 508.21 204.67 509.49 203.43 515.34 209.09 514.06 210.33"/><polygon class="cls-3" points="552.87 204.09 551.05 204.2 550.63 198.3 552.44 198.2 552.87 204.09"/><rect class="cls-3" x="564.57" y="197.63" width="6.19" height="1.82" transform="translate(288.59 731.25) rotate(-81.63)"/><polygon class="cls-3" points="584.75 202.98 582.96 202.62 584.4 195.74 586.19 196.11 584.75 202.98"/><path class="cls-3" d="M587.42,171l-1.52-1a23,23,0,0,0,3.31-7l1.76.49A25,25,0,0,1,587.42,171Z"/><path class="cls-3" d="M567.5,173.48l-1.71-.61a40.31,40.31,0,0,1,5.17-9.68l1.49,1A38.69,38.69,0,0,0,567.5,173.48Z"/><path class="cls-3" d="M573.08,144.35l-1.82.08a13.58,13.58,0,0,0-1.76-5.94l1.59-.84A15.43,15.43,0,0,1,573.08,144.35Z"/><path class="cls-3" d="M563,139.24l-1.53-1c1.33-2,2.25-7,1.9-10.39l1.81-.16C565.56,131.55,564.54,136.93,563,139.24Z"/><path class="cls-3" d="M544.1,136.19l-1.76-.47a13.08,13.08,0,0,0-.23-8.06l1.72-.57A14.84,14.84,0,0,1,544.1,136.19Z"/><path class="cls-3" d="M517.32,145c-1-3.59-1.86-7.23-2.72-10.84l1.77-.38c.86,3.59,1.77,7.23,2.72,10.8Z"/><path class="cls-3" d="M507.3,154.59l-1.8.24-.17-1.12c-.45-3-.9-6.13-2.34-8.77l1.61-.81c1.58,2.91,2.07,6.18,2.53,9.35Z"/><path class="cls-3" d="M499.89,160.34a24.24,24.24,0,0,1-5.64-7.32l1.62-.79a22.18,22.18,0,0,0,5.22,6.79Z"/><path class="cls-3" d="M590.78,186.53l-1.09-1.43a4.67,4.67,0,0,0,2.22-3.74l1.82.08A6.4,6.4,0,0,1,590.78,186.53Z"/><path class="cls-3" d="M592.08,210.76l-1.36-1.19a28,28,0,0,0,4.2-5.85l1.62.82A29.91,29.91,0,0,1,592.08,210.76Z"/><path class="cls-3" d="M595.93,223a12.82,12.82,0,0,1-1.52.15l-.09-1.76a9.55,9.55,0,0,0,5.82-2.17l1.23,1.31A11.18,11.18,0,0,1,595.93,223Z"/><polygon class="cls-3" points="559.6 211.2 557.84 210.76 559.82 203.13 561.59 203.57 559.6 211.2"/><path class="cls-3" d="M533.56,210.89l-1.78-.4a10.18,10.18,0,0,0-.61-6.64l1.67-.7A11.92,11.92,0,0,1,533.56,210.89Z"/><path class="cls-3" d="M521.14,216.06c-.66-1.88-1.26-3.81-1.77-5.74l1.76-.42c.5,1.88,1.08,3.77,1.74,5.61Z"/><path class="cls-3" d="M500.94,224.87a41.1,41.1,0,0,0-4.67-7l1.42-1.09a42.84,42.84,0,0,1,4.87,7.31Z"/><path class="cls-3" d="M486.1,225a54.52,54.52,0,0,1-7.25-8l-1.57-1.95L478.7,214c.5.61,1,1.28,1.59,2a53.64,53.64,0,0,0,7,7.72Z"/><path class="cls-3" d="M585,162.16,583.6,161a14,14,0,0,0,3.52-8.72l1.82.08A15.64,15.64,0,0,1,585,162.16Z"/><polygon class="cls-3" points="544.08 168.32 542.29 168.62 541.2 162.83 542.99 162.53 544.08 168.32"/><path class="cls-3" d="M603.5,379.11c.1.56.19,1.11.28,1.64,0,.14.05.28.07.42s.08.44.11.66c.09.52.18,1,.26,1.56s.13.76.18,1.14l.21,1.26c.07.49.15,1,.22,1.47l.27,1.84.12.83c.06.39.11.77.16,1.16.12.8.22,1.59.33,2.39l.21,1.63c1.36,10.59,2.33,21.34,3.22,32.12,0,.59.09,1.17.14,1.76.11,1.33.22,2.67.32,4l.1,1.22a.09.09,0,0,1,0,.05c0,.42.07.83.1,1.24.06.82.13,1.64.2,2.46.08,1,.16,2,.25,3l.06.77c0,.41.07.83.1,1.25,0,.14,0,.28,0,.42,0,.39.07.79.1,1.18,0,.2,0,.39,0,.57q.09,1,.18,2c0,.33.05.66.08,1s.07.79.1,1.18c.83,9.47,1.77,18.88,3.06,28.14.05.41.11.81.16,1.21.13.92.26,1.83.4,2.74.08.52.16,1.05.24,1.56,0,.1,0,.2,0,.3.21,1.35.43,2.68.66,4,0,.29.09.57.14.85s.13.79.21,1.18c2.85,16.21-.73,32.42,6.09,47-38.25,4.82-112.08,3.72-153.07-7.83,3.15-6.88,3.93-24.36,5.68-41.59.05-.39.08-.78.12-1.17.1-1,.21-1.91.32-2.86.07-.71.16-1.41.24-2.11,0-.19.05-.38.07-.56l.15-1.24c.12-1,.25-2,.39-2.93.07-.53.15-1.06.23-1.59.19-1.28.39-2.55.6-3.79.14-.77.27-1.54.42-2.3.05-.27.1-.55.16-.83s.15-.79.23-1.18a67.46,67.46,0,0,1,3.22-11.24c2.89-7.18,7.11-9.65,10.66-13.9.34-.41.68-.84,1-1.29l.47-.67c.28-.42.56-.85.82-1.31s.58-1.05.85-1.62c.16-.34.32-.7.48-1.07a29.6,29.6,0,0,0,1.16-3.35c.09-.35.19-.72.28-1.09s.16-.76.24-1.16.12-.72.18-1.08.12-.78.16-1.18a1.23,1.23,0,0,0,0-.2c.09-.78.17-1.59.22-2.42s.09-1.7.12-2.57c0-.64,0-1.29,0-1.95,0-9.85-1.5-21.25-.76-29.2.27-2.88.58-5.77,1-8.67.09-.79.19-1.58.3-2.38a.28.28,0,0,1,0-.09c0-.42.11-.84.17-1.26s.12-.94.19-1.41.11-.8.17-1.2c.17-1.21.36-2.43.55-3.66.09-.65.2-1.3.3-1.95l.3-1.84c0-.14.05-.28.08-.42.06-.39.12-.78.19-1.17l.21-1.19c0-.14,0-.28.07-.43l.21-1.2c2.44-13.7,5.65-27.56,9.32-41.43.09-.38.19-.75.3-1.13s.24-.93.37-1.4l.32-1.19c.24-.91.49-1.81.74-2.72.1-.37.2-.75.31-1.13s.23-.85.36-1.28.21-.78.32-1.17c0,0,0-.11,0-.16l.48-1.69c.12-.45.25-.89.37-1.34l.33-1.17c0-.09.06-.19.08-.28.12-.41.24-.82.35-1.23s.21-.72.31-1.09.23-.79.35-1.19c3.84-13.36,8-26.66,12.07-39.79.23-.73.45-1.46.68-2.18.16-.5.31-1,.46-1.49s.27-.83.4-1.25c.07-.24.15-.47.22-.71.32-1,.64-2,1-3.08a0,0,0,0,1,0,0c.23-.72.45-1.44.68-2.16,0-.1.06-.21.09-.31.25-.79.49-1.57.73-2.35s.53-1.69.79-2.53c.12-.39.25-.78.37-1.17,3-9.65,5.92-19.19,8.63-28.53,12.92,2.75,13.35,16.77,13.92,30.45,0,.39,0,.79,0,1.18,0,.05,0,.1,0,.15l.06,1.23s0,0,0,0c0,.36,0,.72,0,1.08,0,.06,0,.12,0,.18,0,.76.08,1.53.14,2.28,0,.12,0,.23,0,.35v.14c.72.29,1.43.61,2.14,1,.47.25.95.53,1.42.82.69.42,1.36.88,2,1.38s1.36,1.07,2,1.66,1.21,1.11,1.8,1.71l.63.65c.41.43.82.88,1.22,1.34.15.17.3.36.46.53.57.68,1.13,1.38,1.68,2.11,8.07,10.55,14.64,26.66,19.87,43.81.13.41.25.82.37,1.23s.18.58.26.86.25.83.37,1.25l.32,1.07.42,1.49c.21.72.41,1.44.62,2.17.11.4.22.8.32,1.19.35,1.27.69,2.53,1,3.8l.57,2.18c.2.78.4,1.56.59,2.34.11.42.21.82.31,1.24.17.65.33,1.31.49,2,.1.39.19.79.28,1.19C598.65,351.09,601.64,368.14,603.5,379.11Z"/><path class="cls-5" d="M603.62,477.6q5.29.5,10.56,1.15c0-.4-.11-.8-.16-1.21-1.72-.21-3.45-.41-5.18-.59l-.12-1.05-5.12.52c-15.73-1.46-31.6-1.91-47.13-2-18.53-2.61-38.49-5.2-58.16-6.55-2.13-.15-4.37-.38-6.73-.61a130.67,130.67,0,0,0-14.08-.9c-.08.39-.16.79-.23,1.18a128.08,128.08,0,0,1,14.19.89c2.38.23,4.62.45,6.78.61,16.72,1.15,33.66,3.2,49.77,5.39l-3.52,0c-7.32.06-14.49.39-21.44.9-1.79-.06-3.59-.09-5.38-.11-14.35-1.85-27.71-4.12-40.56-6.87-.15.76-.28,1.53-.42,2.3,1,.37,2.06.75,3.08,1.14,1.87.71,3.8,1.43,5.72,2-3.2.1-6.33.31-9.4.66-1,.12-2,.25-3.06.4l.1,1.17,2.73,0c5.38,0,10.76.17,16.16.35-5.58.6-11.1,1.44-16.55,2.58l-.15,1.24a172.25,172.25,0,0,1,22.43-3.16l1.84.46q-5.68.54-11.25,1.46c-1.14.19-2.27.39-3.4.61l-1.13.21c-.74.09-1.5.16-2.28.24-2,.2-4.18.41-6.28.74-.08.7-.17,1.4-.24,2.11,19,3.2,39.31,2.91,59,2.62,4.77-.07,9.63-.14,14.45-.16,9.22.52,18.92.47,29.11.42,8.37,0,16.84-.09,25.2.2,3.61.43,7.22.8,10.76,1.08.67.1,1.33.19,2,.27-.23-1.33-.45-2.66-.66-4L613.1,483l1.72,0c-.08-.51-.16-1-.24-1.56q-10.05-.94-20.46-1.64l-4.83-.71,3.73-.4Zm-59.11-1.93c3.93,0,7.9,0,11.88,0l13.84,2q4.74.69,9.49,1.35l-.33,0-5-.22c-5.33-.23-10.67-.53-16.33-.85l-3.13-.17c-6.86-.77-13.72-1.41-20.55-1.84C537.71,475.78,541.1,475.69,544.51,475.67Zm13,3.56q-3.56-.25-7-.54l4.36.24Zm-39.2-1.44c7,.44,13.9,1,20.8,1.5,6.2.72,12.17,1.34,17.94,1.72-5.72.42-11.45.73-17.15.9-2.88.08-6.19.27-9.69.46-7.26-1-14.86-2.43-22.88-4.21Q512.75,477.85,518.28,477.79Zm-33.67-2.74c1.62-.06,3.25-.09,4.9-.1l1,.27Zm5.05-1.27-3.47-1c-2-.55-4-1.32-6-2.07-1-.37-2-.76-3-1.11,7.91,1.67,16,3.18,24.42,4.52C497.56,473.91,493.58,473.77,489.66,473.78Zm6.21,1.63-1.57-.4c3.3.09,6.65.26,10,.51l-2.8.14Zm9.69,1.63-.85.1-1.41.1-1.66-.4Zm-2.13,1.43q11,2.58,21,4.22c-12.71.65-27,1-36.75-2.15C492.67,479.83,497.94,479.12,503.43,478.47Zm30.54,5.9c-19.36.29-39.32.58-58-2.47,1.92-.27,3.86-.47,5.72-.65,1.21-.12,2.38-.24,3.49-.37,11.38,4.55,29.93,3.51,44.86,2.68h.11c2.09.29,4.13.56,6.16.79Zm25.19-.09c-3.51-.06-7.09-.08-10.69-.06-1.43-.09-2.85-.18-4.26-.29-2.46-.19-5-.44-7.51-.72,1.12-.06,2.2-.1,3.22-.13,8.54-.25,17.12-.83,25.64-1.57,1.1.06,2.21.12,3.32.16,5.87.53,12.46,1.45,19.41,2.42l2.45.34C580.33,484.46,569.61,484.48,559.16,484.28Zm46.22-1.46c3,.5,5.94,1,8.9,1.61l-7.16,0c-4.29-.38-8.6-.82-12.89-1.3l-4.53-.67q7.54.21,15,.38ZM594,481l2.79.42c-5.76-.15-11.56-.31-17.39-.51l-3.06-.43,3.1-.32Q586.84,480.54,594,481Zm-9.45-2.56-4.37-.61-9.79-1.39-5.18-.74c10.68.14,21.47.53,32.22,1.36l-4.56.49Zm-24.55,9-13-.12c-16.68-.12-33.92-.27-50.88-.86-2.06-.08-4.3,0-6.67,0a96.61,96.61,0,0,1-14.75-.64c0,.39-.07.78-.12,1.17a97.49,97.49,0,0,0,14.89.64c2.36,0,4.59,0,6.62,0,17,.6,34.23.74,50.91.87,4.34,0,8.68.07,13,.12,6.94.06,14,.22,20.91.39,11.49.27,23.28.54,35,.38-.08-.39-.15-.78-.21-1.18-11.6.17-23.31-.11-34.74-.38C574.05,487.67,566.94,487.51,560,487.44Z"/><path class="cls-5" d="M609.28,429c0-.59-.1-1.17-.14-1.76h-2.48c-8-1.72-16.08-3.21-24.22-4.19-23.94-2.88-51.26-5.26-78.21-2.72-2.27,0-4.55-.05-6.82,0,0,.66,0,1.31,0,1.95,2.29-.3,4.6-.55,6.9-.77,4.63.08,9.25.3,13.88.63a103.83,103.83,0,0,0-20.9,2.71c0,.83-.13,1.64-.22,2.42h.1l.41.33-.53-.12c0,.4-.1.79-.16,1.18,1.08.26,2.18.49,3.32.71a33.16,33.16,0,0,0,7.72,3.1q-1.16.15-2.31.33a59.91,59.91,0,0,1-8.91-3.06c-.08.4-.16.78-.24,1.16a57.82,57.82,0,0,0,6.45,2.33c-1.8.31-3.61.65-5.4,1l-1,.22.72.75a11.2,11.2,0,0,0,1.26,1.12c-1.18-.31-2.32-.65-3.44-1-.16.37-.32.73-.48,1.07q1.64.53,3.36,1l-4.21.63c-.26.46-.54.89-.82,1.31l6.07-.9,1.95-.28,1.29.29a36.49,36.49,0,0,0,6.15,1.85q-7.56-.22-15.07-.19l-.86-.1c-.33.45-.67.88-1,1.29l1.81,0A239.62,239.62,0,0,0,521,442.65c17.42,3,35.42,3.64,52.88,4.3,4,.15,8.22.3,12.29.49,6.28.28,12.88.88,19.86,1.52l5,.44c0-.39-.07-.79-.1-1.18l-4.75-.43-4.47-.41c3.08.05,6.14,0,9.14-.15q-.09-1-.18-2c-4.43-.15-8.86-.26-13.26-.38-6.25-.15-12.72-.32-18.9-.6q-3.62-.15-7.3-.36l-1.08-.12c-6.33-.69-12.29-1.35-18-1.76l-3.31-.2c3.84-.19,7.67-.42,11.49-.63,3.21-.18,6.38-.37,9.5-.53l10.6,1.09c9.94,1,20,2.07,30.18,2.92,0-.39-.07-.79-.1-1.18-10.07-.85-20.09-1.89-30-2.91l-3-.31c4-.17,7.84-.31,11.66-.39l.89,0c3.62.16,7.31.35,11,.57,3.06.81,6.17,1.69,9.34,2.58,0-.42-.06-.84-.1-1.25l-3.49-1,3.43.21c-.09-1-.17-2-.25-3-9.17-2.34-18.61-4.7-27.66-5.89-3.55-.46-7.18-1-10.89-1.47l-4.2-.58q4.31-.31,8.63-.56l.7.09c10.44,1.39,22.38,3,33.22,5.95,0-.41-.07-.82-.1-1.24l-1-.27,1,.22-.1-1.22q-11-2.42-22.65-4.1c6.16-.28,12.79-.51,19.59-.5C607.45,428.59,608.37,428.78,609.28,429Zm-12,17,8.48.24c-4.14,0-8.35-.09-12.57-.34Zm-93-16c12.71,1.77,27.37,1.15,34.41-.6l-.31-1.14c-7.48,1.86-24.57,2.39-37.86-.08-.59-.35-1.16-.72-1.71-1.12,18.53-1.61,38.5.26,57.54,2.69-4.36.41-8.7.88-13,1.38a202.5,202.5,0,0,0-32.19.88A43.7,43.7,0,0,1,504.34,430Zm10.92,2.78a194.63,194.63,0,0,1,20.34-.71c-4.45.56-8.9,1.15-13.31,1.76l-.33,0-1.81-.26C518.55,433.3,516.91,433.06,515.26,432.79Zm2.87,1.63-2.88.41c-2.26-.39-4.46-.82-6.59-1.31l2.48-.31C513.46,433.71,515.83,434.08,518.13,434.42Zm-16.59,2.41a13.33,13.33,0,0,1-2.65-1.69c2.21-.45,4.45-.84,6.7-1.19,2,.52,4,1,6.07,1.4ZM571.06,445c3.11.35,6.29.69,9.49,1l-6.65-.26c-15.07-.56-30.54-1.15-45.65-3.2l3-.07c5.73.34,11.45.73,17.12,1.1C555.86,444.1,563.52,444.61,571.06,445Zm-10.87-5c-7.9.44-15.87.9-23.82,1.19-9.89-.53-21.76-1.4-32.22-3.53L515.28,436c12.49,2.13,26.42,2.83,37.54,3.39,3.2.17,6.14.31,8.73.48Zm9.6-.54-3.34-.34c-3.52-.35-8.18-.58-13.58-.85-10-.5-22.26-1.12-33.65-2.78l3.07-.43c17.11,2.5,34.68,3.44,51.87,4.17Zm22.66-.83-3.26,0-7.75-.32c-18.06-.74-36.69-1.5-54.85-3.89q8.38-1.14,16.84-2.12A389.34,389.34,0,0,1,583,436.51c3.52.52,7.08,1.24,10.7,2.08Zm-21.14-6.84c3.7.51,7.34,1,10.89,1.48a226.17,226.17,0,0,1,25.71,5.4c-3.08,0-6.22-.06-9.33-.06a154.62,154.62,0,0,0-15.4-3.24c-10.39-1.55-21.46-3-32.81-3.79q5.68-.6,11.38-1.09Zm-9.54-2.48c-21.06-2.81-43.54-5.25-64.22-3.27l0,0c10.86-2.67,22.74-3.16,34.81-2.56,10.84,1.22,21.63,2.84,32.28,4.44l2.16.33,3.18.46Q565.85,428.93,561.77,429.28ZM580.69,428,572,426.76c-12.68-1.86-26.24-3.85-39.58-4.51-5.81-.65-11.62-1.18-17.45-1.53,23.35-1.14,46.62,1,67.36,3.48,6.29.75,12.56,1.82,18.78,3.06C593.87,427.37,587,427.69,580.69,428Z"/><path class="cls-5" d="M567.29,374.68c-3-.31-5.81-.59-8.35-.91-3.59-.43-7.26-1-11.16-1.52-12.21-1.74-25.52-3.64-37.95-3-2.62-.34-5.25-.62-7.85-.83l-2.31-.18-1.33-.11,1.25.53,2.11.88c.3.14.61.26.92.39q-1.68.24-3.33.57c-.1.65-.21,1.3-.3,1.95,1.7-.22,4.32-.48,8.37-.73q2.42.84,4.9,1.58c-3.12.37-6.21.88-9.26,1.55h-1.62l.4.38,0,.38a5.37,5.37,0,0,0,.5,2c-1.32-.48-2.61-1-3.86-1.55-.06.4-.11.8-.17,1.2,1.62.71,3.32,1.36,5.06,1.95a16.45,16.45,0,0,0,5.6,3.95l-.85-.13a41.59,41.59,0,0,1-10-4.36c-.06.42-.12.84-.17,1.26l1.12.66c-.4-.18-.78-.37-1.13-.57-.11.8-.21,1.59-.3,2.38.34.05.67.12,1,.18,1.72.33,3.46.64,5.19.94,2,.58,4.08,1.05,5.85,1.47l2.19.52c16.23,4.06,33.15,6.09,50.53,7.25,12.59,1.57,25.87,2.95,38.46,2.35,1.71,0,3.42,0,5.11,0l-.21-1.63-5.37-.22c-2.22-.09-4.41-.18-6.56-.25-6.87-.2-13.69-.44-20.46-.77l-3.58-.34-4-.36c-.83-.09-2.11-.18-3.72-.3-1.79-.13-4-.3-6.63-.52-2.36-.3-4.67-.6-6.92-.87l-4-.44c-4-.42-9.89-1.05-16.3-2l-1.31-.24c-1.74-.33-3.38-.67-4.93-1,8.06,1,16.15,1.7,24.08,2.44l3,.28c18.6,1.72,37.72,3.5,56.31,2.25,0-.39-.1-.77-.16-1.16-18.48,1.22-37.52-.55-56.05-2.26l-3-.28c-10.59-1-21.42-2-32.15-3.46a29.74,29.74,0,0,1-8-3.81c12.61,3.85,27.41,5.31,38.79,6.44,2.35.23,4.57.45,6.55.68l4.94.56c12.26,1.42,25.66,3,38.33,2a79.77,79.77,0,0,0,10.43-.73l-.27-1.84a148.31,148.31,0,0,0-20.18-5.12q3.75.25,7.35.58,6.39,1.35,12.61,3.07l-.21-1.26q-2.71-.76-5.48-1.44l.11-.72c-4.4-.64-8.9-1.42-13.43-2.27,6.13.93,12.43,2,18.62,3.29-.08-.52-.17-1-.26-1.56,0-.22-.07-.44-.11-.66C592.32,377.25,578.42,375.82,567.29,374.68Zm-5.71,1.87,4.58.91c-6.82-.76-13.68-1.3-20.52-1.69-3.31-.63-6.62-1.3-9.86-1.95C544.37,374.28,553,375.34,561.58,376.55Zm-16.08.39c1.51.29,3,.56,4.5.83,3.35.59,6.78,1.14,10.19,1.66-9.55-.66-19.38-1.54-28.92-3.1Q538.37,376.54,545.5,376.94Zm-21.57-2q-2.56-.53-5.09-1.14,4.86-.3,9.77-.25L535.5,375l2.06.41C533,375.19,528.44,375.07,523.93,375ZM557,377.75c8.23.7,16.44,1.66,24.52,3l-7.87-.49-7.8-1.17C562.94,378.66,560,378.22,557,377.75ZM540.83,373c-4-.3-7.93-.5-11.89-.55-1.89-.37-3.8-.74-5.71-1.09C529.05,371.61,534.93,372.2,540.83,373Zm-30.4-1.52c1.77-.11,3.54-.18,5.33-.21,2.39.37,4.78.79,7.15,1.23-2.52.07-5,.21-7.52.44C513.72,372.5,512.06,372,510.43,371.49Zm4.8,2.64c1,.27,2,.52,3,.77q-4.43-.06-8.77-.06Q512.33,374.41,515.23,374.13Zm-11.14,4.14a5.21,5.21,0,0,1-.93-1.79,22.07,22.07,0,0,0,5.92,3.3C507.38,379.31,505.71,378.81,504.09,378.27Zm52.38,8.36-4.94-.56c-2-.22-4.21-.44-6.57-.68-3.08-.31-6.42-.63-9.89-1,2.61.19,5.16.35,7.56.5,3.33.2,6.2.37,8.47.61,4.36.45,8.77,1,13.44,1.69,3.28.44,6.58.89,9.89,1.29C568.32,388,562.27,387.3,556.47,386.63Zm46,1.08c-2.55.44-5.18.75-7.83.94-9.78.08-20-1.3-29.91-2.66-4.68-.63-9.1-1.23-13.48-1.69-2.3-.24-5.18-.41-8.53-.62-12.19-.74-30.3-1.85-38.2-7.67,6.31,0,12.77,0,19.31.15,15.89,3.27,32.9,4.27,48.51,5.2l1.23.07A193.75,193.75,0,0,1,602.44,387.71Zm-23.68-9.81-5-.74-1.85-.28c-3.29-.49-6.64-1-10-1.47l-1.43-.28c2.12.24,4.4.48,6.78.72,10.39,1.07,23.24,2.39,34.19,5.75C593.74,380.09,586.06,379,578.76,377.9Zm24.07,1c-12.91-6.64-36.53-8.74-50.73-10-2.63-.23-5-.44-6.84-.64-14.46-2.67-30.32-5-44.91-4l-.21,1.2a134.53,134.53,0,0,1,24.54.84,241.14,241.14,0,0,0-24.61-.41l-.21,1.19a270.52,270.52,0,0,1,43.89,2.24l1.34.15c3.53.65,7,1.32,10.3,2l4.52.88c3.63.7,8,1.37,12.65,2.09,9.19,1.41,20,3.08,30,5.69.43.22.83.45,1.23.68-.09-.53-.18-1.08-.28-1.64C603.28,379,603.05,379,602.83,378.93Zm-30.08-5.71c-4.64-.71-9-1.39-12.62-2.08l-3-.58c11.78,1.1,27.4,2.87,38.75,6.72C588,375.56,579.86,374.31,572.75,373.22Z"/><path class="cls-5" d="M594,331.91c-10.46-.58-21.19-2.24-31.27-3.79-5.34-.82-10.38-1.6-15.15-2.18-3.09-.38-6.83-.69-10.8-1A254.14,254.14,0,0,1,510,321.67c-.11.38-.21.75-.3,1.13a249.33,249.33,0,0,0,27,3.29c4,.33,7.7.64,10.75,1,4.76.58,9.79,1.35,15.12,2.17,10.23,1.57,21.11,3.25,31.73,3.82C594.21,332.7,594.12,332.3,594,331.91Zm-.8-3.21c-3.7-.56-7.4-1.16-11.08-1.76l-2.91-.47c4.48.12,9,.12,13.4-.11l-.57-2.18c-4-.5-7.94-1.05-11.87-1.6-5.9-.82-11.48-1.6-17-2.18-4.81-.51-10.22-.85-15.94-1.2-8.13-.51-16.73-1-25-2.14a55.38,55.38,0,0,1-9.93-4.28c-.11.39-.22.78-.32,1.17a49.78,49.78,0,0,0,4.63,2.26c-1.69-.29-3.36-.62-5-1-.11.38-.21.76-.31,1.13,3.45.76,7,1.36,10.68,1.85a140.52,140.52,0,0,0,22.66,5c-8.67-.51-22.18-1.37-34.08-4.11l-.32,1.19c12.13,2.79,25.9,3.6,35.15,4.14l1.56.09c3.65.22,7.42.49,11.06.76l8.34.58c3,.35,5.79.7,8.22,1.09L582,328.1c3.77.62,7.64,1.24,11.58,1.84C593.43,329.52,593.33,329.12,593.22,328.7Zm-26.67-4-5-.57c-9.89-1.11-21.73-2.44-32.33-5.06,6,.59,12.15,1,18,1.33s11.1.69,15.89,1.2c5.44.58,11,1.35,16.91,2.17,3.7.52,7.42,1,11.14,1.51A235.62,235.62,0,0,1,566.55,324.67Zm24.16-5.48c-16.26-1-32.51-2.67-48.54-4.44l.14-.76c10.13.69,20.26,1.46,30.32,2.32l0-.68,3.73.34c3.6.32,7.75.56,12.14.81l.21,0,1.33.22-.42-1.49-1-.11a183.55,183.55,0,0,0-18.43-2.59l-.37-.05c-3-.51-6.17-1.09-9.51-1.71l-2.11-.39c2.49,0,5,0,7.59.06l3.24.54,4.2.71c3.34.54,6.86,1.08,10.59,1.64l5.44.83c-.12-.42-.24-.83-.37-1.25l-4.89-.74c-2.91-.44-5.68-.86-8.34-1.28,1.59.1,3.19.22,4.8.35,2.41.29,5.06.53,7.86.78l.31,0c-.12-.41-.24-.82-.37-1.23q-3.83-.42-7.63-.74l-.83-.11-3.85-.48c-11.62-1.49-23.49-3-35.41-3.89a186.64,186.64,0,0,0-25.93-1.27c-.12.4-.23.8-.35,1.19,1.72-.05,3.46-.08,5.19-.07l0,.57,1.22.14c-2.28.06-4.52.19-6.7.45-.11.41-.23.82-.35,1.23a93,93,0,0,1,19.67,0c4,.59,8.07,1.23,12.09,1.88-.86.07-1.72.13-2.57.21-9.73-.94-19.56-1.71-29.27-1.8l-.33,1.17c7.85.06,15.79.58,23.69,1.26-1.58.21-3.13.43-4.64.68l-.25,0c-6.3-.3-12.72-.53-19.17-.64l-.48,1.69c6.1.65,12.24,1.34,18.23,2,19.83,2.24,40.1,4.52,60.37,5.74C590.93,320,590.82,319.59,590.71,319.19ZM533.49,307l-3.34-.47c3.45.12,6.91.32,10.36.58,6,.67,12,1.53,17.75,2.44-2,0-3.88.06-5.78.12C546.34,308.56,539.9,307.55,533.49,307Zm19.12,4.23-.2,0-2.51-.25.82,0Zm-9.73.21,9.42.94,3.45.35c2.16.22,4.49.42,7,.64,2.12.19,4.37.38,6.68.6l3.54.55c-10.78-1-22.51-1.9-34.75-2.59C539.72,311.71,541.29,311.54,542.88,311.4Zm-12.09,2.07-4.46-.5c3.27.19,6.54.4,9.82.61q2.76.62,5.54,1.12Z"/><path class="cls-5" d="M532.16,247.59c-.12.39-.25.78-.37,1.17,7.89.23,16,1.1,23,1.93,0-.39,0-.79,0-1.18C547.82,248.69,539.92,247.84,532.16,247.59ZM566.8,265.2l-1.75-.11c-2.51-.42-5-.89-7.53-1.37,1.87.16,3.66.32,5.35.52,1.16.13,2.31.28,3.47.43-.4-.46-.81-.91-1.22-1.34l-2.12-.26c-4.08-.47-8.73-.78-13.66-1.11l-1-.07c-.53-.11-1.07-.21-1.6-.33l1.79.11,4.35.29c3.76.27,7.64.54,11.58.72q-.88-.9-1.8-1.71l-6.9-.77c-5.95-.66-12-1.33-18-2,2.74-.23,5.52-.45,8.32-.63q7.57,1,14.59,1.7c-.68-.5-1.35-1-2-1.38-2-.21-4-.43-6.07-.68,1.55-.06,3.1-.11,4.65-.14-.71-.37-1.42-.69-2.14-1V256c-3,.08-6,.24-8.95.43-1.77-.23-3.55-.49-5.37-.76l1.15-.17c4.37-.09,8.77-.05,13.15.15-.06-.75-.1-1.52-.14-2.28l-.76,0,.56-.12.19,0,2.68-.59-2.73-.49-.17,0h.17l-.06-1.23a215.17,215.17,0,0,0-23.77.45c-.24.78-.48,1.56-.73,2.35.91-.15,1.83-.29,2.73-.41,3,.18,6,.39,8.91.6L544,254l-2.29.35q-3.81.09-7.56.3c-1.31-.21-2.64-.44-4-.67-.23.72-.45,1.44-.68,2.16h.21l-.21,0c-.33,1-.65,2.05-1,3.08,1.57.27,3.15.56,4.74.86-1.63,0-3.3-.08-5-.15-.13.42-.27.83-.4,1.25,6.69,1,13.66,1.45,20.3,1.89,2,.41,4,.82,6,1.21-1.29-.08-2.5-.15-3.58-.18l-1.79,0-5.56-.31c-5.14-.29-10.5-.59-15.86-1.08-.23.72-.45,1.45-.68,2.18,4.8.21,9.58.24,14.16.28,2.74,0,5.36.05,7.9.11s5.26.33,7.78.55c3.2.28,7.15.85,11.32,1.45l.55.08C567.93,266.58,567.37,265.88,566.8,265.2ZM542,252.65l-1.66-.11a68,68,0,0,1,10.78.22l-2,.37C546.86,253,544.47,252.83,542,252.65Zm-9.46,4.86-1.06.09-2.29-.22c2.53-.42,5.07-.79,7.58-1.15l3.86.6C537.89,257,535.19,257.28,532.53,257.51Zm1.75,1.56c4.18.42,8.34.87,12.48,1.32-2.16-.11-4.42-.16-6.77-.2Q537.11,259.61,534.28,259.07Z"/><path class="cls-4" d="M475.32,501.19l-.52.41a51.55,51.55,0,0,1-3.4,14.65,98.3,98.3,0,0,1-6.82,14c25.09,19.89,142.77,11.46,161.08,9.2a480.59,480.59,0,0,0-4.22-48.49C576,488.57,522.27,511.86,475.32,501.19Z"/><path class="cls-1" d="M480.44,538.19l1.81.25c1.38-6.16,2.2-12.79,3-19.28A168.72,168.72,0,0,1,488.1,501a12.39,12.39,0,0,1-1.91.15,176.38,176.38,0,0,0-2.75,17.75C482.64,525.43,481.83,532.07,480.44,538.19Z"/><path class="cls-1" d="M477.89,537.81c-.87-11.56,2.23-25.41,4.86-37.08a13.65,13.65,0,0,1-1.74-.58c-2.63,11.7-5.75,25.58-5,37.39Z"/><path class="cls-1" d="M505,541.18c3.39-8.23,3.38-18.5,3.35-28.51,0-3.74,0-7.38.16-10.83-.61,0-1.22.09-1.83.12-.16,3.42-.15,7-.15,10.7,0,10,0,20.32-3.44,28.32Z"/><path class="cls-1" d="M499.62,540.62c-1.68-12,.78-26.61,3.05-38.53-.62,0-1.24,0-1.86,0-2.25,11.83-4.64,26.25-3.05,38.32Z"/><path class="cls-1" d="M528,543c3.3-11.63,7-27.82,7.49-43.65l-1.83.07c-.53,15.77-4.23,31.94-7.52,43.47Z"/><path class="cls-1" d="M524.3,542.77c-1.55-12.27,2.2-28.16,5.07-40.3.23-1,.46-2,.68-2.89l-1.91.17-.55,2.31c-2.87,12.17-6.61,28-5.13,40.59Z"/><path class="cls-1" d="M550.76,543.8c1.25-6.15,1.37-13.4,1.47-19.38,0-2,.06-3.86.13-5.38.14-2.81.25-5.68.35-8.47.15-4.09.31-8.24.57-12.38l-.59.06-1.25.11c-.24,4.06-.4,8.13-.55,12.13-.1,2.78-.21,5.65-.35,8.45-.07,1.55-.1,3.44-.14,5.44-.09,5.72-.21,13.22-1.51,19.39Z"/><path class="cls-1" d="M542.69,543.64l1.52,0c-.75-7.71-.23-15.52.29-23.16a154.32,154.32,0,0,0,.44-21.63l-1.81.13a152.35,152.35,0,0,1-.45,21.37c-.52,7.65-1,15.47-.3,23.25Z"/><path class="cls-1" d="M572.49,543.55l1.33-.07c4.71-13.75,3.83-29.56,3-44.9-.07-1.22-.13-2.43-.2-3.63l-1.81.3c.06,1.13.13,2.26.19,3.41.86,15.43,1.73,31.32-3.13,44.92Z"/><path class="cls-1" d="M571.09,543.61c-2.16-9.8-1.49-20.27-.83-30.44.37-5.71.75-11.55.63-17.3l-1.82.28c.1,5.6-.27,11.31-.63,16.9-.66,10.18-1.34,20.67.79,30.61C569.85,543.63,570.47,543.61,571.09,543.61Z"/><path class="cls-1" d="M595.4,541.78c4.19-11.3,4.14-28.16,4.1-42.33,0-3,0-5.87,0-8.55l-1.83.33c0,2.59,0,5.36,0,8.21,0,14.4.09,31.63-4.3,42.55Z"/><path class="cls-1" d="M589.35,542.39c-1.73-10.24-1.07-20.75-.42-31,.39-6.16.79-12.46.67-18.72l-1.81.32c.09,6.1-.29,12.25-.68,18.27-.65,10.3-1.33,20.88.41,31.26Z"/><path class="cls-1" d="M615.79,539.24c5.57-14.47,5.69-34.32,5-51.84l-1.81.23c.73,17.69.58,37.7-5.21,51.86Z"/><path class="cls-1" d="M608.74,540.14c-3.85-9.28-3.54-25.5-3.29-38,.09-4.77.18-9.06,0-12.33l-1.81.32c.14,3.16.06,7.33,0,12-.25,12.42-.56,28.48,3.3,38.26Z"/><path class="cls-5" d="M77.62,153.45c2.68-13.79,8-26.43,17.23-36.77q15.5-16.67,37.89-11.5c5,1.15,10.34,2.3,15.32,3.45,11.1,2.3,18.37,9.2,23,18.77a88.7,88.7,0,0,1,8,27.2,150.38,150.38,0,0,1-5.74,67.81c-6.89,25.28-15.31,49.41-24.12,73.93-3.44,10-8,19.54-11.86,29.88-1.92,4.6-3.45,9.19-5.36,14.56,5.74,2.68,10.33,3.83,15.69,3.83,6.13,0,12.63-.38,18.38-.38h14.16c1.15,2.68,2.3,5,3.44,7.27-2.29,4.22-5,5.37-9.18,4.22-3.45-.77-7.28-1.92-10.72-1.92h-70a15.88,15.88,0,0,1-4.59-.38,5.11,5.11,0,0,1-2.3-3.45,58.3,58.3,0,0,1,2.68-11.11c16.84-33.71,29.47-69.33,39.81-105.73,5-18.39,9.19-37.16,11.48-56.31a134.29,134.29,0,0,0,0-42.91c0-1.91-.76-3.06-.76-4.59-2.3-8.81-7.28-12.64-16.46-13.41a27.78,27.78,0,0,0-21.44,9.19c-3.83,5.37-8,10.35-9.57,16.86-1.15,4.6-1.91,9.19-3.44,13-2.3,4.6-5.36,6.9-11.1,4.6C78,158.05,77.62,155.75,77.62,153.45Z"/><path class="cls-5" d="M316.09,69.56q54.35,0,89.18,49.8,31,44.45,31,101.52,0,60.53-37.9,99.21T300,358.78q-49.38,0-79.23-46.73-25.65-40.23-25.65-92.32,0-57.07,31.39-101.14Q261.35,69.57,316.09,69.56Zm-21.82,40.61q-16.08,0-29.86,11.11t-13.78,26.81q0,54.41,12.64,95.39,15.3,49.8,49.76,80.83a34.09,34.09,0,0,0,23.34,8.81q23.73,0,35.22-13.41t11.48-37.16q0-25.29-10.71-64.36Q360.11,173.37,342.12,145,319.9,110.17,294.27,110.17Z"/></g></g></svg>